<svg width="970" height="204" viewBox="0 0 970 204" fill="none" xmlns="http://www.w3.org/2000/svg">
<path d="M288.34 109.76H252.01V138.08H292.63V152.53H234.41V56.1201H290.48V70.5701H252V95.4601H288.33V109.76H288.34Z" fill="white"/>
<path d="M319.1 82.8701L327.4 96.0301C329.69 99.7501 331.69 103.18 333.69 106.76H334.12C336.12 102.9 338.12 99.3201 340.13 95.7501L347.85 82.8801H367.02L343.7 116.34L367.45 152.53H347.57L338.98 138.65C336.69 134.93 334.69 131.21 332.69 127.35H332.4C330.4 131.36 328.39 134.79 326.11 138.65L318.1 152.53H298.65L322.82 117.06L299.5 82.8701H319.1Z" fill="white"/>
<path d="M426.52 150.38C422.8 152.1 415.51 153.96 406.78 153.96C385.04 153.96 370.88 140.09 370.88 118.49C370.88 97.6098 385.19 81.2998 409.65 81.2998C416.09 81.2998 422.67 82.7298 426.67 84.5898L423.52 97.7498C420.66 96.4598 416.51 95.0298 410.22 95.0298C396.77 95.0298 388.76 104.9 388.91 117.63C388.91 131.93 398.21 140.09 410.22 140.09C416.37 140.09 420.66 138.8 424.1 137.37L426.52 150.38Z" fill="white"/>
<path d="M439.53 50.9697H457.27V92.4497H457.56C459.71 89.1597 462.57 86.4397 466.29 84.4397C469.72 82.4397 473.87 81.2897 478.31 81.2897C490.18 81.2897 502.63 89.1597 502.63 111.47V152.52H485.04V113.47C485.04 103.31 481.32 95.7297 471.59 95.7297C464.72 95.7297 459.86 100.31 458 105.6C457.43 107.03 457.28 108.89 457.28 110.89V152.52H439.54V50.9697H439.53Z" fill="white"/>
<path d="M560.54 152.53L559.4 144.81H558.97C554.68 150.25 547.38 154.11 538.37 154.11C524.35 154.11 516.48 143.95 516.48 133.37C516.48 115.78 532.07 106.91 557.82 107.05V105.91C557.82 101.33 555.96 93.7496 543.66 93.7496C536.79 93.7496 529.64 95.8996 524.92 98.8996L521.49 87.4596C526.64 84.3096 535.65 81.3096 546.67 81.3096C568.99 81.3096 575.42 95.4696 575.42 110.63V135.81C575.42 142.1 575.71 148.25 576.42 152.55H560.54V152.53ZM558.25 118.49C545.81 118.2 533.93 120.92 533.93 131.51C533.93 138.38 538.36 141.52 543.94 141.52C550.95 141.52 556.1 136.94 557.67 131.94C558.1 130.65 558.24 129.22 558.24 128.08V118.49H558.25Z" fill="white"/>
<path d="M594.01 103.61C594.01 95.6 593.87 88.88 593.44 82.87H608.89L609.75 93.31H610.18C613.18 87.87 620.77 81.29 632.35 81.29C644.51 81.29 657.1 89.16 657.1 111.19V152.53H639.5V113.19C639.5 103.18 635.78 95.6 626.2 95.6C619.19 95.6 614.33 100.61 612.47 105.9C611.9 107.47 611.75 109.62 611.75 111.62V152.53H594.01V103.61Z" fill="white"/>
<path d="M739.48 82.8698C739.19 87.5898 738.91 93.3098 738.91 102.9V142.38C738.91 156.97 735.91 167.41 728.61 173.99C721.32 180.43 711.3 182.43 701.72 182.43C692.85 182.43 683.41 180.57 677.4 176.85L681.26 163.55C685.7 166.12 693.13 168.84 701.57 168.84C713.01 168.84 721.6 162.83 721.6 147.81V141.8H721.31C717.3 147.95 710.15 152.1 701 152.1C683.69 152.1 671.39 137.8 671.39 118.06C671.39 95.1698 686.27 81.2998 703 81.2998C713.59 81.2998 719.88 86.4498 723.17 92.1698H723.46L724.18 82.8698H739.48ZM721.32 110.76C721.32 109.19 721.18 107.47 720.75 106.04C718.89 99.5998 713.88 94.7398 706.45 94.7398C696.58 94.7398 689.28 103.32 689.28 117.48C689.28 129.35 695.29 138.94 706.3 138.94C712.88 138.94 718.6 134.65 720.6 128.35C721.03 126.49 721.32 124.06 721.32 122.06V110.76Z" fill="white"/>
<path d="M796.99 152.53L795.85 144.81H795.42C791.13 150.25 783.83 154.11 774.82 154.11C760.8 154.11 752.93 143.95 752.93 133.37C752.93 115.78 768.52 106.91 794.27 107.05V105.91C794.27 101.33 792.41 93.7496 780.11 93.7496C773.24 93.7496 766.09 95.8996 761.37 98.8996L757.94 87.4596C763.09 84.3096 772.1 81.3096 783.12 81.3096C805.44 81.3096 811.87 95.4696 811.87 110.63V135.81C811.87 142.1 812.16 148.25 812.87 152.55H796.99V152.53ZM794.7 118.49C782.26 118.2 770.38 120.92 770.38 131.51C770.38 138.38 774.81 141.52 780.39 141.52C787.4 141.52 792.55 136.94 794.12 131.94C794.55 130.65 794.69 129.22 794.69 128.08V118.49H794.7Z" fill="white"/>
<path d="M662.82 25.9297L666.33 43.9597C667.23 48.5597 668.13 53.4197 668.85 58.4697H669.03C669.93 53.4197 671.19 48.3797 672.27 44.0497L676.96 25.9297H687.78L692.2 43.5097C693.37 48.4697 694.54 53.4197 695.44 58.4697H695.62C696.25 53.4197 697.15 48.4697 698.14 43.4197L701.93 25.9297H715.36L701.84 69.9997H688.95L684.8 54.4997C683.72 50.1697 682.91 46.2097 682.01 40.7997H681.83C681.02 46.2997 680.12 50.3497 678.95 54.4997L674.53 69.9997H661.64L648.84 25.9297H662.82Z" fill="url(#paint0_linear_201_15187)"/>
<path d="M730.96 52.3297C731.41 58.0097 737 60.7097 743.4 60.7097C748.09 60.7097 751.87 60.0797 755.57 58.9097L757.37 68.1897C752.86 69.9897 747.37 70.8897 741.42 70.8897C726.46 70.8897 717.89 62.2397 717.89 48.4497C717.89 37.2697 724.83 24.9297 740.15 24.9297C754.39 24.9297 759.8 36.0197 759.8 46.9197C759.8 49.2597 759.53 51.3397 759.35 52.3297H730.96ZM747.1 42.9597C747.1 39.6197 745.66 34.0397 739.35 34.0397C733.58 34.0397 731.24 39.2697 730.88 42.9597H747.1Z" fill="url(#paint1_linear_201_15187)"/>
<path d="M767.65 69.9998C767.83 67.1198 768.01 61.7998 768.01 56.8398V6.00977H781.71V31.1598H781.89C784.5 27.3698 789.1 24.9398 795.23 24.9398C805.77 24.9398 813.53 33.6798 813.44 47.1998C813.44 63.0598 803.34 70.9898 793.25 70.9898C788.11 70.9898 783.16 69.0998 780 63.8698H779.82L779.28 69.9998H767.65ZM781.71 51.2498C781.71 52.1498 781.8 52.9598 781.98 53.6798C782.88 57.3798 786.04 60.1698 790 60.1698C795.86 60.1698 799.46 55.6598 799.46 47.7298C799.46 40.8798 796.4 35.4698 790 35.4698C786.3 35.4698 782.88 38.2598 781.98 42.2298C781.8 43.0398 781.71 43.8498 781.71 44.7498V51.2498Z" fill="url(#paint2_linear_201_15187)"/>
<path d="M135.83 27.2998H201.13L148.89 99.7198L116.24 54.6098L135.83 27.2998Z" fill="url(#paint3_linear_201_15187)"/>
<path d="M135.83 175.3H201.13L148.89 102.88L116.24 147.99L135.83 175.3Z" fill="url(#paint4_linear_201_15187)"/>
<path d="M137.71 101.3L62.13 0H0L75.58 101.3L0 202.6H62.13L137.71 101.3Z" fill="url(#paint5_linear_201_15187)"/>
<path d="M923.29 69.2295L861.96 104.199L861.98 104.229C868.13 100.989 873.95 98.4095 887.86 98.4095C907.92 98.4095 923.13 109.729 923.13 131.089C923.13 152.119 911.48 164.41 893.69 164.41C876.22 164.41 865.22 156.319 858.42 138.849L820.24 157.939C830.27 181.229 852.59 203.239 893.68 203.239C946.09 203.239 969.39 166.359 969.39 132.059C969.4 98.3095 947.87 75.6295 923.29 69.2295Z" fill="url(#paint6_linear_201_15187)"/>
<path d="M905.98 35.6395L859.07 99.8895L967.45 1.14953V1.01953H838.04V37.2595L905.98 35.6395Z" fill="url(#paint7_linear_201_15187)"/>
<defs>
<linearGradient id="paint0_linear_201_15187" x1="731.143" y1="6.00648" x2="731.143" y2="70.9911" gradientUnits="userSpaceOnUse">
<stop stop-color="#00FCD1"/>
<stop offset="1" stop-color="#157608"/>
</linearGradient>
<linearGradient id="paint1_linear_201_15187" x1="731.143" y1="6.00648" x2="731.143" y2="70.9911" gradientUnits="userSpaceOnUse">
<stop stop-color="#00FCD1"/>
<stop offset="1" stop-color="#157608"/>
</linearGradient>
<linearGradient id="paint2_linear_201_15187" x1="731.143" y1="6.00657" x2="731.143" y2="70.9912" gradientUnits="userSpaceOnUse">
<stop stop-color="#00FCD1"/>
<stop offset="1" stop-color="#157608"/>
</linearGradient>
<linearGradient id="paint3_linear_201_15187" x1="158.685" y1="27.3011" x2="158.685" y2="99.7165" gradientUnits="userSpaceOnUse">
<stop stop-color="#157608"/>
<stop offset="1" stop-color="#00FCD1"/>
</linearGradient>
<linearGradient id="paint4_linear_201_15187" x1="158.685" y1="102.882" x2="158.685" y2="175.298" gradientUnits="userSpaceOnUse">
<stop stop-color="#157608"/>
<stop offset="1" stop-color="#00FCD1"/>
</linearGradient>
<linearGradient id="paint5_linear_201_15187" x1="68.8583" y1="0.0002" x2="68.8583" y2="202.599" gradientUnits="userSpaceOnUse">
<stop stop-color="#157608"/>
<stop offset="1" stop-color="#00FCD1"/>
</linearGradient>
<linearGradient id="paint6_linear_201_15187" x1="894.82" y1="67.9822" x2="894.82" y2="176.322" gradientUnits="userSpaceOnUse">
<stop stop-color="#157608"/>
<stop offset="1" stop-color="#00FCD1"/>
</linearGradient>
<linearGradient id="paint7_linear_201_15187" x1="902.747" y1="6.59123" x2="902.747" y2="60.9327" gradientUnits="userSpaceOnUse">
<stop stop-color="#157608"/>
<stop offset="1" stop-color="#00FCD1"/>
</linearGradient>
</defs>
</svg>
