<?xml version="1.0" encoding="UTF-8"?>
<svg width="77px" height="123px" viewBox="0 0 77 123" version="1.1" xmlns="http://www.w3.org/2000/svg" xmlns:xlink="http://www.w3.org/1999/xlink">
    <!-- Generator: Sketch 56.3 (81716) - https://sketch.com -->
    <title>Group 9</title>
    <desc>Created with Sketch.</desc>
    <defs>
        <linearGradient x1="-0.0157526254%" y1="50.468836%" x2="99.9529755%" y2="50.468836%" id="linearGradient-1">
            <stop stop-color="#CDDAF4" offset="0%"></stop>
            <stop stop-color="#DAE4F8" offset="13.14%"></stop>
            <stop stop-color="#EDF3FD" offset="38.28%"></stop>
            <stop stop-color="#F4F9FF" offset="55.66%"></stop>
            <stop stop-color="#F1F7FE" offset="72.39%"></stop>
            <stop stop-color="#E8F0FC" offset="83.73%"></stop>
            <stop stop-color="#D9E4F7" offset="93.45%"></stop>
            <stop stop-color="#CAD8F3" offset="100%"></stop>
        </linearGradient>
        <linearGradient x1="100%" y1="66.9505399%" x2="0%" y2="33.0494601%" id="linearGradient-2">
            <stop stop-color="#295DAB" offset="0%"></stop>
            <stop stop-color="#5495F7" offset="100%"></stop>
        </linearGradient>
        <linearGradient x1="36.9536961%" y1="63.2268323%" x2="63.0293433%" y2="36.7788368%" id="linearGradient-3">
            <stop stop-color="#F4F9FF" offset="0%"></stop>
            <stop stop-color="#CAD8F3" offset="100%"></stop>
        </linearGradient>
        <linearGradient x1="49.9877429%" y1="99.9805477%" x2="49.9877429%" y2="0.0441926346%" id="linearGradient-4">
            <stop stop-color="#45CC86" offset="0%"></stop>
            <stop stop-color="#BAF281" offset="100%"></stop>
        </linearGradient>
        <linearGradient x1="49.986272%" y1="99.9768614%" x2="49.986272%" y2="-0.0575028637%" id="linearGradient-5">
            <stop stop-color="#45CC86" offset="0%"></stop>
            <stop stop-color="#BAF281" offset="100%"></stop>
        </linearGradient>
        <linearGradient x1="0.0621175031%" y1="50.3009186%" x2="100.011506%" y2="50.3009186%" id="linearGradient-6">
            <stop stop-color="#CDDAF4" offset="0%"></stop>
            <stop stop-color="#DAE4F8" offset="13.14%"></stop>
            <stop stop-color="#EDF3FD" offset="38.28%"></stop>
            <stop stop-color="#F4F9FF" offset="55.66%"></stop>
            <stop stop-color="#F1F7FE" offset="72.39%"></stop>
            <stop stop-color="#E8F0FC" offset="83.73%"></stop>
            <stop stop-color="#D9E4F7" offset="93.45%"></stop>
            <stop stop-color="#CAD8F3" offset="100%"></stop>
        </linearGradient>
        <linearGradient x1="100%" y1="66.9305062%" x2="0%" y2="33.0694938%" id="linearGradient-7">
            <stop stop-color="#295DAB" offset="0%"></stop>
            <stop stop-color="#5495F7" offset="100%"></stop>
        </linearGradient>
        <linearGradient x1="-0.00752625437%" y1="50.4693367%" x2="99.9612019%" y2="50.4693367%" id="linearGradient-8">
            <stop stop-color="#CDDAF4" offset="0%"></stop>
            <stop stop-color="#DAE4F8" offset="13.14%"></stop>
            <stop stop-color="#EDF3FD" offset="38.28%"></stop>
            <stop stop-color="#F4F9FF" offset="55.66%"></stop>
            <stop stop-color="#F1F7FE" offset="72.39%"></stop>
            <stop stop-color="#E8F0FC" offset="83.73%"></stop>
            <stop stop-color="#D9E4F7" offset="93.45%"></stop>
            <stop stop-color="#CAD8F3" offset="100%"></stop>
        </linearGradient>
        <linearGradient x1="0.0569010797%" y1="50.0071501%" x2="100.004961%" y2="50.0071501%" id="linearGradient-9">
            <stop stop-color="#F4F9FF" offset="0%"></stop>
            <stop stop-color="#CAD8F3" offset="100%"></stop>
        </linearGradient>
        <linearGradient x1="36.9642026%" y1="63.2270081%" x2="63.039925%" y2="36.7790566%" id="linearGradient-10">
            <stop stop-color="#F4F9FF" offset="0%"></stop>
            <stop stop-color="#CAD8F3" offset="100%"></stop>
        </linearGradient>
        <linearGradient x1="50.0031737%" y1="99.9818697%" x2="50.0031737%" y2="0.0455146364%" id="linearGradient-11">
            <stop stop-color="#7352FA" offset="0.1257622%"></stop>
            <stop stop-color="#A44BFE" offset="99.87%"></stop>
        </linearGradient>
        <linearGradient x1="50.0039043%" y1="99.9780069%" x2="50.0039043%" y2="-0.0565864834%" id="linearGradient-12">
            <stop stop-color="#7352FA" offset="0.1257622%"></stop>
            <stop stop-color="#A44BFE" offset="99.87%"></stop>
        </linearGradient>
        <linearGradient x1="100%" y1="73.4275578%" x2="0%" y2="26.5724422%" id="linearGradient-13">
            <stop stop-color="#295DAB" offset="0%"></stop>
            <stop stop-color="#5495F7" offset="100%"></stop>
        </linearGradient>
        <linearGradient x1="59.2085896%" y1="98.2547413%" x2="59.2085896%" y2="-11.8299994%" id="linearGradient-14">
            <stop stop-color="#0364FF" offset="0%"></stop>
            <stop stop-color="#307FFB" stop-opacity="0.276606206" offset="26.8185177%"></stop>
            <stop stop-color="#5495F7" stop-opacity="0" offset="100%"></stop>
        </linearGradient>
        <linearGradient x1="49.9832822%" y1="95.3356445%" x2="49.9832822%" y2="0.113496013%" id="linearGradient-15">
            <stop stop-color="#0364FF" offset="0%"></stop>
            <stop stop-color="#0364FF" offset="5.494619%"></stop>
            <stop stop-color="#0364FF" offset="16.16%"></stop>
            <stop stop-color="#0364FF" offset="30.1836993%"></stop>
            <stop stop-color="#0364FF" stop-opacity="0.307391827" offset="48.1%"></stop>
            <stop stop-color="#0364FF" stop-opacity="0" offset="100%"></stop>
        </linearGradient>
        <linearGradient x1="50.2261421%" y1="100.028418%" x2="50.2261421%" y2="0.0568364611%" id="linearGradient-16">
            <stop stop-color="#FFFFFF" offset="0%"></stop>
            <stop stop-color="#FFFFFF" stop-opacity="0.8883" offset="11.13%"></stop>
            <stop stop-color="#FFFFFF" stop-opacity="0" offset="99.62%"></stop>
        </linearGradient>
        <linearGradient x1="50%" y1="0%" x2="50%" y2="100%" id="linearGradient-17">
            <stop stop-color="#2D2788" offset="0%"></stop>
            <stop stop-color="#1B1B6B" offset="100%"></stop>
        </linearGradient>
        <path d="M1.144,25.1885714 C1.1,25.0057143 1.012,24.8685714 0.968,24.6857143 C0.924,24.5028571 0.88,24.3657143 0.836,24.1828571 C0.792,24 0.748,23.8171429 0.704,23.6342857 C0.66,23.4514286 0.616,23.2685714 0.572,23.0857143 C0.528,22.9485714 0.528,22.8114286 0.484,22.6285714 C0.484,22.5828571 0.484,22.5371429 0.44,22.4914286 C0.396,22.3085714 0.352,22.08 0.352,21.8971429 C0.308,21.7142857 0.308,21.4857143 0.264,21.3028571 C0.22,21.12 0.22,20.8914286 0.176,20.7085714 C0.176,20.5257143 0.132,20.2971429 0.132,20.1142857 C0.132,19.9314286 0.088,19.7028571 0.088,19.52 C0.088,19.3371429 0.088,19.1085714 0.044,18.9257143 C0.044,18.7428571 0.044,18.56 0.044,18.3314286 C0.044,18.1485714 0.044,17.9657143 0.044,17.7828571 C0.044,17.6 0.044,17.4171429 0.044,17.1885714 C0.044,17.0057143 0.044,16.8228571 0.088,16.5942857 C0.088,16.3657143 0.132,16.1828571 0.132,15.9542857 C0.132,15.7257143 0.176,15.4514286 0.22,15.2228571 C0.264,14.8571429 0.308,14.4914286 0.352,14.08 C0.44,13.5314286 0.528,12.9371429 0.66,12.3885714 C0.748,12.0228571 0.836,11.6571429 0.924,11.3371429 C0.968,11.1085714 1.056,10.8342857 1.144,10.6057143 C1.188,10.3771429 1.276,10.1485714 1.364,9.96571429 C1.452,9.73714286 1.496,9.55428571 1.584,9.32571429 C1.672,9.14285714 1.716,8.91428571 1.804,8.73142857 C1.892,8.50285714 1.98,8.32 2.024,8.13714286 C2.112,7.95428571 2.2,7.72571429 2.288,7.54285714 C2.376,7.36 2.464,7.13142857 2.552,6.94857143 C2.64,6.76571429 2.728,6.53714286 2.86,6.35428571 C2.948,6.17142857 3.036,5.98857143 3.168,5.80571429 C3.256,5.62285714 3.388,5.44 3.476,5.25714286 C3.564,5.07428571 3.696,4.93714286 3.784,4.75428571 C3.872,4.61714286 4.004,4.43428571 4.092,4.29714286 C4.18,4.16 4.312,4.02285714 4.4,3.88571429 C4.444,3.84 4.444,3.84 4.488,3.79428571 C4.576,3.70285714 4.664,3.56571429 4.708,3.47428571 C4.796,3.33714286 4.928,3.2 5.016,3.10857143 C5.104,2.97142857 5.236,2.88 5.324,2.74285714 C5.412,2.60571429 5.544,2.51428571 5.676,2.42285714 C5.808,2.33142857 5.896,2.19428571 6.028,2.10285714 C6.116,2.01142857 6.248,1.92 6.38,1.82857143 C6.38,1.82857143 6.38,1.82857143 6.424,1.82857143 C6.556,1.73714286 6.688,1.64571429 6.82,1.55428571 C6.952,1.46285714 7.084,1.37142857 7.216,1.28 C7.348,1.18857143 7.48,1.09714286 7.612,1.00571429 C7.744,0.914285714 7.876,0.868571429 8.052,0.777142857 C8.184,0.685714286 8.36,0.64 8.492,0.594285714 C8.668,0.502857143 8.844,0.457142857 9.02,0.411428571 C9.24,0.365714286 9.416,0.32 9.636,0.274285714 C9.9,0.228571429 10.164,0.182857143 10.384,0.182857143 C10.692,0.182857143 11,0.182857143 11.308,0.228571429 L15.048,0.822857143 C14.74,0.777142857 14.432,0.731428571 14.124,0.777142857 C13.86,0.777142857 13.64,0.822857143 13.376,0.868571429 C13.156,0.914285714 12.98,0.96 12.76,1.00571429 C12.584,1.05142857 12.408,1.09714286 12.232,1.18857143 C12.1,1.23428571 11.924,1.32571429 11.792,1.37142857 C11.66,1.46285714 11.528,1.50857143 11.352,1.6 C11.22,1.69142857 11.088,1.78285714 10.956,1.87428571 C10.824,1.96571429 10.692,2.05714286 10.56,2.14857143 C10.428,2.24 10.296,2.33142857 10.164,2.42285714 C10.164,2.42285714 10.164,2.42285714 10.12,2.42285714 C9.988,2.51428571 9.9,2.60571429 9.768,2.69714286 C9.636,2.78857143 9.548,2.92571429 9.416,3.01714286 C9.284,3.10857143 9.196,3.24571429 9.064,3.33714286 C8.976,3.47428571 8.844,3.56571429 8.756,3.70285714 C8.668,3.84 8.536,3.93142857 8.448,4.06857143 C8.36,4.16 8.272,4.25142857 8.228,4.38857143 C8.184,4.43428571 8.184,4.43428571 8.14,4.48 C8.052,4.61714286 7.92,4.75428571 7.832,4.89142857 C7.744,5.02857143 7.612,5.21142857 7.524,5.34857143 C7.436,5.48571429 7.304,5.66857143 7.216,5.85142857 C7.128,6.03428571 6.996,6.21714286 6.908,6.4 C6.82,6.58285714 6.688,6.76571429 6.6,6.94857143 C6.512,7.13142857 6.424,7.31428571 6.292,7.54285714 C6.204,7.72571429 6.116,7.95428571 6.028,8.13714286 C5.94,8.32 5.852,8.54857143 5.764,8.73142857 C5.676,8.91428571 5.588,9.14285714 5.544,9.32571429 C5.456,9.50857143 5.412,9.73714286 5.324,9.92 C5.236,10.1485714 5.192,10.3314286 5.104,10.56 C5.016,10.7885714 4.972,10.9714286 4.884,11.2 C4.796,11.4285714 4.752,11.7028571 4.664,11.9314286 C4.576,12.2971429 4.488,12.6171429 4.4,12.9828571 C4.268,13.5314286 4.18,14.08 4.092,14.6742857 C4.048,15.04 4.004,15.4057143 3.96,15.8171429 C3.916,16.0457143 3.916,16.32 3.872,16.5485714 C3.872,16.7771429 3.828,16.96 3.828,17.1885714 C3.828,17.3714286 3.828,17.5542857 3.784,17.7828571 C3.784,17.9657143 3.784,18.1485714 3.784,18.3771429 C3.784,18.56 3.784,18.7428571 3.784,18.9257143 C3.784,19.1085714 3.784,19.2914286 3.784,19.52 C3.784,19.7028571 3.784,19.9314286 3.828,20.1142857 C3.828,20.2971429 3.872,20.5257143 3.872,20.7085714 C3.872,20.8914286 3.916,21.12 3.916,21.3028571 C3.916,21.4857143 3.96,21.7142857 4.004,21.8971429 C4.048,22.08 4.048,22.3085714 4.092,22.4914286 C4.136,22.6742857 4.136,22.9028571 4.18,23.0857143 C4.18,23.1314286 4.18,23.1771429 4.224,23.2228571 C4.268,23.36 4.268,23.4971429 4.312,23.68 C4.356,23.8628571 4.4,24.0457143 4.444,24.2285714 C4.488,24.4114286 4.532,24.5942857 4.576,24.7771429 C4.62,24.96 4.664,25.1428571 4.708,25.28 C4.752,25.4628571 4.796,25.6 4.884,25.7828571 C4.928,25.9657143 5.016,26.1028571 5.06,26.2857143 C5.104,26.4685714 5.192,26.6057143 5.236,26.7885714 C5.324,26.9257143 5.368,27.1085714 5.456,27.2457143 C5.544,27.4285714 5.632,27.5657143 5.676,27.7028571 C5.764,27.84 5.852,28.0228571 5.94,28.16 C6.028,28.3428571 6.116,28.48 6.248,28.6171429 C6.336,28.8 6.468,28.9371429 6.6,29.0742857 C6.732,29.2571429 6.864,29.3942857 6.996,29.5314286 C7.128,29.7142857 7.304,29.8514286 7.48,30.0342857 C7.7,30.2171429 7.92,30.4457143 8.14,30.5828571 C8.888,31.1314286 9.68,31.4971429 10.516,31.6342857 L6.776,31.04 C5.94,30.9028571 5.148,30.5371429 4.4,29.9885714 C4.18,29.8057143 3.96,29.6228571 3.74,29.44 C3.564,29.3028571 3.432,29.12 3.256,28.9371429 C3.124,28.8 2.992,28.6171429 2.86,28.48 C2.728,28.3428571 2.64,28.16 2.508,28.0228571 C2.42,27.8857143 2.332,27.7028571 2.2,27.5657143 C2.112,27.4285714 2.024,27.2457143 1.936,27.1085714 C1.848,26.9714286 1.76,26.7885714 1.716,26.6514286 C1.628,26.5142857 1.584,26.3314286 1.496,26.1942857 C1.408,26.0571429 1.364,25.8742857 1.32,25.6914286 C1.276,25.5085714 1.188,25.3714286 1.144,25.1885714 Z" id="path-18"></path>
        <filter x="-180.0%" y="-66.8%" width="459.9%" height="271.7%" filterUnits="objectBoundingBox" id="filter-19">
            <feOffset dx="0" dy="6" in="SourceAlpha" result="shadowOffsetOuter1"></feOffset>
            <feGaussianBlur stdDeviation="8" in="shadowOffsetOuter1" result="shadowBlurOuter1"></feGaussianBlur>
            <feColorMatrix values="0 0 0 0 0   0 0 0 0 0   0 0 0 0 0  0 0 0 0.0292285839 0" type="matrix" in="shadowBlurOuter1"></feColorMatrix>
        </filter>
        <linearGradient x1="50%" y1="0%" x2="50%" y2="100%" id="linearGradient-20">
            <stop stop-color="#2D2788" offset="0%"></stop>
            <stop stop-color="#1B1B6B" offset="100%"></stop>
        </linearGradient>
        <path d="M8.184,4.38857143 C4.708,8.91428571 2.948,16.6857143 4.18,23.2228571 C5.632,30.8571429 10.604,33.92 15.312,30.0342857 C15.972,29.4857143 16.632,28.8 17.204,28.0228571 C20.68,23.4971429 22.44,15.7257143 21.208,9.14285714 C19.756,1.50857143 14.784,-1.55428571 10.076,2.33142857 C9.416,2.97142857 8.756,3.61142857 8.184,4.38857143 Z" id="path-21"></path>
        <filter x="-151.6%" y="-67.6%" width="403.2%" height="273.8%" filterUnits="objectBoundingBox" id="filter-22">
            <feOffset dx="0" dy="6" in="SourceAlpha" result="shadowOffsetOuter1"></feOffset>
            <feGaussianBlur stdDeviation="8" in="shadowOffsetOuter1" result="shadowBlurOuter1"></feGaussianBlur>
            <feColorMatrix values="0 0 0 0 0   0 0 0 0 0   0 0 0 0 0  0 0 0 0.0292285839 0" type="matrix" in="shadowBlurOuter1"></feColorMatrix>
        </filter>
        <linearGradient x1="50%" y1="0%" x2="50%" y2="100%" id="linearGradient-23">
            <stop stop-color="#2D2788" offset="0%"></stop>
            <stop stop-color="#1B1B6B" offset="100%"></stop>
        </linearGradient>
        <path d="M9.064,6.81142857 C6.292,10.4228571 4.884,16.6857143 5.852,21.8971429 C6.996,28.0228571 11,30.4457143 14.784,27.3371429 C15.312,26.88 15.84,26.3314286 16.28,25.7371429 C19.052,22.1257143 20.46,15.8628571 19.492,10.6514286 C18.348,4.52571429 14.344,2.10285714 10.56,5.21142857 C10.032,5.66857143 9.548,6.21714286 9.064,6.81142857 Z" id="path-24"></path>
        <filter x="-189.5%" y="-84.6%" width="479.0%" height="317.4%" filterUnits="objectBoundingBox" id="filter-25">
            <feOffset dx="0" dy="6" in="SourceAlpha" result="shadowOffsetOuter1"></feOffset>
            <feGaussianBlur stdDeviation="8" in="shadowOffsetOuter1" result="shadowBlurOuter1"></feGaussianBlur>
            <feColorMatrix values="0 0 0 0 0   0 0 0 0 0   0 0 0 0 0  0 0 0 0.0292285839 0" type="matrix" in="shadowBlurOuter1"></feColorMatrix>
        </filter>
    </defs>
    <g id="Invision-3" stroke="none" stroke-width="1" fill="none" fill-rule="evenodd">
        <g id="Home---Dark-Theme-2" transform="translate(-1180.000000, -399.000000)">
            <g id="Group-9" transform="translate(1180.000000, 408.000000)">
                <g id="Group" transform="translate(0.000000, 25.000000)">
                    <g transform="translate(0.445500, 30.884318)" id="Path">
                        <path d="M76.3586292,22.4247008 C76.3586292,22.4694607 76.3586292,22.5142206 76.3586292,22.5589805 C76.3586292,22.6037404 76.3586292,22.6485002 76.3140793,22.6485002 C76.3140793,22.6932601 76.3140793,22.73802 76.2695293,22.7827799 C76.2695293,22.8275398 76.2249794,22.8275398 76.2249794,22.8722996 C76.2249794,22.9170595 76.1804294,22.9618194 76.1804294,23.0065793 C76.1804294,23.0513392 76.1358794,23.0513392 76.1358794,23.0960991 C76.0913295,23.1408589 76.0913295,23.1856188 76.0467795,23.2303787 C76.0467795,23.2751386 76.0022296,23.2751386 76.0022296,23.3198985 C75.9576796,23.3646583 75.9131296,23.4541781 75.8240297,23.498938 C75.8240297,23.498938 75.7794798,23.5436979 75.7794798,23.5436979 C75.7349298,23.5884578 75.6903799,23.5884578 75.6458299,23.6332176 C75.6012799,23.6779775 75.55673,23.6779775 75.51218,23.7227374 C75.4676301,23.7674973 75.4230801,23.7674973 75.3785301,23.8122572 C75.3339802,23.857017 75.2894302,23.857017 75.2448803,23.9017769 L41.1641618,43.8199244 C41.030512,43.9094441 40.9414121,43.954204 40.8077622,43.9989639 C40.7632122,43.9989639 40.7186623,44.0437238 40.6741123,44.0437238 C40.5850124,44.0884837 40.4513625,44.1332435 40.3622626,44.1780034 C40.3177126,44.1780034 40.2731627,44.2227633 40.2286127,44.2227633 C40.1840628,44.2227633 40.0949628,44.2675232 40.0058629,44.2675232 C39.961313,44.2675232 39.916763,44.3122831 39.8276631,44.3122831 C39.7385632,44.3122831 39.6940132,44.3570429 39.6049133,44.3570429 C39.5603633,44.3570429 39.5158134,44.3570429 39.4712634,44.4018028 C39.3376135,44.4465627 39.1594137,44.4465627 39.0257638,44.4465627 C38.9812139,44.4465627 38.9366639,44.4465627 38.892114,44.4465627 C38.803014,44.4465627 38.7139141,44.4465627 38.6248142,44.4465627 C38.5802642,44.4465627 38.4911643,44.4465627 38.4466144,44.4465627 C38.3575145,44.4465627 38.3129645,44.4465627 38.2238646,44.4465627 C38.1793146,44.4465627 38.0902147,44.4465627 38.0456647,44.4465627 C37.9565648,44.4465627 37.9120149,44.4465627 37.8229149,44.4465627 C37.778365,44.4465627 37.6892651,44.4465627 37.6447151,44.4465627 C37.5556152,44.4465627 37.5110652,44.4465627 37.4665153,44.4018028 C37.4219653,44.4018028 37.3328654,44.4018028 37.2883154,44.3570429 C37.1992155,44.3570429 37.1546656,44.3122831 37.0655656,44.3122831 C37.0210157,44.3122831 36.9764657,44.3122831 36.8873658,44.2675232 C36.7982659,44.2675232 36.709166,44.2227633 36.6200661,44.2227633 C36.5755161,44.2227633 36.5309661,44.1780034 36.4864162,44.1780034 C36.3527663,44.1332435 36.2191164,44.0884837 36.0854666,44.0437238 C35.9963666,43.9989639 35.9518167,43.9989639 35.9072667,43.954204 C35.8627168,43.954204 35.8181668,43.9094441 35.8181668,43.9094441 C35.7290669,43.8646842 35.639967,43.8199244 35.5508671,43.7751645 L1.24739884,23.857017 C0.490049546,23.4094182 0.0890999174,22.8275398 0.0890999174,22.2009014 L0.0445499587,35.7183857 C0.0445499587,36.3002642 0.445499587,36.9269026 1.20284889,37.3745014 L35.5063171,57.2926488 C35.595417,57.3374087 35.6845169,57.3821686 35.7736168,57.4269285 C35.8181668,57.4269285 35.8627168,57.4716883 35.8627168,57.4716883 C35.9072667,57.5164482 35.9963666,57.5164482 36.0409166,57.5612081 C36.0409166,57.5612081 36.0409166,57.5612081 36.0854666,57.5612081 C36.2191164,57.605968 36.3527663,57.6507279 36.4864162,57.6954877 C36.4864162,57.6954877 36.4864162,57.6954877 36.5309661,57.6954877 C36.5755161,57.6954877 36.6200661,57.6954877 36.6200661,57.7402476 C36.709166,57.7402476 36.7982659,57.7850075 36.8873658,57.7850075 C36.8873658,57.7850075 36.9319158,57.7850075 36.9319158,57.7850075 C36.9764657,57.7850075 37.0210157,57.7850075 37.0210157,57.7850075 C37.1101156,57.7850075 37.1546656,57.8297674 37.2437655,57.8297674 C37.2883154,57.8297674 37.2883154,57.8297674 37.3328654,57.8297674 C37.3774154,57.8297674 37.3774154,57.8297674 37.4219653,57.8297674 C37.4665153,57.8297674 37.5556152,57.8297674 37.6001652,57.8745273 C37.6447151,57.8745273 37.6447151,57.8745273 37.6892651,57.8745273 C37.733815,57.8745273 37.733815,57.8745273 37.778365,57.8745273 C37.8674649,57.8745273 37.9120149,57.8745273 38.0011148,57.8745273 C38.0456647,57.8745273 38.0456647,57.8745273 38.0902147,57.8745273 C38.1347647,57.8745273 38.1347647,57.8745273 38.1793146,57.8745273 C38.2684145,57.8745273 38.3129645,57.8745273 38.4020644,57.8745273 C38.4466144,57.8745273 38.4911643,57.8745273 38.4911643,57.8745273 C38.4911643,57.8745273 38.5357143,57.8745273 38.5357143,57.8745273 C38.6248142,57.8745273 38.7139141,57.8745273 38.803014,57.8745273 C38.847564,57.8745273 38.892114,57.8745273 38.892114,57.8745273 C38.892114,57.8745273 38.892114,57.8745273 38.9366639,57.8745273 C39.0703138,57.8745273 39.2485136,57.8297674 39.3821635,57.8297674 C39.3821635,57.8297674 39.3821635,57.8297674 39.4267135,57.8297674 C39.4712634,57.8297674 39.5158134,57.8297674 39.5603633,57.7850075 C39.6494633,57.7850075 39.6940132,57.7402476 39.7831131,57.7402476 C39.8276631,57.7402476 39.872213,57.6954877 39.961313,57.6954877 C40.0504129,57.6954877 40.0949628,57.6507279 40.1840628,57.6507279 C40.1840628,57.6507279 40.2286127,57.6507279 40.2286127,57.6507279 C40.2731627,57.6507279 40.2731627,57.6507279 40.3177126,57.605968 C40.4068126,57.5612081 40.5404624,57.5164482 40.6295623,57.4716883 C40.6741123,57.4716883 40.7186623,57.4269285 40.7632122,57.4269285 C40.8968621,57.3821686 41.030512,57.2926488 41.1196119,57.2478889 L75.2003303,37.3297415 C75.2003303,37.3297415 75.2448803,37.3297415 75.2448803,37.2849816 C75.2894302,37.2849816 75.3339802,37.2402217 75.3339802,37.1954618 C75.3785301,37.150702 75.4230801,37.150702 75.4676301,37.1059421 C75.51218,37.0611822 75.55673,37.0611822 75.55673,37.0164223 C75.6012799,36.9716624 75.6458299,36.9716624 75.6903799,36.9269026 C75.6903799,36.9269026 75.6903799,36.9269026 75.7349298,36.9269026 C75.7349298,36.9269026 75.7794798,36.8821427 75.7794798,36.8821427 C75.8240297,36.8373828 75.9131296,36.747863 75.9576796,36.7031031 C75.9576796,36.7031031 76.0022296,36.6583433 76.0022296,36.6583433 C76.0022296,36.6583433 76.0022296,36.6135834 76.0467795,36.6135834 C76.0913295,36.5688235 76.0913295,36.5240636 76.1358794,36.4793037 C76.1358794,36.4793037 76.1804294,36.4345439 76.1804294,36.4345439 C76.1804294,36.4345439 76.1804294,36.4345439 76.1804294,36.389784 C76.1804294,36.3450241 76.2249794,36.3002642 76.2249794,36.2555043 C76.2249794,36.2107444 76.2695293,36.2107444 76.2695293,36.1659846 C76.2695293,36.1659846 76.2695293,36.1659846 76.2695293,36.1212247 C76.2695293,36.0764648 76.3140793,36.0317049 76.3140793,35.986945 C76.3140793,35.9421852 76.3140793,35.9421852 76.3586292,35.8974253 C76.3586292,35.8974253 76.3586292,35.8974253 76.3586292,35.8974253 C76.3586292,35.8526654 76.3586292,35.8079055 76.3586292,35.7631456 C76.3586292,35.7183857 76.3586292,35.7183857 76.3586292,35.6736259 C76.3586292,35.6736259 76.3586292,35.628866 76.3586292,35.628866 L76.4031792,22.1113817 C76.3586292,22.3799409 76.3586292,22.4247008 76.3586292,22.4247008 Z" fill="url(#linearGradient-1)" fill-rule="nonzero"></path>
                        <path d="M75.2003303,20.6790654 C76.7595789,21.5742631 76.7595789,23.0513392 75.2003303,23.9465368 L41.1196119,43.8646842 C39.6049133,44.7598819 37.0655656,44.7598819 35.5063171,43.8646842 L1.20284889,23.9465368 C-0.35639967,23.0513392 -0.35639967,21.5742631 1.20284889,20.6790654 L35.2835673,0.760917992 C36.7982659,-0.134279646 39.3376135,-0.134279646 40.8968621,0.760917992 L75.2003303,20.6790654 Z" fill="url(#linearGradient-2)"></path>
                        <path d="M67.0031379,21.0371445 C68.2059868,21.7533026 68.2059868,22.8722996 67.0031379,23.5884578 L40.4959125,39.0753769 C39.2930636,39.791535 37.3328654,39.791535 36.1300165,39.0753769 L9.44459125,23.5884578 C8.24174236,22.8722996 8.24174236,21.7533026 9.44459125,21.0371445 L35.9518167,5.55022535 C37.1546656,4.83406724 39.1148637,4.83406724 40.3177126,5.55022535 L67.0031379,21.0371445 Z" fill="url(#linearGradient-3)" fill-rule="nonzero"></path>
                        <path d="M57.9594963,21.4399834 C58.7613955,21.9323421 58.8059455,22.6932601 57.9594963,23.1856188 L39.7831131,33.7937108 C38.9812139,34.2860695 37.6001652,34.2860695 36.7982659,33.7937108 L18.4882329,23.1856188 C17.6863336,22.6932601 17.6417836,21.9323421 18.4882329,21.4399834 L36.664616,10.8318914 C37.4665153,10.3395327 38.847564,10.3395327 39.6494633,10.8318914 L57.9594963,21.4399834 Z" fill="url(#linearGradient-4)" fill-rule="nonzero"></path>
                        <path d="M39.7831131,33.7937108 L55.9101982,24.3941356 L39.6494633,14.9945604 C38.847564,14.5022017 37.4665153,14.5022017 36.664616,14.9945604 L20.537531,24.3941356 L36.7982659,33.7937108 C37.6001652,34.2860695 38.9366639,34.2860695 39.7831131,33.7937108 Z" fill="url(#linearGradient-5)" fill-rule="nonzero"></path>
                    </g>
                    <g transform="translate(1.781998, 17.903953)" id="Path">
                        <path d="M73.1955822,21.5295032 C73.1955822,21.5742631 73.1955822,21.6190229 73.1955822,21.6637828 C73.1955822,21.7085427 73.1955822,21.7085427 73.1510322,21.7533026 C73.1510322,21.7980625 73.1510322,21.8428224 73.1064822,21.8875822 C73.1064822,21.9323421 73.0619323,21.9323421 73.0619323,21.977102 C73.0619323,22.0218619 73.0173823,22.0666218 73.0173823,22.1113817 C73.0173823,22.1561415 72.9728324,22.1561415 72.9728324,22.2009014 C72.9282824,22.2456613 72.9282824,22.2904212 72.8837325,22.3351811 C72.8837325,22.3799409 72.8391825,22.3799409 72.8391825,22.4247008 C72.7946325,22.4694607 72.7500826,22.5589805 72.6609827,22.6037404 C72.6609827,22.6037404 72.6164327,22.6485002 72.6164327,22.6485002 C72.5718827,22.6932601 72.5273328,22.6932601 72.4827828,22.73802 C72.4382329,22.7827799 72.3936829,22.7827799 72.3936829,22.8275398 C72.3491329,22.8722996 72.304583,22.8722996 72.260033,22.9170595 C72.2154831,22.9618194 72.1709331,22.9618194 72.1263832,23.0065793 L39.6494633,41.9847692 C39.5158134,42.0295291 39.4267135,42.1190489 39.2930636,42.1638087 C39.2485136,42.1638087 39.2039637,42.2085686 39.2039637,42.2085686 C39.1148637,42.2533285 39.0257638,42.2980884 38.892114,42.2980884 C38.847564,42.2980884 38.803014,42.3428483 38.7584641,42.3428483 C38.7139141,42.3428483 38.6248142,42.3876081 38.5802642,42.3876081 C38.5357143,42.3876081 38.4911643,42.432368 38.4466144,42.432368 C38.3575145,42.432368 38.3129645,42.4771279 38.2238646,42.4771279 C38.1793146,42.4771279 38.1347647,42.4771279 38.0902147,42.5218878 C37.9565648,42.5666477 37.8229149,42.5666477 37.6447151,42.5666477 C37.6001652,42.5666477 37.5556152,42.5666477 37.5110652,42.5666477 C37.4219653,42.5666477 37.3328654,42.5666477 37.2437655,42.5666477 C37.1992155,42.5666477 37.1546656,42.5666477 37.0655656,42.5666477 C36.9764657,42.5666477 36.9319158,42.5666477 36.8428159,42.5666477 C36.7982659,42.5666477 36.709166,42.5666477 36.664616,42.5666477 C36.6200661,42.5666477 36.5309661,42.5666477 36.4864162,42.5666477 C36.4418662,42.5666477 36.3527663,42.5666477 36.3082164,42.5666477 C36.2636664,42.5666477 36.1745665,42.5666477 36.1300165,42.5666477 C36.0854666,42.5666477 35.9963666,42.5666477 35.9518167,42.5218878 C35.8627168,42.5218878 35.8181668,42.4771279 35.7290669,42.4771279 C35.6845169,42.4771279 35.639967,42.4771279 35.5508671,42.432368 C35.4617671,42.432368 35.3726672,42.3876081 35.3281173,42.3876081 C35.2835673,42.3876081 35.2390173,42.3876081 35.1944674,42.3428483 C35.0608175,42.2980884 34.9271676,42.2533285 34.7935178,42.2085686 C34.7489678,42.1638087 34.6598679,42.1638087 34.6153179,42.1190489 C34.570768,42.1190489 34.570768,42.074289 34.526218,42.074289 C34.4371181,42.0295291 34.3480182,41.9847692 34.2589182,41.9400093 L1.55924855,22.9618194 C0.801899257,22.5142206 0.445499587,21.977102 0.445499587,21.3952235 L0.400949628,34.2860695 C0.400949628,34.867948 0.757349298,35.4050666 1.5146986,35.8526654 L34.2143683,54.8308553 C34.3034682,54.8756152 34.3925681,54.9203751 34.481668,54.965135 C34.526218,54.965135 34.526218,55.0098948 34.570768,55.0098948 C34.6153179,55.0546547 34.6598679,55.0546547 34.7489678,55.0994146 C34.7489678,55.0994146 34.7489678,55.0994146 34.7489678,55.0994146 C34.8826177,55.1441745 35.0162675,55.1889344 35.1499174,55.2336942 C35.1499174,55.2336942 35.1499174,55.2336942 35.1944674,55.2336942 C35.2390173,55.2336942 35.2390173,55.2336942 35.2835673,55.2784541 C35.3726672,55.2784541 35.4172172,55.323214 35.5063171,55.323214 C35.5063171,55.323214 35.5508671,55.323214 35.5508671,55.323214 C35.595417,55.323214 35.595417,55.323214 35.639967,55.323214 C35.6845169,55.323214 35.7736168,55.3679739 35.8627168,55.3679739 C35.9072667,55.3679739 35.9072667,55.3679739 35.9518167,55.3679739 C35.9963666,55.3679739 35.9963666,55.3679739 36.0409166,55.3679739 C36.0854666,55.3679739 36.1745665,55.3679739 36.2191164,55.3679739 C36.2636664,55.3679739 36.2636664,55.3679739 36.3082164,55.3679739 C36.3527663,55.3679739 36.3527663,55.3679739 36.3973163,55.3679739 C36.4418662,55.3679739 36.5309661,55.3679739 36.5755161,55.3679739 C36.6200661,55.3679739 36.6200661,55.3679739 36.664616,55.3679739 C36.709166,55.3679739 36.709166,55.3679739 36.7537159,55.3679739 C36.8428159,55.3679739 36.8873658,55.3679739 36.9764657,55.3679739 C37.0210157,55.3679739 37.0655656,55.3679739 37.0655656,55.3679739 C37.0655656,55.3679739 37.1101156,55.3679739 37.1101156,55.3679739 C37.1992155,55.3679739 37.2883154,55.3679739 37.3774154,55.3679739 C37.4219653,55.3679739 37.4665153,55.3679739 37.4665153,55.3679739 C37.4665153,55.3679739 37.4665153,55.3679739 37.5110652,55.3679739 C37.6447151,55.3679739 37.778365,55.323214 37.9565648,55.323214 C37.9565648,55.323214 37.9565648,55.323214 38.0011148,55.323214 C38.0456647,55.323214 38.0902147,55.323214 38.1347647,55.2784541 C38.2238646,55.2784541 38.2684145,55.2336942 38.3575145,55.2336942 C38.4020644,55.2336942 38.4466144,55.1889344 38.4911643,55.1889344 C38.5357143,55.1889344 38.6248142,55.1441745 38.6693642,55.1441745 C38.6693642,55.1441745 38.7139141,55.1441745 38.7139141,55.1441745 C38.7584641,55.1441745 38.7584641,55.1441745 38.803014,55.0994146 C38.892114,55.0546547 38.9812139,55.0098948 39.1148637,55.0098948 C39.1594137,55.0098948 39.2039637,54.965135 39.2039637,54.965135 C39.3376135,54.9203751 39.4267135,54.8308553 39.5603633,54.7860954 L72.0372832,35.8079055 C72.0372832,35.8079055 72.0818332,35.8079055 72.0818332,35.7631456 C72.1263832,35.7631456 72.1263832,35.7183857 72.1709331,35.7183857 C72.2154831,35.6736259 72.260033,35.6736259 72.304583,35.628866 C72.3491329,35.5841061 72.3936829,35.5841061 72.3936829,35.5393462 C72.4382329,35.4945863 72.4827828,35.4945863 72.5273328,35.4498265 C72.5273328,35.4498265 72.5273328,35.4498265 72.5273328,35.4498265 C72.5273328,35.4498265 72.5718827,35.4050666 72.5718827,35.4050666 C72.6164327,35.3603067 72.7055326,35.2707869 72.7500826,35.226027 C72.7500826,35.226027 72.7946325,35.1812672 72.7946325,35.1812672 C72.7946325,35.1812672 72.7946325,35.1365073 72.8391825,35.1365073 C72.8837325,35.0917474 72.8837325,35.0469875 72.9282824,35.0022276 C72.9282824,35.0022276 72.9728324,34.9574678 72.9728324,34.9574678 C72.9728324,34.9574678 72.9728324,34.9574678 72.9728324,34.9127079 C72.9728324,34.867948 73.0173823,34.8231881 73.0173823,34.7784282 C73.0173823,34.7336683 73.0619323,34.7336683 73.0619323,34.6889085 C73.0619323,34.6889085 73.0619323,34.6889085 73.0619323,34.6441486 C73.0619323,34.5993887 73.1064822,34.5546288 73.1064822,34.5098689 C73.1064822,34.4651091 73.1064822,34.4651091 73.1064822,34.4203492 C73.1064822,34.4203492 73.1064822,34.4203492 73.1064822,34.4203492 C73.1064822,34.3755893 73.1064822,34.3308294 73.1064822,34.2860695 C73.1064822,34.2413096 73.1064822,34.2413096 73.1064822,34.1965498 C73.1064822,34.1965498 73.1064822,34.1517899 73.1064822,34.1517899 L73.1510322,21.2609439 C73.1955822,21.4399834 73.1955822,21.4847433 73.1955822,21.5295032 Z" fill="url(#linearGradient-6)" fill-rule="nonzero"></path>
                        <path d="M72.0818332,19.8733876 C73.5519818,20.7238253 73.5519818,22.1113817 72.0818332,22.9618194 L39.6049133,41.9400093 C38.1347647,42.7904471 35.7290669,42.7904471 34.2589182,41.9400093 L1.55924855,22.9618194 C0.0890999174,22.1113817 0.0890999174,20.7238253 1.55924855,19.8733876 L34.0361685,0.895197638 C35.5063171,0.0447598819 37.9120149,0.0447598819 39.3821635,0.895197638 L72.0818332,19.8733876 Z" fill="url(#linearGradient-7)"></path>
                    </g>
                    <g fill-rule="nonzero" id="Path">
                        <path d="M76.7595789,22.5142206 C76.7595789,22.5589805 76.7595789,22.6037404 76.7595789,22.6485002 C76.7595789,22.6932601 76.7595789,22.73802 76.7150289,22.73802 C76.7150289,22.7827799 76.7150289,22.8275398 76.6704789,22.8722996 C76.6704789,22.9170595 76.625929,22.9170595 76.625929,22.9618194 C76.625929,23.0065793 76.581379,23.0513392 76.581379,23.0960991 C76.581379,23.1408589 76.5368291,23.1408589 76.5368291,23.1856188 C76.4922791,23.2303787 76.4922791,23.2751386 76.4477291,23.3198985 C76.4477291,23.3646583 76.4031792,23.3646583 76.4031792,23.4094182 C76.3586292,23.4541781 76.3140793,23.5436979 76.2249794,23.5884578 C76.2249794,23.5884578 76.1804294,23.6332176 76.1804294,23.6332176 C76.1358794,23.6779775 76.0913295,23.6779775 76.0467795,23.7227374 C76.0022296,23.7674973 75.9576796,23.7674973 75.9131296,23.8122572 C75.8685797,23.857017 75.8240297,23.857017 75.7794798,23.9017769 C75.7349298,23.9465368 75.6903799,23.9465368 75.6458299,23.9912967 L41.5651115,43.9094441 C41.4314616,43.9989639 41.3423617,44.0437238 41.2087118,44.0884837 C41.1641618,44.0884837 41.1196119,44.1332435 41.0750619,44.1332435 C40.985962,44.1780034 40.8523121,44.2227633 40.7632122,44.2675232 C40.7186623,44.2675232 40.6741123,44.3122831 40.6295623,44.3122831 C40.5850124,44.3122831 40.4959125,44.3570429 40.4068126,44.3570429 C40.3622626,44.3570429 40.3177126,44.4018028 40.2286127,44.4018028 C40.1395128,44.4018028 40.0949628,44.4465627 40.0058629,44.4465627 C39.961313,44.4465627 39.916763,44.4465627 39.872213,44.4913226 C39.7385632,44.5360825 39.5603633,44.5360825 39.4267135,44.5360825 C39.3821635,44.5360825 39.3376135,44.5360825 39.2930636,44.5360825 C39.2039637,44.5360825 39.1148637,44.5360825 39.0257638,44.5360825 C38.9812139,44.5360825 38.892114,44.5360825 38.847564,44.5360825 C38.7584641,44.5360825 38.7139141,44.5360825 38.6248142,44.5360825 C38.5802642,44.5360825 38.4911643,44.5360825 38.4466144,44.5360825 C38.3575145,44.5360825 38.3129645,44.5360825 38.2238646,44.5360825 C38.1793146,44.5360825 38.0902147,44.5360825 38.0456647,44.5360825 C37.9565648,44.5360825 37.9120149,44.5360825 37.8674649,44.4913226 C37.8229149,44.4913226 37.733815,44.4913226 37.6892651,44.4465627 C37.6001652,44.4465627 37.5556152,44.4018028 37.4665153,44.4018028 C37.4219653,44.4018028 37.3774154,44.4018028 37.2883154,44.3570429 C37.1992155,44.3570429 37.1101156,44.3122831 37.0210157,44.3122831 C36.9764657,44.3122831 36.9319158,44.2675232 36.8873658,44.2675232 C36.7537159,44.2227633 36.6200661,44.1780034 36.4864162,44.1332435 C36.3973163,44.0884837 36.3527663,44.0884837 36.3082164,44.0437238 C36.2636664,44.0437238 36.2191164,43.9989639 36.2191164,43.9989639 C36.1300165,43.954204 36.0409166,43.9094441 35.9518167,43.8646842 L1.64834847,23.9465368 C0.890999174,23.498938 0.490049546,22.9170595 0.490049546,22.2904212 L0.445499587,35.8079055 C0.445499587,36.389784 0.846449216,37.0164223 1.60379851,37.4640211 L35.9072667,57.3821686 C35.9963666,57.4269285 36.0854666,57.4716883 36.1745665,57.5164482 C36.2191164,57.5164482 36.2636664,57.5612081 36.2636664,57.5612081 C36.3082164,57.605968 36.3973163,57.605968 36.4418662,57.6507279 C36.4418662,57.6507279 36.4418662,57.6507279 36.4864162,57.6507279 C36.6200661,57.6954877 36.7537159,57.7402476 36.8873658,57.7850075 C36.8873658,57.7850075 36.8873658,57.7850075 36.9319158,57.7850075 C36.9764657,57.7850075 37.0210157,57.7850075 37.0210157,57.8297674 C37.1101156,57.8297674 37.1992155,57.8745273 37.2883154,57.8745273 C37.2883154,57.8745273 37.3328654,57.8745273 37.3328654,57.8745273 C37.3774154,57.8745273 37.4219653,57.8745273 37.4219653,57.8745273 C37.5110652,57.8745273 37.5556152,57.9192872 37.6447151,57.9192872 C37.6892651,57.9192872 37.6892651,57.9192872 37.733815,57.9192872 C37.778365,57.9192872 37.778365,57.9192872 37.8229149,57.9192872 C37.8674649,57.9192872 37.9565648,57.9192872 38.0011148,57.964047 C38.0456647,57.964047 38.0456647,57.964047 38.0902147,57.964047 C38.1347647,57.964047 38.1347647,57.964047 38.1793146,57.964047 C38.2684145,57.964047 38.3129645,57.964047 38.4020644,57.964047 C38.4466144,57.964047 38.4466144,57.964047 38.4911643,57.964047 C38.5357143,57.964047 38.5357143,57.964047 38.5802642,57.964047 C38.6693642,57.964047 38.7139141,57.964047 38.803014,57.964047 C38.847564,57.964047 38.892114,57.964047 38.892114,57.964047 C38.892114,57.964047 38.9366639,57.964047 38.9366639,57.964047 C39.0257638,57.964047 39.1148637,57.964047 39.2039637,57.964047 C39.2485136,57.964047 39.2930636,57.964047 39.2930636,57.964047 C39.2930636,57.964047 39.2930636,57.964047 39.3376135,57.964047 C39.4712634,57.964047 39.6494633,57.9192872 39.7831131,57.9192872 C39.7831131,57.9192872 39.7831131,57.9192872 39.8276631,57.9192872 C39.872213,57.9192872 39.916763,57.9192872 39.961313,57.8745273 C40.0504129,57.8745273 40.0949628,57.8297674 40.1840628,57.8297674 C40.2286127,57.8297674 40.2731627,57.7850075 40.3622626,57.7850075 C40.4513625,57.7850075 40.4959125,57.7402476 40.5850124,57.7402476 C40.5850124,57.7402476 40.6295623,57.7402476 40.6295623,57.7402476 C40.6741123,57.7402476 40.6741123,57.7402476 40.7186623,57.6954877 C40.8077622,57.6507279 40.9414121,57.605968 41.030512,57.5612081 C41.0750619,57.5612081 41.1196119,57.5164482 41.1641618,57.5164482 C41.2978117,57.4716883 41.4314616,57.3821686 41.5205615,57.3374087 L75.6012799,37.4192613 C75.6012799,37.4192613 75.6458299,37.4192613 75.6458299,37.3745014 C75.6903799,37.3745014 75.7349298,37.3297415 75.7349298,37.2849816 C75.7794798,37.2402217 75.8240297,37.2402217 75.8685797,37.1954618 C75.9131296,37.150702 75.9576796,37.150702 75.9576796,37.1059421 C76.0022296,37.0611822 76.0467795,37.0611822 76.0913295,37.0164223 C76.0913295,37.0164223 76.0913295,37.0164223 76.1358794,37.0164223 C76.1358794,37.0164223 76.1804294,36.9716624 76.1804294,36.9716624 C76.2249794,36.9269026 76.3140793,36.8373828 76.3586292,36.7926229 C76.3586292,36.7926229 76.4031792,36.747863 76.4031792,36.747863 C76.4031792,36.747863 76.4031792,36.7031031 76.4477291,36.7031031 C76.4922791,36.6583433 76.4922791,36.6135834 76.5368291,36.5688235 C76.5368291,36.5688235 76.581379,36.5240636 76.581379,36.5240636 C76.581379,36.5240636 76.581379,36.5240636 76.581379,36.4793037 C76.581379,36.4345439 76.625929,36.389784 76.625929,36.3450241 C76.625929,36.3002642 76.6704789,36.3002642 76.6704789,36.2555043 C76.6704789,36.2555043 76.6704789,36.2555043 76.6704789,36.2107444 C76.6704789,36.1659846 76.7150289,36.1212247 76.7150289,36.0764648 C76.7150289,36.0317049 76.7150289,36.0317049 76.7595789,35.986945 C76.7595789,35.986945 76.7595789,35.986945 76.7595789,35.986945 C76.7595789,35.9421852 76.7595789,35.8974253 76.7595789,35.8526654 C76.7595789,35.8079055 76.7595789,35.8079055 76.7595789,35.7631456 C76.7595789,35.7631456 76.7595789,35.7183857 76.7595789,35.7183857 L76.8041288,22.2009014 C76.7595789,22.4694607 76.7595789,22.5142206 76.7595789,22.5142206 Z" fill="url(#linearGradient-8)"></path>
                        <path d="M75.6012799,20.7685852 C77.1605285,21.6637828 77.1605285,23.1408589 75.6012799,24.0360566 L41.5205615,43.954204 C40.0058629,44.8494016 37.4665153,44.8494016 35.9072667,43.954204 L1.60379851,24.0360566 C0.0445499587,23.1408589 0.0445499587,21.6637828 1.60379851,20.7685852 L35.6845169,0.850437756 C37.1992155,-0.0447598819 39.7385632,-0.0447598819 41.2978117,0.850437756 L75.6012799,20.7685852 Z" fill="url(#linearGradient-9)"></path>
                        <path d="M67.4040875,21.1266642 C68.6069364,21.8428224 68.6069364,22.9618194 67.4040875,23.6779775 L40.8968621,39.1648966 C39.6940132,39.8810548 37.733815,39.8810548 36.5309661,39.1648966 L9.84554088,23.6779775 C8.64269199,22.9618194 8.64269199,21.8428224 9.84554088,21.1266642 L36.3527663,5.63974512 C37.5556152,4.92358701 39.5158134,4.92358701 40.7186623,5.63974512 L67.4040875,21.1266642 Z" fill="url(#linearGradient-10)"></path>
                        <path d="M58.3604459,21.5295032 C59.1623452,22.0218619 59.2068951,22.7827799 58.3604459,23.2751386 L40.1840628,33.8832306 C39.3821635,34.3755893 38.0011148,34.3755893 37.1992155,33.8832306 L18.8891825,23.2751386 C18.0872832,22.7827799 18.0427333,22.0218619 18.8891825,21.5295032 L37.0655656,10.9214112 C37.8674649,10.4290525 39.2485136,10.4290525 40.0504129,10.9214112 L58.3604459,21.5295032 Z" fill="url(#linearGradient-11)"></path>
                        <path d="M40.1840628,33.8832306 L56.3111478,24.4836554 L40.0504129,15.0840802 C39.2485136,14.5917215 37.8674649,14.5917215 37.0655656,15.0840802 L20.9384806,24.4836554 L37.1992155,33.8832306 C38.0011148,34.3755893 39.3821635,34.3755893 40.1840628,33.8832306 Z" fill="url(#linearGradient-12)"></path>
                    </g>
                    <g transform="translate(46.777457, 31.331917)" fill="#AEBDE6" fill-rule="nonzero" id="Path">
                        <g transform="translate(17.819983, 0.000000)">
                            <g opacity="0.43">
                                <polygon points="0.0445499587 0.805677874 0.0445499587 2.19323421 1.24739884 1.4770761 1.24739884 0.134279646"></polygon>
                            </g>
                            <g opacity="0.13" transform="translate(0.000000, 4.475988)">
                                <polygon points="0.0445499587 0.71615811 0.0445499587 2.05895457 1.24739884 1.38755634 1.24739884 0"></polygon>
                            </g>
                            <g opacity="0.13" transform="translate(0.000000, 6.266383)">
                                <polygon points="0.0445499587 1.02947728 0.0445499587 2.41703362 1.24739884 1.70087551 1.24739884 0.358079055"></polygon>
                            </g>
                            <g opacity="0.43" transform="translate(0.000000, 8.504378)">
                                <polygon points="0.0445499587 0.850437756 0.0445499587 2.19323421 1.24739884 1.52183598 1.24739884 0.134279646"></polygon>
                            </g>
                        </g>
                        <g transform="translate(15.592486, 1.342796)">
                            <g opacity="0.22">
                                <polygon points="0.178199835 0.760917992 0.178199835 2.14847433 1.38104872 1.4770761 1.33649876 0.0895197638"></polygon>
                            </g>
                            <g opacity="0.43" transform="translate(0.000000, 1.790395)">
                                <polygon points="0.178199835 1.02947728 0.178199835 2.37227374 1.38104872 1.70087551 1.33649876 0.358079055"></polygon>
                            </g>
                            <g opacity="0.22" transform="translate(0.000000, 4.028389)">
                                <polygon points="0.178199835 1.02947728 0.178199835 2.37227374 1.38104872 1.70087551 1.33649876 0.313319173"></polygon>
                            </g>
                            <g opacity="0.13" transform="translate(0.000000, 8.504378)">
                                <polygon points="0.178199835 0.805677874 0.178199835 2.14847433 1.38104872 1.4770761 1.33649876 0.134279646"></polygon>
                            </g>
                        </g>
                        <g transform="translate(9.800991, 7.161581)">
                            <g opacity="0.22">
                                <polygon points="0.222749794 0.71615811 0.222749794 2.05895457 1.38104872 1.38755634 1.38104872 0"></polygon>
                            </g>
                            <g opacity="0.13" transform="translate(0.000000, 1.790395)">
                                <polygon points="0.222749794 1.02947728 0.222749794 2.41703362 1.38104872 1.70087551 1.38104872 0.358079055"></polygon>
                            </g>
                            <g opacity="0.13" transform="translate(0.000000, 4.028389)">
                                <polygon points="0.222749794 0.93995752 0.222749794 2.28275398 1.38104872 1.61135575 1.38104872 0.268559291"></polygon>
                            </g>
                            <g opacity="0.43" transform="translate(0.000000, 6.266383)">
                                <polygon points="0.222749794 0.71615811 0.222749794 2.10371445 1.38104872 1.43231622 1.38104872 0.0447598819"></polygon>
                            </g>
                        </g>
                        <g transform="translate(7.573493, 6.266383)">
                            <g opacity="0.22">
                                <polygon points="0.35639967 0.671398228 0.35639967 2.05895457 1.5146986 1.34279646 1.5146986 0"></polygon>
                            </g>
                            <g opacity="0.43" transform="translate(0.000000, 1.790395)">
                                <polygon points="0.35639967 0.93995752 0.35639967 2.28275398 1.5146986 1.61135575 1.5146986 0.223799409"></polygon>
                            </g>
                            <g opacity="0.22" transform="translate(0.000000, 4.028389)">
                                <polygon points="0.35639967 0.895197638 0.35639967 2.28275398 1.5146986 1.61135575 1.5146986 0.223799409"></polygon>
                            </g>
                            <g opacity="0.13" transform="translate(0.000000, 8.504378)">
                                <polygon points="0.35639967 0.71615811 0.35639967 2.05895457 1.5146986 1.38755634 1.5146986 0"></polygon>
                            </g>
                        </g>
                        <g transform="translate(1.781998, 9.847174)">
                            <g opacity="0.43">
                                <polygon points="0.35639967 0.71615811 0.400949628 2.05895457 1.55924855 1.38755634 1.55924855 0.0447598819"></polygon>
                            </g>
                            <g opacity="0.22" transform="translate(0.000000, 2.237994)">
                                <polygon points="0.35639967 0.71615811 0.400949628 2.05895457 1.55924855 1.38755634 1.55924855 0"></polygon>
                            </g>
                            <g opacity="0.13" transform="translate(0.000000, 4.028389)">
                                <polygon points="0.35639967 1.02947728 0.400949628 2.41703362 1.55924855 1.70087551 1.55924855 0.358079055"></polygon>
                            </g>
                            <g opacity="0.43" transform="translate(0.000000, 8.504378)">
                                <polygon points="0.35639967 0.71615811 0.400949628 2.10371445 1.55924855 1.38755634 1.55924855 0.0447598819"></polygon>
                            </g>
                        </g>
                        <g transform="translate(0.000000, 11.189970)">
                            <g opacity="0.22">
                                <polygon points="0.0445499587 0.671398228 0.0445499587 2.01419468 1.24739884 1.34279646 1.24739884 0"></polygon>
                            </g>
                            <g opacity="0.43" transform="translate(0.000000, 1.790395)">
                                <polyline points="0.0445499587 0.895197638 0.0445499587 2.28275398 1.24739884 1.61135575 1.24739884 0.223799409"></polyline>
                            </g>
                            <g opacity="0.22" transform="translate(0.000000, 4.028389)">
                                <polygon points="0.0445499587 0.895197638 0.0445499587 2.28275398 1.24739884 1.56659587 1.24739884 0.223799409"></polygon>
                            </g>
                            <g opacity="0.13" transform="translate(0.000000, 6.266383)">
                                <polygon points="0.0445499587 0.805677874 0.0445499587 2.14847433 1.24739884 1.4770761 1.24739884 0.134279646"></polygon>
                            </g>
                            <g opacity="0.13" transform="translate(0.000000, 8.504378)">
                                <polygon points="0.0445499587 0.671398228 0.0445499587 2.05895457 1.24739884 1.38755634 1.24739884 0"></polygon>
                            </g>
                        </g>
                    </g>
                    <g transform="translate(47.668456, 61.768637)" fill="#AEBDE6" fill-rule="nonzero" id="Path">
                        <g transform="translate(17.819983, 0.000000)">
                            <g opacity="0.43">
                                <polygon points="0.222749794 0.850437756 0.222749794 2.23799409 1.38104872 1.52183598 1.38104872 0.179039528"></polygon>
                            </g>
                            <g opacity="0.13" transform="translate(0.000000, 4.475988)">
                                <polygon points="0.222749794 0.760917992 0.222749794 2.10371445 1.38104872 1.43231622 1.38104872 0.0447598819"></polygon>
                            </g>
                            <g opacity="0.13" transform="translate(0.000000, 6.266383)">
                                <polygon points="0.222749794 1.07423717 0.222749794 2.4617935 1.38104872 1.74563539 1.38104872 0.402838937"></polygon>
                            </g>
                            <g opacity="0.43" transform="translate(0.000000, 8.504378)">
                                <polygon points="0.222749794 0.895197638 0.222749794 2.23799409 1.38104872 1.56659587 1.38104872 0.179039528"></polygon>
                            </g>
                        </g>
                        <g transform="translate(15.592486, 1.342796)">
                            <g opacity="0.22">
                                <polygon points="0.35639967 0.805677874 0.35639967 2.19323421 1.5146986 1.52183598 1.5146986 0.134279646"></polygon>
                            </g>
                            <g opacity="0.43" transform="translate(0.000000, 1.790395)">
                                <polygon points="0.35639967 1.07423717 0.35639967 2.41703362 1.5146986 1.74563539 1.5146986 0.402838937"></polygon>
                            </g>
                            <g opacity="0.22" transform="translate(0.000000, 4.028389)">
                                <polygon points="0.35639967 1.07423717 0.35639967 2.41703362 1.5146986 1.74563539 1.5146986 0.358079055"></polygon>
                            </g>
                            <g opacity="0.13" transform="translate(0.000000, 8.504378)">
                                <polygon points="0.35639967 0.850437756 0.35639967 2.19323421 1.5146986 1.52183598 1.5146986 0.179039528"></polygon>
                            </g>
                        </g>
                        <g transform="translate(9.800991, 7.161581)">
                            <g opacity="0.22">
                                <polygon points="0.35639967 0.760917992 0.400949628 2.10371445 1.55924855 1.43231622 1.55924855 0.0447598819"></polygon>
                            </g>
                            <g opacity="0.13" transform="translate(0.000000, 1.790395)">
                                <polygon points="0.35639967 1.07423717 0.400949628 2.4617935 1.55924855 1.74563539 1.55924855 0.402838937"></polygon>
                            </g>
                            <g opacity="0.13" transform="translate(0.000000, 4.028389)">
                                <polygon points="0.35639967 0.984717401 0.400949628 2.32751386 1.55924855 1.65611563 1.55924855 0.313319173"></polygon>
                            </g>
                            <g opacity="0.43" transform="translate(0.000000, 6.266383)">
                                <polygon points="0.35639967 0.760917992 0.400949628 2.14847433 1.55924855 1.43231622 1.55924855 0.0895197638"></polygon>
                            </g>
                        </g>
                        <g transform="translate(8.018993, 6.266383)">
                            <g opacity="0.22">
                                <polygon points="0.0445499587 0.71615811 0.0445499587 2.10371445 1.24739884 1.38755634 1.24739884 0.0447598819"></polygon>
                            </g>
                            <g opacity="0.43" transform="translate(0.000000, 1.790395)">
                                <polygon points="0.0445499587 0.984717401 0.0445499587 2.32751386 1.24739884 1.65611563 1.24739884 0.268559291"></polygon>
                            </g>
                            <g opacity="0.22" transform="translate(0.000000, 4.028389)">
                                <polygon points="0.0445499587 0.93995752 0.0445499587 2.32751386 1.24739884 1.61135575 1.24739884 0.268559291"></polygon>
                            </g>
                            <g opacity="0.13" transform="translate(0.000000, 8.504378)">
                                <polygon points="0.0445499587 0.760917992 0.0445499587 2.10371445 1.24739884 1.43231622 1.24739884 0.0447598819"></polygon>
                            </g>
                        </g>
                        <g transform="translate(2.227498, 9.847174)">
                            <g opacity="0.43">
                                <polygon points="0.0890999174 0.760917992 0.0890999174 2.10371445 1.2919488 1.43231622 1.24739884 0.0447598819"></polygon>
                            </g>
                            <g opacity="0.22" transform="translate(0.000000, 2.237994)">
                                <polygon points="0.0890999174 0.760917992 0.0890999174 2.10371445 1.2919488 1.43231622 1.24739884 0.0447598819"></polygon>
                            </g>
                            <g opacity="0.13" transform="translate(0.000000, 4.028389)">
                                <polygon points="0.0890999174 1.07423717 0.0890999174 2.4617935 1.2919488 1.74563539 1.24739884 0.402838937"></polygon>
                            </g>
                            <g opacity="0.43" transform="translate(0.000000, 8.504378)">
                                <polygon points="0.0890999174 0.760917992 0.0890999174 2.14847433 1.2919488 1.43231622 1.24739884 0.0895197638"></polygon>
                            </g>
                        </g>
                        <g transform="translate(0.000000, 11.189970)">
                            <g opacity="0.22">
                                <polygon points="0.222749794 0.71615811 0.222749794 2.05895457 1.38104872 1.38755634 1.38104872 0.0447598819"></polygon>
                            </g>
                            <g opacity="0.43" transform="translate(0.000000, 1.790395)">
                                <polyline points="0.222749794 0.93995752 0.222749794 2.32751386 1.38104872 1.65611563 1.38104872 0.268559291"></polyline>
                            </g>
                            <g opacity="0.22" transform="translate(0.000000, 4.028389)">
                                <polygon points="0.222749794 0.93995752 0.222749794 2.32751386 1.38104872 1.61135575 1.38104872 0.268559291"></polygon>
                            </g>
                            <g opacity="0.13" transform="translate(0.000000, 6.266383)">
                                <polygon points="0.222749794 0.850437756 0.222749794 2.19323421 1.38104872 1.52183598 1.38104872 0.179039528"></polygon>
                            </g>
                            <g opacity="0.13" transform="translate(0.000000, 8.504378)">
                                <polygon points="0.222749794 0.71615811 0.222749794 2.10371445 1.38104872 1.43231622 1.38104872 0.0447598819"></polygon>
                            </g>
                        </g>
                    </g>
                    <g transform="translate(8.018993, 34.912708)" id="Path">
                        <path d="M1.60379851,0.581878464 C2.31659785,0.984717401 2.89574732,1.9694348 2.89574732,2.81987256 C2.89574732,3.62555043 2.31659785,3.98362949 1.60379851,3.53603067 C0.890999174,3.13319173 0.311849711,2.14847433 0.311849711,1.29803657 C0.311849711,0.537118583 0.890999174,0.179039528 1.60379851,0.581878464 Z" fill="#587BFF" fill-rule="nonzero"></path>
                        <g opacity="0.5" transform="translate(3.563997, 2.237994)" fill="url(#linearGradient-13)">
                            <path d="M11.6275392,6.57970264 C12.1175888,6.89302181 12.5630884,7.60917992 12.5630884,8.19105838 C12.5630884,8.77293685 12.1621387,8.99673626 11.6275392,8.72817697 L1.20284889,2.68559291 C0.712799339,2.37227374 0.267299752,1.65611563 0.267299752,1.07423717 C0.267299752,0.492358701 0.668249381,0.268559291 1.20284889,0.537118583 L11.6275392,6.57970264 Z"></path>
                        </g>
                    </g>
                    <g transform="translate(8.018993, 64.006631)" id="Path">
                        <path d="M1.60379851,0.268559291 C2.31659785,0.671398228 2.89574732,1.65611563 2.89574732,2.50655339 C2.89574732,3.31223126 2.31659785,3.67031031 1.60379851,3.2227115 C0.890999174,2.81987256 0.311849711,1.83515516 0.311849711,0.984717401 C0.311849711,0.179039528 0.890999174,-0.134279646 1.60379851,0.268559291 Z" fill="#DBE5F8" fill-rule="nonzero"></path>
                        <g opacity="0.5" transform="translate(3.563997, 2.237994)" fill="url(#linearGradient-13)">
                            <path d="M11.6275392,6.22162358 C12.1175888,6.53494276 12.5630884,7.25110087 12.5630884,7.83297933 C12.5630884,8.41485779 12.1621387,8.6386572 11.6275392,8.37009791 L1.20284889,2.32751386 C0.712799339,2.01419468 0.267299752,1.29803657 0.267299752,0.71615811 C0.267299752,0.134279646 0.668249381,-0.0895197638 1.20284889,0.179039528 L11.6275392,6.22162358 Z"></path>
                        </g>
                    </g>
                </g>
                <path d="M58.3719912,12.9461331 L39.9354486,2.36821855 C39.1280088,1.87726048 37.7374179,1.87726048 36.9299781,2.36821855 L18.6280088,12.9461331 C18.2242888,13.1692959 18,13.4817237 18,13.7941516 L18,48.2058484 C18,48.5182763 18.2242888,48.8307041 18.6280088,49.0538669 L37.0645514,59.6317815 C37.8719912,60.1227395 39.2625821,60.1227395 40.0700219,59.6317815 L58.3719912,49.0538669 C58.7757112,48.8307041 59,48.5182763 59,48.2058484 L59,13.7941516 C59,13.4817237 58.7757112,13.1692959 58.3719912,12.9461331 Z" id="Path" fill="url(#linearGradient-14)"></path>
                <path d="M52.5552147,21.9202586 L39.5230061,14.2715517 C38.9447853,13.9094828 37.9662577,13.9094828 37.3880368,14.2715517 L24.4447853,21.9202586 C24.1334356,22.1012931 24,22.3275862 24,22.5538793 L24,22.5538793 L24,47.4461207 L24,47.4461207 C24,47.6724138 24.1334356,47.8987069 24.4447853,48.0797414 L37.4769939,55.7284483 C38.0552147,56.0905172 39.0337423,56.0905172 39.6119632,55.7284483 L52.5552147,48.0797414 C52.8665644,47.8987069 53,47.6724138 53,47.4461207 L53,47.4461207 L53,22.5538793 L53,22.5538793 C53,22.3275862 52.8220859,22.1012931 52.5552147,21.9202586 Z" id="Path" fill="url(#linearGradient-15)" fill-rule="nonzero"></path>
                <path d="M47.7258883,30.7252011 L39.6395939,26.1675603 C39.2741117,25.9441466 38.680203,25.9441466 38.3147208,26.1675603 L30.2741117,30.7252011 C30.0913706,30.8145666 30,30.9486148 30,31.0826631 L30,31.0826631 L30,45.9173369 L30,45.9173369 C30,46.0513852 30.0913706,46.1854334 30.2741117,46.2747989 L38.3604061,50.8324397 C38.7258883,51.0558534 39.319797,51.0558534 39.6852792,50.8324397 L47.7258883,46.2747989 C47.9086294,46.1854334 48,46.0513852 48,45.9173369 L48,45.9173369 L48,31.0826631 L48,31.0826631 C48,30.9486148 47.9086294,30.8145666 47.7258883,30.7252011 Z" id="Path" fill="url(#linearGradient-16)" fill-rule="nonzero"></path>
                <g id="Group" transform="translate(28.000000, 0.000000)">
                    <g id="Path">
                        <g>
                            <use fill="black" fill-opacity="1" filter="url(#filter-19)" xlink:href="#path-18"></use>
                            <use fill="url(#linearGradient-17)" fill-rule="evenodd" xlink:href="#path-18"></use>
                        </g>
                        <g>
                            <use fill="black" fill-opacity="1" filter="url(#filter-22)" xlink:href="#path-21"></use>
                            <use fill="url(#linearGradient-20)" fill-rule="evenodd" xlink:href="#path-21"></use>
                        </g>
                        <path d="M8.844,6.26285714 C5.896,10.1028571 4.4,16.6857143 5.456,22.2171429 C6.688,28.6628571 10.912,31.2685714 14.872,27.9771429 C15.444,27.52 15.972,26.9257143 16.456,26.2857143 C19.404,22.4457143 20.9,15.8628571 19.844,10.3314286 C18.612,3.88571429 14.388,1.28 10.428,4.57142857 C9.9,5.07428571 9.372,5.62285714 8.844,6.26285714 Z" fill="#FFFFFF" fill-rule="nonzero"></path>
                        <g>
                            <use fill="black" fill-opacity="1" filter="url(#filter-25)" xlink:href="#path-24"></use>
                            <use fill="url(#linearGradient-23)" fill-rule="evenodd" xlink:href="#path-24"></use>
                        </g>
                    </g>
                    <g transform="translate(9.680000, 7.771429)" fill="#FFFFFF" fill-rule="nonzero" id="Path" opacity="0.8">
                        <polygon points="2.86 0.411428571 0.264 10.3314286 4.004 10.3314286 7.172 5.07428571"></polygon>
                        <polygon points="0.396 11.2457143 4.488 14.8114286 7.26 5.94285714 4.092 11.2 1.716 11.2 0.396 11.2"></polygon>
                    </g>
                </g>
            </g>
        </g>
    </g>
</svg>