<svg width="423" height="446" viewBox="0 0 423 446" fill="none" xmlns="http://www.w3.org/2000/svg">
<path d="M22.9962 256.315C22.9962 151.926 107.878 67.303 212.584 67.303C317.291 67.303 402.172 151.926 402.172 256.315C402.172 360.703 317.291 445.326 212.584 445.326C107.878 445.326 22.9962 360.703 22.9962 256.315Z" fill="#F9FAFB"/>
<path d="M82.9251 237.874C82.9251 150.671 150.779 79.9799 234.48 79.9799C318.182 79.9799 386.035 150.671 386.035 237.874C386.035 325.076 318.182 395.768 234.48 395.768C150.779 395.768 82.9251 325.076 82.9251 237.874Z" fill="#E1EFFE"/>
<path d="M119.808 227.501C119.808 156.848 174.762 99.5726 242.551 99.5726C310.339 99.5726 365.293 156.848 365.293 227.501C365.293 298.154 310.339 355.43 242.551 355.43C174.762 355.43 119.808 298.154 119.808 227.501Z" fill="#A4CAFE"/>
<g filter="url(#filter0_d_204_41136)">
<mask id="mask0_204_41136" style="mask-type:alpha" maskUnits="userSpaceOnUse" x="102" y="125" width="301" height="213">
<path d="M104.16 184.489L399.979 125.054C401.48 124.752 402.6 126.413 401.756 127.692L264.096 336.299C263.511 337.186 262.269 337.337 261.489 336.615L215.626 294.191C215.18 293.778 214.549 293.631 213.966 293.804L123.198 320.787C122.002 321.142 120.836 320.147 120.999 318.91L133.966 220.617C134.034 220.101 133.865 219.582 133.507 219.205L103.25 187.364C102.317 186.382 102.831 184.756 104.16 184.489Z" fill="white"/>
</mask>
<g mask="url(#mask0_204_41136)">
<g filter="url(#filter1_d_204_41136)">
<path d="M104.16 184.489L399.979 125.054C401.48 124.752 402.6 126.413 401.756 127.692L264.096 336.299C263.511 337.186 262.269 337.337 261.489 336.615L215.626 294.191C215.18 293.778 214.549 293.631 213.966 293.804L123.198 320.787C122.002 321.142 120.836 320.147 120.999 318.91L133.966 220.617C134.034 220.101 133.865 219.582 133.507 219.205L103.25 187.364C102.317 186.382 102.831 184.756 104.16 184.489Z" fill="white"/>
</g>
<g filter="url(#filter2_d_204_41136)">
<path d="M401.198 128.528L264.095 336.292C263.507 337.182 262.26 337.33 261.481 336.601L161.693 243.277C160.848 242.488 159.482 242.737 158.971 243.774L125.264 312.171C124.403 313.919 121.756 313.116 122.011 311.184L133.928 220.85C134.013 220.208 134.451 219.667 135.061 219.451L399.185 125.955C400.743 125.404 402.108 127.149 401.198 128.528Z" fill="#EBF5FF"/>
</g>
<g filter="url(#filter3_d_204_41136)">
<path d="M400.59 129.441L264.094 336.285C263.507 337.176 262.259 337.323 261.48 336.594L161.834 243.404C160.95 242.577 161.172 241.119 162.264 240.593L398.405 126.94C399.981 126.181 401.554 127.981 400.59 129.441Z" fill="white"/>
</g>
<g filter="url(#filter4_d_204_41136)">
<path d="M104.159 184.495L399.282 125.199C399.701 125.115 399.868 125.719 399.465 125.862L135.126 219.434C134.485 219.661 133.771 219.49 133.303 218.997L103.249 187.37C102.316 186.388 102.83 184.762 104.159 184.495Z" fill="white"/>
</g>
<path d="M400.59 129.441L264.094 336.285C263.507 337.176 262.259 337.323 261.48 336.594L161.834 243.404C160.95 242.577 161.172 241.119 162.264 240.593L398.405 126.94C399.981 126.181 401.554 127.981 400.59 129.441Z" fill="white"/>
</g>
</g>
<mask id="mask1_204_41136" style="mask-type:alpha" maskUnits="userSpaceOnUse" x="102" y="-3" width="302" height="324">
<path d="M160.013 241.693L403.704 124.481L389.169 64.3062L157.57 -3L102.764 185.588L134.082 219.805L122.901 303.644L121.178 320.871L160.013 241.693Z" fill="#D9D9D9"/>
</mask>
<g mask="url(#mask1_204_41136)">
<g filter="url(#filter5_d_204_41136)">
<path d="M304.303 189.934C282.263 224.23 242.521 243.354 219.055 228.274C195.59 213.194 195.291 171.265 217.331 136.969C241.451 99.438 274.182 88.734 301.722 100.53C325.188 115.61 326.343 155.638 304.303 189.934Z" fill="#1E429F"/>
<path d="M309.203 193.092C287.162 227.388 250.272 242.966 226.806 227.885C203.341 212.805 202.185 172.778 224.225 138.482C246.266 104.185 283.156 88.6077 306.621 103.688C330.087 118.768 331.243 158.796 309.203 193.092Z" fill="#E1EFFE"/>
<g filter="url(#filter6_i_204_41136)">
<path d="M309.203 193.092C287.162 227.388 250.272 242.966 226.806 227.885C203.341 212.805 202.185 172.778 224.225 138.482C246.266 104.185 283.156 88.6077 306.621 103.688C330.087 118.768 331.243 158.796 309.203 193.092Z" fill="#0364FF"/>
</g>
<path fill-rule="evenodd" clip-rule="evenodd" d="M267.869 227.418C282.42 221.273 296.896 209.055 307.753 192.16C318.61 175.266 323.711 157.023 323.255 141.234C322.799 125.434 316.805 112.28 305.69 105.137C294.575 97.9941 280.12 98.007 265.559 104.156C251.007 110.3 236.532 122.519 225.675 139.413C214.818 156.307 209.717 174.551 210.173 190.34C210.629 206.139 216.623 219.293 227.738 226.436C238.853 233.579 253.308 233.566 267.869 227.418ZM226.806 227.885C250.272 242.966 287.162 227.388 309.203 193.092C331.243 158.796 330.087 118.768 306.621 103.688C283.156 88.6077 246.266 104.185 224.225 138.482C202.185 172.778 203.341 212.805 226.806 227.885Z" fill="#E1EFFE"/>
<g filter="url(#filter7_di_204_41136)">
<path d="M306.43 190.28C286.397 221.452 252.932 235.652 231.683 221.997C210.434 208.341 209.449 172.001 229.481 140.829C249.514 109.657 282.979 95.4566 304.228 109.112C325.477 122.767 326.463 159.107 306.43 190.28Z" fill="#0364FF"/>
</g>
<g filter="url(#filter8_d_204_41136)">
<path fill-rule="evenodd" clip-rule="evenodd" d="M268.84 221.363C282.008 215.775 295.127 204.682 304.981 189.348C314.835 174.015 319.475 157.473 319.088 143.174C318.699 128.864 313.301 116.99 303.297 110.561C293.293 104.132 280.25 104.154 267.072 109.746C253.903 115.334 240.785 126.427 230.931 141.761C221.077 157.094 216.436 173.636 216.824 187.935C217.212 202.245 222.611 214.119 232.615 220.548C242.619 226.977 255.662 226.955 268.84 221.363ZM231.683 221.997C252.932 235.652 286.397 221.452 306.43 190.28C326.463 159.107 325.477 122.767 304.228 109.112C282.979 95.4566 249.514 109.657 229.481 140.829C209.449 172.001 210.434 208.341 231.683 221.997Z" fill="#E1EFFE"/>
</g>
<g filter="url(#filter9_d_204_41136)">
<path fill-rule="evenodd" clip-rule="evenodd" d="M299.26 112.583C300.291 113.065 301.297 113.613 302.273 114.229C303.249 114.844 304.177 115.516 305.056 116.239C305.613 116.697 305.694 117.52 305.236 118.077C304.778 118.634 303.955 118.714 303.398 118.256C302.602 117.602 301.763 116.995 300.88 116.438C299.997 115.881 299.087 115.385 298.154 114.948C297.5 114.643 297.218 113.866 297.524 113.213C297.829 112.559 298.606 112.277 299.26 112.583ZM307.941 120.929C308.519 120.498 309.337 120.617 309.768 121.195C311.108 122.991 312.259 124.955 313.221 127.058C313.521 127.714 313.232 128.489 312.577 128.789C311.921 129.089 311.146 128.801 310.846 128.145C309.955 126.198 308.898 124.395 307.675 122.757C307.244 122.179 307.363 121.36 307.941 120.929ZM293.784 112C293.644 112.708 292.957 113.168 292.25 113.027C290.244 112.63 288.161 112.452 286.021 112.487C285.3 112.499 284.706 111.924 284.694 111.203C284.682 110.482 285.257 109.888 285.978 109.876C288.291 109.838 290.559 110.03 292.757 110.466C293.464 110.606 293.924 111.293 293.784 112ZM280.787 111.632C280.925 112.339 280.464 113.025 279.756 113.163C277.74 113.556 275.694 114.118 273.635 114.842C272.955 115.082 272.209 114.724 271.97 114.044C271.731 113.364 272.088 112.618 272.768 112.379C274.94 111.615 277.108 111.019 279.256 110.6C279.964 110.462 280.649 110.924 280.787 111.632ZM313.873 132.499C314.571 132.319 315.284 132.738 315.464 133.437C316.011 135.556 316.408 137.769 316.654 140.057C316.731 140.774 316.212 141.418 315.495 141.495C314.778 141.572 314.134 141.054 314.057 140.337C313.824 138.166 313.449 136.078 312.935 134.09C312.755 133.392 313.175 132.679 313.873 132.499ZM315.665 145.418C316.386 145.429 316.961 146.022 316.95 146.743C316.917 148.919 316.763 151.143 316.489 153.402C316.402 154.118 315.751 154.627 315.035 154.54C314.319 154.453 313.809 153.803 313.896 153.087C314.16 150.915 314.308 148.783 314.339 146.703C314.35 145.982 314.944 145.407 315.665 145.418ZM268.357 115.581C268.678 116.227 268.414 117.01 267.768 117.331C265.905 118.255 264.044 119.307 262.198 120.481C261.59 120.867 260.783 120.688 260.396 120.079C260.009 119.471 260.189 118.664 260.797 118.277C262.717 117.056 264.658 115.959 266.607 114.991C267.253 114.671 268.037 114.935 268.357 115.581ZM257.184 122.347C257.626 122.916 257.523 123.736 256.954 124.179C255.294 125.467 253.658 126.854 252.053 128.336C251.524 128.825 250.697 128.793 250.208 128.263C249.719 127.733 249.752 126.907 250.282 126.418C251.939 124.887 253.632 123.451 255.352 122.116C255.921 121.674 256.742 121.777 257.184 122.347ZM314.373 158.416C315.077 158.569 315.524 159.265 315.37 159.97C314.906 162.097 314.34 164.243 313.673 166.399C313.459 167.088 312.728 167.473 312.039 167.26C311.35 167.047 310.965 166.315 311.178 165.626C311.824 163.54 312.371 161.466 312.819 159.413C312.972 158.709 313.668 158.262 314.373 158.416ZM247.433 131.042C247.963 131.531 247.995 132.357 247.506 132.887C246.071 134.441 244.673 136.074 243.318 137.782C242.87 138.347 242.049 138.442 241.484 137.994C240.919 137.546 240.824 136.725 241.272 136.16C242.667 134.4 244.108 132.718 245.588 131.116C246.077 130.586 246.903 130.553 247.433 131.042ZM310.727 170.962C311.396 171.229 311.723 171.989 311.455 172.659C310.647 174.684 309.749 176.71 308.763 178.726C308.446 179.374 307.664 179.642 307.016 179.326C306.368 179.009 306.1 178.227 306.417 177.579C307.375 175.62 308.246 173.655 309.03 171.691C309.297 171.021 310.057 170.695 310.727 170.962ZM239.156 141.162C239.752 141.568 239.906 142.38 239.499 142.976C238.898 143.859 238.308 144.758 237.731 145.673C237.154 146.588 236.597 147.508 236.059 148.431C235.696 149.054 234.897 149.265 234.274 148.902C233.651 148.539 233.44 147.74 233.803 147.117C234.356 146.167 234.929 145.221 235.522 144.28C236.116 143.339 236.723 142.414 237.341 141.506C237.747 140.91 238.56 140.756 239.156 141.162ZM305.16 182.792C305.784 183.154 305.995 183.954 305.632 184.577C305.079 185.527 304.505 186.472 303.912 187.414C303.318 188.355 302.712 189.28 302.093 190.188C301.687 190.784 300.875 190.938 300.279 190.532C299.683 190.126 299.529 189.313 299.935 188.717C300.536 187.835 301.126 186.936 301.703 186.02C302.28 185.105 302.837 184.186 303.375 183.263C303.738 182.64 304.537 182.429 305.16 182.792ZM232.418 152.368C233.066 152.685 233.334 153.467 233.017 154.115C232.059 156.073 231.188 158.039 230.404 160.003C230.137 160.673 229.377 160.999 228.707 160.732C228.038 160.464 227.711 159.705 227.979 159.035C228.787 157.009 229.685 154.984 230.672 152.967C230.988 152.319 231.77 152.051 232.418 152.368ZM297.95 193.699C298.515 194.147 298.61 194.969 298.162 195.534C296.767 197.293 295.326 198.976 293.847 200.578C293.357 201.108 292.531 201.141 292.001 200.651C291.472 200.162 291.439 199.336 291.928 198.806C293.363 197.253 294.761 195.62 296.116 193.911C296.564 193.346 297.385 193.251 297.95 193.699ZM227.395 164.434C228.084 164.647 228.469 165.378 228.256 166.067C227.61 168.154 227.063 170.228 226.616 172.281C226.462 172.985 225.766 173.432 225.061 173.278C224.357 173.124 223.91 172.428 224.064 171.724C224.528 169.597 225.094 167.451 225.761 165.295C225.975 164.606 226.706 164.22 227.395 164.434ZM289.226 203.431C289.715 203.961 289.682 204.787 289.153 205.276C287.495 206.807 285.802 208.242 284.082 209.578C283.513 210.02 282.692 209.917 282.25 209.347C281.808 208.777 281.911 207.957 282.481 207.515C284.14 206.226 285.776 204.839 287.381 203.358C287.911 202.868 288.737 202.901 289.226 203.431ZM224.399 177.153C225.115 177.24 225.625 177.891 225.538 178.607C225.274 180.778 225.127 182.91 225.095 184.99C225.084 185.711 224.49 186.287 223.769 186.276C223.048 186.265 222.473 185.671 222.484 184.95C222.517 182.775 222.671 180.551 222.945 178.292C223.032 177.576 223.683 177.066 224.399 177.153ZM279.038 211.614C279.425 212.223 279.246 213.03 278.637 213.417C276.717 214.638 274.776 215.735 272.827 216.702C272.181 217.023 271.398 216.759 271.077 216.113C270.756 215.467 271.02 214.683 271.666 214.363C273.529 213.438 275.39 212.387 277.236 211.213C277.844 210.826 278.651 211.006 279.038 211.614ZM223.939 190.198C224.656 190.121 225.3 190.64 225.377 191.357C225.61 193.527 225.985 195.615 226.499 197.604C226.679 198.302 226.259 199.014 225.561 199.195C224.863 199.375 224.151 198.955 223.97 198.257C223.423 196.138 223.027 193.925 222.781 191.636C222.703 190.919 223.222 190.275 223.939 190.198ZM267.464 217.65C267.703 218.33 267.346 219.075 266.666 219.315C264.495 220.079 262.327 220.675 260.178 221.094C259.47 221.232 258.785 220.77 258.647 220.062C258.509 219.354 258.971 218.668 259.678 218.53C261.694 218.137 263.74 217.576 265.799 216.851C266.479 216.612 267.225 216.969 267.464 217.65ZM226.857 202.905C227.513 202.605 228.288 202.893 228.588 203.549C229.479 205.496 230.537 207.299 231.759 208.937C232.19 209.515 232.071 210.333 231.493 210.764C230.915 211.196 230.097 211.077 229.666 210.499C228.326 208.703 227.176 206.739 226.213 204.635C225.913 203.98 226.202 203.205 226.857 202.905ZM254.74 220.49C254.752 221.211 254.177 221.806 253.456 221.817C251.143 221.855 248.875 221.663 246.677 221.228C245.97 221.088 245.51 220.401 245.65 219.693C245.79 218.986 246.477 218.526 247.185 218.666C249.19 219.063 251.273 219.241 253.413 219.206C254.134 219.194 254.728 219.769 254.74 220.49ZM234.198 213.617C234.656 213.06 235.479 212.98 236.036 213.438C236.832 214.092 237.671 214.699 238.555 215.256C239.438 215.813 240.347 216.309 241.28 216.745C241.934 217.051 242.216 217.828 241.91 218.481C241.605 219.134 240.828 219.416 240.174 219.111C239.143 218.629 238.137 218.08 237.161 217.465C236.185 216.849 235.257 216.178 234.378 215.455C233.821 214.997 233.74 214.174 234.198 213.617Z" fill="#E1EFFE"/>
</g>
<g filter="url(#filter10_d_204_41136)">
<path fill-rule="evenodd" clip-rule="evenodd" d="M301.226 107.733L300.236 120.089C300.46 120.233 300.682 120.381 300.9 120.533L301.992 108.756L303.12 108.858L301.964 121.319C302.121 121.442 302.276 121.567 302.429 121.694L303.636 109.869L304.763 109.981L303.473 122.615C303.553 122.689 303.632 122.765 303.711 122.84L305.022 110.983L306.148 111.104L304.734 123.891C304.78 123.942 304.826 123.993 304.872 124.044C305.365 120.122 306.148 113.901 306.283 112.834L306.353 112.279L307.477 112.418L307.406 112.973C307.259 114.14 306.335 121.479 305.864 125.223C310.929 131.651 312.961 140.898 312.045 151.182C311.119 161.573 307.182 173.076 300.245 183.935C298.879 186.073 297.441 188.117 295.942 190.062C295.803 190.243 295.568 190.322 295.346 190.264C295.124 190.206 294.96 190.021 294.93 189.796L294.558 186.954C294.029 187.66 293.491 188.352 292.945 189.029L293.383 192.952C293.4 193.104 293.353 193.257 293.253 193.374C285.296 202.665 275.949 209.331 266.814 212.583C257.68 215.835 248.706 215.688 241.587 211.256C231.089 204.719 227.378 190.6 230.177 174.845C231.771 165.877 235.477 156.326 241.29 147.227C249.313 134.669 259.854 125.31 270.439 120.346C280.679 115.543 291.036 114.825 299.153 119.433L300.098 107.645L301.226 107.733ZM298.94 120.607C291.205 116.021 281.117 116.575 270.925 121.355C260.562 126.216 250.174 135.416 242.248 147.823C236.649 156.586 233.041 165.758 231.413 174.383H254.433C254.486 173.83 254.555 173.271 254.641 172.706H249.125C249.03 172.706 248.936 172.683 248.853 172.638L243.537 169.774L238.27 168.974C238.109 168.949 237.967 168.858 237.879 168.722C237.791 168.587 237.767 168.421 237.812 168.267C238.446 166.089 239.216 163.891 240.121 161.69C240.669 160.359 241.266 159.027 241.912 157.698C243.129 155.197 244.52 152.707 246.087 150.254C253.102 139.274 262.321 131.089 271.581 126.745C280.544 122.541 289.623 121.909 296.743 125.957L298.94 120.607ZM296.313 127.003C289.604 123.116 280.888 123.618 272.067 127.755C263.029 131.994 253.963 140.022 247.045 150.851C245.501 153.267 244.13 155.72 242.933 158.182C242.296 159.49 241.709 160.801 241.17 162.111C240.365 164.07 239.668 166.026 239.081 167.966L243.808 168.684C243.873 168.694 243.935 168.714 243.993 168.746L249.269 171.588H254.831C254.948 170.97 255.084 170.346 255.24 169.718H249.806C249.628 169.718 249.46 169.635 249.353 169.494L245.124 163.912C245.008 163.758 244.98 163.557 245.049 163.377C245.511 162.187 246.019 160.995 246.572 159.804C247.731 157.313 249.09 154.83 250.649 152.389C256.72 142.885 264.702 135.797 272.724 132.034C280.479 128.397 288.348 127.84 294.53 131.344L296.313 127.003ZM295.507 131.94L297.287 127.608C297.542 127.778 297.793 127.953 298.039 128.134L296.247 132.455C296.006 132.278 295.759 132.106 295.507 131.94ZM294.101 132.39C288.329 129.047 280.822 129.473 273.21 133.044C265.41 136.702 257.582 143.633 251.606 152.986C250.074 155.385 248.739 157.825 247.601 160.271C247.102 161.344 246.642 162.418 246.219 163.49L250.09 168.6H255.537C255.659 168.169 255.79 167.737 255.93 167.303H250.525C250.344 167.303 250.174 167.218 250.067 167.073C249.961 166.928 249.931 166.742 249.987 166.572C251.246 162.739 253.081 158.844 255.49 155.073C260.542 147.165 267.185 141.264 273.867 138.13C280.294 135.115 286.834 134.633 291.994 137.518L294.101 132.39ZM292.97 138.116L295.072 132.999C295.321 133.169 295.565 133.344 295.803 133.526L293.688 138.627C293.455 138.45 293.216 138.28 292.97 138.116ZM291.565 138.564C286.814 135.84 280.636 136.193 274.353 139.14C267.892 142.17 261.403 147.913 256.448 155.669C254.241 159.123 252.529 162.679 251.311 166.186H256.31C257.328 163.334 258.735 160.448 260.528 157.641C264.608 151.255 269.938 146.46 275.283 143.885C280.376 141.432 285.564 140.963 289.664 143.191L291.565 138.564ZM290.641 143.787L292.535 139.177C292.777 139.345 293.012 139.521 293.242 139.703L291.335 144.301C291.111 144.122 290.88 143.95 290.641 143.787ZM292.228 145.098C292.376 145.245 292.52 145.396 292.66 145.551L294.604 140.954C294.453 140.795 294.298 140.639 294.14 140.488L292.228 145.098ZM294.599 139.38C294.763 139.527 294.923 139.677 295.079 139.831L297.228 134.751C297.06 134.589 296.889 134.431 296.715 134.277L294.599 139.38ZM297.169 133.182C297.348 133.333 297.523 133.488 297.695 133.645L299.515 129.343C299.334 129.179 299.149 129.018 298.961 128.86L297.169 133.182ZM299.411 127.775C299.603 127.93 299.792 128.088 299.978 128.249L302.206 122.982C302.01 122.809 301.811 122.64 301.609 122.475L299.411 127.775ZM300.683 121.757L298.481 127.068C298.232 126.89 297.979 126.718 297.721 126.551L299.911 121.218C300.173 121.392 300.43 121.572 300.683 121.757ZM303.086 123.802L300.86 129.065C301.003 129.205 301.143 129.348 301.282 129.492L303.481 124.202C303.351 124.067 303.219 123.933 303.086 123.802ZM304.322 125.123L302.12 130.42C302.222 130.539 302.321 130.66 302.42 130.781L304.622 125.479C304.523 125.359 304.423 125.241 304.322 125.123ZM305.422 126.501L303.212 131.82C306.549 136.481 308.203 142.664 308.217 149.556C308.236 159.678 304.725 171.418 297.711 182.398L297.409 182.871L296.451 182.275L296.753 181.802C303.671 170.973 307.103 159.438 307.084 149.559C307.072 143.118 305.597 137.418 302.697 133.06L300.861 137.481C303.294 141.388 304.5 146.351 304.51 151.826C304.527 160.594 301.486 170.759 295.415 180.263L295.113 180.736L294.155 180.14L294.457 179.667C300.432 170.314 303.394 160.354 303.378 151.828C303.369 146.834 302.34 142.361 300.32 138.783L298.128 144.061C299.646 147.081 300.398 150.712 300.406 154.655C300.42 161.958 297.887 170.419 292.836 178.326C292.612 178.676 292.386 179.022 292.156 179.364L292.874 183.379L295.26 185.028C295.391 185.118 295.477 185.259 295.497 185.414L295.874 188.286C297.054 186.7 298.194 185.05 299.287 183.339C306.139 172.614 310.009 161.279 310.917 151.084C311.789 141.298 309.929 132.612 305.422 126.501ZM291.414 178.443C291.57 178.207 291.725 177.969 291.878 177.73C296.833 169.974 299.287 161.718 299.274 154.657C299.267 151.239 298.684 148.121 297.541 145.474L295.447 150.515C297.669 157.392 295.839 167.173 290.146 176.084C289.935 176.414 289.721 176.74 289.503 177.062L291.414 178.443ZM288.862 177.984C288.199 178.914 287.509 179.805 286.797 180.654L289.099 182.617C289.19 182.694 289.253 182.799 289.28 182.914L290.169 186.733L292.24 188.109C292.886 187.3 293.521 186.47 294.142 185.62L292.032 184.162C291.909 184.077 291.826 183.947 291.8 183.801L291.041 179.559L288.862 177.984ZM291.528 188.983L289.77 187.815C283.821 194.64 276.877 199.546 270.08 201.963C263.158 204.424 256.337 204.318 250.917 200.943C247.272 198.673 244.7 195.197 243.188 190.963C242.758 189.76 242.413 188.496 242.153 187.18C242.117 186.995 242.177 186.804 242.314 186.672L248.217 181.001C248.292 180.929 248.385 180.879 248.487 180.856L254.451 179.531C254.389 178.975 254.347 178.408 254.326 177.831L248.67 178.569L242.392 181.894C242.33 181.927 242.262 181.948 242.191 181.957L236.715 182.598C236.698 184.365 236.79 186.08 236.991 187.73C237.177 189.255 237.455 190.724 237.826 192.127C239.343 197.873 242.404 202.497 246.974 205.342C253.006 209.098 260.748 209.177 268.764 206.153C276.629 203.186 284.701 197.247 291.528 188.983ZM254.31 176.705C254.314 176.308 254.327 175.906 254.349 175.501H231.212C228.603 190.865 232.36 204.189 242.191 210.311C248.929 214.506 257.515 214.706 266.43 211.532C275.284 208.379 284.412 201.911 292.231 192.835L291.942 190.245C285.111 198.345 277.07 204.216 269.168 207.198C260.935 210.304 252.794 210.288 246.37 206.288C241.507 203.26 238.304 198.369 236.73 192.409C236.346 190.954 236.058 189.435 235.867 187.863C235.641 186.007 235.549 184.076 235.591 182.089C235.597 181.81 235.81 181.578 236.09 181.545L241.952 180.859L248.226 177.535C248.286 177.503 248.352 177.483 248.419 177.474L254.31 176.705ZM254.606 180.642L248.892 181.912L243.325 187.261C243.567 188.421 243.877 189.533 244.255 190.591C245.698 194.628 248.126 197.883 251.521 199.997C256.56 203.135 262.994 203.294 269.696 200.911C276.329 198.553 283.174 193.717 289.052 186.925L288.434 184.269C283.545 189.978 277.818 194.12 272.183 196.228C266.265 198.442 260.393 198.427 255.743 195.532C252.014 193.21 249.636 189.384 248.572 184.748C248.504 184.45 248.691 184.153 248.991 184.081L255.052 182.635C254.87 181.992 254.721 181.327 254.606 180.642ZM255.395 183.703L249.807 185.037C250.875 189.204 253.067 192.544 256.347 194.587C260.606 197.239 266.082 197.315 271.782 195.183C277.348 193.101 283.073 188.928 287.942 183.107L286.063 181.506C282.125 185.956 277.578 189.178 273.135 190.794C268.553 192.461 264.025 192.435 260.43 190.197C258.054 188.718 256.383 186.454 255.395 183.703ZM294.861 148.979L296.882 144.114C296.797 143.958 296.71 143.803 296.621 143.651L294.62 148.465C294.704 148.634 294.784 148.805 294.861 148.979ZM293.918 147.21L295.876 142.499C295.732 142.296 295.583 142.098 295.429 141.904L293.466 146.545C293.623 146.761 293.774 146.983 293.918 147.21ZM295.924 140.733C296.08 140.914 296.232 141.099 296.38 141.287L298.516 136.146C298.374 135.973 298.228 135.804 298.08 135.637L295.924 140.733ZM298.562 134.497C298.711 134.655 298.858 134.815 299.002 134.978L300.807 130.634C300.669 130.482 300.528 130.333 300.386 130.186L298.562 134.497ZM301.63 131.599L299.815 135.967C299.913 136.096 300.009 136.225 300.104 136.356L301.924 131.975C301.828 131.848 301.73 131.723 301.63 131.599ZM299.59 137.594C299.498 137.456 299.404 137.319 299.309 137.184L297.154 142.368C297.248 142.51 297.339 142.654 297.428 142.8L299.59 137.594ZM275.78 144.89C270.652 147.36 265.472 151.998 261.486 158.238C259.659 161.096 258.247 164.036 257.249 166.925C256.973 167.723 256.729 168.516 256.516 169.303C256.248 170.295 256.031 171.277 255.863 172.242C255.701 173.173 255.586 174.089 255.518 174.984C255.46 175.734 255.435 176.47 255.443 177.189C255.453 178.121 255.518 179.023 255.637 179.89C255.781 180.94 256.004 181.936 256.305 182.87C257.201 185.642 258.784 187.85 261.034 189.251C264.241 191.248 268.377 191.333 272.744 189.745C277.11 188.157 281.65 184.911 285.573 180.355C286.509 179.268 287.408 178.108 288.262 176.879C288.577 176.424 288.886 175.96 289.189 175.487C294.824 166.666 296.488 157.134 294.307 150.67C294.078 149.991 293.807 149.346 293.495 148.741C293.165 148.103 292.79 147.508 292.369 146.96C292.005 146.485 291.605 146.045 291.172 145.643C290.702 145.208 290.192 144.817 289.64 144.474C285.91 142.151 280.916 142.415 275.78 144.89Z" fill="#E1EFFE"/>
</g>
<g filter="url(#filter11_d_204_41136)">
<path d="M266.803 158.317L266.796 158.327L266.807 158.328L266.8 158.337L266.792 158.347L266.785 158.356L266.778 158.365L266.771 158.375L266.764 158.384L266.757 158.393L266.75 158.402L266.743 158.412L266.736 158.421L266.728 158.43L266.725 158.443L266.718 158.452L266.715 158.464L266.708 158.474L266.704 158.486L266.697 158.495L266.694 158.507L266.687 158.517L266.687 158.532L266.68 158.541L266.68 158.556L266.673 158.565L266.663 158.579L266.652 158.593L266.641 158.607L266.634 158.617L266.638 158.619L266.635 158.632L266.628 158.641L266.631 158.644L266.628 158.656L266.632 158.659L266.632 158.667L266.636 158.669L266.636 158.677L266.64 158.68L266.643 158.683L266.647 158.686L266.651 158.688L266.655 158.691L266.659 158.694L266.662 158.697L268.537 160.399L268.544 160.405L268.548 160.408L268.552 160.411L268.555 160.414L268.559 160.416L268.563 160.419L268.567 160.422L268.574 160.42L268.578 160.423L268.585 160.422L268.589 160.424L268.6 160.418L268.611 160.412L268.614 160.414L268.625 160.408L268.632 160.399L268.64 160.389L268.65 160.375L268.661 160.361L268.672 160.355L268.679 160.346L268.69 160.339L268.697 160.33L268.708 160.323L268.715 160.314L268.726 160.308L268.733 160.298L268.744 160.292L268.751 160.282L268.758 160.273L268.765 160.264L268.772 160.255L268.779 160.245L268.786 160.236L268.794 160.227L268.801 160.217L268.808 160.208L268.815 160.199L268.822 160.189L268.829 160.18L268.836 160.171L268.843 160.161L268.85 160.152L272.421 155.502L272.435 155.483L272.442 155.474L272.449 155.464L272.456 155.455L272.463 155.446L272.47 155.436L272.478 155.427L272.485 155.418L272.492 155.408L272.499 155.399L272.506 155.39L272.513 155.38L272.52 155.371L272.524 155.359L272.531 155.35L272.534 155.337L272.541 155.328L272.544 155.316L272.552 155.307L272.555 155.294L272.562 155.285L272.565 155.273L272.573 155.264L272.572 155.248L272.579 155.239L272.59 155.225L272.601 155.211L272.608 155.202L272.615 155.192L272.611 155.19L272.614 155.177L272.618 155.165L272.614 155.162L272.617 155.15L272.613 155.147L272.613 155.14L272.609 155.137L272.609 155.129L272.605 155.126L272.602 155.124L272.598 155.121L272.594 155.118L272.59 155.115L272.587 155.112L272.583 155.109L270.694 153.426L270.691 153.423L270.687 153.42L270.683 153.417L270.679 153.414L270.675 153.411L270.672 153.408L270.668 153.406L270.661 153.407L270.657 153.404L270.65 153.406L270.646 153.403L270.638 153.405L270.628 153.412L270.624 153.409L270.613 153.415L270.602 153.422L270.595 153.431L270.584 153.445L270.574 153.459L270.562 153.458L270.555 153.467L270.544 153.474L270.537 153.483L270.526 153.489L270.519 153.499L270.508 153.505L270.501 153.514L270.491 153.521L270.483 153.53L270.473 153.537L270.465 153.546L270.458 153.555L270.451 153.565L270.444 153.574L270.437 153.583L270.43 153.593L270.423 153.602L270.416 153.611L270.409 153.621L270.401 153.63L270.394 153.639L270.387 153.649L270.373 153.667L266.817 158.299L266.81 158.308L266.803 158.317Z" fill="#E1EFFE"/>
<path d="M270.544 161.709L270.536 161.718L270.54 161.706L270.533 161.715L270.526 161.724L270.518 161.734L270.511 161.743L270.504 161.752L270.497 161.762L270.49 161.771L270.483 161.78L270.476 161.79L270.469 161.799L270.465 161.811L270.458 161.82L270.455 161.833L270.448 161.842L270.444 161.854L270.437 161.864L270.434 161.876L270.427 161.885L270.424 161.897L270.416 161.907L270.417 161.922L270.41 161.931L270.414 161.941L270.407 161.951L270.396 161.965L270.385 161.979L270.378 161.988L270.382 161.991L270.375 162L270.379 162.003L270.375 162.015L270.379 162.018L270.376 162.03L270.379 162.033L270.376 162.045L270.38 162.048L270.38 162.056L270.384 162.059L270.384 162.066L270.388 162.069L270.392 162.072L270.395 162.075L270.399 162.078L270.407 162.083L272.304 163.81L272.308 163.813L272.311 163.816L272.315 163.819L272.319 163.822L272.323 163.825L272.326 163.828L272.33 163.831L272.338 163.829L272.341 163.832L272.349 163.83L272.352 163.833L272.36 163.831L272.364 163.834L272.374 163.827L272.378 163.83L272.389 163.824L272.4 163.817L272.407 163.808L272.418 163.794L272.428 163.78L272.439 163.781L272.447 163.772L272.457 163.765L272.465 163.756L272.475 163.75L272.483 163.74L272.493 163.734L272.501 163.725L272.511 163.718L272.519 163.709L272.529 163.702L272.537 163.693L272.544 163.684L272.551 163.674L272.558 163.665L272.565 163.656L272.572 163.646L272.579 163.637L272.586 163.628L272.593 163.618L272.601 163.609L272.608 163.6L272.615 163.59L272.629 163.572L276.221 158.894L276.238 158.87L276.245 158.861L276.253 158.852L276.26 158.842L276.267 158.833L276.274 158.824L276.281 158.814L276.288 158.805L276.295 158.796L276.302 158.786L276.309 158.777L276.317 158.768L276.324 158.758L276.327 158.746L276.334 158.737L276.337 158.725L276.345 158.715L276.348 158.703L276.355 158.694L276.358 158.682L276.365 158.672L276.369 158.66L276.376 158.651L276.376 158.636L276.383 158.626L276.393 158.612L276.404 158.598L276.411 158.589L276.414 158.577L276.418 158.565L276.414 158.562L276.421 158.552L276.417 158.55L276.421 158.537L276.417 158.534L276.417 158.527L276.413 158.524L276.413 158.517L276.409 158.514L276.405 158.511L276.401 158.508L276.398 158.505L276.394 158.502L276.39 158.499L276.386 158.496L274.471 156.785L274.467 156.782L274.464 156.779L274.46 156.777L274.456 156.774L274.452 156.771L274.449 156.768L274.445 156.765L274.437 156.767L274.434 156.764L274.426 156.766L274.423 156.763L274.412 156.769L274.408 156.766L274.397 156.773L274.393 156.77L274.382 156.776L274.379 156.774L274.372 156.783L274.368 156.78L274.361 156.789L274.35 156.803L274.339 156.817L274.328 156.816L274.321 156.826L274.31 156.832L274.303 156.841L274.292 156.848L274.285 156.857L274.274 156.864L274.267 156.873L274.256 156.879L274.249 156.889L274.238 156.895L274.231 156.904L274.224 156.914L274.217 156.923L274.21 156.932L274.203 156.942L274.196 156.951L274.188 156.96L274.181 156.97L274.174 156.979L274.167 156.988L274.16 156.998L274.153 157.007L274.139 157.026L270.558 161.69L270.551 161.699L270.544 161.709Z" fill="#E1EFFE"/>
<path d="M266.977 169.193L265.312 169.059L266.989 169.247L268.232 170.401L268.735 172.369L265.16 169.047L265.15 169.046L265.147 169.043L265.143 169.04L265.139 169.038L265.135 169.035L265.132 169.032L265.128 169.029L265.124 169.026L265.124 169.018L265.12 169.016L265.12 169.008L265.116 169.005L265.119 168.993L265.116 168.99L265.119 168.978L265.115 168.975L265.119 168.963L265.115 168.96L265.118 168.948L265.114 168.945L265.121 168.928L265.118 168.925L265.128 168.911L265.124 168.908L265.135 168.894L265.142 168.885L265.142 168.87L265.149 168.861L265.148 168.845L265.156 168.836L265.155 168.821L265.162 168.812L265.166 168.8L265.173 168.79L265.176 168.778L265.183 168.769L265.186 168.757L265.194 168.747L265.197 168.735L265.204 168.726L265.211 168.716L265.218 168.707L265.225 168.698L265.232 168.688L265.24 168.679L265.247 168.67L265.254 168.66L265.261 168.651L265.268 168.642L265.275 168.632L265.282 168.623L266.861 166.568L266.875 166.55L266.883 166.54L266.89 166.531L266.897 166.522L266.904 166.512L266.911 166.503L266.918 166.494L266.925 166.484L266.932 166.475L266.939 166.466L266.947 166.456L266.957 166.45L266.965 166.441L266.975 166.434L266.983 166.425L266.993 166.418L267 166.409L267.011 166.403L267.018 166.393L267.033 166.39L267.04 166.381L267.051 166.382L267.058 166.372L267.07 166.373L267.08 166.359L267.095 166.348L267.098 166.351L267.109 166.345L267.113 166.348L267.124 166.341L267.128 166.344L267.139 166.338L267.142 166.34L267.153 166.334L267.157 166.337L267.164 166.335L267.168 166.338L267.175 166.336L267.179 166.339L267.183 166.342L267.187 166.345L267.191 166.348L267.194 166.351L267.198 166.353L267.202 166.356L267.206 166.359L267.209 166.362L270.804 169.671L268.954 169.462L267.708 168.312L267.704 168.317L267.209 166.362L267.638 168.318L267.634 168.323L267.631 168.327L267.627 168.332L267.624 168.337L267.62 168.341L267.616 168.346L267.613 168.351L267.609 168.355L267.606 168.36L267.599 168.369L267.592 168.379L267.044 169.097L267.037 169.106L267.03 169.115L267.023 169.125L267.019 169.129L267.016 169.134L267.012 169.139L267.008 169.143L267.005 169.148L267.001 169.153L266.998 169.157L266.994 169.162L266.991 169.167L266.987 169.171L266.977 169.193Z" fill="#E1EFFE"/>
<path d="M271.382 166.646L261.623 158.301L261.619 158.298L261.121 158.95L270.877 167.308L271.382 166.646Z" fill="#E1EFFE"/>
<path d="M270.8 169.676L268.959 169.525L268.957 169.56L268.953 169.565L268.95 169.569L268.946 169.574L268.943 169.579L268.939 169.583L268.935 169.588L268.932 169.593L268.928 169.597L268.925 169.602L268.921 169.607L268.914 169.616L268.907 169.625L268.9 169.635L268.349 170.357L268.342 170.366L268.335 170.376L268.331 170.38L268.327 170.385L268.324 170.39L268.32 170.394L268.317 170.399L268.313 170.404L268.31 170.408L268.306 170.413L268.739 172.387L268.742 172.39L268.746 172.393L268.75 172.396L268.754 172.399L268.758 172.402L268.761 172.404L268.765 172.407L268.769 172.41L268.773 172.413L268.78 172.411L268.784 172.414L268.791 172.412L268.795 172.415L268.806 172.409L268.809 172.412L268.82 172.405L268.824 172.408L268.835 172.402L268.839 172.404L268.85 172.398L268.853 172.401L268.864 172.387L268.868 172.39L268.879 172.376L268.889 172.362L268.904 172.358L268.911 172.349L268.926 172.345L268.933 172.336L268.944 172.33L268.951 172.32L268.962 172.314L268.969 172.305L268.98 172.298L268.987 172.289L268.994 172.279L269.001 172.27L269.008 172.261L269.015 172.251L269.022 172.242L269.029 172.233L269.036 172.223L269.044 172.214L269.051 172.205L269.058 172.196L269.065 172.186L269.079 172.168L270.669 170.099L270.676 170.089L270.683 170.08L270.69 170.071L270.697 170.061L270.704 170.052L270.711 170.043L270.718 170.034L270.726 170.024L270.733 170.015L270.74 170.006L270.747 169.996L270.754 169.987L270.761 169.978L270.764 169.965L270.772 169.956L270.775 169.944L270.782 169.935L270.785 169.922L270.793 169.913L270.792 169.898L270.799 169.889L270.799 169.874L270.806 169.864L270.805 169.849L270.813 169.84L270.823 169.826L270.834 169.812L270.83 169.809L270.837 169.792L270.833 169.789L270.837 169.777L270.833 169.774L270.836 169.762L270.832 169.759L270.836 169.747L270.832 169.744L270.835 169.732L270.832 169.729L270.835 169.717L270.831 169.714L270.831 169.706L270.827 169.703L270.827 169.696L270.823 169.693L270.819 169.69L270.816 169.687L270.804 169.679L270.8 169.676Z" fill="#E1EFFE"/>
<path d="M285.186 158.225L285.273 158.432L285.246 158.389L285.33 158.6L285.405 158.798L285.453 158.93L285.522 159.13L285.583 159.331L285.637 159.535L285.687 159.742L285.733 159.947L285.776 160.157L285.815 160.364L285.847 160.572L285.875 160.786L285.9 160.996L285.921 161.211L285.934 161.428L285.944 161.642L285.95 161.86L285.953 162.076L285.917 162.123L283.691 165.018L284.35 165.609L284.353 165.612L284.357 165.615L284.361 165.618L284.365 165.62L284.368 165.623L284.372 165.626L284.376 165.629L284.376 165.637L284.38 165.64L284.377 165.652L284.38 165.655L284.377 165.667L284.381 165.67L284.377 165.682L284.381 165.685L284.378 165.697L284.382 165.7L284.378 165.712L284.382 165.715L284.371 165.729L284.361 165.743L284.361 165.758L284.354 165.767L284.354 165.782L284.347 165.792L284.348 165.807L284.341 165.816L284.337 165.828L284.33 165.838L284.327 165.85L284.32 165.859L284.316 165.871L284.309 165.881L284.306 165.893L284.299 165.902L284.292 165.911L284.285 165.921L284.278 165.93L284.27 165.939L284.263 165.949L284.256 165.958L284.249 165.967L284.242 165.977L284.235 165.986L284.228 165.995L284.221 166.005L284.203 166.028L280.554 170.773L280.547 170.783L280.54 170.792L280.533 170.801L280.526 170.811L280.519 170.82L280.511 170.829L280.504 170.839L280.497 170.848L280.49 170.857L280.483 170.867L280.476 170.876L280.469 170.885L280.462 170.895L280.455 170.904L280.444 170.91L280.437 170.92L280.426 170.926L280.419 170.935L280.408 170.942L280.401 170.951L280.386 170.955L280.379 170.964L280.364 170.968L280.357 170.977L280.346 170.991L280.336 171.005L280.329 171.014L280.322 171.024L280.318 171.021L280.307 171.027L280.303 171.024L280.292 171.031L280.288 171.028L280.278 171.034L280.274 171.031L280.267 171.033L280.263 171.03L280.255 171.032L280.252 171.029L280.248 171.026L280.244 171.023L280.24 171.021L280.237 171.018L280.233 171.015L280.218 171.003L279.563 170.408L273.642 178.11L273.286 178.2L272.927 178.28L272.568 178.345L272.208 178.402L271.847 178.445L271.483 178.476L271.115 178.498L270.75 178.507L270.385 178.501L270.016 178.485L269.646 178.454L269.279 178.41L268.913 178.352L268.542 178.283L268.174 178.194L267.803 178.095L267.434 177.984L267.069 177.853L266.703 177.707L266.337 177.546L265.971 177.369L265.604 177.178L265.24 176.967L264.88 176.744L264.522 176.501L264.752 176.152L264.496 176.488L258.697 171.011L257.696 170.063L257.692 170.06L257.688 170.058L257.685 170.055L257.681 170.052L257.677 170.049L257.673 170.046L257.67 170.043L257.666 170.04L257.662 170.037L257.658 170.034L257.655 170.032L257.651 170.029L257.651 170.021L257.647 170.018L257.647 170.011L257.646 170.003L257.65 169.999L257.657 169.989L257.664 169.98L257.671 169.971L257.678 169.961L257.685 169.952L257.693 169.943L257.7 169.933L257.707 169.924L257.714 169.915L257.721 169.905L257.728 169.896L257.735 169.887L257.742 169.877L257.749 169.868L257.757 169.859L259.641 167.403L259.648 167.394L259.655 167.384L259.663 167.375L259.67 167.366L259.677 167.356L259.684 167.347L261.124 165.474L261.622 164.822L262.02 165.191L263.285 166.37L263.687 166.743L264.157 167.175L265.216 165.786L259.531 161.144L260.029 160.492L265.721 165.131L266.123 165.504L265.621 166.161L264.053 168.202L263.985 168.135L263.655 167.825L263.193 167.391L261.76 169.254L261.756 169.259L261.749 169.268L261.742 169.278L261.735 169.287L261.728 169.296L261.72 169.306L261.699 169.334L260.184 171.305L265.032 175.879L265.198 175.991L269.751 173.609L275.227 166.482L274.375 165.707L274.372 165.705L274.368 165.702L274.364 165.699L274.36 165.696L274.357 165.693L274.353 165.69L274.353 165.683L274.349 165.68L274.349 165.672L274.345 165.669L274.348 165.657L274.344 165.654L274.348 165.642L274.344 165.639L274.347 165.627L274.344 165.624L274.347 165.612L274.354 165.595L274.365 165.581L274.375 165.567L274.375 165.552L274.382 165.543L274.385 165.53L274.392 165.521L274.396 165.509L274.403 165.5L274.406 165.487L274.413 165.478L274.417 165.466L274.424 165.457L274.427 165.444L274.434 165.435L274.441 165.426L274.448 165.416L274.455 165.407L274.463 165.398L274.47 165.388L274.477 165.379L274.484 165.37L274.491 165.36L274.498 165.351L274.505 165.342L274.512 165.333L274.519 165.323L274.527 165.314L274.534 165.305L278.139 160.608L278.154 160.589L278.161 160.58L278.168 160.57L278.175 160.561L278.182 160.552L278.189 160.542L278.196 160.533L278.203 160.524L278.211 160.514L278.218 160.505L278.225 160.496L278.232 160.486L278.239 160.477L278.25 160.471L278.257 160.461L278.268 160.455L278.275 160.446L278.286 160.439L278.293 160.43L278.304 160.423L278.311 160.414L278.326 160.41L278.333 160.401L278.343 160.387L278.354 160.373L278.361 160.364L278.368 160.354L278.379 160.348L278.383 160.351L278.394 160.344L278.398 160.347L278.408 160.341L278.412 160.344L278.42 160.342L278.423 160.345L278.431 160.343L278.434 160.346L278.438 160.349L278.442 160.352L278.446 160.355L278.45 160.357L278.453 160.36L278.468 160.372L279.327 161.138L281.28 158.593L270.401 148.741L270.898 148.089L281.785 157.931L281.872 158.013L282.205 158.303L279.74 161.511L280.403 162.105L280.406 162.108L280.41 162.111L280.414 162.114L280.418 162.116L280.421 162.119L280.422 162.127L280.425 162.13L280.426 162.137L280.429 162.14L280.43 162.148L280.433 162.151L280.43 162.163L280.434 162.166L280.43 162.178L280.434 162.181L280.431 162.193L280.435 162.196L280.431 162.208L280.421 162.222L280.41 162.236L280.41 162.251L280.403 162.26L280.404 162.275L280.397 162.285L280.393 162.297L280.386 162.306L280.383 162.318L280.376 162.328L280.372 162.34L280.365 162.349L280.362 162.362L280.355 162.371L280.352 162.383L280.344 162.392L280.337 162.402L280.33 162.411L280.323 162.42L280.316 162.43L280.309 162.439L280.302 162.448L280.295 162.458L280.288 162.467L280.28 162.476L280.273 162.486L280.266 162.495L280.252 162.514L276.632 167.222L276.614 167.245L276.607 167.254L276.6 167.264L276.593 167.273L276.585 167.282L276.578 167.292L276.571 167.301L276.564 167.31L276.557 167.319L276.55 167.329L276.543 167.338L276.532 167.345L276.525 167.354L276.514 167.36L276.507 167.37L276.496 167.376L276.489 167.385L276.478 167.392L276.471 167.401L276.46 167.408L276.453 167.417L276.438 167.421L276.431 167.43L276.42 167.444L276.41 167.458L276.403 167.467L276.396 167.477L276.392 167.474L276.381 167.48L276.37 167.487L276.366 167.484L276.355 167.49L276.352 167.487L276.344 167.489L276.34 167.486L276.333 167.488L276.329 167.485L276.326 167.482L276.322 167.479L276.318 167.476L276.314 167.474L276.311 167.471L276.295 167.459L275.637 166.861L270.018 174.174L270.01 174.168L265.798 176.368L266.031 176.501L266.372 176.68L266.712 176.843L267.052 176.992L267.395 177.128L267.738 177.25L268.08 177.356L268.422 177.455L268.764 177.538L269.105 177.607L269.45 177.663L269.791 177.709L270.131 177.74L270.471 177.763L270.81 177.772L271.15 177.772L271.489 177.758L271.827 177.736L272.162 177.704L272.496 177.656L272.83 177.602L273.16 177.536L273.49 177.463L279.169 170.071L278.295 169.271L278.287 169.266L278.283 169.263L278.28 169.26L278.276 169.257L278.272 169.254L278.272 169.247L278.268 169.244L278.268 169.236L278.264 169.233L278.267 169.221L278.264 169.218L278.267 169.206L278.263 169.203L278.267 169.191L278.263 169.188L278.266 169.176L278.262 169.173L278.273 169.159L278.284 169.145L278.28 169.135L278.287 169.125L278.286 169.11L278.293 169.101L278.293 169.086L278.3 169.076L278.303 169.064L278.311 169.055L278.314 169.043L278.321 169.033L278.324 169.021L278.331 169.012L278.335 169L278.342 168.99L278.349 168.981L278.356 168.972L278.363 168.962L278.37 168.953L278.377 168.944L278.385 168.934L278.392 168.925L278.399 168.916L278.406 168.906L278.413 168.897L278.42 168.888L278.445 168.855L282.08 164.128L282.087 164.119L282.094 164.11L282.101 164.101L282.108 164.091L282.115 164.082L282.122 164.073L282.129 164.063L282.136 164.054L282.144 164.045L282.151 164.035L282.158 164.026L282.165 164.017L282.172 164.007L282.179 163.998L282.19 163.992L282.197 163.982L282.208 163.976L282.215 163.966L282.226 163.96L282.233 163.951L282.244 163.944L282.251 163.935L282.266 163.931L282.273 163.922L282.283 163.908L282.294 163.894L282.301 163.885L282.312 163.878L282.323 163.872L282.327 163.875L282.338 163.868L282.341 163.871L282.352 163.865L282.356 163.868L282.363 163.866L282.367 163.869L282.374 163.867L282.378 163.87L282.382 163.873L282.386 163.875L282.39 163.878L282.393 163.881L282.397 163.884L282.412 163.896L283.294 164.686L285.296 162.084L285.285 161.81L285.266 161.538L285.24 161.267L285.206 160.998L285.166 160.731L285.117 160.466L285.062 160.202L284.999 159.94L284.929 159.681L284.852 159.422L284.763 159.171L284.668 158.921L284.565 158.673L284.454 158.426L284.333 158.186L284.205 157.948L284.065 157.717L283.918 157.487L283.761 157.263L283.596 157.042L283.42 156.827L283.237 156.613L283.043 156.406L282.834 156.203L282.618 156.001L272.524 147.251L273.022 146.598L282.877 155.122L282.911 155.148L282.983 155.218L283.104 155.31L283.229 155.42L283.369 155.556L283.529 155.715L283.666 155.864L283.81 156.026L283.959 156.206L284.112 156.396L284.22 156.537L284.327 156.685L284.462 156.884L284.593 157.095L284.725 157.313L284.853 157.544L284.978 157.779L285.096 158.023L285.186 158.225Z" fill="#E1EFFE"/>
</g>
</g>
<g style="mix-blend-mode:multiply" filter="url(#filter12_f_204_41136)">
<path d="M155.638 229.564L427.827 124.479L122.906 319.146L155.638 229.564Z" fill="#C3DDFD"/>
</g>
</g>
<path d="M166.56 78.2004C157.875 82.6944 147.247 81.7651 144.077 75.6399C140.908 69.5147 145.784 60.6115 154.469 56.1175C163.973 51.1996 172.132 53.0322 176.547 58.9727C179.716 65.0979 175.245 73.7064 166.56 78.2004Z" fill="#C3DDFD"/>
<path d="M166.581 79.5512C157.628 84.1834 147.802 82.9731 144.632 76.8479C141.463 70.7227 146.151 62.0021 155.103 57.3698C164.055 52.7376 173.882 53.9479 177.051 60.0731C180.221 66.1983 175.533 74.9189 166.581 79.5512Z" fill="#E1EFFE"/>
<g filter="url(#filter13_i_204_41136)">
<path d="M166.581 79.5512C157.628 84.1834 147.802 82.9731 144.632 76.8479C141.463 70.7227 146.151 62.0021 155.103 57.3698C164.055 52.7376 173.882 53.9479 177.051 60.0731C180.221 66.1983 175.533 74.9189 166.581 79.5512Z" fill="#E1EFFE"/>
</g>
<path fill-rule="evenodd" clip-rule="evenodd" d="M153.49 81.8108C157.366 82.2883 161.975 81.4547 166.385 79.1729C170.795 76.8911 174.137 73.6103 175.986 70.1703C177.837 66.7282 178.174 63.1702 176.673 60.2688C175.172 57.3675 172.072 55.5879 168.194 55.1102C164.317 54.6328 159.709 55.4663 155.299 57.7481C150.889 60.0299 147.546 63.3108 145.697 66.7507C143.847 70.1928 143.509 73.7508 145.011 76.6522C146.512 79.5535 149.611 81.3331 153.49 81.8108ZM144.632 76.8479C147.802 82.9731 157.628 84.1834 166.581 79.5512C175.533 74.9189 180.221 66.1983 177.051 60.0731C173.882 53.9479 164.055 52.7376 155.103 57.3698C146.151 62.0021 141.463 70.7227 144.632 76.8479Z" fill="white"/>
<g filter="url(#filter14_di_204_41136)">
<path d="M166.332 78.6056C158.195 82.8159 149.272 81.7327 146.402 76.1862C143.532 70.6397 147.802 62.7302 155.939 58.5199C164.076 54.3096 172.998 55.3928 175.868 60.9393C178.738 66.4858 174.469 74.3953 166.332 78.6056Z" fill="#E1EFFE"/>
</g>
<g filter="url(#filter15_d_204_41136)">
<path fill-rule="evenodd" clip-rule="evenodd" d="M154.443 80.6318C157.954 81.0581 162.134 80.2983 166.136 78.2273C170.139 76.1563 173.173 73.1835 174.853 70.0712C176.534 66.9566 176.841 63.7464 175.49 61.1351C174.139 58.5237 171.341 56.9202 167.827 56.4936C164.316 56.0674 160.137 56.8272 156.135 58.8982C152.132 60.9692 149.098 63.942 147.418 67.0543C145.737 70.1689 145.43 73.3791 146.781 75.9904C148.132 78.6018 150.93 80.2053 154.443 80.6318ZM146.402 76.1862C149.272 81.7327 158.195 82.8159 166.332 78.6056C174.469 74.3953 178.738 66.4858 175.868 60.9393C172.998 55.3928 164.076 54.3096 155.939 58.5199C147.802 62.7302 143.532 70.6397 146.402 76.1862Z" fill="white"/>
</g>
<path d="M392.067 316.545C387.921 314.152 385.498 309.523 387.188 306.598C388.877 303.672 393.835 303.329 397.981 305.723C402.518 308.342 403.916 312.191 402.632 315.582C400.943 318.508 396.212 318.939 392.067 316.545Z" fill="#C3DDFD"/>
<path d="M391.472 317.02C387.195 314.551 385.098 310.177 386.787 307.252C388.477 304.326 393.313 303.955 397.589 306.424C401.865 308.893 403.963 313.266 402.273 316.192C400.584 319.118 395.748 319.489 391.472 317.02Z" fill="#E1EFFE"/>
<g filter="url(#filter16_i_204_41136)">
<path d="M391.472 317.02C387.195 314.551 385.098 310.177 386.787 307.252C388.477 304.326 393.313 303.955 397.589 306.424C401.865 308.893 403.963 313.266 402.273 316.192C400.584 319.118 395.748 319.489 391.472 317.02Z" fill="#E1EFFE"/>
</g>
<path fill-rule="evenodd" clip-rule="evenodd" d="M387.081 312.217C387.908 313.942 389.47 315.623 391.576 316.839C393.683 318.055 395.919 318.567 397.827 318.421C399.736 318.275 401.292 317.474 402.093 316.088C402.893 314.702 402.808 312.953 401.98 311.227C401.153 309.502 399.591 307.821 397.485 306.605C395.378 305.389 393.142 304.877 391.234 305.023C389.325 305.169 387.768 305.97 386.968 307.356C386.168 308.742 386.253 310.491 387.081 312.217ZM386.787 307.252C385.098 310.177 387.195 314.551 391.472 317.02C395.748 319.489 400.584 319.118 402.273 316.192C403.963 313.266 401.865 308.893 397.589 306.424C393.313 303.955 388.477 304.326 386.787 307.252Z" fill="white"/>
<g filter="url(#filter17_di_204_41136)">
<path d="M391.802 316.668C387.915 314.424 386.004 310.457 387.534 307.808C389.063 305.158 393.454 304.829 397.341 307.074C401.228 309.318 403.139 313.285 401.609 315.934C400.08 318.583 395.689 318.912 391.802 316.668Z" fill="#E1EFFE"/>
</g>
<g filter="url(#filter18_d_204_41136)">
<path fill-rule="evenodd" clip-rule="evenodd" d="M387.825 312.299C388.577 313.86 389.994 315.384 391.906 316.487C393.818 317.591 395.846 318.057 397.574 317.928C399.303 317.799 400.708 317.077 401.428 315.83C402.149 314.582 402.071 313.004 401.318 311.442C400.567 309.881 399.149 308.358 397.237 307.254C395.325 306.15 393.297 305.684 391.569 305.814C389.84 305.943 388.435 306.665 387.715 307.912C386.994 309.159 387.072 310.737 387.825 312.299ZM387.534 307.808C386.004 310.457 387.915 314.424 391.802 316.668C395.689 318.912 400.08 318.583 401.609 315.934C403.139 313.285 401.228 309.318 397.341 307.074C393.454 304.829 389.063 305.158 387.534 307.808Z" fill="white"/>
</g>
<path d="M233.239 362.984C253.773 375.837 254.024 379.888 249.843 386.645C245.586 393.524 234.886 395.773 223.311 391.885C210.643 387.63 206.584 376.959 207.921 370.925C209.792 362.483 212.833 359.461 233.239 362.984Z" fill="#76A9FA"/>
<path d="M235.179 360.412C247.159 364.436 254.639 374.344 251.885 382.54C249.132 390.737 237.188 394.12 225.208 390.095C213.227 386.071 205.748 376.164 208.501 367.967C211.255 359.77 223.199 356.387 235.179 360.412Z" fill="#C3DDFD"/>
<g filter="url(#filter19_i_204_41136)">
<path d="M235.179 360.412C247.159 364.436 254.639 374.344 251.885 382.54C249.132 390.737 237.188 394.12 225.208 390.095C213.227 386.071 205.748 376.164 208.501 367.967C211.255 359.77 223.199 356.387 235.179 360.412Z" fill="#C3DDFD"/>
</g>
<path fill-rule="evenodd" clip-rule="evenodd" d="M248.631 370.233C245.681 366.325 240.91 362.9 235.009 360.918C229.108 358.936 223.237 358.786 218.526 360.12C213.811 361.455 210.312 364.254 209.008 368.137C207.703 372.019 208.803 376.363 211.756 380.274C214.706 384.182 219.476 387.607 225.378 389.589C231.279 391.572 237.149 391.721 241.861 390.387C246.575 389.052 250.075 386.253 251.379 382.37C252.683 378.488 251.583 374.144 248.631 370.233ZM251.885 382.54C254.639 374.344 247.159 364.436 235.179 360.412C223.199 356.387 211.255 359.77 208.501 367.967C205.748 376.164 213.227 386.071 225.208 390.095C237.188 394.12 249.132 390.737 251.885 382.54Z" fill="white"/>
<g filter="url(#filter20_di_204_41136)">
<path d="M234.55 361.459C245.439 365.117 252.245 374.099 249.752 381.522C247.258 388.944 236.41 391.996 225.521 388.338C214.632 384.68 207.826 375.698 210.319 368.275C212.813 360.853 223.661 357.801 234.55 361.459Z" fill="#C3DDFD"/>
</g>
<g filter="url(#filter21_d_204_41136)">
<path fill-rule="evenodd" clip-rule="evenodd" d="M246.744 370.401C244.066 366.866 239.736 363.764 234.38 361.965C229.024 360.166 223.7 360.025 219.431 361.226C215.159 362.428 212 364.951 210.826 368.445C209.652 371.94 210.647 375.859 213.327 379.396C216.005 382.93 220.335 386.032 225.691 387.832C231.047 389.631 236.371 389.772 240.64 388.571C244.912 387.369 248.072 384.846 249.245 381.351C250.419 377.857 249.424 373.938 246.744 370.401ZM249.752 381.522C252.245 374.099 245.439 365.117 234.55 361.459C223.661 357.801 212.813 360.853 210.319 368.275C207.826 375.698 214.632 384.68 225.521 388.338C236.41 391.996 247.258 388.944 249.752 381.522Z" fill="white"/>
</g>
<g filter="url(#filter22_d_204_41136)">
<path fill-rule="evenodd" clip-rule="evenodd" d="M217.067 368.281L227.446 378.66C227.492 378.705 227.546 378.741 227.604 378.766L234.235 373.398C234.372 373.288 234.44 373.113 234.415 372.939L233.806 368.674C233.75 368.647 233.69 368.631 233.627 368.626L217.458 367.429C216.996 367.394 216.74 367.953 217.067 368.281ZM233.828 368.685L236.811 374.054C236.953 374.31 236.846 374.633 236.578 374.753L227.615 378.771C227.662 378.79 227.713 378.801 227.765 378.805L244.823 380C245.295 380.033 245.545 379.453 245.197 379.133L233.929 368.757C233.898 368.729 233.865 368.705 233.828 368.685Z" fill="white"/>
<mask id="mask2_204_41136" style="mask-type:alpha" maskUnits="userSpaceOnUse" x="216" y="367" width="30" height="14">
<path fill-rule="evenodd" clip-rule="evenodd" d="M217.067 368.281L227.446 378.66C227.492 378.705 227.546 378.741 227.604 378.766L234.235 373.398C234.372 373.288 234.44 373.113 234.415 372.939L233.806 368.674C233.75 368.647 233.69 368.631 233.627 368.626L217.458 367.429C216.996 367.394 216.74 367.953 217.067 368.281ZM233.828 368.685L236.811 374.054C236.953 374.31 236.846 374.633 236.578 374.753L227.615 378.771C227.662 378.79 227.713 378.801 227.765 378.805L244.823 380C245.295 380.033 245.545 379.453 245.197 379.133L233.929 368.757C233.898 368.729 233.865 368.705 233.828 368.685Z" fill="white"/>
</mask>
<g mask="url(#mask2_204_41136)">
<path d="M235.44 373.543L216.117 367.32L224.632 363.062L243.628 372.888L247.558 381.075L235.44 373.543Z" fill="#A4CAFE"/>
</g>
<g style="mix-blend-mode:multiply" opacity="0.2">
<path fill-rule="evenodd" clip-rule="evenodd" d="M233.739 368.647L227.251 370.918L227.578 378.754C227.585 378.758 227.592 378.761 227.6 378.764L227.618 378.752L234.233 373.397C234.369 373.286 234.438 373.112 234.413 372.938L233.804 368.673C233.783 368.663 233.761 368.654 233.739 368.647Z" fill="#76A9FA"/>
</g>
</g>
<path d="M42.7186 161.278C47.982 147.735 50.3399 147.132 54.791 148.835C59.3223 150.569 61.8507 156.62 60.8617 163.876C59.7794 171.818 53.9494 175.409 50.2444 175.3C45.0604 175.147 42.9381 173.695 42.7186 161.278Z" fill="#76A9FA"/>
<path d="M40.9827 160.425C42.0063 152.915 47.0018 147.394 52.1406 148.095C57.2793 148.795 60.6153 155.451 59.5917 162.962C58.5681 170.472 53.5725 175.993 48.4338 175.292C43.295 174.592 39.9591 167.936 40.9827 160.425Z" fill="#C3DDFD"/>
<g filter="url(#filter23_i_204_41136)">
<path d="M40.9827 160.425C42.0063 152.915 47.0018 147.394 52.1406 148.095C57.2793 148.795 60.6153 155.451 59.5917 162.962C58.5681 170.472 53.5725 175.993 48.4338 175.292C43.295 174.592 39.9591 167.936 40.9827 160.425Z" fill="#C3DDFD"/>
</g>
<path fill-rule="evenodd" clip-rule="evenodd" d="M45.2559 151.396C43.2854 153.574 41.8043 156.769 41.3 160.469C40.7958 164.168 41.3678 167.644 42.6837 170.269C44.0004 172.896 46.043 174.643 48.477 174.975C50.9111 175.307 53.3466 174.17 55.3184 171.991C57.2889 169.814 58.7701 166.618 59.2743 162.918C59.7785 159.219 59.2065 155.743 57.8906 153.118C56.5739 150.491 54.5314 148.744 52.0973 148.412C49.6632 148.08 47.2277 149.217 45.2559 151.396ZM52.1406 148.095C47.0018 147.394 42.0063 152.915 40.9827 160.425C39.9591 167.936 43.295 174.592 48.4338 175.292C53.5725 175.993 58.5681 170.472 59.5917 162.962C60.6153 155.451 57.2793 148.795 52.1406 148.095Z" fill="white"/>
<g filter="url(#filter24_di_204_41136)">
<path d="M41.6736 160.685C42.604 153.859 47.1304 148.839 51.7836 149.473C56.4368 150.107 59.4548 156.155 58.5244 162.982C57.5941 169.808 53.0677 174.828 48.4144 174.193C43.7612 173.559 40.7432 167.511 41.6736 160.685Z" fill="#C3DDFD"/>
</g>
<g filter="url(#filter25_d_204_41136)">
<path fill-rule="evenodd" clip-rule="evenodd" d="M45.5704 152.496C43.7893 154.471 42.4486 157.37 41.991 160.728C41.5333 164.086 42.0492 167.238 43.2368 169.618C44.4252 172 46.2669 173.578 48.4577 173.876C50.6485 174.175 52.8452 173.147 54.6276 171.171C56.4087 169.196 57.7494 166.296 58.207 162.938C58.6647 159.58 58.1488 156.428 56.9612 154.048C55.7728 151.667 53.9311 150.089 51.7403 149.79C49.5496 149.492 47.3528 150.519 45.5704 152.496ZM51.7836 149.473C47.1304 148.839 42.604 153.859 41.6736 160.685C40.7432 167.511 43.7612 173.559 48.4144 174.193C53.0677 174.828 57.5941 169.808 58.5244 162.982C59.4548 156.155 56.4368 150.107 51.7836 149.473Z" fill="white"/>
</g>
<path d="M30.0387 320.756C60.1273 301.587 65.6721 303.816 72.0113 313.653C78.4647 323.667 74.683 339.319 62.1864 352.25C48.511 366.401 31.7522 365.045 24.5751 359.448C14.5331 351.617 12.4399 345.661 30.0387 320.756Z" fill="#3F83F8"/>
<path d="M27.8516 316.549C40.7854 303.165 58.6936 299.49 67.8507 308.339C77.0078 317.188 73.9462 335.212 61.0124 348.595C48.0787 361.979 30.1705 365.654 21.0134 356.805C11.8563 347.955 14.9179 329.932 27.8516 316.549Z" fill="#E6D8FF"/>
<g filter="url(#filter26_i_204_41136)">
<path d="M27.8516 316.549C40.7854 303.165 58.6936 299.49 67.8507 308.339C77.0078 317.188 73.9462 335.212 61.0124 348.595C48.0787 361.979 30.1705 365.654 21.0134 356.805C11.8563 347.955 14.9179 329.932 27.8516 316.549Z" fill="#E6D8FF"/>
</g>
<path fill-rule="evenodd" clip-rule="evenodd" d="M49.4256 304.877C42.3615 306.327 34.7883 310.503 28.4172 317.095C22.0461 323.688 18.1315 331.399 16.9238 338.509C15.7153 345.623 17.2224 352.048 21.5599 356.239C25.8973 360.431 32.37 361.718 39.4385 360.267C46.5025 358.817 54.0758 354.641 60.4469 348.049C66.818 341.456 70.7326 333.745 71.9403 326.635C73.1487 319.521 71.6416 313.096 67.3042 308.905C62.9667 304.713 56.4941 303.426 49.4256 304.877ZM67.8507 308.339C58.6936 299.49 40.7854 303.165 27.8516 316.549C14.9179 329.932 11.8563 347.955 21.0134 356.805C30.1705 365.654 48.0787 361.979 61.0124 348.595C73.9462 335.212 77.0078 317.188 67.8507 308.339Z" fill="white"/>
<g filter="url(#filter27_di_204_41136)">
<path d="M28.836 318.051C40.5917 305.887 56.8435 302.522 65.1354 310.535C73.4274 318.548 70.6194 334.906 58.8637 347.07C47.108 359.234 30.8562 362.6 22.5642 354.586C14.2723 346.573 17.0803 330.216 28.836 318.051Z" fill="#E6D8FF"/>
</g>
<g filter="url(#filter28_d_204_41136)">
<path fill-rule="evenodd" clip-rule="evenodd" d="M48.4441 307.497C42.0491 308.821 35.184 312.614 29.4015 318.598C23.619 324.581 20.0623 331.572 18.9574 338.008C17.8517 344.45 19.2069 350.248 23.1108 354.021C27.0147 357.793 32.8559 358.95 39.2556 357.625C45.6505 356.301 52.5156 352.507 58.2982 346.524C64.0807 340.54 67.6374 333.549 68.7423 327.113C69.848 320.672 68.4928 314.873 64.5889 311.101C60.685 307.328 54.8437 306.171 48.4441 307.497ZM65.1354 310.535C56.8435 302.522 40.5917 305.887 28.836 318.051C17.0803 330.216 14.2723 346.573 22.5642 354.586C30.8562 362.6 47.108 359.234 58.8637 347.07C70.6194 334.906 73.4274 318.548 65.1354 310.535Z" fill="white"/>
</g>
<g filter="url(#filter29_d_204_41136)">
<path fill-rule="evenodd" clip-rule="evenodd" d="M27.6835 333.979C27.0225 334.715 26.7954 335.743 27.0872 336.677L29.264 343.649C29.558 344.591 30.3343 345.295 31.2989 345.495L38.3743 346.959C39.3375 347.158 40.3415 346.824 41.0068 346.082L45.6345 340.926C46.2698 340.218 46.506 339.239 46.2606 338.33L45.3543 334.973L45.3494 334.973L43.8295 329.325L43.8295 329.325L42.5042 324.416C42.3975 324.021 42.5002 323.596 42.7764 323.288L45.8113 319.906C46.093 319.592 46.515 319.445 46.9251 319.519L51.2836 320.301C51.6963 320.375 52.0369 320.661 52.1809 321.055L53.7335 325.302C53.8866 325.721 53.7937 326.194 53.4925 326.529L50.5458 329.813C50.2706 330.119 49.8609 330.267 49.4585 330.204L46.3144 329.713L47.3208 333.642L49.9946 334.059C50.92 334.204 51.8623 333.865 52.4954 333.159L57.1075 328.02C57.8002 327.248 58.0138 326.161 57.6619 325.198L55.2459 318.589C54.9145 317.683 54.1313 317.025 53.182 316.854L46.4445 315.646C45.5014 315.476 44.5309 315.814 43.8829 316.536L39.2447 321.704C38.6093 322.412 38.3732 323.391 38.6186 324.3L39.0754 325.992L39.0768 325.992L39.5852 327.88L39.8056 328.697L39.805 328.697L40.8653 332.634L40.8687 332.635L42.3749 338.214C42.4816 338.609 42.379 339.034 42.1027 339.342L39.1037 342.684C38.8144 343.006 38.3779 343.152 37.9591 343.065L33.316 342.104C32.8967 342.018 32.5591 341.712 32.4313 341.302L30.9928 336.695C30.866 336.288 30.9647 335.842 31.2521 335.522L34.2647 332.165C34.54 331.858 34.9497 331.71 35.352 331.773L38.4123 332.251L37.2983 328.305L34.8159 327.918C33.8906 327.773 32.9482 328.112 32.3151 328.818L27.6835 333.979Z" fill="white"/>
</g>
<path d="M337.829 75.9995C349.609 70.1329 351.557 71.1656 353.501 75.0195C355.481 78.9429 353.487 84.5381 348.402 88.7976C342.837 93.4589 336.742 92.3125 334.326 89.9813C330.946 86.7197 330.409 84.4535 337.829 75.9995Z" fill="url(#paint0_linear_204_41136)"/>
<path d="M337.188 74.3661C342.451 69.9576 349.163 69.3029 352.179 72.9039C355.196 76.5049 353.374 82.9979 348.111 87.4064C342.849 91.8149 336.137 92.4695 333.12 88.8685C330.104 85.2675 331.925 78.7746 337.188 74.3661Z" fill="#E6D8FF"/>
<g filter="url(#filter30_i_204_41136)">
<path d="M337.188 74.3661C342.451 69.9576 349.163 69.3029 352.179 72.9039C355.196 76.5049 353.374 82.9979 348.111 87.4064C342.849 91.8149 336.137 92.4695 333.12 88.8685C330.104 85.2675 331.925 78.7746 337.188 74.3661Z" fill="#E6D8FF"/>
</g>
<path fill-rule="evenodd" clip-rule="evenodd" d="M345.555 70.9202C342.907 71.1784 339.967 72.4168 337.375 74.5885C334.782 76.7601 333.047 79.4373 332.329 81.9985C331.61 84.5613 331.914 86.9765 333.343 88.6822C334.772 90.3879 337.096 91.1106 339.745 90.8523C342.393 90.594 345.333 89.3556 347.925 87.184C350.518 85.0124 352.252 82.3352 352.971 79.774C353.69 77.2111 353.386 74.7959 351.957 73.0902C350.528 71.3845 348.204 70.6618 345.555 70.9202ZM352.179 72.9039C349.163 69.3029 342.451 69.9576 337.188 74.3661C331.925 78.7746 330.104 85.2675 333.12 88.8685C336.137 92.4695 342.849 91.8149 348.111 87.4064C353.374 82.9979 355.196 76.5049 352.179 72.9039Z" fill="white"/>
<g filter="url(#filter31_di_204_41136)">
<path d="M337.497 74.958C342.281 70.951 348.373 70.3461 351.104 73.6069C353.835 76.8677 352.172 82.7593 347.388 86.7663C342.604 90.7732 336.512 91.3781 333.781 88.1174C331.05 84.8566 332.713 78.9649 337.497 74.958Z" fill="#E6D8FF"/>
</g>
<g filter="url(#filter32_d_204_41136)">
<path fill-rule="evenodd" clip-rule="evenodd" d="M345.099 71.8457C342.702 72.0838 340.036 73.2094 337.683 75.1804C335.33 77.1514 333.755 79.578 333.1 81.8963C332.445 84.2164 332.717 86.3959 334.003 87.9311C335.289 89.4662 337.387 90.1167 339.786 89.8785C342.183 89.6405 344.849 88.5148 347.202 86.5439C349.555 84.5729 351.13 82.1462 351.785 79.8279C352.44 77.5079 352.167 75.3284 350.882 73.7932C349.596 72.258 347.498 71.6075 345.099 71.8457ZM351.104 73.6069C348.373 70.3461 342.281 70.951 337.497 74.958C332.713 78.9649 331.05 84.8566 333.781 88.1174C336.512 91.3781 342.604 90.7732 347.388 86.7663C352.172 82.7593 353.835 76.8677 351.104 73.6069Z" fill="white"/>
</g>
<defs>
<filter id="filter0_d_204_41136" x="82.7734" y="123.018" width="339.273" height="252.055" filterUnits="userSpaceOnUse" color-interpolation-filters="sRGB">
<feFlood flood-opacity="0" result="BackgroundImageFix"/>
<feColorMatrix in="SourceAlpha" type="matrix" values="0 0 0 0 0 0 0 0 0 0 0 0 0 0 0 0 0 0 127 0" result="hardAlpha"/>
<feOffset dy="18"/>
<feGaussianBlur stdDeviation="10"/>
<feComposite in2="hardAlpha" operator="out"/>
<feColorMatrix type="matrix" values="0 0 0 0 0 0 0 0 0 0.10317 0 0 0 0 0.479167 0 0 0 0.2 0"/>
<feBlend mode="normal" in2="BackgroundImageFix" result="effect1_dropShadow_204_41136"/>
<feBlend mode="normal" in="SourceGraphic" in2="effect1_dropShadow_204_41136" result="shape"/>
</filter>
<filter id="filter1_d_204_41136" x="88.7734" y="125.018" width="327.273" height="240.055" filterUnits="userSpaceOnUse" color-interpolation-filters="sRGB">
<feFlood flood-opacity="0" result="BackgroundImageFix"/>
<feColorMatrix in="SourceAlpha" type="matrix" values="0 0 0 0 0 0 0 0 0 0 0 0 0 0 0 0 0 0 127 0" result="hardAlpha"/>
<feOffset dy="14"/>
<feGaussianBlur stdDeviation="7"/>
<feComposite in2="hardAlpha" operator="out"/>
<feColorMatrix type="matrix" values="0 0 0 0 0.180392 0 0 0 0 0.356863 0 0 0 0 1 0 0 0 0.2 0"/>
<feBlend mode="normal" in2="BackgroundImageFix" result="effect1_dropShadow_204_41136"/>
<feBlend mode="normal" in="SourceGraphic" in2="effect1_dropShadow_204_41136" result="shape"/>
</filter>
<filter id="filter2_d_204_41136" x="117.992" y="114.85" width="287.5" height="222.217" filterUnits="userSpaceOnUse" color-interpolation-filters="sRGB">
<feFlood flood-opacity="0" result="BackgroundImageFix"/>
<feColorMatrix in="SourceAlpha" type="matrix" values="0 0 0 0 0 0 0 0 0 0 0 0 0 0 0 0 0 0 127 0" result="hardAlpha"/>
<feOffset dy="-7"/>
<feGaussianBlur stdDeviation="2"/>
<feComposite in2="hardAlpha" operator="out"/>
<feColorMatrix type="matrix" values="0 0 0 0 0.180392 0 0 0 0 0.356863 0 0 0 0 1 0 0 0 0.2 0"/>
<feBlend mode="normal" in2="BackgroundImageFix" result="effect1_dropShadow_204_41136"/>
<feBlend mode="normal" in="SourceGraphic" in2="effect1_dropShadow_204_41136" result="shape"/>
</filter>
<filter id="filter3_d_204_41136" x="147.289" y="116.76" width="267.598" height="238.299" filterUnits="userSpaceOnUse" color-interpolation-filters="sRGB">
<feFlood flood-opacity="0" result="BackgroundImageFix"/>
<feColorMatrix in="SourceAlpha" type="matrix" values="0 0 0 0 0 0 0 0 0 0 0 0 0 0 0 0 0 0 127 0" result="hardAlpha"/>
<feOffset dy="4"/>
<feGaussianBlur stdDeviation="7"/>
<feComposite in2="hardAlpha" operator="out"/>
<feColorMatrix type="matrix" values="0 0 0 0 0.180392 0 0 0 0 0.356863 0 0 0 0 1 0 0 0 0.2 0"/>
<feBlend mode="normal" in2="BackgroundImageFix" result="effect1_dropShadow_204_41136"/>
<feBlend mode="normal" in="SourceGraphic" in2="effect1_dropShadow_204_41136" result="shape"/>
</filter>
<filter id="filter4_d_204_41136" x="88.7734" y="125.191" width="324.922" height="122.342" filterUnits="userSpaceOnUse" color-interpolation-filters="sRGB">
<feFlood flood-opacity="0" result="BackgroundImageFix"/>
<feColorMatrix in="SourceAlpha" type="matrix" values="0 0 0 0 0 0 0 0 0 0 0 0 0 0 0 0 0 0 127 0" result="hardAlpha"/>
<feOffset dy="14"/>
<feGaussianBlur stdDeviation="7"/>
<feComposite in2="hardAlpha" operator="out"/>
<feColorMatrix type="matrix" values="0 0 0 0 0.180392 0 0 0 0 0.356863 0 0 0 0 1 0 0 0 0.2 0"/>
<feBlend mode="normal" in2="BackgroundImageFix" result="effect1_dropShadow_204_41136"/>
<feBlend mode="normal" in="SourceGraphic" in2="effect1_dropShadow_204_41136" result="shape"/>
</filter>
<filter id="filter5_d_204_41136" x="196.121" y="95.9668" width="133.883" height="148.674" filterUnits="userSpaceOnUse" color-interpolation-filters="sRGB">
<feFlood flood-opacity="0" result="BackgroundImageFix"/>
<feColorMatrix in="SourceAlpha" type="matrix" values="0 0 0 0 0 0 0 0 0 0 0 0 0 0 0 0 0 0 127 0" result="hardAlpha"/>
<feOffset dy="6"/>
<feGaussianBlur stdDeviation="2.5"/>
<feComposite in2="hardAlpha" operator="out"/>
<feColorMatrix type="matrix" values="0 0 0 0 0.180392 0 0 0 0 0.356863 0 0 0 0 1 0 0 0 0.32 0"/>
<feBlend mode="normal" in2="BackgroundImageFix" result="effect1_dropShadow_204_41136"/>
<feBlend mode="normal" in="SourceGraphic" in2="effect1_dropShadow_204_41136" result="shape"/>
</filter>
<filter id="filter6_i_204_41136" x="206.422" y="97.9336" width="118.582" height="136.707" filterUnits="userSpaceOnUse" color-interpolation-filters="sRGB">
<feFlood flood-opacity="0" result="BackgroundImageFix"/>
<feBlend mode="normal" in="SourceGraphic" in2="BackgroundImageFix" result="shape"/>
<feColorMatrix in="SourceAlpha" type="matrix" values="0 0 0 0 0 0 0 0 0 0 0 0 0 0 0 0 0 0 127 0" result="hardAlpha"/>
<feOffset dx="-4" dy="1"/>
<feGaussianBlur stdDeviation="1"/>
<feComposite in2="hardAlpha" operator="arithmetic" k2="-1" k3="1"/>
<feColorMatrix type="matrix" values="0 0 0 0 0 0 0 0 0 0 0 0 0 0 0 0 0 0 0.2 0"/>
<feBlend mode="normal" in2="shape" result="effect1_innerShadow_204_41136"/>
</filter>
<filter id="filter7_di_204_41136" x="213.078" y="101.918" width="109.754" height="127.273" filterUnits="userSpaceOnUse" color-interpolation-filters="sRGB">
<feFlood flood-opacity="0" result="BackgroundImageFix"/>
<feColorMatrix in="SourceAlpha" type="matrix" values="0 0 0 0 0 0 0 0 0 0 0 0 0 0 0 0 0 0 127 0" result="hardAlpha"/>
<feOffset/>
<feGaussianBlur stdDeviation="1"/>
<feComposite in2="hardAlpha" operator="out"/>
<feColorMatrix type="matrix" values="0 0 0 0 0.0117647 0 0 0 0 0.392157 0 0 0 0 1 0 0 0 0.6 0"/>
<feBlend mode="normal" in2="BackgroundImageFix" result="effect1_dropShadow_204_41136"/>
<feBlend mode="normal" in="SourceGraphic" in2="effect1_dropShadow_204_41136" result="shape"/>
<feColorMatrix in="SourceAlpha" type="matrix" values="0 0 0 0 0 0 0 0 0 0 0 0 0 0 0 0 0 0 127 0" result="hardAlpha"/>
<feOffset dx="-2"/>
<feGaussianBlur stdDeviation="0.5"/>
<feComposite in2="hardAlpha" operator="arithmetic" k2="-1" k3="1"/>
<feColorMatrix type="matrix" values="0 0 0 0 0.180392 0 0 0 0 0.356863 0 0 0 0 1 0 0 0 0.2 0"/>
<feBlend mode="normal" in2="shape" result="effect2_innerShadow_204_41136"/>
</filter>
<filter id="filter8_d_204_41136" x="210.078" y="101.918" width="111.754" height="129.273" filterUnits="userSpaceOnUse" color-interpolation-filters="sRGB">
<feFlood flood-opacity="0" result="BackgroundImageFix"/>
<feColorMatrix in="SourceAlpha" type="matrix" values="0 0 0 0 0 0 0 0 0 0 0 0 0 0 0 0 0 0 127 0" result="hardAlpha"/>
<feOffset dx="-2" dy="1"/>
<feGaussianBlur stdDeviation="1.5"/>
<feComposite in2="hardAlpha" operator="out"/>
<feColorMatrix type="matrix" values="0 0 0 0 0 0 0 0 0 0 0 0 0 0 0 0 0 0 0.4 0"/>
<feBlend mode="normal" in2="BackgroundImageFix" result="effect1_dropShadow_204_41136"/>
<feBlend mode="normal" in="SourceGraphic" in2="effect1_dropShadow_204_41136" result="shape"/>
</filter>
<filter id="filter9_d_204_41136" x="217.484" y="107.871" width="100.465" height="117.951" filterUnits="userSpaceOnUse" color-interpolation-filters="sRGB">
<feFlood flood-opacity="0" result="BackgroundImageFix"/>
<feColorMatrix in="SourceAlpha" type="matrix" values="0 0 0 0 0 0 0 0 0 0 0 0 0 0 0 0 0 0 127 0" result="hardAlpha"/>
<feOffset dx="-2" dy="1"/>
<feGaussianBlur stdDeviation="1.5"/>
<feComposite in2="hardAlpha" operator="out"/>
<feColorMatrix type="matrix" values="0 0 0 0 0 0 0 0 0 0 0 0 0 0 0 0 0 0 0.2 0"/>
<feBlend mode="normal" in2="BackgroundImageFix" result="effect1_dropShadow_204_41136"/>
<feBlend mode="normal" in="SourceGraphic" in2="effect1_dropShadow_204_41136" result="shape"/>
</filter>
<filter id="filter10_d_204_41136" x="224.277" y="105.645" width="88.9805" height="113.184" filterUnits="userSpaceOnUse" color-interpolation-filters="sRGB">
<feFlood flood-opacity="0" result="BackgroundImageFix"/>
<feColorMatrix in="SourceAlpha" type="matrix" values="0 0 0 0 0 0 0 0 0 0 0 0 0 0 0 0 0 0 127 0" result="hardAlpha"/>
<feOffset dx="-2" dy="1"/>
<feGaussianBlur stdDeviation="1.5"/>
<feComposite in2="hardAlpha" operator="out"/>
<feColorMatrix type="matrix" values="0 0 0 0 0 0 0 0 0 0 0 0 0 0 0 0 0 0 0.2 0"/>
<feBlend mode="normal" in2="BackgroundImageFix" result="effect1_dropShadow_204_41136"/>
<feBlend mode="normal" in="SourceGraphic" in2="effect1_dropShadow_204_41136" result="shape"/>
</filter>
<filter id="filter11_d_204_41136" x="252.645" y="144.598" width="34.3086" height="37.9102" filterUnits="userSpaceOnUse" color-interpolation-filters="sRGB">
<feFlood flood-opacity="0" result="BackgroundImageFix"/>
<feColorMatrix in="SourceAlpha" type="matrix" values="0 0 0 0 0 0 0 0 0 0 0 0 0 0 0 0 0 0 127 0" result="hardAlpha"/>
<feOffset dx="-2" dy="1"/>
<feGaussianBlur stdDeviation="1.5"/>
<feComposite in2="hardAlpha" operator="out"/>
<feColorMatrix type="matrix" values="0 0 0 0 0 0 0 0 0 0 0 0 0 0 0 0 0 0 0.2 0"/>
<feBlend mode="normal" in2="BackgroundImageFix" result="effect1_dropShadow_204_41136"/>
<feBlend mode="normal" in="SourceGraphic" in2="effect1_dropShadow_204_41136" result="shape"/>
</filter>
<filter id="filter12_f_204_41136" x="117.906" y="119.479" width="314.922" height="204.668" filterUnits="userSpaceOnUse" color-interpolation-filters="sRGB">
<feFlood flood-opacity="0" result="BackgroundImageFix"/>
<feBlend mode="normal" in="SourceGraphic" in2="BackgroundImageFix" result="shape"/>
<feGaussianBlur stdDeviation="2.5" result="effect1_foregroundBlur_204_41136"/>
</filter>
<filter id="filter13_i_204_41136" x="141.641" y="54.5547" width="36.4023" height="27.8125" filterUnits="userSpaceOnUse" color-interpolation-filters="sRGB">
<feFlood flood-opacity="0" result="BackgroundImageFix"/>
<feBlend mode="normal" in="SourceGraphic" in2="BackgroundImageFix" result="shape"/>
<feColorMatrix in="SourceAlpha" type="matrix" values="0 0 0 0 0 0 0 0 0 0 0 0 0 0 0 0 0 0 127 0" result="hardAlpha"/>
<feOffset dx="-3"/>
<feGaussianBlur stdDeviation="1"/>
<feComposite in2="hardAlpha" operator="arithmetic" k2="-1" k3="1"/>
<feColorMatrix type="matrix" values="0 0 0 0 0.180392 0 0 0 0 0.356863 0 0 0 0 1 0 0 0 0.2 0"/>
<feBlend mode="normal" in2="shape" result="effect1_innerShadow_204_41136"/>
</filter>
<filter id="filter14_di_204_41136" x="143.508" y="53.9531" width="35.2539" height="29.2188" filterUnits="userSpaceOnUse" color-interpolation-filters="sRGB">
<feFlood flood-opacity="0" result="BackgroundImageFix"/>
<feColorMatrix in="SourceAlpha" type="matrix" values="0 0 0 0 0 0 0 0 0 0 0 0 0 0 0 0 0 0 127 0" result="hardAlpha"/>
<feOffset/>
<feGaussianBlur stdDeviation="1"/>
<feComposite in2="hardAlpha" operator="out"/>
<feColorMatrix type="matrix" values="0 0 0 0 0.0117647 0 0 0 0 0.392157 0 0 0 0 1 0 0 0 0.6 0"/>
<feBlend mode="normal" in2="BackgroundImageFix" result="effect1_dropShadow_204_41136"/>
<feBlend mode="normal" in="SourceGraphic" in2="effect1_dropShadow_204_41136" result="shape"/>
<feColorMatrix in="SourceAlpha" type="matrix" values="0 0 0 0 0 0 0 0 0 0 0 0 0 0 0 0 0 0 127 0" result="hardAlpha"/>
<feOffset dx="-2"/>
<feGaussianBlur stdDeviation="0.5"/>
<feComposite in2="hardAlpha" operator="arithmetic" k2="-1" k3="1"/>
<feColorMatrix type="matrix" values="0 0 0 0 0.180392 0 0 0 0 0.356863 0 0 0 0 1 0 0 0 0.2 0"/>
<feBlend mode="normal" in2="shape" result="effect2_innerShadow_204_41136"/>
</filter>
<filter id="filter15_d_204_41136" x="143.508" y="53.9531" width="35.2539" height="29.2188" filterUnits="userSpaceOnUse" color-interpolation-filters="sRGB">
<feFlood flood-opacity="0" result="BackgroundImageFix"/>
<feColorMatrix in="SourceAlpha" type="matrix" values="0 0 0 0 0 0 0 0 0 0 0 0 0 0 0 0 0 0 127 0" result="hardAlpha"/>
<feOffset/>
<feGaussianBlur stdDeviation="1"/>
<feComposite in2="hardAlpha" operator="out"/>
<feColorMatrix type="matrix" values="0 0 0 0 0.0117647 0 0 0 0 0.392157 0 0 0 0 1 0 0 0 0.6 0"/>
<feBlend mode="normal" in2="BackgroundImageFix" result="effect1_dropShadow_204_41136"/>
<feBlend mode="normal" in="SourceGraphic" in2="effect1_dropShadow_204_41136" result="shape"/>
</filter>
<filter id="filter16_i_204_41136" x="384.203" y="304.789" width="18.6562" height="13.8652" filterUnits="userSpaceOnUse" color-interpolation-filters="sRGB">
<feFlood flood-opacity="0" result="BackgroundImageFix"/>
<feBlend mode="normal" in="SourceGraphic" in2="BackgroundImageFix" result="shape"/>
<feColorMatrix in="SourceAlpha" type="matrix" values="0 0 0 0 0 0 0 0 0 0 0 0 0 0 0 0 0 0 127 0" result="hardAlpha"/>
<feOffset dx="-3"/>
<feGaussianBlur stdDeviation="1"/>
<feComposite in2="hardAlpha" operator="arithmetic" k2="-1" k3="1"/>
<feColorMatrix type="matrix" values="0 0 0 0 0.180392 0 0 0 0 0.356863 0 0 0 0 1 0 0 0 0.2 0"/>
<feBlend mode="normal" in2="shape" result="effect1_innerShadow_204_41136"/>
</filter>
<filter id="filter17_di_204_41136" x="385.008" y="303.584" width="19.1289" height="16.5742" filterUnits="userSpaceOnUse" color-interpolation-filters="sRGB">
<feFlood flood-opacity="0" result="BackgroundImageFix"/>
<feColorMatrix in="SourceAlpha" type="matrix" values="0 0 0 0 0 0 0 0 0 0 0 0 0 0 0 0 0 0 127 0" result="hardAlpha"/>
<feOffset/>
<feGaussianBlur stdDeviation="1"/>
<feComposite in2="hardAlpha" operator="out"/>
<feColorMatrix type="matrix" values="0 0 0 0 0.0117647 0 0 0 0 0.392157 0 0 0 0 1 0 0 0 0.6 0"/>
<feBlend mode="normal" in2="BackgroundImageFix" result="effect1_dropShadow_204_41136"/>
<feBlend mode="normal" in="SourceGraphic" in2="effect1_dropShadow_204_41136" result="shape"/>
<feColorMatrix in="SourceAlpha" type="matrix" values="0 0 0 0 0 0 0 0 0 0 0 0 0 0 0 0 0 0 127 0" result="hardAlpha"/>
<feOffset dx="-2"/>
<feGaussianBlur stdDeviation="0.5"/>
<feComposite in2="hardAlpha" operator="arithmetic" k2="-1" k3="1"/>
<feColorMatrix type="matrix" values="0 0 0 0 0.180392 0 0 0 0 0.356863 0 0 0 0 1 0 0 0 0.2 0"/>
<feBlend mode="normal" in2="shape" result="effect2_innerShadow_204_41136"/>
</filter>
<filter id="filter18_d_204_41136" x="385.008" y="303.584" width="19.1289" height="16.5742" filterUnits="userSpaceOnUse" color-interpolation-filters="sRGB">
<feFlood flood-opacity="0" result="BackgroundImageFix"/>
<feColorMatrix in="SourceAlpha" type="matrix" values="0 0 0 0 0 0 0 0 0 0 0 0 0 0 0 0 0 0 127 0" result="hardAlpha"/>
<feOffset/>
<feGaussianBlur stdDeviation="1"/>
<feComposite in2="hardAlpha" operator="out"/>
<feColorMatrix type="matrix" values="0 0 0 0 0.0117647 0 0 0 0 0.392157 0 0 0 0 1 0 0 0 0.6 0"/>
<feBlend mode="normal" in2="BackgroundImageFix" result="effect1_dropShadow_204_41136"/>
<feBlend mode="normal" in="SourceGraphic" in2="effect1_dropShadow_204_41136" result="shape"/>
</filter>
<filter id="filter19_i_204_41136" x="205.93" y="358.715" width="46.5273" height="33.0762" filterUnits="userSpaceOnUse" color-interpolation-filters="sRGB">
<feFlood flood-opacity="0" result="BackgroundImageFix"/>
<feBlend mode="normal" in="SourceGraphic" in2="BackgroundImageFix" result="shape"/>
<feColorMatrix in="SourceAlpha" type="matrix" values="0 0 0 0 0 0 0 0 0 0 0 0 0 0 0 0 0 0 127 0" result="hardAlpha"/>
<feOffset dx="-3"/>
<feGaussianBlur stdDeviation="1"/>
<feComposite in2="hardAlpha" operator="arithmetic" k2="-1" k3="1"/>
<feColorMatrix type="matrix" values="0 0 0 0 0.773333 0 0 0 0 0.716667 0 0 0 0 1 0 0 0 0.2 0"/>
<feBlend mode="normal" in2="shape" result="effect1_innerShadow_204_41136"/>
</filter>
<filter id="filter20_di_204_41136" x="207.805" y="357.912" width="44.4609" height="33.9727" filterUnits="userSpaceOnUse" color-interpolation-filters="sRGB">
<feFlood flood-opacity="0" result="BackgroundImageFix"/>
<feColorMatrix in="SourceAlpha" type="matrix" values="0 0 0 0 0 0 0 0 0 0 0 0 0 0 0 0 0 0 127 0" result="hardAlpha"/>
<feOffset/>
<feGaussianBlur stdDeviation="1"/>
<feComposite in2="hardAlpha" operator="out"/>
<feColorMatrix type="matrix" values="0 0 0 0 0.560313 0 0 0 0 0.5709 0 0 0 0 0.825 0 0 0 0.6 0"/>
<feBlend mode="normal" in2="BackgroundImageFix" result="effect1_dropShadow_204_41136"/>
<feBlend mode="normal" in="SourceGraphic" in2="effect1_dropShadow_204_41136" result="shape"/>
<feColorMatrix in="SourceAlpha" type="matrix" values="0 0 0 0 0 0 0 0 0 0 0 0 0 0 0 0 0 0 127 0" result="hardAlpha"/>
<feOffset dx="-2"/>
<feGaussianBlur stdDeviation="0.5"/>
<feComposite in2="hardAlpha" operator="arithmetic" k2="-1" k3="1"/>
<feColorMatrix type="matrix" values="0 0 0 0 0.713014 0 0 0 0 0.679861 0 0 0 0 0.916667 0 0 0 0.2 0"/>
<feBlend mode="normal" in2="shape" result="effect2_innerShadow_204_41136"/>
</filter>
<filter id="filter21_d_204_41136" x="207.805" y="358.912" width="44.4609" height="33.9727" filterUnits="userSpaceOnUse" color-interpolation-filters="sRGB">
<feFlood flood-opacity="0" result="BackgroundImageFix"/>
<feColorMatrix in="SourceAlpha" type="matrix" values="0 0 0 0 0 0 0 0 0 0 0 0 0 0 0 0 0 0 127 0" result="hardAlpha"/>
<feOffset dy="1"/>
<feGaussianBlur stdDeviation="1"/>
<feComposite in2="hardAlpha" operator="out"/>
<feColorMatrix type="matrix" values="0 0 0 0 0.7705 0 0 0 0 0.7475 0 0 0 0 0.8625 0 0 0 0.6 0"/>
<feBlend mode="normal" in2="BackgroundImageFix" result="effect1_dropShadow_204_41136"/>
<feBlend mode="normal" in="SourceGraphic" in2="effect1_dropShadow_204_41136" result="shape"/>
</filter>
<filter id="filter22_d_204_41136" x="215.918" y="367.428" width="30.4414" height="15.5742" filterUnits="userSpaceOnUse" color-interpolation-filters="sRGB">
<feFlood flood-opacity="0" result="BackgroundImageFix"/>
<feColorMatrix in="SourceAlpha" type="matrix" values="0 0 0 0 0 0 0 0 0 0 0 0 0 0 0 0 0 0 127 0" result="hardAlpha"/>
<feOffset dy="2"/>
<feGaussianBlur stdDeviation="0.5"/>
<feComposite in2="hardAlpha" operator="out"/>
<feColorMatrix type="matrix" values="0 0 0 0 0.0117647 0 0 0 0 0.392157 0 0 0 0 1 0 0 0 0.17 0"/>
<feBlend mode="normal" in2="BackgroundImageFix" result="effect1_dropShadow_204_41136"/>
<feBlend mode="normal" in="SourceGraphic" in2="effect1_dropShadow_204_41136" result="shape"/>
</filter>
<filter id="filter23_i_204_41136" x="38.7969" y="148.035" width="20.9805" height="27.3164" filterUnits="userSpaceOnUse" color-interpolation-filters="sRGB">
<feFlood flood-opacity="0" result="BackgroundImageFix"/>
<feBlend mode="normal" in="SourceGraphic" in2="BackgroundImageFix" result="shape"/>
<feColorMatrix in="SourceAlpha" type="matrix" values="0 0 0 0 0 0 0 0 0 0 0 0 0 0 0 0 0 0 127 0" result="hardAlpha"/>
<feOffset dx="-3"/>
<feGaussianBlur stdDeviation="1"/>
<feComposite in2="hardAlpha" operator="arithmetic" k2="-1" k3="1"/>
<feColorMatrix type="matrix" values="0 0 0 0 0.773333 0 0 0 0 0.716667 0 0 0 0 1 0 0 0 0.2 0"/>
<feBlend mode="normal" in2="shape" result="effect1_innerShadow_204_41136"/>
</filter>
<filter id="filter24_di_204_41136" x="39.5039" y="147.42" width="21.1875" height="28.8281" filterUnits="userSpaceOnUse" color-interpolation-filters="sRGB">
<feFlood flood-opacity="0" result="BackgroundImageFix"/>
<feColorMatrix in="SourceAlpha" type="matrix" values="0 0 0 0 0 0 0 0 0 0 0 0 0 0 0 0 0 0 127 0" result="hardAlpha"/>
<feOffset/>
<feGaussianBlur stdDeviation="1"/>
<feComposite in2="hardAlpha" operator="out"/>
<feColorMatrix type="matrix" values="0 0 0 0 0.560313 0 0 0 0 0.5709 0 0 0 0 0.825 0 0 0 0.6 0"/>
<feBlend mode="normal" in2="BackgroundImageFix" result="effect1_dropShadow_204_41136"/>
<feBlend mode="normal" in="SourceGraphic" in2="effect1_dropShadow_204_41136" result="shape"/>
<feColorMatrix in="SourceAlpha" type="matrix" values="0 0 0 0 0 0 0 0 0 0 0 0 0 0 0 0 0 0 127 0" result="hardAlpha"/>
<feOffset dx="-2"/>
<feGaussianBlur stdDeviation="0.5"/>
<feComposite in2="hardAlpha" operator="arithmetic" k2="-1" k3="1"/>
<feColorMatrix type="matrix" values="0 0 0 0 0.713014 0 0 0 0 0.679861 0 0 0 0 0.916667 0 0 0 0.2 0"/>
<feBlend mode="normal" in2="shape" result="effect2_innerShadow_204_41136"/>
</filter>
<filter id="filter25_d_204_41136" x="39.5039" y="148.42" width="21.1875" height="28.8281" filterUnits="userSpaceOnUse" color-interpolation-filters="sRGB">
<feFlood flood-opacity="0" result="BackgroundImageFix"/>
<feColorMatrix in="SourceAlpha" type="matrix" values="0 0 0 0 0 0 0 0 0 0 0 0 0 0 0 0 0 0 127 0" result="hardAlpha"/>
<feOffset dy="1"/>
<feGaussianBlur stdDeviation="1"/>
<feComposite in2="hardAlpha" operator="out"/>
<feColorMatrix type="matrix" values="0 0 0 0 0.7705 0 0 0 0 0.7475 0 0 0 0 0.8625 0 0 0 0.6 0"/>
<feBlend mode="normal" in2="BackgroundImageFix" result="effect1_dropShadow_204_41136"/>
<feBlend mode="normal" in="SourceGraphic" in2="effect1_dropShadow_204_41136" result="shape"/>
</filter>
<filter id="filter26_i_204_41136" x="13.7344" y="303.518" width="59.3945" height="58.1094" filterUnits="userSpaceOnUse" color-interpolation-filters="sRGB">
<feFlood flood-opacity="0" result="BackgroundImageFix"/>
<feBlend mode="normal" in="SourceGraphic" in2="BackgroundImageFix" result="shape"/>
<feColorMatrix in="SourceAlpha" type="matrix" values="0 0 0 0 0 0 0 0 0 0 0 0 0 0 0 0 0 0 127 0" result="hardAlpha"/>
<feOffset dx="-3"/>
<feGaussianBlur stdDeviation="1"/>
<feComposite in2="hardAlpha" operator="arithmetic" k2="-1" k3="1"/>
<feColorMatrix type="matrix" values="0 0 0 0 0.180392 0 0 0 0 0.356863 0 0 0 0 1 0 0 0 0.2 0"/>
<feBlend mode="normal" in2="shape" result="effect1_innerShadow_204_41136"/>
</filter>
<filter id="filter27_di_204_41136" x="15.8008" y="305.182" width="56.0977" height="56.7578" filterUnits="userSpaceOnUse" color-interpolation-filters="sRGB">
<feFlood flood-opacity="0" result="BackgroundImageFix"/>
<feColorMatrix in="SourceAlpha" type="matrix" values="0 0 0 0 0 0 0 0 0 0 0 0 0 0 0 0 0 0 127 0" result="hardAlpha"/>
<feOffset dy="1"/>
<feGaussianBlur stdDeviation="1"/>
<feComposite in2="hardAlpha" operator="out"/>
<feColorMatrix type="matrix" values="0 0 0 0 0.509804 0 0 0 0 0.278431 0 0 0 0 0.898039 0 0 0 0.2 0"/>
<feBlend mode="normal" in2="BackgroundImageFix" result="effect1_dropShadow_204_41136"/>
<feBlend mode="normal" in="SourceGraphic" in2="effect1_dropShadow_204_41136" result="shape"/>
<feColorMatrix in="SourceAlpha" type="matrix" values="0 0 0 0 0 0 0 0 0 0 0 0 0 0 0 0 0 0 127 0" result="hardAlpha"/>
<feOffset dx="-2"/>
<feGaussianBlur stdDeviation="0.5"/>
<feComposite in2="hardAlpha" operator="arithmetic" k2="-1" k3="1"/>
<feColorMatrix type="matrix" values="0 0 0 0 0.180392 0 0 0 0 0.356863 0 0 0 0 1 0 0 0 0.2 0"/>
<feBlend mode="normal" in2="shape" result="effect2_innerShadow_204_41136"/>
</filter>
<filter id="filter28_d_204_41136" x="15.8008" y="305.182" width="56.0977" height="56.7578" filterUnits="userSpaceOnUse" color-interpolation-filters="sRGB">
<feFlood flood-opacity="0" result="BackgroundImageFix"/>
<feColorMatrix in="SourceAlpha" type="matrix" values="0 0 0 0 0 0 0 0 0 0 0 0 0 0 0 0 0 0 127 0" result="hardAlpha"/>
<feOffset dy="1"/>
<feGaussianBlur stdDeviation="1"/>
<feComposite in2="hardAlpha" operator="out"/>
<feColorMatrix type="matrix" values="0 0 0 0 0.509804 0 0 0 0 0.278431 0 0 0 0 0.898039 0 0 0 0.2 0"/>
<feBlend mode="normal" in2="BackgroundImageFix" result="effect1_dropShadow_204_41136"/>
<feBlend mode="normal" in="SourceGraphic" in2="effect1_dropShadow_204_41136" result="shape"/>
</filter>
<filter id="filter29_d_204_41136" x="23.9609" y="313.604" width="34.8672" height="35.4121" filterUnits="userSpaceOnUse" color-interpolation-filters="sRGB">
<feFlood flood-opacity="0" result="BackgroundImageFix"/>
<feColorMatrix in="SourceAlpha" type="matrix" values="0 0 0 0 0 0 0 0 0 0 0 0 0 0 0 0 0 0 127 0" result="hardAlpha"/>
<feOffset dx="-1"/>
<feGaussianBlur stdDeviation="1"/>
<feComposite in2="hardAlpha" operator="out"/>
<feColorMatrix type="matrix" values="0 0 0 0 0.509804 0 0 0 0 0.278431 0 0 0 0 0.898039 0 0 0 0.2 0"/>
<feBlend mode="normal" in2="BackgroundImageFix" result="effect1_dropShadow_204_41136"/>
<feBlend mode="normal" in="SourceGraphic" in2="effect1_dropShadow_204_41136" result="shape"/>
</filter>
<filter id="filter30_i_204_41136" x="331.664" y="70.5801" width="22.4727" height="20.6133" filterUnits="userSpaceOnUse" color-interpolation-filters="sRGB">
<feFlood flood-opacity="0" result="BackgroundImageFix"/>
<feBlend mode="normal" in="SourceGraphic" in2="BackgroundImageFix" result="shape"/>
<feColorMatrix in="SourceAlpha" type="matrix" values="0 0 0 0 0 0 0 0 0 0 0 0 0 0 0 0 0 0 127 0" result="hardAlpha"/>
<feOffset dx="1"/>
<feGaussianBlur stdDeviation="0.25"/>
<feComposite in2="hardAlpha" operator="arithmetic" k2="-1" k3="1"/>
<feColorMatrix type="matrix" values="0 0 0 0 0.866453 0 0 0 0 0.791667 0 0 0 0 1 0 0 0 1 0"/>
<feBlend mode="normal" in2="shape" result="effect1_innerShadow_204_41136"/>
</filter>
<filter id="filter31_di_204_41136" x="331.969" y="71.5078" width="20.9492" height="20.209" filterUnits="userSpaceOnUse" color-interpolation-filters="sRGB">
<feFlood flood-opacity="0" result="BackgroundImageFix"/>
<feColorMatrix in="SourceAlpha" type="matrix" values="0 0 0 0 0 0 0 0 0 0 0 0 0 0 0 0 0 0 127 0" result="hardAlpha"/>
<feOffset dy="1"/>
<feGaussianBlur stdDeviation="0.25"/>
<feComposite in2="hardAlpha" operator="out"/>
<feColorMatrix type="matrix" values="0 0 0 0 0.509804 0 0 0 0 0.278431 0 0 0 0 0.898039 0 0 0 0.1 0"/>
<feBlend mode="normal" in2="BackgroundImageFix" result="effect1_dropShadow_204_41136"/>
<feBlend mode="normal" in="SourceGraphic" in2="effect1_dropShadow_204_41136" result="shape"/>
<feColorMatrix in="SourceAlpha" type="matrix" values="0 0 0 0 0 0 0 0 0 0 0 0 0 0 0 0 0 0 127 0" result="hardAlpha"/>
<feOffset/>
<feGaussianBlur stdDeviation="0.5"/>
<feComposite in2="hardAlpha" operator="arithmetic" k2="-1" k3="1"/>
<feColorMatrix type="matrix" values="0 0 0 0 0.847756 0 0 0 0 0.7625 0 0 0 0 1 0 0 0 1 0"/>
<feBlend mode="normal" in2="shape" result="effect2_innerShadow_204_41136"/>
</filter>
<filter id="filter32_d_204_41136" x="331.469" y="71.0078" width="21.9492" height="20.709" filterUnits="userSpaceOnUse" color-interpolation-filters="sRGB">
<feFlood flood-opacity="0" result="BackgroundImageFix"/>
<feColorMatrix in="SourceAlpha" type="matrix" values="0 0 0 0 0 0 0 0 0 0 0 0 0 0 0 0 0 0 127 0" result="hardAlpha"/>
<feOffset dy="0.5"/>
<feGaussianBlur stdDeviation="0.5"/>
<feComposite in2="hardAlpha" operator="out"/>
<feColorMatrix type="matrix" values="0 0 0 0 0.509804 0 0 0 0 0.278431 0 0 0 0 0.898039 0 0 0 0.2 0"/>
<feBlend mode="normal" in2="BackgroundImageFix" result="effect1_dropShadow_204_41136"/>
<feBlend mode="normal" in="SourceGraphic" in2="effect1_dropShadow_204_41136" result="shape"/>
</filter>
<linearGradient id="paint0_linear_204_41136" x1="333.951" y1="90.074" x2="353.127" y2="74.0107" gradientUnits="userSpaceOnUse">
<stop stop-color="#BC96FF"/>
<stop offset="0.09375" stop-color="#D1B7FF" stop-opacity="0.851103"/>
<stop offset="0.817708" stop-color="#D0B8FD"/>
<stop offset="0.880208" stop-color="#CEB3FF" stop-opacity="0.514755"/>
<stop offset="1" stop-color="#B4ADF7"/>
</linearGradient>
</defs>
</svg>
