<svg width="421" height="447" viewBox="0 0 421 447" fill="none" xmlns="http://www.w3.org/2000/svg">
<path d="M23.43 257.095C23.43 152.213 108.713 67.1895 213.914 67.1895C319.116 67.1895 404.398 152.213 404.398 257.095C404.398 361.977 319.116 447 213.914 447C108.713 447 23.43 361.977 23.43 257.095Z" fill="#233876"/>
<path d="M83.6443 238.569C83.6443 150.954 151.819 79.9283 235.916 79.9283C320.013 79.9283 388.188 150.954 388.188 238.569C388.188 326.183 320.013 397.209 235.916 397.209C151.819 397.209 83.6443 326.183 83.6443 238.569Z" fill="#1E429F"/>
<path d="M120.699 228.146C120.699 157.159 175.912 99.6128 244.021 99.6128C312.13 99.6128 367.344 157.159 367.344 228.146C367.344 299.133 312.13 356.68 244.021 356.68C175.912 356.68 120.699 299.133 120.699 228.146Z" fill="#3F83F8"/>
<g filter="url(#filter0_d_204_41136)">
<mask id="mask0_204_41136" style="mask-type:alpha" maskUnits="userSpaceOnUse" x="103" y="125" width="302" height="214">
<path d="M104.968 184.93L402.186 125.213C403.694 124.91 404.819 126.579 403.971 127.864L265.661 337.457C265.072 338.349 263.825 338.5 263.041 337.775L216.961 295.15C216.513 294.735 215.879 294.587 215.293 294.761L124.096 321.872C122.894 322.229 121.723 321.229 121.887 319.986L134.915 221.229C134.983 220.71 134.814 220.189 134.454 219.81L104.054 187.819C103.116 186.832 103.633 185.198 104.968 184.93Z" fill="white"/>
</mask>
<g mask="url(#mask0_204_41136)">
<g filter="url(#filter1_d_204_41136)">
<path d="M104.968 184.93L402.186 125.213C403.694 124.91 404.819 126.579 403.971 127.864L265.661 337.457C265.072 338.349 263.825 338.5 263.041 337.775L216.961 295.15C216.513 294.735 215.879 294.587 215.293 294.761L124.096 321.872C122.894 322.229 121.723 321.229 121.887 319.986L134.915 221.229C134.983 220.71 134.814 220.189 134.454 219.81L104.054 187.819C103.116 186.832 103.633 185.198 104.968 184.93Z" fill="white"/>
</g>
<g filter="url(#filter2_d_204_41136)">
<path d="M403.416 128.704L265.664 337.45C265.074 338.345 263.82 338.493 263.037 337.761L162.778 243.996C161.929 243.203 160.556 243.453 160.043 244.495L126.177 313.215C125.311 314.972 122.652 314.165 122.908 312.224L134.882 221.463C134.967 220.818 135.407 220.275 136.02 220.057L401.393 126.119C402.958 125.565 404.33 127.318 403.416 128.704Z" fill="#EBF5FF"/>
</g>
<g filter="url(#filter3_d_204_41136)">
<path d="M402.801 129.623L265.659 337.445C265.069 338.34 263.815 338.488 263.032 337.756L162.916 244.125C162.027 243.294 162.251 241.829 163.347 241.301L400.605 127.11C402.189 126.348 403.768 128.157 402.801 129.623Z" fill="white"/>
</g>
<g filter="url(#filter4_d_204_41136)">
<path d="M104.967 184.937L401.486 125.361C401.907 125.277 402.075 125.884 401.67 126.027L136.081 220.042C135.437 220.27 134.72 220.098 134.249 219.602L104.054 187.826C103.116 186.839 103.632 185.205 104.967 184.937Z" fill="white"/>
</g>
<path d="M402.801 129.623L265.659 337.445C265.069 338.34 263.815 338.488 263.032 337.756L162.916 244.125C162.027 243.294 162.251 241.829 163.347 241.301L400.605 127.11C402.189 126.348 403.768 128.157 402.801 129.623Z" fill="white"/>
</g>
</g>
<mask id="mask1_204_41136" style="mask-type:alpha" maskUnits="userSpaceOnUse" x="103" y="-4" width="303" height="326">
<path d="M161.094 242.402L405.938 124.637L391.334 64.1771L158.641 -3.44727L103.575 186.032L135.041 220.411L123.807 304.646L122.076 321.955L161.094 242.402Z" fill="#D9D9D9"/>
</mask>
<g mask="url(#mask1_204_41136)">
<g filter="url(#filter5_d_204_41136)">
<path d="M306.07 190.402C283.925 224.86 243.996 244.075 220.419 228.923C196.843 213.772 196.543 171.645 218.687 137.187C242.921 99.478 275.807 88.7234 303.477 100.575C327.053 115.727 328.214 155.943 306.07 190.402Z" fill="#1E429F"/>
<path d="M310.994 193.573C288.849 228.032 251.785 243.683 228.208 228.531C204.631 213.38 203.47 173.163 225.615 138.705C247.759 104.247 284.824 88.5952 308.4 103.747C331.977 118.898 333.138 159.115 310.994 193.573Z" fill="#E1EFFE"/>
<g filter="url(#filter6_i_204_41136)">
<path d="M310.994 193.573C288.849 228.032 251.785 243.683 228.208 228.531C204.631 213.38 203.47 173.163 225.615 138.705C247.759 104.247 284.824 88.5952 308.4 103.747C331.977 118.898 333.138 159.115 310.994 193.573Z" fill="#0364FF"/>
</g>
<path fill-rule="evenodd" clip-rule="evenodd" d="M269.465 228.061C284.085 221.888 298.629 209.612 309.538 192.638C320.446 175.663 325.57 157.334 325.112 141.47C324.654 125.596 318.632 112.38 307.465 105.203C296.297 98.026 281.773 98.0389 267.144 104.217C252.523 110.39 237.979 122.667 227.071 139.641C216.163 156.615 211.038 174.944 211.496 190.808C211.954 206.682 217.976 219.898 229.144 227.075C240.311 234.252 254.835 234.239 269.465 228.061ZM228.208 228.531C251.785 243.683 288.849 228.032 310.994 193.573C333.138 159.115 331.977 118.898 308.4 103.747C284.824 88.5952 247.759 104.247 225.615 138.705C203.47 173.163 204.631 213.38 228.208 228.531Z" fill="#E1EFFE"/>
<g filter="url(#filter7_di_204_41136)">
<path d="M308.208 190.749C288.081 222.069 254.457 236.336 233.108 222.616C211.759 208.896 210.768 172.384 230.896 141.065C251.023 109.745 284.647 95.4777 305.996 109.198C327.345 122.918 328.336 159.43 308.208 190.749Z" fill="#0364FF"/>
</g>
<g filter="url(#filter8_d_204_41136)">
<path fill-rule="evenodd" clip-rule="evenodd" d="M270.44 221.979C283.671 216.365 296.852 205.219 306.752 189.813C316.653 174.408 321.315 157.788 320.926 143.42C320.536 129.043 315.112 117.113 305.06 110.654C295.009 104.194 281.904 104.216 268.664 109.835C255.433 115.449 242.252 126.595 232.352 142.001C222.451 157.406 217.789 174.026 218.178 188.393C218.568 202.771 223.992 214.701 234.044 221.16C244.095 227.62 257.2 227.598 270.44 221.979ZM233.108 222.616C254.457 236.336 288.081 222.069 308.208 190.749C328.336 159.43 327.345 122.918 305.996 109.198C284.647 95.4777 251.023 109.745 230.896 141.065C210.768 172.384 211.759 208.896 233.108 222.616Z" fill="#E1EFFE"/>
</g>
<g filter="url(#filter9_d_204_41136)">
<path fill-rule="evenodd" clip-rule="evenodd" d="M301.001 112.685C302.037 113.169 303.048 113.72 304.028 114.339C305.009 114.957 305.941 115.631 306.825 116.358C307.385 116.818 307.465 117.645 307.005 118.205C306.545 118.764 305.718 118.845 305.159 118.385C304.359 117.727 303.516 117.117 302.628 116.558C301.741 115.998 300.827 115.5 299.89 115.062C299.233 114.755 298.95 113.974 299.257 113.318C299.564 112.661 300.344 112.378 301.001 112.685ZM309.723 121.071C310.304 120.637 311.126 120.757 311.559 121.338C312.905 123.142 314.061 125.115 315.028 127.229C315.329 127.888 315.04 128.666 314.381 128.968C313.722 129.269 312.943 128.979 312.642 128.32C311.747 126.364 310.684 124.553 309.456 122.907C309.023 122.326 309.142 121.504 309.723 121.071ZM295.499 112.1C295.359 112.81 294.668 113.272 293.958 113.132C291.943 112.732 289.85 112.554 287.7 112.589C286.975 112.601 286.378 112.023 286.366 111.299C286.354 110.574 286.932 109.977 287.657 109.965C289.98 109.927 292.259 110.12 294.467 110.558C295.178 110.699 295.64 111.389 295.499 112.1ZM282.441 111.729C282.58 112.44 282.116 113.129 281.405 113.268C279.379 113.663 277.324 114.227 275.255 114.955C274.572 115.195 273.823 114.836 273.582 114.153C273.342 113.469 273.701 112.72 274.384 112.48C276.566 111.713 278.744 111.114 280.902 110.693C281.614 110.554 282.303 111.018 282.441 111.729ZM315.683 132.695C316.385 132.514 317.101 132.936 317.282 133.637C317.832 135.766 318.23 137.99 318.477 140.289C318.555 141.01 318.033 141.657 317.313 141.734C316.593 141.812 315.946 141.29 315.868 140.57C315.634 138.389 315.257 136.291 314.741 134.293C314.56 133.592 314.982 132.876 315.683 132.695ZM317.483 145.675C318.208 145.686 318.786 146.282 318.775 147.007C318.742 149.193 318.587 151.427 318.311 153.697C318.224 154.416 317.57 154.928 316.851 154.841C316.132 154.753 315.619 154.099 315.707 153.38C315.972 151.199 316.12 149.056 316.152 146.967C316.163 146.242 316.759 145.664 317.483 145.675ZM269.952 115.697C270.274 116.346 270.009 117.133 269.36 117.455C267.488 118.384 265.619 119.441 263.764 120.62C263.153 121.009 262.342 120.828 261.953 120.217C261.565 119.605 261.745 118.794 262.357 118.406C264.286 117.179 266.235 116.077 268.194 115.105C268.843 114.783 269.63 115.048 269.952 115.697ZM258.726 122.495C259.171 123.067 259.067 123.891 258.495 124.336C256.828 125.63 255.183 127.024 253.571 128.513C253.039 129.004 252.209 128.971 251.717 128.439C251.226 127.907 251.259 127.077 251.791 126.585C253.457 125.047 255.158 123.605 256.885 122.263C257.458 121.819 258.282 121.922 258.726 122.495ZM316.185 158.734C316.893 158.889 317.342 159.588 317.187 160.296C316.721 162.433 316.153 164.589 315.482 166.755C315.268 167.447 314.533 167.835 313.841 167.62C313.149 167.406 312.761 166.671 312.976 165.979C313.625 163.883 314.174 161.799 314.624 159.736C314.778 159.029 315.477 158.58 316.185 158.734ZM248.929 131.231C249.461 131.723 249.494 132.553 249.003 133.085C247.561 134.646 246.156 136.287 244.795 138.003C244.345 138.571 243.52 138.667 242.952 138.216C242.384 137.766 242.289 136.941 242.739 136.373C244.141 134.606 245.588 132.915 247.075 131.305C247.567 130.773 248.397 130.74 248.929 131.231ZM312.522 171.34C313.195 171.608 313.523 172.372 313.254 173.045C312.442 175.08 311.54 177.115 310.549 179.141C310.23 179.792 309.445 180.062 308.794 179.743C308.143 179.425 307.873 178.639 308.192 177.988C309.155 176.02 310.03 174.046 310.817 172.072C311.086 171.399 311.849 171.071 312.522 171.34ZM240.613 141.399C241.211 141.807 241.366 142.623 240.958 143.222C240.354 144.109 239.761 145.012 239.182 145.932C238.602 146.851 238.042 147.775 237.502 148.702C237.137 149.328 236.334 149.54 235.708 149.176C235.082 148.811 234.87 148.008 235.234 147.382C235.79 146.428 236.366 145.478 236.962 144.532C237.559 143.586 238.168 142.657 238.79 141.745C239.198 141.146 240.014 140.991 240.613 141.399ZM306.929 183.225C307.556 183.59 307.768 184.393 307.403 185.019C306.847 185.973 306.271 186.924 305.675 187.869C305.078 188.815 304.469 189.744 303.847 190.657C303.44 191.255 302.623 191.41 302.025 191.002C301.426 190.594 301.271 189.778 301.679 189.179C302.283 188.292 302.876 187.389 303.456 186.47C304.036 185.55 304.596 184.626 305.136 183.699C305.5 183.073 306.303 182.861 306.929 183.225ZM233.843 152.658C234.494 152.977 234.764 153.762 234.445 154.413C233.482 156.381 232.607 158.356 231.82 160.329C231.551 161.002 230.788 161.33 230.115 161.061C229.442 160.793 229.114 160.03 229.383 159.357C230.195 157.322 231.097 155.287 232.088 153.26C232.407 152.609 233.193 152.34 233.843 152.658ZM299.685 194.185C300.253 194.635 300.348 195.46 299.898 196.028C298.497 197.796 297.049 199.486 295.562 201.096C295.071 201.628 294.241 201.661 293.708 201.17C293.176 200.678 293.143 199.848 293.635 199.316C295.076 197.755 296.481 196.115 297.842 194.398C298.292 193.83 299.117 193.735 299.685 194.185ZM228.796 164.781C229.489 164.995 229.876 165.73 229.662 166.422C229.013 168.518 228.463 170.603 228.013 172.665C227.859 173.373 227.16 173.821 226.452 173.667C225.744 173.512 225.295 172.813 225.45 172.105C225.916 169.969 226.485 167.812 227.155 165.646C227.369 164.954 228.104 164.567 228.796 164.781ZM290.92 203.962C291.411 204.495 291.378 205.325 290.846 205.816C289.18 207.355 287.479 208.797 285.752 210.138C285.179 210.583 284.355 210.479 283.911 209.907C283.466 209.334 283.57 208.51 284.142 208.066C285.81 206.771 287.454 205.377 289.066 203.889C289.598 203.397 290.428 203.43 290.92 203.962ZM225.786 177.561C226.506 177.648 227.018 178.302 226.93 179.021C226.665 181.203 226.517 183.345 226.485 185.435C226.474 186.159 225.878 186.737 225.154 186.726C224.429 186.715 223.851 186.119 223.862 185.395C223.895 183.209 224.05 180.974 224.326 178.705C224.413 177.985 225.067 177.473 225.786 177.561ZM280.684 212.185C281.073 212.796 280.892 213.607 280.281 213.996C278.351 215.222 276.402 216.325 274.443 217.296C273.794 217.619 273.007 217.353 272.685 216.704C272.363 216.055 272.628 215.268 273.277 214.946C275.149 214.017 277.018 212.961 278.873 211.781C279.484 211.393 280.295 211.573 280.684 212.185ZM225.324 190.667C226.045 190.59 226.691 191.111 226.769 191.831C227.003 194.012 227.38 196.11 227.896 198.108C228.077 198.809 227.655 199.525 226.954 199.706C226.252 199.887 225.537 199.466 225.355 198.764C224.805 196.635 224.407 194.411 224.16 192.112C224.083 191.392 224.604 190.745 225.324 190.667ZM269.055 218.248C269.295 218.932 268.936 219.681 268.253 219.921C266.071 220.689 263.893 221.288 261.735 221.709C261.024 221.847 260.335 221.383 260.196 220.672C260.057 219.961 260.521 219.272 261.232 219.133C263.258 218.738 265.313 218.174 267.382 217.446C268.066 217.206 268.815 217.565 269.055 218.248ZM228.256 203.434C228.915 203.132 229.694 203.422 229.995 204.081C230.89 206.037 231.953 207.848 233.181 209.495C233.614 210.075 233.495 210.897 232.914 211.331C232.333 211.764 231.511 211.644 231.078 211.064C229.732 209.259 228.576 207.286 227.609 205.173C227.308 204.514 227.597 203.735 228.256 203.434ZM256.271 221.103C256.283 221.827 255.705 222.424 254.981 222.436C252.657 222.474 250.378 222.281 248.17 221.844C247.459 221.703 246.997 221.012 247.138 220.302C247.279 219.591 247.969 219.129 248.68 219.27C250.694 219.669 252.787 219.848 254.938 219.812C255.662 219.8 256.259 220.378 256.271 221.103ZM235.632 214.197C236.092 213.637 236.919 213.556 237.478 214.016C238.278 214.674 239.121 215.284 240.009 215.843C240.896 216.403 241.81 216.901 242.747 217.34C243.404 217.646 243.687 218.427 243.38 219.084C243.074 219.74 242.293 220.023 241.636 219.717C240.6 219.232 239.59 218.681 238.609 218.063C237.628 217.444 236.696 216.77 235.812 216.043C235.253 215.583 235.172 214.756 235.632 214.197Z" fill="#E1EFFE"/>
</g>
<g filter="url(#filter10_d_204_41136)">
<path fill-rule="evenodd" clip-rule="evenodd" d="M302.98 107.811L301.986 120.226C302.211 120.371 302.433 120.52 302.653 120.672L303.75 108.839L304.883 108.942L303.722 121.462C303.879 121.586 304.035 121.711 304.189 121.839L305.402 109.958L306.534 110.071L305.238 122.763C305.318 122.839 305.398 122.914 305.477 122.99L306.795 111.077L307.925 111.199L306.504 124.046C306.551 124.097 306.597 124.148 306.643 124.199C307.139 120.259 307.925 114.009 308.061 112.937L308.132 112.379L309.26 112.519L309.19 113.076C309.041 114.249 308.113 121.623 307.64 125.385C312.729 131.843 314.771 141.134 313.85 151.466C312.92 161.906 308.964 173.464 301.994 184.374C300.622 186.522 299.177 188.575 297.672 190.53C297.532 190.711 297.295 190.791 297.072 190.733C296.849 190.674 296.684 190.488 296.655 190.262L296.28 187.407C295.749 188.117 295.209 188.812 294.661 189.492L295.1 193.433C295.117 193.586 295.07 193.74 294.969 193.857C286.975 203.193 277.584 209.89 268.406 213.157C259.228 216.425 250.212 216.277 243.06 211.824C232.511 205.256 228.783 191.071 231.596 175.241C233.197 166.23 236.92 156.634 242.761 147.492C250.821 134.875 261.413 125.472 272.048 120.484C282.336 115.658 292.742 114.937 300.897 119.567L301.846 107.723L302.98 107.811ZM300.684 120.746C292.912 116.139 282.776 116.695 272.536 121.498C262.124 126.382 251.686 135.626 243.723 148.091C238.098 156.895 234.472 166.11 232.837 174.777H255.966C256.019 174.221 256.088 173.659 256.175 173.092H250.632C250.537 173.092 250.444 173.068 250.36 173.023L245.019 170.146L239.727 169.342C239.565 169.317 239.422 169.225 239.334 169.089C239.246 168.953 239.221 168.787 239.266 168.631C239.904 166.443 240.677 164.235 241.586 162.024C242.137 160.686 242.736 159.348 243.386 158.012C244.608 155.5 246.006 152.998 247.581 150.534C254.629 139.502 263.891 131.278 273.195 126.914C282.201 122.69 291.322 122.054 298.476 126.122L300.684 120.746ZM298.044 127.173C291.303 123.267 282.546 123.771 273.684 127.928C264.602 132.188 255.494 140.253 248.543 151.133C246.992 153.561 245.615 156.025 244.412 158.499C243.772 159.813 243.182 161.131 242.641 162.447C241.831 164.415 241.131 166.38 240.542 168.329L245.29 169.05C245.356 169.06 245.419 169.081 245.476 169.113L250.778 171.969H256.366C256.483 171.347 256.62 170.721 256.777 170.09H251.317C251.138 170.09 250.969 170.006 250.862 169.865L246.613 164.256C246.496 164.102 246.468 163.899 246.538 163.719C247.002 162.523 247.512 161.325 248.068 160.129C249.232 157.626 250.597 155.131 252.164 152.679C258.264 143.13 266.284 136.008 274.344 132.228C282.135 128.573 290.042 128.013 296.253 131.534L298.044 127.173ZM297.234 132.133L299.022 127.78C299.279 127.951 299.531 128.127 299.778 128.309L297.978 132.651C297.735 132.472 297.487 132.3 297.234 132.133ZM295.821 132.585C290.023 129.226 282.48 129.655 274.832 133.242C266.995 136.918 259.129 143.881 253.126 153.278C251.586 155.689 250.245 158.14 249.102 160.598C248.601 161.676 248.138 162.755 247.713 163.832L251.602 168.967H257.075C257.198 168.534 257.329 168.099 257.47 167.664H252.04C251.858 167.664 251.687 167.578 251.58 167.432C251.473 167.287 251.443 167.1 251.499 166.929C252.764 163.077 254.608 159.164 257.028 155.375C262.104 147.43 268.778 141.501 275.492 138.352C281.949 135.323 288.52 134.839 293.705 137.738L295.821 132.585ZM294.686 138.338L296.797 133.197C297.048 133.367 297.292 133.544 297.532 133.726L295.407 138.852C295.172 138.674 294.932 138.503 294.686 138.338ZM293.273 138.788C288.5 136.051 282.293 136.406 275.98 139.367C269.489 142.411 262.969 148.181 257.991 155.974C255.773 159.445 254.053 163.017 252.829 166.54H257.852C258.875 163.676 260.288 160.775 262.09 157.956C266.189 151.539 271.544 146.722 276.915 144.135C282.031 141.67 287.244 141.199 291.364 143.437L293.273 138.788ZM292.345 144.036L294.248 139.404C294.491 139.573 294.728 139.749 294.958 139.933L293.043 144.552C292.818 144.372 292.585 144.2 292.345 144.036ZM293.94 145.353C294.088 145.501 294.233 145.653 294.374 145.808L296.327 141.189C296.175 141.03 296.02 140.874 295.86 140.721L293.94 145.353ZM296.322 139.608C296.486 139.756 296.647 139.907 296.804 140.061L298.963 134.957C298.795 134.795 298.623 134.636 298.448 134.481L296.322 139.608ZM298.904 133.381C299.084 133.533 299.26 133.688 299.433 133.847L301.261 129.524C301.079 129.359 300.893 129.197 300.705 129.039L298.904 133.381ZM301.157 127.948C301.35 128.104 301.539 128.263 301.726 128.425L303.964 123.132C303.768 122.959 303.568 122.789 303.365 122.623L301.157 127.948ZM302.435 121.902L300.222 127.238C299.973 127.059 299.718 126.886 299.458 126.718L301.659 121.36C301.922 121.535 302.181 121.716 302.435 121.902ZM304.849 123.956L302.612 129.244C302.756 129.385 302.897 129.529 303.037 129.674L305.246 124.358C305.115 124.222 304.983 124.089 304.849 123.956ZM306.091 125.284L303.879 130.606C303.98 130.726 304.081 130.847 304.18 130.969L306.393 125.641C306.293 125.521 306.193 125.402 306.091 125.284ZM307.196 126.669L304.976 132.012C308.329 136.696 309.991 142.907 310.004 149.833C310.023 160.002 306.496 171.798 299.448 182.83L299.145 183.305L298.183 182.706L298.486 182.231C305.437 171.351 308.885 159.761 308.866 149.835C308.854 143.364 307.372 137.637 304.458 133.259L302.613 137.701C305.058 141.625 306.27 146.613 306.28 152.113C306.297 160.923 303.242 171.136 297.141 180.685L296.838 181.16L295.876 180.561L296.179 180.086C302.183 170.688 305.159 160.681 305.143 152.115C305.133 147.097 304.099 142.604 302.07 139.009L299.868 144.311C301.393 147.345 302.149 150.994 302.156 154.955C302.17 162.293 299.626 170.794 294.551 178.738C294.326 179.09 294.098 179.438 293.867 179.781L294.589 183.815L296.986 185.472C297.117 185.563 297.204 185.704 297.224 185.86L297.603 188.745C298.789 187.151 299.934 185.494 301.032 183.775C307.916 172.999 311.805 161.611 312.717 151.367C313.593 141.535 311.724 132.808 307.196 126.669ZM293.122 178.856C293.279 178.619 293.434 178.38 293.588 178.139C298.567 170.347 301.032 162.052 301.019 154.957C301.012 151.523 300.427 148.39 299.278 145.731L297.174 150.796C299.407 157.705 297.568 167.532 291.848 176.485C291.636 176.817 291.421 177.145 291.202 177.468L293.122 178.856ZM290.558 178.395C289.891 179.329 289.198 180.224 288.483 181.077L290.795 183.049C290.887 183.127 290.951 183.232 290.978 183.348L291.871 187.185L293.951 188.567C294.601 187.755 295.239 186.921 295.863 186.067L293.743 184.602C293.62 184.517 293.536 184.386 293.509 184.24L292.747 179.977L290.558 178.395ZM293.237 189.446L291.47 188.272C285.493 195.13 278.516 200.058 271.687 202.487C264.732 204.96 257.879 204.853 252.433 201.462C248.771 199.182 246.187 195.689 244.668 191.435C244.236 190.227 243.889 188.956 243.628 187.634C243.592 187.448 243.652 187.256 243.79 187.124L249.72 181.426C249.796 181.354 249.89 181.303 249.992 181.281L255.984 179.949C255.921 179.391 255.879 178.821 255.858 178.241L250.176 178.982L243.868 182.323C243.806 182.356 243.737 182.378 243.666 182.386L238.165 183.03C238.147 184.806 238.24 186.529 238.442 188.187C238.628 189.719 238.908 191.195 239.28 192.604C240.805 198.377 243.88 203.023 248.471 205.882C254.532 209.656 262.311 209.736 270.365 206.697C278.267 203.716 286.377 197.749 293.237 189.446ZM255.843 177.11C255.846 176.71 255.859 176.307 255.882 175.9H232.635C230.014 191.337 233.788 204.723 243.667 210.874C250.436 215.089 259.063 215.29 268.02 212.101C276.916 208.933 286.086 202.435 293.943 193.316L293.652 190.714C286.789 198.852 278.711 204.751 270.771 207.746C262.498 210.867 254.319 210.851 247.864 206.832C242.979 203.79 239.761 198.876 238.179 192.888C237.793 191.426 237.504 189.9 237.312 188.321C237.085 186.456 236.993 184.516 237.035 182.519C237.041 182.239 237.255 182.006 237.536 181.973L243.426 181.283L249.73 177.944C249.79 177.912 249.856 177.891 249.924 177.882L255.843 177.11ZM256.14 181.065L250.399 182.341L244.805 187.716C245.048 188.881 245.36 189.998 245.74 191.062C247.19 195.118 249.629 198.388 253.04 200.512C258.103 203.665 264.567 203.825 271.301 201.43C277.965 199.061 284.843 194.202 290.749 187.378L290.128 184.709C285.216 190.446 279.461 194.607 273.8 196.725C267.854 198.95 261.954 198.935 257.282 196.026C253.535 193.693 251.147 189.849 250.078 185.191C250.009 184.892 250.197 184.593 250.499 184.521L256.588 183.068C256.405 182.422 256.256 181.754 256.14 181.065ZM256.933 184.141L251.318 185.481C252.391 189.668 254.593 193.024 257.889 195.076C262.168 197.74 267.67 197.817 273.397 195.675C278.989 193.583 284.741 189.39 289.633 183.542L287.746 181.933C283.789 186.405 279.221 189.641 274.757 191.265C270.153 192.94 265.603 192.914 261.991 190.665C259.604 189.179 257.925 186.905 256.933 184.141ZM296.586 149.253L298.616 144.365C298.531 144.208 298.443 144.052 298.354 143.899L296.343 148.736C296.427 148.906 296.508 149.078 296.586 149.253ZM295.638 147.475L297.605 142.742C297.46 142.538 297.31 142.339 297.156 142.144L295.184 146.807C295.342 147.024 295.493 147.247 295.638 147.475ZM297.654 140.968C297.81 141.15 297.963 141.335 298.111 141.525L300.258 136.359C300.115 136.185 299.969 136.015 299.819 135.848L297.654 140.968ZM300.304 134.702C300.454 134.861 300.601 135.022 300.746 135.185L302.56 130.821C302.421 130.669 302.279 130.518 302.136 130.37L300.304 134.702ZM303.387 131.79L301.562 136.179C301.661 136.308 301.758 136.438 301.853 136.57L303.682 132.168C303.585 132.041 303.486 131.915 303.387 131.79ZM301.337 137.814C301.244 137.675 301.15 137.538 301.054 137.402L298.889 142.61C298.983 142.753 299.075 142.898 299.164 143.044L301.337 137.814ZM277.414 145.144C272.262 147.626 267.057 152.286 263.052 158.555C261.217 161.427 259.798 164.38 258.795 167.283C258.518 168.085 258.273 168.882 258.059 169.673C257.79 170.67 257.571 171.656 257.403 172.625C257.24 173.561 257.125 174.481 257.056 175.38C256.998 176.134 256.973 176.874 256.981 177.596C256.991 178.532 257.056 179.439 257.175 180.31C257.32 181.364 257.544 182.366 257.847 183.304C258.747 186.089 260.337 188.307 262.598 189.715C265.82 191.722 269.976 191.807 274.363 190.211C278.75 188.616 283.312 185.355 287.253 180.777C288.193 179.685 289.097 178.519 289.955 177.284C290.272 176.828 290.582 176.362 290.886 175.886C296.548 167.023 298.22 157.446 296.029 150.951C295.799 150.269 295.526 149.622 295.212 149.013C294.882 148.372 294.504 147.774 294.082 147.224C293.715 146.747 293.314 146.305 292.878 145.901C292.407 145.464 291.894 145.071 291.34 144.726C287.592 142.392 282.574 142.658 277.414 145.144Z" fill="#E1EFFE"/>
</g>
<g filter="url(#filter11_d_204_41136)">
<path d="M268.394 158.634L268.387 158.644L268.398 158.645L268.391 158.654L268.384 158.664L268.377 158.673L268.369 158.682L268.362 158.692L268.355 158.701L268.348 158.71L268.341 158.72L268.334 158.729L268.327 158.739L268.319 158.748L268.316 158.76L268.309 158.77L268.306 158.782L268.298 158.791L268.295 158.803L268.288 158.813L268.285 158.825L268.277 158.834L268.278 158.85L268.271 158.859L268.271 158.874L268.264 158.883L268.253 158.897L268.243 158.912L268.232 158.926L268.225 158.935L268.228 158.938L268.225 158.95L268.218 158.959L268.222 158.962L268.218 158.975L268.222 158.978L268.222 158.985L268.226 158.988L268.226 158.996L268.23 158.998L268.234 159.001L268.238 159.004L268.242 159.007L268.245 159.01L268.249 159.013L268.253 159.016L270.136 160.726L270.144 160.732L270.147 160.735L270.151 160.738L270.155 160.74L270.159 160.743L270.163 160.746L270.166 160.749L270.174 160.747L270.178 160.75L270.185 160.748L270.189 160.751L270.2 160.745L270.211 160.738L270.214 160.741L270.225 160.735L270.232 160.725L270.24 160.716L270.25 160.702L270.261 160.688L270.272 160.681L270.279 160.672L270.29 160.666L270.297 160.656L270.308 160.65L270.315 160.64L270.326 160.634L270.333 160.625L270.344 160.618L270.351 160.609L270.359 160.599L270.366 160.59L270.373 160.581L270.38 160.571L270.387 160.562L270.394 160.552L270.401 160.543L270.409 160.534L270.416 160.524L270.423 160.515L270.43 160.506L270.437 160.496L270.444 160.487L270.451 160.478L274.039 155.805L274.053 155.787L274.06 155.777L274.067 155.768L274.074 155.758L274.081 155.749L274.089 155.74L274.096 155.73L274.103 155.721L274.11 155.712L274.117 155.702L274.124 155.693L274.131 155.683L274.139 155.674L274.142 155.662L274.149 155.652L274.152 155.64L274.16 155.631L274.163 155.619L274.17 155.609L274.173 155.597L274.181 155.588L274.184 155.575L274.191 155.566L274.191 155.551L274.198 155.541L274.209 155.527L274.219 155.513L274.226 155.504L274.234 155.495L274.23 155.492L274.233 155.48L274.236 155.467L274.233 155.464L274.236 155.452L274.232 155.449L274.232 155.442L274.228 155.439L274.228 155.431L274.224 155.428L274.22 155.425L274.217 155.423L274.213 155.42L274.209 155.417L274.205 155.414L274.201 155.411L272.304 153.719L272.3 153.717L272.296 153.714L272.293 153.711L272.289 153.708L272.285 153.705L272.281 153.702L272.278 153.699L272.27 153.701L272.266 153.698L272.259 153.7L272.255 153.697L272.248 153.699L272.237 153.705L272.233 153.702L272.222 153.709L272.211 153.715L272.204 153.725L272.193 153.739L272.183 153.753L272.172 153.752L272.164 153.761L272.153 153.768L272.146 153.777L272.135 153.783L272.128 153.793L272.117 153.799L272.11 153.809L272.099 153.815L272.092 153.825L272.081 153.831L272.074 153.84L272.067 153.85L272.06 153.859L272.053 153.868L272.045 153.878L272.038 153.887L272.031 153.897L272.024 153.906L272.017 153.915L272.01 153.925L272.003 153.934L271.995 153.943L271.981 153.962L268.408 158.616L268.401 158.625L268.394 158.634Z" fill="#E1EFFE"/>
<path d="M272.153 162.042L272.145 162.051L272.149 162.039L272.142 162.048L272.134 162.057L272.127 162.067L272.12 162.076L272.113 162.085L272.106 162.095L272.099 162.104L272.092 162.114L272.084 162.123L272.077 162.132L272.074 162.145L272.067 162.154L272.063 162.166L272.056 162.176L272.053 162.188L272.046 162.197L272.042 162.209L272.035 162.219L272.032 162.231L272.025 162.24L272.025 162.256L272.018 162.265L272.022 162.275L272.015 162.285L272.004 162.299L271.993 162.313L271.986 162.322L271.99 162.325L271.983 162.335L271.987 162.337L271.983 162.35L271.987 162.353L271.984 162.365L271.988 162.368L271.984 162.38L271.988 162.383L271.988 162.39L271.992 162.393L271.992 162.401L271.996 162.404L272 162.407L272.004 162.41L272.007 162.412L272.015 162.418L273.921 164.153L273.925 164.156L273.929 164.159L273.933 164.162L273.936 164.165L273.94 164.168L273.944 164.171L273.948 164.174L273.955 164.172L273.959 164.175L273.966 164.173L273.97 164.176L273.977 164.174L273.981 164.177L273.992 164.17L273.996 164.173L274.007 164.167L274.018 164.16L274.025 164.151L274.036 164.137L274.046 164.123L274.057 164.124L274.065 164.115L274.075 164.108L274.083 164.099L274.094 164.092L274.101 164.083L274.112 164.076L274.119 164.067L274.13 164.061L274.137 164.051L274.148 164.045L274.155 164.035L274.162 164.026L274.169 164.017L274.176 164.007L274.184 163.998L274.191 163.989L274.198 163.979L274.205 163.97L274.212 163.96L274.219 163.951L274.226 163.942L274.234 163.932L274.248 163.914L277.856 159.213L277.874 159.19L277.881 159.18L277.889 159.171L277.896 159.162L277.903 159.152L277.91 159.143L277.917 159.134L277.924 159.124L277.931 159.115L277.939 159.105L277.946 159.096L277.953 159.087L277.96 159.077L277.963 159.065L277.97 159.056L277.974 159.043L277.981 159.034L277.984 159.022L277.991 159.012L277.995 159L278.002 158.991L278.005 158.979L278.013 158.969L278.012 158.954L278.019 158.945L278.03 158.931L278.041 158.917L278.048 158.907L278.051 158.895L278.054 158.883L278.051 158.88L278.058 158.87L278.054 158.868L278.057 158.855L278.054 158.852L278.053 158.845L278.05 158.842L278.049 158.834L278.046 158.832L278.042 158.829L278.038 158.826L278.034 158.823L278.03 158.82L278.027 158.817L278.023 158.814L276.099 157.095L276.095 157.092L276.091 157.089L276.087 157.086L276.084 157.083L276.08 157.08L276.076 157.078L276.072 157.075L276.065 157.076L276.061 157.074L276.054 157.075L276.05 157.072L276.039 157.079L276.035 157.076L276.024 157.083L276.02 157.08L276.01 157.086L276.006 157.083L275.999 157.093L275.995 157.09L275.988 157.099L275.977 157.113L275.966 157.127L275.955 157.126L275.948 157.135L275.937 157.142L275.93 157.151L275.919 157.158L275.912 157.167L275.901 157.174L275.894 157.183L275.883 157.189L275.876 157.199L275.865 157.205L275.858 157.215L275.85 157.224L275.843 157.233L275.836 157.243L275.829 157.252L275.822 157.262L275.815 157.271L275.808 157.28L275.8 157.29L275.793 157.299L275.786 157.308L275.779 157.318L275.765 157.336L272.167 162.023L272.16 162.032L272.153 162.042Z" fill="#E1EFFE"/>
<path d="M268.569 169.561L266.896 169.427L268.581 169.615L269.83 170.775L270.335 172.753L266.743 169.415L266.734 169.414L266.73 169.411L266.726 169.408L266.723 169.405L266.719 169.402L266.715 169.399L266.711 169.396L266.707 169.394L266.707 169.386L266.703 169.383L266.703 169.376L266.699 169.373L266.703 169.36L266.699 169.357L266.702 169.345L266.699 169.342L266.702 169.33L266.698 169.327L266.702 169.315L266.698 169.312L266.705 169.295L266.701 169.292L266.712 169.278L266.708 169.275L266.719 169.261L266.726 169.252L266.725 169.237L266.732 169.227L266.732 169.212L266.739 169.203L266.739 169.188L266.746 169.178L266.749 169.166L266.756 169.157L266.76 169.144L266.767 169.135L266.77 169.123L266.777 169.113L266.781 169.101L266.788 169.092L266.795 169.082L266.802 169.073L266.809 169.064L266.816 169.054L266.823 169.045L266.831 169.036L266.838 169.026L266.845 169.017L266.852 169.007L266.859 168.998L266.866 168.989L268.453 166.924L268.467 166.906L268.474 166.896L268.481 166.887L268.488 166.877L268.496 166.868L268.503 166.859L268.51 166.849L268.517 166.84L268.524 166.831L268.531 166.821L268.538 166.812L268.549 166.805L268.557 166.796L268.568 166.79L268.575 166.78L268.586 166.774L268.593 166.764L268.604 166.758L268.611 166.749L268.626 166.745L268.633 166.736L268.644 166.737L268.651 166.727L268.662 166.728L268.673 166.714L268.687 166.703L268.691 166.706L268.702 166.7L268.706 166.702L268.717 166.696L268.721 166.699L268.731 166.692L268.735 166.695L268.746 166.689L268.75 166.692L268.757 166.69L268.761 166.693L268.769 166.691L268.772 166.694L268.776 166.697L268.78 166.7L268.784 166.703L268.787 166.705L268.791 166.708L268.795 166.711L268.799 166.714L268.803 166.717L272.414 170.042L270.555 169.832L269.303 168.677L269.3 168.681L268.803 166.717L269.233 168.682L269.229 168.687L269.226 168.692L269.222 168.696L269.219 168.701L269.215 168.706L269.212 168.71L269.208 168.715L269.204 168.72L269.201 168.725L269.194 168.734L269.187 168.743L268.636 169.465L268.629 169.474L268.622 169.483L268.615 169.493L268.611 169.497L268.608 169.502L268.604 169.507L268.601 169.511L268.597 169.516L268.594 169.521L268.59 169.525L268.586 169.53L268.583 169.535L268.579 169.54L268.569 169.561Z" fill="#E1EFFE"/>
<path d="M272.995 167.003L263.189 158.617L263.186 158.615L262.685 159.27L272.487 167.668L272.995 167.003Z" fill="#E1EFFE"/>
<path d="M272.411 170.046L270.561 169.895L270.558 169.93L270.555 169.935L270.551 169.939L270.547 169.944L270.544 169.949L270.54 169.953L270.537 169.958L270.533 169.963L270.53 169.968L270.526 169.972L270.522 169.977L270.515 169.986L270.508 169.996L270.501 170.005L269.947 170.731L269.94 170.74L269.933 170.75L269.93 170.754L269.926 170.759L269.922 170.764L269.919 170.768L269.915 170.773L269.912 170.778L269.908 170.783L269.905 170.787L270.339 172.771L270.343 172.773L270.347 172.776L270.351 172.779L270.354 172.782L270.358 172.785L270.362 172.788L270.366 172.791L270.369 172.794L270.373 172.797L270.381 172.795L270.384 172.798L270.392 172.796L270.396 172.799L270.406 172.792L270.41 172.795L270.421 172.789L270.425 172.792L270.436 172.785L270.44 172.788L270.451 172.782L270.454 172.784L270.465 172.77L270.469 172.773L270.48 172.759L270.49 172.745L270.505 172.742L270.512 172.732L270.527 172.729L270.534 172.719L270.545 172.713L270.552 172.703L270.563 172.697L270.57 172.688L270.581 172.681L270.588 172.672L270.595 172.662L270.603 172.653L270.61 172.644L270.617 172.634L270.624 172.625L270.631 172.616L270.638 172.606L270.645 172.597L270.653 172.587L270.66 172.578L270.667 172.569L270.681 172.55L272.278 170.471L272.285 170.462L272.293 170.453L272.3 170.443L272.307 170.434L272.314 170.425L272.321 170.415L272.328 170.406L272.335 170.396L272.343 170.387L272.35 170.378L272.357 170.368L272.364 170.359L272.371 170.35L272.375 170.337L272.382 170.328L272.385 170.316L272.392 170.306L272.396 170.294L272.403 170.285L272.402 170.27L272.409 170.26L272.409 170.245L272.416 170.236L272.416 170.221L272.423 170.211L272.434 170.197L272.444 170.183L272.44 170.18L272.447 170.163L272.444 170.16L272.447 170.148L272.443 170.145L272.447 170.133L272.443 170.13L272.446 170.118L272.442 170.115L272.446 170.103L272.442 170.1L272.445 170.088L272.441 170.085L272.441 170.077L272.437 170.074L272.437 170.067L272.433 170.064L272.43 170.061L272.426 170.058L272.414 170.049L272.411 170.046Z" fill="#E1EFFE"/>
<path d="M286.864 158.542L286.952 158.749L286.925 158.706L287.009 158.918L287.085 159.117L287.133 159.25L287.202 159.451L287.263 159.653L287.317 159.857L287.367 160.066L287.414 160.272L287.457 160.483L287.496 160.69L287.528 160.9L287.557 161.114L287.581 161.325L287.602 161.542L287.616 161.759L287.626 161.974L287.632 162.194L287.634 162.411L287.599 162.457L285.362 165.367L286.024 165.96L286.028 165.963L286.031 165.966L286.035 165.969L286.039 165.972L286.043 165.975L286.046 165.978L286.05 165.981L286.051 165.988L286.054 165.991L286.051 166.003L286.055 166.006L286.051 166.018L286.055 166.021L286.052 166.034L286.056 166.036L286.052 166.049L286.056 166.052L286.053 166.064L286.056 166.067L286.046 166.081L286.035 166.095L286.035 166.11L286.028 166.119L286.029 166.135L286.022 166.144L286.022 166.159L286.015 166.168L286.012 166.181L286.004 166.19L286.001 166.202L285.994 166.212L285.991 166.224L285.983 166.233L285.98 166.246L285.973 166.255L285.966 166.264L285.959 166.274L285.951 166.283L285.944 166.292L285.937 166.302L285.93 166.311L285.923 166.32L285.916 166.33L285.909 166.339L285.901 166.349L285.894 166.358L285.876 166.381L282.21 171.149L282.203 171.158L282.196 171.168L282.189 171.177L282.182 171.187L282.175 171.196L282.168 171.205L282.16 171.215L282.153 171.224L282.146 171.233L282.139 171.243L282.132 171.252L282.125 171.262L282.118 171.271L282.11 171.28L282.1 171.287L282.092 171.296L282.081 171.303L282.074 171.312L282.063 171.318L282.056 171.328L282.042 171.331L282.034 171.341L282.02 171.344L282.012 171.354L282.002 171.368L281.991 171.382L281.984 171.391L281.977 171.401L281.973 171.398L281.962 171.404L281.958 171.401L281.947 171.408L281.944 171.405L281.933 171.411L281.929 171.408L281.921 171.41L281.918 171.407L281.91 171.409L281.907 171.406L281.903 171.403L281.899 171.4L281.895 171.398L281.891 171.395L281.888 171.392L281.872 171.38L281.214 170.782L275.265 178.52L274.908 178.611L274.547 178.691L274.186 178.756L273.825 178.814L273.463 178.857L273.097 178.889L272.727 178.91L272.36 178.92L271.993 178.914L271.622 178.898L271.251 178.866L270.882 178.822L270.514 178.764L270.141 178.694L269.772 178.605L269.399 178.506L269.028 178.394L268.662 178.262L268.294 178.115L267.926 177.953L267.558 177.776L267.19 177.584L266.824 177.372L266.462 177.148L266.103 176.903L266.334 176.554L266.077 176.891L260.25 171.388L259.244 170.436L259.24 170.433L259.237 170.43L259.233 170.427L259.229 170.424L259.225 170.421L259.222 170.418L259.218 170.415L259.214 170.413L259.21 170.41L259.206 170.407L259.203 170.404L259.199 170.401L259.199 170.393L259.195 170.391L259.195 170.383L259.194 170.375L259.198 170.371L259.205 170.361L259.212 170.352L259.219 170.343L259.226 170.333L259.234 170.324L259.241 170.315L259.248 170.305L259.255 170.296L259.262 170.286L259.269 170.277L259.276 170.268L259.284 170.258L259.291 170.249L259.298 170.24L259.305 170.23L261.199 167.763L261.206 167.754L261.213 167.744L261.22 167.735L261.227 167.725L261.234 167.716L261.242 167.707L262.689 165.825L263.189 165.169L263.588 165.541L264.86 166.725L265.263 167.1L265.735 167.534L266.8 166.138L261.088 161.475L261.588 160.819L267.307 165.48L267.711 165.855L267.207 166.515L265.631 168.566L265.563 168.498L265.231 168.186L264.767 167.751L263.327 169.623L263.323 169.628L263.316 169.637L263.309 169.647L263.302 169.656L263.295 169.665L263.288 169.675L263.266 169.703L261.744 171.683L266.615 176.279L266.781 176.391L271.356 173.998L276.859 166.838L276.003 166.059L275.999 166.056L275.995 166.053L275.991 166.051L275.987 166.048L275.984 166.045L275.98 166.042L275.98 166.034L275.976 166.031L275.976 166.024L275.972 166.021L275.975 166.009L275.971 166.006L275.975 165.994L275.971 165.991L275.974 165.978L275.971 165.976L275.974 165.963L275.981 165.946L275.992 165.932L276.002 165.918L276.002 165.903L276.009 165.894L276.012 165.882L276.019 165.872L276.023 165.86L276.03 165.851L276.033 165.838L276.04 165.829L276.044 165.817L276.051 165.807L276.054 165.795L276.061 165.786L276.069 165.776L276.076 165.767L276.083 165.758L276.09 165.748L276.097 165.739L276.104 165.729L276.111 165.72L276.119 165.711L276.126 165.701L276.133 165.692L276.14 165.683L276.147 165.673L276.154 165.664L276.161 165.654L279.784 160.935L279.799 160.917L279.806 160.907L279.813 160.898L279.82 160.889L279.827 160.879L279.834 160.87L279.842 160.86L279.849 160.851L279.856 160.842L279.863 160.832L279.87 160.823L279.877 160.814L279.884 160.804L279.895 160.798L279.902 160.788L279.913 160.782L279.921 160.773L279.931 160.766L279.939 160.757L279.95 160.75L279.957 160.741L279.971 160.737L279.979 160.728L279.989 160.714L280 160.7L280.007 160.69L280.014 160.681L280.025 160.675L280.029 160.677L280.04 160.671L280.044 160.674L280.055 160.667L280.058 160.67L280.066 160.668L280.07 160.671L280.077 160.67L280.081 160.672L280.085 160.675L280.088 160.678L280.092 160.681L280.096 160.684L280.1 160.687L280.115 160.698L280.978 161.468L282.939 158.912L272.009 149.013L272.509 148.357L283.447 158.246L283.534 158.328L283.869 158.62L281.393 161.843L282.058 162.44L282.062 162.443L282.066 162.446L282.07 162.448L282.073 162.451L282.077 162.454L282.077 162.462L282.081 162.465L282.081 162.472L282.085 162.475L282.085 162.483L282.089 162.486L282.086 162.498L282.09 162.501L282.086 162.513L282.09 162.516L282.087 162.528L282.09 162.531L282.087 162.543L282.076 162.557L282.066 162.571L282.066 162.587L282.059 162.596L282.059 162.611L282.052 162.62L282.049 162.633L282.042 162.642L282.038 162.654L282.031 162.664L282.028 162.676L282.021 162.685L282.017 162.698L282.01 162.707L282.007 162.719L282 162.729L281.993 162.738L281.985 162.747L281.978 162.757L281.971 162.766L281.964 162.775L281.957 162.785L281.95 162.794L281.943 162.803L281.935 162.813L281.928 162.822L281.921 162.832L281.907 162.85L278.269 167.581L278.252 167.604L278.244 167.613L278.237 167.623L278.23 167.632L278.223 167.642L278.216 167.651L278.209 167.66L278.202 167.67L278.194 167.679L278.187 167.688L278.18 167.698L278.169 167.704L278.162 167.714L278.151 167.72L278.144 167.729L278.133 167.736L278.126 167.745L278.115 167.752L278.108 167.761L278.097 167.768L278.09 167.777L278.075 167.781L278.068 167.79L278.057 167.804L278.046 167.818L278.039 167.827L278.032 167.837L278.028 167.834L278.017 167.84L278.007 167.847L278.003 167.844L277.992 167.85L277.988 167.848L277.981 167.849L277.977 167.846L277.97 167.848L277.966 167.845L277.962 167.842L277.958 167.84L277.954 167.837L277.951 167.834L277.947 167.831L277.932 167.819L277.27 167.218L271.624 174.566L271.617 174.56L267.385 176.77L267.619 176.904L267.961 177.083L268.303 177.248L268.644 177.397L268.989 177.534L269.334 177.656L269.678 177.763L270.021 177.862L270.365 177.946L270.707 178.015L271.054 178.071L271.396 178.118L271.738 178.149L272.079 178.172L272.421 178.18L272.762 178.181L273.102 178.167L273.442 178.145L273.779 178.112L274.114 178.065L274.45 178.01L274.782 177.944L275.113 177.871L280.819 170.444L279.94 169.64L279.933 169.634L279.929 169.631L279.925 169.628L279.921 169.626L279.918 169.623L279.917 169.615L279.914 169.612L279.913 169.605L279.91 169.602L279.913 169.59L279.909 169.587L279.912 169.574L279.909 169.572L279.912 169.559L279.908 169.556L279.912 169.544L279.908 169.541L279.918 169.527L279.929 169.513L279.925 169.503L279.932 169.493L279.932 169.478L279.939 169.469L279.939 169.454L279.946 169.444L279.949 169.432L279.956 169.423L279.96 169.41L279.967 169.401L279.97 169.389L279.977 169.379L279.981 169.367L279.988 169.358L279.995 169.348L280.002 169.339L280.009 169.33L280.016 169.32L280.023 169.311L280.031 169.302L280.038 169.292L280.045 169.283L280.052 169.273L280.059 169.264L280.066 169.255L280.091 169.222L283.743 164.473L283.75 164.464L283.757 164.454L283.764 164.445L283.772 164.435L283.779 164.426L283.786 164.417L283.793 164.407L283.8 164.398L283.807 164.389L283.814 164.379L283.822 164.37L283.829 164.36L283.836 164.351L283.843 164.342L283.854 164.335L283.861 164.326L283.872 164.319L283.879 164.31L283.89 164.304L283.897 164.294L283.908 164.288L283.915 164.278L283.93 164.275L283.937 164.265L283.948 164.251L283.959 164.237L283.966 164.228L283.977 164.221L283.988 164.215L283.991 164.218L284.002 164.211L284.006 164.214L284.017 164.208L284.021 164.211L284.028 164.209L284.032 164.212L284.039 164.21L284.043 164.213L284.047 164.216L284.051 164.219L284.055 164.222L284.058 164.224L284.062 164.227L284.077 164.239L284.963 165.033L286.975 162.419L286.964 162.143L286.945 161.87L286.918 161.598L286.885 161.328L286.844 161.059L286.795 160.793L286.74 160.528L286.676 160.265L286.606 160.004L286.528 159.745L286.439 159.492L286.343 159.241L286.24 158.991L286.129 158.744L286.007 158.503L285.878 158.264L285.738 158.031L285.591 157.8L285.432 157.575L285.267 157.353L285.09 157.137L284.906 156.922L284.711 156.714L284.501 156.51L284.284 156.307L274.142 147.516L274.642 146.86L284.545 155.424L284.579 155.45L284.651 155.52L284.772 155.613L284.898 155.723L285.039 155.86L285.199 156.02L285.337 156.169L285.482 156.332L285.632 156.513L285.785 156.704L285.893 156.845L286.001 156.994L286.137 157.194L286.269 157.406L286.401 157.625L286.53 157.857L286.655 158.093L286.773 158.339L286.864 158.542Z" fill="#E1EFFE"/>
</g>
</g>
<g style="mix-blend-mode:multiply" filter="url(#filter12_f_204_41136)">
<path d="M156.699 230.216L430.175 124.633L123.812 320.22L156.699 230.216Z" fill="#C3DDFD"/>
</g>
</g>
<path d="M167.666 78.1395C158.939 82.6547 148.261 81.7211 145.076 75.5669C141.892 69.4127 146.791 60.4674 155.517 55.9522C165.066 51.011 173.264 52.8523 177.7 58.8208C180.884 64.975 176.392 73.6243 167.666 78.1395Z" fill="#C3DDFD"/>
<path d="M167.687 79.4965C158.693 84.1506 148.82 82.9346 145.635 76.7804C142.451 70.6263 147.161 61.8644 156.155 57.2103C165.15 52.5561 175.023 53.7721 178.207 59.9263C181.392 66.0805 176.682 74.8424 167.687 79.4965Z" fill="#E1EFFE"/>
<g filter="url(#filter13_i_204_41136)">
<path d="M167.687 79.4965C158.693 84.1506 148.82 82.9346 145.635 76.7804C142.451 70.6263 147.161 61.8644 156.155 57.2103C165.15 52.5561 175.023 53.7721 178.207 59.9263C181.392 66.0805 176.682 74.8424 167.687 79.4965Z" fill="#E1EFFE"/>
</g>
<path fill-rule="evenodd" clip-rule="evenodd" d="M154.535 81.7668C158.429 82.2465 163.06 81.409 167.49 79.1164C171.921 76.8238 175.279 73.5275 177.137 70.0713C178.996 66.6129 179.336 63.038 177.827 60.123C176.319 57.2079 173.205 55.4199 169.308 54.9399C165.413 54.4602 160.783 55.2977 156.352 57.5903C151.921 59.883 148.563 63.1793 146.705 66.6355C144.846 70.0938 144.507 73.6687 146.015 76.5838C147.524 79.4988 150.638 81.2869 154.535 81.7668ZM145.635 76.7804C148.82 82.9346 158.693 84.1506 167.687 79.4965C176.682 74.8424 181.392 66.0805 178.207 59.9263C175.023 53.7721 165.15 52.5561 156.155 57.2103C147.161 61.8644 142.451 70.6263 145.635 76.7804Z" fill="white"/>
<g filter="url(#filter14_di_204_41136)">
<path d="M167.44 78.5471C159.265 82.7773 150.3 81.689 147.417 76.1163C144.533 70.5436 148.823 62.5967 156.998 58.3665C165.173 54.1363 174.138 55.2246 177.022 60.7973C179.905 66.3701 175.616 74.3169 167.44 78.5471Z" fill="#E1EFFE"/>
</g>
<g filter="url(#filter15_d_204_41136)">
<path fill-rule="evenodd" clip-rule="evenodd" d="M155.496 80.583C159.023 81.0112 163.222 80.2479 167.244 78.167C171.265 76.0862 174.314 73.0994 176.002 69.9724C177.691 66.8431 177.999 63.6177 176.642 60.994C175.284 58.3703 172.473 56.7592 168.943 56.3307C165.415 55.9024 161.216 56.6658 157.195 58.7466C153.173 60.8274 150.125 63.8142 148.437 66.9412C146.748 70.0706 146.439 73.296 147.797 75.9196C149.154 78.5433 151.965 80.1544 155.496 80.583ZM147.417 76.1163C150.3 81.689 159.265 82.7773 167.44 78.5471C175.616 74.3169 179.905 66.3701 177.022 60.7973C174.138 55.2246 165.173 54.1363 156.998 58.3665C148.823 62.5967 144.533 70.5436 147.417 76.1163Z" fill="white"/>
</g>
<path d="M394.24 317.613C390.075 315.208 387.641 310.557 389.338 307.618C391.035 304.678 396.017 304.334 400.183 306.739C404.741 309.37 406.146 313.238 404.855 316.644C403.158 319.584 398.406 320.017 394.24 317.613Z" fill="#C3DDFD"/>
<path d="M393.644 318.09C389.348 315.609 387.241 311.215 388.938 308.275C390.635 305.336 395.494 304.963 399.791 307.444C404.087 309.925 406.194 314.319 404.497 317.258C402.8 320.198 397.941 320.57 393.644 318.09Z" fill="#E1EFFE"/>
<g filter="url(#filter16_i_204_41136)">
<path d="M393.644 318.09C389.348 315.609 387.241 311.215 388.938 308.275C390.635 305.336 395.494 304.963 399.791 307.444C404.087 309.925 406.194 314.319 404.497 317.258C402.8 320.198 397.941 320.57 393.644 318.09Z" fill="#E1EFFE"/>
</g>
<path fill-rule="evenodd" clip-rule="evenodd" d="M389.233 313.264C390.064 314.997 391.633 316.686 393.749 317.908C395.866 319.13 398.113 319.644 400.03 319.498C401.947 319.351 403.512 318.546 404.316 317.154C405.12 315.761 405.034 314.004 404.203 312.27C403.371 310.536 401.802 308.848 399.686 307.626C397.569 306.404 395.322 305.889 393.406 306.036C391.488 306.183 389.924 306.988 389.12 308.38C388.316 309.773 388.401 311.53 389.233 313.264ZM388.938 308.275C387.241 311.215 389.348 315.609 393.644 318.09C397.941 320.57 402.8 320.198 404.497 317.258C406.194 314.319 404.087 309.925 399.791 307.444C395.494 304.963 390.635 305.336 388.938 308.275Z" fill="white"/>
<g filter="url(#filter17_di_204_41136)">
<path d="M393.973 317.737C390.068 315.483 388.148 311.497 389.685 308.835C391.222 306.173 395.633 305.843 399.538 308.097C403.444 310.352 405.363 314.338 403.827 317C402.29 319.662 397.878 319.992 393.973 317.737Z" fill="#E1EFFE"/>
</g>
<g filter="url(#filter18_d_204_41136)">
<path fill-rule="evenodd" clip-rule="evenodd" d="M389.977 313.348C390.732 314.916 392.157 316.447 394.078 317.556C395.999 318.665 398.036 319.133 399.772 319.003C401.509 318.873 402.921 318.148 403.645 316.895C404.369 315.642 404.29 314.056 403.534 312.487C402.779 310.918 401.355 309.388 399.434 308.279C397.513 307.17 395.475 306.701 393.739 306.831C392.002 306.961 390.59 307.686 389.866 308.94C389.143 310.193 389.221 311.778 389.977 313.348ZM389.685 308.835C388.148 311.497 390.068 315.483 393.973 317.737C397.878 319.992 402.29 319.662 403.827 317C405.363 314.338 403.444 310.352 399.538 308.097C395.633 305.843 391.222 306.173 389.685 308.835Z" fill="white"/>
</g>
<path d="M234.671 364.27C255.302 377.184 255.554 381.254 251.353 388.043C247.077 394.955 236.326 397.214 224.696 393.308C211.969 389.032 207.89 378.311 209.234 372.249C211.113 363.767 214.169 360.73 234.671 364.27Z" fill="#76A9FA"/>
<path d="M236.618 361.687C248.655 365.73 256.17 375.684 253.403 383.92C250.637 392.156 238.636 395.554 226.599 391.511C214.562 387.467 207.047 377.513 209.814 369.277C212.581 361.042 224.581 357.643 236.618 361.687Z" fill="#C3DDFD"/>
<g filter="url(#filter19_i_204_41136)">
<path d="M236.618 361.687C248.655 365.73 256.17 375.684 253.403 383.92C250.637 392.156 238.636 395.554 226.599 391.511C214.562 387.467 207.047 377.513 209.814 369.277C212.581 361.042 224.581 357.643 236.618 361.687Z" fill="#C3DDFD"/>
</g>
<path fill-rule="evenodd" clip-rule="evenodd" d="M250.133 371.555C247.169 367.628 242.376 364.187 236.447 362.195C230.518 360.204 224.62 360.053 219.886 361.394C215.149 362.735 211.633 365.547 210.323 369.448C209.012 373.349 210.117 377.714 213.084 381.643C216.048 385.569 220.841 389.01 226.77 391.002C232.699 392.994 238.598 393.144 243.331 391.804C248.068 390.462 251.584 387.65 252.894 383.749C254.205 379.848 253.1 375.484 250.133 371.555ZM253.403 383.92C256.17 375.684 248.655 365.73 236.618 361.687C224.581 357.643 212.581 361.042 209.814 369.277C207.047 377.513 214.562 387.467 226.599 391.511C238.636 395.554 250.637 392.156 253.403 383.92Z" fill="white"/>
<g filter="url(#filter20_di_204_41136)">
<path d="M235.983 362.738C246.923 366.413 253.762 375.438 251.256 382.896C248.751 390.353 237.851 393.419 226.911 389.744C215.971 386.069 209.132 377.044 211.638 369.587C214.143 362.129 225.043 359.063 235.983 362.738Z" fill="#C3DDFD"/>
</g>
<g filter="url(#filter21_d_204_41136)">
<path fill-rule="evenodd" clip-rule="evenodd" d="M248.234 371.722C245.543 368.171 241.194 365.054 235.812 363.247C230.431 361.439 225.081 361.298 220.792 362.504C216.5 363.712 213.326 366.246 212.146 369.758C210.967 373.269 211.967 377.206 214.66 380.76C217.351 384.311 221.7 387.428 227.082 389.236C232.463 391.043 237.813 391.185 242.102 389.978C246.394 388.771 249.568 386.236 250.748 382.725C251.927 379.214 250.927 375.276 248.234 371.722ZM251.256 382.896C253.762 375.438 246.923 366.413 235.983 362.738C225.043 359.063 214.143 362.129 211.638 369.587C209.132 377.044 215.971 386.069 226.911 389.744C237.851 393.419 248.751 390.353 251.256 382.896Z" fill="white"/>
</g>
<g filter="url(#filter22_d_204_41136)">
<path fill-rule="evenodd" clip-rule="evenodd" d="M218.406 369.592L228.839 380.025C228.885 380.071 228.939 380.107 228.997 380.132L235.66 374.738C235.797 374.627 235.865 374.453 235.84 374.279L235.228 369.991C235.172 369.965 235.112 369.949 235.05 369.944L218.797 368.74C218.335 368.706 218.079 369.265 218.406 369.592ZM235.25 370.002L238.248 375.399C238.391 375.656 238.283 375.979 238.016 376.099L229.008 380.136C229.056 380.155 229.106 380.167 229.158 380.171L246.305 381.372C246.776 381.405 247.026 380.825 246.678 380.505L235.352 370.075C235.321 370.046 235.286 370.022 235.25 370.002Z" fill="white"/>
<mask id="mask2_204_41136" style="mask-type:alpha" maskUnits="userSpaceOnUse" x="218" y="368" width="29" height="14">
<path fill-rule="evenodd" clip-rule="evenodd" d="M218.406 369.592L228.839 380.025C228.885 380.071 228.939 380.107 228.997 380.132L235.66 374.738C235.797 374.627 235.865 374.453 235.84 374.279L235.228 369.991C235.172 369.965 235.112 369.949 235.05 369.944L218.797 368.74C218.335 368.706 218.079 369.265 218.406 369.592ZM235.25 370.002L238.248 375.399C238.391 375.656 238.283 375.979 238.016 376.099L229.008 380.136C229.056 380.155 229.106 380.167 229.158 380.171L246.305 381.372C246.776 381.405 247.026 380.825 246.678 380.505L235.352 370.075C235.321 370.046 235.286 370.022 235.25 370.002Z" fill="white"/>
</mask>
<g mask="url(#mask2_204_41136)">
<path d="M236.871 374.881L217.457 368.629L226.012 364.352L245.097 374.223L249.046 382.449L236.871 374.881Z" fill="#A4CAFE"/>
</g>
<g style="mix-blend-mode:multiply" opacity="0.2">
<path fill-rule="evenodd" clip-rule="evenodd" d="M235.163 369.967L228.65 372.247L228.978 380.125C228.984 380.127 228.99 380.13 228.996 380.133L229.009 380.124L235.661 374.739C235.797 374.629 235.866 374.454 235.841 374.28L235.229 369.993C235.207 369.983 235.186 369.974 235.163 369.967ZM235.251 370.004L235.252 370.007L235.251 370.004C235.251 370.004 235.251 370.004 235.251 370.004Z" fill="#76A9FA"/>
</g>
</g>
<path d="M43.2465 161.61C48.5347 148.003 50.9038 147.397 55.376 149.108C59.9287 150.85 62.4691 156.93 61.4754 164.221C60.388 172.199 54.5304 175.808 50.8078 175.698C45.5993 175.545 43.4671 174.086 43.2465 161.61Z" fill="#76A9FA"/>
<path d="M41.5011 160.753C42.5296 153.207 47.5487 147.661 52.7118 148.364C57.8748 149.068 61.2265 155.756 60.1981 163.302C59.1697 170.848 54.1505 176.394 48.9874 175.691C43.8244 174.987 40.4727 168.299 41.5011 160.753Z" fill="#C3DDFD"/>
<g filter="url(#filter23_i_204_41136)">
<path d="M41.5011 160.753C42.5296 153.207 47.5487 147.661 52.7118 148.364C57.8748 149.068 61.2265 155.756 60.1981 163.302C59.1697 170.848 54.1505 176.394 48.9874 175.691C43.8244 174.987 40.4727 168.299 41.5011 160.753Z" fill="#C3DDFD"/>
</g>
<path fill-rule="evenodd" clip-rule="evenodd" d="M45.7946 151.681C43.8147 153.869 42.3266 157.08 41.82 160.797C41.3134 164.514 41.8881 168.006 43.2102 170.644C44.5331 173.283 46.5853 175.039 49.0309 175.372C51.4765 175.705 53.9235 174.563 55.9046 172.374C57.8845 170.186 59.3726 166.975 59.8792 163.258C60.3858 159.541 59.8111 156.049 58.489 153.411C57.1661 150.772 55.1139 149.017 52.6683 148.683C50.2227 148.35 47.7757 149.492 45.7946 151.681ZM52.7118 148.364C47.5487 147.661 42.5296 153.207 41.5011 160.753C40.4727 168.299 43.8244 174.987 48.9874 175.691C54.1505 176.394 59.1697 170.848 60.1981 163.302C61.2265 155.756 57.8748 149.068 52.7118 148.364Z" fill="white"/>
<g filter="url(#filter24_di_204_41136)">
<path d="M42.1917 161.012C43.1265 154.154 47.6743 149.11 52.3495 149.747C57.0247 150.384 60.057 156.461 59.1222 163.32C58.1875 170.178 53.6397 175.222 48.9644 174.585C44.2892 173.947 41.257 167.871 42.1917 161.012Z" fill="#C3DDFD"/>
</g>
<g filter="url(#filter25_d_204_41136)">
<path fill-rule="evenodd" clip-rule="evenodd" d="M46.107 152.784C44.3174 154.769 42.9704 157.682 42.5106 161.056C42.0508 164.429 42.5691 167.597 43.7623 169.988C44.9563 172.381 46.8068 173.966 49.0079 174.266C51.209 174.566 53.4162 173.534 55.207 171.548C56.9965 169.563 58.3436 166.65 58.8034 163.276C59.2632 159.902 58.7448 156.735 57.5517 154.344C56.3576 151.951 54.5072 150.366 52.3061 150.066C50.1049 149.766 47.8978 150.798 46.107 152.784ZM52.3495 149.747C47.6743 149.11 43.1265 154.154 42.1917 161.012C41.257 167.871 44.2892 173.947 48.9644 174.585C53.6397 175.222 58.1875 170.178 59.1222 163.32C60.057 156.461 57.0247 150.384 52.3495 149.747Z" fill="white"/>
</g>
<path d="M30.4904 321.844C60.7213 302.584 66.2923 304.824 72.6615 314.707C79.1454 324.768 75.3459 340.494 62.7902 353.486C49.0501 367.704 32.2121 366.342 25.001 360.719C14.9116 352.851 12.8084 346.866 30.4904 321.844Z" fill="#3F83F8"/>
<path d="M28.2939 317.615C41.2888 304.168 59.2817 300.475 68.4821 309.366C77.6825 318.257 74.6064 336.366 61.6115 349.813C48.6165 363.259 30.6236 366.952 21.4232 358.061C12.2228 349.17 15.2989 331.061 28.2939 317.615Z" fill="#E6D8FF"/>
<g filter="url(#filter26_i_204_41136)">
<path d="M28.2939 317.615C41.2888 304.168 59.2817 300.475 68.4821 309.366C77.6825 318.257 74.6064 336.366 61.6115 349.813C48.6165 363.259 30.6236 366.952 21.4232 358.061C12.2228 349.17 15.2989 331.061 28.2939 317.615Z" fill="#E6D8FF"/>
</g>
<path fill-rule="evenodd" clip-rule="evenodd" d="M49.9698 305.888C42.8724 307.344 35.2634 311.54 28.8621 318.164C22.4608 324.787 18.5277 332.535 17.3143 339.678C16.1002 346.826 17.6144 353.281 21.9724 357.493C26.3303 361.704 32.8336 362.997 39.9355 361.54C47.033 360.083 54.642 355.887 61.0432 349.264C67.4445 342.64 71.3776 334.892 72.591 327.749C73.8051 320.601 72.2909 314.146 67.933 309.934C63.575 305.723 57.0717 304.43 49.9698 305.888ZM68.4821 309.366C59.2817 300.475 41.2888 304.168 28.2939 317.615C15.2989 331.061 12.2228 349.17 21.4232 358.061C30.6236 366.952 48.6165 363.259 61.6115 349.813C74.6064 336.366 77.6825 318.257 68.4821 309.366Z" fill="white"/>
<g filter="url(#filter27_di_204_41136)">
<path d="M29.2829 319.126C41.0942 306.904 57.4229 303.523 65.754 311.575C74.0851 319.626 71.2639 336.06 59.4526 348.282C47.6413 360.504 31.3127 363.885 22.9815 355.834C14.6504 347.783 17.4716 331.348 29.2829 319.126Z" fill="#E6D8FF"/>
</g>
<g filter="url(#filter28_d_204_41136)">
<path fill-rule="evenodd" clip-rule="evenodd" d="M48.9837 308.522C42.5586 309.852 35.661 313.664 29.8511 319.675C24.0413 325.687 20.4677 332.711 19.3576 339.178C18.2467 345.65 19.6083 351.475 23.5307 355.266C27.453 359.056 33.3219 360.218 39.7518 358.887C46.177 357.556 53.0746 353.745 58.8844 347.733C64.6943 341.721 68.2678 334.698 69.3779 328.231C70.4889 321.759 69.1272 315.933 65.2049 312.143C61.2825 308.352 55.4137 307.19 48.9837 308.522ZM65.754 311.575C57.4229 303.523 41.0942 306.904 29.2829 319.126C17.4716 331.348 14.6504 347.783 22.9815 355.834C31.3127 363.885 47.6413 360.504 59.4526 348.282C71.2639 336.06 74.0851 319.626 65.754 311.575Z" fill="white"/>
</g>
<g filter="url(#filter29_d_204_41136)">
<path fill-rule="evenodd" clip-rule="evenodd" d="M28.1261 335.129C27.462 335.869 27.2339 336.901 27.527 337.84L29.7141 344.845C30.0095 345.791 30.7895 346.499 31.7586 346.699L38.8675 348.17C39.8353 348.37 40.844 348.034 41.5125 347.289L46.162 342.109C46.8004 341.397 47.0376 340.414 46.7911 339.5L45.8805 336.127L45.8756 336.127L44.3485 330.453L44.3485 330.453L43.0169 325.521C42.9098 325.124 43.0129 324.696 43.2905 324.387L46.3397 320.989C46.6227 320.674 47.0467 320.527 47.4587 320.6L51.8378 321.386C52.2525 321.46 52.5947 321.748 52.7394 322.144L54.2994 326.411C54.4531 326.831 54.3598 327.307 54.0572 327.644L51.0966 330.943C50.82 331.251 50.4084 331.399 50.0041 331.336L46.8451 330.843L47.8563 334.79L50.5428 335.21C51.4725 335.355 52.4193 335.014 53.0554 334.305L57.6893 329.142C58.3853 328.366 58.5999 327.273 58.2463 326.306L55.8189 319.666C55.4859 318.756 54.699 318.094 53.7452 317.923L46.9759 316.709C46.0283 316.539 45.0532 316.878 44.4022 317.603L39.742 322.796C39.1036 323.507 38.8664 324.491 39.1129 325.404L39.5719 327.104L39.5733 327.104L40.0841 329.001L40.3056 329.822L40.305 329.822L41.3703 333.777L41.3737 333.778L42.8871 339.383C42.9942 339.78 42.8911 340.208 42.6135 340.517L39.6003 343.875C39.3096 344.199 38.8711 344.345 38.4503 344.258L33.7853 343.293C33.364 343.205 33.0248 342.898 32.8964 342.486L31.4511 337.857C31.3237 337.449 31.4229 337 31.7116 336.679L34.7385 333.306C35.0151 332.998 35.4267 332.849 35.8309 332.913L38.9057 333.393L37.7864 329.428L35.2923 329.039C34.3626 328.894 33.4158 329.234 32.7797 329.943L28.1261 335.129Z" fill="white"/>
</g>
<path d="M339.755 75.9251C351.591 70.0308 353.548 71.0683 355.501 74.9405C357.49 78.8824 355.487 84.5041 350.378 88.7837C344.787 93.4671 338.663 92.3152 336.235 89.973C332.839 86.6959 332.299 84.419 339.755 75.9251Z" fill="url(#paint0_linear_204_41136)"/>
<path d="M339.108 74.2862C344.395 69.8568 351.139 69.1991 354.169 72.8171C357.2 76.4351 355.37 82.9588 350.082 87.3882C344.794 91.8175 338.051 92.4752 335.02 88.8572C331.99 85.2392 333.82 78.7155 339.108 74.2862Z" fill="#E6D8FF"/>
<g filter="url(#filter30_i_204_41136)">
<path d="M339.108 74.2862C344.395 69.8568 351.139 69.1991 354.169 72.8171C357.2 76.4351 355.37 82.9588 350.082 87.3882C344.794 91.8175 338.051 92.4752 335.02 88.8572C331.99 85.2392 333.82 78.7155 339.108 74.2862Z" fill="#E6D8FF"/>
</g>
<path fill-rule="evenodd" clip-rule="evenodd" d="M347.513 70.824C344.853 71.0835 341.899 72.3278 339.295 74.5096C336.69 76.6915 334.947 79.3814 334.225 81.9547C333.503 84.5296 333.808 86.9563 335.244 88.67C336.679 90.3838 339.015 91.1099 341.677 90.8503C344.337 90.5909 347.29 89.3466 349.895 87.1647C352.5 84.9828 354.243 82.293 354.965 79.7197C355.687 77.1447 355.382 74.7181 353.946 73.0043C352.511 71.2906 350.175 70.5644 347.513 70.824ZM354.169 72.8171C351.139 69.1991 344.395 69.8568 339.108 74.2862C333.82 78.7155 331.99 85.2392 335.02 88.8572C338.051 92.4752 344.794 91.8175 350.082 87.3882C355.37 82.9588 357.2 76.4351 354.169 72.8171Z" fill="white"/>
<g filter="url(#filter31_di_204_41136)">
<path d="M339.417 74.8796C344.223 70.8537 350.344 70.2459 353.088 73.5221C355.833 76.7983 354.161 82.7178 349.355 86.7437C344.549 90.7696 338.428 91.3773 335.683 88.1012C332.939 84.825 334.611 78.9055 339.417 74.8796Z" fill="#E6D8FF"/>
</g>
<g filter="url(#filter32_d_204_41136)">
<path fill-rule="evenodd" clip-rule="evenodd" d="M347.055 71.7526C344.646 71.9918 341.968 73.1227 339.604 75.103C337.24 77.0833 335.657 79.5215 334.999 81.8507C334.341 84.1817 334.615 86.3715 335.907 87.914C337.199 89.4564 339.307 90.11 341.717 89.8706C344.126 89.6315 346.803 88.5005 349.168 86.5202C351.532 84.5399 353.115 82.1018 353.772 79.7725C354.431 77.4415 354.157 75.2517 352.865 73.7093C351.573 72.1668 349.465 71.5133 347.055 71.7526ZM353.088 73.5221C350.344 70.2459 344.223 70.8537 339.417 74.8796C334.611 78.9055 332.939 84.825 335.683 88.1012C338.428 91.3773 344.549 90.7696 349.355 86.7437C354.161 82.7178 355.833 76.7983 353.088 73.5221Z" fill="white"/>
</g>
<defs>
<filter id="filter0_d_204_41136" x="93.5781" y="125.178" width="320.684" height="233.057" filterUnits="userSpaceOnUse" color-interpolation-filters="sRGB">
<feFlood flood-opacity="0" result="BackgroundImageFix"/>
<feColorMatrix in="SourceAlpha" type="matrix" values="0 0 0 0 0 0 0 0 0 0 0 0 0 0 0 0 0 0 127 0" result="hardAlpha"/>
<feOffset dy="10"/>
<feGaussianBlur stdDeviation="5"/>
<feComposite in2="hardAlpha" operator="out"/>
<feColorMatrix type="matrix" values="0 0 0 0 0.180392 0 0 0 0 0.356863 0 0 0 0 1 0 0 0 0.14 0"/>
<feBlend mode="normal" in2="BackgroundImageFix" result="effect1_dropShadow_204_41136"/>
<feBlend mode="normal" in="SourceGraphic" in2="effect1_dropShadow_204_41136" result="shape"/>
</filter>
<filter id="filter1_d_204_41136" x="89.5781" y="125.178" width="328.684" height="241.057" filterUnits="userSpaceOnUse" color-interpolation-filters="sRGB">
<feFlood flood-opacity="0" result="BackgroundImageFix"/>
<feColorMatrix in="SourceAlpha" type="matrix" values="0 0 0 0 0 0 0 0 0 0 0 0 0 0 0 0 0 0 127 0" result="hardAlpha"/>
<feOffset dy="14"/>
<feGaussianBlur stdDeviation="7"/>
<feComposite in2="hardAlpha" operator="out"/>
<feColorMatrix type="matrix" values="0 0 0 0 0.180392 0 0 0 0 0.356863 0 0 0 0 1 0 0 0 0.2 0"/>
<feBlend mode="normal" in2="BackgroundImageFix" result="effect1_dropShadow_204_41136"/>
<feBlend mode="normal" in="SourceGraphic" in2="effect1_dropShadow_204_41136" result="shape"/>
</filter>
<filter id="filter2_d_204_41136" x="118.891" y="115.014" width="288.82" height="223.215" filterUnits="userSpaceOnUse" color-interpolation-filters="sRGB">
<feFlood flood-opacity="0" result="BackgroundImageFix"/>
<feColorMatrix in="SourceAlpha" type="matrix" values="0 0 0 0 0 0 0 0 0 0 0 0 0 0 0 0 0 0 127 0" result="hardAlpha"/>
<feOffset dy="-7"/>
<feGaussianBlur stdDeviation="2"/>
<feComposite in2="hardAlpha" operator="out"/>
<feColorMatrix type="matrix" values="0 0 0 0 0.180392 0 0 0 0 0.356863 0 0 0 0 1 0 0 0 0.2 0"/>
<feBlend mode="normal" in2="BackgroundImageFix" result="effect1_dropShadow_204_41136"/>
<feBlend mode="normal" in="SourceGraphic" in2="effect1_dropShadow_204_41136" result="shape"/>
</filter>
<filter id="filter3_d_204_41136" x="148.367" y="116.93" width="268.73" height="239.293" filterUnits="userSpaceOnUse" color-interpolation-filters="sRGB">
<feFlood flood-opacity="0" result="BackgroundImageFix"/>
<feColorMatrix in="SourceAlpha" type="matrix" values="0 0 0 0 0 0 0 0 0 0 0 0 0 0 0 0 0 0 127 0" result="hardAlpha"/>
<feOffset dy="4"/>
<feGaussianBlur stdDeviation="7"/>
<feComposite in2="hardAlpha" operator="out"/>
<feColorMatrix type="matrix" values="0 0 0 0 0.180392 0 0 0 0 0.356863 0 0 0 0 1 0 0 0 0.2 0"/>
<feBlend mode="normal" in2="BackgroundImageFix" result="effect1_dropShadow_204_41136"/>
<feBlend mode="normal" in="SourceGraphic" in2="effect1_dropShadow_204_41136" result="shape"/>
</filter>
<filter id="filter4_d_204_41136" x="89.5742" y="125.354" width="326.328" height="122.787" filterUnits="userSpaceOnUse" color-interpolation-filters="sRGB">
<feFlood flood-opacity="0" result="BackgroundImageFix"/>
<feColorMatrix in="SourceAlpha" type="matrix" values="0 0 0 0 0 0 0 0 0 0 0 0 0 0 0 0 0 0 127 0" result="hardAlpha"/>
<feOffset dy="14"/>
<feGaussianBlur stdDeviation="7"/>
<feComposite in2="hardAlpha" operator="out"/>
<feColorMatrix type="matrix" values="0 0 0 0 0.180392 0 0 0 0 0.356863 0 0 0 0 1 0 0 0 0.2 0"/>
<feBlend mode="normal" in2="BackgroundImageFix" result="effect1_dropShadow_204_41136"/>
<feBlend mode="normal" in="SourceGraphic" in2="effect1_dropShadow_204_41136" result="shape"/>
</filter>
<filter id="filter5_d_204_41136" x="197.398" y="95.9902" width="134.473" height="149.324" filterUnits="userSpaceOnUse" color-interpolation-filters="sRGB">
<feFlood flood-opacity="0" result="BackgroundImageFix"/>
<feColorMatrix in="SourceAlpha" type="matrix" values="0 0 0 0 0 0 0 0 0 0 0 0 0 0 0 0 0 0 127 0" result="hardAlpha"/>
<feOffset dy="6"/>
<feGaussianBlur stdDeviation="2.5"/>
<feComposite in2="hardAlpha" operator="out"/>
<feColorMatrix type="matrix" values="0 0 0 0 0.180392 0 0 0 0 0.356863 0 0 0 0 1 0 0 0 0.32 0"/>
<feBlend mode="normal" in2="BackgroundImageFix" result="effect1_dropShadow_204_41136"/>
<feBlend mode="normal" in="SourceGraphic" in2="effect1_dropShadow_204_41136" result="shape"/>
</filter>
<filter id="filter6_i_204_41136" x="207.738" y="97.9648" width="119.133" height="137.35" filterUnits="userSpaceOnUse" color-interpolation-filters="sRGB">
<feFlood flood-opacity="0" result="BackgroundImageFix"/>
<feBlend mode="normal" in="SourceGraphic" in2="BackgroundImageFix" result="shape"/>
<feColorMatrix in="SourceAlpha" type="matrix" values="0 0 0 0 0 0 0 0 0 0 0 0 0 0 0 0 0 0 127 0" result="hardAlpha"/>
<feOffset dx="-4" dy="1"/>
<feGaussianBlur stdDeviation="1"/>
<feComposite in2="hardAlpha" operator="arithmetic" k2="-1" k3="1"/>
<feColorMatrix type="matrix" values="0 0 0 0 0 0 0 0 0 0 0 0 0 0 0 0 0 0 0.2 0"/>
<feBlend mode="normal" in2="shape" result="effect1_innerShadow_204_41136"/>
</filter>
<filter id="filter7_di_204_41136" x="214.426" y="101.979" width="110.254" height="127.855" filterUnits="userSpaceOnUse" color-interpolation-filters="sRGB">
<feFlood flood-opacity="0" result="BackgroundImageFix"/>
<feColorMatrix in="SourceAlpha" type="matrix" values="0 0 0 0 0 0 0 0 0 0 0 0 0 0 0 0 0 0 127 0" result="hardAlpha"/>
<feOffset/>
<feGaussianBlur stdDeviation="1"/>
<feComposite in2="hardAlpha" operator="out"/>
<feColorMatrix type="matrix" values="0 0 0 0 0.0117647 0 0 0 0 0.392157 0 0 0 0 1 0 0 0 0.6 0"/>
<feBlend mode="normal" in2="BackgroundImageFix" result="effect1_dropShadow_204_41136"/>
<feBlend mode="normal" in="SourceGraphic" in2="effect1_dropShadow_204_41136" result="shape"/>
<feColorMatrix in="SourceAlpha" type="matrix" values="0 0 0 0 0 0 0 0 0 0 0 0 0 0 0 0 0 0 127 0" result="hardAlpha"/>
<feOffset dx="-2"/>
<feGaussianBlur stdDeviation="0.5"/>
<feComposite in2="hardAlpha" operator="arithmetic" k2="-1" k3="1"/>
<feColorMatrix type="matrix" values="0 0 0 0 0.180392 0 0 0 0 0.356863 0 0 0 0 1 0 0 0 0.2 0"/>
<feBlend mode="normal" in2="shape" result="effect2_innerShadow_204_41136"/>
</filter>
<filter id="filter8_d_204_41136" x="211.426" y="101.979" width="112.254" height="129.855" filterUnits="userSpaceOnUse" color-interpolation-filters="sRGB">
<feFlood flood-opacity="0" result="BackgroundImageFix"/>
<feColorMatrix in="SourceAlpha" type="matrix" values="0 0 0 0 0 0 0 0 0 0 0 0 0 0 0 0 0 0 127 0" result="hardAlpha"/>
<feOffset dx="-2" dy="1"/>
<feGaussianBlur stdDeviation="1.5"/>
<feComposite in2="hardAlpha" operator="out"/>
<feColorMatrix type="matrix" values="0 0 0 0 0 0 0 0 0 0 0 0 0 0 0 0 0 0 0.4 0"/>
<feBlend mode="normal" in2="BackgroundImageFix" result="effect1_dropShadow_204_41136"/>
<feBlend mode="normal" in="SourceGraphic" in2="effect1_dropShadow_204_41136" result="shape"/>
</filter>
<filter id="filter9_d_204_41136" x="218.863" y="107.961" width="100.914" height="118.48" filterUnits="userSpaceOnUse" color-interpolation-filters="sRGB">
<feFlood flood-opacity="0" result="BackgroundImageFix"/>
<feColorMatrix in="SourceAlpha" type="matrix" values="0 0 0 0 0 0 0 0 0 0 0 0 0 0 0 0 0 0 127 0" result="hardAlpha"/>
<feOffset dx="-2" dy="1"/>
<feGaussianBlur stdDeviation="1.5"/>
<feComposite in2="hardAlpha" operator="out"/>
<feColorMatrix type="matrix" values="0 0 0 0 0 0 0 0 0 0 0 0 0 0 0 0 0 0 0.2 0"/>
<feBlend mode="normal" in2="BackgroundImageFix" result="effect1_dropShadow_204_41136"/>
<feBlend mode="normal" in="SourceGraphic" in2="effect1_dropShadow_204_41136" result="shape"/>
</filter>
<filter id="filter10_d_204_41136" x="225.691" y="105.723" width="89.3711" height="113.689" filterUnits="userSpaceOnUse" color-interpolation-filters="sRGB">
<feFlood flood-opacity="0" result="BackgroundImageFix"/>
<feColorMatrix in="SourceAlpha" type="matrix" values="0 0 0 0 0 0 0 0 0 0 0 0 0 0 0 0 0 0 127 0" result="hardAlpha"/>
<feOffset dx="-2" dy="1"/>
<feGaussianBlur stdDeviation="1.5"/>
<feComposite in2="hardAlpha" operator="out"/>
<feColorMatrix type="matrix" values="0 0 0 0 0 0 0 0 0 0 0 0 0 0 0 0 0 0 0.2 0"/>
<feBlend mode="normal" in2="BackgroundImageFix" result="effect1_dropShadow_204_41136"/>
<feBlend mode="normal" in="SourceGraphic" in2="effect1_dropShadow_204_41136" result="shape"/>
</filter>
<filter id="filter11_d_204_41136" x="254.195" y="144.859" width="34.4375" height="38.0605" filterUnits="userSpaceOnUse" color-interpolation-filters="sRGB">
<feFlood flood-opacity="0" result="BackgroundImageFix"/>
<feColorMatrix in="SourceAlpha" type="matrix" values="0 0 0 0 0 0 0 0 0 0 0 0 0 0 0 0 0 0 127 0" result="hardAlpha"/>
<feOffset dx="-2" dy="1"/>
<feGaussianBlur stdDeviation="1.5"/>
<feComposite in2="hardAlpha" operator="out"/>
<feColorMatrix type="matrix" values="0 0 0 0 0 0 0 0 0 0 0 0 0 0 0 0 0 0 0.2 0"/>
<feBlend mode="normal" in2="BackgroundImageFix" result="effect1_dropShadow_204_41136"/>
<feBlend mode="normal" in="SourceGraphic" in2="effect1_dropShadow_204_41136" result="shape"/>
</filter>
<filter id="filter12_f_204_41136" x="118.812" y="119.633" width="316.363" height="205.588" filterUnits="userSpaceOnUse" color-interpolation-filters="sRGB">
<feFlood flood-opacity="0" result="BackgroundImageFix"/>
<feBlend mode="normal" in="SourceGraphic" in2="BackgroundImageFix" result="shape"/>
<feGaussianBlur stdDeviation="2.5" result="effect1_foregroundBlur_204_41136"/>
</filter>
<filter id="filter13_i_204_41136" x="142.641" y="54.3809" width="36.5625" height="27.9434" filterUnits="userSpaceOnUse" color-interpolation-filters="sRGB">
<feFlood flood-opacity="0" result="BackgroundImageFix"/>
<feBlend mode="normal" in="SourceGraphic" in2="BackgroundImageFix" result="shape"/>
<feColorMatrix in="SourceAlpha" type="matrix" values="0 0 0 0 0 0 0 0 0 0 0 0 0 0 0 0 0 0 127 0" result="hardAlpha"/>
<feOffset dx="-3"/>
<feGaussianBlur stdDeviation="1"/>
<feComposite in2="hardAlpha" operator="arithmetic" k2="-1" k3="1"/>
<feColorMatrix type="matrix" values="0 0 0 0 0.180392 0 0 0 0 0.356863 0 0 0 0 1 0 0 0 0.2 0"/>
<feBlend mode="normal" in2="shape" result="effect1_innerShadow_204_41136"/>
</filter>
<filter id="filter14_di_204_41136" x="144.52" y="53.7871" width="35.4023" height="29.3379" filterUnits="userSpaceOnUse" color-interpolation-filters="sRGB">
<feFlood flood-opacity="0" result="BackgroundImageFix"/>
<feColorMatrix in="SourceAlpha" type="matrix" values="0 0 0 0 0 0 0 0 0 0 0 0 0 0 0 0 0 0 127 0" result="hardAlpha"/>
<feOffset/>
<feGaussianBlur stdDeviation="1"/>
<feComposite in2="hardAlpha" operator="out"/>
<feColorMatrix type="matrix" values="0 0 0 0 0.0117647 0 0 0 0 0.392157 0 0 0 0 1 0 0 0 0.6 0"/>
<feBlend mode="normal" in2="BackgroundImageFix" result="effect1_dropShadow_204_41136"/>
<feBlend mode="normal" in="SourceGraphic" in2="effect1_dropShadow_204_41136" result="shape"/>
<feColorMatrix in="SourceAlpha" type="matrix" values="0 0 0 0 0 0 0 0 0 0 0 0 0 0 0 0 0 0 127 0" result="hardAlpha"/>
<feOffset dx="-2"/>
<feGaussianBlur stdDeviation="0.5"/>
<feComposite in2="hardAlpha" operator="arithmetic" k2="-1" k3="1"/>
<feColorMatrix type="matrix" values="0 0 0 0 0.180392 0 0 0 0 0.356863 0 0 0 0 1 0 0 0 0.2 0"/>
<feBlend mode="normal" in2="shape" result="effect2_innerShadow_204_41136"/>
</filter>
<filter id="filter15_d_204_41136" x="144.52" y="53.7871" width="35.4023" height="29.3379" filterUnits="userSpaceOnUse" color-interpolation-filters="sRGB">
<feFlood flood-opacity="0" result="BackgroundImageFix"/>
<feColorMatrix in="SourceAlpha" type="matrix" values="0 0 0 0 0 0 0 0 0 0 0 0 0 0 0 0 0 0 127 0" result="hardAlpha"/>
<feOffset/>
<feGaussianBlur stdDeviation="1"/>
<feComposite in2="hardAlpha" operator="out"/>
<feColorMatrix type="matrix" values="0 0 0 0 0.0117647 0 0 0 0 0.392157 0 0 0 0 1 0 0 0 0.6 0"/>
<feBlend mode="normal" in2="BackgroundImageFix" result="effect1_dropShadow_204_41136"/>
<feBlend mode="normal" in="SourceGraphic" in2="effect1_dropShadow_204_41136" result="shape"/>
</filter>
<filter id="filter16_i_204_41136" x="386.352" y="305.803" width="18.7344" height="13.9297" filterUnits="userSpaceOnUse" color-interpolation-filters="sRGB">
<feFlood flood-opacity="0" result="BackgroundImageFix"/>
<feBlend mode="normal" in="SourceGraphic" in2="BackgroundImageFix" result="shape"/>
<feColorMatrix in="SourceAlpha" type="matrix" values="0 0 0 0 0 0 0 0 0 0 0 0 0 0 0 0 0 0 127 0" result="hardAlpha"/>
<feOffset dx="-3"/>
<feGaussianBlur stdDeviation="1"/>
<feComposite in2="hardAlpha" operator="arithmetic" k2="-1" k3="1"/>
<feColorMatrix type="matrix" values="0 0 0 0 0.180392 0 0 0 0 0.356863 0 0 0 0 1 0 0 0 0.2 0"/>
<feBlend mode="normal" in2="shape" result="effect1_innerShadow_204_41136"/>
</filter>
<filter id="filter17_di_204_41136" x="387.156" y="304.602" width="19.1992" height="16.6328" filterUnits="userSpaceOnUse" color-interpolation-filters="sRGB">
<feFlood flood-opacity="0" result="BackgroundImageFix"/>
<feColorMatrix in="SourceAlpha" type="matrix" values="0 0 0 0 0 0 0 0 0 0 0 0 0 0 0 0 0 0 127 0" result="hardAlpha"/>
<feOffset/>
<feGaussianBlur stdDeviation="1"/>
<feComposite in2="hardAlpha" operator="out"/>
<feColorMatrix type="matrix" values="0 0 0 0 0.0117647 0 0 0 0 0.392157 0 0 0 0 1 0 0 0 0.6 0"/>
<feBlend mode="normal" in2="BackgroundImageFix" result="effect1_dropShadow_204_41136"/>
<feBlend mode="normal" in="SourceGraphic" in2="effect1_dropShadow_204_41136" result="shape"/>
<feColorMatrix in="SourceAlpha" type="matrix" values="0 0 0 0 0 0 0 0 0 0 0 0 0 0 0 0 0 0 127 0" result="hardAlpha"/>
<feOffset dx="-2"/>
<feGaussianBlur stdDeviation="0.5"/>
<feComposite in2="hardAlpha" operator="arithmetic" k2="-1" k3="1"/>
<feColorMatrix type="matrix" values="0 0 0 0 0.180392 0 0 0 0 0.356863 0 0 0 0 1 0 0 0 0.2 0"/>
<feBlend mode="normal" in2="shape" result="effect2_innerShadow_204_41136"/>
</filter>
<filter id="filter18_d_204_41136" x="387.156" y="304.602" width="19.1992" height="16.6328" filterUnits="userSpaceOnUse" color-interpolation-filters="sRGB">
<feFlood flood-opacity="0" result="BackgroundImageFix"/>
<feColorMatrix in="SourceAlpha" type="matrix" values="0 0 0 0 0 0 0 0 0 0 0 0 0 0 0 0 0 0 127 0" result="hardAlpha"/>
<feOffset/>
<feGaussianBlur stdDeviation="1"/>
<feComposite in2="hardAlpha" operator="out"/>
<feColorMatrix type="matrix" values="0 0 0 0 0.0117647 0 0 0 0 0.392157 0 0 0 0 1 0 0 0 0.6 0"/>
<feBlend mode="normal" in2="BackgroundImageFix" result="effect1_dropShadow_204_41136"/>
<feBlend mode="normal" in="SourceGraphic" in2="effect1_dropShadow_204_41136" result="shape"/>
</filter>
<filter id="filter19_i_204_41136" x="207.242" y="359.982" width="46.7344" height="33.2324" filterUnits="userSpaceOnUse" color-interpolation-filters="sRGB">
<feFlood flood-opacity="0" result="BackgroundImageFix"/>
<feBlend mode="normal" in="SourceGraphic" in2="BackgroundImageFix" result="shape"/>
<feColorMatrix in="SourceAlpha" type="matrix" values="0 0 0 0 0 0 0 0 0 0 0 0 0 0 0 0 0 0 127 0" result="hardAlpha"/>
<feOffset dx="-3"/>
<feGaussianBlur stdDeviation="1"/>
<feComposite in2="hardAlpha" operator="arithmetic" k2="-1" k3="1"/>
<feColorMatrix type="matrix" values="0 0 0 0 0.773333 0 0 0 0 0.716667 0 0 0 0 1 0 0 0 0.2 0"/>
<feBlend mode="normal" in2="shape" result="effect1_innerShadow_204_41136"/>
</filter>
<filter id="filter20_di_204_41136" x="209.121" y="359.184" width="44.6523" height="34.1152" filterUnits="userSpaceOnUse" color-interpolation-filters="sRGB">
<feFlood flood-opacity="0" result="BackgroundImageFix"/>
<feColorMatrix in="SourceAlpha" type="matrix" values="0 0 0 0 0 0 0 0 0 0 0 0 0 0 0 0 0 0 127 0" result="hardAlpha"/>
<feOffset/>
<feGaussianBlur stdDeviation="1"/>
<feComposite in2="hardAlpha" operator="out"/>
<feColorMatrix type="matrix" values="0 0 0 0 0.560313 0 0 0 0 0.5709 0 0 0 0 0.825 0 0 0 0.6 0"/>
<feBlend mode="normal" in2="BackgroundImageFix" result="effect1_dropShadow_204_41136"/>
<feBlend mode="normal" in="SourceGraphic" in2="effect1_dropShadow_204_41136" result="shape"/>
<feColorMatrix in="SourceAlpha" type="matrix" values="0 0 0 0 0 0 0 0 0 0 0 0 0 0 0 0 0 0 127 0" result="hardAlpha"/>
<feOffset dx="-2"/>
<feGaussianBlur stdDeviation="0.5"/>
<feComposite in2="hardAlpha" operator="arithmetic" k2="-1" k3="1"/>
<feColorMatrix type="matrix" values="0 0 0 0 0.713014 0 0 0 0 0.679861 0 0 0 0 0.916667 0 0 0 0.2 0"/>
<feBlend mode="normal" in2="shape" result="effect2_innerShadow_204_41136"/>
</filter>
<filter id="filter21_d_204_41136" x="209.121" y="360.184" width="44.6523" height="34.1152" filterUnits="userSpaceOnUse" color-interpolation-filters="sRGB">
<feFlood flood-opacity="0" result="BackgroundImageFix"/>
<feColorMatrix in="SourceAlpha" type="matrix" values="0 0 0 0 0 0 0 0 0 0 0 0 0 0 0 0 0 0 127 0" result="hardAlpha"/>
<feOffset dy="1"/>
<feGaussianBlur stdDeviation="1"/>
<feComposite in2="hardAlpha" operator="out"/>
<feColorMatrix type="matrix" values="0 0 0 0 0.7705 0 0 0 0 0.7475 0 0 0 0 0.8625 0 0 0 0.6 0"/>
<feBlend mode="normal" in2="BackgroundImageFix" result="effect1_dropShadow_204_41136"/>
<feBlend mode="normal" in="SourceGraphic" in2="effect1_dropShadow_204_41136" result="shape"/>
</filter>
<filter id="filter22_d_204_41136" x="217.258" y="368.738" width="30.582" height="15.6348" filterUnits="userSpaceOnUse" color-interpolation-filters="sRGB">
<feFlood flood-opacity="0" result="BackgroundImageFix"/>
<feColorMatrix in="SourceAlpha" type="matrix" values="0 0 0 0 0 0 0 0 0 0 0 0 0 0 0 0 0 0 127 0" result="hardAlpha"/>
<feOffset dy="2"/>
<feGaussianBlur stdDeviation="0.5"/>
<feComposite in2="hardAlpha" operator="out"/>
<feColorMatrix type="matrix" values="0 0 0 0 0.0117647 0 0 0 0 0.392157 0 0 0 0 1 0 0 0 0.17 0"/>
<feBlend mode="normal" in2="BackgroundImageFix" result="effect1_dropShadow_204_41136"/>
<feBlend mode="normal" in="SourceGraphic" in2="effect1_dropShadow_204_41136" result="shape"/>
</filter>
<filter id="filter23_i_204_41136" x="39.3164" y="148.305" width="21.0664" height="27.4453" filterUnits="userSpaceOnUse" color-interpolation-filters="sRGB">
<feFlood flood-opacity="0" result="BackgroundImageFix"/>
<feBlend mode="normal" in="SourceGraphic" in2="BackgroundImageFix" result="shape"/>
<feColorMatrix in="SourceAlpha" type="matrix" values="0 0 0 0 0 0 0 0 0 0 0 0 0 0 0 0 0 0 127 0" result="hardAlpha"/>
<feOffset dx="-3"/>
<feGaussianBlur stdDeviation="1"/>
<feComposite in2="hardAlpha" operator="arithmetic" k2="-1" k3="1"/>
<feColorMatrix type="matrix" values="0 0 0 0 0.773333 0 0 0 0 0.716667 0 0 0 0 1 0 0 0 0.2 0"/>
<feBlend mode="normal" in2="shape" result="effect1_innerShadow_204_41136"/>
</filter>
<filter id="filter24_di_204_41136" x="40.0234" y="147.693" width="21.2695" height="28.9453" filterUnits="userSpaceOnUse" color-interpolation-filters="sRGB">
<feFlood flood-opacity="0" result="BackgroundImageFix"/>
<feColorMatrix in="SourceAlpha" type="matrix" values="0 0 0 0 0 0 0 0 0 0 0 0 0 0 0 0 0 0 127 0" result="hardAlpha"/>
<feOffset/>
<feGaussianBlur stdDeviation="1"/>
<feComposite in2="hardAlpha" operator="out"/>
<feColorMatrix type="matrix" values="0 0 0 0 0.560313 0 0 0 0 0.5709 0 0 0 0 0.825 0 0 0 0.6 0"/>
<feBlend mode="normal" in2="BackgroundImageFix" result="effect1_dropShadow_204_41136"/>
<feBlend mode="normal" in="SourceGraphic" in2="effect1_dropShadow_204_41136" result="shape"/>
<feColorMatrix in="SourceAlpha" type="matrix" values="0 0 0 0 0 0 0 0 0 0 0 0 0 0 0 0 0 0 127 0" result="hardAlpha"/>
<feOffset dx="-2"/>
<feGaussianBlur stdDeviation="0.5"/>
<feComposite in2="hardAlpha" operator="arithmetic" k2="-1" k3="1"/>
<feColorMatrix type="matrix" values="0 0 0 0 0.713014 0 0 0 0 0.679861 0 0 0 0 0.916667 0 0 0 0.2 0"/>
<feBlend mode="normal" in2="shape" result="effect2_innerShadow_204_41136"/>
</filter>
<filter id="filter25_d_204_41136" x="40.0234" y="148.693" width="21.2695" height="28.9453" filterUnits="userSpaceOnUse" color-interpolation-filters="sRGB">
<feFlood flood-opacity="0" result="BackgroundImageFix"/>
<feColorMatrix in="SourceAlpha" type="matrix" values="0 0 0 0 0 0 0 0 0 0 0 0 0 0 0 0 0 0 127 0" result="hardAlpha"/>
<feOffset dy="1"/>
<feGaussianBlur stdDeviation="1"/>
<feComposite in2="hardAlpha" operator="out"/>
<feColorMatrix type="matrix" values="0 0 0 0 0.7705 0 0 0 0 0.7475 0 0 0 0 0.8625 0 0 0 0.6 0"/>
<feBlend mode="normal" in2="BackgroundImageFix" result="effect1_dropShadow_204_41136"/>
<feBlend mode="normal" in="SourceGraphic" in2="effect1_dropShadow_204_41136" result="shape"/>
</filter>
<filter id="filter26_i_204_41136" x="14.1211" y="304.521" width="59.6641" height="58.3848" filterUnits="userSpaceOnUse" color-interpolation-filters="sRGB">
<feFlood flood-opacity="0" result="BackgroundImageFix"/>
<feBlend mode="normal" in="SourceGraphic" in2="BackgroundImageFix" result="shape"/>
<feColorMatrix in="SourceAlpha" type="matrix" values="0 0 0 0 0 0 0 0 0 0 0 0 0 0 0 0 0 0 127 0" result="hardAlpha"/>
<feOffset dx="-3"/>
<feGaussianBlur stdDeviation="1"/>
<feComposite in2="hardAlpha" operator="arithmetic" k2="-1" k3="1"/>
<feColorMatrix type="matrix" values="0 0 0 0 0.180392 0 0 0 0 0.356863 0 0 0 0 1 0 0 0 0.2 0"/>
<feBlend mode="normal" in2="shape" result="effect1_innerShadow_204_41136"/>
</filter>
<filter id="filter27_di_204_41136" x="16.1953" y="306.201" width="56.3438" height="57.0059" filterUnits="userSpaceOnUse" color-interpolation-filters="sRGB">
<feFlood flood-opacity="0" result="BackgroundImageFix"/>
<feColorMatrix in="SourceAlpha" type="matrix" values="0 0 0 0 0 0 0 0 0 0 0 0 0 0 0 0 0 0 127 0" result="hardAlpha"/>
<feOffset dy="1"/>
<feGaussianBlur stdDeviation="1"/>
<feComposite in2="hardAlpha" operator="out"/>
<feColorMatrix type="matrix" values="0 0 0 0 0.509804 0 0 0 0 0.278431 0 0 0 0 0.898039 0 0 0 0.2 0"/>
<feBlend mode="normal" in2="BackgroundImageFix" result="effect1_dropShadow_204_41136"/>
<feBlend mode="normal" in="SourceGraphic" in2="effect1_dropShadow_204_41136" result="shape"/>
<feColorMatrix in="SourceAlpha" type="matrix" values="0 0 0 0 0 0 0 0 0 0 0 0 0 0 0 0 0 0 127 0" result="hardAlpha"/>
<feOffset dx="-2"/>
<feGaussianBlur stdDeviation="0.5"/>
<feComposite in2="hardAlpha" operator="arithmetic" k2="-1" k3="1"/>
<feColorMatrix type="matrix" values="0 0 0 0 0.180392 0 0 0 0 0.356863 0 0 0 0 1 0 0 0 0.2 0"/>
<feBlend mode="normal" in2="shape" result="effect2_innerShadow_204_41136"/>
</filter>
<filter id="filter28_d_204_41136" x="16.1953" y="306.201" width="56.3438" height="57.0059" filterUnits="userSpaceOnUse" color-interpolation-filters="sRGB">
<feFlood flood-opacity="0" result="BackgroundImageFix"/>
<feColorMatrix in="SourceAlpha" type="matrix" values="0 0 0 0 0 0 0 0 0 0 0 0 0 0 0 0 0 0 127 0" result="hardAlpha"/>
<feOffset dy="1"/>
<feGaussianBlur stdDeviation="1"/>
<feComposite in2="hardAlpha" operator="out"/>
<feColorMatrix type="matrix" values="0 0 0 0 0.509804 0 0 0 0 0.278431 0 0 0 0 0.898039 0 0 0 0.2 0"/>
<feBlend mode="normal" in2="BackgroundImageFix" result="effect1_dropShadow_204_41136"/>
<feBlend mode="normal" in="SourceGraphic" in2="effect1_dropShadow_204_41136" result="shape"/>
</filter>
<filter id="filter29_d_204_41136" x="24.4023" y="314.666" width="35.0117" height="35.5605" filterUnits="userSpaceOnUse" color-interpolation-filters="sRGB">
<feFlood flood-opacity="0" result="BackgroundImageFix"/>
<feColorMatrix in="SourceAlpha" type="matrix" values="0 0 0 0 0 0 0 0 0 0 0 0 0 0 0 0 0 0 127 0" result="hardAlpha"/>
<feOffset dx="-1"/>
<feGaussianBlur stdDeviation="1"/>
<feComposite in2="hardAlpha" operator="out"/>
<feColorMatrix type="matrix" values="0 0 0 0 0.509804 0 0 0 0 0.278431 0 0 0 0 0.898039 0 0 0 0.2 0"/>
<feBlend mode="normal" in2="BackgroundImageFix" result="effect1_dropShadow_204_41136"/>
<feBlend mode="normal" in="SourceGraphic" in2="effect1_dropShadow_204_41136" result="shape"/>
</filter>
<filter id="filter30_i_204_41136" x="333.559" y="70.4805" width="22.5742" height="20.7129" filterUnits="userSpaceOnUse" color-interpolation-filters="sRGB">
<feFlood flood-opacity="0" result="BackgroundImageFix"/>
<feBlend mode="normal" in="SourceGraphic" in2="BackgroundImageFix" result="shape"/>
<feColorMatrix in="SourceAlpha" type="matrix" values="0 0 0 0 0 0 0 0 0 0 0 0 0 0 0 0 0 0 127 0" result="hardAlpha"/>
<feOffset dx="1"/>
<feGaussianBlur stdDeviation="0.25"/>
<feComposite in2="hardAlpha" operator="arithmetic" k2="-1" k3="1"/>
<feColorMatrix type="matrix" values="0 0 0 0 0.866453 0 0 0 0 0.791667 0 0 0 0 1 0 0 0 1 0"/>
<feBlend mode="normal" in2="shape" result="effect1_innerShadow_204_41136"/>
</filter>
<filter id="filter31_di_204_41136" x="333.863" y="71.4141" width="21.0469" height="20.2969" filterUnits="userSpaceOnUse" color-interpolation-filters="sRGB">
<feFlood flood-opacity="0" result="BackgroundImageFix"/>
<feColorMatrix in="SourceAlpha" type="matrix" values="0 0 0 0 0 0 0 0 0 0 0 0 0 0 0 0 0 0 127 0" result="hardAlpha"/>
<feOffset dy="1"/>
<feGaussianBlur stdDeviation="0.25"/>
<feComposite in2="hardAlpha" operator="out"/>
<feColorMatrix type="matrix" values="0 0 0 0 0.509804 0 0 0 0 0.278431 0 0 0 0 0.898039 0 0 0 0.1 0"/>
<feBlend mode="normal" in2="BackgroundImageFix" result="effect1_dropShadow_204_41136"/>
<feBlend mode="normal" in="SourceGraphic" in2="effect1_dropShadow_204_41136" result="shape"/>
<feColorMatrix in="SourceAlpha" type="matrix" values="0 0 0 0 0 0 0 0 0 0 0 0 0 0 0 0 0 0 127 0" result="hardAlpha"/>
<feOffset/>
<feGaussianBlur stdDeviation="0.5"/>
<feComposite in2="hardAlpha" operator="arithmetic" k2="-1" k3="1"/>
<feColorMatrix type="matrix" values="0 0 0 0 0.847756 0 0 0 0 0.7625 0 0 0 0 1 0 0 0 1 0"/>
<feBlend mode="normal" in2="shape" result="effect2_innerShadow_204_41136"/>
</filter>
<filter id="filter32_d_204_41136" x="333.363" y="70.9141" width="22.0469" height="20.7969" filterUnits="userSpaceOnUse" color-interpolation-filters="sRGB">
<feFlood flood-opacity="0" result="BackgroundImageFix"/>
<feColorMatrix in="SourceAlpha" type="matrix" values="0 0 0 0 0 0 0 0 0 0 0 0 0 0 0 0 0 0 127 0" result="hardAlpha"/>
<feOffset dy="0.5"/>
<feGaussianBlur stdDeviation="0.5"/>
<feComposite in2="hardAlpha" operator="out"/>
<feColorMatrix type="matrix" values="0 0 0 0 0.509804 0 0 0 0 0.278431 0 0 0 0 0.898039 0 0 0 0.2 0"/>
<feBlend mode="normal" in2="BackgroundImageFix" result="effect1_dropShadow_204_41136"/>
<feBlend mode="normal" in="SourceGraphic" in2="effect1_dropShadow_204_41136" result="shape"/>
</filter>
<linearGradient id="paint0_linear_204_41136" x1="335.858" y1="90.0661" x2="355.126" y2="73.927" gradientUnits="userSpaceOnUse">
<stop stop-color="#BC96FF"/>
<stop offset="0.09375" stop-color="#D1B7FF" stop-opacity="0.851103"/>
<stop offset="0.817708" stop-color="#D0B8FD"/>
<stop offset="0.880208" stop-color="#CEB3FF" stop-opacity="0.514755"/>
<stop offset="1" stop-color="#B4ADF7"/>
</linearGradient>
</defs>
</svg>