<svg width="636" height="436" viewBox="0 0 636 436" fill="none" xmlns="http://www.w3.org/2000/svg">
<path d="M356.49 345.883C356.49 345.883 347.83 405.323 280.31 394.363C212.79 383.403 82.3101 337.223 100.77 199.873C119.23 62.5226 270.19 40.2426 309.11 40.0026C349.87 39.7626 433.77 56.1626 482.83 146.193C531.89 236.223 512.26 287.013 471.83 292.783C431.4 298.553 372.6 328.563 356.49 345.883Z" fill="#E6F4FC"/>
<path d="M453.92 181.403C453.92 181.403 473.15 159.343 503.55 152.803C503.55 152.823 478.6 157.823 453.92 181.403Z" fill="#4D8680"/>
<path d="M527.97 148.532C527.97 148.532 510.36 140.932 501.51 150.942C501.51 150.942 499.01 155.072 504.51 156.042C510.01 157.012 522.29 151.902 527.97 148.532Z" fill="url(#paint0_linear)"/>
<path d="M503.41 223.806C503.41 223.806 495.096 206.522 481.851 208.277C481.851 208.277 477.255 209.757 480.772 214.095C484.289 218.434 496.912 222.627 503.41 223.806Z" fill="url(#paint1_linear)"/>
<path d="M142.599 207.099C142.599 207.099 155.206 197.127 164.541 203.31C164.541 203.31 167.461 206.111 163.219 208.089C158.977 210.068 147.928 208.595 142.599 207.099Z" fill="url(#paint2_linear)"/>
<path d="M487.7 141.543C487.7 141.543 489.09 138.933 490.18 141.203C491.27 143.473 496.01 153.323 490.29 156.923C484.57 160.523 482.95 157.923 482.95 157.923C482.95 157.923 477.38 155.483 487.7 141.543Z" fill="url(#paint3_linear)"/>
<path d="M488.265 170.999C488.265 170.999 490.875 172.389 488.605 173.479C486.335 174.569 476.485 179.309 472.885 173.589C469.285 167.869 471.885 166.249 471.885 166.249C471.885 166.249 474.325 160.679 488.265 170.999Z" fill="url(#paint4_linear)"/>
<path d="M489.9 157.252C489.9 157.252 496.9 157.452 500.22 165.972C500.22 165.972 485.22 166.552 485.92 159.372C485.92 159.372 486.56 157.322 489.9 157.252Z" fill="url(#paint5_linear)"/>
<path d="M461.4 174.953C461.4 174.953 468.46 175.143 471.73 183.673C471.73 183.673 456.73 184.253 457.43 177.073C457.43 177.073 458.07 175.023 461.4 174.953Z" fill="url(#paint6_linear)"/>
<path d="M473.4 165.872C473.4 165.872 478.25 160.752 474.54 152.402C474.54 152.402 463.54 162.612 469.1 167.192C469.1 167.192 471 168.182 473.4 165.872Z" fill="url(#paint7_linear)"/>
<path d="M469.537 219.253C469.537 219.253 469.246 222.195 467.374 220.511C465.502 218.827 457.368 211.524 461.287 206.017C465.206 200.51 467.693 202.298 467.693 202.298C467.693 202.298 473.773 202.433 469.537 219.253Z" fill="url(#paint8_linear)"/>
<path d="M468.618 203.556C468.618 203.556 475.199 206.091 481.508 199.481C481.508 199.481 467.879 193.197 465.761 200.082C465.761 200.082 465.569 202.216 468.618 203.556Z" fill="url(#paint9_linear)"/>
<path d="M175.175 194.291C175.175 194.291 175.415 191.344 177.316 192.994C179.218 194.645 187.479 201.804 183.658 207.379C179.837 212.954 177.318 211.211 177.318 211.211C177.318 211.211 171.237 211.182 175.175 194.291Z" fill="url(#paint10_linear)"/>
<path d="M178.686 229.014C178.686 229.014 175.857 229.876 176.692 227.5C177.526 225.124 181.139 214.808 187.73 216.307C194.32 217.806 193.627 220.79 193.627 220.79C193.627 220.79 195.84 226.454 178.686 229.014Z" fill="url(#paint11_linear)"/>
<path d="M176.371 209.969C176.371 209.969 169.746 207.55 163.555 214.27C163.555 214.27 177.293 220.313 179.289 213.391C179.289 213.391 179.443 211.255 176.371 209.969Z" fill="url(#paint12_linear)"/>
<path d="M460.61 174.543C460.61 174.543 463.2 167.973 456.61 161.623C456.61 161.623 450.2 175.203 457.08 177.363C457.1 177.363 459.24 177.583 460.61 174.543Z" fill="url(#paint13_linear)"/>
<path d="M427.17 194.052C427.17 194.052 456.42 192.842 482.07 210.402C482.07 210.402 461.28 195.732 427.17 194.052Z" fill="#4D8680"/>
<path d="M437 195.053C437 195.053 441.71 200.303 437.77 208.543C437.77 208.543 427.03 198.053 432.77 193.623C432.73 193.623 434.66 192.673 437 195.053Z" fill="url(#paint14_linear)"/>
<path d="M449.23 213.163C449.23 213.163 450.55 215.813 451.7 213.563C452.85 211.313 457.85 201.563 452.23 197.863C446.61 194.163 444.92 196.663 444.92 196.663C444.92 196.663 439.28 198.953 449.23 213.163Z" fill="url(#paint15_linear)"/>
<path d="M451.84 197.512C451.84 197.512 458.9 197.512 462.4 189.072C462.4 189.072 447.4 188.072 447.93 195.292C447.93 195.292 448.49 197.362 451.84 197.512Z" fill="url(#paint16_linear)"/>
<path d="M436.75 194.193C436.75 194.193 443.3 191.553 443.39 182.413C443.39 182.413 429.13 187.103 432.29 193.593C432.29 193.593 433.61 195.293 436.75 194.193Z" fill="url(#paint17_linear)"/>
<path d="M209.72 233.573C209.72 233.573 190.49 211.513 160.09 204.973C160.09 204.973 185.04 209.973 209.72 233.573Z" fill="#4D8680"/>
<path d="M202.24 227.123C202.24 227.123 195.18 227.323 191.91 235.843C191.91 235.843 206.91 236.423 206.21 229.243C206.21 229.243 205.57 227.193 202.24 227.123Z" fill="url(#paint18_linear)"/>
<path d="M190.24 218.043C190.24 218.043 185.39 212.923 189.1 204.573C189.1 204.573 200.1 214.783 194.55 219.363C194.55 219.363 192.64 220.353 190.24 218.043Z" fill="url(#paint19_linear)"/>
<path d="M203.03 226.712C203.03 226.712 200.44 220.142 207.03 213.792C207.03 213.792 213.44 227.372 206.56 229.532C206.54 229.532 204.4 229.752 203.03 226.712Z" fill="url(#paint20_linear)"/>
<path d="M410.78 333.693C410.78 333.693 417.96 311.243 488.37 307.013C488.37 307.013 474.9 359.853 405.65 358.183C405.65 358.183 401.16 347.413 410.78 333.693Z" fill="url(#paint21_linear)"/>
<path d="M486.83 307.013C486.83 307.013 471.05 352.933 417.96 355.753C364.87 358.573 407.49 325.483 407.49 325.483C407.49 325.483 453.1 308.423 486.83 307.013Z" fill="url(#paint22_linear)"/>
<path d="M488.55 307.013C488.55 307.013 457 354.083 407.88 351.013C358.76 347.943 424.04 316.903 424.04 316.903C424.04 316.903 465.85 307.273 488.55 307.013Z" fill="url(#paint23_linear)"/>
<path d="M455.49 310.823C455.49 310.823 474.93 307.273 478.78 307.513C478.78 307.513 463.78 341.733 422.73 344.683L421.58 317.403L455.49 310.823Z" fill="url(#paint24_linear)"/>
<path d="M388 296.442C388 296.442 405.7 257.882 471.37 261.132C471.37 261.132 458.03 344.132 397.24 352.362C336.45 360.592 388 296.442 388 296.442Z" fill="url(#paint25_linear)"/>
<path d="M471.37 261.022C471.37 261.022 406.99 307.872 396.49 320.182C385.99 332.492 381.61 285.562 382.38 285.562C383.15 285.562 422.63 259.312 471.37 261.022Z" fill="url(#paint26_linear)"/>
<path d="M173.49 337.883C173.49 337.883 139.24 321.733 122.7 270.173C122.7 270.173 155.98 267.093 192.92 294.413C229.86 321.733 207.15 342.503 207.15 342.503L173.49 337.883Z" fill="url(#paint27_linear)"/>
<path d="M123.15 270.103C123.15 270.103 169.07 296.003 191.77 325.103C214.47 354.203 198.69 298.553 198.69 298.553C198.69 298.553 165.73 268.943 123.15 270.103Z" fill="url(#paint28_linear)"/>
<path opacity="0.67" d="M160.43 276.513C160.43 276.513 174.78 303.283 198.64 314.053C222.5 324.823 192.93 292.373 178.24 284.623C166.99 278.683 163.59 277.713 160.43 276.513Z" fill="url(#paint29_linear)"/>
<path d="M198.49 306.283C198.49 306.283 168.35 291.413 156.3 242.933C156.3 242.933 174.3 243.313 197.6 258.063C220.9 272.813 215.81 304.963 215.81 304.963L198.49 306.283Z" fill="url(#paint30_linear)"/>
<path opacity="0.69" d="M156.31 242.933C156.31 242.933 174.39 249.853 180.55 263.063C186.71 276.273 187.09 281.663 192.49 282.823C197.89 283.983 194.11 255.943 194.11 255.943C194.11 255.943 174.95 244.113 156.31 242.933Z" fill="url(#paint31_linear)"/>
<path d="M396.85 252.173C431.683 252.173 459.92 224.356 459.92 190.043C459.92 155.729 431.683 127.913 396.85 127.913C362.018 127.913 333.78 155.729 333.78 190.043C333.78 224.356 362.018 252.173 396.85 252.173Z" fill="#F9EE60"/>
<path d="M405.16 255.243C435.723 255.243 460.5 228.151 460.5 194.733C460.5 161.314 435.723 134.223 405.16 134.223C374.596 134.223 349.82 161.314 349.82 194.733C349.82 228.151 374.596 255.243 405.16 255.243Z" fill="#DA5B27"/>
<path d="M396.85 250.513C430.247 250.513 457.32 223.439 457.32 190.043C457.32 156.646 430.247 129.573 396.85 129.573C363.453 129.573 336.38 156.646 336.38 190.043C336.38 223.439 363.453 250.513 396.85 250.513Z" fill="url(#paint32_linear)"/>
<path d="M367.99 198.433L359.74 190.283L368.16 181.763L376.5 190.003L367.99 198.433ZM427.45 198.523L436.23 189.523L427.64 181.453L419.04 190.163L427.45 198.523ZM413.01 196.313L398.14 211.373L382.61 196.043L374.1 204.463L398.1 228.203L421.37 204.633L413.01 196.313ZM382.78 184.123L397.66 169.063L412.82 184.063L421.5 175.463L397.66 151.913L374.21 175.663L382.78 184.123ZM427.64 181.493L419.04 190.203L427.47 198.493L436.23 189.563L427.64 181.493ZM397.77 181.093L388.99 189.823L397.73 198.613L406.52 189.863L397.77 181.093Z" fill="#D55C26"/>
<path d="M264.74 240.783C285.296 240.783 301.96 224.119 301.96 203.563C301.96 183.007 285.296 166.343 264.74 166.343C244.184 166.343 227.52 183.007 227.52 203.563C227.52 224.119 244.184 240.783 264.74 240.783Z" fill="#D55C26"/>
<path d="M261.92 236.422C282.476 236.422 299.14 219.758 299.14 199.202C299.14 178.646 282.476 161.982 261.92 161.982C241.364 161.982 224.7 178.646 224.7 199.202C224.7 219.758 241.364 236.422 261.92 236.422Z" fill="#FBEB5F"/>
<path d="M261.92 238.473C282.476 238.473 299.14 221.809 299.14 201.253C299.14 180.697 282.476 164.033 261.92 164.033C241.364 164.033 224.7 180.697 224.7 201.253C224.7 221.809 241.364 238.473 261.92 238.473Z" fill="url(#paint33_linear)"/>
<path d="M247.07 212.823L240.29 209.643L243.57 202.643L250.43 205.853L247.07 212.823ZM283.29 200.063L286.7 192.713L279.7 189.653L276.38 196.823L283.29 200.063ZM274.02 201.823L268.21 214.203L255.45 208.203L252.09 215.203L271.84 224.483L280.93 205.113L274.02 201.823ZM253.02 200.923L258.83 188.543L271.29 194.393L274.72 187.283L255.12 178.083L245.97 197.603L253.02 200.923ZM279.76 189.653L276.38 196.823L283.29 200.063L286.7 192.733L279.76 189.653ZM261.49 195.823L258.03 203.043L265.25 206.513L268.71 199.293L261.49 195.823Z" fill="#D55C26"/>
<path d="M418.81 258.092V222.692C418.81 222.692 417.81 213.462 407.27 212.172C396.73 210.882 211.56 212.172 211.56 212.172C211.56 212.172 196.68 211.172 195.91 222.952C195.14 234.732 195.91 344.272 195.91 344.272C195.91 344.272 194.37 357.872 207.71 358.122C221.05 358.372 407.27 358.122 407.27 358.122C407.27 358.122 418.27 356.072 418.81 347.352C419.35 338.632 418.81 222.692 418.81 222.692" fill="#2A62F5"/>
<path d="M421.76 255.533H349.94C349.156 255.562 348.387 255.751 347.677 256.086C346.968 256.421 346.334 256.896 345.814 257.483C345.293 258.07 344.897 258.756 344.649 259.5C344.401 260.244 344.306 261.031 344.37 261.813V300.033H347.76C347.76 300.033 348.66 309.393 353.15 309.523C357.64 309.653 418.81 309.523 418.81 309.523L421.76 258.583V255.533Z" fill="#2654B7"/>
<path d="M421.76 258.582H350.49C350.49 258.582 344.59 258.192 344.49 262.812C344.39 267.432 344.49 301.812 344.49 301.812C344.49 301.812 344.75 306.682 349.75 306.552C354.75 306.422 421.83 306.552 421.83 306.552L421.76 258.582Z" fill="#193A69"/>
<path d="M367.89 294.743C374.617 294.743 380.07 289.29 380.07 282.563C380.07 275.836 374.617 270.383 367.89 270.383C361.163 270.383 355.71 275.836 355.71 282.563C355.71 289.29 361.163 294.743 367.89 294.743Z" fill="#6492EF"/>
<path d="M273.31 66.7126C273.31 66.7126 275.81 76.3326 281.58 77.2926C281.58 77.2926 274.27 81.9126 275.43 89.2226C275.43 89.2226 273.31 82.2926 267.54 79.7926C267.54 79.8226 273.89 77.8726 273.31 66.7126Z" fill="#EDB941"/>
<path d="M180.91 143.902C180.91 143.902 185.52 151.972 191.91 151.722C190.348 153.32 189.216 155.286 188.618 157.438C188.02 159.59 187.976 161.859 188.49 164.032C188.49 164.032 184.26 158.262 178.36 158.262C178.34 158.262 183.6 154.822 180.91 143.902Z" fill="#EDB941"/>
<path d="M484.49 235.133C484.49 235.133 483.04 244.323 488.21 248.133C485.989 248.395 483.871 249.214 482.053 250.515C480.234 251.816 478.775 253.556 477.81 255.573C477.81 255.573 478.11 248.423 473.51 244.733C473.49 244.733 479.73 245.323 484.49 235.133Z" fill="#EDB941"/>
<path d="M308.05 143.833C318.51 143.833 326.99 135.505 326.99 125.233C326.99 114.96 318.51 106.633 308.05 106.633C297.59 106.633 289.11 114.96 289.11 125.233C289.11 135.505 297.59 143.833 308.05 143.833Z" fill="#D75726"/>
<path d="M306.26 141.903C316.555 141.903 324.9 133.575 324.9 123.303C324.9 113.03 316.555 104.703 306.26 104.703C295.966 104.703 287.62 113.03 287.62 123.303C287.62 133.575 295.966 141.903 306.26 141.903Z" fill="#FCEC62"/>
<path d="M307 142.393C316.88 142.393 324.89 133.958 324.89 123.553C324.89 113.148 316.88 104.713 307 104.713C297.12 104.713 289.11 113.148 289.11 123.553C289.11 133.958 297.12 142.393 307 142.393Z" fill="url(#paint34_linear)"/>
<path d="M298.57 123.273L296.84 120.203L300.01 118.413L301.76 121.513L298.57 123.273ZM315.94 128.273L319.25 126.383L317.41 123.313L314.18 125.143L315.94 128.273ZM311.94 126.423L306.34 129.593L303.04 123.823L299.86 125.583L304.91 134.513L313.67 129.513L311.94 126.423ZM304.11 120.353L309.71 117.183L312.9 122.823L316.15 121.033L311.15 112.163L302.32 117.163L304.11 120.353ZM317.44 123.353L314.21 125.183L315.98 128.303L319.28 126.423L317.44 123.353ZM308.75 120.753L305.45 122.573L307.28 125.873L310.57 124.043L308.75 120.753Z" fill="#D55C26"/>
<g filter="url(#filter0_d)">
<rect x="83" y="344" width="432" height="56" rx="25" fill="url(#paint35_linear)"/>
</g>
<path d="M126.695 377.101C126.695 376.299 126.412 375.687 125.846 375.262C125.281 374.829 124.262 374.376 122.792 373.905C121.321 373.424 120.157 372.953 119.299 372.491C116.961 371.228 115.792 369.526 115.792 367.386C115.792 366.274 116.103 365.284 116.725 364.417C117.357 363.54 118.257 362.856 119.426 362.366C120.605 361.876 121.925 361.631 123.386 361.631C124.856 361.631 126.167 361.9 127.317 362.437C128.467 362.965 129.358 363.714 129.989 364.685C130.63 365.656 130.951 366.759 130.951 367.994H126.709C126.709 367.051 126.412 366.321 125.818 365.802C125.224 365.274 124.39 365.01 123.315 365.01C122.278 365.01 121.472 365.232 120.897 365.675C120.322 366.109 120.034 366.684 120.034 367.4C120.034 368.07 120.369 368.63 121.038 369.083C121.717 369.535 122.712 369.96 124.022 370.356C126.435 371.082 128.194 371.982 129.297 373.057C130.399 374.131 130.951 375.47 130.951 377.072C130.951 378.854 130.277 380.254 128.929 381.272C127.581 382.281 125.766 382.785 123.485 382.785C121.901 382.785 120.459 382.498 119.158 381.923C117.857 381.338 116.862 380.542 116.174 379.533C115.495 378.524 115.156 377.355 115.156 376.026H119.412C119.412 378.298 120.77 379.434 123.485 379.434C124.493 379.434 125.281 379.231 125.846 378.826C126.412 378.411 126.695 377.836 126.695 377.101ZM138.078 375.248V382.502H133.836V361.914H141.868C143.414 361.914 144.771 362.197 145.94 362.762C147.118 363.328 148.023 364.134 148.655 365.18C149.287 366.217 149.602 367.4 149.602 368.729C149.602 370.747 148.91 372.34 147.524 373.509C146.147 374.669 144.238 375.248 141.797 375.248H138.078ZM138.078 371.812H141.868C142.989 371.812 143.842 371.548 144.427 371.02C145.021 370.492 145.318 369.738 145.318 368.758C145.318 367.749 145.021 366.934 144.427 366.311C143.833 365.689 143.013 365.369 141.967 365.35H138.078V371.812ZM160.151 374.965H156.772V382.502H152.53V361.914H160.18C162.612 361.914 164.488 362.456 165.808 363.54C167.127 364.624 167.787 366.156 167.787 368.136C167.787 369.54 167.481 370.714 166.868 371.657C166.265 372.59 165.346 373.335 164.111 373.891L168.565 382.304V382.502H164.012L160.151 374.965ZM156.772 371.529H160.194C161.259 371.529 162.084 371.261 162.668 370.723C163.253 370.177 163.545 369.427 163.545 368.475C163.545 367.504 163.267 366.74 162.711 366.184C162.164 365.628 161.32 365.35 160.18 365.35H156.772V371.529ZM175.536 382.502H171.294V361.914H175.536V382.502ZM196.224 382.502H191.982L183.724 368.956V382.502H179.482V361.914H183.724L191.996 375.489V361.914H196.224V382.502ZM216.219 379.901C215.455 380.815 214.376 381.527 212.981 382.036C211.586 382.535 210.039 382.785 208.343 382.785C206.561 382.785 204.996 382.399 203.648 381.626C202.309 380.843 201.272 379.712 200.537 378.232C199.811 376.752 199.439 375.013 199.42 373.014V371.614C199.42 369.559 199.764 367.782 200.452 366.283C201.15 364.775 202.149 363.625 203.45 362.833C204.76 362.032 206.292 361.631 208.046 361.631C210.487 361.631 212.396 362.215 213.773 363.384C215.149 364.544 215.964 366.236 216.219 368.461H212.09C211.901 367.282 211.482 366.42 210.831 365.873C210.19 365.326 209.304 365.053 208.173 365.053C206.731 365.053 205.632 365.595 204.878 366.679C204.124 367.763 203.742 369.375 203.733 371.515V372.83C203.733 374.989 204.143 376.62 204.963 377.723C205.783 378.826 206.985 379.377 208.569 379.377C210.162 379.377 211.298 379.038 211.977 378.359V374.81H208.116V371.685H216.219V379.901ZM239.268 374.089H231.123V382.502H226.881V361.914H240.286V365.35H231.123V370.667H239.268V374.089ZM255.134 373.58H246.989V379.095H256.548V382.502H242.747V361.914H256.52V365.35H246.989V370.257H255.134V373.58ZM269.713 377.101C269.713 376.299 269.43 375.687 268.864 375.262C268.299 374.829 267.281 374.376 265.81 373.905C264.339 373.424 263.175 372.953 262.317 372.491C259.979 371.228 258.81 369.526 258.81 367.386C258.81 366.274 259.122 365.284 259.744 364.417C260.375 363.54 261.276 362.856 262.445 362.366C263.623 361.876 264.943 361.631 266.404 361.631C267.875 361.631 269.185 361.9 270.335 362.437C271.485 362.965 272.376 363.714 273.008 364.685C273.649 365.656 273.969 366.759 273.969 367.994H269.727C269.727 367.051 269.43 366.321 268.836 365.802C268.242 365.274 267.408 365.01 266.333 365.01C265.296 365.01 264.49 365.232 263.915 365.675C263.34 366.109 263.053 366.684 263.053 367.4C263.053 368.07 263.387 368.63 264.057 369.083C264.735 369.535 265.73 369.96 267.04 370.356C269.454 371.082 271.212 371.982 272.315 373.057C273.418 374.131 273.969 375.47 273.969 377.072C273.969 378.854 273.295 380.254 271.947 381.272C270.599 382.281 268.784 382.785 266.503 382.785C264.919 382.785 263.477 382.498 262.176 381.923C260.875 381.338 259.88 380.542 259.192 379.533C258.514 378.524 258.174 377.355 258.174 376.026H262.43C262.43 378.298 263.788 379.434 266.503 379.434C267.512 379.434 268.299 379.231 268.864 378.826C269.43 378.411 269.713 377.836 269.713 377.101ZM292.352 365.35H286.045V382.502H281.803V365.35H275.581V361.914H292.352V365.35ZM299.295 382.502H295.053V361.914H299.295V382.502ZM310.848 377.398L315.514 361.914H320.237L313.068 382.502H308.642L301.501 361.914H306.21L310.848 377.398ZM332.738 378.26H325.3L323.886 382.502H319.375L327.039 361.914H330.97L338.677 382.502H334.166L332.738 378.26ZM326.445 374.824H331.592L329.005 367.117L326.445 374.824ZM344.842 379.095H353.85V382.502H340.6V361.914H344.842V379.095ZM375.131 378.26H367.693L366.279 382.502H361.768L369.433 361.914H373.364L381.07 382.502H376.559L375.131 378.26ZM368.839 374.824H373.986L371.398 367.117L368.839 374.824ZM387.504 382.502H383.262V361.914H387.504V382.502ZM399.071 374.965H395.692V382.502H391.45V361.914H399.1C401.532 361.914 403.408 362.456 404.728 363.54C406.047 364.624 406.707 366.156 406.707 368.136C406.707 369.54 406.401 370.714 405.788 371.657C405.185 372.59 404.266 373.335 403.031 373.891L407.485 382.304V382.502H402.932L399.071 374.965ZM395.692 371.529H399.114C400.179 371.529 401.004 371.261 401.588 370.723C402.173 370.177 402.465 369.427 402.465 368.475C402.465 367.504 402.187 366.74 401.631 366.184C401.084 365.628 400.24 365.35 399.1 365.35H395.692V371.529ZM409.945 382.502V361.914H416.28C418.09 361.914 419.707 362.324 421.131 363.144C422.564 363.955 423.681 365.114 424.482 366.623C425.283 368.121 425.684 369.828 425.684 371.741V372.689C425.684 374.603 425.288 376.304 424.496 377.794C423.714 379.283 422.606 380.438 421.173 381.258C419.74 382.078 418.123 382.493 416.323 382.502H409.945ZM414.188 365.35V379.095H416.238C417.897 379.095 419.165 378.552 420.042 377.468C420.919 376.384 421.366 374.834 421.385 372.816V371.727C421.385 369.634 420.952 368.051 420.084 366.976C419.217 365.892 417.949 365.35 416.28 365.35H414.188ZM436.403 374.965H433.023V382.502H428.781V361.914H436.431C438.863 361.914 440.739 362.456 442.059 363.54C443.379 364.624 444.039 366.156 444.039 368.136C444.039 369.54 443.732 370.714 443.119 371.657C442.516 372.59 441.597 373.335 440.362 373.891L444.816 382.304V382.502H440.263L436.403 374.965ZM433.023 371.529H436.445C437.51 371.529 438.335 371.261 438.92 370.723C439.504 370.177 439.796 369.427 439.796 368.475C439.796 367.504 439.518 366.74 438.962 366.184C438.415 365.628 437.572 365.35 436.431 365.35H433.023V371.529ZM464.189 372.675C464.189 374.702 463.831 376.479 463.114 378.006C462.398 379.533 461.37 380.711 460.032 381.541C458.702 382.37 457.175 382.785 455.45 382.785C453.744 382.785 452.221 382.375 450.883 381.555C449.544 380.735 448.507 379.566 447.772 378.048C447.036 376.521 446.664 374.768 446.655 372.788V371.77C446.655 369.743 447.017 367.961 447.743 366.425C448.479 364.879 449.511 363.695 450.84 362.875C452.179 362.046 453.706 361.631 455.422 361.631C457.137 361.631 458.66 362.046 459.989 362.875C461.328 363.695 462.36 364.879 463.086 366.425C463.821 367.961 464.189 369.738 464.189 371.756V372.675ZM459.89 371.741C459.89 369.583 459.504 367.942 458.731 366.82C457.958 365.699 456.855 365.138 455.422 365.138C453.998 365.138 452.9 365.694 452.127 366.806C451.354 367.909 450.963 369.531 450.953 371.671V372.675C450.953 374.777 451.34 376.408 452.113 377.567C452.886 378.727 453.998 379.307 455.45 379.307C456.873 379.307 457.967 378.75 458.731 377.638C459.494 376.516 459.881 374.885 459.89 372.745V371.741ZM471.514 375.248V382.502H467.272V361.914H475.303C476.849 361.914 478.207 362.197 479.376 362.762C480.554 363.328 481.459 364.134 482.091 365.18C482.723 366.217 483.038 367.4 483.038 368.729C483.038 370.747 482.345 372.34 480.96 373.509C479.583 374.669 477.674 375.248 475.233 375.248H471.514ZM471.514 371.812H475.303C476.425 371.812 477.278 371.548 477.863 371.02C478.457 370.492 478.754 369.738 478.754 368.758C478.754 367.749 478.457 366.934 477.863 366.311C477.269 365.689 476.449 365.369 475.402 365.35H471.514V371.812Z" fill="#434187"/>
<defs>
<filter id="filter0_d" x="70" y="335" width="458" height="82" filterUnits="userSpaceOnUse" color-interpolation-filters="sRGB">
<feFlood flood-opacity="0" result="BackgroundImageFix"/>
<feColorMatrix in="SourceAlpha" type="matrix" values="0 0 0 0 0 0 0 0 0 0 0 0 0 0 0 0 0 0 127 0"/>
<feMorphology radius="3" operator="dilate" in="SourceAlpha" result="effect1_dropShadow"/>
<feOffset dy="4"/>
<feGaussianBlur stdDeviation="5"/>
<feColorMatrix type="matrix" values="0 0 0 0 0.499226 0 0 0 0 0.0529514 0 0 0 0 0.508333 0 0 0 0.31 0"/>
<feBlend mode="normal" in2="BackgroundImageFix" result="effect1_dropShadow"/>
<feBlend mode="normal" in="SourceGraphic" in2="effect1_dropShadow" result="shape"/>
</filter>
<linearGradient id="paint0_linear" x1="500.95" y1="150.962" x2="527.97" y2="150.962" gradientUnits="userSpaceOnUse">
<stop offset="0.01" stop-color="#60A04B"/>
<stop offset="0.44" stop-color="#88B64B"/>
<stop offset="0.95" stop-color="#C4D554"/>
</linearGradient>
<linearGradient id="paint1_linear" x1="481.415" y1="207.925" x2="501.817" y2="225.641" gradientUnits="userSpaceOnUse">
<stop offset="0.01" stop-color="#60A04B"/>
<stop offset="0.44" stop-color="#88B64B"/>
<stop offset="0.95" stop-color="#C4D554"/>
</linearGradient>
<linearGradient id="paint2_linear" x1="164.999" y1="203.205" x2="143.126" y2="209.066" gradientUnits="userSpaceOnUse">
<stop offset="0.01" stop-color="#60A04B"/>
<stop offset="0.44" stop-color="#88B64B"/>
<stop offset="0.95" stop-color="#C4D554"/>
</linearGradient>
<linearGradient id="paint3_linear" x1="487.096" y1="154.266" x2="488.393" y2="143.915" gradientUnits="userSpaceOnUse">
<stop offset="0.01" stop-color="#60A04B"/>
<stop offset="0.09" stop-color="#6AA64B"/>
<stop offset="0.3" stop-color="#80B24B"/>
<stop offset="0.44" stop-color="#88B64B"/>
<stop offset="0.95" stop-color="#C4D554"/>
</linearGradient>
<linearGradient id="paint4_linear" x1="475.541" y1="170.394" x2="485.892" y2="171.691" gradientUnits="userSpaceOnUse">
<stop offset="0.01" stop-color="#60A04B"/>
<stop offset="0.09" stop-color="#6AA64B"/>
<stop offset="0.3" stop-color="#80B24B"/>
<stop offset="0.44" stop-color="#88B64B"/>
<stop offset="0.95" stop-color="#C4D554"/>
</linearGradient>
<linearGradient id="paint5_linear" x1="7590.2" y1="1523.25" x2="7717.38" y2="1629.05" gradientUnits="userSpaceOnUse">
<stop offset="0.01" stop-color="#60A04B"/>
<stop offset="0.44" stop-color="#88B64B"/>
<stop offset="0.95" stop-color="#C4D554"/>
</linearGradient>
<linearGradient id="paint6_linear" x1="7153.62" y1="1695.5" x2="7280.79" y2="1801.29" gradientUnits="userSpaceOnUse">
<stop offset="0.01" stop-color="#60A04B"/>
<stop offset="0.44" stop-color="#88B64B"/>
<stop offset="0.95" stop-color="#C4D554"/>
</linearGradient>
<linearGradient id="paint7_linear" x1="-38453.1" y1="-66957.6" x2="-38393.7" y2="-67064.2" gradientUnits="userSpaceOnUse">
<stop offset="0.01" stop-color="#60A04B"/>
<stop offset="0.44" stop-color="#88B64B"/>
<stop offset="0.95" stop-color="#C4D554"/>
</linearGradient>
<linearGradient id="paint8_linear" x1="465.252" y1="207.257" x2="467.994" y2="217.323" gradientUnits="userSpaceOnUse">
<stop offset="0.01" stop-color="#60A04B"/>
<stop offset="0.09" stop-color="#6AA64B"/>
<stop offset="0.3" stop-color="#80B24B"/>
<stop offset="0.44" stop-color="#88B64B"/>
<stop offset="0.95" stop-color="#C4D554"/>
</linearGradient>
<linearGradient id="paint9_linear" x1="47716.8" y1="-61346.8" x2="47837.9" y2="-61332.4" gradientUnits="userSpaceOnUse">
<stop offset="0.01" stop-color="#60A04B"/>
<stop offset="0.44" stop-color="#88B64B"/>
<stop offset="0.95" stop-color="#C4D554"/>
</linearGradient>
<linearGradient id="paint10_linear" x1="179.671" y1="206.209" x2="176.753" y2="196.193" gradientUnits="userSpaceOnUse">
<stop offset="0.01" stop-color="#60A04B"/>
<stop offset="0.09" stop-color="#6AA64B"/>
<stop offset="0.3" stop-color="#80B24B"/>
<stop offset="0.44" stop-color="#88B64B"/>
<stop offset="0.95" stop-color="#C4D554"/>
</linearGradient>
<linearGradient id="paint11_linear" x1="188.11" y1="220.444" x2="179.873" y2="226.846" gradientUnits="userSpaceOnUse">
<stop offset="0.01" stop-color="#60A04B"/>
<stop offset="0.09" stop-color="#6AA64B"/>
<stop offset="0.3" stop-color="#80B24B"/>
<stop offset="0.44" stop-color="#88B64B"/>
<stop offset="0.95" stop-color="#C4D554"/>
</linearGradient>
<linearGradient id="paint12_linear" x1="-45978.6" y1="62584.2" x2="-46100" y2="62572" gradientUnits="userSpaceOnUse">
<stop offset="0.01" stop-color="#60A04B"/>
<stop offset="0.44" stop-color="#88B64B"/>
<stop offset="0.95" stop-color="#C4D554"/>
</linearGradient>
<linearGradient id="paint13_linear" x1="-46975.2" y1="-40891.9" x2="-46957.1" y2="-40995.9" gradientUnits="userSpaceOnUse">
<stop offset="0.01" stop-color="#60A04B"/>
<stop offset="0.44" stop-color="#88B64B"/>
<stop offset="0.95" stop-color="#C4D554"/>
</linearGradient>
<linearGradient id="paint14_linear" x1="-12934.7" y1="-5540.69" x2="-12878.7" y2="-5434.99" gradientUnits="userSpaceOnUse">
<stop offset="0.01" stop-color="#60A04B"/>
<stop offset="0.44" stop-color="#88B64B"/>
<stop offset="0.95" stop-color="#C4D554"/>
</linearGradient>
<linearGradient id="paint15_linear" x1="24015.8" y1="-121042" x2="24060.9" y2="-120862" gradientUnits="userSpaceOnUse">
<stop offset="0.01" stop-color="#60A04B"/>
<stop offset="0.09" stop-color="#6AA64B"/>
<stop offset="0.3" stop-color="#80B24B"/>
<stop offset="0.44" stop-color="#88B64B"/>
<stop offset="0.95" stop-color="#C4D554"/>
</linearGradient>
<linearGradient id="paint16_linear" x1="13054.3" y1="-50873.8" x2="13182.1" y2="-50977.8" gradientUnits="userSpaceOnUse">
<stop offset="0.01" stop-color="#60A04B"/>
<stop offset="0.44" stop-color="#88B64B"/>
<stop offset="0.95" stop-color="#C4D554"/>
</linearGradient>
<linearGradient id="paint17_linear" x1="-4274.86" y1="-71467.7" x2="-4166.17" y2="-71581" gradientUnits="userSpaceOnUse">
<stop offset="0.01" stop-color="#60A04B"/>
<stop offset="0.44" stop-color="#88B64B"/>
<stop offset="0.95" stop-color="#C4D554"/>
</linearGradient>
<linearGradient id="paint18_linear" x1="30825.7" y1="2203.17" x2="30698.5" y2="2308.97" gradientUnits="userSpaceOnUse">
<stop offset="0.01" stop-color="#60A04B"/>
<stop offset="0.44" stop-color="#88B64B"/>
<stop offset="0.95" stop-color="#C4D554"/>
</linearGradient>
<linearGradient id="paint19_linear" x1="68775.8" y1="-75059.8" x2="68716.7" y2="-75166" gradientUnits="userSpaceOnUse">
<stop offset="0.01" stop-color="#60A04B"/>
<stop offset="0.44" stop-color="#88B64B"/>
<stop offset="0.95" stop-color="#C4D554"/>
</linearGradient>
<linearGradient id="paint20_linear" x1="84964.2" y1="-48707.6" x2="84946" y2="-48811.6" gradientUnits="userSpaceOnUse">
<stop offset="0.01" stop-color="#60A04B"/>
<stop offset="0.44" stop-color="#88B64B"/>
<stop offset="0.95" stop-color="#C4D554"/>
</linearGradient>
<linearGradient id="paint21_linear" x1="404.6" y1="332.623" x2="488.37" y2="332.623" gradientUnits="userSpaceOnUse">
<stop offset="0.01" stop-color="#65914B"/>
<stop offset="0.62" stop-color="#79AB52"/>
<stop offset="1" stop-color="#90BA5A"/>
</linearGradient>
<linearGradient id="paint22_linear" x1="391.29" y1="331.463" x2="486.83" y2="331.463" gradientUnits="userSpaceOnUse">
<stop offset="0.01" stop-color="#3C6E47"/>
<stop offset="0.62" stop-color="#56874B"/>
<stop offset="1" stop-color="#87B243" stop-opacity="0.3"/>
</linearGradient>
<linearGradient id="paint23_linear" x1="389.57" y1="329.083" x2="488.55" y2="329.083" gradientUnits="userSpaceOnUse">
<stop offset="0.01" stop-color="#356434"/>
<stop offset="0.62" stop-color="#4A7B36"/>
<stop offset="1" stop-color="#679C3D"/>
</linearGradient>
<linearGradient id="paint24_linear" x1="421.55" y1="326.133" x2="478.75" y2="326.133" gradientUnits="userSpaceOnUse">
<stop offset="0.01" stop-color="#2D572B"/>
<stop offset="0.62" stop-color="#3D6D31"/>
<stop offset="1" stop-color="#45812A"/>
</linearGradient>
<linearGradient id="paint25_linear" x1="367.6" y1="307.012" x2="471.37" y2="307.012" gradientUnits="userSpaceOnUse">
<stop offset="0.01" stop-color="#66AD6F"/>
<stop offset="0.63" stop-color="#9CC561"/>
<stop offset="1" stop-color="#C8D754"/>
</linearGradient>
<linearGradient id="paint26_linear" x1="382.28" y1="291.592" x2="471.37" y2="291.592" gradientUnits="userSpaceOnUse">
<stop offset="0.01" stop-color="#629D49"/>
<stop offset="0.63" stop-color="#74A745"/>
<stop offset="1" stop-color="#87B243"/>
</linearGradient>
<linearGradient id="paint27_linear" x1="122.72" y1="306.283" x2="214.07" y2="306.283" gradientUnits="userSpaceOnUse">
<stop stop-color="#92C05B"/>
<stop offset="0.41" stop-color="#6A9951"/>
<stop offset="1" stop-color="#336334"/>
</linearGradient>
<linearGradient id="paint28_linear" x1="123.15" y1="301.803" x2="204.03" y2="301.803" gradientUnits="userSpaceOnUse">
<stop stop-color="#6A9C41"/>
<stop offset="0.41" stop-color="#528539"/>
<stop offset="1" stop-color="#376635"/>
</linearGradient>
<linearGradient id="paint29_linear" x1="160.43" y1="296.373" x2="207.62" y2="296.373" gradientUnits="userSpaceOnUse">
<stop stop-color="#437433"/>
<stop offset="0.41" stop-color="#396730"/>
<stop offset="1" stop-color="#3A682F"/>
</linearGradient>
<linearGradient id="paint30_linear" x1="156.56" y1="274.613" x2="207.37" y2="274.613" gradientUnits="userSpaceOnUse">
<stop stop-color="#D0DF57"/>
<stop offset="0.41" stop-color="#9CC660"/>
<stop offset="0.88" stop-color="#7ABB64"/>
</linearGradient>
<linearGradient id="paint31_linear" x1="149.97" y1="262.893" x2="195.85" y2="262.893" gradientUnits="userSpaceOnUse">
<stop offset="0.21" stop-color="#8CB543"/>
<stop offset="0.63" stop-color="#78AA45"/>
<stop offset="1" stop-color="#5B9743"/>
</linearGradient>
<linearGradient id="paint32_linear" x1="338.641" y1="173.674" x2="455.057" y2="206.441" gradientUnits="userSpaceOnUse">
<stop stop-color="#F8D447"/>
<stop offset="0.41" stop-color="#F4B73F"/>
<stop offset="1" stop-color="#F19B38"/>
</linearGradient>
<linearGradient id="paint33_linear" x1="17584.9" y1="14935.2" x2="23126.9" y2="14935.2" gradientUnits="userSpaceOnUse">
<stop stop-color="#F8D447"/>
<stop offset="0.41" stop-color="#F4B73F"/>
<stop offset="1" stop-color="#F19B38"/>
</linearGradient>
<linearGradient id="paint34_linear" x1="10937.6" y1="4653.82" x2="12218.2" y2="4653.82" gradientUnits="userSpaceOnUse">
<stop stop-color="#F8D447"/>
<stop offset="0.41" stop-color="#F4B73F"/>
<stop offset="1" stop-color="#F19B38"/>
</linearGradient>
<linearGradient id="paint35_linear" x1="299" y1="344" x2="299" y2="400" gradientUnits="userSpaceOnUse">
<stop stop-color="#C8E7EA"/>
<stop offset="1" stop-color="#DBECEB"/>
</linearGradient>
</defs>
</svg>
