<svg width="636" height="436" viewBox="0 0 636 436" fill="none" xmlns="http://www.w3.org/2000/svg">
<path opacity="0.53" d="M365 343.06C365 343.06 356.34 402.5 288.82 391.54C221.3 380.58 90.8198 334.4 109.28 197.05C127.74 59.7001 278.7 37.4201 317.62 37.1801C358.38 36.9401 442.28 53.3401 491.34 143.37C540.4 233.4 520.77 284.19 480.34 289.96C439.91 295.73 381.11 325.74 365 343.06Z" fill="#3B4547"/>
<path d="M462.43 178.58C462.43 178.58 481.66 156.52 512.06 149.98C512.06 150 487.11 155 462.43 178.58Z" fill="#4D8680"/>
<path d="M536.48 145.71C536.48 145.71 518.87 138.11 510.02 148.12C510.02 148.12 507.52 152.25 513.02 153.22C518.52 154.19 530.8 149.08 536.48 145.71Z" fill="url(#paint0_linear)"/>
<path d="M496.21 138.72C496.21 138.72 497.6 136.11 498.69 138.38C499.78 140.65 504.52 150.5 498.8 154.1C493.08 157.7 491.46 155.1 491.46 155.1C491.46 155.1 485.89 152.66 496.21 138.72Z" fill="url(#paint1_linear)"/>
<path d="M498.41 154.43C498.41 154.43 505.41 154.63 508.73 163.15C508.73 163.15 493.73 163.73 494.43 156.55C494.43 156.55 495.07 154.5 498.41 154.43Z" fill="url(#paint2_linear)"/>
<path d="M469.91 172.13C469.91 172.13 476.97 172.32 480.24 180.85C480.24 180.85 465.24 181.43 465.94 174.25C465.94 174.25 466.58 172.2 469.91 172.13Z" fill="url(#paint3_linear)"/>
<path d="M481.91 163.05C481.91 163.05 486.76 157.93 483.05 149.58C483.05 149.58 472.05 159.79 477.61 164.37C477.61 164.37 479.51 165.36 481.91 163.05Z" fill="url(#paint4_linear)"/>
<path d="M469.12 171.72C469.12 171.72 471.71 165.15 465.12 158.8C465.12 158.8 458.71 172.38 465.59 174.54C465.61 174.54 467.75 174.76 469.12 171.72Z" fill="url(#paint5_linear)"/>
<path d="M435.68 191.23C435.68 191.23 464.93 190.02 490.58 207.58C490.58 207.58 469.79 192.91 435.68 191.23Z" fill="#4D8680"/>
<path d="M445.51 192.23C445.51 192.23 450.22 197.48 446.28 205.72C446.28 205.72 435.54 195.23 441.28 190.8C441.24 190.8 443.17 189.85 445.51 192.23Z" fill="url(#paint6_linear)"/>
<path d="M457.74 210.34C457.74 210.34 459.06 212.99 460.21 210.74C461.36 208.49 466.36 198.74 460.74 195.04C455.12 191.34 453.43 193.84 453.43 193.84C453.43 193.84 447.79 196.13 457.74 210.34Z" fill="url(#paint7_linear)"/>
<path d="M460.35 194.69C460.35 194.69 467.41 194.69 470.91 186.25C470.91 186.25 455.91 185.25 456.44 192.47C456.44 192.47 457 194.54 460.35 194.69Z" fill="url(#paint8_linear)"/>
<path d="M445.26 191.37C445.26 191.37 451.81 188.73 451.9 179.59C451.9 179.59 437.64 184.28 440.8 190.77C440.8 190.77 442.12 192.47 445.26 191.37Z" fill="url(#paint9_linear)"/>
<path d="M210.75 224.3C210.75 224.3 203.69 224.5 200.42 233.02C200.42 233.02 215.42 233.6 214.72 226.42C214.72 226.42 214.08 224.37 210.75 224.3Z" fill="url(#paint10_linear)"/>
<path d="M211.54 223.89C211.54 223.89 208.95 217.32 215.54 210.97C215.54 210.97 221.95 224.55 215.07 226.71C215.05 226.71 212.91 226.93 211.54 223.89Z" fill="url(#paint11_linear)"/>
<path d="M419.29 330.87C419.29 330.87 426.47 308.42 496.88 304.19C496.88 304.19 483.41 357.03 414.16 355.36C414.16 355.36 409.67 344.59 419.29 330.87Z" fill="url(#paint12_linear)"/>
<path d="M495.34 304.19C495.34 304.19 479.56 350.11 426.47 352.93C373.38 355.75 416 322.66 416 322.66C416 322.66 461.61 305.6 495.34 304.19Z" fill="url(#paint13_linear)"/>
<path d="M497.06 304.19C497.06 304.19 465.51 351.26 416.39 348.19C367.27 345.12 432.55 314.08 432.55 314.08C432.55 314.08 474.36 304.45 497.06 304.19Z" fill="url(#paint14_linear)"/>
<path d="M464 308C464 308 483.44 304.45 487.29 304.69C487.29 304.69 472.29 338.91 431.24 341.86L430.09 314.58L464 308Z" fill="url(#paint15_linear)"/>
<path d="M396.51 293.62C396.51 293.62 414.21 255.06 479.88 258.31C479.88 258.31 466.54 341.31 405.75 349.54C344.96 357.77 396.51 293.62 396.51 293.62Z" fill="url(#paint16_linear)"/>
<path d="M479.88 258.2C479.88 258.2 415.5 305.05 405 317.36C394.5 329.67 390.12 282.74 390.89 282.74C391.66 282.74 431.14 256.49 479.88 258.2Z" fill="url(#paint17_linear)"/>
<path d="M182 335.06C182 335.06 147.75 318.91 131.21 267.35C131.21 267.35 164.49 264.27 201.43 291.59C238.37 318.91 215.66 339.68 215.66 339.68L182 335.06Z" fill="url(#paint18_linear)"/>
<path d="M131.66 267.28C131.66 267.28 177.58 293.18 200.28 322.28C222.98 351.38 207.2 295.73 207.2 295.73C207.2 295.73 174.24 266.12 131.66 267.28Z" fill="url(#paint19_linear)"/>
<path opacity="0.67" d="M168.94 273.69C168.94 273.69 183.29 300.46 207.15 311.23C231.01 322 201.44 289.55 186.75 281.8C175.5 275.86 172.1 274.89 168.94 273.69Z" fill="url(#paint20_linear)"/>
<path d="M207 303.46C207 303.46 176.86 288.59 164.81 240.11C164.81 240.11 182.81 240.49 206.11 255.24C229.41 269.99 224.32 302.14 224.32 302.14L207 303.46Z" fill="url(#paint21_linear)"/>
<path opacity="0.69" d="M164.82 240.11C164.82 240.11 182.9 247.03 189.06 260.24C195.22 273.45 195.6 278.84 201 280C206.4 281.16 202.62 253.12 202.62 253.12C202.62 253.12 183.46 241.29 164.82 240.11Z" fill="url(#paint22_linear)"/>
<path d="M405.36 249.35C440.193 249.35 468.43 221.534 468.43 187.22C468.43 152.907 440.193 125.09 405.36 125.09C370.527 125.09 342.29 152.907 342.29 187.22C342.29 221.534 370.527 249.35 405.36 249.35Z" fill="#F9EE60"/>
<path d="M413.67 252.42C444.234 252.42 469.01 225.329 469.01 191.91C469.01 158.491 444.234 131.4 413.67 131.4C383.107 131.4 358.33 158.491 358.33 191.91C358.33 225.329 383.107 252.42 413.67 252.42Z" fill="#DA5B27"/>
<path d="M405.36 247.69C438.756 247.69 465.83 220.617 465.83 187.22C465.83 153.823 438.756 126.75 405.36 126.75C371.963 126.75 344.89 153.823 344.89 187.22C344.89 220.617 371.963 247.69 405.36 247.69Z" fill="url(#paint23_linear)"/>
<path d="M376.5 195.61L368.25 187.46L376.67 178.94L385.01 187.18L376.5 195.61ZM435.96 195.7L444.74 186.7L436.15 178.63L427.55 187.34L435.96 195.7ZM421.52 193.49L406.65 208.55L391.12 193.22L382.61 201.64L406.61 225.38L429.88 201.81L421.52 193.49ZM391.29 181.3L406.17 166.24L421.33 181.24L430.01 172.64L406.17 149.09L382.72 172.84L391.29 181.3ZM436.15 178.67L427.55 187.38L435.98 195.67L444.74 186.74L436.15 178.67ZM406.28 178.27L397.5 187L406.24 195.79L415.03 187.04L406.28 178.27Z" fill="#D55C26"/>
<path d="M273.25 237.96C293.806 237.96 310.47 221.296 310.47 200.74C310.47 180.184 293.806 163.52 273.25 163.52C252.694 163.52 236.03 180.184 236.03 200.74C236.03 221.296 252.694 237.96 273.25 237.96Z" fill="#D55C26"/>
<path d="M270.43 233.6C290.986 233.6 307.65 216.936 307.65 196.38C307.65 175.824 290.986 159.16 270.43 159.16C249.874 159.16 233.21 175.824 233.21 196.38C233.21 216.936 249.874 233.6 270.43 233.6Z" fill="#FBEB5F"/>
<path d="M270.43 235.65C290.986 235.65 307.65 218.986 307.65 198.43C307.65 177.874 290.986 161.21 270.43 161.21C249.874 161.21 233.21 177.874 233.21 198.43C233.21 218.986 249.874 235.65 270.43 235.65Z" fill="url(#paint24_linear)"/>
<path d="M255.58 210L248.8 206.82L252.08 199.82L258.94 203.03L255.58 210ZM291.8 197.24L295.21 189.89L288.21 186.83L284.89 194L291.8 197.24ZM282.53 199L276.72 211.38L263.96 205.38L260.6 212.38L280.35 221.66L289.44 202.29L282.53 199ZM261.53 198.1L267.34 185.72L279.8 191.57L283.23 184.46L263.63 175.26L254.48 194.78L261.53 198.1ZM288.27 186.83L284.89 194L291.8 197.24L295.21 189.91L288.27 186.83ZM270 193L266.54 200.22L273.76 203.69L277.22 196.47L270 193Z" fill="#D55C26"/>
<path d="M149.599 207.099C149.599 207.099 162.206 197.127 171.541 203.31C171.541 203.31 174.461 206.111 170.219 208.089C165.977 210.068 154.928 208.595 149.599 207.099Z" fill="url(#paint25_linear)"/>
<path d="M182.175 194.291C182.175 194.291 182.415 191.344 184.316 192.994C186.218 194.645 194.479 201.804 190.658 207.379C186.837 212.954 184.318 211.211 184.318 211.211C184.318 211.211 178.237 211.182 182.175 194.291Z" fill="url(#paint26_linear)"/>
<path d="M185.686 229.014C185.686 229.014 182.857 229.876 183.692 227.5C184.526 225.124 188.139 214.808 194.73 216.307C201.32 217.806 200.627 220.79 200.627 220.79C200.627 220.79 202.84 226.454 185.686 229.014Z" fill="url(#paint27_linear)"/>
<path d="M183.371 209.969C183.371 209.969 176.746 207.55 170.555 214.27C170.555 214.27 184.293 220.313 186.289 213.391C186.289 213.391 186.443 211.255 183.371 209.969Z" fill="url(#paint28_linear)"/>
<path d="M216.72 233.573C216.72 233.573 197.49 211.513 167.09 204.973C167.09 204.973 192.04 209.973 216.72 233.573Z" fill="#4D8680"/>
<path d="M197.24 218.043C197.24 218.043 192.39 212.923 196.1 204.573C196.1 204.573 207.1 214.783 201.55 219.363C201.55 219.363 199.64 220.353 197.24 218.043Z" fill="url(#paint29_linear)"/>
<path d="M427.32 255.27V219.87C427.32 219.87 426.32 210.64 415.78 209.35C405.24 208.06 220.07 209.35 220.07 209.35C220.07 209.35 205.19 208.35 204.42 220.13C203.65 231.91 204.42 341.45 204.42 341.45C204.42 341.45 202.88 355.05 216.22 355.3C229.56 355.55 415.78 355.3 415.78 355.3C415.78 355.3 426.78 353.25 427.32 344.53C427.86 335.81 427.32 219.87 427.32 219.87" fill="#2A62F5"/>
<path d="M430.27 252.71H358.45C357.666 252.74 356.896 252.928 356.187 253.263C355.478 253.598 354.844 254.074 354.324 254.661C353.803 255.247 353.407 255.933 353.159 256.678C352.911 257.422 352.816 258.208 352.88 258.99V297.21H356.27C356.27 297.21 357.17 306.57 361.66 306.7C366.15 306.83 427.32 306.7 427.32 306.7L430.27 255.76V252.71Z" fill="#2654B7"/>
<path d="M430.27 255.76H359C359 255.76 353.1 255.37 353 259.99C352.9 264.61 353 298.99 353 298.99C353 298.99 353.26 303.86 358.26 303.73C363.26 303.6 430.34 303.73 430.34 303.73L430.27 255.76Z" fill="#193A69"/>
<path d="M376.4 291.92C383.127 291.92 388.58 286.467 388.58 279.74C388.58 273.013 383.127 267.56 376.4 267.56C369.673 267.56 364.22 273.013 364.22 279.74C364.22 286.467 369.673 291.92 376.4 291.92Z" fill="#6492EF"/>
<path d="M281.82 63.8901C281.82 63.8901 284.32 73.5101 290.09 74.4701C290.09 74.4701 282.78 79.0901 283.94 86.4001C283.94 86.4001 281.82 79.4701 276.05 76.9701C276.05 77.0001 282.4 75.0501 281.82 63.8901Z" fill="#EDB941"/>
<path d="M189.42 141.08C189.42 141.08 194.03 149.15 200.42 148.9C198.858 150.497 197.726 152.463 197.128 154.616C196.53 156.768 196.486 159.036 197 161.21C197 161.21 192.77 155.44 186.87 155.44C186.85 155.44 192.11 152 189.42 141.08Z" fill="#EDB941"/>
<path d="M493 232.31C493 232.31 491.55 241.5 496.72 245.31C494.5 245.572 492.382 246.392 490.563 247.692C488.745 248.993 487.285 250.733 486.32 252.75C486.32 252.75 486.62 245.6 482.02 241.91C482 241.91 488.24 242.5 493 232.31Z" fill="#EDB941"/>
<path d="M316.56 141.01C327.02 141.01 335.5 132.683 335.5 122.41C335.5 112.138 327.02 103.81 316.56 103.81C306.1 103.81 297.62 112.138 297.62 122.41C297.62 132.683 306.1 141.01 316.56 141.01Z" fill="#D75726"/>
<path d="M314.77 139.08C325.064 139.08 333.41 130.753 333.41 120.48C333.41 110.208 325.064 101.88 314.77 101.88C304.475 101.88 296.13 110.208 296.13 120.48C296.13 130.753 304.475 139.08 314.77 139.08Z" fill="#FCEC62"/>
<path d="M315.51 139.57C325.391 139.57 333.4 131.135 333.4 120.73C333.4 110.325 325.391 101.89 315.51 101.89C305.63 101.89 297.62 110.325 297.62 120.73C297.62 131.135 305.63 139.57 315.51 139.57Z" fill="url(#paint30_linear)"/>
<path d="M307.08 120.45L305.35 117.38L308.52 115.59L310.27 118.69L307.08 120.45ZM324.45 125.45L327.76 123.56L325.92 120.49L322.69 122.32L324.45 125.45ZM320.45 123.6L314.85 126.77L311.55 121L308.37 122.76L313.42 131.69L322.18 126.69L320.45 123.6ZM312.62 117.53L318.22 114.36L321.41 120L324.66 118.21L319.66 109.34L310.83 114.34L312.62 117.53ZM325.95 120.53L322.72 122.36L324.49 125.48L327.79 123.6L325.95 120.53ZM317.26 117.93L313.96 119.75L315.79 123.05L319.08 121.22L317.26 117.93Z" fill="#D55C26"/>
<g filter="url(#filter0_d)">
<rect x="100" y="344" width="432" height="56" rx="25" fill="url(#paint31_linear)"/>
</g>
<path d="M138.495 376.939C138.495 378.806 137.821 380.276 136.473 381.351C135.134 382.426 133.268 382.963 130.873 382.963C128.667 382.963 126.716 382.548 125.019 381.719V377.646C126.414 378.268 127.593 378.707 128.554 378.961C129.525 379.216 130.411 379.343 131.213 379.343C132.174 379.343 132.91 379.159 133.419 378.792C133.937 378.424 134.196 377.877 134.196 377.151C134.196 376.746 134.083 376.388 133.857 376.077C133.631 375.756 133.296 375.45 132.853 375.157C132.419 374.865 131.529 374.398 130.18 373.757C128.917 373.164 127.97 372.593 127.338 372.046C126.707 371.5 126.202 370.863 125.825 370.137C125.448 369.412 125.26 368.563 125.26 367.592C125.26 365.763 125.877 364.326 127.112 363.279C128.356 362.233 130.072 361.71 132.259 361.71C133.334 361.71 134.357 361.837 135.328 362.091C136.308 362.346 137.331 362.704 138.396 363.166L136.982 366.574C135.879 366.122 134.965 365.806 134.239 365.627C133.522 365.447 132.815 365.358 132.118 365.358C131.288 365.358 130.652 365.551 130.209 365.938C129.766 366.324 129.544 366.829 129.544 367.451C129.544 367.837 129.634 368.177 129.813 368.469C129.992 368.752 130.275 369.03 130.661 369.303C131.057 369.567 131.986 370.048 133.447 370.745C135.38 371.669 136.704 372.598 137.42 373.531C138.137 374.455 138.495 375.591 138.495 376.939ZM146.626 371.735H148.068C149.416 371.735 150.425 371.471 151.094 370.943C151.764 370.406 152.098 369.628 152.098 368.61C152.098 367.583 151.816 366.824 151.25 366.334C150.694 365.843 149.817 365.598 148.62 365.598H146.626V371.735ZM156.524 368.455C156.524 370.679 155.827 372.381 154.432 373.559C153.046 374.738 151.071 375.327 148.507 375.327H146.626V382.68H142.242V362.007H148.846C151.354 362.007 153.258 362.549 154.559 363.633C155.869 364.707 156.524 366.315 156.524 368.455ZM164.811 371.184H166.225C167.611 371.184 168.634 370.953 169.293 370.491C169.953 370.029 170.283 369.303 170.283 368.313C170.283 367.333 169.944 366.635 169.265 366.22C168.596 365.806 167.554 365.598 166.14 365.598H164.811V371.184ZM164.811 374.747V382.68H160.427V362.007H166.451C169.26 362.007 171.339 362.52 172.687 363.548C174.035 364.566 174.709 366.117 174.709 368.2C174.709 369.416 174.375 370.5 173.705 371.453C173.036 372.395 172.089 373.135 170.863 373.673C173.974 378.32 176.001 381.323 176.944 382.68H172.079L167.144 374.747H164.811ZM179.545 382.68V362.007H183.929V382.68H179.545ZM207.473 382.68H201.902L192.908 367.041H192.781C192.96 369.803 193.05 371.773 193.05 372.951V382.68H189.133V362.007H194.662L203.641 377.491H203.74C203.599 374.804 203.528 372.904 203.528 371.792V362.007H207.473V382.68ZM220.539 371.071H228.741V381.789C227.411 382.223 226.158 382.525 224.979 382.694C223.81 382.873 222.613 382.963 221.388 382.963C218.267 382.963 215.882 382.049 214.232 380.22C212.592 378.381 211.772 375.747 211.772 372.315C211.772 368.978 212.724 366.376 214.628 364.509C216.542 362.643 219.191 361.71 222.575 361.71C224.696 361.71 226.742 362.134 228.712 362.982L227.256 366.489C225.748 365.735 224.178 365.358 222.547 365.358C220.652 365.358 219.134 365.994 217.994 367.267C216.853 368.54 216.283 370.251 216.283 372.4C216.283 374.644 216.74 376.359 217.654 377.547C218.578 378.726 219.917 379.315 221.67 379.315C222.585 379.315 223.513 379.22 224.456 379.032V374.719H220.539V371.071ZM245.511 382.68H241.199V362.007H253.048V365.598H245.511V370.929H252.525V374.507H245.511V382.68ZM268.999 382.68H257.093V362.007H268.999V365.598H261.476V370.137H268.476V373.729H261.476V379.06H268.999V382.68ZM285.529 376.939C285.529 378.806 284.855 380.276 283.507 381.351C282.169 382.426 280.302 382.963 277.908 382.963C275.702 382.963 273.75 382.548 272.053 381.719V377.646C273.449 378.268 274.627 378.707 275.589 378.961C276.56 379.216 277.446 379.343 278.247 379.343C279.209 379.343 279.944 379.159 280.453 378.792C280.971 378.424 281.231 377.877 281.231 377.151C281.231 376.746 281.118 376.388 280.891 376.077C280.665 375.756 280.33 375.45 279.887 375.157C279.454 374.865 278.563 374.398 277.215 373.757C275.951 373.164 275.004 372.593 274.372 372.046C273.741 371.5 273.236 370.863 272.859 370.137C272.482 369.412 272.294 368.563 272.294 367.592C272.294 365.763 272.911 364.326 274.146 363.279C275.391 362.233 277.106 361.71 279.293 361.71C280.368 361.71 281.391 361.837 282.362 362.091C283.342 362.346 284.365 362.704 285.43 363.166L284.016 366.574C282.913 366.122 281.999 365.806 281.273 365.627C280.557 365.447 279.85 365.358 279.152 365.358C278.322 365.358 277.686 365.551 277.243 365.938C276.8 366.324 276.578 366.829 276.578 367.451C276.578 367.837 276.668 368.177 276.847 368.469C277.026 368.752 277.309 369.03 277.695 369.303C278.091 369.567 279.02 370.048 280.481 370.745C282.414 371.669 283.738 372.598 284.455 373.531C285.171 374.455 285.529 375.591 285.529 376.939ZM297.252 382.68H292.868V365.655H287.255V362.007H302.866V365.655H297.252V382.68ZM306.047 382.68V362.007H310.431V382.68H306.047ZM327.428 362.007H331.854L324.826 382.68H320.047L313.033 362.007H317.459L321.348 374.309C321.564 375.035 321.786 375.883 322.012 376.854C322.248 377.816 322.394 378.485 322.451 378.862C322.554 377.995 322.908 376.477 323.511 374.309L327.428 362.007ZM347.126 382.68L345.627 377.759H338.09L336.591 382.68H331.868L339.165 361.922H344.524L351.849 382.68H347.126ZM344.581 374.083C343.195 369.624 342.412 367.102 342.233 366.517C342.064 365.933 341.941 365.471 341.866 365.132C341.555 366.338 340.664 369.322 339.193 374.083H344.581ZM354.465 382.68V362.007H358.849V379.06H367.234V382.68H354.465ZM391.018 382.68L389.52 377.759H381.983L380.484 382.68H375.761L383.057 361.922H388.417L395.741 382.68H391.018ZM388.473 374.083C387.087 369.624 386.305 367.102 386.126 366.517C385.956 365.933 385.834 365.471 385.758 365.132C385.447 366.338 384.556 369.322 383.086 374.083H388.473ZM398.357 382.68V362.007H402.741V382.68H398.357ZM412.328 371.184H413.742C415.128 371.184 416.151 370.953 416.811 370.491C417.471 370.029 417.801 369.303 417.801 368.313C417.801 367.333 417.461 366.635 416.783 366.22C416.113 365.806 415.072 365.598 413.658 365.598H412.328V371.184ZM412.328 374.747V382.68H407.945V362.007H413.969C416.778 362.007 418.857 362.52 420.205 363.548C421.553 364.566 422.227 366.117 422.227 368.2C422.227 369.416 421.892 370.5 421.223 371.453C420.553 372.395 419.606 373.135 418.381 373.673C421.491 378.32 423.518 381.323 424.461 382.68H419.597L414.662 374.747H412.328ZM444.215 372.145C444.215 375.549 443.244 378.155 441.303 379.965C439.37 381.775 436.575 382.68 432.917 382.68H427.063V362.007H433.553C436.928 362.007 439.549 362.897 441.416 364.679C443.282 366.461 444.215 368.95 444.215 372.145ZM439.662 372.259C439.662 367.818 437.701 365.598 433.78 365.598H431.446V379.06H433.327C437.551 379.06 439.662 376.793 439.662 372.259ZM452.884 371.184H454.298C455.684 371.184 456.706 370.953 457.366 370.491C458.026 370.029 458.356 369.303 458.356 368.313C458.356 367.333 458.017 366.635 457.338 366.22C456.669 365.806 455.627 365.598 454.213 365.598H452.884V371.184ZM452.884 374.747V382.68H448.5V362.007H454.524C457.333 362.007 459.412 362.52 460.76 363.548C462.108 364.566 462.782 366.117 462.782 368.2C462.782 369.416 462.447 370.5 461.778 371.453C461.109 372.395 460.161 373.135 458.936 373.673C462.047 378.32 464.074 381.323 465.016 382.68H460.152L455.217 374.747H452.884ZM486.383 372.315C486.383 375.737 485.534 378.367 483.837 380.206C482.141 382.044 479.708 382.963 476.541 382.963C473.373 382.963 470.941 382.044 469.244 380.206C467.547 378.367 466.699 375.728 466.699 372.287C466.699 368.846 467.547 366.22 469.244 364.41C470.951 362.591 473.392 361.681 476.569 361.681C479.746 361.681 482.174 362.596 483.852 364.425C485.539 366.253 486.383 368.884 486.383 372.315ZM471.295 372.315C471.295 374.625 471.733 376.364 472.61 377.533C473.487 378.702 474.797 379.286 476.541 379.286C480.038 379.286 481.787 376.963 481.787 372.315C481.787 367.658 480.048 365.33 476.569 365.33C474.825 365.33 473.51 365.919 472.624 367.097C471.738 368.266 471.295 370.005 471.295 372.315ZM495.051 371.735H496.493C497.841 371.735 498.85 371.471 499.519 370.943C500.189 370.406 500.523 369.628 500.523 368.61C500.523 367.583 500.241 366.824 499.675 366.334C499.119 365.843 498.242 365.598 497.045 365.598H495.051V371.735ZM504.949 368.455C504.949 370.679 504.252 372.381 502.857 373.559C501.471 374.738 499.496 375.327 496.932 375.327H495.051V382.68H490.667V362.007H497.271C499.779 362.007 501.683 362.549 502.984 363.633C504.294 364.707 504.949 366.315 504.949 368.455Z" fill="#434187"/>
<path d="M511.41 220.806C511.41 220.806 503.096 203.522 489.851 205.277C489.851 205.277 485.255 206.757 488.772 211.095C492.289 215.434 504.912 219.627 511.41 220.806Z" fill="url(#paint32_linear)"/>
<path d="M477.537 216.253C477.537 216.253 477.246 219.195 475.374 217.511C473.502 215.827 465.368 208.524 469.287 203.017C473.206 197.51 475.693 199.298 475.693 199.298C475.693 199.298 481.773 199.433 477.537 216.253Z" fill="url(#paint33_linear)"/>
<path d="M494.086 173.512C494.086 173.512 496.247 175.531 493.772 175.996C491.298 176.461 480.556 178.49 478.56 172.033C476.563 165.577 479.493 164.685 479.493 164.685C479.493 164.685 483.292 159.936 494.086 173.512Z" fill="url(#paint34_linear)"/>
<path d="M476.618 200.556C476.618 200.556 483.199 203.091 489.508 196.481C489.508 196.481 475.879 190.197 473.761 197.082C473.761 197.082 473.569 199.216 476.618 200.556Z" fill="url(#paint35_linear)"/>
<defs>
<filter id="filter0_d" x="87" y="335" width="458" height="82" filterUnits="userSpaceOnUse" color-interpolation-filters="sRGB">
<feFlood flood-opacity="0" result="BackgroundImageFix"/>
<feColorMatrix in="SourceAlpha" type="matrix" values="0 0 0 0 0 0 0 0 0 0 0 0 0 0 0 0 0 0 127 0"/>
<feMorphology radius="3" operator="dilate" in="SourceAlpha" result="effect1_dropShadow"/>
<feOffset dy="4"/>
<feGaussianBlur stdDeviation="5"/>
<feColorMatrix type="matrix" values="0 0 0 0 0.499226 0 0 0 0 0.0529514 0 0 0 0 0.508333 0 0 0 0.31 0"/>
<feBlend mode="normal" in2="BackgroundImageFix" result="effect1_dropShadow"/>
<feBlend mode="normal" in="SourceGraphic" in2="effect1_dropShadow" result="shape"/>
</filter>
<linearGradient id="paint0_linear" x1="509.46" y1="148.14" x2="536.48" y2="148.14" gradientUnits="userSpaceOnUse">
<stop offset="0.01" stop-color="#60A04B"/>
<stop offset="0.44" stop-color="#88B64B"/>
<stop offset="0.95" stop-color="#C4D554"/>
</linearGradient>
<linearGradient id="paint1_linear" x1="495.603" y1="151.444" x2="496.9" y2="141.092" gradientUnits="userSpaceOnUse">
<stop offset="0.01" stop-color="#60A04B"/>
<stop offset="0.09" stop-color="#6AA64B"/>
<stop offset="0.3" stop-color="#80B24B"/>
<stop offset="0.44" stop-color="#88B64B"/>
<stop offset="0.95" stop-color="#C4D554"/>
</linearGradient>
<linearGradient id="paint2_linear" x1="7598.71" y1="1520.43" x2="7725.89" y2="1626.23" gradientUnits="userSpaceOnUse">
<stop offset="0.01" stop-color="#60A04B"/>
<stop offset="0.44" stop-color="#88B64B"/>
<stop offset="0.95" stop-color="#C4D554"/>
</linearGradient>
<linearGradient id="paint3_linear" x1="7162.13" y1="1692.67" x2="7289.3" y2="1798.47" gradientUnits="userSpaceOnUse">
<stop offset="0.01" stop-color="#60A04B"/>
<stop offset="0.44" stop-color="#88B64B"/>
<stop offset="0.95" stop-color="#C4D554"/>
</linearGradient>
<linearGradient id="paint4_linear" x1="-42314.9" y1="-73003.8" x2="-42255.5" y2="-73110.4" gradientUnits="userSpaceOnUse">
<stop offset="0.01" stop-color="#60A04B"/>
<stop offset="0.44" stop-color="#88B64B"/>
<stop offset="0.95" stop-color="#C4D554"/>
</linearGradient>
<linearGradient id="paint5_linear" x1="-54725.6" y1="-47074.1" x2="-54707.5" y2="-47178" gradientUnits="userSpaceOnUse">
<stop offset="0.01" stop-color="#60A04B"/>
<stop offset="0.44" stop-color="#88B64B"/>
<stop offset="0.95" stop-color="#C4D554"/>
</linearGradient>
<linearGradient id="paint6_linear" x1="-17067.1" y1="580.995" x2="-17011" y2="686.691" gradientUnits="userSpaceOnUse">
<stop offset="0.01" stop-color="#60A04B"/>
<stop offset="0.44" stop-color="#88B64B"/>
<stop offset="0.95" stop-color="#C4D554"/>
</linearGradient>
<linearGradient id="paint7_linear" x1="23799.3" y1="-119033" x2="23844.3" y2="-118853" gradientUnits="userSpaceOnUse">
<stop offset="0.01" stop-color="#60A04B"/>
<stop offset="0.09" stop-color="#6AA64B"/>
<stop offset="0.3" stop-color="#80B24B"/>
<stop offset="0.44" stop-color="#88B64B"/>
<stop offset="0.95" stop-color="#C4D554"/>
</linearGradient>
<linearGradient id="paint8_linear" x1="13062" y1="-50735.1" x2="13189.6" y2="-50839" gradientUnits="userSpaceOnUse">
<stop offset="0.01" stop-color="#60A04B"/>
<stop offset="0.44" stop-color="#88B64B"/>
<stop offset="0.95" stop-color="#C4D554"/>
</linearGradient>
<linearGradient id="paint9_linear" x1="-4786.83" y1="-74208.5" x2="-4678.24" y2="-74321.7" gradientUnits="userSpaceOnUse">
<stop offset="0.01" stop-color="#60A04B"/>
<stop offset="0.44" stop-color="#88B64B"/>
<stop offset="0.95" stop-color="#C4D554"/>
</linearGradient>
<linearGradient id="paint10_linear" x1="12048.1" y1="2200.35" x2="11920.9" y2="2306.15" gradientUnits="userSpaceOnUse">
<stop offset="0.01" stop-color="#60A04B"/>
<stop offset="0.44" stop-color="#88B64B"/>
<stop offset="0.95" stop-color="#C4D554"/>
</linearGradient>
<linearGradient id="paint11_linear" x1="73798.3" y1="-50594.7" x2="73780.2" y2="-50698.7" gradientUnits="userSpaceOnUse">
<stop offset="0.01" stop-color="#60A04B"/>
<stop offset="0.44" stop-color="#88B64B"/>
<stop offset="0.95" stop-color="#C4D554"/>
</linearGradient>
<linearGradient id="paint12_linear" x1="413.11" y1="329.8" x2="496.88" y2="329.8" gradientUnits="userSpaceOnUse">
<stop offset="0.01" stop-color="#65914B"/>
<stop offset="0.62" stop-color="#79AB52"/>
<stop offset="1" stop-color="#90BA5A"/>
</linearGradient>
<linearGradient id="paint13_linear" x1="399.8" y1="328.64" x2="495.34" y2="328.64" gradientUnits="userSpaceOnUse">
<stop offset="0.01" stop-color="#3C6E47"/>
<stop offset="0.62" stop-color="#56874B"/>
<stop offset="1" stop-color="#87B243" stop-opacity="0.3"/>
</linearGradient>
<linearGradient id="paint14_linear" x1="398.08" y1="326.26" x2="497.06" y2="326.26" gradientUnits="userSpaceOnUse">
<stop offset="0.01" stop-color="#356434"/>
<stop offset="0.62" stop-color="#4A7B36"/>
<stop offset="1" stop-color="#679C3D"/>
</linearGradient>
<linearGradient id="paint15_linear" x1="430.06" y1="323.31" x2="487.26" y2="323.31" gradientUnits="userSpaceOnUse">
<stop offset="0.01" stop-color="#2D572B"/>
<stop offset="0.62" stop-color="#3D6D31"/>
<stop offset="1" stop-color="#45812A"/>
</linearGradient>
<linearGradient id="paint16_linear" x1="376.11" y1="304.19" x2="479.88" y2="304.19" gradientUnits="userSpaceOnUse">
<stop offset="0.01" stop-color="#66AD6F"/>
<stop offset="0.63" stop-color="#9CC561"/>
<stop offset="1" stop-color="#C8D754"/>
</linearGradient>
<linearGradient id="paint17_linear" x1="390.79" y1="288.77" x2="479.88" y2="288.77" gradientUnits="userSpaceOnUse">
<stop offset="0.01" stop-color="#629D49"/>
<stop offset="0.63" stop-color="#74A745"/>
<stop offset="1" stop-color="#87B243"/>
</linearGradient>
<linearGradient id="paint18_linear" x1="131.23" y1="303.46" x2="222.58" y2="303.46" gradientUnits="userSpaceOnUse">
<stop stop-color="#92C05B"/>
<stop offset="0.41" stop-color="#6A9951"/>
<stop offset="1" stop-color="#336334"/>
</linearGradient>
<linearGradient id="paint19_linear" x1="131.66" y1="298.98" x2="212.54" y2="298.98" gradientUnits="userSpaceOnUse">
<stop stop-color="#6A9C41"/>
<stop offset="0.41" stop-color="#528539"/>
<stop offset="1" stop-color="#376635"/>
</linearGradient>
<linearGradient id="paint20_linear" x1="168.94" y1="293.55" x2="216.13" y2="293.55" gradientUnits="userSpaceOnUse">
<stop stop-color="#437433"/>
<stop offset="0.41" stop-color="#396730"/>
<stop offset="1" stop-color="#3A682F"/>
</linearGradient>
<linearGradient id="paint21_linear" x1="165.07" y1="271.79" x2="215.88" y2="271.79" gradientUnits="userSpaceOnUse">
<stop stop-color="#D0DF57"/>
<stop offset="0.41" stop-color="#9CC660"/>
<stop offset="0.88" stop-color="#7ABB64"/>
</linearGradient>
<linearGradient id="paint22_linear" x1="158.48" y1="260.07" x2="204.36" y2="260.07" gradientUnits="userSpaceOnUse">
<stop offset="0.21" stop-color="#8CB543"/>
<stop offset="0.63" stop-color="#78AA45"/>
<stop offset="1" stop-color="#5B9743"/>
</linearGradient>
<linearGradient id="paint23_linear" x1="347.164" y1="170.863" x2="463.571" y2="203.627" gradientUnits="userSpaceOnUse">
<stop stop-color="#F8D447"/>
<stop offset="0.41" stop-color="#F4B73F"/>
<stop offset="1" stop-color="#F19B38"/>
</linearGradient>
<linearGradient id="paint24_linear" x1="17593.4" y1="14932.3" x2="23135.4" y2="14932.3" gradientUnits="userSpaceOnUse">
<stop stop-color="#F8D447"/>
<stop offset="0.41" stop-color="#F4B73F"/>
<stop offset="1" stop-color="#F19B38"/>
</linearGradient>
<linearGradient id="paint25_linear" x1="171.999" y1="203.205" x2="150.126" y2="209.066" gradientUnits="userSpaceOnUse">
<stop offset="0.01" stop-color="#60A04B"/>
<stop offset="0.44" stop-color="#88B64B"/>
<stop offset="0.95" stop-color="#C4D554"/>
</linearGradient>
<linearGradient id="paint26_linear" x1="186.671" y1="206.209" x2="183.753" y2="196.193" gradientUnits="userSpaceOnUse">
<stop offset="0.01" stop-color="#60A04B"/>
<stop offset="0.09" stop-color="#6AA64B"/>
<stop offset="0.3" stop-color="#80B24B"/>
<stop offset="0.44" stop-color="#88B64B"/>
<stop offset="0.95" stop-color="#C4D554"/>
</linearGradient>
<linearGradient id="paint27_linear" x1="195.11" y1="220.444" x2="186.873" y2="226.846" gradientUnits="userSpaceOnUse">
<stop offset="0.01" stop-color="#60A04B"/>
<stop offset="0.09" stop-color="#6AA64B"/>
<stop offset="0.3" stop-color="#80B24B"/>
<stop offset="0.44" stop-color="#88B64B"/>
<stop offset="0.95" stop-color="#C4D554"/>
</linearGradient>
<linearGradient id="paint28_linear" x1="-45971.6" y1="62584.2" x2="-46093" y2="62572" gradientUnits="userSpaceOnUse">
<stop offset="0.01" stop-color="#60A04B"/>
<stop offset="0.44" stop-color="#88B64B"/>
<stop offset="0.95" stop-color="#C4D554"/>
</linearGradient>
<linearGradient id="paint29_linear" x1="68782.8" y1="-75059.8" x2="68723.7" y2="-75166" gradientUnits="userSpaceOnUse">
<stop offset="0.01" stop-color="#60A04B"/>
<stop offset="0.44" stop-color="#88B64B"/>
<stop offset="0.95" stop-color="#C4D554"/>
</linearGradient>
<linearGradient id="paint30_linear" x1="10946.1" y1="4651" x2="12226.7" y2="4651" gradientUnits="userSpaceOnUse">
<stop stop-color="#F8D447"/>
<stop offset="0.41" stop-color="#F4B73F"/>
<stop offset="1" stop-color="#F19B38"/>
</linearGradient>
<linearGradient id="paint31_linear" x1="316" y1="344" x2="316" y2="400" gradientUnits="userSpaceOnUse">
<stop stop-color="#C8E7EA"/>
<stop offset="1" stop-color="#DBECEB"/>
</linearGradient>
<linearGradient id="paint32_linear" x1="489.415" y1="204.925" x2="509.817" y2="222.641" gradientUnits="userSpaceOnUse">
<stop offset="0.01" stop-color="#60A04B"/>
<stop offset="0.44" stop-color="#88B64B"/>
<stop offset="0.95" stop-color="#C4D554"/>
</linearGradient>
<linearGradient id="paint33_linear" x1="473.252" y1="204.257" x2="475.994" y2="214.323" gradientUnits="userSpaceOnUse">
<stop offset="0.01" stop-color="#60A04B"/>
<stop offset="0.09" stop-color="#6AA64B"/>
<stop offset="0.3" stop-color="#80B24B"/>
<stop offset="0.44" stop-color="#88B64B"/>
<stop offset="0.95" stop-color="#C4D554"/>
</linearGradient>
<linearGradient id="paint34_linear" x1="481.952" y1="169.635" x2="491.615" y2="173.568" gradientUnits="userSpaceOnUse">
<stop offset="0.01" stop-color="#60A04B"/>
<stop offset="0.09" stop-color="#6AA64B"/>
<stop offset="0.3" stop-color="#80B24B"/>
<stop offset="0.44" stop-color="#88B64B"/>
<stop offset="0.95" stop-color="#C4D554"/>
</linearGradient>
<linearGradient id="paint35_linear" x1="47724.8" y1="-61349.8" x2="47845.9" y2="-61335.4" gradientUnits="userSpaceOnUse">
<stop offset="0.01" stop-color="#60A04B"/>
<stop offset="0.44" stop-color="#88B64B"/>
<stop offset="0.95" stop-color="#C4D554"/>
</linearGradient>
</defs>
</svg>
