<?xml version="1.0" encoding="UTF-8"?>
<svg width="333px" height="88px" viewBox="0 0 333 88" version="1.1" xmlns="http://www.w3.org/2000/svg" xmlns:xlink="http://www.w3.org/1999/xlink">
    <!-- Generator: Sketch 50.2 (55047) - http://www.bohemiancoding.com/sketch -->
    <title>miime-logo-white</title>
    <desc>Created with Sketch.</desc>
    <defs></defs>
    <g id="miime-logo-white" stroke="none" stroke-width="1" fill="none" fill-rule="evenodd">
        <g fill="#FFFFFF" fill-rule="nonzero" id="Shape">
            <path d="M331.3,58.4 C330.9,57.9 330.5,57.5 330,57.1 C329.5,56.8 328.9,56.6 328.3,56.6 C327.7,56.6 327,56.8 326.4,57.1 C325.8,57.4 325,57.8 324.2,58.2 C323.4,58.6 322.5,59 321.5,59.3 C320.5,59.6 319.3,59.8 317.8,59.8 C314.8,59.8 312.4,59.1 310.6,57.6 C308.8,56.1 307.9,54.1 307.9,51.7 L307.9,50.4 L325.1,50.4 C326.1,50.4 327,50.3 327.9,50.2 C328.8,50.1 329.7,49.8 330.4,49.3 C331.2,48.8 331.8,48.1 332.2,47 C332.7,46 332.9,44.6 332.9,42.8 C332.9,40.4 332.4,38.3 331.5,36.3 C330.6,34.3 329.3,32.7 327.7,31.3 C326.1,29.9 324.2,28.8 322.1,28 C320,27.2 317.8,26.8 315.4,26.8 C312.8,26.8 310.4,27.3 308.1,28.2 C305.8,29.1 303.9,30.3 302.2,31.9 C300.5,33.5 299.2,35.3 298.3,37.3 C297.3,39.4 296.9,41.5 296.9,43.8 L296.9,51 C296.9,53.6 297.4,56 298.4,58.1 C299.4,60.3 300.8,62.1 302.6,63.6 C304.4,65.1 306.6,66.3 309.1,67.1 C311.6,67.9 314.4,68.3 317.4,68.3 C319.7,68.3 321.7,68.1 323.6,67.6 C325.4,67.1 327,66.6 328.3,65.9 C329.6,65.2 330.6,64.4 331.3,63.6 C332,62.8 332.4,62 332.4,61.3 C332.4,60.9 332.3,60.4 332.1,59.9 C331.9,59.4 331.7,58.9 331.3,58.4 Z M307.9,41.6 C307.9,39.6 308.6,37.9 310.1,36.8 C311.6,35.6 313.3,35 315.2,35 C317.2,35 319,35.6 320.5,36.9 C322,38.1 322.7,39.8 322.7,41.7 C322.7,42.7 322.5,43.3 322.1,43.6 C321.7,43.9 321.1,44 320.2,44 L307.8,44 L307.8,41.6 L307.9,41.6 Z"></path>
            <path d="M267.8,26.5 C263.1,26.5 258.8,28.4 255.6,31.4 C252.4,28.4 248.1,26.5 243.4,26.5 C233.7,26.5 225.8,34.3 225.7,44 C225.7,48.4 225.7,55.2 225.7,64.1 C225.7,64.9 226.2,65.7 227.2,66.5 C228.2,67.2 229.5,67.6 231.1,67.6 C232.6,67.6 233.8,67.2 234.9,66.5 C236,65.8 236.5,65 236.5,64.1 L236.5,44.2 C236.5,40.5 239.5,37.5 243.2,37.5 C246.9,37.5 249.9,40.5 249.9,44.2 L249.9,64.2 C249.9,65.4 250.5,66.2 251.6,66.8 C252.8,67.3 254,67.6 255.3,67.6 C256.7,67.6 257.9,67.3 259.1,66.8 C260.3,66.3 260.8,65.4 260.8,64.2 L260.8,44.2 C260.8,40.5 263.8,37.5 267.5,37.5 C271.2,37.5 274.2,40.5 274.2,44.2 L274.2,64.1 C274.2,64.9 274.7,65.7 275.8,66.5 C276.9,67.2 278.1,67.6 279.6,67.6 C281.1,67.6 282.3,67.2 283.4,66.5 C284.5,65.8 285,65 285,64.1 L285,44.2 C285.4,34.4 277.5,26.5 267.8,26.5 Z"></path>
            <path d="M186,12.5 C184.3,12.5 182.9,13 181.7,14.1 C180.5,15.2 180,16.4 180,17.9 C180,19.3 180.6,20.6 181.7,21.6 C182.8,22.6 184.3,23.2 186,23.2 C187.6,23.2 189,22.7 190.2,21.6 C191.4,20.5 191.9,19.3 191.9,17.9 C191.9,16.4 191.3,15.2 190.2,14.1 C189,13 187.6,12.5 186,12.5 Z"></path>
            <path d="M189.9,28.3 C188.8,27.7 187.5,27.4 186,27.4 C184.4,27.4 183.1,27.7 182.1,28.3 C181.1,28.9 180.6,29.7 180.6,30.8 L180.6,64.3 C180.6,65.1 181.1,65.9 182.1,66.7 C183.1,67.4 184.4,67.8 186,67.8 C187.5,67.8 188.8,67.4 189.9,66.7 C191,66 191.5,65.2 191.5,64.3 L191.5,30.8 C191.5,29.8 191,28.9 189.9,28.3 Z"></path>
            <path d="M213,28.3 C211.9,27.7 210.6,27.4 209.1,27.4 C207.5,27.4 206.2,27.7 205.2,28.3 C204.2,28.9 203.7,29.7 203.7,30.8 L203.7,64.3 C203.7,65.1 204.2,65.9 205.2,66.7 C206.2,67.5 207.5,67.8 209.1,67.8 C210.6,67.8 211.9,67.4 213,66.7 C214.1,66 214.6,65.2 214.6,64.3 L214.6,30.8 C214.6,29.8 214,28.9 213,28.3 Z"></path>
            <path d="M209.1,12.5 C207.4,12.5 206,13 204.8,14.1 C203.6,15.2 203.1,16.4 203.1,17.9 C203.1,19.3 203.7,20.6 204.8,21.6 C205.9,22.6 207.4,23.2 209.1,23.2 C210.7,23.2 212.1,22.7 213.3,21.6 C214.5,20.5 215,19.3 215,17.9 C215,16.4 214.4,15.2 213.3,14.1 C212.2,13 210.7,12.5 209.1,12.5 Z"></path>
            <path d="M151.1,26.5 C146.4,26.5 142.1,28.4 138.9,31.4 C135.7,28.4 131.4,26.5 126.7,26.5 C117,26.5 109.1,34.3 109,44 C109,48.4 109,55.2 109,64.1 C109,64.9 109.5,65.7 110.5,66.5 C111.5,67.3 112.8,67.6 114.4,67.6 C115.9,67.6 117.1,67.2 118.2,66.5 C119.3,65.8 119.8,65 119.8,64.1 L119.8,44.2 C119.8,40.5 122.8,37.5 126.5,37.5 C130.2,37.5 133.2,40.5 133.2,44.2 L133.2,64.2 C133.2,65.4 133.8,66.2 134.9,66.8 C136.1,67.3 137.3,67.6 138.6,67.6 C140,67.6 141.2,67.3 142.4,66.8 C143.6,66.3 144.1,65.4 144.1,64.2 L144.1,44.2 C144.1,40.5 147.1,37.5 150.8,37.5 C154.5,37.5 157.5,40.5 157.5,44.2 L157.5,64.1 C157.5,64.9 158,65.7 159.1,66.5 C160.2,67.2 161.4,67.6 162.9,67.6 C164.4,67.6 165.6,67.2 166.7,66.5 C167.8,65.8 168.3,65 168.3,64.1 L168.3,44.2 C168.7,34.4 160.8,26.5 151.1,26.5 Z"></path>
            <path d="M66.4,40.5 L84,40.5 C85.9,40.5 87.5,42.1 87.5,44 C87.5,68 68,87.5 44,87.5 C25.3,87.5 8.9,75.6 2.9,58.2 C2.3,56.4 3.2,54.4 5.1,53.8 C6.9,53.2 8.9,54.1 9.5,56 C14.5,70.6 28.3,80.6 44,80.6 C63,80.6 78.6,66.1 80.3,47.6 L64.1,47.6 C63.9,47.6 63.7,47.6 63.5,47.6 C63,47.5 62.5,47.3 62.1,47 C61.7,46.7 61.3,46.3 61.1,45.9 C61,45.7 60.9,45.5 60.8,45.3 L56.7,34.9 L47.4,60.3 C46.3,63.4 42,63.4 40.8,60.3 L31.5,34.9 L27.4,45.3 C27.3,45.5 27.2,45.7 27.1,45.9 C26.8,46.3 26.5,46.7 26.1,47 C25.7,47.3 25.2,47.5 24.7,47.6 C24.5,47.6 24.3,47.7 24.1,47.6 L4,47.6 C2.1,47.6 0.5,46 0.5,44.1 C0.5,20 20,0.5 44,0.5 C62.7,0.5 79.1,12.4 85.1,29.8 C85.7,31.6 84.8,33.6 82.9,34.2 C81.1,34.8 79.1,33.9 78.5,32 C73.5,17.5 59.7,7.5 44,7.5 C25,7.5 9.4,22 7.7,40.5 L21.7,40.5 L28.3,23.7 C29.5,20.7 33.7,20.8 34.8,23.8 L44,48.9 L53.2,23.8 C54.3,20.8 58.6,20.7 59.7,23.7 L66.4,40.5 Z"></path>
        </g>
    </g>
</svg>