<svg width="262" height="190" viewBox="0 0 262 190" fill="none" xmlns="http://www.w3.org/2000/svg">
<path d="M66.3901 32.9683C66.41 33.042 66.3963 33.1248 66.3428 33.1947C66.166 33.4246 65.3525 33.8982 63.8457 34.6467C63.9785 36.019 64.0007 36.7962 63.9244 37.0225C63.8904 37.1109 63.8194 37.1697 63.7344 37.1769C63.5915 37.184 63.4195 37.191 62.4019 35.0933C59.1844 35.277 59.0692 35.0392 58.9955 34.9009C58.9915 34.8862 58.9808 34.8733 58.9748 34.8511C58.9548 34.7774 58.9686 34.6946 59.0221 34.6247C59.2084 34.3764 60.1556 33.835 61.8387 33.0149C61.6619 30.7052 61.8139 30.6245 61.9409 30.5584C62.0159 30.5144 62.1069 30.5293 62.1828 30.5957C62.363 30.7526 62.7382 31.4421 63.3204 32.7083C66.1865 32.5646 66.2936 32.7729 66.3626 32.9203C66.3753 32.9406 66.3861 32.9535 66.3901 32.9683Z" fill="#9D4492"/>
<path d="M30.1106 73.7661L27.9337 72.3869L30.8803 66.6823L33.0572 68.0615L30.1106 73.7661Z" fill="#9BEC7D"/>
<path d="M22.1042 28.5741L23.8814 29.831L21.1785 34.4642L19.4013 33.2072L22.1042 28.5741Z" fill="#FFBF19"/>
<path d="M89.4708 23.0656L89.9576 20.9057L94.9942 22.4522L94.5074 24.6121L89.4708 23.0656Z" fill="#FFBF19"/>
<path d="M45.8289 56.6382L47.4437 54.6904L52.1251 59.2514L50.5104 61.1992L45.8289 56.6382Z" fill="#9D4492"/>
<path d="M110.236 14.8644L110.946 12.3412L116.861 14.5346L116.15 17.0578L110.236 14.8644Z" fill="#9D4492"/>
<path d="M53.425 21.4815L52.0372 23.627L46.9239 19.6549L48.3116 17.5094L53.425 21.4815Z" fill="#9BEC7D"/>
<path d="M36.634 121.427C36.648 121.478 36.6397 121.528 36.6072 121.568C36.4955 121.717 36.1496 122.115 35.1777 122.592C35.2589 123.48 35.0929 123.893 35.0459 124.04C35.0261 124.101 34.9781 124.138 34.9201 124.138C34.8264 124.139 34.578 124.29 33.9139 122.935C31.8381 123.054 31.9015 122.756 31.8553 122.666C31.8533 122.659 31.8493 122.644 31.8473 122.637C31.8334 122.585 31.8416 122.535 31.8741 122.495C31.9974 122.335 32.4106 121.932 33.498 121.4C33.3844 119.912 33.6732 119.911 33.757 119.872C33.807 119.843 33.8669 119.85 33.9147 119.893C34.0296 119.996 34.2868 120.261 34.669 121.083C36.5208 120.992 36.5711 121.301 36.6193 121.399C36.6213 121.406 36.632 121.419 36.634 121.427Z" fill="#9BEC7D"/>
<path d="M19.4183 102.251L20.4319 100.513L24.5505 103.427L23.5369 105.164L19.4183 102.251Z" fill="#FF623A"/>
<path d="M195.538 32.9683C195.518 33.042 195.531 33.1248 195.585 33.1947C195.762 33.4246 196.575 33.8982 198.082 34.6467C197.949 36.019 197.927 36.7962 198.003 37.0225C198.037 37.1109 198.108 37.1697 198.193 37.1769C198.336 37.184 198.508 37.191 199.526 35.0933C202.743 35.277 202.859 35.0392 202.932 34.9009C202.936 34.8862 202.947 34.8733 202.953 34.8511C202.973 34.7774 202.959 34.6946 202.906 34.6247C202.719 34.3764 201.772 33.835 200.089 33.0149C200.266 30.7052 200.114 30.6245 199.987 30.5584C199.912 30.5144 199.821 30.5293 199.745 30.5957C199.565 30.7526 199.19 31.4421 198.607 32.7083C195.741 32.5646 195.634 32.7729 195.565 32.9203C195.552 32.9406 195.542 32.9535 195.538 32.9683Z" fill="#9D4492"/>
<path d="M231.817 73.7661L233.994 72.3869L231.047 66.6823L228.871 68.0615L231.817 73.7661Z" fill="#9BEC7D"/>
<path d="M239.823 28.5741L238.046 29.831L240.749 34.4642L242.526 33.2072L239.823 28.5741Z" fill="#FFBF19"/>
<path d="M172.457 23.0656L171.97 20.9057L166.934 22.4522L167.42 24.6121L172.457 23.0656Z" fill="#FFBF19"/>
<path d="M216.099 56.6382L214.484 54.6904L209.803 59.2514L211.417 61.1992L216.099 56.6382Z" fill="#9D4492"/>
<path d="M151.692 14.8644L150.982 12.3412L145.067 14.5346L145.777 17.0578L151.692 14.8644Z" fill="#9D4492"/>
<path d="M208.503 21.4815L209.89 23.627L215.004 19.6549L213.616 17.5094L208.503 21.4815Z" fill="#9BEC7D"/>
<path d="M225.294 121.427C225.28 121.478 225.288 121.528 225.32 121.568C225.432 121.717 225.778 122.115 226.75 122.592C226.669 123.48 226.835 123.893 226.882 124.04C226.902 124.101 226.95 124.138 227.008 124.138C227.101 124.139 227.35 124.29 228.014 122.935C230.09 123.054 230.026 122.756 230.072 122.666C230.074 122.659 230.078 122.644 230.08 122.637C230.094 122.585 230.086 122.535 230.054 122.495C229.93 122.335 229.517 121.932 228.43 121.4C228.543 119.912 228.255 119.911 228.171 119.872C228.121 119.843 228.061 119.85 228.013 119.893C227.898 119.996 227.641 120.261 227.259 121.083C225.407 120.992 225.357 121.301 225.308 121.399C225.306 121.406 225.296 121.419 225.294 121.427Z" fill="#9BEC7D"/>
<path d="M242.509 102.251L241.496 100.513L237.377 103.427L238.391 105.164L242.509 102.251Z" fill="#FF623A"/>
<g filter="url(#filter0_d)">
<circle cx="133.073" cy="92.1616" r="55.1616" fill="#5C6C7F"/>
</g>
<circle cx="133" cy="92" r="35" fill="#D7E6FF"/>
<path fill-rule="evenodd" clip-rule="evenodd" d="M139.901 70.8054C142.025 70.1985 144.239 71.4284 144.846 73.5526C144.948 73.9099 145 74.2798 145 74.6515V78H149C151.209 78 153 79.7909 153 82V106C153 108.209 151.209 110 149 110H117C114.791 110 113 108.209 113 106H113.053C113.018 105.785 113 105.567 113 105.349V81.5086C113 79.7227 114.184 78.1531 115.901 77.6625L139.901 70.8054ZM129.28 106H149V90H145V98.4914C145 100.277 143.816 101.847 142.099 102.337L129.28 106ZM145 82H149V86H145V82ZM117 81.5085V105.348L141 98.4913V74.6514L117 81.5085ZM137 86C137 87.1046 136.105 88 135 88C133.895 88 133 87.1046 133 86C133 84.8954 133.895 84 135 84C136.105 84 137 84.8954 137 86Z" fill="#0364FF"/>
<defs>
<filter id="filter0_d" x="49.9116" y="23" width="166.323" height="166.323" filterUnits="userSpaceOnUse" color-interpolation-filters="sRGB">
<feFlood flood-opacity="0" result="BackgroundImageFix"/>
<feColorMatrix in="SourceAlpha" type="matrix" values="0 0 0 0 0 0 0 0 0 0 0 0 0 0 0 0 0 0 127 0"/>
<feOffset dy="14"/>
<feGaussianBlur stdDeviation="14"/>
<feColorMatrix type="matrix" values="0 0 0 0 0.0117647 0 0 0 0 0.392157 0 0 0 0 1 0 0 0 0.06 0"/>
<feBlend mode="normal" in2="BackgroundImageFix" result="effect1_dropShadow"/>
<feBlend mode="normal" in="SourceGraphic" in2="effect1_dropShadow" result="shape"/>
</filter>
</defs>
</svg>
