<svg width="287" height="255" viewBox="0 0 287 255" fill="none" xmlns="http://www.w3.org/2000/svg">
<circle cx="133.908" cy="160.647" r="3.18313" transform="rotate(-90 133.908 160.647)" fill="#D7E6FF"/>
<circle cx="133.908" cy="143.141" r="3.18313" transform="rotate(-90 133.908 143.141)" fill="#D7E6FF"/>
<circle cx="133.908" cy="125.634" r="3.18313" transform="rotate(-90 133.908 125.634)" fill="#D7E6FF"/>
<circle cx="146.64" cy="167.014" r="3.18313" transform="rotate(-90 146.64 167.014)" fill="#D7E6FF"/>
<circle cx="146.64" cy="151.099" r="3.18313" transform="rotate(-90 146.64 151.099)" fill="#D7E6FF"/>
<circle cx="146.64" cy="135.183" r="3.18313" transform="rotate(-90 146.64 135.183)" fill="#D7E6FF"/>
<circle cx="146.64" cy="119.267" r="3.18313" transform="rotate(-90 146.64 119.267)" fill="#D7E6FF"/>
<circle cx="74.0719" cy="140.736" r="3.18313" transform="rotate(-45 74.0719 140.736)" fill="#D7E6FF"/>
<circle cx="86.4508" cy="128.357" r="3.18313" transform="rotate(-45 86.4508 128.357)" fill="#D7E6FF"/>
<circle cx="98.8297" cy="115.979" r="3.18313" transform="rotate(-45 98.8297 115.979)" fill="#D7E6FF"/>
<circle cx="78.5739" cy="154.242" r="3.18313" transform="rotate(-45 78.5739 154.242)" fill="#D7E6FF"/>
<circle cx="89.8278" cy="142.988" r="3.18313" transform="rotate(-45 89.8278 142.988)" fill="#D7E6FF"/>
<circle cx="101.082" cy="131.733" r="3.18313" transform="rotate(-45 101.082 131.733)" fill="#D7E6FF"/>
<circle cx="112.336" cy="120.48" r="3.18313" transform="rotate(-45 112.336 120.48)" fill="#D7E6FF"/>
<circle r="3.18313" transform="matrix(-0.707107 -0.707107 -0.707107 0.707107 212.727 140.737)" fill="#D7E6FF"/>
<circle r="3.18313" transform="matrix(-0.707107 -0.707107 -0.707107 0.707107 200.348 128.358)" fill="#D7E6FF"/>
<circle r="3.18313" transform="matrix(-0.707107 -0.707107 -0.707107 0.707107 187.969 115.979)" fill="#D7E6FF"/>
<circle r="3.18313" transform="matrix(-0.707107 -0.707107 -0.707107 0.707107 208.225 154.243)" fill="#D7E6FF"/>
<circle r="3.18313" transform="matrix(-0.707107 -0.707107 -0.707107 0.707107 196.971 142.989)" fill="#D7E6FF"/>
<circle r="3.18313" transform="matrix(-0.707107 -0.707107 -0.707107 0.707107 185.717 131.734)" fill="#D7E6FF"/>
<circle r="3.18313" transform="matrix(-0.707107 -0.707107 -0.707107 0.707107 174.463 120.481)" fill="#D7E6FF"/>
<g filter="url(#filter0_d)">
<circle cx="60.037" cy="160.593" r="22.037" fill="#5C6C7F"/>
</g>
<g filter="url(#filter1_d)">
<circle cx="143.457" cy="176.32" r="22.037" fill="#5C6C7F"/>
</g>
<g filter="url(#filter2_d)">
<circle cx="226.963" cy="154.954" r="22.037" fill="#5C6C7F"/>
</g>
<path d="M229.909 153.973L234.106 152.604C234.42 152.501 234.768 152.501 235.082 152.604L236.53 153.076C236.691 153.129 236.865 153.075 237.001 152.976C237.136 152.878 237.217 152.695 237.217 152.527C237.217 151.369 236.276 150.428 235.119 150.428H216.23C215.073 150.428 214.131 151.369 214.131 152.526V157.773C214.131 158.931 215.073 159.872 216.23 159.872H228.33C228.475 159.872 228.612 159.813 228.712 159.708C228.81 159.604 228.862 159.463 228.854 159.319C228.836 158.966 228.822 158.601 228.822 158.207V155.469C228.822 154.786 229.259 154.184 229.909 153.973ZM218.975 155.22C219.226 155.365 219.312 155.686 219.167 155.937C219.07 156.105 218.893 156.199 218.713 156.199C218.624 156.199 218.533 156.177 218.45 156.129L218.328 156.059V156.199C218.328 156.489 218.094 156.724 217.804 156.724C217.514 156.724 217.279 156.489 217.279 156.199V156.059L217.157 156.129C217.074 156.177 216.984 156.199 216.895 156.199C216.714 156.199 216.537 156.105 216.441 155.937C216.295 155.686 216.381 155.365 216.632 155.22L216.754 155.15L216.632 155.08C216.381 154.935 216.295 154.614 216.441 154.363C216.585 154.112 216.907 154.027 217.157 154.171L217.279 154.241V154.101C217.279 153.811 217.514 153.576 217.804 153.576C218.094 153.576 218.328 153.811 218.328 154.101V154.241L218.45 154.171C218.7 154.026 219.022 154.111 219.167 154.363C219.312 154.614 219.226 154.935 218.975 155.08L218.853 155.15L218.975 155.22ZM223.173 155.22C223.424 155.365 223.51 155.686 223.364 155.937C223.268 156.105 223.091 156.199 222.91 156.199C222.821 156.199 222.731 156.177 222.648 156.129L222.526 156.059V156.199C222.526 156.489 222.291 156.724 222.001 156.724C221.711 156.724 221.477 156.489 221.477 156.199V156.059L221.355 156.129C221.272 156.177 221.181 156.199 221.092 156.199C220.912 156.199 220.735 156.105 220.638 155.937C220.493 155.686 220.579 155.365 220.83 155.22L220.952 155.15L220.83 155.08C220.579 154.935 220.493 154.614 220.638 154.363C220.783 154.112 221.105 154.027 221.355 154.171L221.477 154.241V154.101C221.477 153.811 221.711 153.576 222.001 153.576C222.291 153.576 222.526 153.811 222.526 154.101V154.241L222.648 154.171C222.898 154.026 223.221 154.111 223.364 154.363C223.51 154.614 223.424 154.935 223.173 155.08L223.051 155.15L223.173 155.22ZM227.37 155.22C227.621 155.365 227.707 155.686 227.562 155.937C227.465 156.105 227.288 156.199 227.108 156.199C227.019 156.199 226.928 156.177 226.846 156.129L226.724 156.059V156.199C226.724 156.489 226.489 156.724 226.199 156.724C225.909 156.724 225.674 156.489 225.674 156.199V156.059L225.552 156.129C225.469 156.177 225.379 156.199 225.29 156.199C225.109 156.199 224.932 156.105 224.836 155.937C224.69 155.686 224.776 155.365 225.027 155.22L225.149 155.15L225.027 155.08C224.776 154.935 224.69 154.614 224.836 154.363C224.98 154.112 225.302 154.027 225.552 154.171L225.674 154.241V154.101C225.674 153.811 225.909 153.576 226.199 153.576C226.489 153.576 226.724 153.811 226.724 154.101V154.241L226.846 154.171C227.097 154.026 227.418 154.111 227.562 154.363C227.707 154.614 227.621 154.935 227.37 155.08L227.249 155.15L227.37 155.22Z" fill="#D6EEFF"/>
<path d="M238.954 154.969L234.756 153.601C234.65 153.567 234.537 153.567 234.43 153.601L230.233 154.969C230.018 155.04 229.871 155.241 229.871 155.468V158.206C229.871 161.899 230.461 163.248 234.372 165.069C234.442 165.102 234.517 165.118 234.593 165.118C234.669 165.118 234.745 165.102 234.815 165.069C238.725 163.248 239.316 161.899 239.316 158.206V155.468C239.316 155.241 239.169 155.04 238.954 154.969ZM234.833 162.728C234.757 162.767 234.675 162.786 234.593 162.786C234.498 162.786 234.404 162.76 234.32 162.709C234.164 162.614 234.069 162.444 234.069 162.261V159.871H232.494C232.204 159.871 231.97 159.637 231.97 159.347V156.992C231.97 156.765 232.116 156.563 232.332 156.493L234.43 155.808C234.591 155.757 234.765 155.784 234.902 155.882C235.037 155.981 235.118 156.139 235.118 156.307V158.822H236.692C236.836 158.822 236.973 158.881 237.072 158.985C237.171 159.089 237.223 159.229 237.216 159.372C237.133 161.09 236.62 161.811 234.833 162.728Z" fill="#D6EEFF"/>
<g filter="url(#filter3_d)">
<circle cx="143.575" cy="75.5005" r="56.5005" fill="#5C6C7F"/>
</g>
<circle cx="143.5" cy="75.3349" r="35.8495" fill="#D7E6FF"/>
<path d="M156.071 77.4098C156.693 78.0256 157.027 78.8783 157.027 79.7784C157.027 80.6311 156.693 81.4838 156.071 82.0997C155.45 82.7155 154.589 83.0945 153.681 83.0945C152.821 83.0945 151.96 82.7155 151.291 82.0997C150.67 81.4838 150.335 80.6311 150.335 79.7784C150.335 78.8783 150.718 78.073 151.291 77.4098C151.913 76.7939 152.773 76.4623 153.681 76.4623C154.589 76.415 155.45 76.7939 156.071 77.4098V77.4098ZM165.01 70.0197V90.9584C165.01 93.0901 163.289 94.7955 161.138 94.7955H126.531C124.046 94.7955 121.99 92.7585 121.99 90.2951V62.5822C121.99 59.4556 124.571 56.8975 127.726 56.8975H154.159C156.788 56.8975 158.796 59.0292 158.796 61.6347V64.4771H159.656C162.62 64.4771 165.01 67.0826 165.01 70.0197ZM125.527 62.5822C125.527 63.6244 126.388 64.4771 127.439 64.4771H154.972V61.54C154.972 61.0662 154.589 60.6873 154.111 60.6873H127.439C126.388 60.6873 125.527 61.54 125.527 62.5822V62.5822ZM161.186 70.0197C161.186 69.2143 160.517 68.2669 159.656 68.2669H126.579C126.149 68.2669 125.814 68.8354 125.814 69.2617V90.2951C125.814 90.6741 126.149 91.0057 126.531 91.0057H161.138C161.186 91.0057 161.186 90.9584 161.186 90.9584V70.0197V70.0197Z" fill="#0364FF"/>
<path d="M144.859 183.334C144.705 183.334 144.572 183.334 144.439 183.334C141.12 183.334 137.801 183.334 134.481 183.334C133.272 183.334 132.711 182.78 132.718 181.578C132.726 180.103 132.763 178.628 132.755 177.16C132.755 174.777 132.726 172.395 132.711 170.012C132.704 168.81 133.264 168.257 134.474 168.257C139.645 168.257 144.823 168.257 149.993 168.257C151.181 168.257 151.727 168.81 151.727 169.99C151.727 170.654 151.727 171.318 151.727 171.982C151.727 172.528 151.446 172.874 151.019 172.882C150.576 172.889 150.281 172.535 150.281 171.967C150.274 171.229 150.281 170.499 150.281 169.739C144.904 169.739 139.563 169.739 134.179 169.739C134.179 173.354 134.179 176.968 134.179 180.634C137.727 180.634 141.275 180.634 144.845 180.634C144.859 181.549 144.859 182.412 144.859 183.334ZM142.883 181.94C142.883 181.541 142.558 181.224 142.152 181.224C141.754 181.224 141.422 181.549 141.415 181.94C141.407 182.345 141.761 182.692 142.167 182.685C142.565 182.67 142.883 182.338 142.883 181.94Z" fill="#D6EEFF"/>
<path d="M146.128 180.132C146.128 178.465 146.128 176.798 146.128 175.124C146.128 174.35 146.453 174.025 147.22 174.018C148.939 174.018 150.657 174.018 152.383 174.018C153.136 174.018 153.468 174.35 153.468 175.094C153.468 178.451 153.468 181.799 153.468 185.156C153.468 185.908 153.136 186.24 152.391 186.24C150.657 186.24 148.924 186.24 147.19 186.24C146.468 186.24 146.128 185.9 146.128 185.185C146.121 183.496 146.128 181.814 146.128 180.132ZM147.028 183.193C148.88 183.193 150.701 183.193 152.56 183.193C152.56 180.516 152.56 177.853 152.56 175.168C150.694 175.168 148.872 175.168 147.028 175.168C147.028 177.846 147.028 180.501 147.028 183.193ZM148.393 185.067C149.33 185.067 150.259 185.067 151.196 185.067C151.196 184.809 151.196 184.565 151.196 184.315C150.252 184.315 149.33 184.315 148.393 184.315C148.393 184.573 148.393 184.801 148.393 185.067Z" fill="#D6EEFF"/>
<path d="M144.874 184.589C144.874 185.149 144.874 185.673 144.874 186.212C142.226 186.212 139.593 186.212 136.96 186.212C136.879 185.349 137.55 184.589 138.383 184.589C140.53 184.589 142.676 184.589 144.874 184.589Z" fill="#D6EEFF"/>
<path fill-rule="evenodd" clip-rule="evenodd" d="M68.2071 159.621C68.2071 159.045 68.1554 158.492 68.0595 157.961H60.418V161.099H64.7846C64.5965 162.114 64.0248 162.973 63.1655 163.548V165.584H65.7877C67.3219 164.172 68.2071 162.092 68.2071 159.621V159.621Z" fill="#D3D3D4"/>
<path fill-rule="evenodd" clip-rule="evenodd" d="M60.4186 167.55C62.6093 167.55 64.4459 166.823 65.7884 165.584L63.1662 163.548C62.4396 164.035 61.5103 164.323 60.4186 164.323C58.3054 164.323 56.5167 162.895 55.8787 160.978H53.168V163.08C54.503 165.731 57.2469 167.55 60.4186 167.55V167.55Z" fill="#D3D3D4"/>
<path fill-rule="evenodd" clip-rule="evenodd" d="M55.8784 160.978C55.7161 160.492 55.6239 159.971 55.6239 159.437C55.6239 158.902 55.7161 158.382 55.8784 157.895V155.793H53.1677C52.6182 156.888 52.3047 158.127 52.3047 159.437C52.3047 160.746 52.6182 161.985 53.1677 163.08L55.8784 160.978V160.978Z" fill="#D3D3D4"/>
<path fill-rule="evenodd" clip-rule="evenodd" d="M60.4186 154.549C61.6098 154.549 62.6794 154.959 63.5202 155.763L65.8474 153.435C64.4422 152.126 62.6056 151.322 60.4186 151.322C57.2469 151.322 54.503 153.14 53.168 155.792L55.8787 157.894C56.5167 155.977 58.3054 154.549 60.4186 154.549V154.549Z" fill="#D3D3D4"/>
<defs>
<filter id="filter0_d" x="0.45454" y="119.783" width="119.165" height="119.165" filterUnits="userSpaceOnUse" color-interpolation-filters="sRGB">
<feFlood flood-opacity="0" result="BackgroundImageFix"/>
<feColorMatrix in="SourceAlpha" type="matrix" values="0 0 0 0 0 0 0 0 0 0 0 0 0 0 0 0 0 0 127 0"/>
<feOffset dy="18.7727"/>
<feGaussianBlur stdDeviation="18.7727"/>
<feColorMatrix type="matrix" values="0 0 0 0 0.0117647 0 0 0 0 0.392157 0 0 0 0 1 0 0 0 0.06 0"/>
<feBlend mode="normal" in2="BackgroundImageFix" result="effect1_dropShadow"/>
<feBlend mode="normal" in="SourceGraphic" in2="effect1_dropShadow" result="shape"/>
</filter>
<filter id="filter1_d" x="83.8745" y="135.51" width="119.165" height="119.165" filterUnits="userSpaceOnUse" color-interpolation-filters="sRGB">
<feFlood flood-opacity="0" result="BackgroundImageFix"/>
<feColorMatrix in="SourceAlpha" type="matrix" values="0 0 0 0 0 0 0 0 0 0 0 0 0 0 0 0 0 0 127 0"/>
<feOffset dy="18.7727"/>
<feGaussianBlur stdDeviation="18.7727"/>
<feColorMatrix type="matrix" values="0 0 0 0 0.0117647 0 0 0 0 0.392157 0 0 0 0 1 0 0 0 0.06 0"/>
<feBlend mode="normal" in2="BackgroundImageFix" result="effect1_dropShadow"/>
<feBlend mode="normal" in="SourceGraphic" in2="effect1_dropShadow" result="shape"/>
</filter>
<filter id="filter2_d" x="167.38" y="114.144" width="119.165" height="119.165" filterUnits="userSpaceOnUse" color-interpolation-filters="sRGB">
<feFlood flood-opacity="0" result="BackgroundImageFix"/>
<feColorMatrix in="SourceAlpha" type="matrix" values="0 0 0 0 0 0 0 0 0 0 0 0 0 0 0 0 0 0 127 0"/>
<feOffset dy="18.7727"/>
<feGaussianBlur stdDeviation="18.7727"/>
<feColorMatrix type="matrix" values="0 0 0 0 0.0117647 0 0 0 0 0.392157 0 0 0 0 1 0 0 0 0.06 0"/>
<feBlend mode="normal" in2="BackgroundImageFix" result="effect1_dropShadow"/>
<feBlend mode="normal" in="SourceGraphic" in2="effect1_dropShadow" result="shape"/>
</filter>
<filter id="filter3_d" x="49.5288" y="0.22727" width="188.092" height="188.092" filterUnits="userSpaceOnUse" color-interpolation-filters="sRGB">
<feFlood flood-opacity="0" result="BackgroundImageFix"/>
<feColorMatrix in="SourceAlpha" type="matrix" values="0 0 0 0 0 0 0 0 0 0 0 0 0 0 0 0 0 0 127 0"/>
<feOffset dy="18.7727"/>
<feGaussianBlur stdDeviation="18.7727"/>
<feColorMatrix type="matrix" values="0 0 0 0 0.0117647 0 0 0 0 0.392157 0 0 0 0 1 0 0 0 0.06 0"/>
<feBlend mode="normal" in2="BackgroundImageFix" result="effect1_dropShadow"/>
<feBlend mode="normal" in="SourceGraphic" in2="effect1_dropShadow" result="shape"/>
</filter>
</defs>
</svg>
