<svg width="50" height="37" viewBox="0 0 50 37" fill="none" xmlns="http://www.w3.org/2000/svg">
<path fill-rule="evenodd" clip-rule="evenodd" d="M28.6801 9.18177C28.6801 8.6145 28.6292 8.06904 28.5346 7.54541H21.0001V10.6399H25.3056C25.1201 11.6399 24.5565 12.4872 23.7092 13.0545V15.0617H26.2946C27.8074 13.669 28.6801 11.6181 28.6801 9.18177V9.18177Z" fill="#D6EEFF"/>
<path fill-rule="evenodd" clip-rule="evenodd" d="M21.0003 17.0005C23.1602 17.0005 24.9711 16.2841 26.2948 15.0623L23.7093 13.055C22.993 13.535 22.0766 13.8187 21.0003 13.8187C18.9166 13.8187 17.153 12.4114 16.5239 10.5205H13.8512V12.5932C15.1676 15.2078 17.873 17.0005 21.0003 17.0005V17.0005Z" fill="#D6EEFF"/>
<path fill-rule="evenodd" clip-rule="evenodd" d="M16.5236 10.5204C16.3636 10.0404 16.2727 9.52769 16.2727 9.00042C16.2727 8.47315 16.3636 7.96043 16.5236 7.48043V5.40771H13.8509C13.3091 6.48771 13 7.70952 13 9.00042C13 10.2913 13.3091 11.5131 13.8509 12.5931L16.5236 10.5204V10.5204Z" fill="#D6EEFF"/>
<path fill-rule="evenodd" clip-rule="evenodd" d="M21.0003 4.1818C22.1748 4.1818 23.2293 4.58544 24.0584 5.37816L26.353 3.08363C24.9675 1.79272 23.1566 1 21.0003 1C17.873 1 15.1676 2.79272 13.8512 5.40725L16.5239 7.47997C17.153 5.58907 18.9166 4.1818 21.0003 4.1818V4.1818Z" fill="#D6EEFF"/>
<path d="M17.0351 25.3784L21.0351 24.0737C21.3339 23.9761 21.6659 23.9756 21.9648 24.0742L23.3447 24.5239C23.498 24.5738 23.664 24.5229 23.7939 24.4287C23.9228 24.335 23.9999 24.1602 23.9999 24C23.9999 22.897 23.1025 22 21.9999 22H3.99996C2.89747 22 2 22.897 2 24V29C2 30.103 2.89747 31 4.00001 31H15.5312C15.6689 31 15.7998 30.9434 15.8945 30.8437C15.9883 30.7441 16.0381 30.6104 16.0303 30.4731C16.0127 30.1362 16 29.7886 16 29.4131V26.8042C16 26.1528 16.416 25.5796 17.0351 25.3784ZM6.61619 26.5669C6.85544 26.7051 6.93747 27.0107 6.79881 27.25C6.70703 27.4102 6.53805 27.5 6.36621 27.5C6.28122 27.5 6.1953 27.4785 6.11622 27.4331L6.00002 27.366V27.5C6.00002 27.7763 5.77638 28 5.50001 28C5.22363 28 4.99999 27.7763 4.99999 27.5V27.366L4.88379 27.4331C4.80466 27.4785 4.71874 27.5 4.6338 27.5C4.46191 27.5 4.29298 27.4101 4.2012 27.25C4.06254 27.0107 4.14457 26.7051 4.38382 26.5669L4.49974 26.5L4.38382 26.4331C4.14457 26.2949 4.06254 25.9892 4.2012 25.75C4.33891 25.5107 4.64552 25.4302 4.88384 25.5669L4.99999 25.6339V25.5C4.99999 25.2236 5.22363 24.9999 5.50001 24.9999C5.77638 24.9999 6.00002 25.2236 6.00002 25.5V25.6339L6.11622 25.5668C6.35449 25.4287 6.66114 25.5097 6.79886 25.7499C6.93752 25.9892 6.85549 26.2949 6.61624 26.433L6.50032 26.4999L6.61619 26.5669ZM10.6162 26.5669C10.8555 26.7051 10.9375 27.0107 10.7988 27.25C10.7071 27.4102 10.5381 27.5 10.3662 27.5C10.2812 27.5 10.1953 27.4785 10.1162 27.4331L10 27.366V27.5C10 27.7763 9.7764 28 9.50003 28C9.22365 28 9.00001 27.7763 9.00001 27.5V27.366L8.88381 27.4331C8.80468 27.4785 8.71876 27.5 8.63382 27.5C8.46193 27.5 8.293 27.4101 8.20122 27.25C8.06256 27.0107 8.14459 26.7051 8.38384 26.5669L8.49976 26.5L8.38384 26.4331C8.14459 26.2949 8.06256 25.9892 8.20122 25.75C8.33893 25.5107 8.64554 25.4302 8.88385 25.5669L9.00006 25.634V25.5C9.00006 25.2236 9.2237 25 9.50007 25C9.77645 25 10.0001 25.2236 10.0001 25.5V25.634L10.1163 25.5669C10.3546 25.4287 10.6622 25.5098 10.7989 25.75C10.9376 25.9892 10.8556 26.2949 10.6163 26.4331L10.5004 26.5L10.6162 26.5669ZM14.6162 26.5669C14.8554 26.7051 14.9375 27.0107 14.7988 27.25C14.707 27.4102 14.538 27.5 14.3662 27.5C14.2812 27.5 14.1953 27.4785 14.1162 27.4331L14 27.366V27.5C14 27.7763 13.7763 28 13.5 28C13.2236 28 12.9999 27.7763 12.9999 27.5V27.366L12.8837 27.4331C12.8046 27.4785 12.7187 27.5 12.6338 27.5C12.4619 27.5 12.2929 27.4101 12.2011 27.25C12.0625 27.0107 12.1445 26.7051 12.3838 26.5669L12.4997 26.5L12.3838 26.4331C12.1445 26.2949 12.0625 25.9892 12.2011 25.75C12.3389 25.5107 12.6455 25.4302 12.8838 25.5669L13 25.634V25.5C13 25.2236 13.2236 25 13.5 25C13.7764 25 14 25.2236 14 25.5V25.634L14.1162 25.5669C14.3555 25.4287 14.6621 25.5098 14.7989 25.75C14.9375 25.9892 14.8555 26.2949 14.6162 26.4331L14.5003 26.5L14.6162 26.5669Z" fill="#0364FF"/>
<path d="M25.6552 26.3279L21.6552 25.0237C21.5537 24.9914 21.4463 24.9914 21.3447 25.0237L17.3447 26.3279C17.1396 26.3953 17 26.5872 17 26.8035V29.4124C17 32.9314 17.5625 34.217 21.2891 35.9524C21.3555 35.9837 21.4277 35.9993 21.5 35.9993C21.5723 35.9993 21.6445 35.9837 21.7109 35.9524C25.4374 34.2171 25.9999 32.9314 25.9999 29.4124V26.8035C25.9999 26.5872 25.8603 26.3953 25.6552 26.3279ZM21.7285 33.7215C21.6562 33.7586 21.5781 33.7766 21.4999 33.7766C21.4091 33.7766 21.3193 33.7522 21.2392 33.7034C21.0907 33.6125 20.9999 33.451 20.9999 33.2766V30.9993H19.4999C19.2236 30.9993 18.9999 30.7757 18.9999 30.4993V28.2552C18.9999 28.0388 19.1396 27.847 19.3446 27.7796L21.3446 27.1272C21.498 27.0784 21.664 27.1048 21.7938 27.198C21.9228 27.2922 21.9999 27.4426 21.9999 27.6028V29.9992H23.4999C23.6366 29.9992 23.7675 30.0554 23.8622 30.1545C23.9559 30.2537 24.0058 30.3869 23.9989 30.5237C23.9199 32.1604 23.4316 32.8479 21.7285 33.7215Z" fill="#0364FF"/>
<path d="M39.809 31.4144C39.6712 31.4144 39.5531 31.4144 39.4349 31.4144C36.4817 31.4144 33.5284 31.4144 30.5751 31.4144C29.4988 31.4144 29.0001 30.9222 29.0066 29.8524C29.0132 28.5399 29.046 27.2273 29.0394 25.9213C29.0394 23.8015 29.0132 21.6817 29.0001 19.5619C28.9935 18.4922 29.4923 18 30.5686 18C35.1691 18 39.7762 18 44.3767 18C45.4333 18 45.919 18.4922 45.919 19.5423C45.919 20.1329 45.919 20.7236 45.919 21.3142C45.919 21.7999 45.6696 22.1083 45.289 22.1149C44.8952 22.1214 44.6327 21.8064 44.6327 21.3011C44.6261 20.6448 44.6327 19.9951 44.6327 19.3191C39.8484 19.3191 35.0969 19.3191 30.3061 19.3191C30.3061 22.5349 30.3061 25.7507 30.3061 29.0124C33.4628 29.0124 36.6195 29.0124 39.7959 29.0124C39.809 29.8262 39.809 30.594 39.809 31.4144ZM38.0502 30.174C38.0502 29.8196 37.7614 29.5374 37.4005 29.5374C37.0461 29.5374 36.7507 29.8262 36.7442 30.174C36.7376 30.535 37.0526 30.8434 37.4136 30.8369C37.768 30.8237 38.0502 30.5284 38.0502 30.174Z" fill="#D6EEFF"/>
<path d="M40.9377 28.5661C40.9377 27.0829 40.9377 25.5997 40.9377 24.1099C40.9377 23.4208 41.2265 23.1321 41.909 23.1255C43.4382 23.1255 44.9673 23.1255 46.503 23.1255C47.1724 23.1255 47.4677 23.4208 47.4677 24.0837C47.4677 27.0697 47.4677 30.0493 47.4677 33.0353C47.4677 33.7047 47.1724 34.0001 46.5096 34.0001C44.9673 34.0001 43.425 34.0001 41.8828 34.0001C41.2396 34.0001 40.9377 33.6982 40.9377 33.0616C40.9312 31.5587 40.9377 30.0624 40.9377 28.5661ZM41.7384 31.2896C43.3857 31.2896 45.0067 31.2896 46.6605 31.2896C46.6605 28.9073 46.6605 26.5381 46.6605 24.1493C45.0001 24.1493 43.3791 24.1493 41.7384 24.1493C41.7384 26.5316 41.7384 28.8942 41.7384 31.2896ZM42.9525 32.9566C43.786 32.9566 44.6129 32.9566 45.4464 32.9566C45.4464 32.7269 45.4464 32.5103 45.4464 32.2872C44.6063 32.2872 43.786 32.2872 42.9525 32.2872C42.9525 32.5169 42.9525 32.7203 42.9525 32.9566Z" fill="#D6EEFF"/>
<path d="M39.8221 32.5308C39.8221 33.0295 39.8221 33.4955 39.8221 33.9746C37.4661 33.9746 35.1231 33.9746 32.7802 33.9746C32.708 33.2067 33.3052 32.5308 34.0468 32.5308C35.9566 32.5308 37.8664 32.5308 39.8221 32.5308Z" fill="#D6EEFF"/>
</svg>
