<svg width="80" height="80" viewBox="0 0 80 80" fill="none" xmlns="http://www.w3.org/2000/svg">
<path opacity="0.2" d="M9.16862 61.7761L35.9459 46.7028C37.4532 45.8161 37.1872 44.3975 35.5025 43.4221C33.8179 42.4468 28.2319 42.4468 26.7246 43.2448L1.54331 57.3427C-0.673353 58.6727 1.54331 60.5347 3.40531 61.4214C5.17863 62.4854 7.74996 62.574 9.16862 61.7761Z" fill="#92B4D1"/>
<path d="M8.45947 62.4855L37.9854 45.4616C39.67 44.4862 41 41.9149 41 39.6096V20.2804C41 18.0637 39.67 16.9997 37.9854 17.975L8.45947 34.999C6.77481 35.9743 5.44482 38.5456 5.44482 40.8509V60.1802C5.35615 62.3968 6.77481 63.4608 8.45947 62.4855Z" fill="#A8CFF0"/>
<path d="M8.01647 47.2348L37.099 30.4768C38.429 29.5902 39.3157 27.9055 39.3157 26.1322V21.0782C39.3157 20.6349 38.8723 20.3689 38.5177 20.6349C38.5177 20.6349 38.429 20.6349 38.429 20.7235L9.34646 37.5701C7.75047 38.4568 7.12981 40.1415 7.12981 41.9148V46.8801C7.12981 47.2348 7.57314 47.5008 8.01647 47.2348C8.01647 47.3234 8.01647 47.3234 8.01647 47.2348Z" fill="#084C94"/>
<path d="M8.01647 60.0023L37.099 43.2443C38.429 42.3577 39.3157 40.673 39.3157 38.8997V33.8457C39.3157 33.4024 38.8723 33.1364 38.5177 33.4024C38.5177 33.4024 38.429 33.4024 38.429 33.4911L9.34646 50.3376C7.75047 51.2243 7.12981 52.909 7.12981 54.6823V59.6476C7.12981 60.0023 7.57314 60.2683 8.01647 60.0023C8.01647 60.0023 8.01647 60.0909 8.01647 60.0023Z" fill="#084C94"/>
<path d="M7.48446 46.8812C7.48446 46.8812 7.57313 46.8812 7.48446 46.8812L36.567 30.0346C37.897 29.148 38.7837 27.4633 38.7837 25.69V20.636C38.7837 20.5473 38.7837 20.5473 38.7837 20.4587C39.0497 20.4587 39.3157 20.7247 39.3157 20.9907V26.0447C39.3157 27.818 38.5177 29.5026 37.099 30.3893L8.01645 47.1472C8.01645 47.1472 8.01646 47.1472 7.92779 47.1472C7.57313 47.3246 7.21846 47.1472 7.04113 46.7926C7.21846 46.9699 7.3958 46.9699 7.48446 46.8812Z" fill="#001A46"/>
<path d="M7.48446 59.6488C7.48446 59.6488 7.57313 59.6488 7.48446 59.6488L36.567 42.8022C37.897 41.9156 38.7837 40.2309 38.7837 38.4576V33.4036C38.7837 33.3149 38.7837 33.3149 38.7837 33.2263C39.0497 33.2263 39.3157 33.4923 39.3157 33.7583V38.8122C39.3157 40.5856 38.5177 42.2702 37.099 43.1569L8.01645 59.9148C8.01645 59.9148 8.01646 59.9148 7.92779 59.9148C7.57313 60.0921 7.21846 59.9148 7.04113 59.5602C7.21846 59.7375 7.3958 59.7375 7.48446 59.6488Z" fill="#001A46"/>
<path d="M6.95106 34.3786L36.477 17.3547C37.1863 17 37.7183 16.9113 38.2503 17.0887C38.339 17.0887 39.7576 17.798 39.7576 17.8867C39.2256 17.6207 38.605 17.7093 37.8956 18.064L8.36973 35.0879C6.68507 36.0633 5.35507 38.6346 5.35507 40.9399V60.2691C5.35507 61.6878 5.88707 62.5745 6.68506 62.8405C6.5964 62.8405 6.50773 62.8405 6.41906 62.7518C6.41906 62.7518 4.91174 61.9538 4.82308 61.9538C4.20241 61.5105 3.84774 60.7125 3.84774 59.5598V40.2306C3.93641 37.9252 5.35507 35.3539 6.95106 34.3786Z" fill="#3F92D1"/>
<path d="M6.95109 34.3786L36.477 17.3547C37.1863 17 37.7183 16.9113 38.2503 17.0887C38.339 17.0887 39.7576 17.798 39.7576 17.8867C39.2256 17.6207 38.605 17.7093 37.8956 18.064L8.36976 35.0879L6.95109 34.3786Z" fill="#4F9FDB"/>
<path d="M8.28131 34.999L37.8072 17.975C38.5165 17.6204 39.1372 17.5317 39.6692 17.709C39.2259 17.6204 38.6939 17.709 38.1619 18.0637L8.63597 35.0876C6.95131 36.063 5.62132 38.6343 5.62132 40.9396V60.2689C5.62132 61.5989 6.06465 62.4855 6.86264 62.8402C5.88731 62.6629 5.26666 61.6875 5.26666 60.1802V40.8509C5.26666 38.5456 6.59665 35.9743 8.28131 34.999Z" fill="white"/>
<path d="M15.2863 51.2259C15.2863 52.3785 14.4883 53.7972 13.4243 54.4179C12.449 55.0385 11.5623 54.5065 11.5623 53.3539C11.5623 52.2012 12.3603 50.7825 13.4243 50.1619C14.3996 49.5412 15.2863 50.0732 15.2863 51.2259Z" fill="#001A46"/>
<path d="M19.9857 48.4776C19.9857 49.6302 19.1877 51.0489 18.1237 51.6696C17.1484 52.2902 16.2618 51.7582 16.2618 50.6056C16.2618 49.4529 17.0598 48.0342 18.1237 47.4136C19.1877 46.7929 19.9857 47.3249 19.9857 48.4776Z" fill="#001A46"/>
<path d="M24.6852 45.7293C24.6852 46.882 23.8872 48.3006 22.8232 48.9213C21.8479 49.542 20.9612 49.01 20.9612 47.8573C20.9612 46.7046 21.7592 45.286 22.8232 44.6653C23.8872 44.0446 24.6852 44.5766 24.6852 45.7293Z" fill="#001A46"/>
<path d="M29.473 42.981C29.473 44.1336 28.675 45.5523 27.611 46.173C26.6357 46.7936 25.749 46.2616 25.749 45.109C25.749 43.9563 26.547 42.5377 27.611 41.917C28.675 41.2963 29.473 41.8283 29.473 42.981Z" fill="#001A46"/>
<path d="M34.1726 40.2307C34.1726 41.3834 33.3746 42.802 32.3106 43.4227C31.3353 44.0434 30.4486 43.5114 30.4486 42.3587C30.4486 41.2061 31.2466 39.7874 32.3106 39.1667C33.3746 38.5461 34.1726 39.0781 34.1726 40.2307Z" fill="#001A46"/>
<path d="M15.8185 51.2271C15.8185 52.3798 15.0205 53.7984 13.9565 54.4191C12.9812 55.0398 12.0945 54.5078 12.0945 53.3551C12.0945 52.2025 12.8925 50.7838 13.9565 50.1631C15.0205 49.6311 15.8185 50.0744 15.8185 51.2271Z" fill="#A8CFF0"/>
<path d="M20.518 48.4788C20.518 49.6315 19.72 51.0502 18.656 51.6708C17.6807 52.2915 16.794 51.7595 16.794 50.6068C16.794 49.4542 17.592 48.0355 18.656 47.4148C19.72 46.8828 20.518 47.3262 20.518 48.4788Z" fill="#A8CFF0"/>
<path d="M25.3058 45.7305C25.3058 46.8832 24.5079 48.3019 23.4439 48.9225C22.4685 49.5432 21.5819 49.0112 21.5819 47.8585C21.5819 46.7059 22.3799 45.2872 23.4439 44.6665C24.5079 44.1345 25.3058 44.5779 25.3058 45.7305Z" fill="#A8CFF0"/>
<path d="M30.0052 42.9822C30.0052 44.1349 29.2073 45.5535 28.1433 46.1742C27.1679 46.7949 26.2813 46.2629 26.2813 45.1102C26.2813 43.9576 27.0793 42.5389 28.1433 41.9182C29.2073 41.3862 30.0052 41.8296 30.0052 42.9822Z" fill="#A8CFF0"/>
<path d="M34.793 40.232C34.793 41.3847 33.995 42.8033 32.9311 43.424C31.9557 44.0447 31.0691 43.5127 31.0691 42.36C31.0691 41.2073 31.8671 39.7887 32.9311 39.168C33.9064 38.636 34.793 39.0793 34.793 40.232Z" fill="#A8CFF0"/>
<path d="M15.2863 38.1022C15.2863 39.2549 14.4883 40.6735 13.4243 41.2942C12.449 41.9149 11.5623 41.3829 11.5623 40.2302C11.5623 39.0776 12.3603 37.6589 13.4243 37.0382C14.3996 36.5062 15.2863 36.9496 15.2863 38.1022Z" fill="#001A46"/>
<path d="M19.9857 35.354C19.9857 36.5067 19.1877 37.9253 18.1237 38.546C17.1484 39.1666 16.2618 38.6347 16.2618 37.482C16.2618 36.3293 17.0598 34.9107 18.1237 34.29C19.1877 33.758 19.9857 34.2013 19.9857 35.354Z" fill="#001A46"/>
<path d="M24.6852 32.6057C24.6852 33.7584 23.8872 35.177 22.8232 35.7977C21.8479 36.4183 20.9612 35.8864 20.9612 34.7337C20.9612 33.581 21.7592 32.1624 22.8232 31.5417C23.8872 31.0097 24.6852 31.453 24.6852 32.6057Z" fill="#001A46"/>
<path d="M29.473 29.8574C29.473 31.0101 28.675 32.4287 27.611 33.0494C26.6357 33.6701 25.749 33.1381 25.749 31.9854C25.749 30.8328 26.547 29.4141 27.611 28.7934C28.675 28.2614 29.473 28.7048 29.473 29.8574Z" fill="#001A46"/>
<path d="M34.1726 27.1075C34.1726 28.2602 33.3746 29.6789 32.3106 30.2995C31.3353 30.9202 30.4486 30.3882 30.4486 29.2355C30.4486 28.0829 31.2466 26.6642 32.3106 26.0435C33.3746 25.5116 34.1726 25.9549 34.1726 27.1075Z" fill="#001A46"/>
<path d="M15.8185 38.1913C15.8185 39.344 15.0205 40.7626 13.9565 41.3833C12.9812 42.0039 12.0945 41.4719 12.0945 40.3193C12.0945 39.1666 12.8925 37.748 13.9565 37.1273C15.0205 36.5067 15.8185 37.0386 15.8185 38.1913Z" fill="#A8CFF0"/>
<path d="M20.518 35.443C20.518 36.5957 19.72 38.0144 18.656 38.635C17.6807 39.2557 16.794 38.7237 16.794 37.571C16.794 36.4184 17.592 34.9997 18.656 34.379C19.72 33.7584 20.518 34.2904 20.518 35.443Z" fill="#A8CFF0"/>
<path d="M25.3058 32.6931C25.3058 33.8458 24.5079 35.2644 23.4439 35.8851C22.4685 36.5057 21.5819 35.9737 21.5819 34.8211C21.5819 33.6684 22.3799 32.2498 23.4439 31.6291C24.5079 31.0084 25.3058 31.5404 25.3058 32.6931Z" fill="#A8CFF0"/>
<path d="M30.0052 29.9464C30.0052 31.0991 29.2073 32.5178 28.1433 33.1385C27.1679 33.7591 26.2813 33.2271 26.2813 32.0745C26.2813 30.9218 27.0793 29.5031 28.1433 28.8824C29.2073 28.2618 30.0052 28.7938 30.0052 29.9464Z" fill="#A8CFF0"/>
<path d="M34.793 27.1964C34.793 28.349 33.995 29.7677 32.9311 30.3884C31.9557 31.009 31.0691 30.477 31.0691 29.3244C31.0691 28.1717 31.8671 26.753 32.9311 26.1324C33.9064 25.5117 34.793 26.0437 34.793 27.1964Z" fill="#A8CFF0"/>
</svg>
