<svg width="50" height="37" viewBox="0 0 50 37" fill="none" xmlns="http://www.w3.org/2000/svg">
<path d="M20 23.4152V25.25C20 26.7668 23.6953 28 28.25 28C32.8047 28 36.5 26.7668 36.5 25.25V23.4152C34.7254 24.6656 31.4812 25.25 28.25 25.25C25.0188 25.25 21.7746 24.6656 20 23.4152ZM33.75 11.5C38.3047 11.5 42 10.2668 42 8.75C42 7.2332 38.3047 6 33.75 6C29.1953 6 25.5 7.2332 25.5 8.75C25.5 10.2668 29.1953 11.5 33.75 11.5ZM20 18.9078V21.125C20 22.6418 23.6953 23.875 28.25 23.875C32.8047 23.875 36.5 22.6418 36.5 21.125V18.9078C34.7254 20.3687 31.477 21.125 28.25 21.125C25.023 21.125 21.7746 20.3687 20 18.9078ZM37.875 19.3805C40.3371 18.9035 42 18.0184 42 17V15.1652C41.0031 15.8699 39.5379 16.3512 37.875 16.6477V19.3805ZM28.25 12.875C23.6953 12.875 20 14.4133 20 16.3125C20 18.2117 23.6953 19.75 28.25 19.75C32.8047 19.75 36.5 18.2117 36.5 16.3125C36.5 14.4133 32.8047 12.875 28.25 12.875ZM37.673 15.2941C40.2512 14.8301 42 13.9191 42 12.875V11.0402C40.4746 12.1188 37.8535 12.6988 35.0949 12.8363C36.3625 13.4508 37.2949 14.2758 37.673 15.2941Z" fill="#D6EEFF"/>
<path d="M20.5 22H19.75V19.75C19.75 17.1312 17.6188 15 15 15C12.3812 15 10.25 17.1312 10.25 19.75V22H9.5C8.67188 22 8 22.6719 8 23.5V29.5C8 30.3281 8.67188 31 9.5 31H20.5C21.3281 31 22 30.3281 22 29.5V23.5C22 22.6719 21.3281 22 20.5 22ZM17.25 22H12.75V19.75C12.75 18.5094 13.7594 17.5 15 17.5C16.2406 17.5 17.25 18.5094 17.25 19.75V22Z" fill="#0364FF"/>
</svg>
