<svg width="80" height="80" viewBox="0 0 80 80" fill="none" xmlns="http://www.w3.org/2000/svg">
<path d="M40.9879 17.248L35.0826 13.8647C34.8244 13.6763 34.5462 13.5169 34.253 13.3894L34.166 13.3401L34.1623 13.3474C32.5736 12.7016 30.5215 12.9347 28.2828 14.2268L10.0945 24.7268C5.09352 27.6144 1.00177 34.7016 1.00177 40.477V61.4774C1.00177 64.2937 1.97968 66.2909 3.55687 67.2707L3.54167 67.2983L10.1047 71.017L13.7952 64.5912L28.2833 56.2276C33.2834 53.34 37.3761 46.2523 37.3761 40.4774V23.5365L40.9879 17.248V17.248Z" fill="#DCF1F9"/>
<path d="M40.9861 17.247L34.6654 15.7643C34.407 15.5764 33.1163 15.581 32.8219 15.452L32.353 15.265L31.5091 15.1084C29.9204 14.4626 30.5197 12.9337 28.2811 14.2258L10.0928 24.7258C5.09175 27.6134 1 34.7006 1 40.476V61.4764C1 64.2927 1.97791 66.29 3.5551 67.2697L3.5399 67.2974L10.1029 71.016L13.7934 64.5903L28.2815 56.2267C33.2816 53.339 37.3743 46.2513 37.3743 40.4764V23.5355L40.9861 17.247V17.247Z" fill="#DFF1FF"/>
<path d="M1.34639 37.4517C1.12575 38.4798 1 39.4978 1 40.4771V61.4775C1 64.2938 1.97791 66.2911 3.5551 67.2708L3.5399 67.2985L10.1029 71.0171L13.7934 64.5914L28.2815 56.2278C29.1309 55.7372 29.9522 55.1177 30.733 54.4106L1.34639 37.4517Z" fill="#D1EBFF"/>
<path d="M16.3435 28.3526C11.3425 31.2398 7.24982 38.328 7.24982 44.1028V65.1037C7.24982 70.8786 11.3425 73.2412 16.3435 70.353L34.5309 59.853C39.5319 56.9658 43.6246 49.8782 43.6246 44.1028V23.1019C43.6246 17.3271 39.5319 14.965 34.5309 17.8526L16.3435 28.3526Z" fill="#03336E"/>
<path opacity="0.1" d="M43.625 23.1019C43.625 17.3271 39.5324 14.965 34.5314 17.8526L16.3435 28.3526C11.3425 31.2398 7.24982 38.328 7.24982 44.1028V65.1037C7.24982 70.8786 11.3425 73.2412 16.3435 70.353" fill="#5BC0D8"/>
<path d="M12.3039 71.959H12.303C9.00583 71.959 6.87543 69.2675 6.87543 65.1021V44.1012C6.87543 38.1923 11.0381 30.9807 16.1552 28.0263L34.3435 17.5263C35.818 16.675 37.2404 16.2439 38.5712 16.2439C41.8683 16.2439 43.9996 18.9358 43.9996 23.1008V44.1017C43.9996 50.0111 39.836 57.2222 34.7189 60.1766L16.5306 70.6766C15.0557 71.5274 13.6342 71.959 12.3039 71.959ZM38.5712 16.9933C37.3735 16.9933 36.0773 17.3909 34.7189 18.1744L16.5306 28.6757C11.6203 31.5109 7.62487 38.4309 7.62487 44.1012V65.1021C7.62487 68.8691 9.41717 71.2091 12.303 71.2091H12.3039C13.5015 71.2091 14.7968 70.8116 16.1552 70.028L34.3435 59.5271C39.2538 56.6924 43.2493 49.772 43.2493 44.1017V23.1003C43.2493 19.3333 41.4574 16.9933 38.5712 16.9933V16.9933Z" fill="white"/>
<path d="M26.7977 31.4692C23.5147 33.3647 20.5951 36.7071 18.6184 40.4748C18.0202 41.6127 17.51 42.7947 17.0922 44.0106L26.7977 31.4692" fill="#FF7976"/>
<path d="M26.8006 31.4682L17.0956 44.0096L20.7499 45.1042C21.1692 43.3878 21.9804 41.6512 23.0465 40.1405C24.0998 38.646 25.4001 37.3731 26.8153 36.5563C28.3399 35.6761 29.723 35.5006 30.8092 35.8929L33.948 30.4557C32.0227 29.6448 29.5573 29.8771 26.8006 31.4682Z" fill="#E3443A"/>
<path d="M17.095 44.0102C16.43 45.9592 16.046 47.9324 16.0083 49.8105C16.0055 49.9274 16 50.0427 16 50.158C16.0004 50.2738 16.0067 50.3819 16.0099 50.4957C16.0579 52.3203 16.4522 53.8476 17.1259 55.0207L20.7588 49.7118L17.1259 55.0207L17.095 44.0102" fill="#F4D72C"/>
<path d="M17.0956 44.0102L17.1269 55.0203L20.7598 49.7114C20.5819 49.1942 20.4764 48.597 20.4471 47.9348C20.4408 47.8226 20.4344 47.714 20.434 47.5983C20.434 47.4834 20.4396 47.3681 20.4455 47.2492C20.4705 46.5513 20.5755 45.8288 20.7499 45.1048L17.0956 44.0102" fill="#F7B92B"/>
<path d="M20.7623 49.72L17.1259 55.0237L23.0787 52.0138C22.0111 51.7336 21.1891 50.9477 20.7623 49.72" fill="#59C96E"/>
<path d="M17.1259 55.0229C17.5396 55.7434 18.0588 56.3331 18.6639 56.7825C20.6549 58.2623 23.5872 58.227 26.8701 56.3311C27.8621 55.7581 28.8386 55.0439 29.7687 54.2093C31.3155 52.8223 32.7406 51.1035 33.9208 49.1573L30.4492 48.0837C29.4742 49.3538 28.2461 50.4448 26.8559 51.2474C26.0403 51.7182 25.2639 51.9877 24.5482 52.0855C24.0211 52.1553 23.5273 52.1279 23.0787 52.0126L17.1259 55.0229" fill="#40A557"/>
<path d="M26.8436 46.4422L26.8372 44.2431L26.8352 43.5579L32.6553 43.0871L26.8436 46.4422V46.4422ZM36.2748 36.1855L26.8301 41.6382L26.8356 43.5583L26.8376 44.2435L26.8439 46.4426L32.6557 43.0875C32.3684 44.8954 31.5806 46.611 30.4511 48.0829L33.9227 49.1565C34.8891 47.5677 35.659 45.8674 36.2153 44.0929C36.832 42.1261 37.1823 40.0502 37.1763 37.9312C37.1827 40.0502 36.832 42.1261 36.2153 44.0929C35.6591 45.8674 34.8892 47.5677 33.9227 49.1565L36.2748 36.1855" fill="#0FAEF4"/>
<path d="M36.9208 35.8136L36.2725 36.1877L33.9196 49.1583C34.886 47.5695 35.6559 45.8692 36.2122 44.0947C36.8289 42.1279 37.1792 40.0521 37.1733 37.933C37.1677 37.2194 37.083 36.5086 36.9208 35.8136" fill="#4087ED"/>
<path d="M26.8334 43.5587L26.8354 44.2435L26.8418 46.4426L32.6535 43.0875L26.8334 43.5587" fill="#4087ED"/>
<path d="M75.8076 5.95407L71.7011 3.60133C71.5215 3.47029 71.3281 3.35943 71.1242 3.27076L71.0637 3.23648L71.0611 3.24161C69.9563 2.79252 68.5293 2.9546 66.9726 3.8531L54.3244 11.1548C50.8467 13.1629 48.0013 18.0913 48.0013 22.1074V36.7111C48.0013 38.6695 48.6814 40.0584 49.7782 40.7398L49.7676 40.759L54.3315 43.3449L56.8979 38.8765L66.9729 33.0604C70.4499 31.0524 73.296 26.1236 73.296 22.1078V10.3271L75.8076 5.95407V5.95407Z" fill="#DCF1F9"/>
<path d="M75.8063 5.95338L71.4108 4.92227C71.2311 4.79158 70.3336 4.79478 70.1289 4.7051L69.8028 4.57505L69.216 4.46614C68.1112 4.01705 68.528 2.95391 66.9712 3.85241L54.3231 11.1541C50.8454 13.1622 48 18.0906 48 22.1068V36.7104C48 38.6689 48.68 40.0578 49.7768 40.7391L49.7662 40.7583L54.3301 43.3442L56.8965 38.8758L66.9715 33.0597C70.4486 31.0517 73.2946 26.1229 73.2946 22.1071V10.3264L75.8063 5.95338V5.95338Z" fill="#DFF1FF"/>
<path d="M48.2409 20.0037C48.0874 20.7186 48 21.4265 48 22.1075V36.7112C48 38.6696 48.68 40.0585 49.7768 40.7398L49.7662 40.7591L54.3301 43.345L56.8965 38.8765L66.9715 33.0605C67.5622 32.7194 68.1333 32.2885 68.6763 31.7969L48.2409 20.0037Z" fill="#D1EBFF"/>
<path d="M58.67 13.6762C55.1923 15.684 52.3463 20.613 52.3463 24.6289V39.2329C52.3463 43.2487 55.1923 44.8916 58.67 42.8832L71.3175 35.5815C74.7952 33.5738 77.6412 28.645 77.6412 24.6289V10.0249C77.6412 6.00903 74.7952 4.36643 71.3175 6.37452L58.67 13.6762Z" fill="#03336E"/>
<path opacity="0.1" d="M77.6415 10.0249C77.6415 6.00903 74.7955 4.36643 71.3178 6.37452L58.67 13.6762C55.1923 15.684 52.3463 20.613 52.3463 24.6289V39.2329C52.3463 43.2487 55.1923 44.8916 58.67 42.8832" fill="#5BC0D8"/>
<path d="M55.8604 44H55.8598C53.5669 44 52.0854 42.1284 52.0854 39.2317V24.6277C52.0854 20.5187 54.9802 15.5038 58.5386 13.4492L71.1867 6.14757C72.2121 5.55562 73.2012 5.2558 74.1266 5.2558C76.4195 5.2558 77.9016 7.12774 77.9016 10.0241V24.6281C77.9016 28.7374 75.0062 33.752 71.4478 35.8066L58.7997 43.1082C57.774 43.6999 56.7855 44 55.8604 44ZM74.1266 5.77696C73.2938 5.77696 72.3924 6.05339 71.4478 6.59826L58.7997 13.9009C55.3851 15.8725 52.6066 20.6846 52.6066 24.6277V39.2317C52.6066 41.8513 53.853 43.4785 55.8598 43.4785H55.8604C56.6932 43.4785 57.594 43.2021 58.5386 42.6572L71.1867 35.3549C74.6013 33.3837 77.3798 28.5712 77.3798 24.6281V10.0237C77.3798 7.40418 76.1337 5.77696 74.1266 5.77696V5.77696Z" fill="white"/>
<path d="M64.8076 38.9541L60.7011 36.6013C60.5215 36.4703 60.3281 36.3594 60.1242 36.2708L60.0637 36.2365L60.0611 36.2416C58.9563 35.7925 57.5293 35.9546 55.9726 36.8531L43.3244 44.1548C39.8467 46.1629 37.0013 51.0913 37.0013 55.1074V69.7111C37.0013 71.6695 37.6814 73.0584 38.7782 73.7398L38.7676 73.759L43.3315 76.3449L45.8979 71.8765L55.9729 66.0604C59.4499 64.0524 62.296 59.1236 62.296 55.1078V43.3271L64.8076 38.9541V38.9541Z" fill="#DCF1F9"/>
<path d="M64.8063 38.9534L60.4108 37.9223C60.2311 37.7916 59.3336 37.7948 59.1289 37.7051L58.8028 37.575L58.216 37.4661C57.1112 37.017 57.528 35.9539 55.9712 36.8524L43.3231 44.1541C39.8454 46.1622 37 51.0906 37 55.1068V69.7104C37 71.6689 37.68 73.0578 38.7768 73.7391L38.7662 73.7583L43.3301 76.3442L45.8965 71.8758L55.9715 66.0597C59.4486 64.0517 62.2946 59.1229 62.2946 55.1071V43.3264L64.8063 38.9534V38.9534Z" fill="#DFF1FF"/>
<path d="M37.2409 53.0037C37.0874 53.7186 37 54.4265 37 55.1075V69.7112C37 71.6696 37.68 73.0585 38.7768 73.7398L38.7662 73.7591L43.3301 76.345L45.8965 71.8765L55.9715 66.0605C56.5622 65.7194 57.1333 65.2885 57.6763 64.7969L37.2409 53.0037Z" fill="#D1EBFF"/>
<path d="M47.67 46.6762C44.1923 48.684 41.3463 53.613 41.3463 57.6289V72.2329C41.3463 76.2487 44.1923 77.8916 47.67 75.8832L60.3175 68.5815C63.7952 66.5738 66.6412 61.645 66.6412 57.6289V43.0249C66.6412 39.009 63.7952 37.3664 60.3175 39.3745L47.67 46.6762Z" fill="#03336E"/>
<path opacity="0.1" d="M66.6415 43.0249C66.6415 39.009 63.7955 37.3664 60.3178 39.3745L47.67 46.6762C44.1923 48.684 41.3463 53.613 41.3463 57.6289V72.2329C41.3463 76.2487 44.1923 77.8916 47.67 75.8832" fill="#5BC0D8"/>
<path d="M44.8604 77H44.8598C42.5669 77 41.0854 75.1284 41.0854 72.2317V57.6277C41.0854 53.5187 43.9802 48.5038 47.5386 46.4492L60.1867 39.1476C61.2121 38.5556 62.2012 38.2558 63.1266 38.2558C65.4195 38.2558 66.9016 40.1277 66.9016 43.0241V57.6281C66.9016 61.7374 64.0062 66.752 60.4478 68.8066L47.7997 76.1082C46.774 76.6999 45.7855 77 44.8604 77ZM63.1266 38.777C62.2938 38.777 61.3924 39.0534 60.4478 39.5983L47.7997 46.9009C44.3851 48.8725 41.6066 53.6846 41.6066 57.6277V72.2317C41.6066 74.8513 42.853 76.4785 44.8598 76.4785H44.8604C45.6932 76.4785 46.594 76.2021 47.5386 75.6572L60.1867 68.3549C63.6013 66.3837 66.3798 61.5712 66.3798 57.6281V43.0237C66.3798 40.4042 65.1337 38.777 63.1266 38.777V38.777Z" fill="white"/>
<g clip-path="url(#clip0)">
<path d="M65.9004 16.1762C61.8537 18.2215 58.3783 23.5347 58.1259 28.0619C57.9241 31.681 59.8494 33.6849 62.6968 33.2996C63.0557 33.1972 63.2034 32.8723 63.2154 32.6554C63.226 32.4657 63.2502 31.8212 63.288 31.1434C61.2253 32.6602 60.8828 31.4106 60.8828 31.4106C60.6086 30.6271 60.1376 30.6281 60.1376 30.6281C59.4991 30.4634 60.214 30.1021 60.214 30.1021C60.95 29.7828 61.2939 30.373 61.2939 30.373C61.8787 31.2893 62.9524 30.4041 63.3886 29.9729C63.4786 29.4137 63.6929 28.9497 63.9102 28.6423C62.2972 29.2731 60.6281 29.4317 60.8035 26.2871C60.8534 25.3924 61.1849 24.5135 61.6771 23.7115C61.6157 23.545 61.4082 22.8332 61.8707 21.506C61.8707 21.506 62.5007 20.9769 63.8351 21.3299C64.4265 20.8597 65.0618 20.4464 65.6798 20.1341C66.2977 19.8218 66.9224 19.5982 67.4942 19.4805C68.9465 17.719 69.5523 17.6236 69.5523 17.6236C69.8894 18.5465 69.5881 19.5155 69.5041 19.7556C69.9449 20.0861 70.1827 20.6772 70.1328 21.5718C69.9575 24.7164 68.2106 26.2712 66.5636 27.3012C66.8158 27.424 67.0188 27.7956 66.9757 28.5682C66.9145 29.6662 66.8533 30.5533 66.8381 30.8244C66.8261 31.0413 66.945 31.2315 67.313 30.9664C70.2813 28.4124 72.5482 24.2896 72.75 20.6705C73.0145 16.1372 69.9351 14.137 65.9004 16.1762Z" fill="white"/>
<path d="M60.7019 30.2242C60.6876 30.271 60.6262 30.3152 60.5793 30.3126C60.5323 30.31 60.499 30.2741 60.5255 30.2212C60.5399 30.1744 60.6012 30.1303 60.6482 30.1329C60.6951 30.1355 60.7163 30.1775 60.7019 30.2242ZM60.9723 30.4432C60.9337 30.5023 60.8625 30.5119 60.8292 30.4761C60.7838 30.4463 60.7762 30.3711 60.8148 30.3121C60.8534 30.2531 60.9125 30.2496 60.9579 30.2793C61.0026 30.3226 61.0102 30.3978 60.9723 30.4432ZM61.2367 30.7707C61.1859 30.8358 61.1155 30.8319 61.0829 30.7825C61.0382 30.7392 61.0435 30.6444 61.0935 30.5928C61.1442 30.5276 61.2147 30.5315 61.2472 30.5809C61.2919 30.6242 61.2874 30.7055 61.2367 30.7707ZM61.6108 31.0295C61.5714 31.1021 61.4874 31.1314 61.4185 31.1003C61.3616 31.0632 61.3427 30.9805 61.3934 30.9154C61.4328 30.8428 61.5169 30.8135 61.5858 30.8445C61.6433 30.8681 61.6502 30.9569 61.6108 31.0295ZM62.1417 31.0114C62.1258 31.0853 62.0394 31.1553 61.9561 31.1711C61.8728 31.1868 61.8289 31.13 61.844 31.0696C61.8599 30.9957 61.9463 30.9258 62.0296 30.91C62.1129 30.8943 62.1576 30.9375 62.1417 31.0114ZM62.7323 30.7656C62.7285 30.8334 62.6528 30.9243 62.568 30.9672C62.4832 31.0101 62.4135 30.9926 62.4173 30.9248C62.4211 30.857 62.4968 30.7661 62.5816 30.7232C62.6664 30.6803 62.7361 30.6978 62.7323 30.7656ZM63.2957 30.3755C63.304 30.4371 63.2397 30.5355 63.1541 30.5919C63.0685 30.6483 62.9981 30.6444 62.9898 30.5828C62.9814 30.5211 63.0458 30.4227 63.1314 30.3663C63.2169 30.3099 63.2874 30.3138 63.2957 30.3755Z" fill="white"/>
</g>
<path d="M62.7094 51.6693C62.1068 52.0804 61.4901 52.4159 60.8809 52.6639C61.6017 52.086 62.2134 51.3392 62.6032 50.5613C61.9332 51.0944 61.2311 51.5384 60.5286 51.8734C60.3271 51.6472 60.0504 51.5007 59.7163 51.4433C59.3821 51.3858 58.9978 51.4187 58.5881 51.5398C56.9426 52.0273 55.2751 53.8101 54.8639 55.5225C54.8055 55.7656 54.7743 55.9939 54.7706 56.206C52.3244 56.8103 50.4241 56.2276 49.4036 54.7865C49.0241 55.3407 48.7562 55.9192 48.6259 56.4654C48.3678 57.5405 48.6666 58.3336 49.3321 58.6531C48.8617 58.7776 48.4302 58.7822 48.0749 58.6663L48.0658 58.7044C47.705 60.2068 48.4315 61.1555 49.7274 61.0351C49.4546 61.1841 49.1816 61.2991 48.9165 61.3768C48.7246 61.4337 48.5414 61.4709 48.3686 61.4878C48.4518 62.6072 49.3372 63.1775 50.6362 62.815C49.9021 63.4998 49.1059 64.0822 48.2947 64.5276C47.4835 64.9729 46.6739 65.2722 45.9141 65.4075C47.0522 65.9133 48.5249 65.9265 50.1496 65.4456C55.6334 63.821 59.7655 58.2102 60.7493 54.1132C60.7818 53.9781 60.811 53.8445 60.8379 53.714C61.5253 53.1043 62.1617 52.4093 62.7094 51.6693Z" fill="#55ACEE"/>
<defs>
<clipPath id="clip0">
<rect width="16.3844" height="15.994" fill="white" transform="matrix(0.892482 -0.451082 -0.0556677 0.998449 58.5823 19.8749)"/>
</clipPath>
</defs>
</svg>
