<svg width="139" height="135" viewBox="0 0 139 135" fill="none" xmlns="http://www.w3.org/2000/svg">
<g filter="url(#filter0_d)">
<path fill-rule="evenodd" clip-rule="evenodd" d="M72.7839 0.00670526C88.241 -0.302399 101.226 10.1192 110.905 22.2077C120.635 34.3578 126.974 49.1428 124.44 64.5168C121.71 81.0861 112.671 97.0545 97.4251 104.005C82.4913 110.813 65.9598 104.81 51.0355 97.9809C35.5624 90.9007 17.7322 82.7797 14.4622 66.0424C11.2498 49.5996 25.4444 36.2384 36.5225 23.6951C46.5851 12.3015 57.6097 0.310153 72.7839 0.00670526Z" fill="#0364FF"/>
</g>
<g filter="url(#filter1_d)">
<rect x="25" y="9" width="90" height="90" rx="9" fill="url(#paint0_linear)"/>
</g>
<path d="M48.9175 63.9678C48.5007 63.9678 48.0839 63.6899 47.8755 63.2731C46.6252 60.3556 46 57.2298 46 53.9649C46 53.3398 46.4862 52.8535 47.1114 52.8535C47.7366 52.8535 48.2229 53.3398 48.2229 53.9649C48.2229 56.8824 48.7786 59.7305 49.9595 62.4396C50.2373 62.9953 49.9595 63.6899 49.3343 63.8983C49.1954 63.9678 49.0564 63.9678 48.9175 63.9678Z" fill="#0364FF"/>
<path d="M90.318 66.6768C90.179 66.6768 89.9706 66.6074 89.8317 66.5379C89.276 66.26 88.9981 65.5654 89.276 65.0097C90.2485 62.9258 90.8737 60.7724 91.1515 58.48C91.221 57.8549 91.7767 57.4381 92.4019 57.5075C93.0271 57.577 93.4438 58.1327 93.3744 58.7579C93.0271 61.2586 92.3324 63.6899 91.2905 65.9127C91.1515 66.399 90.7347 66.6768 90.318 66.6768Z" fill="#0364FF"/>
<path d="M92.8205 55.0769C92.1953 55.0769 91.7091 54.5906 91.7091 53.9654C91.7091 45.2129 86.4993 37.3635 78.4414 33.9598C77.8857 33.6819 77.6079 33.0567 77.8163 32.501C78.0941 31.9453 78.7193 31.6674 79.275 31.8758C88.2359 35.6269 93.9319 44.3099 93.9319 53.9654C93.9319 54.5906 93.4457 55.0769 92.8205 55.0769Z" fill="#0364FF"/>
<path d="M48.3648 47.5744C48.2259 47.5744 48.087 47.5744 48.0175 47.505C47.4618 47.2966 47.1145 46.6714 47.3228 46.0462C50.6571 36.4602 59.7569 30 69.9682 30C70.5933 30 71.0796 30.4862 71.0796 31.1114C71.0796 31.7366 70.5933 32.2229 69.9682 32.2229C60.7294 32.2229 52.4632 38.0578 49.4762 46.8103C49.3373 47.2966 48.8511 47.5744 48.3648 47.5744Z" fill="#0364FF"/>
<path d="M51.8353 57.3007C51.2796 57.3007 50.7934 56.8839 50.7239 56.3282C50.6544 55.5641 50.585 54.7306 50.585 53.9665C50.585 47.0895 54.2666 40.6293 60.2405 37.1561C60.7962 36.8088 61.4908 37.0172 61.7687 37.5729C62.116 38.1286 61.9076 38.8233 61.3519 39.1011C56.0726 42.227 52.8078 47.9231 52.8078 53.9665C52.8078 54.6611 52.8773 55.3557 52.9467 56.0504C53.0162 56.6756 52.5994 57.2313 51.9742 57.3007C51.9048 57.3007 51.9048 57.3007 51.8353 57.3007Z" fill="#0364FF"/>
<path d="M81.2188 40.6968C80.941 40.6968 80.7326 40.6274 80.5242 40.4884C77.4678 38.1267 73.8556 36.8763 69.9656 36.8763C69.1321 36.8763 68.2985 36.9458 67.4649 37.0847C66.8398 37.1542 66.284 36.7374 66.2146 36.1122C66.1451 35.4176 66.5619 34.8618 67.1871 34.7924C68.0901 34.6534 69.0626 34.584 69.9656 34.584C74.3419 34.584 78.4403 35.9733 81.9135 38.6824C82.3997 39.0992 82.4692 39.7938 82.1219 40.28C81.844 40.5579 81.5662 40.6968 81.2188 40.6968Z" fill="#0364FF"/>
<path d="M81.9822 74.5277C81.7044 74.5277 81.496 74.4583 81.2876 74.2499C80.8013 73.8331 80.7319 73.1384 81.1487 72.6522C87.0531 65.4974 89.8317 53.0633 84.4135 44.6581C84.0662 44.1024 84.2051 43.4078 84.7608 43.0605C85.3165 42.7131 86.0112 42.8521 86.3585 43.4078C89.137 47.7145 90.179 53.3411 89.3454 59.2456C88.5813 64.6638 86.2196 70.082 82.9547 74.1109C82.6769 74.3888 82.3296 74.5277 81.9822 74.5277Z" fill="#0364FF"/>
<path d="M71.1455 61.9548C70.5203 61.9548 70.034 61.4685 70.034 60.8433C69.9646 58.69 69.6172 56.5366 69.131 54.5916C68.9921 53.9664 69.3394 53.3412 69.9646 53.2023C70.5897 53.0634 71.2149 53.4107 71.3538 54.0359C71.9096 56.1892 72.2569 58.4816 72.3263 60.8433C72.3263 61.4685 71.8401 61.9548 71.1455 61.9548Z" fill="#0364FF"/>
<path d="M68.5076 77.9304C68.3687 77.9304 68.2298 77.9304 68.0909 77.8609C67.5351 77.6525 67.2573 76.9579 67.4657 76.4022C68.9939 72.6511 69.8969 68.6222 70.1748 64.7322C70.2442 64.107 70.7305 63.6207 71.3557 63.6902C71.9808 63.7597 72.4671 64.2459 72.3976 64.8711C72.1198 68.9695 71.1473 73.2068 69.5496 77.1663C69.4107 77.6525 68.9939 77.9304 68.5076 77.9304Z" fill="#0364FF"/>
<path d="M52.1143 69.3174C52.0448 69.3174 51.9059 69.3174 51.8364 69.2479C51.2112 69.109 50.8639 68.4143 51.0723 67.8586C51.6975 65.7052 51.8364 63.274 51.5586 60.9122C51.4891 60.287 51.9059 59.7313 52.531 59.6618C53.1562 59.5924 53.7119 60.0092 53.7814 60.6343C54.1287 63.274 53.9203 65.9831 53.2257 68.4143C53.0173 69.0395 52.6005 69.3174 52.1143 69.3174Z" fill="#0364FF"/>
<path d="M83.7868 55.0772C83.1616 55.0772 82.6754 54.5909 82.6754 53.9658C82.6754 49.7979 80.5915 45.8384 77.1183 43.4767C76.632 43.1293 76.4931 42.4347 76.8404 41.879C77.1877 41.3927 77.8824 41.2538 78.4381 41.6011C82.5365 44.3797 84.9677 49.0338 84.9677 53.9658C84.9677 54.5909 84.412 55.0772 83.7868 55.0772Z" fill="#0364FF"/>
<path d="M56.1407 55.0775C55.5155 55.0775 55.0293 54.5912 55.0293 53.966C55.0293 45.6998 61.6979 39.0312 69.9641 39.0312C70.4503 39.0312 71.0061 39.0313 71.4923 39.1007C72.1175 39.1702 72.5343 39.7259 72.5343 40.3511C72.4648 40.9762 71.9091 41.393 71.2839 41.393C70.8671 41.3236 70.3809 41.3236 69.9641 41.3236C62.9482 41.3236 57.2522 47.0196 57.2522 54.0355C57.2522 54.5912 56.7659 55.0775 56.1407 55.0775Z" fill="#0364FF"/>
<path d="M55.7936 72.998C55.6547 72.998 55.5158 72.998 55.3769 72.9285C54.8212 72.7201 54.4738 72.0255 54.6822 71.4698C55.5853 69.0385 56.0715 66.4684 56.0715 63.7593C56.0715 62.0227 55.8631 60.286 55.4463 58.6189C55.3074 57.9937 55.6547 57.3686 56.2799 57.2296C56.9051 57.0907 57.5303 57.438 57.6692 58.0632C58.086 59.8693 58.3638 61.8143 58.3638 63.6898C58.3638 66.6073 57.8776 69.4553 56.8356 72.1644C56.6967 72.7201 56.2104 72.998 55.7936 72.998Z" fill="#0364FF"/>
<path d="M72.9534 77.9996C72.6061 77.9996 72.2587 77.8606 72.0504 77.5133C71.703 77.0271 71.842 76.2629 72.3282 75.9156C78.0243 71.9562 81.7059 65.9823 82.6089 58.9664C82.6784 58.3412 83.2341 57.9244 83.8593 57.9939C84.4844 58.0633 84.9012 58.6191 84.8318 59.2442C83.7898 66.8853 79.8303 73.4149 73.5786 77.7217C73.4396 77.9301 73.2312 77.9996 72.9534 77.9996Z" fill="#0364FF"/>
<path d="M61.8364 50.8395C61.628 50.8395 61.4891 50.77 61.2807 50.7006C60.7249 50.4227 60.5166 49.7281 60.7944 49.1724C62.6005 45.7686 66.0737 43.6152 69.9637 43.6152C72.5339 43.6152 75.0346 44.5877 76.9101 46.3243C77.3963 46.7411 77.3963 47.4358 76.9796 47.922C76.5628 48.4083 75.8681 48.4083 75.3819 47.9915C73.9231 46.6717 71.9781 45.9076 69.9637 45.9076C66.9767 45.9076 64.1982 47.5747 62.8089 50.2143C62.6005 50.6311 62.2532 50.8395 61.8364 50.8395Z" fill="#0364FF"/>
<path d="M62.2558 66.051C61.6306 66.051 61.1444 65.5647 61.1444 64.9396C61.1444 61.6748 60.7276 58.4794 59.8246 55.3535C59.6857 54.7283 60.033 54.1032 60.5887 53.9642C61.2139 53.8253 61.839 54.1726 61.978 54.7283C62.881 58.0626 63.3673 61.4664 63.3673 64.8701C63.3673 65.4953 62.881 66.051 62.2558 66.051Z" fill="#0364FF"/>
<path d="M60.1012 75.7069C59.9622 75.7069 59.7538 75.7069 59.6149 75.6374C59.0592 75.3596 58.7813 74.7344 59.0592 74.1092C59.8233 72.4421 60.3096 70.7749 60.5874 68.9689C60.6569 68.3437 61.2821 67.9269 61.9072 68.0658C62.5324 68.1353 62.9492 68.7605 62.8103 69.3857C62.4629 71.3306 61.9072 73.2756 61.0737 75.0817C60.9347 75.429 60.5179 75.7069 60.1012 75.7069Z" fill="#0364FF"/>
<path d="M80.1056 60.9822H80.0361C79.411 60.9127 78.9247 60.4265 78.9942 59.8013C79.1331 57.1617 78.7858 54.522 77.9522 52.0213C77.7438 51.4656 78.0217 50.771 78.6468 50.5626C79.2026 50.3542 79.8972 50.632 80.1056 51.2572C81.0781 54.0358 81.4949 56.9533 81.2865 59.9402C81.217 60.4959 80.7308 60.9822 80.1056 60.9822Z" fill="#0364FF"/>
<path d="M64.0601 77.1665C63.9212 77.1665 63.7823 77.1665 63.5739 77.097C63.0182 76.8191 62.7403 76.194 63.0182 75.5688C63.5739 74.3879 63.9907 73.1375 64.338 71.8872C64.5464 71.262 65.1716 70.9147 65.7273 71.1231C66.3525 71.262 66.6998 71.9567 66.4914 72.5124C66.0746 73.8322 65.5884 75.2215 65.0326 76.4718C64.8937 76.9581 64.4769 77.1665 64.0601 77.1665Z" fill="#0364FF"/>
<path d="M66.2158 69.8016C66.1463 69.8016 66.0769 69.8016 66.0769 69.8016C65.4517 69.7321 65.0349 69.107 65.1044 68.4818C65.3822 66.6757 65.4517 64.8696 65.3128 63.0636C65.2433 62.23 65.1738 61.327 65.0349 60.4934C64.9655 59.8682 65.3822 59.3125 65.938 59.1736C66.5631 59.1041 67.1188 59.5209 67.2578 60.0766C67.3967 60.9797 67.5356 61.9522 67.6051 62.8552C67.744 64.8002 67.6746 66.8146 67.3272 68.7596C67.2578 69.3848 66.7715 69.8016 66.2158 69.8016Z" fill="#0364FF"/>
<path d="M76.1463 62.439C75.5212 62.439 75.0349 61.9528 75.0349 61.3276C75.0349 57.5071 73.9929 50.3523 69.964 50.3523C67.9496 50.3523 66.2824 52.0194 66.2824 54.0339C66.2824 54.1033 66.2824 54.1728 66.2824 54.2423C66.3519 54.8674 65.8656 55.4231 65.2405 55.4231C64.6153 55.4231 64.0596 55.0064 64.0596 54.3812C64.0596 54.2423 64.0596 54.1728 64.0596 54.0339C64.0596 50.7691 66.6992 48.1294 69.964 48.1294C75.3822 48.0599 77.2578 55.1453 77.2578 61.2581C77.2578 61.8833 76.7715 62.439 76.1463 62.439Z" fill="#0364FF"/>
<path d="M73.9928 72.582C73.8538 72.582 73.7149 72.582 73.5065 72.5126C72.9508 72.2347 72.6729 71.6095 72.9508 70.9844C73.7844 69.0394 74.4096 67.0249 74.7569 64.941C74.8263 64.3158 75.4515 63.899 76.0767 63.9685C76.7019 64.0379 77.1187 64.6631 77.0492 65.2883C76.7019 67.5806 76.0072 69.8035 75.1042 71.8874C74.8263 72.3736 74.4095 72.582 73.9928 72.582Z" fill="#0364FF"/>
<defs>
<filter id="filter0_d" x="0" y="0" width="139" height="135" filterUnits="userSpaceOnUse" color-interpolation-filters="sRGB">
<feFlood flood-opacity="0" result="BackgroundImageFix"/>
<feColorMatrix in="SourceAlpha" type="matrix" values="0 0 0 0 0 0 0 0 0 0 0 0 0 0 0 0 0 0 127 0"/>
<feOffset dy="14"/>
<feGaussianBlur stdDeviation="7"/>
<feColorMatrix type="matrix" values="0 0 0 0 0 0 0 0 0 0 0 0 0 0 0 0 0 0 0.12 0"/>
<feBlend mode="normal" in2="BackgroundImageFix" result="effect1_dropShadow"/>
<feBlend mode="normal" in="SourceGraphic" in2="effect1_dropShadow" result="shape"/>
</filter>
<filter id="filter1_d" x="13" y="1" width="114" height="114" filterUnits="userSpaceOnUse" color-interpolation-filters="sRGB">
<feFlood flood-opacity="0" result="BackgroundImageFix"/>
<feColorMatrix in="SourceAlpha" type="matrix" values="0 0 0 0 0 0 0 0 0 0 0 0 0 0 0 0 0 0 127 0"/>
<feOffset dy="4"/>
<feGaussianBlur stdDeviation="6"/>
<feColorMatrix type="matrix" values="0 0 0 0 0 0 0 0 0 0 0 0 0 0 0 0 0 0 0.16 0"/>
<feBlend mode="normal" in2="BackgroundImageFix" result="effect1_dropShadow"/>
<feBlend mode="normal" in="SourceGraphic" in2="effect1_dropShadow" result="shape"/>
</filter>
<linearGradient id="paint0_linear" x1="70" y1="9" x2="70" y2="99" gradientUnits="userSpaceOnUse">
<stop stop-color="#EFF7FE"/>
<stop offset="0.0727327" stop-color="#E2F1FD"/>
<stop offset="0.9481" stop-color="#C9E4FC"/>
<stop offset="1" stop-color="#B2D3F2"/>
</linearGradient>
</defs>
</svg>
