<svg width="234" height="130" viewBox="0 0 234 130" fill="none" xmlns="http://www.w3.org/2000/svg">
<path fill-rule="evenodd" clip-rule="evenodd" d="M208.761 68.047C208.761 82.384 199.405 90.3824 187.219 90.3824C175.033 90.3824 165.677 82.384 165.677 68.047C165.677 37.8609 179.426 3.06108 187.219 3.06108C195.011 3.06108 208.761 37.8609 208.761 68.047" fill="#C3E4FF"/>
<path d="M187.219 46.7218V112.896" stroke="#E8F6FF" stroke-width="10.5" stroke-linecap="square"/>
<path d="M193.128 80.7537L197.891 75.9906" stroke="#E8F6FF" stroke-width="7" stroke-linecap="square"/>
<path d="M193.128 53.9027L197.891 49.1397" stroke="#E8F6FF" stroke-width="7" stroke-linecap="square"/>
<path fill-rule="evenodd" clip-rule="evenodd" d="M180.536 60.5801C180.536 77.0306 167.201 90.3662 150.752 90.3662C134.302 90.3662 120.967 77.0306 120.967 60.5801C120.967 44.1297 134.302 30.7939 150.752 30.7939C167.201 30.7939 180.536 44.1297 180.536 60.5801" fill="#E8F6FF"/>
<path d="M150.752 54.8051V112.895" stroke="#AAD5FF" stroke-width="10.5" stroke-linecap="square"/>
<path d="M157.814 80.8689L162.577 76.1058" stroke="#AAD5FF" stroke-width="8.4" stroke-linecap="square"/>
<path d="M157.814 59.5128L162.577 54.7498" stroke="#AAD5FF" stroke-width="8.4" stroke-linecap="square"/>
<path d="M143.689 70.6781L138.927 65.915" stroke="#AAD5FF" stroke-width="8.4" stroke-linecap="square"/>
<path d="M143.689 60L138.927 55.2369" stroke="#AAD5FF" stroke-width="8.4" stroke-linecap="square"/>
<path fill-rule="evenodd" clip-rule="evenodd" d="M109.367 84.6571C109.367 98.8402 100.106 105.205 88.7273 105.205C77.3498 105.205 68.0889 98.8402 68.0889 84.6571C68.0889 58.2374 79.3525 33.5651 88.7273 33.5651C98.1034 33.5651 109.367 58.2374 109.367 84.6571" fill="#E8F6FF"/>
<path d="M88.728 61.6943V112.895" stroke="#C3E4FF" stroke-width="10.5" stroke-linecap="square"/>
<path d="M93.3478 90.2469L98.1105 85.4838" stroke="#C3E4FF" stroke-width="7" stroke-linecap="square"/>
<path d="M93.3478 67.3888L98.1105 62.6257" stroke="#C3E4FF" stroke-width="7" stroke-linecap="square"/>
<path d="M84.849 90.2503L80.0228 85.4238" stroke="#C3E4FF" stroke-width="7" stroke-linecap="square"/>
<path d="M84.5104 78.9686L79.6842 74.1422" stroke="#C3E4FF" stroke-width="7" stroke-linecap="square"/>
<path fill-rule="evenodd" clip-rule="evenodd" d="M177.64 112.614L123.936 112.896C120.87 109.001 113.732 99.2478 116.605 96.3663C118.496 94.4708 124.161 100.571 125.691 98.7406C127.221 96.9114 117.175 85.5072 119.726 83.8999C124.221 81.0677 138.685 101.395 140.552 99.7591C142.515 98.0388 133.291 86.0853 136.541 84.8189C140.325 83.3451 150.344 101.625 153.239 99.7591C154.755 98.7808 151.811 92.8212 154 91.8028C157.809 90.028 164.165 107.241 166.867 105.708C168.145 104.981 166.707 102.494 168.624 101.875C170.965 101.12 175.682 109.082 177.64 112.614" fill="#C3E4FF"/>
<path fill-rule="evenodd" clip-rule="evenodd" d="M203.229 105.736C203.15 105.841 200.765 109.023 200.466 111.953H196.275C198.254 108.02 203.12 105.785 203.229 105.736" fill="#C3E4FF"/>
<path fill-rule="evenodd" clip-rule="evenodd" d="M17.0804 106.255C17.1592 106.36 19.5436 109.542 19.8428 112.472H24.0345C22.0557 108.539 17.1893 106.304 17.0804 106.255" fill="#D6EEFF"/>
<path fill-rule="evenodd" clip-rule="evenodd" d="M108.213 106.346C108.292 106.452 110.676 109.633 110.975 112.564H115.167C113.188 108.631 108.322 106.395 108.213 106.346" fill="#D6EEFF"/>
<path fill-rule="evenodd" clip-rule="evenodd" d="M217.017 108.297C216.962 108.372 215.754 109.982 214.944 111.953H211.909C214.127 109.624 216.934 108.333 217.017 108.297" fill="#D6EEFF"/>
<path fill-rule="evenodd" clip-rule="evenodd" d="M43.9298 112.472H39.4889C39.4629 109.282 37.8255 105.128 37.8255 105.128C37.8255 105.128 42.6982 109.107 43.9298 112.472" fill="#D6EEFF"/>
<path fill-rule="evenodd" clip-rule="evenodd" d="M45.2642 112.472C46.3375 110.2 46.402 108.37 46.402 108.37C46.402 108.37 48.5085 110.66 49.4059 112.472H45.2642Z" fill="#D6EEFF"/>
<path fill-rule="evenodd" clip-rule="evenodd" d="M188.77 93.9122C188.707 94.1049 185.241 103.666 184.907 111.953H179.31C179.643 108.211 177.974 103.692 177.974 103.692C177.974 103.692 180.953 105.977 181.723 109.238C181.723 109.238 184.034 98.8431 188.77 93.9122" fill="#D6EEFF"/>
<path fill-rule="evenodd" clip-rule="evenodd" d="M193.787 104.154C193.787 104.154 190.512 108.5 189.637 111.953H186.592C187.631 109.821 190.124 105.499 193.787 104.154" fill="#D6EEFF"/>
<path fill-rule="evenodd" clip-rule="evenodd" d="M220.22 91.8202C220.22 99.1012 216.751 105.714 208.898 105.714C201.044 105.714 197.575 99.1012 197.575 91.8202C197.575 83.2789 203.51 74.7855 208.898 74.7855C214.285 74.7855 220.22 83.2789 220.22 91.8202" fill="#E8F6FF"/>
<path d="M208.898 91.1404V112.896" stroke="#D6EEFF" stroke-width="10.5" stroke-linecap="square"/>
<path d="M212.809 93.5757L216.056 90.3824" stroke="#D6EEFF" stroke-width="6.3" stroke-linecap="square"/>
<path d="M205.35 96.9136L201.383 93.3319" stroke="#D6EEFF" stroke-width="6.3" stroke-linecap="square"/>
<mask id="mask0" mask-type="alpha" maskUnits="userSpaceOnUse" x="23" y="0" width="52" height="102">
<path fill-rule="evenodd" clip-rule="evenodd" d="M23.8501 0H74.9612V101.377H23.8501V0Z" fill="white"/>
</mask>
<g mask="url(#mask0)">
<path fill-rule="evenodd" clip-rule="evenodd" d="M29.4072 57.9514C28.615 55.5794 24.2731 55.9809 24.2724 49.3668C24.2713 39.408 37.986 40.5447 38.7947 33.0411C39.6035 25.5375 30.7906 25.7169 30.5178 19.388C30.2449 13.059 36.9461 -0.000137329 47.1133 -0.000137329C55.1303 -0.000137329 48.4902 10.0763 54.9603 14.5825C61.4303 19.0886 68.82 13.3157 72.4772 20.4016C77.5149 30.1622 64.6331 41.8844 65.904 49.3668C67.175 56.8494 74.7265 55.0802 74.9576 63.3016C75.1887 71.5232 64.2191 72.97 65.2526 80.0199C65.904 84.4639 72.8462 82.9802 73.2104 91.743C73.5187 99.1623 49.6664 108.343 31.7488 93.245C13.831 78.1475 32.4308 67.0045 29.4072 57.9514" fill="#C3E4FF"/>
</g>
<path d="M49.0305 39.9804V112.896" stroke="#E8F6FF" stroke-width="10.5" stroke-linecap="square"/>
<path d="M56.1061 86.6041L60.869 81.8411" stroke="#E8F6FF" stroke-width="8.4" stroke-linecap="square"/>
<path d="M54.6543 60.996L59.4171 56.233" stroke="#E8F6FF" stroke-width="8.4" stroke-linecap="square"/>
<path d="M54.6543 48.1921L59.4171 43.429" stroke="#E8F6FF" stroke-width="8.4" stroke-linecap="square"/>
<path d="M42.1581 48.1921L37.3953 43.429" stroke="#E8F6FF" stroke-width="8.4" stroke-linecap="square"/>
<path d="M68.1932 112.179C68.1932 112.179 63.9569 102.658 57.5639 98.1211" stroke="#AAD5FF" stroke-width="6.3" stroke-linecap="square"/>
<path d="M70.3213 112.472C70.3213 112.472 69.628 98.065 74.8658 92.7809" stroke="#AAD5FF" stroke-width="6.3" stroke-linecap="square"/>
<path fill-rule="evenodd" clip-rule="evenodd" d="M70.9079 92.7809C70.9079 94.5665 72.3554 96.0141 74.1411 96.0141C75.9267 96.0141 77.3743 94.5665 77.3743 92.7809C77.3743 90.995 75.9267 89.5475 74.1411 89.5475C72.3554 89.5475 70.9079 90.995 70.9079 92.7809" fill="#AAD5FF"/>
<path fill-rule="evenodd" clip-rule="evenodd" d="M55.5459 99.4958C55.5459 101.282 56.9934 102.729 58.7791 102.729C60.5647 102.729 62.0123 101.282 62.0123 99.4958C62.0123 97.71 60.5647 96.2624 58.7791 96.2624C56.9934 96.2624 55.5459 97.71 55.5459 99.4958" fill="#AAD5FF"/>
<path d="M128.539 111.676C128.539 111.676 128.049 105.15 131.698 97.5216" stroke="#AAD5FF" stroke-width="6.3" stroke-linecap="square"/>
<path d="M126.496 112.343C126.496 112.343 123.371 98.6578 115.271 91.9792" stroke="#AAD5FF" stroke-width="6.3" stroke-linecap="square"/>
<path fill-rule="evenodd" clip-rule="evenodd" d="M118.349 90.5656C118.666 92.323 117.499 94.0049 115.741 94.3222C113.984 94.6396 112.302 93.4724 111.985 91.7152C111.668 89.9579 112.835 88.276 114.592 87.9585C116.349 87.6411 118.031 88.8083 118.349 90.5656" fill="#AAD5FF"/>
<path fill-rule="evenodd" clip-rule="evenodd" d="M135.763 94.5481C136.08 96.3053 134.913 97.9873 133.156 98.3047C131.399 98.622 129.717 97.4548 129.399 95.6975C129.082 93.9402 130.249 92.2583 132.006 91.9409C133.764 91.6235 135.445 92.7908 135.763 94.5481" fill="#AAD5FF"/>
<path fill-rule="evenodd" clip-rule="evenodd" d="M81.4672 96.3602C81.3646 96.4959 74.7684 105.159 74.5995 111.947H69.2725C69.9859 109.737 73.0787 101.652 81.4672 96.3602" fill="#C3E4FF"/>
<path fill-rule="evenodd" clip-rule="evenodd" d="M66.4041 111.953H62.1598C61.3205 108.763 58.7791 106.774 58.7791 106.774C58.7791 106.774 63.8257 107.761 66.4041 111.953" fill="#C3E4FF"/>
<path fill-rule="evenodd" clip-rule="evenodd" d="M144.394 103.543C144.487 103.66 146.474 108.231 146.238 112.563H153.234C153.368 110.195 154.87 106.806 154.87 106.806C154.87 106.806 151.789 108.053 149.706 111.616C149.706 111.616 148.13 105.188 144.394 103.543" fill="#D6EEFF"/>
<path fill-rule="evenodd" clip-rule="evenodd" d="M133.427 105.592C133.344 105.752 131.66 108.671 131.216 112.082L124.546 112.767C124.092 109.734 123.111 108.045 123.111 108.045C123.111 108.045 125.912 108.86 127.407 111.241C127.407 111.241 129.14 107.577 133.427 105.592" fill="#D6EEFF"/>
<path fill-rule="evenodd" clip-rule="evenodd" d="M44.5019 82.3403C44.5019 93.9485 39.7006 104.492 28.8301 104.492C17.9595 104.492 13.1582 93.9485 13.1582 82.3403C13.1582 68.7229 21.3727 55.1821 28.8301 55.1821C36.2874 55.1821 44.5019 68.7229 44.5019 82.3403" fill="#E8F6FF"/>
<path d="M28.8298 79.8369V112.896" stroke="#D6EEFF" stroke-width="10.5" stroke-linecap="square"/>
<path d="M33.3879 83.8686L37.6298 79.1057" stroke="#D6EEFF" stroke-width="7" stroke-linecap="square"/>
<path d="M24.2717 93.6556L20.0299 88.8925" stroke="#D6EEFF" stroke-width="7" stroke-linecap="square"/>
<path d="M24.2717 84.0644L20.0299 79.3013" stroke="#D6EEFF" stroke-width="7" stroke-linecap="square"/>
<path d="M226.211 112.896H7" stroke="#D6EEFF" stroke-width="14" stroke-linecap="round"/>
<path fill-rule="evenodd" clip-rule="evenodd" d="M190.761 129.037C190.761 129.287 178.294 129.489 162.917 129.489C147.539 129.489 135.072 129.287 135.072 129.037C135.072 128.787 147.539 128.584 162.917 128.584C178.294 128.584 190.761 128.787 190.761 129.037" fill="#AFB4C8"/>
<path fill-rule="evenodd" clip-rule="evenodd" d="M144.886 106.235H179.78C181.734 106.235 183.371 104.757 183.571 102.814L191.452 26.2047C191.683 23.9576 189.92 22.0037 187.662 22.0037H152.769C150.815 22.0037 149.178 23.4812 148.978 25.4246L141.096 102.034C140.864 104.281 142.627 106.235 144.886 106.235" fill="#1F2430"/>
<path fill-rule="evenodd" clip-rule="evenodd" d="M187.067 26.2041L179.185 102.813C178.985 104.757 177.348 106.234 175.394 106.234H140.501C138.241 106.234 136.478 104.28 136.709 102.034L144.592 25.4243C144.791 23.4804 146.428 22.0034 148.382 22.0034H183.276C185.535 22.0034 187.297 23.9573 187.067 26.2041" fill="#5B6A76"/>
<path fill-rule="evenodd" clip-rule="evenodd" d="M142.59 103.192H174.354C175.682 103.192 176.795 102.188 176.93 100.868L184.442 27.8546C184.599 26.3277 183.401 25 181.866 25H150.102C148.775 25 147.662 26.004 147.526 27.3245L140.014 100.338C139.857 101.865 141.055 103.192 142.59 103.192" fill="white"/>
<path fill-rule="evenodd" clip-rule="evenodd" d="M192.216 34.7637L191.71 39.6819H188.127L188.633 34.7637H192.216Z" stroke="#5B6A76" stroke-width="3.5"/>
<path fill-rule="evenodd" clip-rule="evenodd" d="M191.477 43.0894L190.971 48.0076H187.388L187.894 43.0894H191.477Z" stroke="#5B6A76" stroke-width="3.5"/>
<path fill-rule="evenodd" clip-rule="evenodd" d="M176.519 22.4292L176.102 26.4847C175.963 27.8341 174.827 28.8605 173.471 28.8605H158.326C156.759 28.8605 155.535 27.5036 155.695 25.944L156.057 22.4292H176.519Z" fill="#5B6A76"/>
<path fill-rule="evenodd" clip-rule="evenodd" d="M168.665 26.1823H161.897C161.616 26.1823 161.387 25.9528 161.387 25.672C161.387 25.3914 161.616 25.1617 161.897 25.1617H168.665C168.946 25.1617 169.176 25.3914 169.176 25.672C169.176 25.9528 168.946 26.1823 168.665 26.1823" fill="black"/>
<path fill-rule="evenodd" clip-rule="evenodd" d="M171.913 25.6721C171.913 26.1419 171.532 26.5228 171.062 26.5228C170.592 26.5228 170.211 26.1419 170.211 25.6721C170.211 25.2024 170.592 24.8216 171.062 24.8216C171.532 24.8216 171.913 25.2024 171.913 25.6721" fill="black"/>
<path fill-rule="evenodd" clip-rule="evenodd" d="M179.994 38.4776L177.701 60.7625C177.596 61.7834 176.736 62.5596 175.71 62.5596H148.804C147.618 62.5596 146.692 61.5331 146.813 60.3527L149.106 38.0753C149.211 37.0546 150.07 36.2786 151.096 36.2783L178.002 36.2707C179.189 36.2703 180.116 37.2968 179.994 38.4776" fill="#E8F6FF"/>
<path fill-rule="evenodd" clip-rule="evenodd" d="M176.009 76.3002L173.717 98.5853C173.612 99.6062 172.752 100.382 171.725 100.382H144.82C143.633 100.382 142.707 99.3558 142.828 98.1752L145.121 75.898C145.226 74.8773 146.086 74.1012 147.112 74.101L174.017 74.0933C175.204 74.0929 176.131 75.1195 176.009 76.3002" fill="#E8F6FF"/>
<path fill-rule="evenodd" clip-rule="evenodd" d="M151.048 27.0302C151.048 27.5938 150.591 28.0508 150.027 28.0508C149.464 28.0508 149.007 27.5938 149.007 27.0302C149.007 26.4665 149.464 26.0095 150.027 26.0095C150.591 26.0095 151.048 26.4665 151.048 27.0302" fill="#D6E1E6"/>
<path fill-rule="evenodd" clip-rule="evenodd" d="M153.86 27.0302C153.86 27.5938 153.403 28.0508 152.839 28.0508C152.275 28.0508 151.818 27.5938 151.818 27.0302C151.818 26.4665 152.275 26.0095 152.839 26.0095C153.403 26.0095 153.86 26.4665 153.86 27.0302" fill="#D6E1E6"/>
<path fill-rule="evenodd" clip-rule="evenodd" d="M182.33 27.0302C182.33 27.5938 181.873 28.0508 181.309 28.0508C180.746 28.0508 180.289 27.5938 180.289 27.0302C180.289 26.4665 180.746 26.0095 181.309 26.0095C181.873 26.0095 182.33 26.4665 182.33 27.0302" fill="#D6E1E6"/>
<path fill-rule="evenodd" clip-rule="evenodd" d="M142.626 37.3849L142.55 37.4604V40.3161C142.55 42.8319 143.669 44.5133 145.878 44.8718C146.246 44.9316 147.512 44.9653 148.57 44.9834C148.844 44.9882 148.86 44.6145 148.598 44.5379C146.464 43.9146 145.878 41.9759 145.878 40.3161V37.4604L145.802 37.3849H142.626Z" fill="#49ADFF"/>
<path fill-rule="evenodd" clip-rule="evenodd" d="M174.767 88.3848L173.716 98.5848C173.611 99.6062 172.751 100.382 171.725 100.382H162.339C161.107 98.8865 160.368 96.969 160.368 94.8799C160.368 90.0945 164.247 86.2156 169.032 86.2156C171.232 86.2156 173.238 87.0355 174.767 88.3848" fill="#D0E1E9"/>
<path fill-rule="evenodd" clip-rule="evenodd" d="M159.218 86.8044C159.673 90.5579 156.999 93.9697 153.246 94.4247C149.493 94.8798 146.081 92.2058 145.626 88.4522C145.171 84.6987 147.845 81.2869 151.598 80.8319C155.352 80.3769 158.763 83.051 159.218 86.8044" fill="#D0E1E9"/>
<path fill-rule="evenodd" clip-rule="evenodd" d="M165.557 79.6953C163.095 81.2252 162.34 84.4612 163.869 86.9232C165.399 89.3852 168.635 90.1408 171.097 88.611L165.557 79.6953Z" fill="#BCCED4"/>
<path fill-rule="evenodd" clip-rule="evenodd" d="M152.487 82.5C154.09 83.7566 156.408 83.4756 157.665 81.8723C158.921 80.2691 158.64 77.9507 157.037 76.6941L152.487 82.5Z" fill="#BCCED4"/>
<path fill-rule="evenodd" clip-rule="evenodd" d="M118.971 42.7451H147.464C148.88 42.7451 150.028 41.5972 150.028 40.1811V32.5038C150.028 31.0876 148.88 29.9397 147.464 29.9397H118.971C117.555 29.9397 116.407 31.0876 116.407 32.5038V40.1811C116.407 41.5972 117.555 42.7451 118.971 42.7451" fill="#0364FF"/>
<path fill-rule="evenodd" clip-rule="evenodd" d="M169.199 31.7776C169.199 34.2449 167.199 36.2452 164.731 36.2452C162.264 36.2452 160.264 34.2449 160.264 31.7776C160.264 29.3102 162.264 27.31 164.731 27.31C167.199 27.31 169.199 29.3102 169.199 31.7776" fill="#47392A"/>
<path fill-rule="evenodd" clip-rule="evenodd" d="M168.591 42.1092C168.591 42.1618 168.591 42.2131 168.59 42.2657C168.506 47.0535 164.601 50.9075 159.795 50.9075C155.902 50.9075 152.602 48.3815 151.441 44.878C151.34 44.5713 151.255 44.2572 151.187 43.9355C151.073 43.396 151.008 42.8377 150.998 42.2657C150.997 42.2131 150.997 42.1618 150.997 42.1092C150.997 40.0314 151.717 38.1213 152.922 36.6155C153.146 36.3351 153.388 36.0698 153.644 35.8194C155.23 34.2673 157.399 33.3123 159.795 33.3123C164.652 33.3123 168.591 37.2514 168.591 42.1092" fill="#47392A"/>
<path fill-rule="evenodd" clip-rule="evenodd" d="M129.674 55.9255L149.371 55.0085L156.097 48.888L128.923 53.0567C128.923 53.0567 128.688 52.4242 128.35 51.7717C128.011 51.1192 127.21 50.4882 127.3 49.0959C127.389 47.7038 126.42 48.9826 126.349 49.6543C126.277 50.326 127.004 51.5773 126.452 51.8601C125.899 52.1428 124.356 52.1172 124.013 52.4903C123.671 52.8634 123.812 53.6794 124.075 53.8213C124.075 53.8213 123.733 54.8276 124.408 55.4508C124.408 55.4508 124.465 56.1659 125.123 56.4458C125.123 56.4458 125.362 57.1544 126.077 57.0696C126.793 56.9849 128.41 56.3955 129.674 55.9255" fill="#F8D7B5"/>
<path fill-rule="evenodd" clip-rule="evenodd" d="M150.998 53.8579H168.592V42.2659H150.998V53.8579Z" fill="#47392A"/>
<path fill-rule="evenodd" clip-rule="evenodd" d="M176.261 51.2492L173.084 58.7983C173.084 58.7983 172.69 61.3054 170.139 62.5596H162.638C156.691 60.5781 154.252 55.1395 154.252 55.1395L145.791 59.1956V49.9878C145.791 49.9878 159.533 48.0337 159.444 47.9822C159.321 47.9121 167.885 47.4365 169.579 47.6269C171.274 47.817 176.261 51.2492 176.261 51.2492" fill="#49A2FF"/>
<path fill-rule="evenodd" clip-rule="evenodd" d="M155.502 48.5974C155.502 48.5974 154.814 49.0236 154.398 49.9395C153.855 51.1371 153.841 52.8337 153.975 53.9577C154.059 54.6652 154.252 55.1394 154.252 55.1394C154.252 55.1394 146.418 58.919 145.791 59.1956V49.9878C146.704 49.8551 155.502 48.5974 155.502 48.5974" fill="#285FD7"/>
<path fill-rule="evenodd" clip-rule="evenodd" d="M178.118 56.7029L177.702 60.7621C177.596 61.7835 176.737 62.5596 175.71 62.5596H166.651L165.285 63.4514C165.285 63.4514 165.31 64.6642 165.426 65.5311C165.485 65.9782 164.932 66.2571 164.932 66.2571C164.932 66.2571 164.791 66.6814 164.431 66.7703C164.135 66.8442 163.888 66.3006 163.816 66.1068C164.206 67.1552 163.58 67.425 163.391 67.3999C163.199 67.3736 163.121 67.092 163.121 67.092C163.121 67.092 162.737 67.2585 162.14 66.6426C161.543 66.0256 161.299 64.1255 161.321 63.4683C161.329 63.2393 161.498 62.9063 161.714 62.5596C161.733 62.5295 161.752 62.4983 161.772 62.4682C162.169 61.8486 162.685 61.2103 162.685 61.0626L173.083 58.7982L175.284 53.5686L178.118 56.7029Z" fill="#F8D7B5"/>
<path fill-rule="evenodd" clip-rule="evenodd" d="M161.864 45.8193C161.386 46.5441 161.584 47.4979 161.858 48.0549C161.95 48.2464 162.053 48.3916 162.141 48.4642C162.481 48.7458 160.298 50.8262 160.298 50.8262L158.377 48.7133C157.17 48.7809 155.916 48.6958 155.138 48.2076C152.818 46.7531 152.673 41.6987 152.711 41.4459L154.651 39.3868C154.651 39.3868 157.579 38.1027 158.026 38.6458C158.843 39.6411 160.759 44.0956 162.141 43.5851C162.141 43.5851 161.964 42.1994 163.187 42.1994C164.098 42.1994 164.346 42.8904 164.346 43.2897C164.346 44.6377 162.506 44.843 161.864 45.8193" fill="#F8D7B5"/>
<path fill-rule="evenodd" clip-rule="evenodd" d="M156.412 44.3117C156.434 44.7117 156.683 45.023 156.968 45.0071C157.254 44.9911 157.467 44.6539 157.444 44.254C157.422 43.8539 157.172 43.5425 156.887 43.5585C156.602 43.5744 156.389 43.9116 156.412 44.3117" fill="#47392A"/>
<path fill-rule="evenodd" clip-rule="evenodd" d="M153.735 44.2515C153.757 44.6515 154.006 44.9628 154.291 44.9469C154.576 44.9309 154.789 44.5937 154.767 44.1938C154.744 43.7937 154.495 43.4823 154.21 43.4983C153.925 43.5142 153.712 43.8514 153.735 44.2515" fill="#47392A"/>
<path fill-rule="evenodd" clip-rule="evenodd" d="M155.314 39.3632C155.314 39.9164 155.216 40.4484 155.037 40.9416C155.014 41.0029 154.99 41.0667 154.962 41.1281C154.79 41.5411 154.559 41.9241 154.281 42.2659C153.532 43.1859 152.433 43.8092 151.187 43.9356C151.123 43.9419 151.061 43.9469 150.997 43.9494V42.2659H150.998C150.997 42.2133 150.997 42.162 150.997 42.1094C150.997 40.0316 151.717 38.1215 152.922 36.6157C153.146 36.3353 153.388 36.0699 153.644 35.8196C154.227 36.3015 154.689 36.9248 154.978 37.6383C155.195 38.1703 155.314 38.7523 155.314 39.3632" fill="#47392A"/>
<path fill-rule="evenodd" clip-rule="evenodd" d="M162.14 39.2561C162.14 40.4586 160.99 41.4722 159.418 41.7829C159.294 41.8083 159.167 41.8286 159.037 41.8438C158.829 41.8704 158.614 41.8831 158.396 41.8831C156.327 41.8831 154.651 40.7073 154.651 39.2561C154.651 39.1165 154.666 38.9796 154.697 38.8464C154.977 37.5893 156.526 36.6277 158.396 36.6277C160.444 36.6277 162.108 37.7822 162.139 39.2143C162.14 39.2282 162.14 39.2422 162.14 39.2561" fill="#47392A"/>
<path fill-rule="evenodd" clip-rule="evenodd" d="M155.625 47.0902C155.625 47.0902 156.8 47.1993 156.8 46.3841Z" fill="white"/>
<path fill-rule="evenodd" clip-rule="evenodd" d="M162.7 48.3767C163.36 48.9533 163.403 49.984 162.796 50.679C162.189 51.3739 161.02 51.5022 160.481 50.8667C159.914 50.1983 159.799 49.286 160.405 48.591C161.012 47.8961 162.039 47.8002 162.7 48.3767" fill="#285FD7"/>
<path fill-rule="evenodd" clip-rule="evenodd" d="M164.843 54.3435H161.58V46.6967H168.591V50.5945C168.591 52.665 166.913 54.3435 164.843 54.3435" fill="#47392A"/>
<path fill-rule="evenodd" clip-rule="evenodd" d="M158.377 48.7133C158.377 48.7133 159.661 48.5209 160.31 48.184L159.089 49.4967L158.377 48.7133Z" fill="#DDC1A1"/>
<path fill-rule="evenodd" clip-rule="evenodd" d="M145.791 50.4691V55.1753L145.194 55.2029L145.442 50.5227L145.791 50.4691Z" fill="#DDC1A1"/>
<path fill-rule="evenodd" clip-rule="evenodd" d="M173.083 58.7982L174.22 58.5023L175.285 53.5686L173.083 58.7982Z" fill="#DDC1A1"/>
<path fill-rule="evenodd" clip-rule="evenodd" d="M168.469 54.3436L171.882 59.0599L170.095 59.4492L168.469 54.3436Z" fill="#285FD7"/>
<path fill-rule="evenodd" clip-rule="evenodd" d="M126.575 52.3928C126.64 52.3688 126.712 52.402 126.736 52.4669C126.827 52.7122 126.693 52.9388 126.579 53.0782C126.564 53.096 126.549 53.1131 126.534 53.1294C126.545 53.1324 126.555 53.1357 126.566 53.1393C126.744 53.1985 126.949 53.3338 127.04 53.6253C127.127 53.9044 126.989 54.1413 126.859 54.2908C126.851 54.2999 126.843 54.3088 126.835 54.3174C126.845 54.3193 126.855 54.3214 126.866 54.3237C127.066 54.368 127.311 54.4884 127.412 54.7912C127.522 55.1209 127.388 55.3789 127.23 55.5489C127.316 55.5599 127.405 55.5853 127.488 55.6358C127.602 55.7054 127.692 55.8173 127.739 55.9804C127.784 56.1373 127.768 56.2754 127.713 56.3915C127.66 56.5047 127.573 56.5883 127.489 56.6483C127.404 56.7085 127.316 56.7491 127.25 56.7744C127.216 56.7873 127.188 56.7965 127.168 56.8027C127.158 56.8057 127.149 56.8081 127.143 56.8097C127.14 56.8105 127.138 56.8111 127.136 56.8115L127.134 56.8121L127.133 56.8123L127.133 56.8123L127.133 56.8124C127.133 56.8124 127.133 56.8124 127.103 56.6907L127.133 56.8124C127.066 56.8286 126.998 56.7873 126.982 56.7201C126.966 56.653 127.007 56.5854 127.074 56.569C127.074 56.569 127.074 56.569 127.074 56.569C127.074 56.569 127.074 56.569 127.074 56.569C127.074 56.569 127.074 56.569 127.074 56.569C127.074 56.569 127.074 56.569 127.074 56.569C127.074 56.569 127.074 56.569 127.074 56.569C127.074 56.569 127.074 56.569 127.074 56.569C127.074 56.569 127.074 56.569 127.074 56.569L127.074 56.5689L127.078 56.5679C127.082 56.5669 127.088 56.5652 127.095 56.5629C127.111 56.5583 127.133 56.551 127.16 56.5408C127.213 56.52 127.281 56.4884 127.344 56.4441C127.407 56.3996 127.458 56.3464 127.487 56.2846C127.515 56.2257 127.527 56.1503 127.498 56.0494L127.498 56.0494C127.468 55.9437 127.415 55.8848 127.357 55.8493C127.296 55.8119 127.22 55.795 127.138 55.7925C127.056 55.7901 126.977 55.802 126.916 55.8153C126.886 55.8219 126.862 55.8286 126.845 55.8335C126.837 55.8359 126.831 55.838 126.827 55.8393L126.823 55.8407L126.822 55.8408L126.822 55.8409C126.822 55.8409 126.822 55.8409 126.822 55.8394L126.73 55.61C126.729 55.6085 126.729 55.6085 126.729 55.6085L126.729 55.6085L126.73 55.6082L126.734 55.6062C126.738 55.6043 126.745 55.6012 126.753 55.5969C126.77 55.5885 126.794 55.5755 126.822 55.5581C126.88 55.5231 126.954 55.4717 127.021 55.4053C127.155 55.2728 127.25 55.0975 127.174 54.8704L127.174 54.8704C127.111 54.682 126.963 54.6018 126.811 54.5682C126.735 54.5514 126.663 54.5476 126.608 54.5483C126.581 54.5486 126.56 54.5501 126.545 54.5513C126.538 54.552 126.532 54.5526 126.529 54.553L126.525 54.5534L126.525 54.5534C126.525 54.5534 126.525 54.5534 126.525 54.5531L126.442 54.3228C126.442 54.3226 126.442 54.3226 126.442 54.3226L126.442 54.3225L126.442 54.3223L126.446 54.3202C126.449 54.3182 126.454 54.315 126.46 54.3106C126.473 54.3019 126.492 54.2887 126.514 54.2715C126.559 54.2367 126.617 54.187 126.67 54.1261C126.78 54.0004 126.849 53.8538 126.801 53.6996L126.916 53.6637L126.801 53.6996C126.74 53.5034 126.608 53.4173 126.487 53.3769C126.425 53.3563 126.366 53.348 126.322 53.3451C126.3 53.3437 126.283 53.3436 126.272 53.3438C126.266 53.3439 126.262 53.3441 126.259 53.3442L126.257 53.3444C126.257 53.3444 126.257 53.3444 126.257 53.3444L125.793 53.3841L126.174 53.1172L126.174 53.1171L126.174 53.1171L126.175 53.1171L126.175 53.1167L126.178 53.1144C126.181 53.1123 126.186 53.1089 126.192 53.1043C126.204 53.0951 126.221 53.0814 126.242 53.0637C126.283 53.0281 126.337 52.978 126.385 52.9188C126.49 52.7926 126.542 52.6646 126.501 52.5536C126.477 52.4888 126.511 52.4167 126.575 52.3928ZM126.442 54.3226C126.442 54.3227 126.442 54.3227 126.442 54.3227L126.442 54.3226ZM126.822 55.8409C126.822 55.8409 126.822 55.8409 126.822 55.8409L126.822 55.8409Z" fill="#DDC1A1"/>
<path fill-rule="evenodd" clip-rule="evenodd" d="M126.28 53.3401L124.109 53.9419L124.042 53.7006L126.213 53.0988L126.28 53.3401Z" fill="#DDC1A1"/>
<path fill-rule="evenodd" clip-rule="evenodd" d="M126.562 54.5422L124.464 55.5634L124.354 55.3383L126.452 54.317L126.562 54.5422Z" fill="#DDC1A1"/>
<path fill-rule="evenodd" clip-rule="evenodd" d="M126.83 55.8378L125.173 56.5605L125.073 56.331L126.73 55.6083L126.83 55.8378Z" fill="#DDC1A1"/>
<path fill-rule="evenodd" clip-rule="evenodd" d="M162.238 63.1177C162.307 63.1194 162.362 63.1769 162.36 63.246C162.36 63.246 162.36 63.246 162.36 63.246L162.36 63.2463L162.36 63.2477L162.36 63.2537C162.36 63.259 162.36 63.2672 162.36 63.278C162.36 63.2997 162.36 63.3319 162.36 63.3736C162.361 63.457 162.364 63.5783 162.371 63.7285C162.387 64.0293 162.423 64.4453 162.504 64.9062C162.557 65.2124 162.737 65.7105 162.909 66.1416C162.994 66.3551 163.076 66.5487 163.136 66.689C163.166 66.7591 163.191 66.8159 163.209 66.855C163.217 66.8746 163.224 66.8898 163.229 66.9L163.234 66.9116L163.235 66.9154L163.121 66.9668C163.007 67.0182 163.007 67.0182 163.007 67.0182L163.005 67.014L163 67.0019C162.995 66.9914 162.988 66.9759 162.979 66.9561C162.962 66.9163 162.937 66.8589 162.906 66.788C162.845 66.6462 162.763 66.4504 162.677 66.2343C162.506 65.8063 162.316 65.285 162.257 64.9494C162.174 64.4762 162.137 64.0497 162.121 63.7415C162.113 63.5873 162.11 63.4625 162.11 63.376C162.109 63.3327 162.109 63.299 162.11 63.2759C162.11 63.2644 162.11 63.2555 162.11 63.2494L162.11 63.2424L162.11 63.2406L162.11 63.2398C162.11 63.2398 162.11 63.2398 162.235 63.2429L162.11 63.2398C162.112 63.1707 162.169 63.116 162.238 63.1177ZM163.121 66.9668L163.007 67.0182C163.035 67.0812 163.11 67.1094 163.173 67.081C163.236 67.0526 163.264 66.9785 163.235 66.9154L163.121 66.9668Z" fill="#DDC1A1"/>
<path fill-rule="evenodd" clip-rule="evenodd" d="M163.343 63.0501C163.343 63.0501 163.343 63.0501 163.343 63.0501L163.343 63.0533L163.343 63.0633C163.343 63.0721 163.343 63.0852 163.344 63.1021C163.344 63.1359 163.345 63.185 163.346 63.2456C163.349 63.3669 163.355 63.5342 163.367 63.7181C163.39 64.091 163.436 64.5153 163.522 64.7698M163.218 63.0503C163.093 63.0504 163.093 63.0504 163.093 63.0504L163.093 63.0542L163.093 63.0648C163.093 63.074 163.093 63.0876 163.093 63.105C163.094 63.1398 163.094 63.1899 163.096 63.2517C163.099 63.3753 163.105 63.5459 163.117 63.7338C163.14 64.1046 163.187 64.5601 163.285 64.85C163.368 65.0946 163.517 65.5163 163.645 65.8759C163.709 66.0559 163.768 66.2207 163.811 66.3404C163.833 66.4003 163.85 66.4489 163.862 66.4826L163.881 66.535C163.905 66.6 163.976 66.6338 164.041 66.6104C164.106 66.5869 164.14 66.5152 164.117 66.4501L164.098 66.3979C164.086 66.3642 164.068 66.3157 164.047 66.2558C164.004 66.1362 163.945 65.9716 163.881 65.7918C163.753 65.4319 163.604 65.0122 163.522 64.7698M163.343 63.0501C163.343 62.981 163.287 62.925 163.218 62.925C163.149 62.9251 163.093 62.9813 163.093 63.0504L163.218 63.0503" fill="#DDC1A1"/>
<path fill-rule="evenodd" clip-rule="evenodd" d="M164.361 62.791C164.43 62.7987 164.479 62.8607 164.471 62.9294L164.471 62.9299L164.471 62.9317L164.47 62.939C164.47 62.9456 164.469 62.9554 164.467 62.9682C164.465 62.9937 164.461 63.0311 164.457 63.0781C164.449 63.1721 164.439 63.3041 164.432 63.456C164.418 63.7615 164.416 64.1405 164.46 64.4513C164.518 64.8618 164.663 65.266 164.794 65.5701C164.86 65.7216 164.922 65.8469 164.967 65.9341C164.99 65.9777 165.008 66.0117 165.021 66.0346C165.028 66.046 165.032 66.0547 165.036 66.0605L165.039 66.0668L165.04 66.0683L165.04 66.0685M164.932 66.1319C164.824 66.1952 164.824 66.1952 164.824 66.1952L164.824 66.1943L164.823 66.1923L164.818 66.1847C164.815 66.1781 164.809 66.1685 164.802 66.1562C164.788 66.1314 164.769 66.0954 164.745 66.0496C164.698 65.9581 164.633 65.8275 164.565 65.6697C164.428 65.3552 164.275 64.928 164.212 64.4864C164.165 64.1521 164.168 63.7544 164.182 63.4444C164.189 63.2886 164.199 63.1532 164.208 63.0567C164.212 63.0084 164.215 62.9698 164.218 62.9432C164.22 62.9298 164.221 62.9195 164.221 62.9124L164.222 62.9043L164.222 62.9022L164.223 62.9014C164.223 62.9014 164.223 62.9014 164.347 62.9154L164.223 62.9014C164.23 62.8327 164.292 62.7832 164.361 62.791M164.932 66.1319L164.824 66.1952C164.859 66.2548 164.936 66.2749 164.996 66.2399C165.055 66.2049 165.075 66.1282 165.04 66.0685" fill="#DDC1A1"/>
<path fill-rule="evenodd" clip-rule="evenodd" d="M108.954 129.037C108.954 129.287 96.4882 129.489 81.1103 129.489C65.7322 129.489 53.2659 129.287 53.2659 129.037C53.2659 128.787 65.7322 128.584 81.1103 128.584C96.4882 128.584 108.954 128.787 108.954 129.037" fill="#AFB4C8"/>
<path fill-rule="evenodd" clip-rule="evenodd" d="M92.0663 107.123H57.1721C55.2185 107.123 53.5814 105.645 53.3814 103.702L45.5004 27.0926C45.2692 24.8456 47.0323 22.8918 49.2911 22.8918H84.1841C86.1377 22.8918 87.7749 24.3692 87.9748 26.3126L95.8571 102.922C96.0882 105.169 94.3252 107.123 92.0663 107.123" fill="#1F2430"/>
<path fill-rule="evenodd" clip-rule="evenodd" d="M96.4519 107.123H61.5585C59.6047 107.123 57.9676 105.646 57.7673 103.702L49.8857 27.0925C49.6554 24.8458 51.4177 22.8918 53.6769 22.8918H88.5703C90.5241 22.8918 92.1612 24.3689 92.3603 26.3127L100.243 102.922C100.475 105.169 98.7111 107.123 96.4519 107.123" fill="#5B6A76"/>
<mask id="mask1" mask-type="alpha" maskUnits="userSpaceOnUse" x="53" y="25" width="45" height="77">
<path fill-rule="evenodd" clip-rule="evenodd" d="M80.4668 25.3513C79.3622 25.3513 78.5001 26.307 78.6131 27.4059V27.4059L78.7409 28.6463C78.859 29.795 77.9578 30.7939 76.8032 30.7939V30.7939H68.1307C66.8502 30.7939 65.7763 29.8251 65.6449 28.5508V28.5508L65.5114 27.2528C65.4002 26.1727 64.4903 25.3513 63.4043 25.3513V25.3513H55.6842C54.1423 25.3513 52.9395 26.6845 53.0972 28.2179V28.2179L60.4105 99.3009C60.547 100.628 61.6634 101.635 62.9964 101.635V101.635H94.9321C96.4742 101.635 97.677 100.302 97.5194 98.7689V98.7689L90.2047 27.6859C90.0683 26.3591 88.9518 25.3513 87.6189 25.3513V25.3513H80.4668Z" fill="white"/>
</mask>
<g mask="url(#mask1)">
<path fill-rule="evenodd" clip-rule="evenodd" d="M45.4798 108.853H103.485V21.1182H45.4798V108.853Z" fill="white"/>
<path fill-rule="evenodd" clip-rule="evenodd" d="M62.3759 86.5578L64.6687 108.843C64.7738 109.864 65.6338 110.64 66.6602 110.64H93.5658C94.7525 110.64 95.6786 109.613 95.5572 108.433L93.2644 86.1555C93.1594 85.1348 92.2996 84.3588 91.2735 84.3585L64.3679 84.3509C63.181 84.3505 62.2545 85.377 62.3759 86.5578" fill="#E8F6FF"/>
<path fill-rule="evenodd" clip-rule="evenodd" d="M58.4959 48.601L60.7887 70.8859C60.8937 71.9068 61.7538 72.683 62.78 72.683H89.6856C90.8723 72.683 91.7985 71.6565 91.6771 70.476L89.3844 48.1987C89.2792 47.178 88.4196 46.402 87.3935 46.4017L60.4878 46.3941C59.301 46.3937 58.3744 47.4202 58.4959 48.601" fill="#E8F6FF"/>
<path fill-rule="evenodd" clip-rule="evenodd" d="M54.4958 10.608L56.7885 32.893C56.8936 33.9139 57.7537 34.6901 58.7799 34.6901H85.6855C86.8722 34.6901 87.7984 33.6637 87.677 32.4832L85.3842 10.2059C85.2791 9.1851 84.4195 8.40916 83.3934 8.40879L56.4878 8.40115C55.3008 8.4009 54.3742 9.4273 54.4958 10.608" fill="#E8F6FF"/>
<path fill-rule="evenodd" clip-rule="evenodd" d="M77.4361 95.5228C75.0251 98.0806 70.9973 98.1992 68.4398 95.7881C65.8822 93.3769 65.7634 89.3491 68.1745 86.7913" fill="#D8E9F0"/>
<path fill-rule="evenodd" clip-rule="evenodd" d="M82.434 103.495C79.1241 100.508 78.8617 95.4037 81.8481 92.0935C84.8346 88.7834 89.9389 88.521 93.2489 91.5076" fill="#D8E9F0"/>
<path fill-rule="evenodd" clip-rule="evenodd" d="M87.2062 50.1943C87.2062 54.4526 85.1773 58.3216 80.5825 58.3216C75.9889 58.3216 73.96 54.4526 73.96 50.1943C73.96 48.8962 74.1941 47.6007 74.5971 46.3941H86.5678C86.9709 47.6007 87.2062 48.8962 87.2062 50.1943" fill="#D8E9F0"/>
<path d="M80.5792 51.2649V63.2492" stroke="#CDD9E3" stroke-width="3.5"/>
<path fill-rule="evenodd" clip-rule="evenodd" d="M70.6095 58.5717C66.5729 59.3828 64.1059 56.3411 63.3549 52.5986C63.1271 51.467 63.1033 50.2954 63.2398 49.1714C63.3587 48.1913 63.6003 47.2475 63.9357 46.3951L68.1637 46.3964L68.9886 50.5019L70.6095 58.5717Z" fill="#CEDDE1"/>
<path fill-rule="evenodd" clip-rule="evenodd" d="M72.0597 69.9282C72.0597 69.9282 68.7734 65.6911 69.8516 64.716C70.9299 63.7408 72.0361 66.2636 73.7563 66.1352C75.4765 66.0068 73.9259 64.2893 74.3486 63.4934C74.7711 62.6974 79.9682 65.2879 79.9682 65.2879L72.0597 69.9282Z" fill="#D8E9F0"/>
<path fill-rule="evenodd" clip-rule="evenodd" d="M72.4308 57.0708C72.4308 61.4831 68.8536 65.0605 64.4403 65.0605C62.8207 65.0605 61.3137 64.5786 60.0545 63.7499L58.7866 51.4269C59.9657 50.2453 61.5115 49.4317 63.24 49.1713C63.6317 49.1113 64.0323 49.0812 64.4403 49.0812C66.13 49.0812 67.6983 49.6057 68.9888 50.5019C71.069 51.9439 72.4308 54.3484 72.4308 57.0708" fill="#D8E9F0"/>
<path d="M64.7422 57.0709V69.0552" stroke="#CDD9E3" stroke-width="3.5"/>
<path fill-rule="evenodd" clip-rule="evenodd" d="M76.8968 92.1565C76.8968 93.2941 75.9747 94.2161 74.8373 94.2161C73.6999 94.2161 72.7779 93.2941 72.7779 92.1565C72.7779 91.0191 73.6999 90.097 74.8373 90.097C75.9747 90.097 76.8968 91.0191 76.8968 92.1565" fill="#CEDDE1"/>
</g>
<path fill-rule="evenodd" clip-rule="evenodd" d="M73.6075 28.1031H70.8012C70.485 28.1031 70.2263 27.8445 70.2263 27.5283C70.2263 27.2121 70.485 26.9535 70.8012 26.9535H73.6075C73.9236 26.9535 74.1823 27.2121 74.1823 27.5283C74.1823 27.8445 73.9236 28.1031 73.6075 28.1031" fill="black"/>
<path fill-rule="evenodd" clip-rule="evenodd" d="M76.9799 27.1053C76.9799 27.6346 76.5509 28.0634 76.0219 28.0634C75.4927 28.0634 75.0637 27.6346 75.0637 27.1053C75.0637 26.5761 75.4927 26.1473 76.0219 26.1473C76.5509 26.1473 76.9799 26.5761 76.9799 27.1053" fill="black"/>
<path fill-rule="evenodd" clip-rule="evenodd" d="M69.3449 27.1427C69.3449 27.6719 68.9159 28.1009 68.3868 28.1009C67.8576 28.1009 67.4287 27.6719 67.4287 27.1427C67.4287 26.6136 67.8576 26.1847 68.3868 26.1847C68.9159 26.1847 69.3449 26.6136 69.3449 27.1427" fill="black"/>
<path fill-rule="evenodd" clip-rule="evenodd" d="M91.8651 102.265L90.9327 104.814C90.9327 104.814 97.1279 107.726 99.0954 110.451L86.993 107.731L89.0583 100.356L91.8651 102.265Z" fill="#0364FF"/>
<path fill-rule="evenodd" clip-rule="evenodd" d="M88.8611 100.912L88.0215 104.059L90.9329 104.814L91.7121 102.699L88.8611 100.912Z" fill="#0364FF"/>
<path fill-rule="evenodd" clip-rule="evenodd" d="M68.0891 72.6831C68.0891 72.6831 76.3732 62.9958 86.0013 63.2781C95.6293 63.5606 92.5042 70.3319 92.5042 70.3319C92.5042 70.3319 97.2428 79.163 97.7089 85.6676C98.0236 90.0576 92.4232 104.02 92.4232 104.02L87.9558 102.75C87.9558 102.75 92.5098 89.7116 91.47 84.3196C90.7165 80.4122 84.8889 73.1013 82.9803 72.6831H68.0891Z" fill="#0364FF"/>
<path fill-rule="evenodd" clip-rule="evenodd" d="M116.602 62.0855L115.861 67.7363L109.27 67.198C109.27 67.198 106.413 69.2612 101.98 70.3314C97.5477 71.4029 90.854 72.9575 87.0026 70.3314C83.1513 67.7054 84.3454 64.3971 84.3454 64.3971L88.7287 64.4497L89.814 58.7079C93.3148 58.2547 96.2561 58.444 98.7593 58.6192C102.001 58.8458 104.442 59.4166 106.173 59.8522C106.391 59.9072 106.628 59.9661 106.885 60.0287C110.242 60.8473 116.602 62.0855 116.602 62.0855" fill="#F8F7F5"/>
<path fill-rule="evenodd" clip-rule="evenodd" d="M100.854 64.8445C99.0824 64.2796 98.4406 62.5785 98.6716 60.3127C98.7332 59.7086 99.135 58.7954 100.03 58.7289C103.272 58.9555 106.22 59.3357 106.336 59.889C107.234 64.2026 102.323 65.3127 100.854 64.8445" fill="#DADAD5"/>
<path fill-rule="evenodd" clip-rule="evenodd" d="M101.98 63.2781L106.173 60.5776C106.173 60.5776 110.407 62.049 111.428 61.7578C111.428 61.7578 113.884 57.7412 113.842 54.5454L110.879 50.5249L104.93 49.7604L103.182 54.9298C103.06 53.9623 100.5 52.2584 99.4156 54.1512C98.0173 56.5922 102.174 58.7018 102.174 58.7018L99.5524 60.1455L101.98 63.2781Z" fill="#F8D7B5"/>
<path fill-rule="evenodd" clip-rule="evenodd" d="M100.476 53.3318C100.476 53.3318 98.1101 51.3079 102.125 48.5543C106.14 45.8005 108.731 48.1835 108.731 48.1835C108.731 48.1835 110.278 44.8585 112.582 45.3391C115.865 46.0241 115.336 51.2044 115.336 51.2044C115.336 51.2044 116.72 48.6107 117.581 49.1976C118.442 49.7846 117.432 59.1308 105.271 51.9938C105.271 51.9938 106.283 55.0274 103.183 54.9298C103.183 54.9298 102.473 53.1988 100.476 53.3318" fill="#47392A"/>
<path d="M104.233 45.6113L104.178 47.986L103.236 48.2215L101.98 46.2826" stroke="#47392A" stroke-width="6.3"/>
<path fill-rule="evenodd" clip-rule="evenodd" d="M110.107 56.4687C110.061 56.7655 109.784 56.969 109.487 56.9232C109.19 56.8774 108.987 56.5997 109.032 56.3029C109.078 56.0061 109.356 55.8027 109.653 55.8484C109.949 55.8942 110.153 56.172 110.107 56.4687" fill="#47392A"/>
<path fill-rule="evenodd" clip-rule="evenodd" d="M112.906 56.61C112.86 56.9068 112.582 57.1103 112.286 57.0645C111.989 57.0187 111.785 56.741 111.831 56.4442C111.877 56.1474 112.155 55.944 112.451 55.9897C112.748 56.0356 112.952 56.3133 112.906 56.61" fill="#47392A"/>
<path fill-rule="evenodd" clip-rule="evenodd" d="M106.173 60.5606L103.107 59.0796L104.881 61.4102L106.173 60.5606Z" fill="#DDC1A1"/>
<path fill-rule="evenodd" clip-rule="evenodd" d="M109.581 54.9188C109.31 54.8924 109.059 55.0251 108.922 55.2406L108.605 55.039C108.815 54.709 109.2 54.5043 109.618 54.545L109.618 54.545C110.035 54.5858 110.374 54.861 110.516 55.2254L110.166 55.3619C110.073 55.124 109.853 54.9453 109.581 54.9188" fill="#47392A"/>
<path fill-rule="evenodd" clip-rule="evenodd" d="M112.38 55.1917C112.109 55.1653 111.858 55.298 111.721 55.5135L111.404 55.3119C111.614 54.9819 111.999 54.7771 112.417 54.8178L112.417 54.8178C112.834 54.8587 113.173 55.1339 113.315 55.4982L112.965 55.6348C112.872 55.3969 112.651 55.2182 112.38 55.1917" fill="#47392A"/>
<path fill-rule="evenodd" clip-rule="evenodd" d="M139.388 67.2772L137.882 68.6444L135.417 67.6623L136.265 66.0833L139.388 67.2772Z" fill="#DDC1A1"/>
<path fill-rule="evenodd" clip-rule="evenodd" d="M115.937 67.1544L133.421 68.2013C133.421 68.2013 134.942 68.9511 135.751 69.1154C136.559 69.2796 137.965 69.0293 138.793 69.4146C139.621 69.7996 139.467 68.779 138.716 68.6057C137.965 68.4324 136.309 67.6622 136.309 67.6622L137.272 67.0074C137.272 67.0074 140.545 67.7199 141.123 67.6236C141.701 67.5273 142.49 67.0844 142.49 66.7762C142.49 66.7762 138.755 66.5067 137.464 65.6016C136.174 64.6965 133.363 65.7364 133.363 65.7364L116.58 62.2511L115.937 67.1544Z" fill="#F8D7B5"/>
<path fill-rule="evenodd" clip-rule="evenodd" d="M89.7753 58.9262C89.7753 58.9262 82.6891 59.3017 81.046 59.8521C79.4027 60.4026 71.9057 72.65 71.9057 72.65L74.2549 72.8041C74.2549 72.8041 73.2921 74.3447 72.5604 74.5757C71.8287 74.8068 72.7144 75.1919 72.7144 75.1919C72.7144 75.1919 72.6 75.6494 73.4847 75.6926C75.0646 75.7696 77.4129 74.7297 78.4143 73.1121C78.4143 73.1121 78.9535 72.1713 78.1832 71.7752C77.4129 71.379 75.8724 71.302 75.8724 71.302L82.0972 64.3695L88.7279 64.4502L89.7753 58.9262Z" fill="#F8D7B5"/>
<path fill-rule="evenodd" clip-rule="evenodd" d="M110.547 60.0973C110.361 60.4478 109.736 60.4805 109.15 60.1701C108.565 59.8598 108.308 59.1917 108.494 58.8411C108.68 58.4906 109.243 59.0451 109.829 59.3554C110.414 59.6657 110.733 59.7468 110.547 60.0973" fill="#DE757C"/>
<path fill-rule="evenodd" clip-rule="evenodd" d="M84.3454 64.3971L88.7287 64.4497L88.6121 65.0073L93.1196 64.7224L84.2436 66.4618C84.2436 66.4618 84.1077 65.8073 84.1976 65.1225C84.2489 64.7323 84.3454 64.3971 84.3454 64.3971" fill="#DADAD5"/>
<path fill-rule="evenodd" clip-rule="evenodd" d="M75.6583 72.3445C75.7259 72.3591 75.7688 72.4258 75.7542 72.4933L75.6319 72.4669C75.7542 72.4933 75.7543 72.4933 75.7542 72.4933L75.7542 72.4936L75.7541 72.494L75.7539 72.495L75.7532 72.4981C75.7526 72.5005 75.7518 72.5039 75.7507 72.5082C75.7486 72.5168 75.7454 72.5289 75.741 72.5444C75.7322 72.5752 75.7184 72.6193 75.6982 72.6749C75.6577 72.7859 75.5912 72.9425 75.4859 73.13C75.2753 73.5052 74.9103 74.0027 74.2906 74.5044C73.9339 74.7932 73.5635 74.9759 73.2831 75.0864C73.1426 75.1418 73.024 75.1793 72.94 75.203C72.898 75.2149 72.8646 75.2234 72.8414 75.229C72.8297 75.2318 72.8206 75.2338 72.8143 75.2352L72.8068 75.2368L72.8047 75.2373L72.804 75.2374L72.8038 75.2375C72.8038 75.2375 72.8036 75.2375 72.7789 75.1148L72.8038 75.2375C72.736 75.2512 72.6698 75.2073 72.6561 75.1396C72.6424 75.0718 72.6862 75.0058 72.754 74.9921L72.7552 74.9918L72.7605 74.9907C72.7654 74.9896 72.7729 74.9879 72.783 74.9855C72.8032 74.9806 72.8333 74.973 72.8718 74.9621C72.949 74.9403 73.0595 74.9053 73.1913 74.8534C73.4551 74.7495 73.8013 74.5783 74.1331 74.3097C74.7265 73.8293 75.0715 73.3568 75.2676 73.0074C75.3657 72.8326 75.4267 72.6884 75.4629 72.5891C75.4811 72.5394 75.493 72.501 75.5002 72.4756C75.5038 72.4629 75.5063 72.4535 75.5078 72.4476C75.5085 72.4446 75.509 72.4425 75.5093 72.4413L75.5095 72.4405C75.5241 72.373 75.5907 72.3299 75.6583 72.3445Z" fill="#DDC1A1"/>
<path fill-rule="evenodd" clip-rule="evenodd" d="M76.7951 72.6198C76.8608 72.6415 76.8964 72.7123 76.8747 72.7779L76.7559 72.7387C76.8747 72.7779 76.8747 72.778 76.8747 72.778L76.8747 72.7782L76.8745 72.7785L76.8742 72.7795L76.8731 72.7827C76.8722 72.7854 76.8709 72.7892 76.8692 72.794C76.8657 72.8035 76.8606 72.8172 76.8538 72.8347C76.8401 72.8698 76.8193 72.9201 76.7901 72.9832C76.7318 73.1094 76.6401 73.2868 76.5055 73.4957C76.2361 73.9134 75.7947 74.4567 75.1044 74.9652L75.1043 74.9652C74.6648 75.2891 74.2792 75.4761 74.0014 75.5824C73.8626 75.6355 73.7508 75.6685 73.6727 75.6883C73.6336 75.6982 73.603 75.7048 73.5816 75.709C73.571 75.7111 73.5626 75.7126 73.5566 75.7136L73.5496 75.7148L73.5474 75.7151L73.5467 75.7152L73.5464 75.7153L73.5463 75.7153C73.5462 75.7153 73.5462 75.7153 73.5281 75.5914L73.5462 75.7153C73.4778 75.7253 73.4142 75.6779 73.4042 75.6095C73.3943 75.5412 73.4415 75.4777 73.5098 75.4676C73.5098 75.4676 73.5098 75.4676 73.5098 75.4676C73.5098 75.4676 73.5099 75.4676 73.5099 75.4676C73.5099 75.4675 73.5099 75.4675 73.51 75.4675C73.51 75.4675 73.51 75.4675 73.51 75.4675M76.7951 72.6198C76.7295 72.5981 76.6587 72.6337 76.637 72.6993Z" fill="#DDC1A1"/>
<path d="M120.636 34.4265C120.636 34.6375 120.593 34.7989 120.505 34.9107C120.418 35.0225 120.29 35.0784 120.122 35.0784C119.956 35.0784 119.828 35.0235 119.74 34.9138C119.652 34.8041 119.607 34.6469 119.605 34.4422V34.1613C119.605 33.9482 119.649 33.7865 119.737 33.6761C119.826 33.5657 119.953 33.5105 120.12 33.5105C120.286 33.5105 120.413 33.5654 120.501 33.6751C120.589 33.7841 120.634 33.9409 120.636 34.1456V34.4265ZM120.334 34.1184C120.334 33.9919 120.316 33.9 120.281 33.8427C120.247 33.7847 120.193 33.7558 120.12 33.7558C120.048 33.7558 119.996 33.7834 119.961 33.8385C119.928 33.893 119.91 33.9786 119.908 34.0953V34.4663C119.908 34.5907 119.925 34.6833 119.958 34.744C119.993 34.8041 120.047 34.8342 120.122 34.8342C120.196 34.8342 120.249 34.8052 120.282 34.7472C120.315 34.6892 120.332 34.6005 120.334 34.481V34.1184Z" fill="white"/>
<path d="M121.286 34.262L121.477 33.9234H121.801L121.478 34.4789L121.814 35.0574H121.489L121.287 34.7011L121.086 35.0574H120.76L121.096 34.4789L120.775 33.9234H121.1L121.286 34.262Z" fill="white"/>
<path d="M123.164 34.5491C123.152 34.7133 123.092 34.8426 122.982 34.9369C122.873 35.0312 122.729 35.0784 122.55 35.0784C122.354 35.0784 122.2 35.0127 122.088 34.8813C121.976 34.7493 121.92 34.5683 121.92 34.3385V34.2452C121.92 34.0985 121.946 33.9692 121.998 33.8574C122.049 33.7456 122.123 33.66 122.219 33.6006C122.315 33.5406 122.427 33.5105 122.554 33.5105C122.73 33.5105 122.872 33.5577 122.98 33.652C123.087 33.7463 123.15 33.8787 123.166 34.0492H122.852C122.844 33.9507 122.817 33.8794 122.769 33.8354C122.722 33.7907 122.651 33.7683 122.554 33.7683C122.449 33.7683 122.371 33.8061 122.318 33.8815C122.267 33.9563 122.24 34.0726 122.239 34.2305V34.3458C122.239 34.5107 122.264 34.6312 122.313 34.7074C122.364 34.7835 122.443 34.8216 122.55 34.8216C122.647 34.8216 122.72 34.7996 122.767 34.7556C122.815 34.7109 122.843 34.642 122.85 34.5491H123.164Z" fill="white"/>
<path d="M124.569 34.5491C124.557 34.7133 124.496 34.8426 124.386 34.9369C124.277 35.0312 124.133 35.0784 123.954 35.0784C123.759 35.0784 123.605 35.0127 123.492 34.8813C123.38 34.7493 123.325 34.5683 123.325 34.3385V34.2452C123.325 34.0985 123.35 33.9692 123.402 33.8574C123.454 33.7456 123.528 33.66 123.623 33.6006C123.72 33.5406 123.831 33.5105 123.959 33.5105C124.135 33.5105 124.277 33.5577 124.384 33.652C124.492 33.7463 124.554 33.8787 124.571 34.0492H124.256C124.249 33.9507 124.221 33.8794 124.174 33.8354C124.127 33.7907 124.055 33.7683 123.959 33.7683C123.854 33.7683 123.775 33.8061 123.723 33.8815C123.671 33.9563 123.645 34.0726 123.643 34.2305V34.3458C123.643 34.5107 123.668 34.6312 123.718 34.7074C123.768 34.7835 123.847 34.8216 123.954 34.8216C124.052 34.8216 124.124 34.7996 124.171 34.7556C124.22 34.7109 124.247 34.642 124.254 34.5491H124.569Z" fill="white"/>
<path d="M125.77 34.4265C125.77 34.6375 125.726 34.7989 125.639 34.9107C125.551 35.0225 125.423 35.0784 125.255 35.0784C125.089 35.0784 124.962 35.0235 124.874 34.9138C124.786 34.8041 124.74 34.6469 124.738 34.4422V34.1613C124.738 33.9482 124.782 33.7865 124.87 33.6761C124.959 33.5657 125.087 33.5105 125.253 33.5105C125.419 33.5105 125.546 33.5654 125.634 33.6751C125.722 33.7841 125.768 33.9409 125.77 34.1456V34.4265ZM125.467 34.1184C125.467 33.9919 125.449 33.9 125.414 33.8427C125.38 33.7847 125.326 33.7558 125.253 33.7558C125.182 33.7558 125.129 33.7834 125.095 33.8385C125.061 33.893 125.043 33.9786 125.041 34.0953V34.4663C125.041 34.5907 125.058 34.6833 125.092 34.744C125.126 34.8041 125.18 34.8342 125.255 34.8342C125.329 34.8342 125.383 34.8052 125.415 34.7472C125.448 34.6892 125.465 34.6005 125.467 34.481V34.1184Z" fill="white"/>
<path d="M127.002 34.4265C127.002 34.6375 126.958 34.7989 126.871 34.9107C126.784 35.0225 126.656 35.0784 126.488 35.0784C126.321 35.0784 126.194 35.0235 126.106 34.9138C126.018 34.8041 125.973 34.6469 125.971 34.4422V34.1613C125.971 33.9482 126.015 33.7865 126.103 33.6761C126.192 33.5657 126.319 33.5105 126.485 33.5105C126.652 33.5105 126.779 33.5654 126.867 33.6751C126.955 33.7841 127 33.9409 127.002 34.1456V34.4265ZM126.699 34.1184C126.699 33.9919 126.682 33.9 126.647 33.8427C126.613 33.7847 126.559 33.7558 126.485 33.7558C126.414 33.7558 126.361 33.7834 126.327 33.8385C126.294 33.893 126.276 33.9786 126.274 34.0953V34.4663C126.274 34.5907 126.291 34.6833 126.324 34.744C126.358 34.8041 126.413 34.8342 126.488 34.8342C126.562 34.8342 126.615 34.8052 126.648 34.7472C126.681 34.6892 126.698 34.6005 126.699 34.481V34.1184Z" fill="white"/>
<path d="M127.24 35.0574V33.5315H127.71C127.844 33.5315 127.964 33.5619 128.069 33.6227C128.175 33.6827 128.258 33.7687 128.317 33.8805C128.377 33.9916 128.407 34.118 128.407 34.2599V34.3301C128.407 34.4719 128.377 34.598 128.318 34.7084C128.26 34.8188 128.178 34.9044 128.072 34.9652C127.966 35.026 127.846 35.0567 127.713 35.0574H127.24ZM127.554 33.7861V34.8048H127.706C127.829 34.8048 127.923 34.7647 127.988 34.6843C128.053 34.604 128.087 34.489 128.088 34.3395V34.2588C128.088 34.1037 128.056 33.9863 127.991 33.9067C127.927 33.8263 127.833 33.7861 127.71 33.7861H127.554Z" fill="white"/>
<path d="M129.138 35.0784C128.972 35.0784 128.836 35.0274 128.731 34.9254C128.627 34.8233 128.575 34.6875 128.575 34.5177V34.4883C128.575 34.3744 128.597 34.2728 128.641 34.1834C128.685 34.0932 128.747 34.024 128.828 33.9758C128.909 33.9269 129.001 33.9025 129.104 33.9025C129.26 33.9025 129.382 33.9514 129.47 34.0492C129.56 34.147 129.604 34.2857 129.604 34.4653V34.5889H128.882C128.892 34.663 128.921 34.7224 128.97 34.7671C129.02 34.8118 129.082 34.8342 129.158 34.8342C129.275 34.8342 129.366 34.7919 129.431 34.7074L129.58 34.874C129.535 34.9383 129.473 34.9886 129.396 35.0249C129.318 35.0606 129.232 35.0784 129.138 35.0784ZM129.103 34.1477C129.043 34.1477 128.994 34.168 128.957 34.2085C128.92 34.249 128.896 34.307 128.885 34.3825H129.307V34.3584C129.305 34.2913 129.287 34.2396 129.252 34.2033C129.217 34.1662 129.168 34.1477 129.103 34.1477Z" fill="white"/>
<path d="M130.5 35.0574H130.198V33.8899L129.836 34.002V33.7558L130.468 33.5294H130.5V35.0574Z" fill="white"/>
<path d="M131.893 34.4831H132.066V34.7273H131.893V35.0574H131.59V34.7273H130.965L130.951 34.5365L131.587 33.5315H131.893V34.4831ZM131.253 34.4831H131.59V33.9444L131.571 33.979L131.253 34.4831Z" fill="white"/>
<path d="M133.18 34.3961H132.577V34.8048H133.285V35.0574H132.262V33.5315H133.283V33.7861H132.577V34.1498H133.18V34.3961Z" fill="white"/>
<path d="M134.107 35.0574C134.093 35.0302 134.083 34.9963 134.076 34.9557C134.003 35.0375 133.908 35.0784 133.79 35.0784C133.679 35.0784 133.587 35.0462 133.514 34.982C133.441 34.9177 133.405 34.8366 133.405 34.7388C133.405 34.6186 133.449 34.5264 133.538 34.4621C133.627 34.3978 133.756 34.3654 133.924 34.3647H134.064V34.2997C134.064 34.2473 134.05 34.2054 134.023 34.1739C133.996 34.1425 133.954 34.1268 133.896 34.1268C133.845 34.1268 133.805 34.139 133.776 34.1634C133.747 34.1879 133.733 34.2214 133.733 34.264H133.43C133.43 34.1984 133.45 34.1376 133.491 34.0817C133.531 34.0258 133.588 33.9821 133.662 33.9507C133.736 33.9185 133.82 33.9025 133.912 33.9025C134.052 33.9025 134.162 33.9378 134.244 34.0083C134.326 34.0782 134.368 34.1767 134.368 34.3039V34.7954C134.368 34.903 134.383 34.9844 134.413 35.0396V35.0574H134.107ZM133.856 34.8468C133.901 34.8468 133.942 34.837 133.98 34.8174C134.018 34.7971 134.046 34.7702 134.064 34.7367V34.5418H133.951C133.799 34.5418 133.718 34.5942 133.709 34.699L133.707 34.7168C133.707 34.7545 133.721 34.7856 133.747 34.8101C133.774 34.8345 133.81 34.8468 133.856 34.8468Z" fill="white"/>
<path d="M135.538 34.4338H134.935V35.0574H134.62V33.5315H135.614V33.7861H134.935V34.1802H135.538V34.4338Z" fill="white"/>
<path d="M136.499 35.0574H136.197V33.8899L135.835 34.002V33.7558L136.467 33.5294H136.499V35.0574Z" fill="white"/>
<path d="M137.304 34.1603H137.466C137.543 34.1603 137.599 34.1411 137.637 34.1027C137.674 34.0642 137.692 34.0132 137.692 33.9496C137.692 33.8882 137.674 33.8403 137.637 33.8061C137.6 33.7718 137.55 33.7547 137.486 33.7547C137.428 33.7547 137.379 33.7708 137.34 33.8029C137.301 33.8344 137.281 33.8756 137.281 33.9266H136.978C136.978 33.8469 137 33.7757 137.042 33.7128C137.086 33.6492 137.146 33.5996 137.223 33.564C137.3 33.5283 137.385 33.5105 137.478 33.5105C137.64 33.5105 137.766 33.5493 137.858 33.6268C137.949 33.7037 137.995 33.8099 137.995 33.9454C137.995 34.0153 137.974 34.0796 137.931 34.1383C137.888 34.197 137.833 34.242 137.763 34.2735C137.849 34.3042 137.913 34.3503 137.955 34.4118C137.998 34.4733 138.019 34.546 138.019 34.6298C138.019 34.7654 137.969 34.874 137.87 34.9557C137.772 35.0375 137.641 35.0784 137.478 35.0784C137.326 35.0784 137.201 35.0382 137.104 34.9578C137.008 34.8775 136.959 34.7713 136.959 34.6392H137.262C137.262 34.6965 137.284 34.7433 137.326 34.7797C137.37 34.816 137.423 34.8342 137.486 34.8342C137.558 34.8342 137.614 34.8153 137.654 34.7776C137.696 34.7392 137.716 34.6885 137.716 34.6256C137.716 34.4733 137.632 34.3971 137.465 34.3971H137.304V34.1603Z" fill="white"/>
<path d="M139.256 34.4265C139.256 34.6375 139.212 34.7989 139.125 34.9107C139.037 35.0225 138.91 35.0784 138.741 35.0784C138.575 35.0784 138.448 35.0235 138.36 34.9138C138.272 34.8041 138.227 34.6469 138.224 34.4422V34.1613C138.224 33.9482 138.268 33.7865 138.357 33.6761C138.445 33.5657 138.573 33.5105 138.739 33.5105C138.905 33.5105 139.033 33.5654 139.121 33.6751C139.209 33.7841 139.254 33.9409 139.256 34.1456V34.4265ZM138.953 34.1184C138.953 33.9919 138.935 33.9 138.9 33.8427C138.866 33.7847 138.812 33.7558 138.739 33.7558C138.668 33.7558 138.615 33.7834 138.581 33.8385C138.547 33.893 138.529 33.9786 138.527 34.0953V34.4663C138.527 34.5907 138.544 34.6833 138.578 34.744C138.612 34.8041 138.666 34.8342 138.741 34.8342C138.815 34.8342 138.869 34.8052 138.901 34.7472C138.934 34.6892 138.951 34.6005 138.953 34.481V34.1184Z" fill="white"/>
<path d="M140.488 34.4265C140.488 34.6375 140.445 34.7989 140.357 34.9107C140.27 35.0225 140.142 35.0784 139.974 35.0784C139.807 35.0784 139.68 35.0235 139.592 34.9138C139.504 34.8041 139.459 34.6469 139.457 34.4422V34.1613C139.457 33.9482 139.501 33.7865 139.589 33.6761C139.678 33.5657 139.805 33.5105 139.972 33.5105C140.138 33.5105 140.265 33.5654 140.353 33.6751C140.441 33.7841 140.486 33.9409 140.488 34.1456V34.4265ZM140.185 34.1184C140.185 33.9919 140.168 33.9 140.133 33.8427C140.099 33.7847 140.045 33.7558 139.972 33.7558C139.9 33.7558 139.848 33.7834 139.813 33.8385C139.78 33.893 139.762 33.9786 139.76 34.0953V34.4663C139.76 34.5907 139.777 34.6833 139.81 34.744C139.844 34.8041 139.899 34.8342 139.974 34.8342C140.048 34.8342 140.101 34.8052 140.134 34.7472C140.167 34.6892 140.184 34.6005 140.185 34.481V34.1184Z" fill="white"/>
<path d="M141.688 33.9371C141.688 34.0111 141.67 34.0768 141.633 34.1341C141.596 34.1914 141.545 34.2371 141.48 34.2714C141.554 34.307 141.612 34.3563 141.656 34.4192C141.699 34.4813 141.721 34.5547 141.721 34.6392C141.721 34.7748 141.675 34.882 141.582 34.961C141.49 35.0392 141.365 35.0784 141.206 35.0784C141.048 35.0784 140.922 35.0389 140.829 34.9599C140.736 34.881 140.689 34.7741 140.689 34.6392C140.689 34.5547 140.711 34.481 140.754 34.4181C140.798 34.3552 140.856 34.3063 140.929 34.2714C140.864 34.2371 140.813 34.1914 140.776 34.1341C140.74 34.0768 140.722 34.0111 140.722 33.9371C140.722 33.8071 140.765 33.7037 140.852 33.6268C140.939 33.5493 141.056 33.5105 141.205 33.5105C141.353 33.5105 141.471 33.5489 141.557 33.6258C141.645 33.702 141.688 33.8057 141.688 33.9371ZM141.417 34.6172C141.417 34.5509 141.398 34.4978 141.359 34.4579C141.321 34.4181 141.269 34.3982 141.204 34.3982C141.14 34.3982 141.088 34.4181 141.05 34.4579C141.012 34.4971 140.992 34.5502 140.992 34.6172C140.992 34.6822 141.011 34.7346 141.049 34.7744C141.087 34.8143 141.139 34.8342 141.206 34.8342C141.272 34.8342 141.323 34.815 141.36 34.7765C141.398 34.7381 141.417 34.685 141.417 34.6172ZM141.385 33.9517C141.385 33.8923 141.37 33.8448 141.338 33.8092C141.307 33.7729 141.262 33.7547 141.205 33.7547C141.148 33.7547 141.104 33.7722 141.073 33.8071C141.042 33.842 141.026 33.8903 141.026 33.9517C141.026 34.0125 141.042 34.0614 141.073 34.0985C141.104 34.1355 141.149 34.154 141.206 34.154C141.263 34.154 141.307 34.1355 141.338 34.0985C141.37 34.0614 141.385 34.0125 141.385 33.9517Z" fill="white"/>
<path d="M142.877 34.3961H142.273V34.8048H142.981V35.0574H141.959V33.5315H142.979V33.7861H142.273V34.1498H142.877V34.3961Z" fill="white"/>
<path d="M143.166 35.0574V33.5315H143.7C143.886 33.5315 144.026 33.5671 144.122 33.6384C144.217 33.7089 144.265 33.8127 144.265 33.9496C144.265 34.0244 144.246 34.0904 144.208 34.1477C144.169 34.2043 144.116 34.2459 144.047 34.2724C144.126 34.292 144.187 34.3315 144.232 34.3909C144.277 34.4502 144.3 34.5229 144.3 34.6089C144.3 34.7556 144.253 34.8667 144.159 34.9421C144.066 35.0176 143.932 35.056 143.759 35.0574H143.166ZM143.48 34.393V34.8048H143.75C143.824 34.8048 143.881 34.7874 143.923 34.7524C143.965 34.7168 143.986 34.6679 143.986 34.6057C143.986 34.466 143.913 34.3951 143.769 34.393H143.48ZM143.48 34.1708H143.713C143.872 34.168 143.951 34.1047 143.951 33.9811C143.951 33.9119 143.931 33.8623 143.89 33.8323C143.85 33.8015 143.787 33.7861 143.7 33.7861H143.48V34.1708Z" fill="white"/>
<path d="M144.47 34.482C144.47 34.3053 144.509 34.1645 144.588 34.0597C144.668 33.9549 144.776 33.9025 144.914 33.9025C145.024 33.9025 145.116 33.9437 145.188 34.0261V33.4476H145.492V35.0574H145.218L145.203 34.9369C145.128 35.0312 145.031 35.0784 144.912 35.0784C144.779 35.0784 144.671 35.026 144.59 34.9212C144.51 34.8157 144.47 34.6693 144.47 34.482ZM144.773 34.504C144.773 34.6102 144.791 34.6916 144.828 34.7482C144.865 34.8048 144.919 34.8331 144.99 34.8331C145.083 34.8331 145.149 34.7937 145.188 34.7147V34.2672C145.15 34.1882 145.085 34.1488 144.992 34.1488C144.846 34.1488 144.773 34.2672 144.773 34.504Z" fill="white"/>
<path d="M120.84 38.8419C120.828 39.006 120.767 39.1353 120.657 39.2296C120.548 39.3239 120.404 39.3711 120.226 39.3711C120.03 39.3711 119.876 39.3054 119.763 39.1741C119.652 39.042 119.596 38.8611 119.596 38.6312V38.5379C119.596 38.3912 119.622 38.2619 119.673 38.1502C119.725 38.0384 119.799 37.9528 119.894 37.8934C119.991 37.8333 120.103 37.8033 120.23 37.8033C120.406 37.8033 120.548 37.8504 120.655 37.9447C120.763 38.0391 120.825 38.1715 120.842 38.3419H120.527C120.52 38.2434 120.492 38.1722 120.445 38.1281C120.398 38.0834 120.326 38.0611 120.23 38.0611C120.125 38.0611 120.046 38.0988 119.994 38.1743C119.942 38.249 119.916 38.3653 119.914 38.5233V38.6385C119.914 38.8034 119.939 38.9239 119.989 39.0001C120.039 39.0763 120.118 39.1143 120.226 39.1143C120.323 39.1143 120.395 39.0923 120.443 39.0483C120.491 39.0036 120.518 38.9348 120.525 38.8419H120.84Z" fill="white"/>
<path d="M121.749 39.3501H121.447V38.1826L121.085 38.2948V38.0485L121.717 37.8221H121.749V39.3501Z" fill="white"/>
<path d="M123.292 39.3501H122.246V39.1426L122.74 38.6165C122.808 38.5425 122.858 38.4778 122.89 38.4226C122.923 38.3674 122.939 38.315 122.939 38.2654C122.939 38.1977 122.922 38.1446 122.888 38.1061C122.853 38.067 122.804 38.0474 122.741 38.0474C122.672 38.0474 122.618 38.0712 122.578 38.1187C122.539 38.1655 122.52 38.2274 122.52 38.3042H122.216C122.216 38.2113 122.238 38.1264 122.282 38.0495C122.327 37.9727 122.389 37.9126 122.47 37.8693C122.552 37.8253 122.643 37.8033 122.746 37.8033C122.903 37.8033 123.025 37.841 123.112 37.9164C123.199 37.9919 123.243 38.0984 123.243 38.2361C123.243 38.3115 123.223 38.3884 123.184 38.4667C123.145 38.5449 123.078 38.6361 122.983 38.7402L122.636 39.106H123.292V39.3501Z" fill="white"/>
<path d="M124.709 38.8419C124.697 39.006 124.636 39.1353 124.527 39.2296C124.418 39.3239 124.274 39.3711 124.095 39.3711C123.899 39.3711 123.745 39.3054 123.633 39.1741C123.521 39.042 123.465 38.8611 123.465 38.6312V38.5379C123.465 38.3912 123.491 38.2619 123.543 38.1502C123.594 38.0384 123.668 37.9528 123.764 37.8934C123.86 37.8333 123.972 37.8033 124.099 37.8033C124.275 37.8033 124.417 37.8504 124.525 37.9447C124.632 38.0391 124.694 38.1715 124.711 38.3419H124.397C124.389 38.2434 124.361 38.1722 124.314 38.1281C124.267 38.0834 124.196 38.0611 124.099 38.0611C123.994 38.0611 123.916 38.0988 123.863 38.1743C123.812 38.249 123.785 38.3653 123.784 38.5233V38.6385C123.784 38.8034 123.808 38.9239 123.858 39.0001C123.908 39.0763 123.987 39.1143 124.095 39.1143C124.192 39.1143 124.264 39.0923 124.312 39.0483C124.36 39.0036 124.388 38.9348 124.395 38.8419H124.709Z" fill="white"/>
<path d="M125.619 39.3501H125.316V38.1826L124.954 38.2948V38.0485L125.586 37.8221H125.619V39.3501Z" fill="white"/>
<path d="M127.11 38.2298C127.11 38.3039 127.092 38.3695 127.055 38.4268C127.018 38.4841 126.967 38.5299 126.902 38.5641C126.976 38.5998 127.034 38.649 127.078 38.7119C127.121 38.7741 127.143 38.8474 127.143 38.932C127.143 39.0675 127.096 39.1748 127.004 39.2537C126.912 39.332 126.787 39.3711 126.628 39.3711C126.469 39.3711 126.344 39.3316 126.251 39.2527C126.158 39.1737 126.111 39.0668 126.111 38.932C126.111 38.8474 126.133 38.7737 126.176 38.7108C126.22 38.648 126.278 38.5991 126.351 38.5641C126.286 38.5299 126.235 38.4841 126.198 38.4268C126.162 38.3695 126.144 38.3039 126.144 38.2298C126.144 38.0998 126.187 37.9964 126.274 37.9196C126.36 37.842 126.478 37.8033 126.627 37.8033C126.775 37.8033 126.892 37.8417 126.979 37.9185C127.066 37.9947 127.11 38.0984 127.11 38.2298ZM126.839 38.91C126.839 38.8436 126.819 38.7905 126.781 38.7507C126.743 38.7108 126.691 38.6909 126.626 38.6909C126.562 38.6909 126.51 38.7108 126.472 38.7507C126.433 38.7898 126.414 38.8429 126.414 38.91C126.414 38.975 126.433 39.0274 126.471 39.0672C126.509 39.107 126.561 39.1269 126.628 39.1269C126.694 39.1269 126.745 39.1077 126.782 39.0693C126.82 39.0308 126.839 38.9777 126.839 38.91ZM126.807 38.2445C126.807 38.1851 126.791 38.1376 126.76 38.1019C126.729 38.0656 126.684 38.0474 126.627 38.0474C126.57 38.0474 126.526 38.0649 126.495 38.0998C126.463 38.1348 126.448 38.183 126.448 38.2445C126.448 38.3053 126.463 38.3542 126.495 38.3912C126.526 38.4282 126.571 38.4467 126.628 38.4467C126.685 38.4467 126.729 38.4282 126.76 38.3912C126.791 38.3542 126.807 38.3053 126.807 38.2445Z" fill="white"/>
<path d="M128.018 39.3501C128.004 39.3229 127.994 39.289 127.987 39.2485C127.914 39.3302 127.819 39.3711 127.701 39.3711C127.59 39.3711 127.498 39.339 127.425 39.2747C127.352 39.2104 127.316 39.1294 127.316 39.0315C127.316 38.9114 127.36 38.8191 127.449 38.7549C127.538 38.6906 127.667 38.6581 127.835 38.6574H127.975V38.5924C127.975 38.54 127.961 38.4981 127.934 38.4667C127.907 38.4352 127.865 38.4195 127.807 38.4195C127.756 38.4195 127.716 38.4317 127.687 38.4562C127.658 38.4806 127.644 38.5142 127.644 38.5568H127.341C127.341 38.4911 127.361 38.4303 127.401 38.3744C127.442 38.3185 127.499 38.2749 127.573 38.2434C127.647 38.2113 127.731 38.1952 127.823 38.1952C127.962 38.1952 128.073 38.2305 128.155 38.3011C128.237 38.3709 128.279 38.4695 128.279 38.5966V39.0881C128.279 39.1957 128.294 39.2771 128.324 39.3323V39.3501H128.018ZM127.767 39.1395C127.812 39.1395 127.853 39.1297 127.891 39.1101C127.929 39.0899 127.957 39.063 127.975 39.0294V38.8345H127.862C127.71 38.8345 127.629 38.8869 127.619 38.9917L127.618 39.0095C127.618 39.0473 127.632 39.0784 127.658 39.1028C127.685 39.1273 127.721 39.1395 127.767 39.1395Z" fill="white"/>
<path d="M129.395 38.7758H129.568V39.02H129.395V39.3501H129.092V39.02H128.466L128.453 38.8293L129.089 37.8242H129.395V38.7758ZM128.754 38.7758H129.092V38.2371L129.072 38.2717L128.754 38.7758Z" fill="white"/>
<path d="M130.553 37.8085V38.0579H130.524C130.387 38.06 130.276 38.0957 130.192 38.1648C130.109 38.234 130.059 38.3301 130.042 38.453C130.124 38.3706 130.226 38.3294 130.35 38.3294C130.482 38.3294 130.588 38.3769 130.666 38.4719C130.744 38.5669 130.783 38.692 130.783 38.8471C130.783 38.9463 130.762 39.0361 130.718 39.1164C130.676 39.1968 130.615 39.2593 130.536 39.304C130.458 39.3487 130.369 39.3711 130.27 39.3711C130.109 39.3711 129.979 39.3152 129.88 39.2034C129.782 39.0916 129.732 38.9425 129.732 38.7559V38.6469C129.732 38.4813 129.763 38.3353 129.826 38.2088C129.888 38.0817 129.978 37.9835 130.095 37.9143C130.212 37.8445 130.348 37.8092 130.503 37.8085H130.553ZM130.257 38.5725C130.208 38.5725 130.164 38.5854 130.124 38.6113C130.084 38.6364 130.055 38.67 130.036 38.7119V38.8041C130.036 38.9054 130.056 38.9847 130.096 39.042C130.136 39.0986 130.192 39.1269 130.264 39.1269C130.329 39.1269 130.381 39.1014 130.421 39.0504C130.461 38.9987 130.482 38.932 130.482 38.8502C130.482 38.7671 130.461 38.7 130.421 38.649C130.38 38.598 130.326 38.5725 130.257 38.5725Z" fill="white"/>
<path d="M132.001 37.994L131.411 39.3501H131.092L131.683 38.0695H130.924V37.8242H132.001V37.994Z" fill="white"/>
<path d="M132.905 38.7402C132.826 38.8177 132.733 38.8565 132.628 38.8565C132.493 38.8565 132.385 38.8104 132.304 38.7182C132.223 38.6253 132.183 38.5002 132.183 38.343C132.183 38.2431 132.204 38.1515 132.248 38.0684C132.292 37.9846 132.353 37.9196 132.431 37.8735C132.509 37.8267 132.597 37.8033 132.695 37.8033C132.796 37.8033 132.885 37.8284 132.963 37.8787C133.042 37.929 133.102 38.0013 133.146 38.0957C133.189 38.19 133.211 38.2979 133.212 38.4195V38.5316C133.212 38.786 133.149 38.9858 133.022 39.1311C132.896 39.2764 132.716 39.354 132.484 39.3638L132.41 39.3648V39.1122L132.477 39.1112C132.74 39.0993 132.883 38.9757 132.905 38.7402ZM132.702 38.6249C132.751 38.6249 132.793 38.6123 132.828 38.5872C132.864 38.562 132.891 38.5316 132.909 38.496V38.3713C132.909 38.2686 132.889 38.1889 132.85 38.1323C132.811 38.0757 132.759 38.0474 132.693 38.0474C132.632 38.0474 132.582 38.0754 132.543 38.1313C132.504 38.1865 132.484 38.256 132.484 38.3398C132.484 38.423 132.503 38.4915 132.541 38.5453C132.579 38.5984 132.633 38.6249 132.702 38.6249Z" fill="white"/>
<path d="M134.379 38.6888H133.776V39.0976H134.484V39.3501H133.461V37.8242H134.482V38.0789H133.776V38.4426H134.379V38.6888Z" fill="white"/>
<path d="M135.631 38.2298C135.631 38.3039 135.612 38.3695 135.575 38.4268C135.538 38.4841 135.487 38.5299 135.422 38.5641C135.496 38.5998 135.555 38.649 135.598 38.7119C135.641 38.7741 135.663 38.8474 135.663 38.932C135.663 39.0675 135.617 39.1748 135.525 39.2537C135.433 39.332 135.307 39.3711 135.148 39.3711C134.99 39.3711 134.864 39.3316 134.771 39.2527C134.678 39.1737 134.632 39.0668 134.632 38.932C134.632 38.8474 134.653 38.7737 134.697 38.7108C134.74 38.648 134.798 38.5991 134.872 38.5641C134.807 38.5299 134.756 38.4841 134.719 38.4268C134.682 38.3695 134.664 38.3039 134.664 38.2298C134.664 38.0998 134.708 37.9964 134.794 37.9196C134.881 37.842 134.999 37.8033 135.147 37.8033C135.296 37.8033 135.413 37.8417 135.5 37.9185C135.587 37.9947 135.631 38.0984 135.631 38.2298ZM135.359 38.91C135.359 38.8436 135.34 38.7905 135.302 38.7507C135.263 38.7108 135.211 38.6909 135.146 38.6909C135.082 38.6909 135.031 38.7108 134.992 38.7507C134.954 38.7898 134.935 38.8429 134.935 38.91C134.935 38.975 134.954 39.0274 134.991 39.0672C135.029 39.107 135.081 39.1269 135.148 39.1269C135.214 39.1269 135.266 39.1077 135.303 39.0693C135.34 39.0308 135.359 38.9777 135.359 38.91ZM135.328 38.2445C135.328 38.1851 135.312 38.1376 135.281 38.1019C135.249 38.0656 135.205 38.0474 135.147 38.0474C135.091 38.0474 135.047 38.0649 135.015 38.0998C134.984 38.1348 134.968 38.183 134.968 38.2445C134.968 38.3053 134.984 38.3542 135.015 38.3912C135.047 38.4282 135.091 38.4467 135.148 38.4467C135.206 38.4467 135.25 38.4282 135.281 38.3912C135.312 38.3542 135.328 38.3053 135.328 38.2445Z" fill="white"/>
<path d="M136.177 38.453H136.338C136.415 38.453 136.472 38.4338 136.509 38.3954C136.546 38.357 136.564 38.306 136.564 38.2424C136.564 38.1809 136.546 38.133 136.509 38.0988C136.473 38.0646 136.422 38.0474 136.358 38.0474C136.3 38.0474 136.251 38.0635 136.212 38.0957C136.173 38.1271 136.154 38.1683 136.154 38.2193H135.851C135.851 38.1397 135.872 38.0684 135.915 38.0055C135.958 37.9419 136.018 37.8923 136.095 37.8567C136.172 37.8211 136.258 37.8033 136.351 37.8033C136.512 37.8033 136.638 37.842 136.73 37.9196C136.822 37.9964 136.867 38.1026 136.867 38.2382C136.867 38.3081 136.846 38.3723 136.803 38.431C136.761 38.4897 136.705 38.5348 136.636 38.5662C136.722 38.597 136.786 38.6431 136.827 38.7046C136.87 38.766 136.891 38.8387 136.891 38.9226C136.891 39.0581 136.842 39.1667 136.743 39.2485C136.644 39.3302 136.513 39.3711 136.351 39.3711C136.198 39.3711 136.074 39.3309 135.976 39.2506C135.88 39.1702 135.832 39.064 135.832 38.932H136.135C136.135 38.9893 136.156 39.0361 136.199 39.0724C136.242 39.1088 136.295 39.1269 136.358 39.1269C136.43 39.1269 136.486 39.1081 136.527 39.0703C136.568 39.0319 136.588 38.9812 136.588 38.9184C136.588 38.766 136.505 38.6899 136.337 38.6899H136.177V38.453Z" fill="white"/>
<path d="M138.139 37.994L137.548 39.3501H137.229L137.82 38.0695H137.061V37.8242H138.139V37.994Z" fill="white"/>
<path d="M139.003 39.3501C138.989 39.3229 138.979 39.289 138.973 39.2485C138.899 39.3302 138.804 39.3711 138.687 39.3711C138.576 39.3711 138.483 39.339 138.41 39.2747C138.337 39.2104 138.301 39.1294 138.301 39.0315C138.301 38.9114 138.345 38.8191 138.434 38.7549C138.524 38.6906 138.652 38.6581 138.821 38.6574H138.96V38.5924C138.96 38.54 138.947 38.4981 138.919 38.4667C138.893 38.4352 138.85 38.4195 138.793 38.4195C138.741 38.4195 138.701 38.4317 138.672 38.4562C138.643 38.4806 138.629 38.5142 138.629 38.5568H138.326C138.326 38.4911 138.346 38.4303 138.387 38.3744C138.427 38.3185 138.485 38.2749 138.559 38.2434C138.633 38.2113 138.716 38.1952 138.808 38.1952C138.948 38.1952 139.059 38.2305 139.14 38.3011C139.223 38.3709 139.264 38.4695 139.264 38.5966V39.0881C139.265 39.1957 139.28 39.2771 139.309 39.3323V39.3501H139.003ZM138.753 39.1395C138.797 39.1395 138.839 39.1297 138.876 39.1101C138.914 39.0899 138.942 39.063 138.96 39.0294V38.8345H138.847C138.695 38.8345 138.615 38.8869 138.605 38.9917L138.604 39.0095C138.604 39.0473 138.617 39.0784 138.644 39.1028C138.67 39.1273 138.707 39.1395 138.753 39.1395Z" fill="white"/>
<path d="M140.519 38.7936C140.519 38.9753 140.48 39.1171 140.402 39.2191C140.325 39.3205 140.216 39.3711 140.077 39.3711C139.954 39.3711 139.856 39.3239 139.783 39.2296L139.769 39.3501H139.497V37.7404H139.8V38.3178C139.87 38.2361 139.961 38.1952 140.075 38.1952C140.214 38.1952 140.322 38.2462 140.4 38.3482C140.479 38.4495 140.519 38.5924 140.519 38.7769V38.7936ZM140.216 38.7716C140.216 38.657 140.198 38.5736 140.161 38.5212C140.125 38.4681 140.071 38.4415 139.999 38.4415C139.902 38.4415 139.836 38.481 139.8 38.5599V39.0074C139.837 39.0871 139.904 39.1269 140.001 39.1269C140.099 39.1269 140.163 39.0787 140.194 38.9823C140.208 38.9362 140.216 38.866 140.216 38.7716Z" fill="white"/>
<path d="M141.688 38.2298C141.688 38.3039 141.67 38.3695 141.633 38.4268C141.596 38.4841 141.545 38.5299 141.48 38.5641C141.554 38.5998 141.612 38.649 141.656 38.7119C141.699 38.7741 141.721 38.8474 141.721 38.932C141.721 39.0675 141.675 39.1748 141.582 39.2537C141.49 39.332 141.365 39.3711 141.206 39.3711C141.048 39.3711 140.922 39.3316 140.829 39.2527C140.736 39.1737 140.689 39.0668 140.689 38.932C140.689 38.8474 140.711 38.7737 140.754 38.7108C140.798 38.648 140.856 38.5991 140.929 38.5641C140.864 38.5299 140.813 38.4841 140.776 38.4268C140.74 38.3695 140.722 38.3039 140.722 38.2298C140.722 38.0998 140.765 37.9964 140.852 37.9196C140.939 37.842 141.056 37.8033 141.205 37.8033C141.353 37.8033 141.471 37.8417 141.557 37.9185C141.645 37.9947 141.688 38.0984 141.688 38.2298ZM141.417 38.91C141.417 38.8436 141.398 38.7905 141.359 38.7507C141.321 38.7108 141.269 38.6909 141.204 38.6909C141.14 38.6909 141.088 38.7108 141.05 38.7507C141.012 38.7898 140.992 38.8429 140.992 38.91C140.992 38.975 141.011 39.0274 141.049 39.0672C141.087 39.107 141.139 39.1269 141.206 39.1269C141.272 39.1269 141.323 39.1077 141.36 39.0693C141.398 39.0308 141.417 38.9777 141.417 38.91ZM141.385 38.2445C141.385 38.1851 141.37 38.1376 141.338 38.1019C141.307 38.0656 141.262 38.0474 141.205 38.0474C141.148 38.0474 141.104 38.0649 141.073 38.0998C141.042 38.1348 141.026 38.183 141.026 38.2445C141.026 38.3053 141.042 38.3542 141.073 38.3912C141.104 38.4282 141.149 38.4467 141.206 38.4467C141.263 38.4467 141.307 38.4282 141.338 38.3912C141.37 38.3542 141.385 38.3053 141.385 38.2445Z" fill="white"/>
<path d="M142.877 38.6888H142.273V39.0976H142.981V39.3501H141.959V37.8242H142.979V38.0789H142.273V38.4426H142.877V38.6888Z" fill="white"/>
<path d="M143.179 38.5998L143.267 37.8242H144.122V38.0768H143.515L143.477 38.4048C143.549 38.3664 143.626 38.3472 143.707 38.3472C143.852 38.3472 143.966 38.3922 144.048 38.4824C144.131 38.5725 144.172 38.6986 144.172 38.8607C144.172 38.9592 144.151 39.0476 144.109 39.1259C144.068 39.2034 144.009 39.2639 143.931 39.3072C143.853 39.3498 143.762 39.3711 143.656 39.3711C143.564 39.3711 143.479 39.3526 143.4 39.3156C143.321 39.2778 143.258 39.2251 143.212 39.1573C143.167 39.0895 143.143 39.0123 143.14 38.9257H143.439C143.446 38.9893 143.468 39.0389 143.506 39.0745C143.544 39.1094 143.594 39.1269 143.655 39.1269C143.724 39.1269 143.777 39.1025 143.814 39.0536C143.851 39.0039 143.869 38.9341 143.869 38.8439C143.869 38.7573 143.848 38.6909 143.805 38.6448C143.763 38.5987 143.702 38.5757 143.624 38.5757C143.552 38.5757 143.494 38.5945 143.449 38.6322L143.42 38.6595L143.179 38.5998Z" fill="white"/>
<path d="M145.393 38.7192C145.393 38.9302 145.349 39.0916 145.262 39.2034C145.175 39.3152 145.047 39.3711 144.878 39.3711C144.712 39.3711 144.585 39.3163 144.497 39.2066C144.409 39.0969 144.364 38.9397 144.362 38.735V38.4541C144.362 38.241 144.406 38.0792 144.494 37.9688C144.583 37.8584 144.71 37.8033 144.876 37.8033C145.043 37.8033 145.17 37.8581 145.258 37.9678C145.346 38.0768 145.391 38.2336 145.393 38.4384V38.7192ZM145.09 38.4111C145.09 38.2846 145.073 38.1928 145.038 38.1355C145.003 38.0775 144.95 38.0485 144.876 38.0485C144.805 38.0485 144.752 38.0761 144.718 38.1313C144.685 38.1858 144.667 38.2714 144.665 38.3881V38.7591C144.665 38.8834 144.681 38.976 144.715 39.0368C144.749 39.0969 144.804 39.1269 144.878 39.1269C144.952 39.1269 145.006 39.0979 145.039 39.0399C145.072 38.9819 145.089 38.8932 145.09 38.7737V38.4111Z" fill="white"/>
</svg>
