<svg width="51" height="38" viewBox="0 0 51 38" fill="none" xmlns="http://www.w3.org/2000/svg">
<path d="M0 31.4403C0 30.7997 0.107477 30.2192 0.322429 29.6991C0.537381 29.1715 0.83294 28.723 1.20911 28.3537C1.59295 27.9843 2.04589 27.7016 2.56792 27.5056C3.09762 27.3021 3.67723 27.2004 4.30673 27.2004C4.9439 27.1928 5.52734 27.2871 6.05705 27.483C6.58675 27.6715 7.04355 27.9504 7.4274 28.3197C7.81124 28.6891 8.11063 29.1338 8.32557 29.6539C8.54054 30.174 8.64801 30.7544 8.64801 31.3951C8.64801 32.0208 8.54054 32.5899 8.32557 33.1024C8.11063 33.615 7.81124 34.056 7.4274 34.4253C7.04355 34.7947 6.58675 35.0849 6.05705 35.2959C5.52734 35.4995 4.9439 35.605 4.30673 35.6125C3.67723 35.6125 3.09762 35.5145 2.56792 35.3185C2.04589 35.115 1.59295 34.8323 1.20911 34.4705C0.83294 34.1012 0.537381 33.6602 0.322429 33.1477C0.107477 32.6351 0 32.066 0 31.4403ZM1.52002 31.3499C1.52002 31.7795 1.58528 32.1753 1.71578 32.5371C1.85397 32.8989 2.04589 33.2117 2.29155 33.4755C2.53721 33.7394 2.82893 33.9467 3.16672 34.0974C3.51217 34.2482 3.89602 34.3235 4.31823 34.3235C4.74047 34.3235 5.12432 34.2482 5.46977 34.0974C5.81522 33.9467 6.11082 33.7394 6.35648 33.4755C6.60213 33.2117 6.79022 32.8989 6.9207 32.5371C7.05889 32.1753 7.12801 31.7795 7.12801 31.3499C7.12801 30.9504 7.05889 30.5773 6.9207 30.2306C6.79022 29.8838 6.60213 29.5823 6.35648 29.326C6.11082 29.0622 5.81522 28.8587 5.46977 28.7155C5.12432 28.5647 4.74047 28.4893 4.31823 28.4893C3.89602 28.4893 3.51217 28.5647 3.16672 28.7155C2.82893 28.8587 2.53721 29.0622 2.29155 29.326C2.04589 29.5823 1.85397 29.8838 1.71578 30.2306C1.58528 30.5773 1.52002 30.9504 1.52002 31.3499Z" fill="#3291E9"/>
<path d="M10.3145 29.9819H11.6272V30.796H11.6502C11.8498 30.4643 12.1185 30.2231 12.4563 30.0723C12.7941 29.9216 13.1587 29.8462 13.5503 29.8462C13.9725 29.8462 14.3525 29.9216 14.6903 30.0723C15.0281 30.2155 15.316 30.4153 15.5539 30.6716C15.7919 30.9279 15.9723 31.2294 16.0952 31.5761C16.218 31.9229 16.2794 32.296 16.2794 32.6955C16.2794 33.095 16.2141 33.4681 16.0837 33.8148C15.9531 34.1616 15.7689 34.4631 15.5309 34.7194C15.3006 34.9757 15.0204 35.1792 14.6903 35.3299C14.3602 35.4731 13.9994 35.5447 13.6078 35.5447C13.3468 35.5447 13.1165 35.5184 12.9169 35.4656C12.7173 35.4128 12.5407 35.345 12.3872 35.2621C12.2337 35.1792 12.1032 35.0925 11.9957 35.002C11.8882 34.904 11.7999 34.8098 11.7309 34.7194H11.6963V37.987H10.3145V29.9819ZM14.8976 32.6955C14.8976 32.4844 14.8592 32.2809 14.7824 32.0849C14.7133 31.8889 14.6058 31.7156 14.46 31.5648C14.3218 31.4141 14.1529 31.2935 13.9533 31.203C13.7537 31.1125 13.5272 31.0673 13.2739 31.0673C13.0206 31.0673 12.7941 31.1125 12.5945 31.203C12.3949 31.2935 12.2222 31.4141 12.0763 31.5648C11.9381 31.7156 11.8307 31.8889 11.7539 32.0849C11.6848 32.2809 11.6502 32.4844 11.6502 32.6955C11.6502 32.9065 11.6848 33.1101 11.7539 33.306C11.8307 33.502 11.9381 33.6754 12.0763 33.8261C12.2222 33.9769 12.3949 34.0975 12.5945 34.1879C12.7941 34.2784 13.0206 34.3236 13.2739 34.3236C13.5272 34.3236 13.7537 34.2784 13.9533 34.1879C14.1529 34.0975 14.3218 33.9769 14.46 33.8261C14.6058 33.6754 14.7133 33.502 14.7824 33.306C14.8592 33.1101 14.8976 32.9065 14.8976 32.6955Z" fill="#3291E9"/>
<path d="M19.0845 33.1703C19.1305 33.5774 19.2917 33.894 19.5681 34.1201C19.8445 34.3462 20.1784 34.4593 20.5699 34.4593C20.9154 34.4593 21.2033 34.3914 21.4336 34.2558C21.6716 34.1126 21.8788 33.9354 22.0554 33.7244L23.0457 34.4593C22.7233 34.8513 22.3625 35.1302 21.9633 35.296C21.5641 35.4618 21.1457 35.5447 20.7081 35.5447C20.2936 35.5447 19.902 35.4769 19.5336 35.3412C19.1651 35.2055 18.8465 35.0133 18.5778 34.7646C18.3091 34.5158 18.0942 34.2181 17.9329 33.8714C17.7794 33.5171 17.7026 33.1251 17.7026 32.6954C17.7026 32.2658 17.7794 31.8776 17.9329 31.5309C18.0942 31.1766 18.3091 30.8751 18.5778 30.6264C18.8465 30.3776 19.1651 30.1854 19.5336 30.0497C19.902 29.914 20.2936 29.8462 20.7081 29.8462C21.092 29.8462 21.4413 29.914 21.756 30.0497C22.0784 30.1779 22.351 30.3663 22.5736 30.615C22.8039 30.8638 22.9805 31.1728 23.1033 31.5422C23.2338 31.904 23.2991 32.3223 23.2991 32.7972V33.1703H19.0845ZM21.9172 32.1527C21.9096 31.7533 21.7829 31.4404 21.5372 31.2143C21.2916 30.9806 20.9499 30.8638 20.5124 30.8638C20.0978 30.8638 19.7677 30.9806 19.522 31.2143C19.284 31.448 19.1382 31.7608 19.0845 32.1527H21.9172Z" fill="#3291E9"/>
<path d="M25.0029 29.9819H26.3157V30.8525H26.3387C26.4692 30.5811 26.6688 30.3475 26.9375 30.1515C27.2062 29.948 27.5708 29.8462 28.0314 29.8462C28.3999 29.8462 28.7109 29.9065 28.9642 30.0271C29.2252 30.1477 29.4363 30.306 29.5975 30.502C29.7587 30.698 29.8739 30.9241 29.943 31.1804C30.0121 31.4367 30.0466 31.7043 30.0466 31.9831V35.4091H28.6648V32.6615C28.6648 32.5108 28.6571 32.345 28.6418 32.1641C28.6264 31.9756 28.5842 31.8023 28.5151 31.6439C28.4537 31.4781 28.3539 31.3425 28.2157 31.2369C28.0775 31.1238 27.8895 31.0673 27.6515 31.0673C27.4211 31.0673 27.2254 31.105 27.0642 31.1804C26.9106 31.2558 26.7801 31.3575 26.6726 31.4857C26.5728 31.6138 26.4999 31.7608 26.4539 31.9266C26.4078 32.0925 26.3847 32.2658 26.3847 32.4467V35.4091H25.0029V29.9819Z" fill="#3291E9"/>
<path d="M36.1486 29.1226C35.9951 28.904 35.7878 28.7457 35.5268 28.6477C35.2735 28.5422 35.0048 28.4894 34.7207 28.4894C34.5519 28.4894 34.3868 28.5082 34.2256 28.5459C34.072 28.5836 33.93 28.6439 33.7995 28.7268C33.6767 28.8098 33.5769 28.9191 33.5001 29.0547C33.4233 29.1829 33.3849 29.3374 33.3849 29.5183C33.3849 29.7897 33.4809 29.997 33.6729 30.1402C33.8648 30.2834 34.1027 30.4078 34.3868 30.5133C34.6708 30.6188 34.9818 30.7206 35.3195 30.8186C35.6573 30.9166 35.9682 31.0522 36.2523 31.2256C36.5363 31.399 36.7743 31.6289 36.9662 31.9153C37.1582 32.2017 37.2541 32.5824 37.2541 33.0573C37.2541 33.4869 37.1735 33.8638 37.0123 34.1879C36.8511 34.5045 36.6323 34.7684 36.3559 34.9794C36.0872 35.1905 35.7725 35.3488 35.4117 35.4543C35.0508 35.5598 34.6708 35.6126 34.2716 35.6126C33.7649 35.6126 33.2775 35.5297 32.8092 35.3639C32.3409 35.198 31.9379 34.9191 31.6001 34.5271L32.694 33.4869C32.8706 33.7508 33.1009 33.9581 33.3849 34.1088C33.6767 34.252 33.9838 34.3236 34.3062 34.3236C34.4751 34.3236 34.644 34.301 34.8129 34.2558C34.9818 34.2106 35.1353 34.1427 35.2735 34.0523C35.4117 33.9618 35.523 33.8487 35.6074 33.7131C35.6918 33.5699 35.7341 33.4078 35.7341 33.2269C35.7341 32.9329 35.6381 32.7068 35.4462 32.5485C35.2543 32.3902 35.0163 32.2583 34.7322 32.1527C34.4482 32.0397 34.1373 31.9342 33.7995 31.8362C33.4617 31.7382 33.1508 31.6063 32.8668 31.4404C32.5827 31.2671 32.3447 31.0409 32.1528 30.762C31.9609 30.4756 31.8649 30.0949 31.8649 29.6201C31.8649 29.2055 31.9494 28.8474 32.1183 28.5459C32.2948 28.2444 32.5213 27.9957 32.7977 27.7997C33.0817 27.5962 33.4042 27.4454 33.7649 27.3474C34.1258 27.2494 34.4942 27.2004 34.8704 27.2004C35.3003 27.2004 35.7149 27.2645 36.1141 27.3927C36.5209 27.5208 36.8856 27.7319 37.2081 28.0258L36.1486 29.1226Z" fill="#3291E9"/>
<path d="M40.1553 33.1703C40.2014 33.5774 40.3626 33.894 40.6389 34.1201C40.9154 34.3462 41.2492 34.4593 41.6409 34.4593C41.986 34.4593 42.2741 34.3914 42.5046 34.2558C42.7425 34.1126 42.9497 33.9354 43.1264 33.7244L44.1166 34.4593C43.7943 34.8513 43.4332 35.1302 43.0342 35.296C42.6347 35.4618 42.2165 35.5447 41.7788 35.5447C41.3642 35.5447 40.973 35.4769 40.6044 35.3412C40.2359 35.2055 39.9173 35.0133 39.6486 34.7646C39.3799 34.5158 39.165 34.2181 39.0038 33.8714C38.8502 33.5171 38.7734 33.1251 38.7734 32.6954C38.7734 32.2658 38.8502 31.8776 39.0038 31.5309C39.165 31.1766 39.3799 30.8751 39.6486 30.6264C39.9173 30.3776 40.2359 30.1854 40.6044 30.0497C40.973 29.914 41.3642 29.8462 41.7788 29.8462C42.1627 29.8462 42.5119 29.914 42.8269 30.0497C43.1492 30.1779 43.4218 30.3663 43.6445 30.615C43.8747 30.8638 44.0513 31.1728 44.1741 31.5422C44.3047 31.904 44.37 32.3223 44.37 32.7972V33.1703H40.1553ZM42.9881 32.1527C42.9803 31.7533 42.8538 31.4404 42.6082 31.2143C42.3622 30.9806 42.0207 30.8638 41.5833 30.8638C41.1688 30.8638 40.8383 30.9806 40.5929 31.2143C40.3549 31.448 40.209 31.7608 40.1553 32.1527H42.9881Z" fill="#3291E9"/>
<path d="M49.528 34.6628H49.4938C49.2938 34.9719 49.0405 35.198 48.7337 35.3412C48.4264 35.4769 48.0886 35.5447 47.7202 35.5447C47.4668 35.5447 47.2175 35.5108 46.9719 35.443C46.7336 35.3751 46.5186 35.2734 46.3269 35.1377C46.1425 35.002 45.9927 34.8324 45.8777 34.6289C45.7626 34.4254 45.7051 34.1879 45.7051 33.9166C45.7051 33.6226 45.7589 33.3738 45.8662 33.1703C45.9735 32.9593 46.1159 32.7859 46.2922 32.6502C46.4766 32.507 46.6875 32.394 46.9258 32.311C47.1637 32.2281 47.4093 32.1678 47.6627 32.1301C47.9238 32.0849 48.1845 32.0585 48.4456 32.051C48.7067 32.0359 48.9523 32.0284 49.1825 32.0284H49.528V31.8814C49.528 31.5422 49.4093 31.2897 49.171 31.1238C48.9332 30.9505 48.63 30.8638 48.2616 30.8638C47.9699 30.8638 47.6973 30.9166 47.444 31.0221C47.1906 31.1201 46.9719 31.2558 46.7875 31.4291L46.0621 30.7168C46.3689 30.4078 46.7259 30.1854 47.1331 30.0497C47.5476 29.914 47.9736 29.8462 48.4109 29.8462C48.8026 29.8462 49.1327 29.8914 49.4016 29.9819C49.67 30.0648 49.8928 30.1741 50.0694 30.3098C50.2457 30.4454 50.3803 30.6037 50.4725 30.7846C50.5721 30.958 50.6415 31.1352 50.6798 31.3161C50.7255 31.497 50.7524 31.6741 50.7602 31.8475C50.7679 32.0133 50.7716 32.1603 50.7716 32.2884V35.409H49.528V34.6628ZM49.4477 32.9781H49.1596C48.9678 32.9781 48.7528 32.9857 48.515 33.0007C48.2767 33.0158 48.0503 33.0535 47.8352 33.1138C47.628 33.1666 47.4513 33.2495 47.3057 33.3626C47.1596 33.4681 47.087 33.6188 47.087 33.8148C47.087 33.943 47.1139 34.0522 47.1673 34.1427C47.229 34.2256 47.3057 34.2972 47.3979 34.3575C47.4901 34.4178 47.5937 34.4631 47.7088 34.4932C47.8238 34.5158 47.9389 34.5271 48.0543 34.5271C48.5301 34.5271 48.8793 34.4178 49.1021 34.1992C49.3322 33.9731 49.4477 33.6678 49.4477 33.2834V32.9781Z" fill="#3291E9"/>
<path d="M13.4639 11.6C13.4639 5.1935 18.7613 0 25.2959 0C31.8306 0 37.1279 5.1935 37.1279 11.6C37.1279 18.0065 31.8306 23.2 25.2959 23.2C18.7613 23.2 13.4639 18.0065 13.4639 11.6Z" fill="#3291E9"/>
<path d="M13.4639 11.6C13.4639 5.1935 18.7613 0 25.2959 0C31.8306 0 37.1279 5.1935 37.1279 11.6C37.1279 18.0065 31.8306 23.2 25.2959 23.2C18.7613 23.2 13.4639 18.0065 13.4639 11.6Z" fill="url(#paint0_linear)"/>
<g opacity="0.5">
<path opacity="0.5" fill-rule="evenodd" clip-rule="evenodd" d="M32.9739 2.8208C32.5149 3.29307 31.9492 3.75498 31.2695 4.19888C28.9921 5.68628 27.1749 7.8112 27.1242 12.0568C27.0681 16.7591 29.2382 19.1004 31.8098 21.2512C29.9364 22.4822 27.6845 23.2 25.2622 23.2C18.7462 23.2 13.4639 18.0065 13.4639 11.6C13.4639 5.19352 18.7462 0 25.2622 0C28.2103 0 30.9059 1.06318 32.9739 2.8208Z" fill="#3291E9"/>
<path opacity="0.5" fill-rule="evenodd" clip-rule="evenodd" d="M32.9739 2.8208C32.5149 3.29307 31.9492 3.75498 31.2695 4.19888C28.9921 5.68628 27.1749 7.8112 27.1242 12.0568C27.0681 16.7591 29.2382 19.1004 31.8098 21.2512C29.9364 22.4822 27.6845 23.2 25.2622 23.2C18.7462 23.2 13.4639 18.0065 13.4639 11.6C13.4639 5.19352 18.7462 0 25.2622 0C28.2103 0 30.9059 1.06318 32.9739 2.8208Z" fill="url(#paint1_linear)"/>
</g>
<g opacity="0.5">
<path opacity="0.5" fill-rule="evenodd" clip-rule="evenodd" d="M28.2137 0.365918C27.898 1.20708 27.3501 2.09624 26.5395 3.01382C24.7466 5.04332 23.5695 7.56708 24.6671 11.6724C26.0548 16.8627 29.407 18.3299 32.9803 19.894C33.1007 19.9467 33.2215 19.9996 33.3424 20.0527C31.2311 22.0043 28.3887 23.2 25.2622 23.2C18.7462 23.2 13.4639 18.0065 13.4639 11.6C13.4639 5.19352 18.7462 0 25.2622 0C26.2814 0 27.2704 0.127051 28.2137 0.365918Z" fill="#3291E9"/>
<path opacity="0.5" fill-rule="evenodd" clip-rule="evenodd" d="M28.2137 0.365918C27.898 1.20708 27.3501 2.09624 26.5395 3.01382C24.7466 5.04332 23.5695 7.56708 24.6671 11.6724C26.0548 16.8627 29.407 18.3299 32.9803 19.894C33.1007 19.9467 33.2215 19.9996 33.3424 20.0527C31.2311 22.0043 28.3887 23.2 25.2622 23.2C18.7462 23.2 13.4639 18.0065 13.4639 11.6C13.4639 5.19352 18.7462 0 25.2622 0C26.2814 0 27.2704 0.127051 28.2137 0.365918Z" fill="url(#paint2_linear)"/>
</g>
<g opacity="0.3">
<path opacity="0.3" fill-rule="evenodd" clip-rule="evenodd" d="M14.2988 7.30542C14.3365 7.45698 14.3782 7.61055 14.424 7.76616C15.942 12.9208 20.1747 14.1456 24.6868 15.4513C27.8415 16.3642 31.1327 17.3166 33.7282 19.6793C31.5841 21.8508 28.5834 23.2001 25.2622 23.2001C18.7462 23.2001 13.4639 18.0065 13.4639 11.6001C13.4639 10.0829 13.7601 8.63369 14.2988 7.30542Z" fill="#3291E9"/>
<path opacity="0.3" fill-rule="evenodd" clip-rule="evenodd" d="M14.2988 7.30542C14.3365 7.45698 14.3782 7.61055 14.424 7.76616C15.942 12.9208 20.1747 14.1456 24.6868 15.4513C27.8415 16.3642 31.1327 17.3166 33.7282 19.6793C31.5841 21.8508 28.5834 23.2001 25.2622 23.2001C18.7462 23.2001 13.4639 18.0065 13.4639 11.6001C13.4639 10.0829 13.7601 8.63369 14.2988 7.30542Z" fill="url(#paint3_linear)"/>
</g>
<path d="M25.2452 20.0426C29.949 20.0426 33.7622 16.2934 33.7622 11.6686C33.7622 7.04383 29.949 3.29468 25.2452 3.29468C20.5413 3.29468 16.728 7.04383 16.728 11.6686C16.728 16.2934 20.5413 20.0426 25.2452 20.0426Z" fill="white"/>
<path d="M25.7047 7.50928V8.03343L25.1284 7.95727V7.50928C25.2146 7.55856 25.3099 7.58544 25.4143 7.58544C25.5187 7.58544 25.6185 7.55856 25.7047 7.50928Z" fill="#24D7D0"/>
<path d="M25.6857 13.042V14.3412H25.1094V13.0375C25.2863 13.0285 25.4815 13.0285 25.6857 13.042Z" fill="#24D7D0"/>
<path d="M25.9716 7.02086C25.9716 7.23141 25.8582 7.41509 25.6857 7.51365C25.5995 7.56293 25.5042 7.58981 25.3999 7.58981C25.2955 7.58981 25.1957 7.56293 25.114 7.51365C24.9416 7.41509 24.8281 7.23141 24.8281 7.02086C24.8281 6.70726 25.0868 6.4519 25.4044 6.4519C25.722 6.4519 25.9716 6.70726 25.9716 7.02086Z" fill="#14869F"/>
<path d="M23.9484 10.139V12.603C23.9484 12.6388 23.9212 12.6657 23.8849 12.6657H21.5661C21.5208 12.6657 21.489 12.6209 21.5071 12.5761L22.6869 9.59247C22.7005 9.55663 22.7414 9.54319 22.7731 9.55663L23.9121 10.0808C23.9348 10.0897 23.9484 10.1166 23.9484 10.139Z" fill="#1EB6D1"/>
<path d="M26.3079 10.8919C26.1582 11.2368 25.9449 11.5594 25.7044 11.8551C25.5275 12.0701 25.3324 12.2717 25.1282 12.4554C24.8882 12.6756 24.6444 12.8727 24.4075 13.0431C24.3769 13.0652 24.3283 13.0518 24.3477 13.0198C24.4611 12.7824 24.6835 12.1328 24.6426 10.7306C24.5973 9.21188 24.0573 8.22629 23.8485 7.90373C23.8168 7.85893 23.8576 7.8007 23.9121 7.80518L25.1282 7.96197L25.7044 8.03813L26.5394 8.14565C26.5491 8.14565 26.5543 8.15405 26.5572 8.16319C26.6011 8.30226 26.9309 9.4525 26.3079 10.8919Z" fill="#6BD9FC"/>
<path d="M28.1368 11.295C28.1368 13.302 27.4153 13.4947 27.2338 13.638C27.2066 13.6559 27.1703 13.6559 27.1476 13.6335C27.0251 13.5171 26.7029 13.1721 25.9905 13.0735C25.8952 13.0601 25.7999 13.0511 25.7046 13.0422C25.505 13.0287 25.3099 13.0287 25.1283 13.0332C24.8198 13.0467 24.5657 13.0825 24.4159 13.1049C24.3764 13.1114 24.3791 13.0593 24.4113 13.036C24.487 12.9811 24.5626 12.9235 24.6383 12.863C24.6655 12.8406 24.6927 12.8227 24.72 12.8003C24.8561 12.6928 24.9922 12.5763 25.1283 12.4509C25.1556 12.4285 25.1828 12.4016 25.2055 12.3792C25.2282 12.3568 25.2509 12.3344 25.2781 12.312C25.2881 12.3021 25.2981 12.2936 25.3074 12.2849C25.3221 12.2711 25.3346 12.2568 25.3484 12.242C25.3622 12.2272 25.3761 12.2108 25.3904 12.1965C25.4104 12.1765 25.4305 12.1559 25.4505 12.1328C25.4732 12.1104 25.4914 12.088 25.514 12.0656C25.5367 12.0432 25.5594 12.0163 25.5776 11.9939C25.6184 11.9491 25.6593 11.8998 25.7001 11.8505C25.7182 11.8237 25.7409 11.8013 25.7591 11.7744C25.7772 11.7475 25.7999 11.7251 25.8181 11.6982C25.8362 11.6713 25.8544 11.6489 25.8725 11.6221C25.8907 11.5952 25.9088 11.5728 25.927 11.5459C25.936 11.5325 25.9497 11.5145 25.9587 11.5011C25.9723 11.4832 25.9814 11.4653 25.995 11.4473C26.0223 11.407 26.0495 11.3667 26.0722 11.3264C26.0813 11.3085 26.0949 11.2905 26.1039 11.2726C26.1227 11.2356 26.1473 11.2015 26.1657 11.1642C26.1663 11.163 26.1669 11.1618 26.1675 11.1606C26.2038 11.0979 26.2355 11.0307 26.2673 10.968C26.2809 10.9411 26.2945 10.9142 26.3036 10.8874C26.9346 9.42934 26.5881 8.26798 26.5472 8.14976C26.5457 8.14548 26.5487 8.14123 26.5519 8.14443C26.5524 8.14491 26.5533 8.14568 26.5539 8.146C26.7031 8.2214 28.1368 9.46128 28.1368 11.295Z" fill="#1EB6D1"/>
<path d="M30.7321 13.2301C30.7321 13.2839 30.7003 13.3376 30.6459 13.3645C30.0067 13.6675 29.6081 14.2892 29.3735 14.9462C29.2675 15.2432 29.1313 15.526 28.9688 15.7914C28.8628 15.9644 28.6595 16.0737 28.4724 15.9897L28.182 15.8643C27.9642 15.7702 27.7282 15.7702 27.5104 15.8643L27.22 15.9897C27.0022 16.0838 26.7662 16.0838 26.5484 15.9897L26.258 15.8643C26.0402 15.7702 25.8042 15.7702 25.5864 15.8643L25.296 15.9897C25.0782 16.0838 24.8422 16.0838 24.6245 15.9897L24.334 15.8643C24.1162 15.7702 23.8803 15.7702 23.6625 15.8643L23.3721 15.9897C23.1543 16.0838 22.9138 16.0838 22.7005 15.9897L22.4101 15.8643C22.1923 15.7702 21.9518 15.7702 21.7385 15.8643L21.4708 15.9808C21.3438 16.0356 21.2002 15.9735 21.1249 15.8591C20.6603 15.153 20.3999 14.3204 20.3999 13.4272C20.3999 13.3645 20.3999 13.3018 20.4044 13.2391C20.4044 13.2032 20.4362 13.1763 20.468 13.1763H22.9274C22.9637 13.1763 22.9909 13.2032 22.9909 13.2391V13.5482C22.9909 13.9827 23.3494 14.3366 23.7895 14.3366H27.2835C27.6692 14.3366 27.9869 14.0679 28.064 13.7139C28.0685 13.6871 28.0958 13.6647 28.1275 13.6647C28.904 13.6647 29.6705 13.4928 30.3698 13.1619L30.5098 13.0957C30.5598 13.071 30.6185 13.0782 30.662 13.1085C30.7019 13.1364 30.7321 13.1821 30.7321 13.2301Z" fill="#14869F"/>
<defs>
<linearGradient id="paint0_linear" x1="-74.2051" y1="-17.7146" x2="-78.3897" y2="8.58488" gradientUnits="userSpaceOnUse">
<stop offset="0.048" stop-color="#1F66A9"/>
<stop offset="0.685348" stop-color="#3291E9"/>
</linearGradient>
<linearGradient id="paint1_linear" x1="32.3718" y1="-1.24083" x2="3.03161" y2="-1.59114" gradientUnits="userSpaceOnUse">
<stop stop-color="#E9A332" stop-opacity="0"/>
<stop offset="0.0001" stop-color="#23DC7D" stop-opacity="0"/>
<stop offset="1" stop-color="#23DC7D"/>
</linearGradient>
<linearGradient id="paint2_linear" x1="23.4152" y1="-11.7838" x2="-4.89296" y2="-4.21534" gradientUnits="userSpaceOnUse">
<stop stop-color="#E9A332" stop-opacity="0"/>
<stop offset="0.0001" stop-color="#23DC7D" stop-opacity="0"/>
<stop offset="1" stop-color="#23DC7D"/>
</linearGradient>
<linearGradient id="paint3_linear" x1="2.69744" y1="46.6521" x2="40.3082" y2="51.8661" gradientUnits="userSpaceOnUse">
<stop stop-color="#23DC7D"/>
<stop offset="1" stop-color="#23DC7D" stop-opacity="0"/>
</linearGradient>
</defs>
</svg>
