<svg width="82" height="22" fill="none" xmlns="http://www.w3.org/2000/svg"><g clip-path="url(#clip0_454_3376)" fill="#fff"><path fill-rule="evenodd" clip-rule="evenodd" d="M10.518.652v20.693C5.173 21.345.648 16.61.648 11S5.172.652 10.517.652z"/><path d="M47.52 12.057l-2.25-5.97h-4.039l4.352 10.057-1.811 4.878h3.56l5.83-14.934h-3.56l-2.082 5.97zM81.402 9.404c-.25-2.675-2.124-3.616-4.81-3.616-2.52 0-4.664 1.198-4.664 3.68 0 2.332 1.228 3.21 4.143 3.595 1.5.214 2.02.47 2.02 1.005 0 .557-.416.92-1.333.92-1.062 0-1.416-.449-1.54-1.262h-3.436c.083 2.482 1.895 3.809 4.997 3.809 3.02 0 4.935-1.199 4.935-3.852 0-2.396-1.458-3.21-4.477-3.594-1.332-.172-1.832-.385-1.832-.92 0-.514.416-.878 1.228-.878.854 0 1.25.364 1.395 1.113h3.374zM70.679 17.278V6.088h-3.727v11.19h3.727zM70.866 3.05c0-1.135-.895-1.99-2.061-1.99s-2.04.855-2.04 1.99c0 1.133.874 1.968 2.04 1.968s2.061-.835 2.061-1.969z"/><path fill-rule="evenodd" clip-rule="evenodd" d="M24.92 5.788c2.54 0 4.602 1.968 4.602 5.798v.172c0 3.85-2.062 5.777-4.623 5.777-1.645 0-2.832-.792-3.373-1.905v5.392h-3.727V6.088h3.727v1.668c.625-1.07 1.749-1.968 3.394-1.968zm-3.498 5.777c0-1.883.812-2.889 2.165-2.889 1.312 0 2.145.942 2.145 2.91v.172c0 1.84-.75 2.845-2.145 2.845-1.353 0-2.165-.963-2.165-2.867v-.17zM36.037 5.788c2.998 0 4.914 1.262 4.914 4.236v7.254h-3.623v-1.305c-.52.813-1.478 1.562-3.227 1.562-1.958 0-3.686-.985-3.686-3.36 0-2.631 2.166-3.659 5.788-3.659h1.042v-.256c0-1.07-.25-1.776-1.437-1.776-1.02 0-1.395.62-1.478 1.326H30.83c.167-2.696 2.228-4.022 5.206-4.022zm.229 6.89h.979v.684c0 .963-.792 1.584-1.853 1.584-.875 0-1.291-.407-1.291-1.049 0-.92.666-1.22 2.165-1.22zM57.838 1.166v6.59c.625-1.07 1.75-1.968 3.394-1.968 2.54 0 4.602 1.968 4.602 5.798v.172c0 3.85-2.062 5.777-4.623 5.777-1.624 0-2.832-.792-3.373-1.99v1.733h-3.727V1.166h3.727zm-.104 10.4c0-1.884.812-2.89 2.165-2.89 1.312 0 2.145.942 2.145 2.91v.172c0 1.84-.75 2.845-2.145 2.845-1.353 0-2.165-.963-2.165-2.867v-.17z"/></g><defs><clipPath id="clip0_454_3376"><path fill="#fff" d="M0 0h81.714v22H0z"/></clipPath></defs></svg>