<svg width="800" height="800" viewBox="0 0 800 800" fill="none" xmlns="http://www.w3.org/2000/svg">
<path d="M679.191 736H120.808C89.4038 736 64 711 64 680.1V119.9C64 89 89.4038 64 120.808 64H679.191C710.596 64 736 89 736 119.9V680.2C736.1 710.9 710.596 736 679.191 736Z" fill="url(#paint0_linear)"/>
<mask id="mask0" mask-type="alpha" maskUnits="userSpaceOnUse" x="64" y="64" width="672" height="672">
<rect x="64" y="64" width="672" height="672" rx="54" fill="url(#paint1_linear)"/>
</mask>
<g mask="url(#mask0)">
<path d="M736 471V680.079C736 710.991 710.991 736 680.079 736H471L736 471Z" fill="#2970E2"/>
<path d="M291.262 470.9L486.262 268.2C501.162 253.3 524.462 254.4 539.962 269.9L652.662 378.5C664.562 390 664.362 412.8 653.262 425C638.862 439.4 622.562 440.5 600.562 425.5L518.862 337L313.562 532.4C299.862 543 285.762 552 264.162 538.2C256.762 528.2 271.462 508.7 265.662 502.9L291.262 470.9Z" fill="#D1D9E6"/>
<path d="M282.363 538.9C265.663 538.4 252.663 527.5 252.663 514.6L253.663 282.9C253.663 270.1 265.663 254.5 282.363 254C304.563 254 314.263 271.9 314.263 285.3V515.3C314.263 528.6 299.863 539.4 282.363 538.9Z" fill="#D1D9E6"/>
<path d="M509.862 545.3C489.162 545.3 480.562 530 480.562 517.9V305.4C480.562 293.4 493.362 278.8 509.862 278.3C527.162 277.8 541.463 292.3 541.463 304.8V515C541.363 529.8 531.162 545.3 509.862 545.3Z" fill="#D1D9E6"/>
<path d="M275.463 541.5C262.663 541 252.663 530.1 252.663 517.2V285.5C252.663 272.7 262.663 257.1 275.463 256.6C288.863 256.1 299.963 271.5 299.963 284.9V517.9C299.963 531.2 288.863 542 275.463 541.5Z" fill="white"/>
<path d="M503.363 543.9C490.363 543.9 479.663 528.7 479.663 515.6V287.2C479.663 274.2 490.263 263.5 503.363 263.5C516.463 263.5 527.063 274.1 527.063 287.2V515.6C526.963 528.6 516.463 543.9 503.363 543.9Z" fill="white"/>
<path d="M276.363 539.2C268.663 539.2 260.863 536.2 255.163 530.3L147.763 422.6C136.063 410.8 136.063 391.9 147.863 380.1C159.663 368.4 178.563 368.4 190.363 380.2L276.863 467.2L483.763 270.2C495.463 259.1 513.663 259.1 525.263 270.3L637.863 378.9C649.763 390.4 650.062 409.4 638.663 421.4C627.263 433.4 608.163 433.6 596.163 422.2L504.163 333.6L296.963 530.9C291.263 536.5 283.763 539.2 276.363 539.2Z" fill="white"/>
<path d="M482.662 371.4L469.562 383.8C469.562 383.8 473.262 363.2 462.662 373.2C452.062 383.3 478.962 347.7 478.962 347.7L484.462 354.6L482.662 371.4Z" fill="white"/>
<path d="M526.963 368.2C526.963 368.2 527.663 355.6 541.363 377.2V360.2L526.463 352.5L526.963 368.2Z" fill="white"/>
<path d="M300.063 428C300.063 428 302.063 442.1 314.363 423.9V440.9L299.463 448.6L300.063 428Z" fill="white"/>
</g>
<defs>
<linearGradient id="paint0_linear" x1="44.3658" y1="123.52" x2="758.703" y2="678.953" gradientUnits="userSpaceOnUse">
<stop offset="0.1304" stop-color="#3495F7"/>
<stop offset="0.3063" stop-color="#2B87F2"/>
<stop offset="0.6392" stop-color="#1461E5"/>
<stop offset="0.7232" stop-color="#0E57E1"/>
</linearGradient>
<linearGradient id="paint1_linear" x1="44.3658" y1="123.52" x2="758.703" y2="678.953" gradientUnits="userSpaceOnUse">
<stop offset="0.1304" stop-color="#3495F7"/>
<stop offset="0.3063" stop-color="#2B87F2"/>
<stop offset="0.6392" stop-color="#1461E5"/>
<stop offset="0.7232" stop-color="#0E57E1"/>
</linearGradient>
</defs>
</svg>
