<?xml version="1.0" encoding="UTF-8"?>
<svg width="40px" height="40px" viewBox="0 0 40 40" version="1.1" xmlns="http://www.w3.org/2000/svg" xmlns:xlink="http://www.w3.org/1999/xlink">
    <!-- Generator: Sketch 60.1 (88133) - https://sketch.com -->
    <title>Group 2</title>
    <desc>Created with Sketch.</desc>
    <defs>
        <rect id="path-1" x="0" y="0" width="27" height="7.82514"></rect>
    </defs>
    <g id="Icons" stroke="none" stroke-width="1" fill="none" fill-rule="evenodd">
        <g id="More-Icons" transform="translate(-158.000000, -175.000000)">
            <g id="Group-2" transform="translate(158.000000, 175.000000)">
                <circle id="Oval" fill="#F6F5F7" cx="20" cy="20" r="20"></circle>
                <g id="moon-pay-logo.90c07828" transform="translate(7.000000, 16.000000)">
                    <mask id="mask-2" fill="white">
                        <use xlink:href="#path-1"></use>
                    </mask>
                    <g id="Rectangle"></g>
                    <g id="custom_1" mask="url(#mask-2)">
                        <g transform="translate(-0.054000, -0.054000)" id="Group_61">
                            <g transform="translate(0.022194, 0.039096)">
                                <ellipse id="Ellipse_1" fill="#000000" fill-rule="nonzero" transform="translate(3.486780, 4.385178) rotate(90.000000) translate(-3.486780, -4.385178) " cx="3.48678" cy="4.385178" rx="3.455028" ry="3.454974"></ellipse>
                                <circle id="Ellipse_155" fill="#000000" fill-rule="nonzero" transform="translate(7.376670, 0.952938) rotate(90.000000) translate(-7.376670, -0.952938) " cx="7.37667" cy="0.952938" r="1"></circle>
                                <g id="Group_2" transform="translate(8.539290, 2.964438)" fill="#000000" fill-rule="nonzero">
                                    <path d="M0,3.139938 L0.564408,3.139938 L0.904608,1.373382 C0.95202,1.12347 1.003698,0.727056 1.003698,0.727056 L1.012338,0.727056 C1.012338,0.727056 1.016658,1.093284 1.033938,1.32165 L1.180548,3.139938 L1.766502,3.139938 L2.615328,1.317438 C2.735964,1.05894 2.86956,0.727164 2.86956,0.727164 L2.8782,0.727164 C2.8782,0.727164 2.77911,1.106352 2.727378,1.37349 L2.387178,3.140046 L2.96028,3.140046 L3.554604,0.059238 L2.667006,0.059238 L1.925964,1.657638 C1.74933,2.041038 1.611414,2.454732 1.611414,2.454732 L1.607094,2.454732 C1.607094,2.454732 1.602774,2.01096 1.568322,1.579932 L1.452006,0.059238 L0.594594,0.059238 L0,3.139938 Z M4.416336,3.204738 C5.170338,3.204738 5.644296,2.584278 5.644296,1.877688 C5.644296,1.222776 5.187564,0.869454 4.623156,0.869454 C3.869154,0.869454 3.37797,1.476954 3.37797,2.174958 C3.37797,2.851038 3.838968,3.204576 4.416336,3.204576 L4.416336,3.204738 Z M3.955284,2.209248 C3.955284,1.782648 4.149144,1.304424 4.59297,1.304424 C4.93317,1.304424 5.066928,1.571562 5.066928,1.860246 C5.066928,2.282472 4.877334,2.76939 4.429242,2.76939 C4.08888,2.76939 3.955284,2.510838 3.955284,2.209248 Z M6.704154,3.204576 C7.458156,3.204576 7.932114,2.584116 7.932114,1.877526 C7.932114,1.222614 7.475382,0.869292 6.910974,0.869292 C6.15708,0.869238 5.66568,1.476792 5.66568,2.174796 C5.66568,2.851038 6.12684,3.204576 6.704208,3.204576 L6.704154,3.204576 Z M6.243156,2.209248 C6.243156,1.782648 6.437016,1.304424 6.880842,1.304424 C7.221042,1.304424 7.3548,1.571562 7.3548,1.860246 C7.3548,2.282472 7.165206,2.76939 6.717114,2.76939 C6.376752,2.76939 6.243156,2.510838 6.243156,2.209248 L6.243156,2.209248 Z M8.841258,0.929448 L8.27685,0.929448 L7.85025,3.139776 L8.427618,3.139776 L8.660304,1.933362 C8.720622,1.610226 8.914536,1.360314 9.18594,1.360314 C9.431532,1.360314 9.543582,1.519722 9.48753,1.812726 L9.229032,3.139938 L9.8064,3.139938 L10.073538,1.744038 C10.172628,1.226988 9.91845,0.869238 9.478944,0.869238 C9.164394,0.869238 8.97912,1.0071 8.78958,1.278558 L8.776674,1.278558 L8.841258,0.929448 Z M10.077858,3.139776 L10.715544,3.139776 L10.93068,2.023974 L11.680362,2.023974 C12.369726,2.023974 12.839364,1.62756 12.839364,0.968328 C12.839364,0.39096 12.44727,0.059184 11.856996,0.059184 L10.672398,0.059184 L10.077858,3.139776 Z M11.206458,0.597672 L11.775186,0.597672 C12.05523,0.597672 12.201786,0.748494 12.201786,0.998352 C12.201786,1.36458 11.938968,1.519722 11.650284,1.519722 L11.03004,1.519722 L11.206458,0.597672 Z M13.946958,3.139938 L14.49414,3.139938 L14.49414,3.118338 C14.459688,3.06666 14.446728,2.96325 14.476914,2.812428 L14.68368,1.75257 C14.804316,1.110564 14.390676,0.873612 13.843494,0.873612 C13.274766,0.873612 12.925494,1.14939 12.85254,1.601802 L13.36959,1.601802 C13.421268,1.382076 13.58073,1.287252 13.822002,1.287252 C14.041728,1.287252 14.166684,1.373652 14.166684,1.532844 C14.166684,1.75257 14.007276,1.769796 13.593636,1.804302 C13.05504,1.847502 12.589722,1.955124 12.589722,2.541078 C12.589722,2.99781 12.951522,3.19167 13.292046,3.19167 C13.610646,3.19167 13.77459,3.040848 13.908186,2.898666 L13.916826,2.898666 C13.908321,2.9803357 13.9186283,3.06286851 13.946958,3.139938 Z M13.145544,2.489238 C13.145544,2.187648 13.451454,2.200554 13.662594,2.161782 C13.8075218,2.1425065 13.949405,2.10485364 14.08482,2.049732 L14.015862,2.398734 C13.972662,2.601234 13.77891,2.79082808 13.477266,2.79082808 C13.28346,2.790936 13.145544,2.687526 13.145544,2.489238 Z M14.49846,3.863808 L14.86026,3.863808 C15.28686,3.863808 15.4764,3.69144 15.696126,3.247668 L16.83828,0.92961 L16.252056,0.92961 L15.795324,1.933524 C15.700554,2.140344 15.592824,2.433348 15.592824,2.433348 L15.584184,2.433348 C15.584184,2.433348 15.549732,2.136024 15.519384,1.933524 L15.368562,0.92961 L14.765382,0.92961 L15.083982,2.502252 C15.1236234,2.66480748 15.1481359,2.83068279 15.157206,2.997756 C15.157206,3.273534 15.019344,3.407076 14.773806,3.407076 L14.588532,3.407076 L14.49846,3.863808 Z" id="Path_32"></path>
                                    <path d="M17.087922,0.130356 L17.309808,0.130356 L17.185932,0.770148 L17.339994,0.770148 L17.46387,0.130356 L17.686836,0.130356 L17.711622,-2.22044605e-16 L17.112708,-2.22044605e-16 L17.087922,0.130356 Z M17.603892,0.770148 L17.744994,0.770148 L17.830098,0.328536 C17.841924,0.266058 17.854884,0.166968 17.854884,0.166968 L17.857044,0.166968 C17.857044,0.166968 17.858124,0.258768 17.862444,0.31563 L17.899056,0.770202 L18.045558,0.770202 L18.257778,0.31455 C18.287964,0.24975 18.321336,0.166968 18.321336,0.166968 L18.323496,0.166968 C18.323496,0.166968 18.29871,0.261738 18.285696,0.328536 L18.200592,0.770148 L18.343854,0.770148 L18.492516,4.93038066e-32 L18.270522,4.93038066e-32 L18.085248,0.3996 C18.041076,0.49545 18.006624,0.59886 18.006624,0.59886 L18.005922,0.59886 C18.005922,0.59886 18.004842,0.48789 17.996202,0.380214 L17.967096,4.93038066e-32 L17.752716,4.93038066e-32 L17.603892,0.770148 Z" id="Path_33"></path>
                                </g>
                            </g>
                        </g>
                    </g>
                </g>
            </g>
        </g>
    </g>
</svg>