<svg width="40" height="40" viewBox="0 0 40 40" fill="none" xmlns="http://www.w3.org/2000/svg">
<path fill-rule="evenodd" clip-rule="evenodd" d="M20 40C31.0457 40 40 31.0457 40 20C40 8.9543 31.0457 0 20 0C8.9543 0 0 8.9543 0 20C0 31.0457 8.9543 40 20 40Z" fill="#F6F5F7"/>
<path d="M19.5 33C16.1583 33 13.0263 31.6997 10.6633 29.3367C8.30034 26.9737 7 23.8417 7 20.5C7 17.1583 8.30034 14.0263 10.6633 11.6633C13.0263 9.30033 16.1583 8 19.5 8C22.8417 8 25.9738 9.30033 28.3367 11.6633C30.6996 14.0263 32 17.1583 32 20.5C32 23.8417 30.6996 26.9737 28.3367 29.3367C25.9738 31.6997 22.8417 33 19.5 33Z" fill="black"/>
<mask id="mask0" mask-type="alpha" maskUnits="userSpaceOnUse" x="7" y="8" width="25" height="25">
<path d="M19.5 33C16.1583 33 13.0263 31.6997 10.6633 29.3367C8.30034 26.9737 7 23.8417 7 20.5C7 17.1583 8.30034 14.0263 10.6633 11.6633C13.0263 9.30033 16.1583 8 19.5 8C22.8417 8 25.9738 9.30033 28.3367 11.6633C30.6996 14.0263 32 17.1583 32 20.5C32 23.8417 30.6996 26.9737 28.3367 29.3367C25.9738 31.6997 22.8417 33 19.5 33Z" fill="#232323"/>
</mask>
<g mask="url(#mask0)">
<path d="M19.8355 33.0712H24.7013C24.7013 30.848 27.1762 27.66 27.1762 22.8642C27.1762 18.7815 26.505 16.5723 26.0856 15.5376C25.75 14.6847 25.3585 14.1953 24.5195 14.1953C23.6806 14.1953 22.8697 14.5169 22.6459 16.4045C21.9887 22.0113 19.486 25.2552 19.8355 33.0712Z" fill="white"/>
<path d="M19.0943 33.0711H14.2285C14.2285 30.848 11.7537 27.66 11.7537 22.8643C11.7537 18.7814 12.4248 16.5723 12.8443 15.5376C13.1798 14.6847 13.5713 14.1953 14.4103 14.1953C15.2492 14.1953 16.0601 14.5169 16.2839 16.4045C16.927 22.0113 19.4298 25.2552 19.0943 33.0711Z" fill="white"/>
<path d="M24.8564 33.1963H19.7389V33.0704C19.5292 28.1906 20.4241 25.0865 21.2769 22.0804C21.8083 20.2348 22.3116 18.487 22.5633 16.3757C22.6751 15.4809 22.9129 14.8656 23.3044 14.4881C23.612 14.1945 24.0175 14.0547 24.5627 14.0547C25.4856 14.0547 25.905 14.628 26.2406 15.4809C26.9537 17.2706 27.3312 19.8293 27.3312 22.8494C27.3312 25.7297 26.4504 28.0368 25.7373 29.8824C25.2618 31.1129 24.8564 32.1754 24.8564 33.0564V33.1963ZM19.9906 32.9446H24.6048C24.6467 32.0496 25.0382 31.0011 25.4996 29.8125C26.1987 27.9809 27.0795 25.7018 27.0795 22.8634C27.0795 19.8713 26.702 17.3545 26.0029 15.5927C25.6393 14.6699 25.248 14.3343 24.5627 14.3343C23.8218 14.3343 23.0387 14.586 22.815 16.4316C22.5633 18.5709 22.06 20.3187 21.5286 22.1784C20.6897 25.1145 19.8089 28.1627 19.9906 32.9446Z" fill="black"/>
<path d="M19.2536 33.1979H14.1362V33.072C14.1362 32.1911 13.7307 31.1285 13.2553 29.8981C12.5422 28.0525 11.6614 25.7453 11.6614 22.8651C11.6614 19.8309 12.0389 17.2862 12.752 15.4965C13.0876 14.6436 13.507 14.0703 14.4298 14.0703C14.9751 14.0703 15.3666 14.2101 15.6882 14.5037C16.0797 14.8813 16.3314 15.4965 16.4293 16.3913C16.681 18.5026 17.1843 20.2504 17.7156 22.096C18.5825 25.1022 19.4634 28.1922 19.2536 33.0859V33.1979ZM14.4019 32.9462H19.016C19.2117 28.1783 18.3308 25.1162 17.4779 22.166C16.9466 20.3063 16.4433 18.5586 16.1916 16.4193C15.9818 14.5737 15.1849 14.322 14.4438 14.322C13.7587 14.322 13.3672 14.6576 13.0037 15.5804C12.3046 17.3421 11.927 19.8589 11.927 22.851C11.927 25.6754 12.8079 27.9686 13.507 29.8001C13.9684 31.0027 14.3599 32.0374 14.4019 32.9462Z" fill="black"/>
<path d="M19.5104 33.1281H19.3845C18.3219 33.1281 17.441 32.5547 16.8258 31.4641C16.2805 30.5133 15.9589 29.1991 15.875 27.6609C15.7072 24.6967 15.3856 19.048 15.1759 16.5173C15.092 15.3987 14.7285 15.3008 14.4069 15.3008C14.0294 15.3008 13.7917 15.6084 13.568 16.4054C13.3722 17.1185 12.6871 20.4602 12.9667 23.8718C13.1345 25.9552 13.8056 27.703 14.4069 29.241C14.9522 30.6532 15.4136 31.8696 15.4136 33.0581H15.1619C15.1619 31.9115 14.7005 30.7231 14.1692 29.3388C13.568 27.7729 12.8828 26.0111 12.7151 23.8858C12.4354 20.4462 13.1345 17.0486 13.3303 16.3355C13.512 15.6644 13.7777 15.0352 14.4069 15.0352C15.0361 15.0352 15.3437 15.4686 15.4276 16.4753C15.6233 19.0061 15.9589 24.6689 16.1267 27.6331C16.2106 29.1292 16.5322 30.4015 17.0495 31.3244C17.6228 32.345 18.4197 32.8624 19.3845 32.8624H19.5104C20.0137 32.8624 20.4751 32.7225 20.8806 32.4569C21.2721 32.2052 21.6076 31.8137 21.9013 31.3244C22.4465 30.4015 22.7821 29.1012 22.8661 27.6331C23.0338 24.6689 23.3554 19.0061 23.5652 16.4753C23.6491 15.4546 23.9567 15.0352 24.5858 15.0352C25.215 15.0352 25.4807 15.6504 25.6624 16.3355C25.8582 17.0486 26.5574 20.4462 26.2777 23.8858C26.11 25.9971 25.4248 27.7868 24.8236 29.3528C24.2923 30.751 23.8308 31.9535 23.8308 33.1H23.5792C23.5792 31.9115 24.0545 30.6812 24.5858 29.2689C25.1731 27.717 25.8582 25.9552 26.026 23.8718C26.3057 20.4742 25.6205 17.1185 25.4248 16.4054C25.2011 15.6084 24.9633 15.3008 24.5858 15.3008C24.2642 15.3008 23.9148 15.3987 23.8168 16.5173C23.6211 19.048 23.2855 24.6967 23.1177 27.6609C23.0338 29.1851 22.6843 30.4993 22.1249 31.4641C21.4679 32.5408 20.573 33.1281 19.5104 33.1281Z" fill="black"/>
<path d="M21.4172 14.2232V14.405C20.2707 14.6567 19.8233 15.0901 19.5716 16.2786H19.3479C19.0962 15.0761 18.6907 14.6567 17.4883 14.405V14.2232C18.6768 13.9715 19.0822 13.5381 19.3479 12.3496H19.5716C19.8373 13.5521 20.2847 13.9715 21.4172 14.2232Z" fill="white"/>
<path d="M19.5 33C16.1583 33 13.0263 31.6997 10.6633 29.3367C8.30034 26.9737 7 23.8417 7 20.5C7 17.1583 8.30034 14.0263 10.6633 11.6633C13.0263 9.30033 16.1583 8 19.5 8C22.8417 8 25.9738 9.30033 28.3367 11.6633C30.6996 14.0263 32 17.1583 32 20.5C32 23.8417 30.6996 26.9737 28.3367 29.3367C25.9738 31.6997 22.8417 33 19.5 33ZM19.5 8.30761C12.7746 8.30761 7.30761 13.7746 7.30761 20.5C7.30761 27.2253 12.7746 32.6923 19.5 32.6923C26.2254 32.6923 31.6924 27.2253 31.6924 20.5C31.6924 13.7886 26.2254 8.30761 19.5 8.30761Z" fill="black"/>
</g>
</svg>
