<svg width="40" height="40" viewBox="0 0 40 40" fill="none" xmlns="http://www.w3.org/2000/svg">
<path fill-rule="evenodd" clip-rule="evenodd" d="M20 40C31.0457 40 40 31.0457 40 20C40 8.9543 31.0457 0 20 0C8.9543 0 0 8.9543 0 20C0 31.0457 8.9543 40 20 40Z" fill="#F6F5F7"/>
<g clip-path="url(#clip0)">
<path d="M24.4571 21.881H23.7342L22.796 20.8077H22.212V21.881H21.606V18.6611C22.117 18.6611 22.6245 18.6648 23.1356 18.6648C23.8949 18.6684 24.2928 19.1759 24.2928 19.7308C24.2928 20.1725 24.092 20.6178 23.4787 20.742L24.4534 21.8408V21.881H24.4571ZM22.2156 19.2306V20.2601H23.1392C23.5262 20.2601 23.6904 20.0045 23.6904 19.7454C23.6904 19.4898 23.5189 19.2306 23.1392 19.2306H22.2156ZM26.4612 19.6176H26.9979V21.881H26.4685L26.4393 21.5487C26.3116 21.8152 25.9575 21.943 25.7056 21.9467C25.0339 21.9503 24.5374 21.5378 24.5374 20.742C24.5374 19.9607 25.0558 19.5519 25.7165 19.5555C26.0195 19.5555 26.3079 19.6979 26.4393 19.9242L26.4612 19.6176ZM25.0996 20.7493C25.0996 21.18 25.3989 21.4392 25.7713 21.4392C26.6547 21.4392 26.6547 20.0666 25.7713 20.0666C25.3989 20.063 25.0996 20.3148 25.0996 20.7493ZM28.9801 21.881V20.669C28.9801 20.3696 28.8232 20.0995 28.5165 20.0995C28.2135 20.0995 28.0346 20.3696 28.0346 20.669V21.881H27.4724V19.6139H27.9908L28.031 19.8914C28.1515 19.6614 28.4107 19.5774 28.6297 19.5774C28.8998 19.5774 29.1736 19.6869 29.3014 20.0009C29.5022 19.6796 29.765 19.5884 30.0607 19.5884C30.7032 19.5884 31.0208 19.9826 31.0208 20.6617V21.8846H30.4586V20.6617C30.4586 20.3623 30.3345 20.1104 30.0315 20.1104C29.7285 20.1104 29.5387 20.3733 29.5387 20.6726V21.8846H28.9801V21.881ZM31.5429 22.8301V19.6176H32.0649L32.1014 19.9315C32.2766 19.6796 32.5796 19.5701 32.8352 19.5701C33.5324 19.5701 33.996 20.0885 33.996 20.7566C33.996 21.4173 33.5762 21.943 32.8534 21.943C32.6161 21.943 32.262 21.87 32.1014 21.6218V22.8338H31.5429V22.8301ZM33.4375 20.7529C33.4375 20.3988 33.2002 20.1104 32.795 20.1104C32.3898 20.1104 32.1525 20.3988 32.1525 20.7529C32.1525 21.107 32.4153 21.3954 32.795 21.3954C33.1783 21.3954 33.4375 21.107 33.4375 20.7529Z" fill="#292840"/>
<path d="M10.7641 21.5818L12.8303 23.648L11.1802 25.298C10.9502 25.528 10.5742 25.528 10.3442 25.298L6.20813 21.1619C5.97815 20.9319 5.97815 20.5559 6.20813 20.326L10.3442 16.1935C10.5742 15.9635 10.9502 15.9635 11.1802 16.1935L12.8303 17.8436L10.7641 19.9098C10.3041 20.3698 10.3041 21.1218 10.7641 21.5818Z" fill="#56BE89"/>
<path d="M15.3162 21.1619L13.25 23.2281L11.1837 21.1619C10.9537 20.9319 10.9537 20.5559 11.1837 20.3259L13.25 18.2596L15.3162 20.3259C15.5462 20.5595 15.5462 20.9319 15.3162 21.1619Z" fill="#56BE89"/>
<path d="M20.2882 21.1619L16.1521 25.298C15.9221 25.528 15.5461 25.528 15.3161 25.298L13.666 23.648L15.7322 21.5818C16.1922 21.1218 16.1922 20.3734 15.7322 19.9098L13.666 17.8436L15.3161 16.1935C15.5461 15.9635 15.9221 15.9635 16.1521 16.1935L20.2882 20.3296C20.5182 20.5596 20.5182 20.9319 20.2882 21.1619Z" fill="#31335D"/>
</g>
<defs>
<clipPath id="clip0">
<rect x="6" y="16" width="28" height="9.58696" fill="white"/>
</clipPath>
</defs>
</svg>
