<svg width="40" height="40" viewBox="0 0 40 40" fill="none" xmlns="http://www.w3.org/2000/svg">
<path fill-rule="evenodd" clip-rule="evenodd" d="M20 40C31.0457 40 40 31.0457 40 20C40 8.9543 31.0457 0 20 0C8.9543 0 0 8.9543 0 20C0 31.0457 8.9543 40 20 40Z" fill="#F6F5F7"/>
<path fill-rule="evenodd" clip-rule="evenodd" d="M7.88356 17C7.98296 17 8.0755 17.0502 8.1291 17.1332L11.6296 22.5548C11.6597 22.6014 11.6757 22.6555 11.6757 22.7108C11.6757 22.8705 11.5451 23 11.3841 23H9.68262C9.58175 23 9.48803 22.9483 9.43486 22.8633L6.0438 17.4416C6.01517 17.3959 6 17.3431 6 17.2892C6 17.1295 6.13054 17 6.29157 17H7.88356Z" fill="url(#paint0_radial)"/>
<path fill-rule="evenodd" clip-rule="evenodd" d="M9.79211 17H11.3841C11.5451 17 11.6757 17.1295 11.6757 17.2892C11.6757 17.3431 11.6605 17.3959 11.6319 17.4416L8.24082 22.8633C8.18764 22.9483 8.09393 23 7.99305 23H6.29157C6.13054 23 6 22.8705 6 22.7108C6 22.6555 6.01598 22.6014 6.04603 22.5548L9.54657 17.1332C9.60017 17.0502 9.69272 17 9.79211 17Z" fill="url(#paint1_linear)"/>
<path d="M15.1867 21.5405L14.9093 20.7787H13.5549L13.2774 21.5405H12.5908L13.87 18.2063H14.6224L15.8921 21.5405H15.1867ZM14.2321 18.9258L13.7712 20.1861H14.6929L14.2321 18.9258ZM19.6649 21.5405H18.983L17.4687 19.175V21.5405H16.8197V18.2063H17.6286L19.0159 20.4119V18.2063H19.6649V21.5405ZM21.58 19.7253H22.0926C22.4171 19.7253 22.6146 19.5371 22.6146 19.2503C22.6146 18.954 22.4171 18.7706 22.0926 18.7706H21.58V19.7253ZM22.1726 20.2849H21.5753V21.5405H20.9264V18.2063H22.1726C22.831 18.2063 23.2683 18.6436 23.2683 19.2456C23.2683 19.8522 22.831 20.2849 22.1726 20.2849ZM24.7508 19.871C24.7508 20.6235 25.2775 20.9809 25.7901 20.9809C26.3074 20.9809 26.8341 20.6235 26.8341 19.871C26.8341 19.1186 26.3074 18.7612 25.7901 18.7612C25.2775 18.7612 24.7508 19.1186 24.7508 19.871ZM24.0783 19.8757C24.0783 18.7988 24.8872 18.1357 25.7901 18.1357C26.6978 18.1357 27.5066 18.7988 27.5066 19.8757C27.5066 20.948 26.6978 21.611 25.7901 21.611C24.8872 21.611 24.0783 20.948 24.0783 19.8757ZM29.0456 19.871C29.0456 20.6235 29.5723 20.9809 30.0849 20.9809C30.6022 20.9809 31.1289 20.6235 31.1289 19.871C31.1289 19.1186 30.6022 18.7612 30.0849 18.7612C29.5723 18.7612 29.0456 19.1186 29.0456 19.871ZM28.3731 19.8757C28.3731 18.7988 29.182 18.1357 30.0849 18.1357C30.9925 18.1357 31.8014 18.7988 31.8014 19.8757C31.8014 20.948 30.9925 21.611 30.0849 21.611C29.182 21.611 28.3731 20.948 28.3731 19.8757ZM35.0004 21.5405H32.8653V18.2063H33.5143V20.9197H35.0004V21.5405Z" fill="#5B69F2"/>
<defs>
<radialGradient id="paint0_radial" cx="0" cy="0" r="1" gradientUnits="userSpaceOnUse" gradientTransform="translate(1.59783 14.8795) rotate(151.814) scale(1.49429 2.39865)">
<stop stop-color="#2A39C6"/>
<stop offset="1" stop-color="#6674FC"/>
</radialGradient>
<linearGradient id="paint1_linear" x1="10.24" y1="17" x2="7.09637" y2="22.8589" gradientUnits="userSpaceOnUse">
<stop stop-color="#347FE0"/>
<stop offset="1" stop-color="#A64CF2"/>
</linearGradient>
</defs>
</svg>
