<svg width="40" height="40" viewBox="0 0 40 40" fill="none" xmlns="http://www.w3.org/2000/svg">
<g clip-path="url(#clip0_221_15623)">
<path fill-rule="evenodd" clip-rule="evenodd" d="M20 40C31.0457 40 40 31.0457 40 20C40 8.9543 31.0457 0 20 0C8.9543 0 0 8.9543 0 20C0 31.0457 8.9543 40 20 40Z" fill="#F6F5F7"/>
<g clip-path="url(#clip1_221_15623)">
<path fill-rule="evenodd" clip-rule="evenodd" d="M9.71425 31.9698C8.98925 31.8556 8.36068 31.5377 7.88925 31.0448C7.50354 30.6377 7.28925 30.2734 7.11782 29.7198L7.01782 29.4056V19.4948V9.58412L7.11782 9.26984C7.45711 8.18412 8.18925 7.45198 9.27497 7.1127L9.58925 7.0127H19.5H29.4107L29.725 7.1127C30.8107 7.45198 31.5428 8.18412 31.8821 9.26984L31.9821 9.58412V19.4948V29.4056L31.8821 29.7198C31.7107 30.2734 31.4964 30.6377 31.1107 31.0448C30.7285 31.4413 30.2393 31.7341 29.6714 31.8984L29.4107 31.977L19.6071 31.9806C14.2143 31.9841 9.76425 31.9806 9.71425 31.9698Z" fill="white"/>
<path d="M9.71425 7.0243C8.98925 7.13859 8.36068 7.45645 7.88925 7.9493C7.50354 8.35645 7.28925 8.72073 7.11782 9.2743L7.01782 9.58859L7.01782 19.4993L7.01782 29.41L7.11782 29.7243C7.45711 30.81 8.18925 31.5422 9.27497 31.8814L9.58925 31.9814H19.5L29.4107 31.9814L29.725 31.8814C30.8107 31.5422 31.5428 30.81 31.8821 29.7243L31.9821 29.41V19.4993L31.9821 9.58859L31.8821 9.2743C31.7107 8.72073 31.4964 8.35645 31.1107 7.9493C30.7285 7.55287 30.2393 7.26002 29.6714 7.09573L29.4107 7.01716L19.6071 7.01359C14.2143 7.01002 9.76425 7.01359 9.71425 7.0243ZM19.5 19.5243V26.2957L19.1357 26.2743C17.3107 26.1564 15.575 25.11 14.4571 23.4457C12.9107 21.1564 12.8535 18.1672 14.3071 15.8172C15.4393 13.9886 17.3785 12.7957 19.2964 12.7529L19.5 12.7493V19.5243Z" fill="black"/>
</g>
</g>
<defs>
<clipPath id="clip0_221_15623">
<rect width="40" height="40" fill="white"/>
</clipPath>
<clipPath id="clip1_221_15623">
<rect width="25" height="25" fill="white" transform="translate(7 7)"/>
</clipPath>
</defs>
</svg>
