<svg width="258" height="60" viewBox="0 0 258 60" fill="none" xmlns="http://www.w3.org/2000/svg">
<path d="M64.9469 35.308L53.607 46.7101C52.6464 47.676 52.6472 49.2462 53.6089 50.211L62.2745 58.9047C63.7514 60.3651 66.1659 60.3651 67.6428 58.9047L94.203 32.6425C95.6799 31.1822 95.6799 28.7946 94.203 27.3343L67.6428 1.09523C66.1659 -0.365076 63.7514 -0.365076 62.2745 1.09523L53.6089 9.78897C52.6472 10.7538 52.6464 12.324 53.607 13.2899L64.9469 24.692C67.9006 27.6125 67.9006 32.3874 64.9469 35.308Z" fill="#0A6E5C"/>
<path d="M30.8452 35.308L42.1851 46.7101C43.1458 47.676 43.1449 49.2462 42.1832 50.211L33.5177 58.9047C32.0408 60.3651 29.6262 60.3651 28.1493 58.9047L1.58913 32.6425C0.112259 31.1822 0.112259 28.7946 1.58913 27.3343L28.1493 1.09523C29.6262 -0.365076 32.0408 -0.365076 33.5177 1.09523L42.1832 9.78897C43.1449 10.7538 43.1458 12.324 42.1852 13.2899L30.8452 24.692C27.8916 27.6125 27.8916 32.3874 30.8452 35.308Z" fill="#21BF73"/>
<path d="M33.82 32.1694C32.6241 30.9713 32.6241 29.0287 33.82 27.8306L45.7305 15.8986C46.9265 14.7005 48.8656 14.7005 50.0616 15.8986L61.9721 27.8306C63.1681 29.0287 63.1681 30.9713 61.9721 32.1694L50.0616 44.1014C48.8656 45.2995 46.9265 45.2995 45.7305 44.1014L33.82 32.1694Z" fill="#21BF73"/>
<path d="M146.103 48.0006H137.64L132.972 35.7676C132.596 34.8041 132.014 34.1331 131.228 33.7546C130.475 33.3761 129.518 33.1868 128.355 33.1868H123.174V48.0006H115.275V11.25H131.535C135.776 11.25 138.99 12.1791 141.179 14.0373C143.368 15.8954 144.462 18.5623 144.462 22.0378C144.462 24.4809 143.812 26.58 142.513 28.3349C141.247 30.0899 139.418 31.3459 137.024 32.1029C139.178 32.5502 140.734 34.0471 141.692 36.5935L146.103 48.0006ZM130.356 27.0445C132.647 27.0445 134.322 26.666 135.383 25.909C136.443 25.1175 136.973 23.8959 136.973 22.2442C136.973 20.5925 136.443 19.3881 135.383 18.6311C134.322 17.8397 132.647 17.4439 130.356 17.4439H123.072V27.0445H130.356Z" fill="#22272F"/>
<path d="M177.138 21.8313V48.0006H169.495V44.1294C168.708 45.4715 167.597 46.521 166.16 47.278C164.724 48.0351 163.1 48.4136 161.287 48.4136C159.03 48.4136 157.03 47.863 155.286 46.7619C153.576 45.6607 152.225 44.095 151.233 42.0648C150.276 40.0002 149.797 37.6258 149.797 34.9418C149.797 32.2577 150.276 29.8662 151.233 27.7671C152.225 25.6681 153.593 24.0508 155.337 22.9152C157.081 21.7453 159.064 21.1603 161.287 21.1603C163.1 21.1603 164.724 21.556 166.16 22.3475C167.597 23.1389 168.708 24.2056 169.495 25.5477V21.8313H177.138ZM163.544 42.4777C165.459 42.4777 166.93 41.8239 167.956 40.5163C168.982 39.2087 169.495 37.3161 169.495 34.8385C169.495 32.361 168.982 30.4684 167.956 29.1608C166.93 27.8188 165.459 27.1477 163.544 27.1477C161.629 27.1477 160.142 27.836 159.082 29.2124C158.021 30.5888 157.491 32.4986 157.491 34.9418C157.491 37.3849 158.004 39.2603 159.03 40.5679C160.09 41.8411 161.595 42.4777 163.544 42.4777Z" fill="#22272F"/>
<path d="M215.193 21.1603C218.168 21.1603 220.374 22.0722 221.81 23.8959C223.28 25.6853 224.016 28.4382 224.016 32.1545V48.0006H216.27V32.4126C216.27 30.5888 215.979 29.2812 215.398 28.4898C214.817 27.6639 213.859 27.251 212.526 27.251C210.952 27.251 209.738 27.8016 208.884 28.9027C208.029 30.0038 207.601 31.5523 207.601 33.5481V48.0006H199.856V32.4126C199.856 30.6232 199.548 29.3156 198.932 28.4898C198.351 27.6639 197.41 27.251 196.111 27.251C194.538 27.251 193.307 27.8016 192.418 28.9027C191.563 30.0038 191.135 31.5523 191.135 33.5481V48.0006H183.39V29.3156C183.39 26.5284 183.253 24.0336 182.979 21.8313H190.263L190.725 25.7541C191.511 24.2745 192.606 23.1389 194.008 22.3475C195.444 21.556 197.086 21.1603 198.932 21.1603C202.796 21.1603 205.361 22.7776 206.627 26.0122C207.481 24.5325 208.661 23.3626 210.166 22.5023C211.705 21.6076 213.38 21.1603 215.193 21.1603Z" fill="#22272F"/>
<path d="M246.028 21.1603C248.251 21.1603 250.235 21.7453 251.979 22.9152C253.723 24.0508 255.073 25.6681 256.031 27.7671C257.023 29.8662 257.519 32.2577 257.519 34.9418C257.519 37.6258 257.04 40.0002 256.082 42.0648C255.125 44.095 253.774 45.6607 252.03 46.7619C250.286 47.863 248.285 48.4136 246.028 48.4136C244.216 48.4136 242.592 48.0351 241.155 47.278C239.719 46.521 238.625 45.4715 237.872 44.1294V60H230.127V29.3156C230.127 26.5284 229.99 24.0336 229.716 21.8313H237L237.513 26.167C238.197 24.6186 239.292 23.397 240.796 22.5023C242.335 21.6076 244.079 21.1603 246.028 21.1603ZM243.823 42.4777C245.738 42.4777 247.208 41.8411 248.234 40.5679C249.26 39.2603 249.773 37.3849 249.773 34.9418C249.773 32.4986 249.243 30.5888 248.183 29.2124C247.157 27.836 245.703 27.1477 243.823 27.1477C241.908 27.1477 240.42 27.8188 239.36 29.1608C238.334 30.4684 237.821 32.361 237.821 34.8385C237.821 37.3161 238.334 39.2087 239.36 40.5163C240.42 41.8239 241.908 42.4777 243.823 42.4777Z" fill="#22272F"/>
</svg>
