<svg width="36" height="50" viewBox="0 0 36 50" fill="none" xmlns="http://www.w3.org/2000/svg">
<path d="M17.7664 0L16.7891 1.46484L17.7664 2.92969C22.7244 2.92969 26.7585 6.96373 26.7585 11.9217V24.0341H29.6881V11.9217C29.6881 5.34821 24.3399 0 17.7664 0Z" fill="#B4D2D7"/>
<path d="M5.84509 11.9217V24.0341H8.77478V11.9217C8.77478 6.96373 12.8084 2.92969 17.7668 2.92969V0C11.1929 0 5.84509 5.34821 5.84509 11.9217Z" fill="#E1EBF0"/>
<path d="M17.7671 14.4675L15.7476 31.9137L17.7671 49.9999C27.5789 49.9999 35.5333 42.0459 35.5333 32.2337C35.5333 22.4219 27.5789 14.4675 17.7671 14.4675Z" fill="#295DAB"/>
<path d="M0 32.2337C0 42.0459 7.95402 49.9999 17.7662 49.9999V14.4675C7.95402 14.4675 0 22.4219 0 32.2337Z" fill="#5495F7"/>
<path d="M17.7671 19.3119L15.7476 32.2338L17.7671 45.1561C24.8922 45.1561 30.689 39.3593 30.689 32.2338C30.689 25.1087 24.8922 19.3119 17.7671 19.3119Z" fill="#B4D2D7"/>
<path d="M4.84265 32.2338C4.84265 39.3593 10.6395 45.1561 17.7649 45.1561V19.3119C10.6395 19.3119 4.84265 25.1087 4.84265 32.2338Z" fill="#E1EBF0"/>
<path d="M16.3018 32.7247H19.2315V38.237H16.3018V32.7247Z" fill="#03232E"/>
<path d="M17.7664 26.2306L15.8117 30.3318L17.7664 34.433C20.0311 34.433 21.8675 32.5969 21.8675 30.3318C21.8675 28.067 20.0311 26.2306 17.7664 26.2306Z" fill="#03232E"/>
<path d="M13.6647 30.3318C13.6647 32.5969 15.5007 34.433 17.7659 34.433V26.2306C15.5007 26.2306 13.6647 28.067 13.6647 30.3318Z" fill="#07485E"/>
</svg>
