<svg width="86" height="86" viewBox="0 0 86 86" fill="none" xmlns="http://www.w3.org/2000/svg">
<circle cx="43" cy="43" r="43" fill="#0364FF"/>
<path fill-rule="evenodd" clip-rule="evenodd" d="M28.8071 25.5156C26.752 25.5156 25.0859 27.1816 25.0859 29.2368V33.5717C25.0859 35.6268 26.752 37.2928 28.8071 37.2928H35.3909V61.5426C35.3909 63.5977 37.0569 65.2637 39.112 65.2637H43.4469C45.5021 65.2637 47.1681 63.5977 47.1681 61.5426V33.6032C47.1682 33.5927 47.1682 33.5822 47.1682 33.5717V29.2368C47.1682 27.1817 45.5022 25.5156 43.447 25.5156H39.112H28.8071Z" fill="white"/>
<path d="M56.0058 37.2928C59.258 37.2928 61.8944 34.6564 61.8944 31.4042C61.8944 28.152 59.258 25.5156 56.0058 25.5156C52.7536 25.5156 50.1172 28.152 50.1172 31.4042C50.1172 34.6564 52.7536 37.2928 56.0058 37.2928Z" fill="white"/>
</svg>
