<svg width="223" height="26" viewBox="0 0 223 26" fill="none" xmlns="http://www.w3.org/2000/svg">
<path fill-rule="evenodd" clip-rule="evenodd" d="M48.9351 18.2515C49.5349 16.5441 49.8294 14.743 49.8048 12.9319C49.8285 11.1267 49.534 9.33169 48.9351 7.63024C48.4007 6.11526 47.5676 4.72485 46.4861 3.54267C45.4242 2.40497 44.1319 1.51072 42.6968 0.920583C41.1488 0.292511 39.4926 -0.0200245 37.8239 0.00105752C36.1576 -0.0207738 34.504 0.295611 32.9617 0.931358C31.5322 1.52639 30.2434 2.41866 29.1795 3.54985C28.0973 4.72878 27.2641 6.11699 26.7306 7.63024C26.1317 9.33169 25.8372 11.1267 25.8608 12.9319C25.8363 14.743 26.1308 16.5441 26.7306 18.2515C27.2641 19.7647 28.0973 21.1529 29.1795 22.3319C30.2418 23.4631 31.5312 24.3533 32.9617 24.9432C36.0927 26.1691 39.5658 26.1691 42.6968 24.9432C44.1299 24.3543 45.4218 23.4641 46.4861 22.3319C47.5683 21.1529 48.4015 19.7647 48.9351 18.2515ZM47.1985 8.17274C47.6982 9.70793 47.9392 11.3166 47.9114 12.932C47.9408 14.5499 47.6998 16.1612 47.1985 17.6984C46.7599 19.0171 46.0574 20.2311 45.1345 21.2652C44.2459 22.245 43.1493 23.0099 41.9263 23.503C39.2872 24.5234 36.3666 24.5234 33.7275 23.503C32.5061 23.0069 31.4101 22.2424 30.5193 21.2652C29.592 20.2318 28.8847 19.0179 28.441 17.6984C27.9306 16.1629 27.6823 14.5512 27.7067 12.932C27.6871 11.3211 27.9366 9.71827 28.4446 8.1907C28.8852 6.8623 29.5926 5.63959 30.5228 4.59881C31.4153 3.62173 32.5107 2.85519 33.7311 2.35387C36.3676 1.31929 39.2934 1.31929 41.9299 2.35387C43.1518 2.85212 44.2479 3.6191 45.1381 4.59881C46.0605 5.63537 46.7618 6.85182 47.1985 8.17274Z" fill="#0364FF"/>
<path fill-rule="evenodd" clip-rule="evenodd" d="M68.4643 25.862C69.06 25.862 69.3969 25.1787 69.0342 24.7061L61.3301 14.6695C61.1216 14.3837 60.8638 14.1401 60.5699 13.9511C61.5881 13.8385 62.5853 13.5748 63.5309 13.1681C64.3597 12.8083 65.1192 12.2973 65.7733 11.6594C66.3857 11.0506 66.8692 10.3167 67.193 9.50428C67.5314 8.64605 67.7002 7.72638 67.6894 6.79954C67.6825 4.57015 66.9628 2.87954 65.5303 1.72772C64.0978 0.575908 61.9456 0 59.0738 0H53.3981C53.0013 0 52.6797 0.321642 52.6797 0.718407V25.1436C52.6797 25.5403 53.0013 25.862 53.3981 25.862H53.7802C54.177 25.862 54.4986 25.5403 54.4986 25.1436V14.885C54.4986 14.4883 54.8203 14.1666 55.217 14.1666H57.7755C57.9856 14.1646 58.1955 14.1778 58.4038 14.2061C58.5557 14.2224 58.7043 14.2624 58.8446 14.3247C58.9728 14.3774 59.0905 14.4541 59.1918 14.551C59.299 14.6616 59.3966 14.7818 59.4834 14.9101L67.502 25.4022C67.5956 25.5541 67.7261 25.6779 67.8803 25.7614C68.0387 25.8336 68.2107 25.868 68.3837 25.862H68.4643ZM61.7888 12.3635C60.8223 12.6523 59.8199 12.7915 58.814 12.7766H55.2176C54.8208 12.7766 54.4992 12.4549 54.4992 12.0582V2.19833C54.4992 1.80157 54.8208 1.47993 55.2176 1.47993H59.0778C61.2971 1.48232 62.9853 1.92772 64.1424 2.81613C65.2994 3.70453 65.878 5.06827 65.878 6.90735C65.8905 7.7439 65.7283 8.57338 65.4024 9.33909C65.0844 10.0577 64.609 10.6898 64.0139 11.1854C63.3549 11.7266 62.5986 12.1271 61.7888 12.3635Z" fill="#0364FF"/>
<path d="M82.3756 24.2152C83.4978 24.2359 84.6118 24.0182 85.6454 23.5763C86.5755 23.1686 87.4072 22.5625 88.0835 21.7997C88.7651 21.0181 89.2848 20.1065 89.6118 19.1187C89.9675 18.0468 90.1429 16.9222 90.1307 15.7917V0.911629C90.1307 0.408151 90.5389 0 91.0423 0C91.5458 0 91.954 0.40815 91.954 0.911629V15.7917C91.9656 17.1367 91.7418 18.4732 91.2929 19.7396C90.8747 20.9218 90.2271 22.0077 89.3879 22.9339C88.5445 23.8595 87.516 24.5935 86.3705 25.0873C83.8056 26.1211 80.9456 26.1211 78.3808 25.0873C77.2347 24.5945 76.206 23.8603 75.3634 22.9339C74.523 22.0087 73.8752 20.9225 73.4584 19.7396C73.0095 18.4732 72.7857 17.1367 72.7973 15.7917V0.915184C72.7973 0.409742 73.207 0 73.7125 0C74.2179 0 74.6277 0.409742 74.6277 0.915183V15.7702C74.6174 16.9023 74.7952 18.0281 75.1537 19.1008C75.4809 20.0869 75.9979 20.998 76.6748 21.7818C77.3453 22.5509 78.1737 23.1633 79.1023 23.5763C80.136 24.0221 81.2519 24.2399 82.3756 24.2152Z" fill="#0364FF"/>
<path d="M109.99 3.3591C109.912 3.54456 109.733 3.66474 109.534 3.66437C109.306 3.6258 109.097 3.50922 108.943 3.33396C108.636 3.06985 108.31 2.82973 107.967 2.61568C107.483 2.30956 106.965 2.06131 106.425 1.87585C104.904 1.3996 103.276 1.41214 101.763 1.91176C101.121 2.14729 100.534 2.51399 100.037 2.98918C99.5777 3.43163 99.2161 3.96772 98.9756 4.56222C98.7378 5.15753 98.6176 5.79452 98.6219 6.43693C98.5918 7.18336 98.7775 7.92242 99.156 8.56303C99.5244 9.13634 100.006 9.62556 100.571 9.99959C101.196 10.4101 101.867 10.7428 102.569 10.9908C103.312 11.2566 104.08 11.5223 104.865 11.7845C105.65 12.0467 106.418 12.3376 107.161 12.65C107.878 12.9503 108.55 13.3504 109.159 13.8388C109.746 14.3191 110.228 14.9184 110.574 15.5986C110.955 16.4093 111.138 17.3011 111.108 18.1988C111.117 19.2206 110.938 20.2352 110.581 21.1904C110.235 22.1051 109.703 22.9359 109.021 23.629C108.307 24.3411 107.457 24.8972 106.524 25.263C105.444 25.6781 104.297 25.8805 103.142 25.8592C101.68 25.8988 100.227 25.5965 98.8978 24.9757C97.9876 24.5215 97.1525 23.9302 96.42 23.2232C96.0246 22.8415 95.9845 22.234 96.2768 21.7686C96.3892 21.6046 96.5717 21.5046 96.7685 21.4993C96.9239 21.5232 97.067 21.599 97.1752 21.7147L97.773 22.2391C98.0065 22.451 98.2894 22.6772 98.6184 22.9214C98.9766 23.1849 99.3592 23.4122 99.7609 23.6002C100.831 24.1019 101.999 24.3546 103.178 24.34C104.079 24.3558 104.975 24.2011 105.82 23.8839C106.549 23.604 107.215 23.1763 107.776 22.6269C108.31 22.1006 108.726 21.4636 108.996 20.7594C109.283 20.0232 109.427 19.238 109.421 18.4466C109.451 17.6735 109.264 16.9077 108.883 16.2379C108.52 15.6606 108.037 15.1704 107.468 14.8013C106.844 14.3968 106.174 14.07 105.473 13.828C104.727 13.5659 103.963 13.3109 103.174 13.0595C102.385 12.8081 101.625 12.5315 100.879 12.2191C100.159 11.9257 99.4854 11.5263 98.8801 11.0339C98.2878 10.5446 97.8054 9.93236 97.4653 9.23822C97.0794 8.39089 96.8952 7.46326 96.9276 6.5303C96.9274 5.69035 97.0884 4.85839 97.4016 4.08097C97.7188 3.29795 98.1921 2.58998 98.7917 2.00155C99.4456 1.3758 100.215 0.887574 101.055 0.56499C102.035 0.179733 103.079 -0.0116569 104.129 0.00114049C105.317 -0.017589 106.497 0.194524 107.606 0.626044C108.378 0.944956 109.096 1.37937 109.737 1.91338C110.161 2.2657 110.242 2.86932 109.99 3.3591Z" fill="#0364FF"/>
<path fill-rule="evenodd" clip-rule="evenodd" d="M2.42123 0C1.08402 0 0 1.08402 0 2.42123V5.24178C0 6.57898 1.08402 7.66301 2.42123 7.66301H6.70504V23.4414C6.70504 24.7786 7.78906 25.8626 9.12627 25.8626H11.9468C13.284 25.8626 14.368 24.7786 14.368 23.4414V5.26228C14.3681 5.25545 14.3681 5.24862 14.3681 5.24178V2.42123C14.3681 1.08402 13.2841 0 11.9469 0H9.12628H2.42123Z" fill="#0364FF"/>
<path d="M20.1128 7.663C22.2288 7.663 23.9443 5.94758 23.9443 3.8315C23.9443 1.71542 22.2288 0 20.1128 0C17.9967 0 16.2812 1.71542 16.2812 3.8315C16.2812 5.94758 17.9967 7.663 20.1128 7.663Z" fill="#0016DE"/>
<path d="M121.808 1.79688C122.423 1.79688 122.921 2.29516 122.921 2.90982V23.3137C122.921 23.9284 122.423 24.4267 121.808 24.4267C121.194 24.4267 120.695 23.9284 120.695 23.3137V2.90982C120.695 2.29516 121.194 1.79688 121.808 1.79688Z" fill="#D1D5DB"/>
<path d="M149.503 9.74277C149.99 9.74277 150.336 10.2178 150.187 10.6817L146.85 21.027C146.754 21.3237 146.478 21.5248 146.166 21.5248H144.95C144.639 21.5248 144.363 21.3243 144.267 21.0282L141.493 12.4839L138.743 21.0266C138.647 21.3235 138.371 21.5248 138.059 21.5248H136.869C136.557 21.5248 136.281 21.3237 136.185 21.027L132.848 10.6817C132.698 10.2178 133.044 9.74277 133.531 9.74277H134.317C134.635 9.74277 134.916 9.95254 135.006 10.2581L137.476 18.6394H137.5L140.249 10.2378C140.345 9.9425 140.621 9.74277 140.932 9.74277H142.175C142.486 9.74277 142.761 9.9425 142.858 10.2378L145.607 18.6394H145.631L148.077 10.2598C148.167 9.9534 148.448 9.74277 148.767 9.74277H149.503Z" fill="white"/>
<path d="M153.307 17.9181C153.307 18.4952 153.548 18.9761 154.029 19.3608C154.526 19.7455 155.103 19.9379 155.761 19.9379C156.691 19.9379 157.517 19.5932 158.239 18.9039C158.883 18.3019 159.246 17.6082 159.327 16.8227C159.35 16.6041 159.247 16.3917 159.061 16.2755C158.399 15.8637 157.532 15.6579 156.459 15.6579C155.56 15.6579 154.807 15.8743 154.197 16.3071C153.604 16.7399 153.307 17.2769 153.307 17.9181ZM156.17 9.35805C157.806 9.35805 159.097 9.79888 160.043 10.6805C160.989 11.5462 161.462 12.7404 161.462 14.2632V20.8064C161.462 21.2032 161.14 21.5248 160.743 21.5248H160.064C159.667 21.5248 159.345 21.2032 159.345 20.8064V19.9527C159.345 19.9179 159.317 19.8898 159.282 19.8898C159.261 19.8898 159.242 19.9003 159.23 19.9175C158.318 21.2455 157.106 21.9096 155.593 21.9096C154.294 21.9096 153.203 21.5248 152.321 20.7554C151.455 19.986 151.022 19.0242 151.022 17.87C151.022 16.6517 151.479 15.6819 152.393 14.9605C153.323 14.2392 154.558 13.8785 156.098 13.8785C157.19 13.8785 158.122 14.0444 158.893 14.376C159.1 14.4651 159.345 14.3205 159.345 14.0949C159.345 13.3255 159.04 12.6763 158.431 12.1473C157.822 11.6023 157.108 11.3297 156.29 11.3297C155.287 11.3297 154.454 11.6733 153.789 12.3605C153.522 12.6369 153.099 12.7313 152.774 12.5265L152.045 12.0678C151.698 11.8493 151.6 11.3805 151.877 11.0778C152.926 9.93129 154.357 9.35805 156.17 9.35805Z" fill="white"/>
<path d="M165.453 4.30859C165.849 4.30859 166.171 4.63024 166.171 5.027V20.8064C166.171 21.2032 165.849 21.5248 165.453 21.5248H164.676C164.28 21.5248 163.958 21.2032 163.958 20.8064V5.027C163.958 4.63024 164.28 4.30859 164.676 4.30859H165.453Z" fill="white"/>
<path d="M170.362 4.30859C170.759 4.30859 171.081 4.63024 171.081 5.027V20.8064C171.081 21.2032 170.759 21.5248 170.362 21.5248H169.586C169.189 21.5248 168.868 21.2032 168.868 20.8064V5.027C168.868 4.63024 169.189 4.30859 169.586 4.30859H170.362Z" fill="white"/>
<path d="M178.952 21.9096C177.22 21.9096 175.793 21.3165 174.67 20.1302C173.547 18.944 172.986 17.4452 172.986 15.6338C172.986 13.8384 173.531 12.3477 174.622 11.1614C175.712 9.95918 177.108 9.35805 178.807 9.35805C180.555 9.35805 181.943 9.92712 182.969 11.0652C184.011 12.1874 184.532 13.7663 184.532 15.8021C184.519 15.9386 184.404 16.0426 184.267 16.0426H175.617C175.414 16.0426 175.25 16.2099 175.27 16.4112C175.367 17.3963 175.744 18.2032 176.402 18.8318C177.14 19.5371 178.022 19.8898 179.048 19.8898C180.256 19.8898 181.24 19.3732 182.002 18.3402C182.226 18.0349 182.633 17.9032 182.974 18.0694L183.671 18.4093C184.036 18.5876 184.185 19.0369 183.953 19.371C183.47 20.067 182.861 20.6326 182.127 21.068C181.197 21.629 180.138 21.9096 178.952 21.9096ZM175.533 13.7831C175.462 14.0016 175.634 14.2151 175.864 14.2151H181.787C181.996 14.2151 182.163 14.0359 182.123 13.8304C181.995 13.1839 181.676 12.6389 181.165 12.1954C180.571 11.6503 179.77 11.3778 178.759 11.3778C177.925 11.3778 177.204 11.6343 176.594 12.1473C176.103 12.5718 175.75 13.1171 175.533 13.7831Z" fill="white"/>
<path d="M190.87 21.7172C189.908 21.7172 189.106 21.4206 188.465 20.8275C187.84 20.2344 187.519 19.4089 187.503 18.3509V11.7626H186.152C185.756 11.7626 185.434 11.4409 185.434 11.0441V10.4612C185.434 10.0644 185.756 9.74277 186.152 9.74277H187.503V6.85442C187.503 6.45766 187.824 6.13602 188.221 6.13602H188.997C189.394 6.13602 189.716 6.45766 189.716 6.85442V9.74277H191.884C192.281 9.74277 192.602 10.0644 192.602 10.4612V11.0441C192.602 11.4409 192.281 11.7626 191.884 11.7626H189.716V17.6295C189.716 18.415 189.868 18.952 190.173 19.2406C190.478 19.5131 190.822 19.6493 191.207 19.6493C191.384 19.6493 191.552 19.6333 191.712 19.6012C191.978 19.5289 192.272 19.6545 192.364 19.9139L192.653 20.7316C192.785 21.104 192.591 21.5167 192.204 21.5946C191.797 21.6763 191.353 21.7172 190.87 21.7172Z" fill="white"/>
</svg>
