<svg width="537" height="72" viewBox="0 0 537 72" fill="none" xmlns="http://www.w3.org/2000/svg">
	<path fill-rule="evenodd" clip-rule="evenodd" d="M136.241 50.811C137.911 46.0576 138.731 41.0435 138.663 36.0016C138.728 30.9761 137.909 25.9789 136.241 21.2421C134.754 17.0245 132.434 13.1537 129.424 9.86256C126.467 6.69529 122.87 4.20575 118.874 2.56285C114.565 0.814332 109.954 -0.0557469 105.309 0.00294407C100.67 -0.0578331 96.0662 0.822963 91.7723 2.59284C87.7928 4.24938 84.2049 6.73339 81.2431 9.88256C78.2303 13.1646 75.9108 17.0293 74.4254 21.2421C72.7581 25.9789 71.9382 30.9761 72.0039 36.0016C71.9357 41.0435 72.7555 46.0576 74.4254 50.811C75.9108 55.0238 78.2303 58.8885 81.2431 62.1705C84.2005 65.3199 87.7899 67.7982 91.7723 69.4403C100.489 72.8532 110.158 72.8532 118.874 69.4403C122.864 67.8009 126.461 65.3225 129.424 62.1705C132.436 58.8885 134.756 55.0238 136.241 50.811ZM131.407 22.7524C132.798 27.0263 133.469 31.5047 133.392 36.0019C133.473 40.5059 132.802 44.9917 131.407 49.2714C130.186 52.9425 128.23 56.322 125.661 59.201C123.187 61.9287 120.134 64.0582 116.729 65.4308C109.382 68.2716 101.251 68.2716 93.9043 65.4308C90.5042 64.0498 87.4528 61.9214 84.9728 59.201C82.3914 56.3241 80.4224 52.9447 79.1872 49.2714C77.7663 44.9965 77.075 40.5097 77.1429 36.0019C77.0884 31.5171 77.7828 27.0551 79.1971 22.8024C80.4237 19.1042 82.3932 15.7003 84.9828 12.8028C87.4672 10.0827 90.517 7.94867 93.9143 6.55304C101.254 3.67281 109.399 3.67281 116.739 6.55304C120.141 7.94013 123.193 10.0754 125.671 12.8028C128.239 15.6885 130.191 19.0751 131.407 22.7524Z" fill="white" />
	<path fill-rule="evenodd" clip-rule="evenodd" d="M190.611 71.9981C192.27 71.9981 193.208 70.0959 192.198 68.7803L170.75 40.8389C170.17 40.0432 169.452 39.3652 168.634 38.839C171.468 38.5255 174.245 37.7913 176.877 36.659C179.184 35.6576 181.299 34.235 183.12 32.4592C184.825 30.7641 186.171 28.721 187.072 26.4593C188.014 24.0701 188.484 21.5098 188.454 18.9295C188.435 12.723 186.431 8.01646 182.443 4.80988C178.455 1.60329 172.464 0 164.469 0H148.668C147.563 0 146.668 0.895431 146.668 2V69.9981C146.668 71.1027 147.563 71.9981 148.668 71.9981H149.732C150.836 71.9981 151.732 71.1027 151.732 69.9981V41.439C151.732 40.3344 152.627 39.439 153.732 39.439H160.854C161.439 39.4335 162.024 39.4702 162.604 39.549C163.026 39.5943 163.44 39.7055 163.831 39.879C164.188 40.0259 164.515 40.2394 164.797 40.509C165.096 40.8169 165.367 41.1516 165.609 41.5089L187.932 70.7182C188.193 71.141 188.556 71.4858 188.986 71.7181C189.427 71.9192 189.905 72.0148 190.387 71.9981H190.611ZM172.027 34.4192C169.337 35.2231 166.546 35.6106 163.745 35.5692H153.733C152.629 35.5692 151.733 34.6738 151.733 33.5692V6.12002C151.733 5.01545 152.629 4.12002 153.733 4.12002H164.48C170.658 4.12669 175.358 5.36666 178.579 7.83993C181.801 10.3132 183.411 14.1098 183.411 19.2296C183.446 21.5585 182.994 23.8678 182.087 25.9995C181.202 28.0001 179.878 29.7598 178.222 31.1393C176.387 32.6461 174.282 33.761 172.027 34.4192Z" fill="white" />
	<path d="M229.335 67.4135C232.459 67.4711 235.56 66.8652 238.438 65.635C241.027 64.4999 243.342 62.8127 245.225 60.6891C247.123 58.513 248.569 55.9752 249.48 53.2254C250.47 50.2411 250.958 47.1103 250.924 43.9631V2.53792C250.924 1.13627 252.061 0 253.462 0V0C254.864 0 256 1.13626 256 2.53792V43.9631C256.032 47.7076 255.409 51.4284 254.16 54.9539C252.996 58.245 251.193 61.2682 248.856 63.8465C246.508 66.4233 243.645 68.4668 240.456 69.8414C233.316 72.7195 225.354 72.7195 218.213 69.8414C215.023 68.4694 212.159 66.4256 209.813 63.8465C207.473 61.2708 205.67 58.2468 204.51 54.9539C203.26 51.4284 202.637 47.7076 202.669 43.9631V2.54781C202.669 1.1407 203.81 0 205.217 0V0C206.624 0 207.765 1.1407 207.765 2.54781V43.9032C207.736 47.0549 208.231 50.1891 209.229 53.1754C210.14 55.9207 211.579 58.4572 213.464 60.6392C215.33 62.7804 217.637 64.4852 220.222 65.635C223.1 66.8759 226.206 67.4823 229.335 67.4135Z" fill="white" />
	<path d="M306.213 9.35152C305.995 9.86784 305.495 10.2024 304.942 10.2014C304.307 10.094 303.727 9.76946 303.298 9.28153C302.443 8.54626 301.534 7.8778 300.58 7.28189C299.232 6.42968 297.791 5.73855 296.287 5.22225C292.054 3.8964 287.521 3.93132 283.308 5.32223C281.521 5.97793 279.886 6.99878 278.503 8.3217C277.225 9.55344 276.218 11.0459 275.549 12.7009C274.887 14.3582 274.552 16.1316 274.564 17.92C274.48 19.998 274.997 22.0555 276.051 23.839C277.076 25.435 278.418 26.797 279.99 27.8382C281.729 28.9809 283.597 29.9074 285.553 30.5978C287.621 31.3376 289.758 32.0775 291.944 32.8074C294.13 33.5372 296.267 34.3471 298.335 35.2169C300.332 36.0528 302.204 37.1666 303.899 38.5264C305.533 39.8634 306.874 41.532 307.837 43.4255C308.898 45.6824 309.408 48.1651 309.324 50.6642C309.35 53.5089 308.852 56.3335 307.857 58.9927C306.894 61.5394 305.414 63.8522 303.515 65.7815C301.528 67.7641 299.162 69.3124 296.562 70.3307C293.557 71.4863 290.362 72.0496 287.149 71.9904C283.076 72.1006 279.033 71.2591 275.332 69.5309C272.798 68.2664 270.473 66.6201 268.434 64.6519C267.333 63.5894 267.222 61.898 268.035 60.6024V60.6024C268.348 60.1458 268.856 59.8674 269.404 59.8526C269.837 59.9193 270.235 60.1303 270.536 60.4525L272.201 61.9122C272.851 62.5021 273.638 63.132 274.554 63.8119C275.551 64.5453 276.616 65.1781 277.735 65.7015C280.715 67.0982 283.965 67.8018 287.247 67.7612C289.755 67.805 292.25 67.3744 294.603 66.4914C296.633 65.712 298.486 64.5214 300.048 62.992C301.535 61.5266 302.694 59.7534 303.446 57.7929C304.242 55.7434 304.644 53.5574 304.627 51.3541C304.711 49.202 304.192 47.0699 303.13 45.2052C302.118 43.5981 300.774 42.2336 299.192 41.2059C297.454 40.0798 295.589 39.1701 293.638 38.4964C291.56 37.7665 289.433 37.0566 287.237 36.3567C285.041 35.6569 282.924 34.887 280.846 34.0172C278.843 33.2003 276.968 32.0886 275.283 30.7177C273.634 29.3555 272.291 27.6511 271.344 25.7186C270.27 23.3597 269.757 20.7773 269.847 18.18C269.846 15.8416 270.295 13.5255 271.167 11.3612C272.05 9.18127 273.367 7.21035 275.037 5.57219C276.857 3.83014 278.999 2.47095 281.339 1.5729C284.066 0.500364 286.971 -0.0324521 289.896 0.00317504C293.202 -0.0489667 296.488 0.541542 299.576 1.74287C301.724 2.6307 303.723 3.84007 305.509 5.32674C306.687 6.30757 306.914 7.98801 306.213 9.35152V9.35152Z" fill="white" />
	<path fill-rule="evenodd" clip-rule="evenodd" d="M6.74056 0C3.01785 0 0 3.01784 0 6.74055V14.5928C0 18.3155 3.01785 21.3333 6.74055 21.3333H18.6664V65.2594C18.6664 68.9822 21.6843 72 25.407 72H33.2592C36.9819 72 39.9998 68.9822 39.9998 65.2594V14.6499C39.9999 14.6308 40 14.6118 40 14.5928V6.74056C40 3.01785 36.9821 0 33.2594 0H25.407H6.74056Z" fill="white" />
	<path d="M55.9987 21.3333C61.8897 21.3333 66.6654 16.5577 66.6654 10.6667C66.6654 4.77563 61.8897 0 55.9987 0C50.1077 0 45.332 4.77563 45.332 10.6667C45.332 16.5577 50.1077 21.3333 55.9987 21.3333Z" fill="#0016DE" />
	<path d="M339.098 5C340.81 5 342.197 6.38718 342.197 8.09836V64.9016C342.197 66.6128 340.81 68 339.098 68V68C337.387 68 336 66.6128 336 64.9016V8.09836C336 6.38718 337.387 5 339.098 5V5Z" fill="#BEBEBE" />
	<path d="M416.211 27.1284C417.568 27.1284 418.531 28.451 418.115 29.7424L408.824 58.543C408.558 59.3691 407.789 59.929 406.921 59.929H403.536C402.669 59.929 401.901 59.3708 401.634 58.5464L393.913 34.7596L386.256 58.5419C385.99 59.3685 385.221 59.929 384.352 59.929H381.038C380.17 59.929 379.401 59.3691 379.135 58.543L369.844 29.7424C369.428 28.451 370.391 27.1284 371.748 27.1284H373.934C374.821 27.1284 375.602 27.7124 375.853 28.563L382.729 51.8962H382.796L390.448 28.5065C390.717 27.6845 391.484 27.1284 392.349 27.1284H395.811C396.676 27.1284 397.443 27.6845 397.712 28.5065L405.364 51.8962H405.431L412.243 28.5678C412.492 27.7148 413.274 27.1284 414.163 27.1284H416.211Z" fill="white" />
	<path d="M426.803 49.888C426.803 51.4945 427.472 52.8333 428.812 53.9044C430.196 54.9754 431.803 55.5109 433.633 55.5109C436.223 55.5109 438.522 54.5515 440.531 52.6325C442.324 50.9565 443.335 49.0251 443.562 46.8385C443.625 46.23 443.338 45.6386 442.819 45.3152C440.978 44.1688 438.563 43.5956 435.575 43.5956C433.075 43.5956 430.977 44.1981 429.28 45.403C427.628 46.6079 426.803 48.1029 426.803 49.888ZM434.772 26.0574C439.325 26.0574 442.919 27.2846 445.553 29.7391C448.187 32.1489 449.504 35.4736 449.504 39.7131V57.929C449.504 59.0335 448.609 59.929 447.504 59.929H445.611C444.507 59.929 443.611 59.0335 443.611 57.929V55.5522C443.611 55.4555 443.533 55.3771 443.436 55.3771V55.3771C443.378 55.3771 443.324 55.4063 443.291 55.4541C440.752 59.1514 437.376 61 433.164 61C429.548 61 426.512 59.929 424.057 57.7869C421.646 55.6448 420.441 52.9672 420.441 49.7541C420.441 46.3625 421.713 43.6626 424.258 41.6544C426.847 39.6462 430.285 38.6421 434.571 38.6421C437.611 38.6421 440.205 39.1038 442.352 40.0272C442.929 40.2752 443.611 39.8724 443.611 39.2445V39.2445C443.611 37.1025 442.763 35.2951 441.066 33.8224C439.37 32.3051 437.383 31.5464 435.106 31.5464C432.315 31.5464 429.994 32.5029 428.145 34.4159C427.401 35.1854 426.223 35.4482 425.317 34.8781L423.288 33.6011C422.321 32.9927 422.05 31.6877 422.821 30.845C425.74 27.6532 429.724 26.0574 434.772 26.0574Z" fill="white" />
	<path d="M460.614 12C461.719 12 462.614 12.8954 462.614 14V57.929C462.614 59.0335 461.719 59.929 460.614 59.929H458.453C457.349 59.929 456.453 59.0335 456.453 57.929V14C456.453 12.8954 457.349 12 458.453 12H460.614Z" fill="white" />
	<path d="M474.282 12C475.387 12 476.282 12.8954 476.282 14V57.929C476.282 59.0335 475.387 59.929 474.282 59.929H472.121C471.017 59.929 470.121 59.0335 470.121 57.929V14C470.121 12.8954 471.017 12 472.121 12H474.282Z" fill="white" />
	<path d="M498.195 61C493.373 61 489.4 59.3488 486.275 56.0465C483.15 52.7441 481.587 48.5715 481.587 43.5287C481.587 38.5305 483.105 34.3802 486.141 31.0779C489.177 27.7309 493.061 26.0574 497.793 26.0574C502.659 26.0574 506.521 27.6416 509.378 30.8101C512.28 33.934 513.731 38.3297 513.731 43.9973V43.9973C513.693 44.3773 513.373 44.6667 512.991 44.6667H488.91C488.347 44.6667 487.891 45.1326 487.946 45.693C488.216 48.4355 489.266 50.6817 491.096 52.4317C493.15 54.3953 495.605 55.3771 498.463 55.3771C501.825 55.3771 504.566 53.939 506.685 51.063C507.312 50.2133 508.443 49.8466 509.392 50.3092L511.332 51.2556C512.35 51.7519 512.763 53.0026 512.118 53.9329C510.773 55.8704 509.078 57.4451 507.034 58.6571C504.445 60.219 501.498 61 498.195 61ZM488.678 38.3764C488.48 38.9848 488.958 39.5792 489.597 39.5792H506.087C506.67 39.5792 507.135 39.0802 507.022 38.5081C506.667 36.7084 505.778 35.1912 504.356 33.9563C502.704 32.439 500.472 31.6803 497.659 31.6803C495.338 31.6803 493.329 32.3944 491.632 33.8224C490.265 35.0042 489.28 36.5222 488.678 38.3764Z" fill="white" />
	<path d="M531.376 60.4645C528.697 60.4645 526.465 59.6389 524.679 57.9877C522.938 56.3365 522.045 54.0383 522 51.0929V32.7514H518.241C517.137 32.7514 516.241 31.8559 516.241 30.7514V29.1284C516.241 28.0238 517.137 27.1284 518.241 27.1284H522V19.0874C522 17.9829 522.896 17.0874 524 17.0874H526.161C527.266 17.0874 528.161 17.9829 528.161 19.0874V27.1284H534.197C535.302 27.1284 536.197 28.0238 536.197 29.1284V30.7514C536.197 31.8559 535.302 32.7514 534.197 32.7514H528.161V49.0847C528.161 51.2714 528.585 52.7664 529.434 53.5697C530.282 54.3283 531.242 54.7077 532.313 54.7077C532.804 54.7077 533.273 54.663 533.72 54.5738V54.5738C534.458 54.3723 535.277 54.7222 535.533 55.4442L536.338 57.7207C536.705 58.7574 536.165 59.9063 535.087 60.1231C533.955 60.3507 532.718 60.4645 531.376 60.4645Z" fill="white" />
</svg>
