<svg width="193" height="26" viewBox="0 0 193 26" fill="none" xmlns="http://www.w3.org/2000/svg">
	<path fill-rule="evenodd" clip-rule="evenodd" d="M48.939 18.2515C49.5388 16.5441 49.8333 14.743 49.8088 12.9319C49.8324 11.1267 49.5379 9.33169 48.939 7.63024C48.4046 6.11526 47.5715 4.72485 46.49 3.54267C45.4281 2.40497 44.1358 1.51072 42.7008 0.920583C41.1527 0.292511 39.4965 -0.0200245 37.8278 0.00105752C36.1615 -0.0207738 34.5079 0.295611 32.9656 0.931358C31.5361 1.52639 30.2473 2.41866 29.1834 3.54985C28.1012 4.72878 27.268 6.11699 26.7345 7.63024C26.1356 9.33169 25.8411 11.1267 25.8647 12.9319C25.8402 14.743 26.1347 16.5441 26.7345 18.2515C27.268 19.7647 28.1012 21.1529 29.1834 22.3319C30.2457 23.4631 31.5351 24.3533 32.9656 24.9432C36.0966 26.1691 39.5697 26.1691 42.7008 24.9432C44.1338 24.3543 45.4257 23.4641 46.49 22.3319C47.5722 21.1529 48.4054 19.7647 48.939 18.2515ZM47.2024 8.17274C47.7021 9.70793 47.9431 11.3166 47.9153 12.932C47.9447 14.5499 47.7037 16.1612 47.2024 17.6984C46.7638 19.0171 46.0613 20.2311 45.1384 21.2652C44.2499 22.245 43.1532 23.0099 41.9302 23.503C39.2911 24.5234 36.3705 24.5234 33.7314 23.503C32.51 23.0069 31.414 22.2424 30.5232 21.2652C29.5959 20.2318 28.8886 19.0179 28.445 17.6984C27.9345 16.1629 27.6863 14.5512 27.7106 12.932C27.691 11.3211 27.9405 9.71827 28.4485 8.1907C28.8891 6.8623 29.5965 5.63959 30.5267 4.59881C31.4192 3.62173 32.5146 2.85519 33.735 2.35387C36.3715 1.31929 39.2973 1.31929 41.9338 2.35387C43.1557 2.85212 44.2518 3.6191 45.142 4.59881C46.0644 5.63537 46.7657 6.85182 47.2024 8.17274Z" fill="#0364FF" />
	<path fill-rule="evenodd" clip-rule="evenodd" d="M68.4683 25.862C69.064 25.862 69.4009 25.1787 69.0381 24.7061L61.334 14.6695C61.1255 14.3837 60.8677 14.1401 60.5738 13.9511C61.592 13.8385 62.5892 13.5748 63.5348 13.1681C64.3636 12.8083 65.1231 12.2973 65.7772 11.6594C66.3896 11.0506 66.8731 10.3167 67.1969 9.50428C67.5353 8.64605 67.7041 7.72638 67.6933 6.79954C67.6864 4.57015 66.9667 2.87954 65.5342 1.72772C64.1017 0.575908 61.9496 0 59.0777 0H53.402C53.0052 0 52.6836 0.321642 52.6836 0.718407V25.1436C52.6836 25.5403 53.0052 25.862 53.402 25.862H53.7841C54.1809 25.862 54.5025 25.5403 54.5025 25.1436V14.885C54.5025 14.4883 54.8242 14.1666 55.2209 14.1666H57.7794C57.9895 14.1646 58.1994 14.1778 58.4077 14.2061C58.5596 14.2224 58.7082 14.2624 58.8486 14.3247C58.9767 14.3774 59.0944 14.4541 59.1957 14.551C59.3029 14.6616 59.4005 14.7818 59.4873 14.9101L67.5059 25.4022C67.5995 25.5541 67.73 25.6779 67.8843 25.7614C68.0426 25.8336 68.2146 25.868 68.3876 25.862H68.4683ZM61.7927 12.3635C60.8262 12.6523 59.8238 12.7915 58.8179 12.7766H55.2215C54.8247 12.7766 54.5031 12.4549 54.5031 12.0582V2.19833C54.5031 1.80157 54.8247 1.47993 55.2215 1.47993H59.0817C61.301 1.48232 62.9892 1.92772 64.1463 2.81613C65.3033 3.70453 65.8819 5.06827 65.8819 6.90735C65.8944 7.7439 65.7322 8.57338 65.4063 9.33909C65.0883 10.0577 64.6129 10.6898 64.0178 11.1854C63.3588 11.7266 62.6025 12.1271 61.7927 12.3635Z" fill="#0364FF" />
	<path d="M82.3795 24.2152C83.5017 24.2359 84.6157 24.0182 85.6493 23.5763C86.5794 23.1686 87.4111 22.5625 88.0874 21.7997C88.769 21.0181 89.2887 20.1065 89.6157 19.1187C89.9714 18.0468 90.1468 16.9222 90.1346 15.7917V0.911629C90.1346 0.408151 90.5428 0 91.0462 0V0C91.5497 0 91.9579 0.40815 91.9579 0.911629V15.7917C91.9695 17.1367 91.7457 18.4732 91.2968 19.7396C90.8786 20.9218 90.231 22.0077 89.3918 22.9339C88.5484 23.8595 87.5199 24.5935 86.3744 25.0873C83.8095 26.1211 80.9495 26.1211 78.3847 25.0873C77.2386 24.5945 76.2099 23.8603 75.3673 22.9339C74.5269 22.0087 73.8791 20.9225 73.4623 19.7396C73.0134 18.4732 72.7896 17.1367 72.8012 15.7917V0.915184C72.8012 0.409742 73.211 0 73.7164 0V0C74.2218 0 74.6316 0.409742 74.6316 0.915183V15.7702C74.6213 16.9023 74.7991 18.0281 75.1576 19.1008C75.4848 20.0869 76.0018 20.998 76.6787 21.7818C77.3492 22.5509 78.1776 23.1633 79.1062 23.5763C80.1399 24.0221 81.2558 24.2399 82.3795 24.2152Z" fill="#0364FF" />
	<path d="M109.99 3.3591C109.912 3.54456 109.733 3.66474 109.534 3.66437C109.306 3.6258 109.097 3.50922 108.943 3.33396C108.636 3.06985 108.31 2.82973 107.967 2.61568C107.483 2.30956 106.965 2.06131 106.425 1.87585C104.904 1.3996 103.276 1.41214 101.763 1.91176C101.121 2.14729 100.534 2.51399 100.037 2.98918C99.5777 3.43163 99.2161 3.96772 98.9756 4.56222C98.7378 5.15752 98.6176 5.79452 98.6219 6.43693C98.5918 7.18336 98.7775 7.92242 99.156 8.56303C99.5244 9.13634 100.006 9.62556 100.571 9.99959C101.196 10.4101 101.867 10.7428 102.569 10.9908C103.312 11.2566 104.08 11.5223 104.865 11.7845C105.65 12.0467 106.418 12.3376 107.161 12.65C107.878 12.9503 108.55 13.3504 109.159 13.8388C109.746 14.3191 110.228 14.9184 110.574 15.5986C110.955 16.4093 111.138 17.3011 111.108 18.1988C111.117 19.2206 110.938 20.2352 110.581 21.1904C110.235 22.1051 109.703 22.9359 109.021 23.629C108.307 24.3411 107.457 24.8972 106.524 25.263C105.444 25.6781 104.297 25.8805 103.142 25.8592C101.68 25.8988 100.227 25.5965 98.8978 24.9757C97.9876 24.5215 97.1525 23.9302 96.42 23.2232C96.0246 22.8415 95.9845 22.234 96.2768 21.7686V21.7686C96.3892 21.6046 96.5717 21.5046 96.7685 21.4993C96.9239 21.5232 97.067 21.599 97.1752 21.7147L97.773 22.2391C98.0065 22.451 98.2894 22.6772 98.6184 22.9214C98.9766 23.1849 99.3592 23.4122 99.7609 23.6002C100.831 24.1019 101.999 24.3546 103.178 24.34C104.079 24.3558 104.975 24.2011 105.82 23.8839C106.549 23.604 107.215 23.1763 107.776 22.6269C108.31 22.1006 108.726 21.4636 108.996 20.7594C109.283 20.0232 109.427 19.238 109.421 18.4466C109.451 17.6735 109.264 16.9077 108.883 16.2379C108.52 15.6606 108.037 15.1704 107.468 14.8013C106.844 14.3968 106.174 14.07 105.473 13.828C104.727 13.5659 103.963 13.3109 103.174 13.0595C102.385 12.8081 101.625 12.5315 100.879 12.2191C100.159 11.9257 99.4854 11.5263 98.8801 11.0339C98.2878 10.5446 97.8054 9.93236 97.4653 9.23822C97.0794 8.39089 96.8952 7.46326 96.9276 6.5303C96.9274 5.69035 97.0884 4.85839 97.4016 4.08097C97.7188 3.29795 98.1921 2.58998 98.7917 2.00155C99.4456 1.3758 100.215 0.887574 101.055 0.56499C102.035 0.179733 103.079 -0.0116569 104.129 0.00114049C105.317 -0.017589 106.497 0.194524 107.606 0.626044C108.378 0.944956 109.096 1.37937 109.737 1.91338C110.161 2.2657 110.242 2.86932 109.99 3.3591V3.3591Z" fill="#0364FF" />
	<path fill-rule="evenodd" clip-rule="evenodd" d="M2.42123 0C1.08402 0 0 1.08402 0 2.42123V5.24177C0 6.57898 1.08402 7.66301 2.42123 7.66301H6.70504V23.4414C6.70504 24.7786 7.78906 25.8626 9.12627 25.8626H11.9468C13.284 25.8626 14.368 24.7786 14.368 23.4414V5.26228C14.3681 5.25545 14.3681 5.24862 14.3681 5.24178V2.42123C14.3681 1.08402 13.2841 0 11.9469 0H9.12628H2.42123Z" fill="#0364FF" />
	<path d="M20.1167 7.663C22.2327 7.663 23.9482 5.94758 23.9482 3.8315C23.9482 1.71542 22.2327 0 20.1167 0C18.0006 0 16.2852 1.71542 16.2852 3.8315C16.2852 5.94758 18.0006 7.663 20.1167 7.663Z" fill="#0016DE" />
	<path d="M121.804 1.79602C122.419 1.79602 122.917 2.2943 122.917 2.90896V23.3129C122.917 23.9276 122.419 24.4258 121.804 24.4258V24.4258C121.19 24.4258 120.691 23.9276 120.691 23.3129V2.90896C120.691 2.2943 121.19 1.79602 121.804 1.79602V1.79602Z" fill="#BEBEBE" />
	<path d="M149.507 9.7446C149.994 9.7446 150.34 10.2197 150.191 10.6836L146.853 21.0288C146.758 21.3256 146.482 21.5267 146.17 21.5267H144.954C144.643 21.5267 144.367 21.3262 144.271 21.0301L141.497 12.4857L138.747 21.0284C138.651 21.3254 138.375 21.5267 138.063 21.5267H136.872C136.561 21.5267 136.284 21.3256 136.189 21.0288L132.852 10.6836C132.702 10.2197 133.048 9.7446 133.535 9.7446H134.321C134.639 9.7446 134.92 9.95437 135.01 10.2599L137.48 18.6413H137.504L140.253 10.2396C140.349 9.94433 140.625 9.7446 140.935 9.7446H142.179C142.49 9.7446 142.765 9.94433 142.862 10.2396L145.61 18.6413H145.634L148.081 10.2616C148.171 9.95523 148.452 9.7446 148.771 9.7446H149.507Z" fill="black" />
	<path d="M153.311 17.9199C153.311 18.497 153.552 18.9779 154.033 19.3626C154.53 19.7473 155.107 19.9397 155.765 19.9397C156.695 19.9397 157.521 19.5951 158.242 18.9058C158.887 18.3037 159.25 17.61 159.331 16.8245C159.354 16.606 159.251 16.3935 159.064 16.2774C158.403 15.8656 157.536 15.6597 156.462 15.6597C155.564 15.6597 154.811 15.8761 154.201 16.3089C153.608 16.7417 153.311 17.2787 153.311 17.9199ZM156.174 9.35988C157.81 9.35988 159.1 9.80071 160.047 10.6824C160.993 11.548 161.466 12.7422 161.466 14.2651V20.8083C161.466 21.205 161.144 21.5267 160.747 21.5267H160.067C159.671 21.5267 159.349 21.205 159.349 20.8083V19.9545C159.349 19.9198 159.321 19.8916 159.286 19.8916V19.8916C159.265 19.8916 159.246 19.9021 159.234 19.9193C158.322 21.2474 157.109 21.9114 155.596 21.9114C154.298 21.9114 153.207 21.5267 152.325 20.7572C151.459 19.9878 151.026 19.026 151.026 17.8718C151.026 16.6535 151.483 15.6837 152.397 14.9624C153.327 14.241 154.562 13.8804 156.102 13.8804C157.194 13.8804 158.125 14.0462 158.897 14.3779C159.104 14.467 159.349 14.3223 159.349 14.0968V14.0968C159.349 13.3273 159.044 12.6781 158.435 12.1491C157.826 11.6041 157.112 11.3316 156.294 11.3316C155.291 11.3316 154.458 11.6751 153.793 12.3623C153.526 12.6387 153.103 12.7331 152.778 12.5283L152.049 12.0696C151.702 11.8511 151.604 11.3823 151.881 11.0796C152.93 9.93312 154.361 9.35988 156.174 9.35988Z" fill="black" />
	<path d="M165.456 4.31042C165.853 4.31042 166.175 4.63207 166.175 5.02883V20.8083C166.175 21.205 165.853 21.5267 165.456 21.5267H164.68C164.283 21.5267 163.962 21.205 163.962 20.8083V5.02883C163.962 4.63207 164.283 4.31042 164.68 4.31042H165.456Z" fill="black" />
	<path d="M170.366 4.31042C170.763 4.31042 171.084 4.63207 171.084 5.02883V20.8083C171.084 21.205 170.763 21.5267 170.366 21.5267H169.59C169.193 21.5267 168.871 21.205 168.871 20.8083V5.02883C168.871 4.63207 169.193 4.31042 169.59 4.31042H170.366Z" fill="black" />
	<path d="M178.956 21.9114C177.224 21.9114 175.796 21.3183 174.674 20.1321C173.551 18.9458 172.99 17.447 172.99 15.6356C172.99 13.8403 173.535 12.3495 174.626 11.1633C175.716 9.96101 177.111 9.35988 178.811 9.35988C180.559 9.35988 181.946 9.92895 182.973 11.0671C184.015 12.1892 184.536 13.7681 184.536 15.804V15.804C184.523 15.9405 184.408 16.0444 184.271 16.0444H175.621C175.418 16.0444 175.254 16.2118 175.274 16.4131C175.371 17.3982 175.748 18.205 176.406 18.8336C177.143 19.5389 178.025 19.8916 179.052 19.8916C180.26 19.8916 181.244 19.3751 182.005 18.342C182.23 18.0368 182.637 17.905 182.978 18.0712L183.675 18.4112C184.04 18.5895 184.189 19.0387 183.957 19.3729C183.474 20.0688 182.865 20.6345 182.131 21.0698C181.201 21.6309 180.142 21.9114 178.956 21.9114ZM175.537 13.7849C175.466 14.0035 175.638 14.217 175.867 14.217H181.79C182 14.217 182.167 14.0377 182.127 13.8322C181.999 13.1858 181.68 12.6408 181.169 12.1972C180.575 11.6522 179.773 11.3797 178.763 11.3797C177.929 11.3797 177.208 11.6361 176.598 12.1491C176.107 12.5736 175.753 13.1189 175.537 13.7849Z" fill="black" />
	<path d="M190.874 21.719C189.912 21.719 189.11 21.4225 188.469 20.8294C187.843 20.2363 187.523 19.4107 187.507 18.3527V11.7644H186.156C185.76 11.7644 185.438 11.4427 185.438 11.046V10.463C185.438 10.0662 185.76 9.7446 186.156 9.7446H187.507V6.85625C187.507 6.45949 187.828 6.13785 188.225 6.13785H189.001C189.398 6.13785 189.72 6.45949 189.72 6.85625V9.7446H191.888C192.285 9.7446 192.606 10.0662 192.606 10.463V11.046C192.606 11.4427 192.285 11.7644 191.888 11.7644H189.72V17.6314C189.72 18.4168 189.872 18.9539 190.177 19.2424C190.481 19.5149 190.826 19.6512 191.211 19.6512C191.387 19.6512 191.556 19.6351 191.716 19.6031V19.6031C191.982 19.5307 192.276 19.6564 192.367 19.9157L192.657 20.7335C192.789 21.1058 192.595 21.5185 192.207 21.5964C191.801 21.6782 191.356 21.719 190.874 21.719Z" fill="black" />
</svg>
