<svg width="2686" height="800" viewBox="0 0 2686 800" fill="none" xmlns="http://www.w3.org/2000/svg">
<path d="M679.191 736H120.808C89.4038 736 64 711 64 680.1V119.9C64 89 89.4038 64 120.808 64H679.191C710.596 64 736 89 736 119.9V680.2C736.1 710.9 710.596 736 679.191 736Z" fill="white"/>
<mask id="mask0" mask-type="alpha" maskUnits="userSpaceOnUse" x="64" y="64" width="672" height="672">
<rect x="64" y="64" width="672" height="672" rx="54" fill="white"/>
</mask>
<g mask="url(#mask0)">
<path d="M736 471V680.079C736 710.991 710.991 736 680.079 736H471L736 471Z" fill="black" fill-opacity="0.08"/>
<path d="M291.262 470.9L486.262 268.2C501.162 253.3 524.462 254.4 539.962 269.9L652.662 378.5C664.562 390 664.362 412.8 653.262 425C638.862 439.4 622.562 440.5 600.562 425.5L518.862 337L313.562 532.4C299.862 543 285.762 552 264.162 538.2C256.762 528.2 271.462 508.7 265.662 502.9L291.262 470.9Z" fill="#D1D9E6"/>
<path d="M282.363 538.9C265.663 538.4 252.663 527.5 252.663 514.6L253.663 282.9C253.663 270.1 265.663 254.5 282.363 254C304.563 254 314.263 271.9 314.263 285.3V515.3C314.263 528.6 299.863 539.4 282.363 538.9Z" fill="#D1D9E6"/>
<path d="M509.862 545.3C489.162 545.3 480.562 530 480.562 517.9V305.4C480.562 293.4 493.362 278.8 509.862 278.3C527.162 277.8 541.463 292.3 541.463 304.8V515C541.363 529.8 531.162 545.3 509.862 545.3Z" fill="#D1D9E6"/>
<path fill-rule="evenodd" clip-rule="evenodd" d="M190.363 380.2L252.663 442.86V285.5C252.663 272.7 262.663 257.1 275.463 256.6C288.863 256.1 299.963 271.5 299.963 284.9V431.437L300.063 428C300.063 428 302.063 442.1 314.363 423.9V431.494L483.763 270.2C495.463 259.1 513.663 259.1 525.263 270.3L637.863 378.9C649.763 390.4 650.062 409.4 638.663 421.4C627.263 433.4 608.163 433.6 596.163 422.2L541.363 369.425V377.2C529.818 358.998 527.505 365.082 527.063 367.447V515.6C526.963 528.6 516.463 543.9 503.363 543.9C490.363 543.9 479.663 528.7 479.663 515.6V374.24L469.562 383.8C469.562 383.8 473.262 363.2 462.662 373.2C462.092 373.744 461.629 374.155 461.266 374.447L296.963 530.9C296.115 531.733 295.227 532.502 294.306 533.207C289.79 538.497 282.989 541.781 275.463 541.5C268.804 541.24 262.903 538.166 258.774 533.459C257.499 532.52 256.29 531.467 255.163 530.3L147.763 422.6C136.063 410.8 136.063 391.9 147.863 380.1C159.663 368.4 178.563 368.4 190.363 380.2Z" fill="url(#paint0_linear)"/>
</g>
<path d="M1010.17 283.635L1013.12 284.618C1013.54 292.623 1013.82 307.65 1013.82 329.7C1013.82 331.104 1011.71 331.666 1007.5 331.666H978.444C975.777 331.666 974.373 333.773 974.373 337.986V510.45C974.373 510.731 973.812 511.152 972.689 511.995C971.566 512.837 970.864 513.118 970.302 513.118H917.799L915.413 511.152C914.711 510.45 914.43 458.065 914.43 353.996V333.211C887.477 333.211 874 331.526 874 328.155V285.32C874 285.039 874.842 284.477 876.667 283.354H936.751C939.839 283.775 941.805 284.196 942.366 284.337C943.068 284.337 943.349 284.056 943.349 283.354H1010.17V283.635ZM1092.72 283.073H1185.23C1206.42 283.073 1225.1 290.797 1241.24 306.246C1257.38 321.695 1265.53 340.233 1265.53 361.58C1265.53 378.293 1260.75 392.759 1251.35 404.977C1241.94 417.196 1229.17 426.746 1213.02 433.347C1212.32 433.347 1212.04 433.909 1212.04 435.032V435.313C1212.32 435.594 1212.32 435.734 1212.32 436.015L1269.46 505.815C1270.16 506.939 1270.86 508.203 1271.42 509.467C1271.98 510.731 1272.54 511.714 1272.97 512.276C1273.25 512.837 1273.53 513.259 1273.53 513.399C1273.53 514.101 1269.88 514.663 1262.44 515.225C1255.14 515.787 1250.22 516.068 1247.7 516.068C1245.87 516.068 1244.75 515.787 1244.05 515.085H1208.25C1206 514.804 1204.18 513.68 1202.63 511.433L1156.17 456.66C1155.89 456.379 1155.47 455.818 1154.76 454.975C1154.06 454.132 1153.36 453.43 1152.8 453.009C1152.1 452.587 1151.4 452.307 1150.83 452.307C1150.41 452.307 1149.85 453.711 1149.15 456.66V510.871C1149.15 512.697 1148.45 513.54 1147.18 513.54H1101.7C1097.63 513.54 1094.96 512.697 1093.7 510.871C1092.29 509.045 1091.45 506.096 1091.03 501.883C1091.03 482.08 1091.17 456.941 1091.59 426.465C1091.87 395.989 1092.15 373.097 1092.15 357.788C1092.15 355.401 1092.01 346.413 1091.87 331.104L1091.17 308.072C1091.73 291.78 1092.29 283.494 1092.72 283.073ZM1205.3 360.878C1205.3 354.699 1203.9 349.221 1200.95 344.446C1195.33 335.739 1183.82 331.385 1166.14 331.385C1163.05 331.385 1158.27 331.666 1152.1 332.087L1149.15 335.458C1149.15 338.407 1149.01 342.901 1148.87 348.941C1148.59 355.12 1148.45 360.316 1148.31 364.53C1148.17 368.743 1148.17 371.833 1148.17 373.518C1148.17 388.405 1149.57 396.832 1152.24 398.657H1155.89C1174.42 398.236 1187.19 395.708 1194.49 390.933C1201.79 386.298 1205.3 376.327 1205.3 360.878ZM1422.19 280.404H1461.92C1463.04 280.404 1466.27 286.584 1471.47 298.802C1476.66 311.021 1479.33 317.903 1479.33 319.167C1483.96 331.385 1509.23 393.742 1555.13 505.956C1555.13 509.045 1553.73 511.012 1551.06 511.854C1548.4 512.697 1543.48 512.978 1536.32 512.978L1519.34 512.697C1507.97 512.416 1499.4 512.416 1493.65 512.416C1493.23 511.012 1492.24 508.765 1490.98 505.394C1489.58 502.023 1488.59 499.495 1487.75 497.67C1486.91 495.844 1485.79 493.597 1484.24 490.928C1482.7 488.26 1481.01 485.872 1479.19 483.625C1477.64 483.625 1474.55 483.344 1469.78 482.783C1465.15 482.221 1460.94 481.94 1457.15 481.94L1415.31 482.642C1414.61 482.642 1412.65 482.502 1409.28 482.361C1405.91 482.08 1404.08 482.08 1403.94 482.08C1399.87 482.08 1396.5 487.277 1393.55 497.81C1390.61 508.343 1388.22 514.242 1386.25 515.506C1380.22 515.787 1372.78 515.506 1364.07 514.944C1355.23 514.382 1347.93 514.101 1341.89 514.101C1332.49 514.101 1327.86 512.697 1327.86 510.029C1327.86 509.607 1327.86 509.045 1328 508.343C1328.14 507.641 1328.14 507.22 1328.14 506.939L1347.51 450.762C1350.46 445.003 1353.97 436.296 1358.04 424.639C1362.11 413.123 1364.78 405.96 1365.9 403.292C1370.39 391.776 1377.97 372.395 1388.78 345.429C1399.59 318.464 1407.73 297.679 1413.35 282.932C1413.77 281.247 1416.58 280.404 1422.19 280.404ZM1425.56 436.436H1434.27C1450.27 436.015 1458.27 435.032 1458.27 433.768C1458.27 429.695 1454.76 419.583 1447.88 403.292C1445.21 396.832 1443.67 393.32 1443.25 392.618L1438.9 382.226C1437.77 382.226 1433.98 389.95 1427.67 405.258C1421.35 420.566 1418.12 429.695 1418.12 432.364C1418.12 435.032 1420.65 436.436 1425.56 436.436ZM1822.84 408.629C1822.84 409.05 1822.7 410.033 1822.56 411.578C1822.28 413.123 1822.14 414.668 1821.86 416.213L1821.58 418.179C1821.58 427.729 1821.86 442.195 1822.28 461.295C1822.7 480.395 1822.98 494.72 1822.98 504.13C1822.98 510.59 1821.58 513.821 1818.91 513.821H1775.53C1772.02 513.821 1769.36 512.557 1767.81 510.169L1726.68 448.655C1726.4 447.812 1725.42 446.267 1723.73 444.301C1721.91 442.335 1721.07 441.212 1721.07 440.931L1687.37 392.197L1683.3 387.843L1682.6 389.248C1682.6 471.969 1681.62 513.259 1679.65 513.259H1626.87L1624.9 512.276C1624.9 495.142 1625.18 465.649 1625.61 423.797C1626.03 381.945 1626.31 351.047 1626.31 330.683C1626.31 315.375 1626.03 303.718 1625.61 295.853L1627.01 286.163L1633.75 284.758L1675.86 286.163C1676.99 286.163 1678.25 287.286 1679.93 289.533C1681.48 291.78 1682.46 293.606 1682.88 294.87L1714.33 340.374C1714.75 341.216 1715.59 342.48 1716.85 344.165C1718.12 345.851 1718.96 347.115 1719.38 347.957L1762.48 407.084C1763.18 408.629 1764.02 409.471 1765.15 409.471C1765.85 409.471 1766.13 409.191 1766.13 408.488V287.848L1768.09 286.163C1768.37 285.882 1773.15 285.882 1782.41 285.882C1808.66 285.882 1821.86 286.303 1821.86 287.286L1823.26 289.252V408.629H1822.84ZM1998.46 439.807C1995.09 436.436 1990.88 433.066 1985.55 429.555C1980.35 426.044 1974.32 422.392 1967.44 418.46C1960.7 414.527 1956.49 411.999 1954.94 410.876C1926.16 392.618 1911.85 370.569 1911.85 344.727C1911.85 323.099 1919.43 306.948 1934.59 296.274C1949.75 285.601 1969.4 280.264 1993.41 280.264C2006.6 280.264 2019.8 282.932 2033.14 288.269C2035.52 289.112 2039.59 290.938 2044.93 293.606C2050.4 296.274 2053.07 298.241 2053.07 299.224L2052.79 300.909C2052.79 301.19 2052.51 301.471 2052.09 302.033C2051.67 302.594 2051.39 303.156 2051.39 303.578C2044.51 317.903 2037.77 329.419 2031.31 338.407C2031.03 339.11 2030.47 339.39 2029.63 339.39C2028.78 339.39 2023.59 337.565 2014.32 333.913C2004.92 330.262 1997.76 328.436 1992.56 328.436C1987.65 328.436 1983.16 329.84 1978.81 332.509C1974.6 335.177 1972.49 338.829 1972.49 343.604C1972.49 349.643 1975.86 355.26 1982.46 360.597C1986.95 363.968 1995.79 369.867 2009.13 378.293C2012.08 380.259 2015.87 382.928 2020.5 386.158C2025.13 389.388 2028.78 391.916 2031.59 393.882C2034.26 395.708 2037.21 398.096 2040.58 400.904C2043.94 403.713 2046.75 406.382 2048.86 409.05C2054.19 415.932 2057.84 422.252 2059.67 427.729C2061.49 433.347 2062.48 440.088 2062.48 448.093C2062.48 469.019 2054.61 486.294 2038.75 499.776C2022.89 513.259 2004.08 520 1982.32 520C1958.45 520 1936.13 514.242 1915.21 502.585C1905.81 496.827 1901.18 493.316 1901.18 492.192V490.788C1911 472.952 1919.15 459.188 1925.6 449.357C1928.69 449.357 1932.34 450.902 1936.41 453.992C1940.48 457.082 1942.87 458.767 1943.57 459.048C1955.36 465.087 1968.84 468.036 1984 468.036C1997.2 468.036 2003.66 463.121 2003.66 453.29C2004.22 449.217 2002.25 444.723 1998.46 439.807ZM2219.98 280.404H2259.71C2260.84 280.404 2264.06 286.584 2269.26 298.802C2274.45 311.021 2277.12 317.903 2277.12 319.167C2281.75 331.385 2307.02 393.742 2352.93 505.956C2352.93 509.045 2351.52 511.012 2348.85 511.854C2346.19 512.697 2341.27 512.978 2334.11 512.978L2317.13 512.697C2305.76 512.416 2297.19 512.416 2291.44 512.416C2291.02 511.012 2290.03 508.765 2288.77 505.394C2287.37 502.023 2286.38 499.495 2285.54 497.67C2284.7 495.844 2283.58 493.597 2282.03 490.928C2280.49 488.26 2278.8 485.872 2276.98 483.625C2275.43 483.625 2272.35 483.344 2267.57 482.783C2262.94 482.221 2258.73 481.94 2254.94 481.94L2213.11 482.642C2212.4 482.642 2210.44 482.502 2207.07 482.361C2203.7 482.08 2201.87 482.08 2201.73 482.08C2197.66 482.08 2194.29 487.277 2191.35 497.81C2188.4 508.343 2186.01 514.242 2184.05 515.506C2178.01 515.787 2170.57 515.506 2161.87 514.944C2153.02 514.382 2145.72 514.101 2139.69 514.101C2130.28 514.101 2125.65 512.697 2125.65 510.029C2125.65 509.607 2125.65 509.045 2125.79 508.343C2125.93 507.641 2125.93 507.22 2125.93 506.939L2145.3 450.762C2148.25 445.003 2151.76 436.296 2155.83 424.639C2159.9 413.123 2162.57 405.96 2163.69 403.292C2168.18 391.776 2175.76 372.395 2186.57 345.429C2197.38 318.464 2205.52 297.679 2211.14 282.932C2211.56 281.247 2214.51 280.404 2219.98 280.404ZM2223.35 436.436H2232.06C2248.06 436.015 2256.06 435.032 2256.06 433.768C2256.06 429.695 2252.55 419.583 2245.67 403.292C2243.01 396.832 2241.46 393.32 2241.04 392.618L2236.69 382.226C2235.57 382.226 2231.78 389.95 2225.46 405.258C2219.14 420.566 2215.91 429.695 2215.91 432.364C2216.05 435.032 2218.44 436.436 2223.35 436.436ZM2472.67 279C2479.55 279 2483.06 280.264 2483.06 282.652V350.907C2483.06 353.154 2483.34 354.277 2483.76 354.277C2485.31 354.277 2487.27 352.873 2489.66 349.924C2492.04 346.974 2494.43 343.744 2496.82 340.093C2499.2 336.441 2501.17 334.054 2502.43 332.93L2539.91 282.09C2541.04 280.685 2542.58 280.124 2544.55 280.124H2593.96L2601.96 281.528C2602.38 281.528 2602.67 281.949 2602.67 282.932C2602.67 284.477 2602.38 285.46 2601.96 285.882L2587.64 308.633L2585.68 310.038L2542.86 367.198C2542.16 367.9 2541.88 368.743 2541.88 369.867C2541.88 371.411 2542.16 372.816 2542.86 373.939L2607.72 507.922C2607.72 508.203 2607.72 508.484 2607.72 508.905L2608 509.888C2608 513.68 2601.26 515.506 2587.93 515.506C2580.06 515.506 2571.08 515.225 2560.69 514.523C2550.3 513.821 2544.55 513.54 2543.42 513.54L2541.04 511.854C2539.63 510.45 2527.28 484.749 2503.56 434.611C2503.28 432.785 2501.73 429.274 2498.92 423.937C2498.22 423.937 2495.69 427.027 2491.06 433.347C2486.43 439.526 2484.04 443.318 2483.48 444.442C2483.48 448.515 2483.48 454.975 2483.62 463.823C2483.76 472.671 2483.76 481.097 2483.76 488.822C2483.76 504.692 2481.94 512.837 2478.43 513.54C2473.94 513.54 2468.46 513.68 2461.72 514.101C2454.98 514.382 2450.49 514.663 2447.96 514.663C2444.17 514.663 2439.12 514.242 2432.66 513.259C2426.21 512.416 2422.98 511.573 2422.98 510.871V395.848C2424.38 385.175 2424.94 378.995 2424.94 377.45C2424.94 367.479 2424.52 352.452 2423.54 332.368C2422.7 312.285 2422.13 297.398 2422.13 287.567C2422.13 283.494 2422.98 281.107 2424.8 280.264C2436.59 279.281 2452.32 279 2472.67 279Z" fill="white"/>
<defs>
<linearGradient id="paint0_linear" x1="124.157" y1="282.036" x2="423.971" y2="694.222" gradientUnits="userSpaceOnUse">
<stop offset="0.1304" stop-color="#3495F7"/>
<stop offset="0.3063" stop-color="#2B87F2"/>
<stop offset="0.6392" stop-color="#1461E5"/>
<stop offset="0.7232" stop-color="#0E57E1"/>
</linearGradient>
</defs>
</svg>
