<svg width="385" height="71" viewBox="0 0 385 71" fill="none" xmlns="http://www.w3.org/2000/svg">
<path d="M180.68 5.60547C182.409 5.60547 183.811 7.00686 183.811 8.73556V66.1205C183.811 67.8491 182.409 69.2506 180.68 69.2506C178.951 69.2506 177.549 67.8491 177.549 66.1205V8.73556C177.549 7.00686 178.951 5.60547 180.68 5.60547Z" fill="#BEBEBE"/>
<path d="M258.603 26.4941C259.973 26.4941 260.947 27.8302 260.526 29.135L251.137 58.2304C250.868 59.0648 250.092 59.6306 249.214 59.6306H245.794C244.917 59.6306 244.141 59.0667 243.87 58.2339L236.07 34.2034L228.332 58.2293C228.063 59.0645 227.286 59.6306 226.409 59.6306H223.06C222.182 59.6306 221.404 59.0648 221.135 58.2304L211.747 29.135C211.327 27.8302 212.301 26.4941 213.67 26.4941H215.881C216.777 26.4941 217.565 27.0842 217.819 27.9435L224.768 51.5155H224.835L232.569 27.8863C232.84 27.0558 233.616 26.4941 234.488 26.4941H237.987C238.862 26.4941 239.635 27.0558 239.908 27.8863L247.64 51.5155H247.709L254.593 27.9483C254.843 27.0864 255.634 26.4941 256.533 26.4941H258.603Z" fill="black"/>
<path d="M269.304 49.4887C269.304 51.1118 269.981 52.4641 271.334 53.5461C272.734 54.6281 274.358 55.1692 276.206 55.1692C278.823 55.1692 281.148 54.1999 283.177 52.2614C284.99 50.5681 286.011 48.6171 286.24 46.408C286.304 45.7933 286.014 45.1958 285.489 44.8692C283.63 43.7109 281.189 43.1319 278.168 43.1319C275.644 43.1319 273.522 43.7405 271.808 44.9577C270.14 46.175 269.304 47.6853 269.304 49.4887ZM277.357 25.4141C281.959 25.4141 285.59 26.6539 288.251 29.1335C290.915 31.5679 292.245 34.9268 292.245 39.2095V57.612C292.245 58.7278 291.341 59.6325 290.223 59.6325H288.311C287.194 59.6325 286.289 58.7278 286.289 57.612V55.2109C286.289 55.1132 286.21 55.034 286.113 55.034C286.054 55.034 285.999 55.0635 285.966 55.1119C283.4 58.8468 279.989 60.7145 275.733 60.7145C272.079 60.7145 269.011 59.6325 266.531 57.4685C264.094 55.3045 262.875 52.5994 262.875 49.3534C262.875 45.9271 264.161 43.1996 266.732 41.1708C269.349 39.1421 272.823 38.1275 277.154 38.1275C280.226 38.1275 282.848 38.5941 285.018 39.5268C285.599 39.7775 286.289 39.3706 286.289 38.7363C286.289 36.5723 285.433 34.7465 283.717 33.2586C282.004 31.7258 279.996 30.9593 277.696 30.9593C274.874 30.9593 272.53 31.9257 270.661 33.8582C269.91 34.6355 268.717 34.9012 267.803 34.3251L265.753 33.035C264.776 32.4205 264.501 31.1021 265.28 30.2507C268.229 27.0263 272.255 25.4141 277.357 25.4141Z" fill="black"/>
<path d="M303.473 11.2109C304.588 11.2109 305.493 12.1155 305.493 13.2314V57.6102C305.493 58.726 304.588 59.6307 303.473 59.6307H301.288C300.172 59.6307 299.268 58.726 299.268 57.6102V13.2314C299.268 12.1155 300.172 11.2109 301.288 11.2109H303.473Z" fill="black"/>
<path d="M317.285 11.2109C318.401 11.2109 319.306 12.1155 319.306 13.2314V57.6102C319.306 58.726 318.401 59.6307 317.285 59.6307H315.1C313.985 59.6307 313.08 58.726 313.08 57.6102V13.2314C313.08 12.1155 313.985 11.2109 315.1 11.2109H317.285Z" fill="black"/>
<path d="M341.447 60.7145C336.575 60.7145 332.56 59.0464 329.402 55.7101C326.243 52.3741 324.666 48.1587 324.666 43.0643C324.666 38.0149 326.199 33.8221 329.267 30.4859C332.334 27.1046 336.259 25.4141 341.042 25.4141C345.959 25.4141 349.861 27.0146 352.749 30.2155C355.681 33.3713 357.148 37.812 357.148 43.5376C357.109 43.9215 356.786 44.2139 356.401 44.2139H332.065C331.497 44.2139 331.035 44.6846 331.091 45.2507C331.364 48.0214 332.426 50.2906 334.274 52.0585C336.351 54.0422 338.831 55.034 341.718 55.034C345.116 55.034 347.886 53.5813 350.027 50.6757C350.661 49.8173 351.803 49.4468 352.762 49.9143L354.724 50.8704C355.752 51.3717 356.169 52.6353 355.516 53.5751C354.158 55.5323 352.446 57.1232 350.381 58.3476C347.764 59.9255 344.785 60.7145 341.447 60.7145ZM331.83 37.8592C331.63 38.474 332.114 39.0745 332.76 39.0745H349.422C350.012 39.0745 350.482 38.5702 350.368 37.9923C350.009 36.1741 349.112 34.6414 347.673 33.3939C346.004 31.861 343.748 31.0946 340.907 31.0946C338.56 31.0946 336.53 31.816 334.816 33.2586C333.435 34.4525 332.439 35.986 331.83 37.8592Z" fill="black"/>
<path d="M374.979 60.1727C372.273 60.1727 370.017 59.3386 368.212 57.6707C366.453 56.0026 365.55 53.6807 365.505 50.7052V32.1759H361.706C360.59 32.1759 359.686 31.2712 359.686 30.1554V28.5159C359.686 27.4 360.59 26.4954 361.706 26.4954H365.505V18.372C365.505 17.2562 366.41 16.3516 367.526 16.3516H369.709C370.826 16.3516 371.731 17.2562 371.731 18.372V26.4954H377.829C378.947 26.4954 379.851 27.4 379.851 28.5159V30.1554C379.851 31.2712 378.947 32.1759 377.829 32.1759H371.731V48.6765C371.731 50.8855 372.159 52.3958 373.017 53.2074C373.873 53.9738 374.843 54.3571 375.927 54.3571C376.422 54.3571 376.897 54.3118 377.347 54.2218C378.095 54.0183 378.921 54.3716 379.179 55.1011L379.993 57.4009C380.363 58.4482 379.818 59.609 378.73 59.8278C377.586 60.0578 376.336 60.1727 374.979 60.1727Z" fill="black"/>
<path d="M41.5888 41.8906H38.7421L37.0901 50.3284C36.4967 51.203 35.8243 52.0203 35.0817 52.7699L37.1654 41.8906H33.9537L31.2878 55.5656C30.7398 55.858 30.1773 56.1218 29.6026 56.3559L32.4299 41.8906H29.4049L26.3602 57.332C25.8477 57.4389 25.3156 57.5233 24.7808 57.588L26.6527 47.9518C25.6674 48.7916 24.4184 49.2503 23.129 49.2457L21.4576 57.7595H19.9395L21.6109 49.1922C20.7084 49.0842 19.8628 48.6904 19.1958 48.0671C18.9966 47.8813 18.8241 47.6683 18.6833 47.4342L16.7194 57.3967C16.2237 57.2984 15.7344 57.1698 15.2542 57.0114L18.1958 41.9327H15.0258L12.3266 55.7569C11.8608 55.4924 11.4115 55.1994 10.9812 54.8793L13.5021 41.9411H10.2764L8.26803 52.1793C8.08975 51.8979 7.90312 51.6419 7.73598 51.3635C7.56886 51.0851 7.31814 50.5928 7.12873 50.1851L8.75272 41.9327H5.81117C5.56496 43.2066 5.43073 44.4997 5.41004 45.7973C5.3496 48.3686 6.0132 50.9046 7.32371 53.1101C8.64752 55.2298 10.5667 56.9034 12.8364 57.917C15.5208 59.1035 18.4308 59.6797 21.3602 59.6046C26.9311 59.6046 31.4039 58.1515 34.7782 55.245C38.1524 52.3386 40.3901 48.0559 41.4914 42.3968L41.5888 41.8906Z" fill="white"/>
<path d="M78.213 41.8906H77.0262L74.9315 52.964C74.3684 53.4917 73.7606 53.9688 73.1153 54.39L75.4552 41.8906H72.2352L69.5609 56.1928C69.0223 56.409 68.4726 56.5968 67.9148 56.7554L70.7002 41.8962H67.4662L66.8478 45.2067L66.4802 45.0154C66.138 44.8564 65.7874 44.7164 65.43 44.5963L65.9453 41.8962H62.7141L62.3687 43.7075C61.8673 43.5782 61.3825 43.4487 60.9117 43.311L61.1735 41.9046H53.0788C53.6731 42.2907 54.3017 42.6202 54.9562 42.8891C56.9464 43.6778 58.985 44.3355 61.0593 44.8579C62.4519 45.1761 63.8158 45.6097 65.1375 46.1546C65.9872 46.551 66.4161 47.0658 66.4161 47.7098C66.4217 47.9338 66.3709 48.1554 66.2684 48.3541L64.597 57.4361C64.0846 57.5091 63.5497 57.5626 63.0344 57.6076L64.5357 49.5437C63.5648 49.8032 62.5621 49.9224 61.558 49.8981H61.2432L59.7864 57.7229H58.2543L59.7223 49.8475C58.5537 49.743 57.3938 49.5551 56.2515 49.2849L54.764 57.391C54.2598 57.318 53.7668 57.2419 53.2737 57.1463L54.7947 48.8884C53.7649 48.5902 52.7531 48.2324 51.764 47.8167L50.1762 56.3757C49.6719 56.2238 49.1901 56.0747 48.7193 55.9144L50.3322 47.1108C49.4262 46.6631 48.547 46.1616 47.6998 45.6088L45.6887 56.5134C47.4773 57.3952 49.3581 58.0717 51.296 58.5302C54.2413 59.2529 57.2624 59.6128 60.2935 59.6018C63.6697 59.6718 67.0272 59.0786 70.1794 57.8552C72.751 56.8656 74.9913 55.1587 76.6391 52.933C78.1588 50.7873 78.953 48.2042 78.9037 45.5667C78.9342 44.3057 78.6987 43.0526 78.213 41.8906Z" fill="white"/>
<path d="M107.94 45.0942H106.411L107.029 41.8906H103.815L103.182 45.0942H101.642L102.272 41.8906H99.0486L98.4301 45.0942H96.8926L97.5194 41.8906H94.2936L91.3938 56.775H89.8646L92.7561 41.8906H89.5331L86.6306 56.775H85.0929L88.0011 41.8906H85.1013L81.8116 58.7664H94.2101L96.5666 46.6889H110.773L111.715 41.9074H108.567L107.94 45.0942Z" fill="white"/>
<path d="M147.276 48.9024L145.736 56.7778H143.786L145.34 48.9024H142.276L140.736 56.7778H139.184L140.736 48.9024H137.49L135.95 56.7778H134.396L135.939 48.9024H132.71L131.159 56.7778H129.618L132.532 41.8906H129.276L126.354 56.775H124.799L127.724 41.8906H124.474L121.568 56.775H120.008L122.933 41.8906H120.008L116.694 58.7664H148.396L150.326 48.9052L147.276 48.9024Z" fill="white"/>
<path fill-rule="evenodd" clip-rule="evenodd" d="M67.4198 20.3734C70.0169 20.3612 72.607 20.6443 75.1413 21.2172C76.7146 21.5503 78.2522 22.0374 79.732 22.6714L77.6149 33.1175C74.3831 31.0045 70.6009 29.9117 66.7513 29.9786C65.3636 29.9145 63.9797 30.1693 62.7038 30.7241C61.7512 31.2246 61.2748 31.8208 61.2748 32.4903C61.2748 33.1597 61.7093 33.7025 62.5785 34.0852C63.9515 34.6367 65.3689 35.0678 66.8152 35.3733C68.8802 35.8376 70.9117 36.4418 72.8962 37.1819C74.5229 37.8261 75.9749 38.8508 77.133 40.1717C77.5747 40.6859 77.9389 41.2631 78.2138 41.8845H53.0797C52.1065 41.3303 51.2164 40.639 50.4361 39.8313C49.1697 38.3209 48.515 36.3829 48.6032 34.4058C48.5535 31.7638 49.3456 29.1757 50.8624 27.0225C52.5231 24.7894 54.7834 23.0841 57.3751 22.1088C60.5829 20.8885 63.9926 20.2994 67.4198 20.3734ZM98.4826 37.1285L99.7443 30.7185H117.293L119.185 21.2174H89.2093L85.1035 41.8901H111.711L112.655 37.1285H98.4826ZM136.611 21.2174H124.104L120.009 41.8901H132.519L136.611 21.2174ZM22.4367 21.2174H9.90169L5.8125 41.9323H18.1971L22.4367 21.2174ZM29.4059 41.8901L33.5174 21.2174H45.6318L41.5901 41.8901H29.4059ZM65.4404 22.0605L65.7191 24.3107H68.1006L65.8974 25.717L66.1758 27.9672L64.5297 26.5776L62.3374 27.9672L63.5268 25.717L61.8805 24.3107H64.2594L65.4404 22.0605ZM130.093 25.1545L129.814 22.9045L128.625 25.1545H126.243L127.89 26.5608L126.7 28.811L128.915 27.4216L130.55 28.811L130.271 26.5608L132.475 25.1545H130.093ZM128.419 35.2802L128.14 33.03L126.931 35.2802H124.561L126.199 36.6864L125.006 38.9365L127.218 37.5301L128.867 38.9365L128.589 36.6864L130.798 35.2802H128.419ZM93.4523 33.03L93.7308 35.2802H95.9399L93.8869 36.6864L94.1459 38.9365L92.5971 37.5301L90.5331 38.9365L91.6473 36.6864L90.1096 35.2802H92.3381L93.4523 33.03ZM95.6274 25.1545L95.3489 22.9045L94.1567 25.1545H91.7778L93.4325 26.5608L92.2347 28.811L94.4352 27.4216L96.0843 28.811L95.8057 26.5608L98.0091 25.1545H95.6274ZM104.484 22.9045L104.762 25.1545H107.144L104.94 26.5608L105.219 28.811L103.573 27.4216L101.369 28.811L102.562 26.5608L100.913 25.1545H103.294L104.484 22.9045ZM114.308 25.1545L114.029 22.9045L112.84 25.1545H110.464L112.11 26.5608L110.92 28.811L113.118 27.4216L114.764 28.811L114.486 26.5608L116.684 25.1545H114.308ZM57.1364 33.03L57.4148 35.2802H59.7966L57.5847 36.6864L57.8634 38.9365L56.217 37.5301L54.0053 38.9365L55.1975 36.6864L53.5596 35.2802H55.9301L57.1364 33.03ZM57.4148 27.2641L57.1364 25.014L55.9301 27.2641H53.5596L55.1975 28.6705L54.0053 30.9206L56.217 29.5142L57.8634 30.9206L57.5847 28.6705L59.7966 27.2641H57.4148ZM73.6183 25.1545L73.3398 22.9045L72.1504 25.1545H69.7687L71.4262 26.5608L70.2256 28.811L72.4289 27.4216L74.0752 28.811L73.7966 26.5608L76 25.1545H73.6183ZM15.6236 23.7483L15.9022 25.9984H18.281L16.0804 27.385L16.359 29.6521L14.7099 28.2458L12.5093 29.6521L13.7016 27.385L12.0525 25.9984H14.4342L15.6236 23.7483ZM14.0024 35.2802L13.7238 33.03L12.6347 35.2802H10.4062L11.9439 36.6864L10.8297 38.9365L12.8937 37.5301L14.4202 38.9365L14.1612 36.6864L16.2169 35.2802H14.0024ZM37.3922 33.03L37.6512 35.2802H39.8798L37.8267 36.6864L38.0832 38.9365L36.5454 37.5301L34.4926 38.9365L35.6066 36.6864L34.0691 35.2802H36.2976L37.3922 33.03ZM39.5688 25.9984L39.2901 23.7483L38.1007 25.9984H35.719L37.3515 27.385L36.1591 29.6521L38.371 28.2458L40.0171 29.6521L39.7386 27.385L41.9391 25.9984H39.5688Z" fill="white"/>
<path d="M46.9295 20.8436H31.4168L31.1382 22.1993L27.0323 42.8695C26.1965 46.9815 25.166 47.6764 24.8232 47.9914C24.2663 48.4947 23.4305 49.0573 21.7006 48.8858C20.5585 48.7733 19.6979 48.3682 19.2912 47.727C19.163 47.5133 18.4945 46.211 19.0879 43.6288V43.5868L23.7537 20.8436H7.80628L7.52772 22.2021L3.43851 42.9145C3.17335 44.2895 3.02794 45.6852 3.00397 47.0856C2.93848 49.9693 3.68517 52.8125 5.1572 55.2846V55.3182C6.65778 57.7216 8.83414 59.6186 11.408 60.7663C14.1494 61.9844 17.1123 62.6118 20.1074 62.6086H20.6254C26.5782 62.6086 31.4501 61.0027 35.1104 57.8469C38.7707 54.691 41.2024 50.0558 42.3779 44.0395L42.4727 43.5361L46.5144 22.8772L46.9295 20.8436Z" fill="white"/>
<path d="M137.926 20.8436H122.01L121.731 22.2021L113.92 61.7648H149.032L149.311 60.4063L151.64 48.5286H132.45L137.926 20.8436Z" fill="white"/>
<path d="M120.488 20.8436H87.1026L86.8241 22.2021L79.4396 59.7482L79.0496 61.7648H94.8605L97.2171 49.6873H111.423L111.702 48.3316L113.599 38.7687L113.997 36.7493H99.7826L100.379 33.7144H117.928L118.206 32.3587L120.098 22.8576L120.488 20.8436Z" fill="white"/>
<path d="M66.1046 20C62.6704 19.9975 59.2643 20.6235 56.0514 21.8479C53.1604 22.9344 50.6395 24.8372 48.7895 27.3298L48.7755 27.3466V27.3635C47.0575 29.7941 46.1582 32.7174 46.21 35.7032C46.1115 38.0884 46.9073 40.4233 48.4385 42.2424L48.4664 42.2763L48.497 42.3071C49.3823 43.2293 50.3934 44.0191 51.4998 44.6529C52.1659 45.0841 52.8699 45.4522 53.6029 45.7526C55.6606 46.5648 57.768 47.2421 59.9123 47.7806H59.9457C61.2325 48.0618 63.0515 48.4163 62.9345 48.9788C62.9345 48.9957 62.9567 49.471 61.1908 49.4906H60.5251C60.0264 49.4906 59.383 49.4682 59.0849 49.4486C58.0198 49.3798 56.9631 49.2113 55.9288 48.945C55.6503 48.872 54.8146 48.644 54.5166 48.5598C53.5575 48.2922 52.6176 47.9596 51.7032 47.5641C51.4245 47.443 50.9064 47.1842 50.5582 47.0015L50.3243 46.889C49.4793 46.4714 48.6607 46.0017 47.873 45.4827L45.7783 44.1185L43.0762 58.7583L44.2211 59.3209C46.1205 60.2555 48.117 60.9734 50.1738 61.4614C53.2013 62.2061 56.306 62.5839 59.422 62.5864H59.5501C59.7368 62.5864 59.9205 62.5864 60.1072 62.5864C63.5083 62.5882 66.8806 61.956 70.0544 60.7217C72.9196 59.6197 75.4152 57.7175 77.2496 55.2369V55.2201C78.9658 52.7871 79.8683 49.8645 79.8263 46.8778C79.859 45.3887 79.579 43.9096 79.0045 42.5378C78.6616 41.7606 78.2072 41.0384 77.6563 40.3946C76.3217 38.8752 74.6505 37.6954 72.7787 36.9518H72.7481C70.6921 36.1873 68.588 35.5615 66.45 35.0787H66.4303C65.0905 34.7973 63.1268 34.5161 63.1629 33.8129C63.1629 33.6892 63.1963 33.093 65.5975 33.0141C65.7145 33.0141 65.8315 33.0141 65.9457 33.0141H66.3692C69.7793 33.001 73.1196 33.9879 75.9849 35.8549L78.0407 37.1994L80.6507 24.3316L80.9293 22.9814L79.6618 22.4415C78.0822 21.7589 76.4402 21.2341 74.7592 20.8748C72.1867 20.2956 69.5591 20.0022 66.9236 20H66.1046Z" fill="white"/>
<path d="M40.8544 43.2051H38.0077L36.3557 51.6429C35.7623 52.5175 35.0899 53.3347 34.3474 54.0843L36.431 43.2051H33.2193L30.5534 56.8801C30.0055 57.1725 29.4429 57.4363 28.8682 57.6704L31.6955 43.2051H28.6705L25.6258 58.6465C25.1134 58.7533 24.5813 58.8378 24.0464 58.9024L25.9183 49.2662C24.933 50.1061 23.684 50.5648 22.3946 50.5601L20.7232 59.074H19.2051L20.8765 50.5067C19.974 50.3987 19.1285 50.0048 18.4614 49.3815C18.2622 49.1958 18.0897 48.9828 17.9489 48.7487L15.9851 58.7111C15.4893 58.6128 15 58.4843 14.5199 58.3258L17.4614 43.2471H14.2914L11.5922 57.0714C11.1264 56.8068 10.6771 56.5138 10.2468 56.1938L12.7677 43.2555H9.54205L7.53365 53.4937C7.35538 53.2123 7.16875 52.9564 7.00161 52.678C6.83449 52.3996 6.58377 51.9072 6.39435 51.4996L8.01834 43.2471H5.07679C4.83058 44.521 4.69635 45.8141 4.67566 47.1118C4.61522 49.6831 5.27883 52.2191 6.58934 54.4246C7.91314 56.5443 9.83229 58.2178 12.102 59.2315C14.7864 60.4179 17.6964 60.9941 20.6259 60.919C26.1968 60.919 30.6695 59.4659 34.0439 56.5594C37.418 53.6531 39.6557 49.3703 40.7571 43.7112L40.8544 43.2051Z" fill="#CE0E2D"/>
<path d="M77.4786 43.2051H76.2918L74.1971 54.2785C73.634 54.8061 73.0262 55.2833 72.3809 55.7044L74.7208 43.2051H71.5008L68.8266 57.5073C68.2879 57.7235 67.7383 57.9112 67.1804 58.0699L69.9659 43.2107H66.7319L66.1134 46.5212L65.7458 46.3298C65.4036 46.1708 65.053 46.0309 64.6957 45.9107L65.2109 43.2107H61.9797L61.6343 45.0219C61.1329 44.8926 60.6481 44.7632 60.1773 44.6255L60.4392 43.2191H52.3444C52.9388 43.6051 53.5673 43.9347 54.2218 44.2036C56.212 44.9922 58.2506 45.6499 60.325 46.1723C61.7175 46.4905 63.0815 46.9242 64.4032 47.469C65.2528 47.8655 65.6817 48.3802 65.6817 49.0243C65.6873 49.2483 65.6365 49.4699 65.5341 49.6685L63.8627 58.7505C63.3502 58.8236 62.8153 58.877 62.3001 58.922L63.8014 50.8581C62.8305 51.1177 61.8278 51.2369 60.8236 51.2126H60.5089L59.052 59.0373H57.5199L58.9879 51.1619C57.8193 51.0575 56.6594 50.8695 55.5171 50.5994L54.0297 58.7055C53.5254 58.6324 53.0324 58.5564 52.5394 58.4607L54.0603 50.2029C53.0305 49.9047 52.0187 49.5469 51.0296 49.1311L49.4418 57.6902C48.9376 57.5383 48.4558 57.3892 47.985 57.2289L49.5979 48.4253C48.6918 47.9776 47.8127 47.4761 46.9655 46.9232L44.9543 57.8279C46.7429 58.7096 48.6238 59.3862 50.5617 59.8447C53.5069 60.5674 56.528 60.9272 59.5591 60.9162C62.9353 60.9863 66.2928 60.3931 69.445 59.1696C72.0166 58.1801 74.2569 56.4731 75.9048 54.2474C77.4244 52.1018 78.2187 49.5187 78.1693 46.8812C78.1998 45.6202 77.9643 44.367 77.4786 43.2051Z" fill="#CE0E2D"/>
<path d="M107.206 46.4087H105.676L106.295 43.2051H103.08L102.448 46.4087H100.908L101.537 43.2051H98.3142L97.6958 46.4087H96.1582L96.785 43.2051H93.5592L90.6594 58.0895H89.1303L92.0217 43.2051H88.7987L85.8963 58.0895H84.3585L87.2667 43.2051H84.3669L81.0772 60.0808H93.4757L95.8323 48.0034H110.039L110.98 43.2219H107.832L107.206 46.4087Z" fill="#CE0E2D"/>
<path d="M146.542 50.2169L145.001 58.0923H143.052L144.606 50.2169H141.542L140.001 58.0923H138.45L140.001 50.2169H136.756L135.216 58.0923H133.661L135.205 50.2169H131.976L130.424 58.0923H128.884L131.798 43.2051H128.542L125.619 58.0895H124.065L126.99 43.2051H123.739L120.834 58.0895H119.274L122.199 43.2051H119.274L115.959 60.0808H147.662L149.592 50.2197L146.542 50.2169Z" fill="#CE0E2D"/>
<path fill-rule="evenodd" clip-rule="evenodd" d="M66.6854 21.6878C69.2825 21.6757 71.8727 21.9588 74.4069 22.5316C75.9802 22.8648 77.5178 23.3519 78.9976 23.9858L76.8805 34.432C73.6487 32.319 69.8666 31.2261 66.0169 31.293C64.6292 31.2289 63.2453 31.4838 61.9694 32.0385C61.0168 32.5391 60.5404 33.1353 60.5404 33.8047C60.5404 34.4742 60.9749 35.017 61.8442 35.3996C63.2171 35.9512 64.6345 36.3822 66.0809 36.6877C68.1458 37.152 70.1774 37.7563 72.1618 38.4963C73.7885 39.1406 75.2405 40.1652 76.3987 41.4862C76.8403 42.0004 77.2046 42.5775 77.4795 43.199H52.3453C51.3722 42.6448 50.482 41.9535 49.7017 41.1458C48.4353 39.6353 47.7806 37.6974 47.8689 35.7202C47.8191 33.0783 48.6112 30.4902 50.128 28.337C51.7888 26.1039 54.049 24.3985 56.6407 23.4232C59.8485 22.203 63.2582 21.6138 66.6854 21.6878ZM97.7482 38.4429L99.0099 32.0329H116.559L118.451 22.5318H88.475L84.3691 43.2046H110.977L111.921 38.4429H97.7482ZM135.877 22.5318H123.369L119.275 43.2046H131.785L135.877 22.5318ZM21.7023 22.5318H9.16731L5.07812 43.2468H17.4627L21.7023 22.5318ZM28.6716 43.2046L32.783 22.5318H44.8974L40.8557 43.2046H28.6716ZM64.706 23.375L64.9847 25.6251H67.3663L65.163 27.0315L65.4414 29.2816L63.7953 27.8921L61.603 29.2816L62.7924 27.0315L61.1461 25.6251H63.525L64.706 23.375ZM129.359 26.4689L129.08 24.219L127.891 26.4689H125.509L127.155 27.8753L125.966 30.1254L128.18 28.7361L129.815 30.1254L129.537 27.8753L131.74 26.4689H129.359ZM127.684 36.5946L127.406 34.3445L126.197 36.5946H123.826L125.464 38.0008L124.272 40.251L126.484 38.8446L128.133 40.251L127.854 38.0008L130.063 36.5946H127.684ZM92.7179 34.3445L92.9964 36.5946H95.2055L93.1525 38.0008L93.4115 40.251L91.8627 38.8446L89.7987 40.251L90.9129 38.0008L89.3752 36.5946H91.6037L92.7179 34.3445ZM94.893 26.4689L94.6145 24.219L93.4223 26.4689H91.0434L92.6981 27.8753L91.5003 30.1254L93.7008 28.7361L95.35 30.1254L95.0713 27.8753L97.2748 26.4689H94.893ZM103.749 24.219L104.028 26.4689H106.41L104.206 27.8753L104.485 30.1254L102.838 28.7361L100.635 30.1254L101.827 27.8753L100.178 26.4689H102.56L103.749 24.219ZM113.573 26.4689L113.295 24.219L112.105 26.4689H109.729L111.375 27.8753L110.186 30.1254L112.384 28.7361L114.03 30.1254L113.751 27.8753L115.949 26.4689H113.573ZM56.402 34.3445L56.6805 36.5946H59.0622L56.8503 38.0008L57.129 40.251L55.4826 38.8446L53.271 40.251L54.4631 38.0008L52.8252 36.5946H55.1958L56.402 34.3445ZM56.6805 28.5786L56.402 26.3284L55.1958 28.5786H52.8252L54.4631 29.9849L53.271 32.2351L55.4826 30.8287L57.129 32.2351L56.8503 29.9849L59.0622 28.5786H56.6805ZM72.8839 26.4689L72.6054 24.219L71.416 26.4689H69.0343L70.6918 27.8753L69.4912 30.1254L71.6945 28.7361L73.3409 30.1254L73.0622 27.8753L75.2657 26.4689H72.8839ZM14.8892 25.0627L15.1678 27.3129H17.5467L15.3461 28.6994L15.6246 30.9666L13.9756 29.5602L11.775 30.9666L12.9672 28.6994L11.3181 27.3129H13.6998L14.8892 25.0627ZM13.268 36.5946L12.9895 34.3445L11.9003 36.5946H9.67188L11.2095 38.0008L10.0953 40.251L12.1594 38.8446L13.6859 40.251L13.4268 38.0008L15.4826 36.5946H13.268ZM36.6578 34.3445L36.9169 36.5946H39.1454L37.0924 38.0008L37.3488 40.251L35.811 38.8446L33.7582 40.251L34.8723 38.0008L33.3347 36.5946H35.5632L36.6578 34.3445ZM38.8344 27.3129L38.5557 25.0627L37.3663 27.3129H34.9846L36.6171 28.6994L35.4247 30.9666L37.6366 29.5602L39.2827 30.9666L39.0043 28.6994L41.2048 27.3129H38.8344Z" fill="#002D74"/>
</svg>
