<svg width="137" height="25" viewBox="0 0 137 25" fill="none" xmlns="http://www.w3.org/2000/svg">
<path fill-rule="evenodd" clip-rule="evenodd" d="M69.0668 21.7896C68.1667 21.7896 67.3416 21.6018 66.5915 21.2262C66.1682 21.0094 65.8005 20.7519 65.4883 20.4536C65.2909 20.2651 64.8912 20.393 64.8912 20.663V21.0661C64.8912 21.2492 64.7397 21.3977 64.5527 21.3977H62.9293C62.7424 21.3977 62.5909 21.2492 62.5909 21.0661V4.18901C62.5909 4.00588 62.7424 3.85742 62.9293 3.85742H64.5451C64.732 3.85742 64.8836 4.00588 64.8836 4.18901V10.1291C64.8836 10.3991 65.2843 10.5278 65.4822 10.3399C65.7969 10.041 66.1676 9.783 66.5915 9.56594C67.3416 9.19033 68.1667 9.00252 69.0668 9.00252C70.6837 9.00252 72.0506 9.6231 73.1674 10.8642C74.3176 12.1217 74.8927 13.6323 74.8927 15.3961C74.8927 17.1761 74.3176 18.6867 73.1674 19.9279C72.0506 21.169 70.6837 21.7896 69.0668 21.7896ZM68.6918 19.7319C69.7919 19.7319 70.7171 19.3236 71.4672 18.5071C72.2173 17.7069 72.5924 16.6699 72.5924 15.3961C72.5924 14.1386 72.2173 13.1016 71.4672 12.285C70.7171 11.4685 69.7919 11.0602 68.6918 11.0602C67.5749 11.0602 66.6415 11.4685 65.8913 12.285C65.1579 13.1016 64.7912 14.1386 64.7912 15.3961C64.7912 16.6699 65.1579 17.7151 65.8913 18.5316C66.6415 19.3318 67.5749 19.7319 68.6918 19.7319ZM54.6863 21.7896C52.8861 21.7896 51.4025 21.1854 50.2357 19.9769C49.0688 18.7684 48.4854 17.2415 48.4854 15.3961C48.4854 13.567 49.0522 12.0482 50.1857 10.8397C51.3192 9.61492 52.7694 9.00252 54.5363 9.00252C56.3533 9.00252 57.7951 9.58226 58.862 10.7418C60.0117 11.9548 60.5613 13.7791 60.4893 15.4385C60.4801 15.6512 60.2967 15.8125 60.0793 15.8125H51.249C51.0227 15.8125 50.8391 15.996 50.8626 16.2165C50.9679 17.2072 51.359 18.0197 52.0359 18.6541C52.8027 19.3726 53.7195 19.7319 54.7864 19.7319C56.1474 19.7319 57.2358 19.1133 58.0515 17.8761C58.1606 17.7107 58.3776 17.6435 58.5582 17.7298L59.9327 18.3867C60.1264 18.4793 60.2041 18.7115 60.0918 18.8918C59.5605 19.7453 58.8589 20.4254 57.9868 20.9322C57.02 21.5038 55.9199 21.7896 54.6863 21.7896ZM51.1439 13.4777C51.0625 13.7167 51.2547 13.9508 51.5118 13.9508H57.6022C57.8365 13.9508 58.0238 13.7541 57.9763 13.5293C57.8397 12.8836 57.5099 12.3382 56.9867 11.8931C56.3699 11.3378 55.5365 11.0602 54.4863 11.0602C53.6195 11.0602 52.8694 11.3215 52.236 11.8441C51.7338 12.2696 51.3698 12.8141 51.1439 13.4777ZM47.7802 9.8549C47.8551 9.62741 47.6819 9.39446 47.4379 9.39446H45.8503C45.6909 9.39446 45.5504 9.49735 45.5054 9.64722L43.1638 17.4345C43.0699 17.7468 42.6207 17.7533 42.5174 17.4438L39.9116 9.63727C39.8632 9.49243 39.7253 9.39446 39.5698 9.39446H37.7152C37.56 9.39446 37.4223 9.49203 37.3737 9.63645L34.7443 17.449C34.6404 17.7578 34.192 17.7508 34.0982 17.4389L31.7553 9.64722C31.7102 9.49735 31.5698 9.39446 31.4103 9.39446H29.7727C29.5287 9.39446 29.3556 9.62741 29.4305 9.8549L33.1491 21.1535C33.197 21.299 33.3353 21.3977 33.4914 21.3977H35.2928C35.449 21.3977 35.5873 21.2989 35.6351 21.1533L38.2595 13.1639C38.3601 12.8576 38.8022 12.8571 38.9036 13.1631L41.5501 21.1541C41.5982 21.2993 41.7363 21.3977 41.8922 21.3977H43.7192C43.8753 21.3977 44.0136 21.299 44.0615 21.1535L47.7802 9.8549ZM119.051 20.6873C119.718 21.2915 120.551 21.5936 121.551 21.5936C122.213 21.5936 122.807 21.521 123.332 21.3757C123.511 21.3262 123.602 21.1365 123.54 20.9646L123.049 19.6046C122.983 19.4223 122.772 19.3342 122.584 19.3926C122.533 19.4084 122.481 19.4235 122.427 19.438C122.26 19.4706 122.085 19.487 121.901 19.487C121.501 19.487 121.143 19.3481 120.826 19.0705C120.51 18.7766 120.351 18.2295 120.351 17.4293V11.7837C120.351 11.6006 120.503 11.4522 120.69 11.4522H123.013C123.2 11.4522 123.352 11.3037 123.352 11.1206V9.72606C123.352 9.54292 123.2 9.39446 123.013 9.39446H120.69C120.503 9.39446 120.351 9.246 120.351 9.06287V4.18901C120.351 4.00588 120.2 3.85742 120.013 3.85742H118.389C118.202 3.85742 118.051 4.00588 118.051 4.18901V9.06287C118.051 9.246 117.899 9.39446 117.712 9.39446H116.239C116.052 9.39446 115.901 9.54292 115.901 9.72605V11.1206C115.901 11.3037 116.052 11.4522 116.239 11.4522H117.712C117.899 11.4522 118.051 11.6006 118.051 11.7837V18.1642C118.068 19.242 118.401 20.083 119.051 20.6873ZM86.1988 20.3198C87.3156 19.34 87.874 18.1152 87.874 16.6454C87.874 15.7472 87.6157 14.9388 87.0989 14.2202C86.8611 13.8786 86.5196 13.4443 85.5175 12.8939C85.3058 12.7777 85.3003 12.4679 85.5005 12.3335C86.6995 11.5285 87.299 10.3096 87.299 8.88004C87.299 7.52458 86.7906 6.42224 85.7737 5.57304C84.7402 4.69117 83.465 4.25023 81.9481 4.25023C80.7313 4.25023 79.6728 4.56869 78.7727 5.20559C77.9706 5.77311 77.3737 6.49624 76.9819 7.37496C76.9007 7.55704 76.9939 7.76503 77.1807 7.84252L78.6021 8.4323C78.8034 8.51582 79.0334 8.41543 79.1236 8.2204C79.6836 7.01074 80.6251 6.40591 81.9481 6.40591C82.8483 6.40591 83.5734 6.63454 84.1235 7.09181C84.6736 7.54907 84.9486 8.14515 84.9486 8.88004C84.9486 9.68025 84.6569 10.3335 84.0735 10.8397C83.49 11.3297 82.7399 11.5746 81.8231 11.5746H80.9037C80.6934 11.5746 80.5229 11.7417 80.5229 11.9477V13.3083C80.5229 13.5143 80.6934 13.6813 80.9037 13.6813H81.9982C82.965 13.6813 83.7901 13.9671 84.4735 14.5387C85.1736 15.1103 85.5237 15.8125 85.5237 16.6454C85.5237 17.4783 85.1903 18.1886 84.5235 18.7766C83.8401 19.3481 83.0316 19.6339 82.0982 19.6339C81.248 19.6339 80.5146 19.389 79.8978 18.899C79.387 18.4681 78.997 17.8834 78.7278 17.1448C78.6509 16.9339 78.4117 16.8192 78.2008 16.9054L76.8101 17.4731C76.6317 17.5459 76.5361 17.7384 76.5987 17.9175C76.9874 19.0307 77.6621 19.9458 78.6226 20.6628C79.6561 21.414 80.8146 21.7896 82.0982 21.7896C83.7317 21.7896 85.0986 21.2997 86.1988 20.3198ZM91.9559 17.7232C91.9559 17.07 92.2643 16.5229 92.8811 16.082C93.5145 15.641 94.2979 15.4206 95.2314 15.4206C96.429 15.4206 97.3799 15.6622 98.084 16.1456C98.1794 16.2111 98.2332 16.3201 98.2271 16.434C98.1812 17.3058 97.7993 18.0703 97.0817 18.7276C96.3316 19.4298 95.4731 19.7809 94.5063 19.7809C93.8229 19.7809 93.2228 19.5849 92.706 19.193C92.2059 18.8011 91.9559 18.3111 91.9559 17.7232ZM98.957 10.3498C97.9735 9.45162 96.6316 9.00252 94.9314 9.00252C92.8815 9.00252 91.3017 9.69329 90.1919 11.0748C90.0724 11.2236 90.1174 11.4386 90.2809 11.5394L91.7317 12.4343C91.8851 12.5289 92.0862 12.4873 92.1994 12.3487C92.9277 11.457 93.88 11.0112 95.0564 11.0112C95.9065 11.0112 96.6483 11.2888 97.2817 11.8441C97.9192 12.3864 98.1448 13.0383 98.2095 13.7745C98.2318 14.0276 97.9498 14.1912 97.7105 14.0934C96.9188 13.7697 95.9674 13.6078 94.8563 13.6078C93.2561 13.6078 91.9726 13.9753 91.0058 14.7102C90.0556 15.4451 89.5806 16.4331 89.5806 17.6742C89.5806 18.85 90.0306 19.8299 90.9308 20.6138C91.8476 21.3977 92.9811 21.7896 94.3313 21.7896C95.9148 21.7896 97.1817 21.1037 98.1318 19.7319V21.0661C98.1318 21.2492 98.2834 21.3977 98.4703 21.3977H100.094C100.281 21.3977 100.432 21.2492 100.432 21.0661V13.9998C100.432 12.4483 99.9404 11.2317 98.957 10.3498ZM113.778 21.0453C113.778 21.2399 113.617 21.3977 113.419 21.3977H111.838C111.639 21.3977 111.478 21.2399 111.478 21.0453V20.6518C111.478 20.398 111.086 20.2762 110.901 20.4543C110.611 20.7339 110.262 20.9831 109.853 21.2017C109.136 21.5936 108.386 21.7896 107.602 21.7896C106.102 21.7896 104.944 21.3732 104.127 20.5403C103.327 19.6911 102.927 18.4908 102.927 16.9393V9.74678C102.927 9.5522 103.088 9.39446 103.286 9.39446H104.867C105.066 9.39446 105.227 9.5522 105.227 9.74678V16.7924C105.277 18.7521 106.286 19.7319 108.253 19.7319C109.169 19.7319 109.936 19.3726 110.553 18.6541C111.17 17.9192 111.478 17.0455 111.478 16.033V9.74678C111.478 9.5522 111.639 9.39446 111.838 9.39446H113.419C113.617 9.39446 113.778 9.5522 113.778 9.74678V21.0453ZM125.662 4.18901C125.662 4.00588 125.814 3.85742 126 3.85742H127.624C127.811 3.85742 127.962 4.00588 127.962 4.18901V10.1403C127.962 10.3942 128.353 10.5149 128.536 10.3356C128.822 10.0569 129.164 9.8085 129.563 9.59043C130.296 9.19849 131.054 9.00252 131.838 9.00252C133.338 9.00252 134.488 9.42712 135.288 10.2763C136.105 11.1092 136.514 12.3014 136.514 13.8528V21.0661C136.514 21.2492 136.362 21.3977 136.175 21.3977H134.552C134.365 21.3977 134.213 21.2492 134.213 21.0661V14.2937C134.213 12.1381 133.238 11.0602 131.288 11.0602C130.354 11.0602 129.563 11.444 128.912 12.2115C128.279 12.9628 127.962 13.8446 127.962 14.8571V21.0661C127.962 21.2492 127.811 21.3977 127.624 21.3977H126C125.814 21.3977 125.662 21.2492 125.662 21.0661V4.18901Z" fill="#5C6C7F"/>
<path d="M20.3892 19.495C20.5231 19.9927 21.2321 19.9927 21.366 19.495L25.2206 5.16516C25.3981 4.50535 24.899 3.85742 24.2133 3.85742H21.8367C21.3647 3.85742 20.9515 4.17323 20.8293 4.6274L18.6557 12.7082C18.6255 12.8203 18.6255 12.9383 18.6557 13.0504L20.3892 19.495Z" fill="#5C6C7F"/>
<path d="M6.91808 12.6977C6.94823 12.8098 6.94823 12.9279 6.91808 13.0399L5.18455 19.4845C5.05065 19.9823 4.34161 19.9823 4.20771 19.4845L0.355934 5.16516C0.178453 4.50535 0.677561 3.85742 1.36329 3.85742H3.73987C4.21189 3.85742 4.62506 4.17323 4.74723 4.6274L6.91808 12.6977Z" fill="#5C6C7F"/>
<path d="M10.1674 22.6449C10.0494 23.0848 9.65039 23.3907 9.19454 23.3907H6.76249C6.10025 23.3907 5.61824 22.7631 5.78964 22.124L10.4697 4.67318C10.5988 4.19201 11.0352 3.85742 11.5338 3.85742H14.3624C14.861 3.85742 15.2975 4.19201 15.4265 4.67318L20.1066 22.124C20.278 22.7631 19.796 23.3907 19.1337 23.3907H16.7017C16.2458 23.3907 15.8468 23.0848 15.7288 22.6449L13.4193 14.0334C13.2901 13.5517 12.6061 13.5517 12.4769 14.0334L10.1674 22.6449Z" fill="#5C6C7F"/>
<path d="M12.094 20.829C11.9199 20.829 11.7933 20.6725 11.8383 20.5132L12.6925 17.4925C12.7625 17.2446 13.1337 17.2446 13.2038 17.4925L14.0579 20.5132C14.103 20.6725 13.9763 20.829 13.8023 20.829H12.094Z" fill="#5C6C7F"/>
</svg>
