<svg width="58" height="58" viewBox="0 0 58 58" fill="none" xmlns="http://www.w3.org/2000/svg">
<circle cx="29" cy="29" r="29" fill="#0364FF"/>
<g clip-path="url(#clip0_1168_7786)">
<path fill-rule="evenodd" clip-rule="evenodd" d="M27.6934 40.8973C27.6272 41.1514 27.8135 41.4009 28.0694 41.4009H30.311C30.5669 41.4009 30.7532 41.1514 30.687 40.8973L29.5662 36.5983C29.4631 36.2029 28.9173 36.2029 28.8142 36.5983L27.6934 40.8973Z" fill="white"/>
<path fill-rule="evenodd" clip-rule="evenodd" d="M25.4613 43.6495C25.2896 44.3079 24.7091 44.7657 24.0459 44.7657H21.0118C20.0483 44.7657 19.347 43.8264 19.5964 42.8699L25.8206 18.9953C26.0084 18.2752 26.6433 17.7744 27.3688 17.7744H30.9797C31.7051 17.7744 32.3401 18.2752 32.5278 18.9953L38.7521 42.8699C39.0015 43.8264 38.3002 44.7657 37.3367 44.7657H34.3026C33.6393 44.7657 33.0588 44.3079 32.8872 43.6495L29.8598 32.0375C29.6719 31.3165 28.6766 31.3165 28.4886 32.0375L25.4613 43.6495Z" fill="white"/>
<path fill-rule="evenodd" clip-rule="evenodd" d="M40.7231 39.1507C40.5291 39.8949 39.5017 39.8949 39.3077 39.1507L37.048 30.4832C37.0044 30.3156 37.0044 30.1392 37.048 29.9716L39.9278 18.9256C40.1048 18.2466 40.7035 17.7744 41.3875 17.7744H44.3267C45.3204 17.7744 46.0436 18.7431 45.7864 19.7295L40.7231 39.1507ZM21.3353 30.4687C21.379 30.3012 21.379 30.1247 21.3353 29.9571L18.4593 18.9256C18.2823 18.2466 17.6836 17.7744 16.9996 17.7744H14.0604C13.0668 17.7744 12.3436 18.7431 12.6007 19.7295L17.6602 39.1363C17.8542 39.8804 18.8816 39.8804 19.0756 39.1363L21.3353 30.4687Z" fill="white"/>
</g>
<defs>
<clipPath id="clip0_1168_7786">
<rect width="36" height="37" fill="white" transform="translate(11 13)"/>
</clipPath>
</defs>
</svg>
