<svg width="34" height="28" viewBox="0 0 34 28" fill="none" xmlns="http://www.w3.org/2000/svg">
    <path fill-rule="evenodd" clip-rule="evenodd"
        d="M15.6934 23.8973C15.6272 24.1514 15.8134 24.4009 16.0694 24.4009H18.311C18.5669 24.4009 18.7532 24.1514 18.6869 23.8973L17.5661 19.5983C17.4631 19.2029 16.9173 19.2029 16.8142 19.5983L15.6934 23.8973Z"
        fill="#0000ff" />
    <path fill-rule="evenodd" clip-rule="evenodd"
        d="M13.4612 26.6495C13.2895 27.3079 12.709 27.7657 12.0458 27.7657H9.01169C8.04818 27.7657 7.3469 26.8264 7.59627 25.8699L13.8205 1.99532C14.0083 1.27517 14.6433 0.774414 15.3687 0.774414H18.9796C19.705 0.774414 20.34 1.27517 20.5277 1.99532L26.752 25.8699C27.0014 26.8264 26.3001 27.7657 25.3366 27.7657H22.3025C21.6393 27.7657 21.0587 27.3079 20.8871 26.6495L17.8597 15.0375C17.6718 14.3165 16.6765 14.3165 16.4885 15.0375L13.4612 26.6495Z"
        fill="#0000ff" />
    <path fill-rule="evenodd" clip-rule="evenodd"
        d="M28.7231 22.1507C28.5291 22.8949 27.5017 22.8949 27.3077 22.1507L25.048 13.4832C25.0043 13.3156 25.0043 13.1392 25.048 12.9716L27.9278 1.92556C28.1048 1.24656 28.7035 0.774414 29.3874 0.774414H32.3267C33.3203 0.774414 34.0435 1.74309 33.7863 2.72951L28.7231 22.1507ZM9.33525 13.4687C9.37894 13.3012 9.37894 13.1247 9.33525 12.9571L6.45924 1.92556C6.28222 1.24656 5.68354 0.774414 4.99959 0.774414H2.06031C1.0667 0.774414 0.343495 1.74309 0.600662 2.72951L5.66014 22.1363C5.85415 22.8804 6.88155 22.8804 7.07556 22.1363L9.33525 13.4687Z"
        fill="#0000ff" />
</svg>