<?xml version="1.0" encoding="UTF-8"?>
<svg width="14px" height="14px" viewBox="0 0 14 14" version="1.1" xmlns="http://www.w3.org/2000/svg" xmlns:xlink="http://www.w3.org/1999/xlink">
    <!-- Generator: Sketch 55.2 (78181) - https://sketchapp.com -->
    <title>Arrow right circle</title>
    <desc>Created with Sketch.</desc>
    <g id="Invision-2" stroke="none" stroke-width="1" fill="none" fill-rule="evenodd">
        <g id="Activity-Expanded" transform="translate(-175.000000, -306.000000)">
            <g id="Group-3" transform="translate(150.000000, 294.000000)">
                <g id="Icons-/-Arrow-right-circle" transform="translate(32.000000, 19.000000) scale(-1, 1) translate(-32.000000, -19.000000) translate(24.000000, 11.000000)">
                    <rect id="Rectangle" fill="#000000" fill-rule="evenodd" opacity="0" x="0" y="0" width="16" height="16"></rect>
                    <path d="M8.75,14 L7.25,14 C4.35066667,14 2,11.6493333 2,8.75 L2,7.25 C2,4.35066667 4.35066667,2 7.25,2 L8.75,2 C11.6493333,2 14,4.35066667 14,7.25 L14,8.75 C14,11.6493333 11.6493333,14 8.75,14 Z" id="Stroke-1" stroke="#A2A5B5" stroke-width="2" stroke-linecap="round" stroke-linejoin="round"></path>
                    <path d="M10.6666667,8 L5.33333333,8" id="Stroke-3" stroke="#A2A5B5" stroke-width="2" stroke-linecap="round" stroke-linejoin="round"></path>
                    <polyline id="Stroke-5" stroke="#A2A5B5" stroke-width="2" stroke-linecap="round" stroke-linejoin="round" points="8.66666667 10 10.6666667 8 8.66666667 6"></polyline>
                </g>
            </g>
        </g>
    </g>
</svg>