<?xml version="1.0" encoding="UTF-8"?>
<svg width="18px" height="19px" viewBox="0 0 18 19" version="1.1" xmlns="http://www.w3.org/2000/svg" xmlns:xlink="http://www.w3.org/1999/xlink">
    <!-- Generator: Sketch 55.2 (78181) - https://sketchapp.com -->
    <title>Calendar dots</title>
    <desc>Created with Sketch.</desc>
    <g id="Icons" stroke="none" stroke-width="1" fill="none" fill-rule="evenodd">
        <g id="Faticons" transform="translate(-509.000000, -459.000000)">
            <g id="Icons-/-Calendar-dots" transform="translate(506.000000, 457.000000)">
                <rect id="Rectangle" fill="#000000" fill-rule="evenodd" opacity="0" x="0" y="0" width="24" height="24"></rect>
                <path d="M12,20 C5.066,20 4,18.125 4,12.5 C4,6.875 5.066,5 12,5 C18.934,5 20,6.875 20,12.5 C20,18.125 18.934,20 12,20 Z" id="Stroke-1" stroke="#A2A5B5" stroke-width="2" stroke-linecap="round" stroke-linejoin="round"></path>
                <path d="M5,10 L19,10" id="Stroke-3" stroke="#A2A5B5" stroke-width="2" stroke-linecap="round" stroke-linejoin="round"></path>
                <path d="M9,3 L9,7" id="Stroke-5" stroke="#A2A5B5" stroke-width="2" stroke-linecap="round" stroke-linejoin="round"></path>
                <path d="M15,3 L15,7" id="Stroke-7" stroke="#A2A5B5" stroke-width="2" stroke-linecap="round" stroke-linejoin="round"></path>
                <path d="M10,14 C10,14.553 9.553,15 9,15 C8.447,15 8,14.553 8,14 C8,13.447 8.447,13 9,13 C9.553,13 10,13.447 10,14" id="Fill-9" fill="#333333" fill-rule="evenodd"></path>
                <path d="M13,14 C13,14.553 12.553,15 12,15 C11.447,15 11,14.553 11,14 C11,13.447 11.447,13 12,13 C12.553,13 13,13.447 13,14" id="Fill-11" fill="#333333" fill-rule="evenodd"></path>
                <path d="M16,14 C16,14.553 15.553,15 15,15 C14.447,15 14,14.553 14,14 C14,13.447 14.447,13 15,13 C15.553,13 16,13.447 16,14" id="Fill-13" fill="#333333" fill-rule="evenodd"></path>
            </g>
        </g>
    </g>
</svg>