<?xml version="1.0" encoding="UTF-8"?>
<svg width="18px" height="18px" viewBox="0 0 18 18" version="1.1" xmlns="http://www.w3.org/2000/svg" xmlns:xlink="http://www.w3.org/1999/xlink">
    <!-- Generator: Sketch 55.2 (78181) - https://sketchapp.com -->
    <title>Chat left</title>
    <desc>Created with Sketch.</desc>
    <g id="Icons" stroke="none" stroke-width="1" fill="none" fill-rule="evenodd">
        <g id="Faticons" transform="translate(-317.000000, -652.000000)">
            <g id="Icons-/-Chat-left" transform="translate(314.000000, 649.000000)">
                <rect id="Rectangle" fill="#000000" fill-rule="evenodd" opacity="0" x="0" y="0" width="24" height="24"></rect>
                <path d="M10,11 C10,11.553 9.552,12 9,12 C8.448,12 8,11.553 8,11 C8,10.447 8.448,10 9,10 C9.552,10 10,10.447 10,11" id="Fill-1" fill="#333333" fill-rule="evenodd"></path>
                <path d="M13,11 C13,11.553 12.552,12 12,12 C11.448,12 11,11.553 11,11 C11,10.447 11.448,10 12,10 C12.552,10 13,10.447 13,11" id="Fill-3" fill="#333333" fill-rule="evenodd"></path>
                <path d="M16,11 C16,11.553 15.552,12 15,12 C14.448,12 14,11.553 14,11 C14,10.447 14.448,10 15,10 C15.552,10 16,10.447 16,11" id="Fill-5" fill="#333333" fill-rule="evenodd"></path>
                <path d="M8,18 L12,18 C18.93,18 20,16.25 20,11 C20,5.75 18.93,4 12,4 C5.07,4 4,5.75 4,11 L4,20 L8,18 Z" id="Stroke-7" stroke="#A2A5B5" stroke-width="2" stroke-linecap="round" stroke-linejoin="round"></path>
            </g>
        </g>
    </g>
</svg>