<?xml version="1.0" encoding="UTF-8"?>
<svg width="16px" height="19px" viewBox="0 0 16 19" version="1.1" xmlns="http://www.w3.org/2000/svg" xmlns:xlink="http://www.w3.org/1999/xlink">
    <!-- Generator: Sketch 55.2 (78181) - https://sketchapp.com -->
    <title>Clipboard check</title>
    <desc>Created with Sketch.</desc>
    <g id="Icons" stroke="none" stroke-width="1" fill="none" fill-rule="evenodd">
        <g id="Faticons" transform="translate(-558.000000, -507.000000)">
            <g id="Icons-/-Clipboard-check" transform="translate(554.000000, 505.000000)">
                <rect id="Rectangle" fill="#000000" fill-rule="evenodd" opacity="0" x="0" y="0" width="24" height="24"></rect>
                <path d="M16.1465,5.499 C18.2215,6.277 19.0005,8.166 19.0005,12.5 C19.0005,19 17.2505,20 12.0005,20 C6.7505,20 5.0005,19 5.0005,12.5 C5.0005,8.076 5.8105,6.2 7.9835,5.453" id="Stroke-1" stroke="#A2A5B5" stroke-width="2" stroke-linecap="round" stroke-linejoin="round"></path>
                <path d="M8,5.5 C8,3.333 9,3 12,3 C15,3 16,3.333 16,5.5 C16,7.667 15,8 12,8 C9,8 8,7.667 8,5.5 Z" id="Stroke-3" stroke="#A2A5B5" stroke-width="2" stroke-linecap="round" stroke-linejoin="round"></path>
                <polyline id="Stroke-5" stroke="#A2A5B5" stroke-width="2" stroke-linecap="round" stroke-linejoin="round" points="9 13 11 15 15 11"></polyline>
            </g>
        </g>
    </g>
</svg>