<?xml version="1.0" encoding="UTF-8"?>
<svg width="20px" height="16px" viewBox="0 0 20 16" version="1.1" xmlns="http://www.w3.org/2000/svg" xmlns:xlink="http://www.w3.org/1999/xlink">
    <!-- Generator: Sketch 55.2 (78181) - https://sketchapp.com -->
    <title>Credit card</title>
    <desc>Created with Sketch.</desc>
    <g id="Icons" stroke="none" stroke-width="1" fill="none" fill-rule="evenodd">
        <g id="Faticons" transform="translate(-268.000000, -749.000000)">
            <g id="Icons-/-Credit-card" transform="translate(266.000000, 745.000000)">
                <rect id="Rectangle" fill="#000000" fill-rule="evenodd" opacity="0" x="0" y="0" width="24" height="24"></rect>
                <path d="M12,19 C4.2,19 3,17.25 3,12 C3,6.75 4.2,5 12,5 C19.8,5 21,6.75 21,12 C21,17.25 19.8,19 12,19 Z" id="Stroke-1" stroke="#A2A5B5" stroke-width="2" stroke-linecap="round" stroke-linejoin="round"></path>
                <path d="M4,9 L20,9" id="Stroke-3" stroke="#A2A5B5" stroke-width="2" stroke-linecap="round" stroke-linejoin="round"></path>
                <path d="M7,14 L9,14" id="Stroke-5" stroke="#A2A5B5" stroke-width="2" stroke-linecap="round" stroke-linejoin="round"></path>
                <path d="M13,14 C13,14.553 12.552,15 12,15 C11.448,15 11,14.553 11,14 C11,13.447 11.448,13 12,13 C12.552,13 13,13.447 13,14" id="Fill-7" fill="#333333" fill-rule="evenodd"></path>
            </g>
        </g>
    </g>
</svg>