<?xml version="1.0" encoding="UTF-8"?>
<svg width="15px" height="15px" viewBox="0 0 15 15" version="1.1" xmlns="http://www.w3.org/2000/svg" xmlns:xlink="http://www.w3.org/1999/xlink">
    <!-- Generator: Sketch 55.2 (78181) - https://sketchapp.com -->
    <title>Edit 1</title>
    <desc>Created with Sketch.</desc>
    <g id="Icons" stroke="none" stroke-width="1" fill="none" fill-rule="evenodd">
        <g id="Faticons" transform="translate(-271.000000, -797.000000)">
            <g id="Icons-/-Edit-1" transform="translate(266.000000, 793.000000)">
                <rect id="Rectangle" fill="#000000" fill-rule="evenodd" opacity="0" x="0" y="0" width="24" height="24"></rect>
                <path d="M8.5,14.5868 C7.274,13.3608 8.618,11.6408 11.958,8.2998 C15.3,4.9588 16.274,4.3608 17.5,5.5868 C18.726,6.8128 18.128,7.7868 14.787,11.1278 C11.446,14.4698 9.726,15.8128 8.5,14.5868 Z" id="Stroke-1" stroke="#A2A5B5" stroke-width="2" stroke-linecap="round" stroke-linejoin="round"></path>
                <path d="M6.707,17.7938 C6.316,18.1848 5.684,18.1848 5.293,17.7938 C4.902,17.4028 4.902,16.7708 5.293,16.3798 C5.684,15.9888 6.316,15.9888 6.707,16.3798 C7.098,16.7708 7.098,17.4028 6.707,17.7938" id="Fill-3" fill="#333333" fill-rule="evenodd"></path>
                <path d="M9.6479,10.7343 L12.3519,13.4393" id="Stroke-6" stroke="#A2A5B5" stroke-width="2" stroke-linecap="round" stroke-linejoin="round"></path>
            </g>
        </g>
    </g>
</svg>