<?xml version="1.0" encoding="UTF-8"?>
<svg width="19px" height="19px" viewBox="0 0 19 19" version="1.1" xmlns="http://www.w3.org/2000/svg" xmlns:xlink="http://www.w3.org/1999/xlink">
    <!-- Generator: Sketch 55.2 (78181) - https://sketchapp.com -->
    <title>Edit 3</title>
    <desc>Created with Sketch.</desc>
    <g id="Icons" stroke="none" stroke-width="1" fill="none" fill-rule="evenodd">
        <g id="Faticons" transform="translate(-365.000000, -796.000000)">
            <g id="Icons-/-Edit-3" transform="translate(362.000000, 793.000000)">
                <rect id="Rectangle" fill="#000000" opacity="0" x="0" y="0" width="24" height="24"></rect>
                <g id="Group" stroke-width="1" transform="translate(4.000000, 4.000000)">
                    <path d="M16,9.06570511 C16,14.6907051 14.934,17 8,17 C1.066,17 0,14.0657051 0,9.06570511 C0,4.06570511 1,2 7,2" id="Stroke-1" stroke="#A2A5B5" stroke-width="2" stroke-linecap="round" stroke-linejoin="round"></path>
                    <path d="M10,7 C8.954,5.954 8.216,4.784 11,2 C13.784,-0.784 14.954,-0.046 16,1 C17.046,2.046 17.784,3.216 15,6 C12.216,8.784 11.046,8.046 10,7 Z" id="Stroke-3" stroke="#A2A5B5" stroke-width="2" stroke-linecap="round" stroke-linejoin="round"></path>
                    <path d="M7.707,10.2727051 C7.316,10.6637051 6.684,10.6637051 6.293,10.2727051 C5.902,9.88170511 5.902,9.24970511 6.293,8.85870511 C6.684,8.46770511 7.316,8.46770511 7.707,8.85870511 C8.098,9.24970511 8.098,9.88170511 7.707,10.2727051" id="Fill-5" fill="#333333"></path>
                </g>
            </g>
        </g>
    </g>
</svg>