<svg width="18" height="18" viewBox="0 0 18 18" fill="none" xmlns="http://www.w3.org/2000/svg">
<path fill-rule="evenodd" clip-rule="evenodd" d="M9 18C13.9706 18 18 13.9706 18 9C18 4.02944 13.9706 0 9 0C4.02944 0 0 4.02944 0 9C0 13.9706 4.02944 18 9 18Z" fill="#D3D5E2"/>
<path fill-rule="evenodd" clip-rule="evenodd" d="M6.6709 12.583C7.33301 12.583 7.85815 12.364 8.24634 11.926C8.63452 11.488 8.82861 10.8457 8.82861 9.99902V8.58838C8.82861 7.74463 8.63306 7.10229 8.24194 6.66138C7.85083 6.22046 7.32422 6 6.66211 6C5.99707 6 5.47046 6.22046 5.08228 6.66138C4.69409 7.10229 4.5 7.74463 4.5 8.58838V9.99902C4.5 10.8457 4.69482 11.488 5.08447 11.926C5.47412 12.364 6.00293 12.583 6.6709 12.583ZM6.6709 11.5986C6.37793 11.5986 6.15601 11.4814 6.00513 11.2471C5.85425 11.0127 5.77881 10.6377 5.77881 10.1221V8.45654C5.77881 7.94678 5.85352 7.57471 6.00293 7.34033C6.15234 7.10596 6.37207 6.98877 6.66211 6.98877C6.94922 6.98877 7.16895 7.10669 7.32129 7.34253C7.47363 7.57837 7.5498 7.94971 7.5498 8.45654V10.1221C7.5498 10.6377 7.4751 11.0127 7.32568 11.2471C7.17627 11.4814 6.95801 11.5986 6.6709 11.5986ZM11.5576 10.9131L10.7798 12.4907H9.32959L10.8105 10.0869L9.37354 7.73584H10.8149L11.5269 9.24756H11.5532L12.2827 7.73584H13.7329L12.3003 10.0869L13.7812 12.4907H12.3354L11.5576 10.9131Z" fill="white"/>
</svg>
