<svg width="58" height="57" viewBox="0 0 58 57" fill="none" xmlns="http://www.w3.org/2000/svg">
    <rect width="58" height="57" rx="7" fill="white"/>
    <path fill-rule="evenodd" clip-rule="evenodd" d="M41.4296 29.0698C41.4296 28.1347 41.3457 27.2356 41.1899 26.3724H28.7699V31.4734H35.867C35.5613 33.1218 34.6322 34.5185 33.2356 35.4536V38.7624H37.4975C39.991 36.4666 41.4296 33.0859 41.4296 29.0698Z" fill="#4285F4"/>
    <path fill-rule="evenodd" clip-rule="evenodd" d="M28.7694 41.9567C32.3299 41.9567 35.315 40.7759 37.4969 38.7618L33.2351 35.453C32.0542 36.2443 30.5437 36.7118 28.7694 36.7118C25.3348 36.7118 22.4276 34.3921 21.3906 31.2751H16.9849V34.6918C19.1548 39.0016 23.6144 41.9567 28.7694 41.9567Z" fill="#34A853"/>
    <path fill-rule="evenodd" clip-rule="evenodd" d="M21.3904 31.2752C21.1266 30.4839 20.9768 29.6388 20.9768 28.7696C20.9768 27.9004 21.1266 27.0553 21.3904 26.264V22.8474H16.9847C16.0915 24.6276 15.582 26.6417 15.582 28.7696C15.582 30.8975 16.0915 32.9116 16.9847 34.6918L21.3904 31.2752Z" fill="#FBBC05"/>
    <path fill-rule="evenodd" clip-rule="evenodd" d="M28.7694 20.8274C30.7055 20.8274 32.4438 21.4928 33.8105 22.7995L37.5928 19.0172C35.309 16.8892 32.324 15.5825 28.7694 15.5825C23.6144 15.5825 19.1548 18.5376 16.9849 22.8474L21.3906 26.2641C22.4276 23.1472 25.3348 20.8274 28.7694 20.8274Z" fill="#EA4335"/>
</svg>
