<svg width="20" height="20" viewBox="0 0 20 20" fill="none" xmlns="http://www.w3.org/2000/svg">
<path fill-rule="evenodd" clip-rule="evenodd" d="M19.999 10.2271C19.999 9.518 19.9341 8.83618 19.8135 8.18164H10.2031V12.0498H15.6948C15.4583 13.2997 14.7393 14.3589 13.6585 15.068V17.5771H16.9564C18.8859 15.8362 19.999 13.2725 19.999 10.2271Z" fill="#586C81"/>
<path fill-rule="evenodd" clip-rule="evenodd" d="M10.2047 20.0003C12.9598 20.0003 15.2696 19.1049 16.9579 17.5776L13.6602 15.0685C12.7464 15.6686 11.5775 16.0231 10.2047 16.0231C7.54697 16.0231 5.29743 14.264 4.49502 11.9004H1.08594V14.4913C2.76496 17.7595 6.2158 20.0003 10.2047 20.0003Z" fill="#586C81"/>
<path fill-rule="evenodd" clip-rule="evenodd" d="M4.49443 11.8997C4.29035 11.2997 4.1744 10.6588 4.1744 9.99968C4.1744 9.34059 4.29035 8.69968 4.49443 8.09969V5.50879H1.08534C0.394248 6.85878 0 8.38605 0 9.99968C0 11.6133 0.394248 13.1406 1.08534 14.4906L4.49443 11.8997Z" fill="#586C81"/>
<path fill-rule="evenodd" clip-rule="evenodd" d="M10.2047 3.97725C11.7028 3.97725 13.0479 4.4818 14.1054 5.4727L17.0321 2.60453C15.265 0.990905 12.9551 0 10.2047 0C6.2158 0 2.76496 2.2409 1.08594 5.50907L4.49502 8.09996C5.29743 5.73634 7.54697 3.97725 10.2047 3.97725Z" fill="#586C81"/>
</svg>
