<svg width="16" height="16" viewBox="0 0 16 16" fill="none" xmlns="http://www.w3.org/2000/svg">
<g id="Group 21 Copy">
<path id="Shape" fill-rule="evenodd" clip-rule="evenodd" d="M15.6796 8.1818C15.6796 7.61453 15.6287 7.06908 15.5342 6.54544H7.99963V9.63999H12.3051C12.1196 10.64 11.556 11.4873 10.7087 12.0545V14.0618H13.2942C14.8069 12.6691 15.6796 10.6182 15.6796 8.1818V8.1818Z" fill="#7F8FA4"/>
<path id="Shape_2" fill-rule="evenodd" clip-rule="evenodd" d="M7.99968 16.0001C10.1597 16.0001 11.9706 15.2837 13.2942 14.0619L10.7088 12.0547C9.9924 12.5347 9.07604 12.8183 7.99968 12.8183C5.91604 12.8183 4.1524 11.411 3.52331 9.52011H0.850586V11.5928C2.16695 14.2074 4.8724 16.0001 7.99968 16.0001V16.0001Z" fill="#7F8FA4"/>
<path id="Shape_3" fill-rule="evenodd" clip-rule="evenodd" d="M3.52364 9.51989C3.36364 9.03989 3.27273 8.52717 3.27273 7.99989C3.27273 7.47262 3.36364 6.95989 3.52364 6.47989V4.40717H0.850909C0.309091 5.48717 0 6.70898 0 7.99989C0 9.2908 0.309091 10.5126 0.850909 11.5926L3.52364 9.51989V9.51989Z" fill="#7F8FA4"/>
<path id="Shape_4" fill-rule="evenodd" clip-rule="evenodd" d="M7.99968 3.18182C9.17422 3.18182 10.2288 3.58545 11.0579 4.37818L13.3524 2.08364C11.9669 0.792727 10.156 0 7.99968 0C4.8724 0 2.16695 1.79273 0.850586 4.40727L3.52331 6.48C4.1524 4.58909 5.91604 3.18182 7.99968 3.18182V3.18182Z" fill="#7F8FA4"/>
</g>
</svg>
