<?xml version="1.0" encoding="UTF-8"?>
<svg width="18px" height="18px" viewBox="0 0 18 18" version="1.1" xmlns="http://www.w3.org/2000/svg" xmlns:xlink="http://www.w3.org/1999/xlink">
    <!-- Generator: Sketch 55.2 (78181) - https://sketchapp.com -->
    <title>Grid</title>
    <desc>Created with Sketch.</desc>
    <g id="Icons" stroke="none" stroke-width="1" fill="none" fill-rule="evenodd">
        <g id="Faticons" transform="translate(-317.000000, -460.000000)">
            <g id="Icons-/-Grid" transform="translate(314.000000, 457.000000)">
                <rect id="Rectangle" fill="#000000" fill-rule="evenodd" opacity="0" x="0" y="0" width="24" height="24"></rect>
                <path d="M17,10 C14.4,10 14,9.25 14,7 C14,4.75 14.4,4 17,4 C19.6,4 20,4.75 20,7 C20,9.25 19.6,10 17,10 Z" id="Stroke-1" stroke="#A2A5B5" stroke-width="2" stroke-linecap="round" stroke-linejoin="round"></path>
                <path d="M17,20 C14.4,20 14,19.25 14,17 C14,14.75 14.4,14 17,14 C19.6,14 20,14.75 20,17 C20,19.25 19.6,20 17,20 Z" id="Stroke-3" stroke="#A2A5B5" stroke-width="2" stroke-linecap="round" stroke-linejoin="round"></path>
                <path d="M7,10 C4.4,10 4,9.25 4,7 C4,4.75 4.4,4 7,4 C9.6,4 10,4.75 10,7 C10,9.25 9.6,10 7,10 Z" id="Stroke-5" stroke="#A2A5B5" stroke-width="2" stroke-linecap="round" stroke-linejoin="round"></path>
                <path d="M7,20 C4.4,20 4,19.25 4,17 C4,14.75 4.4,14 7,14 C9.6,14 10,14.75 10,17 C10,19.25 9.6,20 7,20 Z" id="Stroke-7" stroke="#A2A5B5" stroke-width="2" stroke-linecap="round" stroke-linejoin="round"></path>
            </g>
        </g>
    </g>
</svg>