<?xml version="1.0" encoding="UTF-8"?>
<svg width="20px" height="20px" viewBox="0 0 20 20" version="1.1" xmlns="http://www.w3.org/2000/svg" xmlns:xlink="http://www.w3.org/1999/xlink">
    <!-- Generator: Sketch 55.2 (78181) - https://sketchapp.com -->
    <title>Help circle</title>
    <desc>Created with Sketch.</desc>
    <g id="Icons" stroke="none" stroke-width="1" fill="none" fill-rule="evenodd">
        <g id="Faticons" transform="translate(-268.000000, -411.000000)">
            <g id="Icons-/-Help-circle" transform="translate(266.000000, 409.000000)">
                <rect id="Rectangle" fill="#000000" fill-rule="evenodd" opacity="0" x="0" y="0" width="24" height="24"></rect>
                <path d="M13.125,21 L10.875,21 C6.526,21 3,17.475 3,13.125 L3,10.875 C3,6.525 6.526,3 10.875,3 L13.125,3 C17.474,3 21,6.525 21,10.875 L21,13.125 C21,17.475 17.474,21 13.125,21 Z" id="Stroke-1" stroke="#A2A5B5" stroke-width="2" stroke-linecap="round" stroke-linejoin="round"></path>
                <path d="M13,16 C13,16.553 12.552,17 12,17 C11.448,17 11,16.553 11,16 C11,15.447 11.448,15 12,15 C12.552,15 13,15.447 13,16" id="Fill-3" fill="#333333" fill-rule="evenodd"></path>
                <path d="M10,10 C10,8.896 10.896,8 12,8 C13.104,8 14,8.896 14,10 C14,11.104 13.104,12 12,12 L12,13" id="Stroke-5" stroke="#A2A5B5" stroke-width="2" stroke-linecap="round" stroke-linejoin="round"></path>
            </g>
        </g>
    </g>
</svg>