<?xml version="1.0" encoding="UTF-8"?>
<svg width="20px" height="18px" viewBox="0 0 20 18" version="1.1" xmlns="http://www.w3.org/2000/svg" xmlns:xlink="http://www.w3.org/1999/xlink">
    <!-- Generator: Sketch 55.2 (78181) - https://sketchapp.com -->
    <title>Home</title>
    <desc>Created with Sketch.</desc>
    <g id="Icons" stroke="none" stroke-width="1" fill="none" fill-rule="evenodd">
        <g id="Faticons" transform="translate(-220.000000, -988.000000)">
            <g id="Icons-/-Home" transform="translate(218.000000, 985.000000)">
                <rect id="Rectangle" fill="#000000" fill-rule="evenodd" opacity="0" x="0" y="0" width="24" height="24"></rect>
                <path d="M12,20 C5,20 4,19 4,15 C4,11 9,8 12,8 C15,8 20,11 20,15 C20,19 19,20 12,20 Z" id="Stroke-1" stroke="#A2A5B5" stroke-width="2" stroke-linecap="round" stroke-linejoin="round"></path>
                <path d="M3,9 C6,5 10.062,4 12,4 C13.875,4 18,5 21,9" id="Stroke-3" stroke="#A2A5B5" stroke-width="2" stroke-linecap="round" stroke-linejoin="round"></path>
                <polyline id="Stroke-5" stroke="#A2A5B5" stroke-width="2" stroke-linecap="round" stroke-linejoin="round" points="16 19.8086 16 13.9996 12 13.9996 12 19.9996"></polyline>
                <path d="M9,14 C9,14.553 8.552,15 8,15 C7.448,15 7,14.553 7,14 C7,13.447 7.448,13 8,13 C8.552,13 9,13.447 9,14" id="Fill-7" fill="#333333" fill-rule="evenodd"></path>
            </g>
        </g>
    </g>
</svg>