<?xml version="1.0" encoding="UTF-8"?>
<svg width="18px" height="18px" viewBox="0 0 18 18" version="1.1" xmlns="http://www.w3.org/2000/svg" xmlns:xlink="http://www.w3.org/1999/xlink">
    <!-- Generator: Sketch 55.2 (78181) - https://sketchapp.com -->
    <title>Image</title>
    <desc>Created with Sketch.</desc>
    <g id="Icons" stroke="none" stroke-width="1" fill="none" fill-rule="evenodd">
        <g id="Faticons" transform="translate(-125.000000, -604.000000)">
            <g id="Icons-/-Image" transform="translate(122.000000, 601.000000)">
                <rect id="Rectangle" fill="#000000" fill-rule="evenodd" opacity="0" x="0" y="0" width="24" height="24"></rect>
                <path d="M12,20 C5.067,20 4,18 4,12 C4,6 5.067,4 12,4 C18.933,4 20,6 20,12 C20,18 18.933,20 12,20 Z" id="Stroke-1" stroke="#A2A5B5" stroke-width="2" stroke-linecap="round" stroke-linejoin="round"></path>
                <path d="M8,15 C9.622,11.479 10.5,10.904 11,11 C11.946,11.181 11.928,13.841 13,14 C14.032,14.153 14.865,11.808 16,12 C16.485,12.082 16.807,12.592 17,13" id="Stroke-3" stroke="#A2A5B5" stroke-width="2" stroke-linecap="round" stroke-linejoin="round"></path>
                <path d="M16,9 C16,9.553 15.552,10 15,10 C14.448,10 14,9.553 14,9 C14,8.447 14.448,8 15,8 C15.552,8 16,8.447 16,9" id="Fill-5" fill="#333333" fill-rule="evenodd"></path>
            </g>
        </g>
    </g>
</svg>