<?xml version="1.0" encoding="UTF-8"?>
<svg width="18px" height="18px" viewBox="0 0 18 18" version="1.1" xmlns="http://www.w3.org/2000/svg" xmlns:xlink="http://www.w3.org/1999/xlink">
    <!-- Generator: Sketch 55.2 (78181) - https://sketchapp.com -->
    <title>Inbox</title>
    <desc>Created with Sketch.</desc>
    <g id="Icons" stroke="none" stroke-width="1" fill="none" fill-rule="evenodd">
        <g id="Faticons" transform="translate(-173.000000, -1036.000000)">
            <g id="Icons-/-Inbox" transform="translate(170.000000, 1033.000000)">
                <rect id="Rectangle" fill="#000000" fill-rule="evenodd" opacity="0" x="0" y="0" width="24" height="24"></rect>
                <path d="M9.0098,14.0303 C9.0698,15.3403 10.3798,16.0003 11.9998,16.0003 C13.6198,16.0003 14.9298,15.3403 14.9898,14.0303 C19.9998,14.0003 19.9998,15.1793 19.9998,17.0003 C19.9998,19.0003 19.9998,20.0003 11.9998,20.0003 C3.9998,20.0003 3.9998,19.0003 3.9998,17.0003 C3.9998,15.1793 3.9998,14.0003 9.0098,14.0303 Z" id="Stroke-1" stroke="#A2A5B5" stroke-width="2" stroke-linecap="round" stroke-linejoin="round"></path>
                <path d="M4,17 C4,5.083 6,4 12,4 C18,4 20,5.083 20,17" id="Stroke-3" stroke="#A2A5B5" stroke-width="2" stroke-linecap="round" stroke-linejoin="round"></path>
            </g>
        </g>
    </g>
</svg>