<?xml version="1.0" encoding="UTF-8"?>
<svg width="20px" height="20px" viewBox="0 0 20 20" version="1.1" xmlns="http://www.w3.org/2000/svg" xmlns:xlink="http://www.w3.org/1999/xlink">
    <!-- Generator: Sketch 55.2 (78181) - https://sketchapp.com -->
    <title>Life buoy</title>
    <desc>Created with Sketch.</desc>
    <g id="Icons" stroke="none" stroke-width="1" fill="none" fill-rule="evenodd">
        <g id="Faticons" transform="translate(-364.000000, -1035.000000)">
            <g id="Icons-/-Life-buoy" transform="translate(362.000000, 1033.000000)">
                <rect id="Rectangle" fill="#000000" fill-rule="evenodd" opacity="0" x="0" y="0" width="24" height="24"></rect>
                <path d="M13.125,21 L10.875,21 C6.526,21 3,17.475 3,13.125 L3,10.875 C3,6.525 6.526,3 10.875,3 L13.125,3 C17.474,3 21,6.525 21,10.875 L21,13.125 C21,17.475 17.474,21 13.125,21 Z" id="Stroke-1" stroke="#A2A5B5" stroke-width="2" stroke-linecap="round" stroke-linejoin="round"></path>
                <path d="M12.625,17 L11.375,17 C8.959,17 7,15.041 7,12.625 L7,11.375 C7,8.959 8.959,7 11.375,7 L12.625,7 C15.041,7 17,8.959 17,11.375 L17,12.625 C17,15.041 15.041,17 12.625,17 Z" id="Stroke-3" stroke="#A2A5B5" stroke-width="2" stroke-linecap="round" stroke-linejoin="round"></path>
                <path d="M18.6899,5.3096 L15.7199,8.2806" id="Stroke-5" stroke="#A2A5B5" stroke-width="2" stroke-linecap="round" stroke-linejoin="round"></path>
                <path d="M8.2798,15.7197 L5.3098,18.6907" id="Stroke-7" stroke="#A2A5B5" stroke-width="2" stroke-linecap="round" stroke-linejoin="round"></path>
                <path d="M8.2798,8.2803 L5.3098,5.3093" id="Stroke-9" stroke="#A2A5B5" stroke-width="2" stroke-linecap="round" stroke-linejoin="round"></path>
                <path d="M18.6899,18.6904 L15.7199,15.7194" id="Stroke-11" stroke="#A2A5B5" stroke-width="2" stroke-linecap="round" stroke-linejoin="round"></path>
            </g>
        </g>
    </g>
</svg>