<?xml version="1.0" encoding="UTF-8"?>
<svg width="32px" height="36px" viewBox="0 0 32 36" version="1.1" xmlns="http://www.w3.org/2000/svg" xmlns:xlink="http://www.w3.org/1999/xlink">
    <!-- Generator: Sketch 55.2 (78181) - https://sketchapp.com -->
    <title>Lock</title>
    <desc>Created with Sketch.</desc>
    <g id="Invision-2" stroke="none" stroke-width="1" fill="none" fill-rule="evenodd">
        <g id="Settings-Expanded" transform="translate(-158.000000, -204.000000)">
            <g id="Group-5" transform="translate(150.000000, 198.000000)">
                <g id="Icons-/-Lock">
                    <rect id="Rectangle" fill="#000000" fill-rule="evenodd" opacity="0" x="0" y="0" width="48" height="48"></rect>
                    <path d="M24,40 C12,40 10,38 10,30 C10,22 12,20 24,20 C36,20 38,22 38,30 C38,38 36,40 24,40 Z" id="Stroke-1" stroke="#A2A5B5" stroke-width="4" stroke-linecap="round" stroke-linejoin="round"></path>
                    <path d="M16.039,20.58 C16.019,19.89 15.999,19.148 15.999,18.354 C15.999,10 17.999,8 23.999,8 C29.999,8 31.999,10 31.999,18.354 C31.999,19.148 31.981,19.89 31.961,20.58" id="Stroke-3" stroke="#A2A5B5" stroke-width="4" stroke-linecap="round" stroke-linejoin="round"></path>
                    <path d="M24,28 L24,32" id="Stroke-5" stroke="#A2A5B5" stroke-width="4" stroke-linecap="round" stroke-linejoin="round"></path>
                </g>
            </g>
        </g>
    </g>
</svg>