<svg width="39" height="32" viewBox="0 0 39 32" fill="none" xmlns="http://www.w3.org/2000/svg">
<path d="M26.3974 9.64098C26.8231 9.64098 27.2489 9.64098 27.7598 9.7263C26.5677 4.1806 20.607 0 13.7948 0C6.21616 0 0 5.20442 0 11.7739C0 15.6133 2.04367 18.6847 5.53493 21.0737L4.17249 25.3396L9.0262 22.9507C10.7293 23.2919 12.1769 23.6332 13.8799 23.6332C14.3057 23.6332 14.7314 23.6332 15.1572 23.5479C14.9017 22.6094 14.7314 21.6709 14.7314 20.6471C14.6463 14.5894 19.8406 9.64098 26.3974 9.64098ZM18.9891 5.88697C20.0109 5.88697 20.6921 6.56952 20.6921 7.59334C20.6921 8.61716 20.0109 9.29971 18.9891 9.29971C17.9672 9.29971 16.9454 8.61716 16.9454 7.59334C16.9454 6.56952 17.9672 5.88697 18.9891 5.88697ZM9.28166 9.38503C8.25982 9.38503 7.23799 8.70248 7.23799 7.67866C7.23799 6.65484 8.25982 5.97229 9.28166 5.97229C10.3035 5.97229 10.9847 6.65484 10.9847 7.67866C11.0699 8.70248 10.3886 9.38503 9.28166 9.38503ZM39 20.4764C39 14.9307 33.4651 10.4088 27.2489 10.4088C20.6921 10.4088 15.4978 14.9307 15.4978 20.4764C15.4978 26.0221 20.6921 30.544 27.2489 30.544C28.6114 30.544 29.9738 30.2027 31.4214 29.8614L35.1681 31.9091L34.1463 28.411C36.9563 26.3634 39 23.5479 39 20.4764ZM23.5022 18.6847C22.821 18.6847 22.1397 18.0022 22.1397 17.3196C22.1397 16.6371 22.821 15.9545 23.5022 15.9545C24.524 15.9545 25.2052 16.6371 25.2052 17.3196C25.2052 18.0022 24.524 18.6847 23.5022 18.6847ZM31.0808 18.6847C30.3996 18.6847 29.7183 18.0022 29.7183 17.3196C29.7183 16.6371 30.3996 15.9545 31.0808 15.9545C32.1026 15.9545 32.7838 16.6371 32.7838 17.3196C32.7838 18.0022 32.1026 18.6847 31.0808 18.6847Z" fill="#51C332"/>
<path d="M26.3974 9.64098C26.8231 9.64098 27.2489 9.64098 27.7598 9.7263C26.5677 4.1806 20.607 0 13.7948 0C6.21616 0 0 5.20442 0 11.7739C0 15.6133 2.04367 18.6847 5.53493 21.0737L4.17249 25.3396L9.0262 22.9507C10.7293 23.2919 12.1769 23.6332 13.8799 23.6332C14.3057 23.6332 14.7314 23.6332 15.1572 23.5479C14.9017 22.6094 14.7314 21.6709 14.7314 20.6471C14.6463 14.5894 19.8406 9.64098 26.3974 9.64098ZM18.9891 5.88697C20.0109 5.88697 20.6921 6.56952 20.6921 7.59334C20.6921 8.61716 20.0109 9.29971 18.9891 9.29971C17.9672 9.29971 16.9454 8.61716 16.9454 7.59334C16.9454 6.56952 17.9672 5.88697 18.9891 5.88697ZM9.28166 9.38503C8.25982 9.38503 7.23799 8.70248 7.23799 7.67866C7.23799 6.65484 8.25982 5.97229 9.28166 5.97229C10.3035 5.97229 10.9847 6.65484 10.9847 7.67866C11.0699 8.70248 10.3886 9.38503 9.28166 9.38503ZM39 20.4764C39 14.9307 33.4651 10.4088 27.2489 10.4088C20.6921 10.4088 15.4978 14.9307 15.4978 20.4764C15.4978 26.0221 20.6921 30.544 27.2489 30.544C28.6114 30.544 29.9738 30.2027 31.4214 29.8614L35.1681 31.9091L34.1463 28.411C36.9563 26.3634 39 23.5479 39 20.4764ZM23.5022 18.6847C22.821 18.6847 22.1397 18.0022 22.1397 17.3196C22.1397 16.6371 22.821 15.9545 23.5022 15.9545C24.524 15.9545 25.2052 16.6371 25.2052 17.3196C25.2052 18.0022 24.524 18.6847 23.5022 18.6847ZM31.0808 18.6847C30.3996 18.6847 29.7183 18.0022 29.7183 17.3196C29.7183 16.6371 30.3996 15.9545 31.0808 15.9545C32.1026 15.9545 32.7838 16.6371 32.7838 17.3196C32.7838 18.0022 32.1026 18.6847 31.0808 18.6847Z" fill="url(#paint0_linear)"/>
<defs>
<linearGradient id="paint0_linear" x1="19.5" y1="0" x2="19.5" y2="31.9091" gradientUnits="userSpaceOnUse">
<stop stop-color="#9F9F9F"/>
<stop offset="1" stop-color="#929292"/>
</linearGradient>
</defs>
</svg>
