<?xml version="1.0" encoding="UTF-8"?>
<svg width="20px" height="20px" viewBox="0 0 20 20" version="1.1" xmlns="http://www.w3.org/2000/svg" xmlns:xlink="http://www.w3.org/1999/xlink">
    <!-- Generator: Sketch 55.2 (78181) - https://sketchapp.com -->
    <title>Menu circles</title>
    <desc>Created with Sketch.</desc>
    <g id="Icons" stroke="none" stroke-width="1" fill="none" fill-rule="evenodd">
        <g id="Faticons" transform="translate(-220.000000, -459.000000)">
            <g id="Icons-/-Menu-circles" transform="translate(218.000000, 457.000000)">
                <rect id="Rectangle" fill="#000000" fill-rule="evenodd" opacity="0" x="0" y="0" width="24" height="24"></rect>
                <path d="M5,7 C3.896,7 3,6.104 3,5 C3,3.896 3.896,3 5,3 C6.104,3 7,3.896 7,5 C7,6.104 6.104,7 5,7 Z" id="Stroke-1" stroke="#A2A5B5" stroke-width="2" stroke-linecap="round" stroke-linejoin="round"></path>
                <path d="M5,14 C3.896,14 3,13.104 3,12 C3,10.896 3.896,10 5,10 C6.104,10 7,10.896 7,12 C7,13.104 6.104,14 5,14 Z" id="Stroke-3" stroke="#A2A5B5" stroke-width="2" stroke-linecap="round" stroke-linejoin="round"></path>
                <path d="M5,21 C3.896,21 3,20.104 3,19 C3,17.896 3.896,17 5,17 C6.104,17 7,17.896 7,19 C7,20.104 6.104,21 5,21 Z" id="Stroke-5" stroke="#A2A5B5" stroke-width="2" stroke-linecap="round" stroke-linejoin="round"></path>
                <path d="M12,7 C10.896,7 10,6.104 10,5 C10,3.896 10.896,3 12,3 C13.104,3 14,3.896 14,5 C14,6.104 13.104,7 12,7 Z" id="Stroke-7" stroke="#A2A5B5" stroke-width="2" stroke-linecap="round" stroke-linejoin="round"></path>
                <path d="M12,14 C10.896,14 10,13.104 10,12 C10,10.896 10.896,10 12,10 C13.104,10 14,10.896 14,12 C14,13.104 13.104,14 12,14 Z" id="Stroke-9" stroke="#A2A5B5" stroke-width="2" stroke-linecap="round" stroke-linejoin="round"></path>
                <path d="M12,21 C10.896,21 10,20.104 10,19 C10,17.896 10.896,17 12,17 C13.104,17 14,17.896 14,19 C14,20.104 13.104,21 12,21 Z" id="Stroke-11" stroke="#A2A5B5" stroke-width="2" stroke-linecap="round" stroke-linejoin="round"></path>
                <path d="M19,7 C17.896,7 17,6.104 17,5 C17,3.896 17.896,3 19,3 C20.104,3 21,3.896 21,5 C21,6.104 20.104,7 19,7 Z" id="Stroke-13" stroke="#A2A5B5" stroke-width="2" stroke-linecap="round" stroke-linejoin="round"></path>
                <path d="M19,14 C17.896,14 17,13.104 17,12 C17,10.896 17.896,10 19,10 C20.104,10 21,10.896 21,12 C21,13.104 20.104,14 19,14 Z" id="Stroke-15" stroke="#A2A5B5" stroke-width="2" stroke-linecap="round" stroke-linejoin="round"></path>
                <path d="M19,21 C17.896,21 17,20.104 17,19 C17,17.896 17.896,17 19,17 C20.104,17 21,17.896 21,19 C21,20.104 20.104,21 19,21 Z" id="Stroke-17" stroke="#A2A5B5" stroke-width="2" stroke-linecap="round" stroke-linejoin="round"></path>
            </g>
        </g>
    </g>
</svg>