<?xml version="1.0" encoding="UTF-8"?>
<svg width="20px" height="6px" viewBox="0 0 20 6" version="1.1" xmlns="http://www.w3.org/2000/svg" xmlns:xlink="http://www.w3.org/1999/xlink">
    <!-- Generator: Sketch 55.2 (78181) - https://sketchapp.com -->
    <title>More hor</title>
    <desc>Created with Sketch.</desc>
    <g id="Icons" stroke="none" stroke-width="1" fill="none" fill-rule="evenodd">
        <g id="Faticons" transform="translate(-76.000000, -370.000000)">
            <g id="Icons-/-More-hor" transform="translate(74.000000, 361.000000)">
                <rect id="Rectangle" fill="#000000" fill-rule="evenodd" opacity="0" x="0" y="0" width="24" height="24"></rect>
                <path d="M7,12 C7,13.104 6.104,14 5,14 C3.896,14 3,13.104 3,12 C3,10.896 3.896,10 5,10 C6.104,10 7,10.896 7,12 Z" id="Stroke-1" stroke="#A2A5B5" stroke-width="2" stroke-linecap="round" stroke-linejoin="round"></path>
                <path d="M14,12 C14,13.104 13.104,14 12,14 C10.896,14 10,13.104 10,12 C10,10.896 10.896,10 12,10 C13.104,10 14,10.896 14,12 Z" id="Stroke-3" stroke="#A2A5B5" stroke-width="2" stroke-linecap="round" stroke-linejoin="round"></path>
                <path d="M21,12 C21,13.104 20.104,14 19,14 C17.896,14 17,13.104 17,12 C17,10.896 17.896,10 19,10 C20.104,10 21,10.896 21,12 Z" id="Stroke-5" stroke="#A2A5B5" stroke-width="2" stroke-linecap="round" stroke-linejoin="round"></path>
            </g>
        </g>
    </g>
</svg>