<?xml version="1.0" encoding="UTF-8"?>
<svg width="16px" height="16px" viewBox="0 0 16 16" version="1.1" xmlns="http://www.w3.org/2000/svg" xmlns:xlink="http://www.w3.org/1999/xlink">
    <!-- Generator: Sketch 55.2 (78181) - https://sketchapp.com -->
    <title>Pen</title>
    <desc>Created with Sketch.</desc>
    <g id="Icons" stroke="none" stroke-width="1" fill="none" fill-rule="evenodd">
        <g id="Faticons" transform="translate(-462.000000, -989.000000)">
            <g id="Icons-/-Pen" transform="translate(458.000000, 985.000000)">
                <rect id="Rectangle" fill="#000000" fill-rule="evenodd" opacity="0" x="0" y="0" width="24" height="24"></rect>
                <path d="M5,5 C5,5 12,5 15.5,8.5 C16.667,9.667 16.667,13.167 16.667,13.167 L13.167,16.667 C13.167,16.667 9.667,16.667 8.5,15.5 C5,12 5,5 5,5 Z" id="Stroke-1" stroke="#A2A5B5" stroke-width="2" stroke-linecap="round" stroke-linejoin="round"></path>
                <path d="M9.5859,12.4141 C8.8049,11.6331 8.8049,10.3671 9.5859,9.5861 C10.3669,8.8051 11.6329,8.8051 12.4139,9.5861 C13.1949,10.3671 13.1949,11.6331 12.4139,12.4141 C11.6329,13.1951 10.3669,13.1951 9.5859,12.4141" id="Fill-3" fill="#333333" fill-rule="evenodd"></path>
                <polyline id="Stroke-5" stroke="#A2A5B5" stroke-width="2" stroke-linecap="round" stroke-linejoin="round" points="13.167 16.667 15.5 19 19 15.5 16.667 13.167"></polyline>
                <path d="M5,5 L10.833,10.833" id="Stroke-7" stroke="#A2A5B5" stroke-width="2" stroke-linecap="round" stroke-linejoin="round"></path>
            </g>
        </g>
    </g>
</svg>