<?xml version="1.0" encoding="UTF-8"?>
<svg width="18px" height="18px" viewBox="0 0 18 18" version="1.1" xmlns="http://www.w3.org/2000/svg" xmlns:xlink="http://www.w3.org/1999/xlink">
    <!-- Generator: Sketch 55.2 (78181) - https://sketchapp.com -->
    <title>Phone forward</title>
    <desc>Created with Sketch.</desc>
    <g id="Icons" stroke="none" stroke-width="1" fill="none" fill-rule="evenodd">
        <g id="Faticons" transform="translate(-221.000000, -652.000000)">
            <g id="Icons-/-Phone-forward" transform="translate(218.000000, 649.000000)">
                <rect id="Rectangle" fill="#000000" fill-rule="evenodd" opacity="0" x="0" y="0" width="24" height="24"></rect>
                <path d="M4,4 L9,9" id="Stroke-1" stroke="#A2A5B5" stroke-width="2" stroke-linecap="round" stroke-linejoin="round"></path>
                <polyline id="Stroke-3" stroke="#A2A5B5" stroke-width="2" stroke-linecap="round" stroke-linejoin="round" points="8 4 4 4 4 8"></polyline>
                <path d="M16,4 C14,4 13,5.343 13,7 C13,8.453 14,9 14,10 C14,11 11,14 10,14 C9,14 8.454,13 7,13 C5.343,13 4,14 4,16 C4,18 6,20 8,20 C10,20 12,20 16,16 C20,12 20,10 20,8 C20,6 18,4 16,4 Z" id="Stroke-5" stroke="#A2A5B5" stroke-width="2" stroke-linecap="round" stroke-linejoin="round"></path>
            </g>
        </g>
    </g>
</svg>