<?xml version="1.0" encoding="UTF-8"?>
<svg width="18px" height="18px" viewBox="0 0 18 18" version="1.1" xmlns="http://www.w3.org/2000/svg" xmlns:xlink="http://www.w3.org/1999/xlink">
    <!-- Generator: Sketch 55.2 (78181) - https://sketchapp.com -->
    <title>Photo camera</title>
    <desc>Created with Sketch.</desc>
    <g id="Icons" stroke="none" stroke-width="1" fill="none" fill-rule="evenodd">
        <g id="Faticons" transform="translate(-77.000000, -604.000000)">
            <g id="Icons-/-Photo-camera" transform="translate(74.000000, 601.000000)">
                <rect id="Rectangle" fill="#000000" fill-rule="evenodd" opacity="0" x="0" y="0" width="24" height="24"></rect>
                <path d="M12,4 L15,4" id="Stroke-1" stroke="#A2A5B5" stroke-width="2" stroke-linecap="round" stroke-linejoin="round"></path>
                <path d="M9,11 C9,11.553 8.552,12 8,12 C7.448,12 7,11.553 7,11 C7,10.447 7.448,10 8,10 C8.552,10 9,10.447 9,11" id="Fill-3" fill="#333333" fill-rule="evenodd"></path>
                <path d="M12,20 C5.067,20 4,18.375 4,13.5 C4,8.625 5.067,7 12,7 C18.933,7 20,8.625 20,13.5 C20,18.375 18.933,20 12,20 Z" id="Stroke-5" stroke="#A2A5B5" stroke-width="2" stroke-linecap="round" stroke-linejoin="round"></path>
                <path d="M16,13.5 C16,14.881 14.881,16 13.5,16 C12.119,16 11,14.881 11,13.5 C11,12.119 12.119,11 13.5,11 C14.881,11 16,12.119 16,13.5 Z" id="Stroke-7" stroke="#A2A5B5" stroke-width="2" stroke-linecap="round" stroke-linejoin="round"></path>
            </g>
        </g>
    </g>
</svg>