<?xml version="1.0" encoding="UTF-8"?>
<svg width="20px" height="20px" viewBox="0 0 20 20" version="1.1" xmlns="http://www.w3.org/2000/svg" xmlns:xlink="http://www.w3.org/1999/xlink">
    <!-- Generator: Sketch 55.2 (78181) - https://sketchapp.com -->
    <title>Play circle</title>
    <desc>Created with Sketch.</desc>
    <g id="Icons" stroke="none" stroke-width="1" fill="none" fill-rule="evenodd">
        <g id="Faticons" transform="translate(-460.000000, -411.000000)">
            <g id="Icons-/-Play-circle" transform="translate(458.000000, 409.000000)">
                <rect id="Rectangle" fill="#000000" fill-rule="evenodd" opacity="0" x="0" y="0" width="24" height="24"></rect>
                <path d="M13.125,21 L10.875,21 C6.525,21 3,17.475 3,13.125 L3,10.875 C3,6.525 6.525,3 10.875,3 L13.125,3 C17.475,3 21,6.525 21,10.875 L21,13.125 C21,17.475 17.475,21 13.125,21 Z" id="Stroke-1" stroke="#A2A5B5" stroke-width="2" stroke-linecap="round" stroke-linejoin="round"></path>
                <path d="M11,9 C10.54,9 10.037,10.629 10,12 C9.957,13.61 10.46,15 11,15 C12,15 15,13 15,12 C15,11 12,9 11,9 Z" id="Stroke-3" stroke="#A2A5B5" stroke-width="2" stroke-linecap="round" stroke-linejoin="round"></path>
            </g>
        </g>
    </g>
</svg>