<svg width="32" height="32" viewBox="0 0 32 32" fill="none" xmlns="http://www.w3.org/2000/svg">
<path d="M15.9812 31.8885C24.7664 31.8885 31.8882 24.7667 31.8882 15.9815C31.8882 7.19632 24.7664 0.0745239 15.9812 0.0745239C7.19601 0.0745239 0.0742188 7.19632 0.0742188 15.9815C0.0742188 24.7667 7.19601 31.8885 15.9812 31.8885Z" fill="#FF4500"/>
<path d="M26.5861 15.9815C26.5861 14.6978 25.5443 13.6559 24.2606 13.6559C23.628 13.6559 23.0699 13.8978 22.6606 14.3071C21.0792 13.1722 18.8838 12.428 16.4652 12.335L17.5257 7.36757L20.9675 8.09315C21.0048 8.96757 21.7303 9.67454 22.6234 9.67454C23.535 9.67454 24.2792 8.93036 24.2792 8.01873C24.2792 7.1071 23.535 6.36292 22.6234 6.36292C21.9722 6.36292 21.4141 6.73501 21.1536 7.29315L17.3024 6.47454C17.1908 6.45594 17.0792 6.47454 16.9862 6.53036C16.8931 6.58617 16.8373 6.67919 16.8001 6.79082L15.628 12.335C13.1536 12.4094 10.9396 13.135 9.33964 14.3071C8.93034 13.9164 8.3536 13.6559 7.73964 13.6559C6.45592 13.6559 5.41406 14.6978 5.41406 15.9815C5.41406 16.9304 5.9722 17.7304 6.79081 18.1024C6.7536 18.3257 6.73499 18.5676 6.73499 18.8094C6.73499 22.3815 10.8838 25.2652 16.0187 25.2652C21.1536 25.2652 25.3024 22.3815 25.3024 18.8094C25.3024 18.5676 25.2838 18.3443 25.2466 18.1211C26.0094 17.749 26.5861 16.9304 26.5861 15.9815ZM10.6792 17.6373C10.6792 16.7257 11.4234 15.9815 12.335 15.9815C13.2466 15.9815 13.9908 16.7257 13.9908 17.6373C13.9908 18.549 13.2466 19.2931 12.335 19.2931C11.4234 19.2931 10.6792 18.549 10.6792 17.6373ZM19.9257 22.0094C18.7908 23.1443 16.6327 23.2187 16.0001 23.2187C15.3675 23.2187 13.1908 23.1257 12.0745 22.0094C11.9071 21.842 11.9071 21.5629 12.0745 21.3955C12.242 21.228 12.521 21.228 12.6885 21.3955C13.3955 22.1024 14.921 22.3629 16.0187 22.3629C17.1164 22.3629 18.6234 22.1024 19.3489 21.3955C19.5164 21.228 19.7955 21.228 19.9629 21.3955C20.0931 21.5815 20.0931 21.842 19.9257 22.0094ZM19.628 19.2931C18.7164 19.2931 17.9722 18.549 17.9722 17.6373C17.9722 16.7257 18.7164 15.9815 19.628 15.9815C20.5396 15.9815 21.2838 16.7257 21.2838 17.6373C21.2838 18.549 20.5396 19.2931 19.628 19.2931Z" fill="white"/>
</svg>
