<?xml version="1.0" encoding="UTF-8"?>
<svg width="16px" height="20px" viewBox="0 0 16 20" version="1.1" xmlns="http://www.w3.org/2000/svg" xmlns:xlink="http://www.w3.org/1999/xlink">
    <!-- Generator: Sketch 55.2 (78181) - https://sketchapp.com -->
    <title>Shopping bag</title>
    <desc>Created with Sketch.</desc>
    <g id="Icons" stroke="none" stroke-width="1" fill="none" fill-rule="evenodd">
        <g id="Faticons" transform="translate(-270.000000, -843.000000)">
            <g id="Icons-/-Shopping-bag" transform="translate(266.000000, 841.000000)">
                <rect id="Rectangle" fill="#000000" fill-rule="evenodd" opacity="0" x="0" y="0" width="24" height="24"></rect>
                <path d="M12,21 C5.933,21 5,19.25 5,14 C5,8.75 5.933,7 12,7 C18.067,7 19,8.75 19,14 C19,19.25 18.067,21 12,21 Z" id="Stroke-1" stroke="#A2A5B5" stroke-width="2" stroke-linecap="round" stroke-linejoin="round"></path>
                <path d="M12,21 C5.933,21 5,18.75 5,12 C5,5.25 5.933,3 12,3 C18.067,3 19,5.25 19,12 C19,18.75 18.067,21 12,21 Z" id="Stroke-3" stroke="#A2A5B5" stroke-width="2" stroke-linecap="round" stroke-linejoin="round"></path>
                <path d="M15,11 C15,13.25 14.6,14 12,14 C9.4,14 9,13.25 9,11" id="Stroke-5" stroke="#A2A5B5" stroke-width="2" stroke-linecap="round" stroke-linejoin="round"></path>
            </g>
        </g>
    </g>
</svg>