<?xml version="1.0" encoding="UTF-8"?>
<svg width="19px" height="18px" viewBox="0 0 19 18" version="1.1" xmlns="http://www.w3.org/2000/svg" xmlns:xlink="http://www.w3.org/1999/xlink">
    <!-- Generator: Sketch 55.2 (78181) - https://sketchapp.com -->
    <title>Shopping cart</title>
    <desc>Created with Sketch.</desc>
    <g id="Icons" stroke="none" stroke-width="1" fill="none" fill-rule="evenodd">
        <g id="Faticons" transform="translate(-316.000000, -844.000000)">
            <g id="Icons-/-Shopping-cart" transform="translate(314.000000, 841.000000)">
                <rect id="Rectangle" fill="#000000" fill-rule="evenodd" opacity="0" x="0" y="0" width="24" height="24"></rect>
                <path d="M13.5,16 C7.867,16 7,14.75 7,11 C7,9 7.867,8 13.5,8 C19.133,8 20,9 20,11 C20,14.75 19.133,16 13.5,16 Z" id="Stroke-1" stroke="#A2A5B5" stroke-width="2" stroke-linecap="round" stroke-linejoin="round"></path>
                <path d="M12,19.5 C12,20.328 11.329,21 10.5,21 C9.671,21 9,20.328 9,19.5 C9,18.672 9.671,18 10.5,18 C11.329,18 12,18.672 12,19.5" id="Fill-3" fill="#333333" fill-rule="evenodd"></path>
                <path d="M18,19.5 C18,20.328 17.329,21 16.5,21 C15.671,21 15,20.328 15,19.5 C15,18.672 15.671,18 16.5,18 C17.329,18 18,18.672 18,19.5" id="Fill-5" fill="#333333" fill-rule="evenodd"></path>
                <polyline id="Stroke-7" stroke="#A2A5B5" stroke-width="2" stroke-linecap="round" stroke-linejoin="round" points="3 4 5 4 7 11"></polyline>
            </g>
        </g>
    </g>
</svg>