<svg width="32" height="16" viewBox="0 0 32 16" fill="none" xmlns="http://www.w3.org/2000/svg">
<path d="M6.58398 5.50629L9.24976 1.00488H18.1804C18.4662 1.00504 18.7482 1.07065 19.0047 1.19667C19.2612 1.3227 19.4854 1.50579 19.6602 1.73191L23.084 6.17144H6.87274C6.797 6.16856 6.72363 6.14434 6.66106 6.10157C6.5985 6.0588 6.54929 5.99922 6.51911 5.9297C6.48894 5.86018 6.47901 5.78355 6.49049 5.70864C6.50197 5.63373 6.53438 5.56358 6.58398 5.50629Z" fill="#7EDEE8"/>
<path d="M16.1328 1.00488L19.0409 6.17144H20.1289L17.2259 1.00488H16.1328Z" fill="white"/>
<path d="M11.523 1L14.4259 6.18719H14.957L12.0541 1H11.523Z" fill="white"/>
<path d="M9.15625 1L12.0592 6.18719H13.1523L10.2494 1H9.15625Z" fill="white"/>
<path d="M1.02141 6.87785V11.5597C1.04274 11.9428 1.21458 12.3019 1.49949 12.5588C1.7844 12.8157 2.1593 12.9496 2.5425 12.9313H5.49703C5.52379 12.3907 5.75738 11.8811 6.14946 11.5079C6.54154 11.1347 7.06209 10.9266 7.60336 10.9266C8.14463 10.9266 8.66518 11.1347 9.05726 11.5079C9.44934 11.8811 9.68293 12.3907 9.70969 12.9313H23.085C23.1052 12.3906 23.337 11.8795 23.7306 11.5081C24.1241 11.1368 24.6478 10.9349 25.1888 10.9461C25.7315 10.9294 26.259 11.1273 26.6567 11.497C27.0544 11.8668 27.2903 12.3784 27.3131 12.921H29.422C30.3553 12.921 31.1133 12.3074 31.1133 11.5494V7.94004C31.1133 7.47597 30.9293 7.03084 30.6016 6.70221C30.274 6.37358 29.8294 6.18828 29.3653 6.18691H6.87375C6.79504 6.18663 6.71814 6.16325 6.65259 6.11968C6.58704 6.07611 6.53571 6.01426 6.50497 5.9418C6.47423 5.86934 6.46543 5.78945 6.47965 5.71204C6.49388 5.63462 6.53051 5.56309 6.585 5.50629L9.25078 1.00488H7.05937C6.83852 1.00553 6.62016 1.05164 6.4179 1.14035C6.21564 1.22906 6.03382 1.35847 5.88375 1.52051L1.52156 5.64551C1.20448 5.97792 1.02568 6.41848 1.02141 6.87785Z" fill="#DCE0DF"/>
<path d="M1.02141 8.22949H31.1133V10.9417H1.02141V8.22949Z" fill="#0364FF"/>
<path d="M1.0207 5.66113H6.87305V6.68723H1.0207V5.66113Z" fill="#0364FF"/>
<path d="M31.1133 8.69824H28.7414" stroke="black" stroke-width="1.03125" stroke-linecap="round" stroke-linejoin="round"/>
<path d="M5.49675 12.9215C5.47201 13.3426 5.5741 13.7614 5.78981 14.1238C6.00553 14.4863 6.32497 14.7757 6.70687 14.9547C7.08877 15.1338 7.51558 15.1942 7.93216 15.1281C8.34874 15.0621 8.73595 14.8727 9.04378 14.5843C9.3516 14.296 9.56588 13.922 9.65895 13.5106C9.75202 13.0992 9.7196 12.6694 9.56587 12.2766C9.41215 11.8838 9.14418 11.5462 8.79658 11.3073C8.44899 11.0683 8.03774 10.9392 7.61597 10.9364C7.07237 10.921 6.54471 11.121 6.14782 11.4928C5.75093 11.8646 5.51693 12.3781 5.49675 12.9215Z" stroke="black" stroke-width="1.03125" stroke-linecap="round" stroke-linejoin="round"/>
<path d="M23.085 12.921C23.1052 13.4617 23.3371 13.9728 23.7306 14.3442C24.1241 14.7155 24.6478 14.9173 25.1888 14.9061C25.4615 14.9258 25.7354 14.8891 25.9933 14.7982C26.2512 14.7074 26.4876 14.5643 26.6878 14.3781C26.8879 14.1918 27.0476 13.9663 27.1568 13.7156C27.2659 13.4649 27.3223 13.1944 27.3223 12.921C27.3223 12.6475 27.2659 12.377 27.1568 12.1263C27.0476 11.8756 26.8879 11.6501 26.6878 11.4639C26.4876 11.2776 26.2512 11.1346 25.9933 11.0437C25.7354 10.9529 25.4615 10.9162 25.1888 10.9358C24.6478 10.9246 24.1241 11.1265 23.7306 11.4978C23.3371 11.8692 23.1052 12.3803 23.085 12.921Z" stroke="black" stroke-width="1.03125" stroke-linecap="round" stroke-linejoin="round"/>
<path d="M9.24563 1.00488L6.585 5.50629C6.53191 5.56361 6.49667 5.63516 6.48358 5.71219C6.47049 5.78922 6.48011 5.86839 6.51129 5.94004C6.54246 6.01168 6.59383 6.07269 6.65911 6.11562C6.7244 6.15855 6.80077 6.18153 6.87891 6.18176H29.3653C29.8294 6.18312 30.274 6.36843 30.6016 6.69706C30.9293 7.02568 31.1133 7.47082 31.1133 7.93488V11.5443C31.1133 12.3022 30.3553 12.9158 29.422 12.9158H27.3131" stroke="black" stroke-width="1.03125" stroke-linecap="round" stroke-linejoin="round"/>
<path d="M23.084 6.17144L19.6499 1.73191C19.4751 1.50579 19.2509 1.3227 18.9944 1.19667C18.7379 1.07065 18.4559 1.00504 18.1701 1.00488H7.0532C6.83235 1.00553 6.61399 1.05164 6.41173 1.14035C6.20947 1.22906 6.02765 1.35847 5.87758 1.52051L1.51539 5.64551C1.189 5.97936 1.00425 6.42644 0.999765 6.89332V11.5597C1.0211 11.9428 1.19294 12.3019 1.47785 12.5588C1.76277 12.8157 2.13766 12.9496 2.52086 12.9313H5.49602" stroke="black" stroke-width="1.03125" stroke-linecap="round" stroke-linejoin="round"/>
<path d="M9.70883 12.9209H23.0996" stroke="black" stroke-width="1.03125" stroke-linecap="round" stroke-linejoin="round"/>
<path d="M15.5508 1.00488V6.1766" stroke="black" stroke-width="1.03125" stroke-linecap="round" stroke-linejoin="round"/>
</svg>
