<svg width="24" height="17" viewBox="0 0 24 17" fill="none" xmlns="http://www.w3.org/2000/svg">
<path d="M4.96374 16.3523C2.77462 16.3523 0.999991 14.5777 0.999991 12.3886C0.999991 10.1994 2.77462 8.4248 4.96374 8.4248C7.15286 8.4248 8.92749 10.1994 8.92749 12.3886C8.92749 14.5777 7.15286 16.3523 4.96374 16.3523Z" fill="#DCE0DF"/>
<path d="M19.2877 16.1087C17.0986 16.1087 15.324 14.334 15.324 12.1449C15.324 9.95578 17.0986 8.18115 19.2877 8.18115C21.4768 8.18115 23.2515 9.95578 23.2515 12.1449C23.2515 14.334 21.4768 16.1087 19.2877 16.1087Z" fill="#DCE0DF"/>
<path d="M4.96197 14.3236C3.8933 14.3236 3.02697 13.4573 3.02697 12.3886C3.02697 11.3199 3.8933 10.4536 4.96197 10.4536C6.03064 10.4536 6.89697 11.3199 6.89697 12.3886C6.89697 13.4573 6.03064 14.3236 4.96197 14.3236Z" stroke="#0364FF" stroke-width="0.75" stroke-miterlimit="10"/>
<path d="M19.287 14.1998C18.1521 14.1998 17.232 13.2798 17.232 12.1448C17.232 11.0099 18.1521 10.0898 19.287 10.0898C20.422 10.0898 21.342 11.0099 21.342 12.1448C21.342 13.2798 20.422 14.1998 19.287 14.1998Z" stroke="#0364FF" stroke-width="0.75" stroke-miterlimit="10"/>
<path d="M17.2317 4.75391L9.09419 6.54266L4.96169 12.3889H11.4304L17.2317 4.75391Z" stroke="#D3D5E2" stroke-width="0.75" stroke-linecap="round" stroke-linejoin="round"/>
<path d="M13.3619 1H16.1894L19.2869 12.145" stroke="#D3D5E2" stroke-width="0.75" stroke-linecap="round" stroke-linejoin="round"/>
<path d="M11.4316 12.3889L7.70414 2.98389" stroke="#D3D5E2" stroke-width="0.75" stroke-linecap="round" stroke-linejoin="round"/>
<path d="M6.22664 2.98389H9.18164" stroke="#D3D5E2" stroke-width="0.75" stroke-linecap="round" stroke-linejoin="round"/>
<path d="M4.96374 16.3523C2.77462 16.3523 0.999991 14.5777 0.999991 12.3886C0.999991 10.1994 2.77462 8.4248 4.96374 8.4248C7.15286 8.4248 8.92749 10.1994 8.92749 12.3886C8.92749 14.5777 7.15286 16.3523 4.96374 16.3523Z" stroke="#D3D5E2" stroke-width="0.75" stroke-linecap="round" stroke-linejoin="round"/>
<path d="M19.2877 16.1087C17.0986 16.1087 15.324 14.334 15.324 12.1449C15.324 9.95578 17.0986 8.18115 19.2877 8.18115C21.4768 8.18115 23.2515 9.95578 23.2515 12.1449C23.2515 14.334 21.4768 16.1087 19.2877 16.1087Z" stroke="#D3D5E2" stroke-width="0.75" stroke-linecap="round" stroke-linejoin="round"/>
</svg>
