<?xml version="1.0" encoding="UTF-8"?>
<svg width="17px" height="17px" viewBox="0 0 17 17" version="1.1" xmlns="http://www.w3.org/2000/svg" xmlns:xlink="http://www.w3.org/1999/xlink">
    <!-- Generator: Sketch 55.2 (78181) - https://sketchapp.com -->
    <title>Spyglass</title>
    <desc>Created with Sketch.</desc>
    <g id="Icons" stroke="none" stroke-width="1" fill="none" fill-rule="evenodd">
        <g id="Faticons" transform="translate(-366.000000, -941.000000)">
            <g id="Icons-/-Spyglass" transform="translate(362.000000, 937.000000)">
                <rect id="Rectangle" fill="#000000" fill-rule="evenodd" opacity="0" x="0" y="0" width="24" height="24"></rect>
                <path d="M12,14.2357 C13.32,14.6257 14.94,13.2957 17.06,11.1757 C19.84,8.3957 19.73,7.9657 18,6.2357 C16.27,4.5057 15.84,4.3957 13.06,7.1757 C10.94,9.2957 9.61,10.9157 10,12.2357" id="Stroke-1" stroke="#A2A5B5" stroke-width="2" stroke-linecap="round" stroke-linejoin="round"></path>
                <path d="M12,14.2357 C11.79,14.4657 11.75,14.4857 11.48,14.7557 C9.44,16.7967 8.87,17.1057 8,16.2357 C7.13,15.3657 7.44,14.7967 9.48,12.7557 C9.75,12.4857 9.77,12.4457 10,12.2357 C10.11,12.6457 11.59,14.1257 12,14.2357 Z" id="Stroke-3" stroke="#A2A5B5" stroke-width="2" stroke-linecap="round" stroke-linejoin="round"></path>
                <path d="M8,16.2357 L6,18.2357" id="Stroke-5" stroke="#A2A5B5" stroke-width="2" stroke-linecap="round" stroke-linejoin="round"></path>
                <path d="M5,18.2357 L6,19.2357" id="Stroke-7" stroke="#A2A5B5" stroke-width="2" stroke-linecap="round" stroke-linejoin="round"></path>
            </g>
        </g>
    </g>
</svg>