<?xml version="1.0" encoding="UTF-8"?>
<svg width="18px" height="18px" viewBox="0 0 18 18" version="1.1" xmlns="http://www.w3.org/2000/svg" xmlns:xlink="http://www.w3.org/1999/xlink">
    <!-- Generator: Sketch 55.2 (78181) - https://sketchapp.com -->
    <title>Tag</title>
    <desc>Created with Sketch.</desc>
    <g id="Icons" stroke="none" stroke-width="1" fill="none" fill-rule="evenodd">
        <g id="Faticons" transform="translate(-317.000000, -940.000000)">
            <g id="Icons-/-Tag" transform="translate(314.000000, 937.000000)">
                <rect id="Rectangle" fill="#000000" fill-rule="evenodd" opacity="0" x="0" y="0" width="24" height="24"></rect>
                <path d="M12,20 C11,20 4,13 4,12 L4,5 C4,4.447 4.448,4 5,4 L12,4 C13,4 20,11 20,12 C20,13 13,20 12,20 Z" id="Stroke-1" stroke="#A2A5B5" stroke-width="2" stroke-linecap="round" stroke-linejoin="round"></path>
                <path d="M9,8 C9,8.553 8.552,9 8,9 C7.448,9 7,8.553 7,8 C7,7.447 7.448,7 8,7 C8.552,7 9,7.447 9,8" id="Fill-3" fill="#333333" fill-rule="evenodd"></path>
            </g>
        </g>
    </g>
</svg>