<?xml version="1.0" encoding="UTF-8"?>
<svg width="20px" height="12px" viewBox="0 0 20 12" version="1.1" xmlns="http://www.w3.org/2000/svg" xmlns:xlink="http://www.w3.org/1999/xlink">
    <!-- Generator: Sketch 55.2 (78181) - https://sketchapp.com -->
    <title>Toggle on</title>
    <desc>Created with Sketch.</desc>
    <g id="Icons" stroke="none" stroke-width="1" fill="none" fill-rule="evenodd">
        <g id="Faticons" transform="translate(-412.000000, -847.000000)">
            <g id="Icons-/-Toggle-on" transform="translate(410.000000, 841.000000)">
                <rect id="Rectangle" fill="#000000" fill-rule="evenodd" opacity="0" x="0" y="0" width="24" height="24"></rect>
                <path d="M12,17 C5.25,17 3,15.75 3,12 C3,8.25 5.25,7 12,7 C18.75,7 21,8.25 21,12 C21,15.75 18.75,17 12,17 Z" id="Stroke-1" stroke="#A2A5B5" stroke-width="2" stroke-linecap="round" stroke-linejoin="round"></path>
                <path d="M18,12 C18,13.104 17.104,14 16,14 C14.896,14 14,13.104 14,12 C14,10.896 14.896,10 16,10 C17.104,10 18,10.896 18,12 Z" id="Stroke-3" stroke="#A2A5B5" stroke-width="2" stroke-linecap="round" stroke-linejoin="round"></path>
            </g>
        </g>
    </g>
</svg>