<?xml version="1.0" encoding="UTF-8"?>
<svg width="18px" height="20px" viewBox="0 0 18 20" version="1.1" xmlns="http://www.w3.org/2000/svg" xmlns:xlink="http://www.w3.org/1999/xlink">
    <!-- Generator: sketchtool 56 (101010) - https://sketch.com -->
    <title>BA1ED74B-4D01-4C3E-AFFA-5BCBA6DB53A2</title>
    <desc>Created with sketchtool.</desc>
    <g id="Invision-2" stroke="none" stroke-width="1" fill="none" fill-rule="evenodd">
        <g id="Account-2-account" transform="translate(-27.000000, -531.000000)">
            <g id="Account-Menu" transform="translate(24.000000, 357.000000)">
                <g id="Group">
                    <g id="Group-2" transform="translate(0.000000, 124.000000)">
                        <g id="Info-circle-Copy" transform="translate(0.000000, 48.000000)">
                            <rect id="Rectangle" fill="#000000" opacity="0" x="0" y="0" width="24" height="24"></rect>
                            <path d="M20,6 C20,7.657 16.418,9 12,9 C7.582,9 4,7.657 4,6 C4,4.343 7.582,3 12,3 C16.418,3 20,4.343 20,6 Z" id="Stroke-1" stroke="#A2A5B5" stroke-width="2" stroke-linecap="round" stroke-linejoin="round"></path>
                            <path d="M20,12 C20,13.66 16.42,15 12,15 C7.58,15 4,13.66 4,12" id="Stroke-3" stroke="#A2A5B5" stroke-width="2" stroke-linecap="round" stroke-linejoin="round"></path>
                            <path d="M4,18 C4,19.66 7.58,21 12,21 C16.42,21 20,19.66 20,18" id="Stroke-5" stroke="#A2A5B5" stroke-width="2" stroke-linecap="round" stroke-linejoin="round"></path>
                            <path d="M20,6 L20,18" id="Stroke-7" stroke="#A2A5B5" stroke-width="2" stroke-linecap="round" stroke-linejoin="round"></path>
                            <path d="M4,6 L4,18" id="Stroke-9" stroke="#A2A5B5" stroke-width="2" stroke-linecap="round" stroke-linejoin="round"></path>
                        </g>
                    </g>
                </g>
            </g>
        </g>
    </g>
</svg>