<svg width="28" height="32" viewBox="0 0 28 32" fill="none" xmlns="http://www.w3.org/2000/svg">
<mask id="mask0" mask-type="alpha" maskUnits="userSpaceOnUse" x="0" y="0" width="28" height="32">
<path d="M0 0H27.429V32H0V0Z" fill="#69578F"/>
</mask>
<g mask="url(#mask0)">
<path fill-rule="evenodd" clip-rule="evenodd" d="M25.1424 14.8568L20.5709 19.4283H15.9994L11.9994 23.4283V19.4283H6.85645V2.28516H25.1424V14.8568Z" fill="white"/>
<path fill-rule="evenodd" clip-rule="evenodd" d="M25.1432 14.8571L20.5717 19.4286H16.0002L12.0002 23.4287V19.4286H6.85724V2.2855H25.1432V14.8571ZM5.71437 -0.000244141L0 5.71412V26.2858H6.85724V32.0002L12.5716 26.2858H17.1431L27.429 16V-0.000244141H5.71437Z" fill="#69578F"/>
</g>
<path fill-rule="evenodd" clip-rule="evenodd" d="M19.4287 13.1425H21.7145V6.28528H19.4287V13.1425Z" fill="#69578F"/>
<path fill-rule="evenodd" clip-rule="evenodd" d="M13.1436 13.1425H15.4293V6.28528H13.1436V13.1425Z" fill="#69578F"/>
</svg>
