<?xml version="1.0" encoding="UTF-8"?>
<svg width="19px" height="14px" viewBox="0 0 19 14" version="1.1" xmlns="http://www.w3.org/2000/svg" xmlns:xlink="http://www.w3.org/1999/xlink">
    <!-- Generator: Sketch 55.2 (78181) - https://sketchapp.com -->
    <title>Video camera plus</title>
    <desc>Created with Sketch.</desc>
    <g id="Icons" stroke="none" stroke-width="1" fill="none" fill-rule="evenodd">
        <g id="Faticons" transform="translate(-125.000000, -894.000000)">
            <g id="Icons-/-Video-camera-plus" transform="translate(122.000000, 889.000000)">
                <rect id="Rectangle" fill="#000000" fill-rule="evenodd" opacity="0" x="0" y="0" width="24" height="24"></rect>
                <path d="M8,12 L12,12" id="Stroke-1" stroke="#A2A5B5" stroke-width="2" stroke-linecap="round" stroke-linejoin="round"></path>
                <path d="M10,10 L10,14" id="Stroke-2" stroke="#A2A5B5" stroke-width="2" stroke-linecap="round" stroke-linejoin="round"></path>
                <path d="M10,18 C5.5,18 4,16.5 4,12 C4,7.5 5.5,6 10,6 C14.5,6 16,7.5 16,12 C16,16.5 14.5,18 10,18 Z" id="Stroke-3" stroke="#A2A5B5" stroke-width="2" stroke-linecap="round" stroke-linejoin="round"></path>
                <path d="M19.9976,15 C20.4576,15 20.9606,13.371 20.9976,12 C21.0406,10.39 20.5376,9 19.9976,9 C18.9976,9 15.9976,11 15.9976,12 C15.9976,13 18.9976,15 19.9976,15 Z" id="Stroke-5" stroke="#A2A5B5" stroke-width="2" stroke-linecap="round" stroke-linejoin="round"></path>
            </g>
        </g>
    </g>
</svg>