<?xml version="1.0" encoding="UTF-8"?>
<svg width="17px" height="16px" viewBox="0 0 17 16" version="1.1" xmlns="http://www.w3.org/2000/svg" xmlns:xlink="http://www.w3.org/1999/xlink">
    <!-- Generator: Sketch 55.2 (78181) - https://sketchapp.com -->
    <title>Volume 1</title>
    <desc>Created with Sketch.</desc>
    <g id="Icons" stroke="none" stroke-width="1" fill="none" fill-rule="evenodd">
        <g id="Faticons" transform="translate(-366.000000, -893.000000)">
            <g id="Icons-/-Volume-1" transform="translate(362.000000, 889.000000)">
                <rect id="Rectangle" fill="#000000" fill-rule="evenodd" opacity="0" x="0" y="0" width="24" height="24"></rect>
                <path d="M19,15 C19,15 20,14 20,12 C20,10 19,9 19,9" id="Stroke-1" stroke="#A2A5B5" stroke-width="2" stroke-linecap="round" stroke-linejoin="round"></path>
                <path d="M10,15 C10,15 13,19 15,19 C15,19 16,17 16,12 C16,7 15,5 15,5 C13,5 10,9 10,9 C6,9 5,10 5,12 C5,14 6,15 10,15 Z" id="Stroke-3" stroke="#A2A5B5" stroke-width="2" stroke-linecap="round" stroke-linejoin="round"></path>
            </g>
        </g>
    </g>
</svg>