<?xml version="1.0" encoding="UTF-8"?>
<svg width="14px" height="20px" viewBox="0 0 14 20" version="1.1" xmlns="http://www.w3.org/2000/svg" xmlns:xlink="http://www.w3.org/1999/xlink">
    <!-- Generator: Sketch 55.2 (78181) - https://sketchapp.com -->
    <title>Watch</title>
    <desc>Created with Sketch.</desc>
    <g id="Icons" stroke="none" stroke-width="1" fill="none" fill-rule="evenodd">
        <g id="Faticons" transform="translate(-607.000000, -891.000000)">
            <g id="Icons-/-Watch" transform="translate(602.000000, 889.000000)">
                <rect id="Rectangle" fill="#000000" fill-rule="evenodd" opacity="0" x="0" y="0" width="24" height="24"></rect>
                <path d="M12,18 C8,18 6,16 6,12 C6,8 7,6 12,6 C17,6 18,8 18,12 C18,16 16,18 12,18 Z" id="Stroke-1" stroke="#A2A5B5" stroke-width="2" stroke-linecap="round" stroke-linejoin="round"></path>
                <path d="M8.2998,17.5098 C8.7308,20.0398 8.9998,20.9998 11.9998,20.9998 C14.9998,20.9998 15.2698,20.0398 15.6998,17.5098" id="Stroke-3" stroke="#A2A5B5" stroke-width="2" stroke-linecap="round" stroke-linejoin="round"></path>
                <path d="M8.2998,6.4902 C8.7308,3.9602 8.9998,3.0002 11.9998,3.0002 C14.9998,3.0002 15.2698,3.9602 15.6998,6.4902" id="Stroke-5" stroke="#A2A5B5" stroke-width="2" stroke-linecap="round" stroke-linejoin="round"></path>
                <polyline id="Stroke-7" stroke="#A2A5B5" stroke-width="2" stroke-linecap="round" stroke-linejoin="round" points="12 9 12 12 14 11"></polyline>
            </g>
        </g>
    </g>
</svg>