<svg width="16" height="16" viewBox="0 0 16 16" fill="none" xmlns="http://www.w3.org/2000/svg">
<path d="M1.95077 15.6555C1.66529 15.9494 1.2436 16.0668 0.84728 15.9627C0.450958 15.8586 0.14144 15.549 0.0373131 15.1527C-0.0668142 14.7564 0.0505914 14.3347 0.344548 14.0492L14.0492 0.344548C14.3347 0.0505914 14.7564 -0.0668142 15.1527 0.0373131C15.549 0.14144 15.8586 0.450958 15.9627 0.84728C16.0668 1.2436 15.9494 1.66529 15.6555 1.95077L1.95077 15.6555Z" fill="#DFDFDF"/>
<path d="M15.6554 15.6555C15.2105 16.0957 14.4941 16.0957 14.0492 15.6555L0.344541 1.95083C-0.0880122 1.50544 -0.0828221 0.795272 0.356194 0.356255C0.795211 -0.0827611 1.50538 -0.0879511 1.95077 0.344602L15.6554 14.0493C16.0957 14.4942 16.0957 15.2106 15.6554 15.6555Z" fill="#DFDFDF"/>
</svg>
