<svg width="80" height="80" viewBox="0 0 80 80" fill="none" xmlns="http://www.w3.org/2000/svg">
<circle cx="40" cy="40" r="40" fill="#F3F3F3"/>
<circle cx="40" cy="40" r="28" fill="#D0D0D0"/>
<path d="M25.2848 44V35.6H28.1528C29.1368 35.6 29.9448 35.776 30.5768 36.128C31.2168 36.472 31.6888 36.96 31.9928 37.592C32.3048 38.216 32.4608 38.952 32.4608 39.8C32.4608 40.648 32.3048 41.388 31.9928 42.02C31.6888 42.644 31.2168 43.132 30.5768 43.484C29.9448 43.828 29.1368 44 28.1528 44H25.2848ZM26.8208 42.68H28.0808C28.7848 42.68 29.3408 42.568 29.7488 42.344C30.1568 42.112 30.4488 41.784 30.6248 41.36C30.8008 40.928 30.8888 40.408 30.8888 39.8C30.8888 39.2 30.8008 38.684 30.6248 38.252C30.4488 37.82 30.1568 37.488 29.7488 37.256C29.3408 37.024 28.7848 36.908 28.0808 36.908H26.8208V42.68ZM32.7369 44L35.8089 35.6H37.5369L40.6089 44H38.9769L38.3049 42.056H35.0289L34.3449 44H32.7369ZM35.4489 40.856H37.8849L36.6609 37.364L35.4489 40.856ZM41.655 46.64V38.048H43.023L43.191 38.9C43.383 38.636 43.635 38.404 43.947 38.204C44.267 38.004 44.679 37.904 45.183 37.904C45.743 37.904 46.243 38.04 46.683 38.312C47.123 38.584 47.471 38.956 47.727 39.428C47.983 39.9 48.111 40.436 48.111 41.036C48.111 41.636 47.983 42.172 47.727 42.644C47.471 43.108 47.123 43.476 46.683 43.748C46.243 44.012 45.743 44.144 45.183 44.144C44.735 44.144 44.343 44.06 44.007 43.892C43.671 43.724 43.399 43.488 43.191 43.184V46.64H41.655ZM44.859 42.8C45.347 42.8 45.751 42.636 46.071 42.308C46.391 41.98 46.551 41.556 46.551 41.036C46.551 40.516 46.391 40.088 46.071 39.752C45.751 39.416 45.347 39.248 44.859 39.248C44.363 39.248 43.955 39.416 43.635 39.752C43.323 40.08 43.167 40.504 43.167 41.024C43.167 41.544 43.323 41.972 43.635 42.308C43.955 42.636 44.363 42.8 44.859 42.8ZM49.4831 46.64V38.048H50.8511L51.0191 38.9C51.2111 38.636 51.4631 38.404 51.7751 38.204C52.0951 38.004 52.5071 37.904 53.0111 37.904C53.5711 37.904 54.0711 38.04 54.5111 38.312C54.9511 38.584 55.2991 38.956 55.5551 39.428C55.8111 39.9 55.9391 40.436 55.9391 41.036C55.9391 41.636 55.8111 42.172 55.5551 42.644C55.2991 43.108 54.9511 43.476 54.5111 43.748C54.0711 44.012 53.5711 44.144 53.0111 44.144C52.5631 44.144 52.1711 44.06 51.8351 43.892C51.4991 43.724 51.2271 43.488 51.0191 43.184V46.64H49.4831ZM52.6871 42.8C53.1751 42.8 53.5791 42.636 53.8991 42.308C54.2191 41.98 54.3791 41.556 54.3791 41.036C54.3791 40.516 54.2191 40.088 53.8991 39.752C53.5791 39.416 53.1751 39.248 52.6871 39.248C52.1911 39.248 51.7831 39.416 51.4631 39.752C51.1511 40.08 50.9951 40.504 50.9951 41.024C50.9951 41.544 51.1511 41.972 51.4631 42.308C51.7831 42.636 52.1911 42.8 52.6871 42.8Z" fill="#5C6C7F"/>
</svg>
