<svg xmlns="http://www.w3.org/2000/svg" viewBox="0 0 994 693.54"><defs><style>.cls-1{fill:#f7f7f7;}.cls-2{fill:#295dab;}.cls-3{fill:#3c66aa;}.cls-4{fill:#284b84;}.cls-5{fill:#7db5db;}.cls-6{fill:#5495f7;}.cls-7{fill:#759bd3;}.cls-8{fill:#4b71b5;}.cls-9{fill:#151f2d;}.cls-10{fill:#305399;}.cls-11{fill:#bcbec0;}.cls-12{fill:#3b455a;}.cls-13{fill:#eac1a4;}.cls-14{fill:#f4f4f4;}.cls-15{fill:#40495f;}.cls-16{font-size:150px;fill:#fff;font-family:Lato-Black, Lato;}</style></defs><title>Page 404</title><g id="Shadow"><path class="cls-1" d="M517,668.12c-29.11.08-58.22.76-87.28,3.89-11,1.18-21.68,3.78-32.66,4.82-21.93,2.09-43.48,6-65.49,7.79-17.73,1.45-35.53,2.3-53.2,4.14A193.25,193.25,0,0,1,227,687.25c-12.17-2.11-24.4-3.3-36.37-6.68-13.39-3.79-27.93-6.5-41.88-6.4-19.89.14-39.26.16-58.3,6.85-6.68,2.35-14.86,6.21-19.94,11.14C58.92,703.43,57.35,731.58,69,743.28c19.54,19.69,61.23,27.42,88.62,27.79,30,.4,59.16-1.76,89.21-3,27.92-1.18,55.78-2.86,83.75-2.8,57.13.12,114.26,0,171.29-3.7,53.58-3.47,107.29-2.28,161-2.28,55.06,0,109.75.42,164.41,7.51,23.82,3.09,48.08,4.17,72,6.33,21.44,1.94,42,0,63.39-1.83a155.17,155.17,0,0,0,52-13.5c12.89-6,35.88-24.51,39.83-38.75,11.08-39.93-156.22-39-181.91-38.88-28.74.1-57.7,1-86.41,0-12.08-.45-24-2.73-35.77-5.24s-23.57-1.86-35.48-2.91c-49.66-4.37-99.42-3.73-149.23-3.73C549.46,668.21,533.24,668.07,517,668.12Z" transform="translate(-61 -80.36)"/></g><g id="Object"><rect class="cls-2" x="128.45" y="85.52" width="125.83" height="125.83"/><polygon class="cls-3" points="128.45 85.52 163.81 45.76 289.65 45.76 254.28 85.52 128.45 85.52"/><polygon class="cls-4" points="254.28 85.52 254.28 211.35 289.65 171.59 289.65 45.76 254.28 85.52"/><path class="cls-5" d="M444.91,211.76h-9.85v-3.37h9.85Zm-16.59,0H418.21v-3.37h10.11Zm-16.85,0H401.36v-3.37h10.11Zm-16.85,0H384.5v-3.37h10.11Zm-16.85,0H367.65v-3.37h10.11Zm-16.85,0H350.79v-3.37h10.11Zm-16.85,0H333.94v-3.37h10.11Z" transform="translate(-61 -80.36)"/><rect class="cls-6" x="377.65" y="54.83" width="173.51" height="173.51"/><polygon class="cls-7" points="377.65 54.83 426.42 0 599.93 0 551.16 54.83 377.65 54.83"/><polygon class="cls-8" points="551.16 54.83 551.16 228.34 599.93 173.51 599.93 0 551.16 54.83"/><path class="cls-5" d="M747.52,201.06h-9.85v-3.37h9.85Zm-16.59,0H720.82v-3.37h10.11Zm-16.85,0H704v-3.37h10.11Zm-16.85,0H687.11v-3.37h10.11Zm-16.85,0H670.25v-3.37h10.11Zm-16.85,0H653.4v-3.37h10.11Zm-16.85,0H636.54v-3.37h10.11Z" transform="translate(-61 -80.36)"/><rect class="cls-2" x="684.21" y="81.67" width="109.17" height="109.17"/><polygon class="cls-3" points="684.21 81.67 714.89 47.17 824.07 47.17 793.38 81.67 684.21 81.67"/><polygon class="cls-4" points="793.38 81.67 793.38 190.85 824.07 156.35 824.07 47.17 793.38 81.67"/><g id="_Group_" data-name="&lt;Group&gt;"><g id="_Group_2" data-name="&lt;Group&gt;"><polygon class="cls-9" points="183.53 633.36 182.91 639.77 169.94 645.32 164.38 638.49 171.17 632.51 184.14 626.96 183.53 633.36"/></g><g id="_Group_3" data-name="&lt;Group&gt;"><polygon class="cls-10" points="194.35 503.55 184.37 631.34 171.88 633.04 161.54 524.12 152.99 489.57 194.35 503.55"/></g></g><g id="_Group_4" data-name="&lt;Group&gt;"><g id="_Group_5" data-name="&lt;Group&gt;"><polygon class="cls-10" points="224.23 470.02 231.72 621.87 220.33 624.01 196.58 509.11 183.52 475.84 224.23 470.02"/></g><g id="_Group_6" data-name="&lt;Group&gt;"><polygon class="cls-9" points="221.34 629.04 234.88 633.18 239.83 625.56 232.45 620.26 220.12 622.58 221.34 629.04"/></g></g><g id="_Group_7" data-name="&lt;Group&gt;"><path class="cls-11" d="M269.12,386.37c-9.23-7.64-31.48-3.25-43.18-3.25,1.13,0-11.09,65.34-11.48,71C213,474.94,206.61,496,197.72,515c-3.75,8-8.21,15.76-10.87,24.2-4.41,14-4.4,30.47-3.15,44.95,12.56,3.45,24.33,9.92,37.25,11.6,10.63,1.38,21.36-.58,32-1.52,12.63-1.12,25.34-.82,38-1.79s25.41-3.29,36.6-9.25a183.51,183.51,0,0,1-12.06-30.31c-3.18-10.33-7.28-21.8-8.44-32.57-1-9.73-1.22-19.63-2.64-29.5-1.65-11.48-3.63-22.92-6.37-34.18a257.14,257.14,0,0,0-12.38-37.77c-3.88-9.32-8.5-24.59-15.79-31.77Q269.51,386.7,269.12,386.37Z" transform="translate(-61 -80.36)"/></g><g id="_Group_8" data-name="&lt;Group&gt;"><g id="_Group_9" data-name="&lt;Group&gt;"><path class="cls-12" d="M249.51,351c5.85,1.06,13.05,6.06,14.46,12.23.68,3-.29,5.7.56,8.85,1.66,6.22-5.86,15.37,1.58,19.7,3.83,2.22,8.61,1.5,13,.71a3.25,3.25,0,0,0,1.5-.54,2.28,2.28,0,0,0,.54-2.44,9.26,9.26,0,0,0-1.31-2.29c-5.12-7.69-3.88-18.73-5.87-27.49s-6.68-17.45-15.35-21a19.9,19.9,0,0,0-8.54,12.39Z" transform="translate(-61 -80.36)"/></g><g id="_Group_10" data-name="&lt;Group&gt;"><path class="cls-13" d="M256.85,388.69c5.62-2.41,9.35-8.13,10.58-14.13s.25-12.23-1.4-18.12c-5.51-19.6-30.11-14-35.84,2.77C225.18,373.83,240.49,395.69,256.85,388.69Z" transform="translate(-61 -80.36)"/></g><g id="_Group_11" data-name="&lt;Group&gt;"><path class="cls-12" d="M228.21,399.48c2.76-1.72,5.47-3.51,7.07-6.72,2.59-5.18,1.5-13.23,1.8-18.85.32-5.92.86-12.38,4.93-16.71,2.65-2.82,5.92-3.6,9.6-4,2.52-.26,2.7.69,4.72-.85,1.55-1.18,2.68-4.4,2.91-6.25a10.53,10.53,0,0,0-3.36-8.45,14.76,14.76,0,0,0-12-4.62c-16.5,1-28,11.86-31.3,28.35-1.57,7.92.82,16.39-.93,24-1.08,4.72-3.76,8-4.54,13-2,13-7.64,29.8-6,42.88a1.85,1.85,0,0,0,.56,1.31c.8.59,1.84-.3,2.42-1.11l10.19-14.11a24.53,24.53,0,0,0,3.46-5.87c1.92-5.34.14-11.87,3.46-16.47C223.05,402.59,225.66,401.07,228.21,399.48Z" transform="translate(-61 -80.36)"/></g></g><g id="_Group_12" data-name="&lt;Group&gt;"><g id="_Group_13" data-name="&lt;Group&gt;"><g id="_Group_14" data-name="&lt;Group&gt;"><path class="cls-13" d="M202.26,525.06c-.47,3.3,2.16,11.73,5.25,13.56,7.13,4.23,4.55-6.4,4.48-10.28a21.29,21.29,0,0,0,4.05.92c1.27.1-2.49-11.27-3.74-12.33-3-2.54-5.14-1.24-8.79-.84C203.17,519.08,202.69,522.07,202.26,525.06Z" transform="translate(-61 -80.36)"/></g></g><g id="_Group_15" data-name="&lt;Group&gt;"><polygon class="cls-11" points="150.24 324.72 112.89 389.93 139.45 446.9 148.46 434.99 138.97 384 174.26 362.44 170.4 320.57 150.24 324.72"/></g></g><polygon class="cls-11" points="213.15 312.19 246.28 365.13 264.45 339.89 281.62 342.78 273.48 383.73 250.94 400.46 213.15 377.8 213.15 312.19"/><polygon class="cls-2" points="456.7 319.09 442.09 324.1 418.44 359.54 388.16 339.28 378.54 350.7 393.81 373.37 421.31 393 456.7 355.96 456.7 319.09"/><polygon class="cls-13" points="554.76 406.16 555.88 422.06 543.02 432.02 537.63 424.96 543.44 414.59 541.36 409.2 547.06 400.64 554.76 406.16"/><polygon class="cls-12" points="422.35 421.07 421.31 511.04 430.9 626.85 443.93 626.85 459.53 520 477.37 412.97 422.35 421.07"/><polygon class="cls-9" points="443.86 632.35 429.76 639.39 422.71 632.35 429.76 625.3 443.86 625.3 443.86 632.35"/><polygon class="cls-12" points="511.73 421.07 511.98 473.12 503.19 626.85 490.15 626.85 468.35 524.84 456.7 412.97 511.73 421.07"/><polygon class="cls-9" points="490.23 632.35 504.33 639.39 511.37 632.35 504.33 625.3 490.23 625.3 490.23 632.35"/><path class="cls-2" d="M586.28,532.78c.28,8.26.1,19.3-3.38,19.72a3.43,3.43,0,0,1-1.85-.49c-6-2.94-10.36-7.09-16.32-9.93-6.25-3-13.34-4.53-20.28-5.6a211,211,0,0,0-31.28-2.74c-9-.08-18.26,4-26.72,6.25-3.26.86-5.91,3.24-8.61,5.1-4,2.75-5.75,3.84-5.2-1.78.89-9.17,1.81-18.33,2.94-27.47,2.25-18.23,5.31-36.42,10.49-54.07,2-6.74,4.26-13.39,6.54-20L501,417.44c3.45-10.06,9.28-17.15,19.49-20.66,8.82-3,19.78-3.87,28.36.38,9.54,4.73,14.08,20.85,18.71,29.47,4.06,7.55,9.18,28.14,10.7,36.28,1.83,9.8,3.52,19.54,4.85,29.27a300,300,0,0,1,2.81,32.18C585.91,525.53,586.15,528.83,586.28,532.78Z" transform="translate(-61 -80.36)"/><path class="cls-13" d="M528.48,398.92a2.08,2.08,0,0,0,.72.41,4,4,0,0,0,1.71,0l7-.83c-.77-7.14,3.4-8.75,7.47-13.34s2.85-10.93,2.62-16.62a12.13,12.13,0,0,0-.81-4.66c-1.18-2.52-3.92-3.92-6.58-4.75-6.79-2.11-14.55-1.59-20.53,2.26a10.86,10.86,0,0,0-3.94,4c-1.33,2.6-1,5.69-.62,8.59a29,29,0,0,0,4.4,12.56c2.34,3.49,6.81,5.16,7.32,9.35A4.74,4.74,0,0,0,528.48,398.92Z" transform="translate(-61 -80.36)"/><path class="cls-12" d="M515.72,368.86c.4,1.79,1.23,3.61.8,5.39-2.85-1-4.71-3.88-5.72-6.84a10.47,10.47,0,0,1-.67-4.18,5,5,0,0,1,1.85-3.65c1.56-1.12,4.37-.68,4.82,1.35S515.12,366.16,515.72,368.86Z" transform="translate(-61 -80.36)"/><path class="cls-12" d="M500.59,353.11a6.38,6.38,0,0,1,2.81-5.37c1.66-1.12,3.56-2,4.57-3.82.78-1.38.9-3.09,1.67-4.47,1.4-2.51,4.44-3.24,7.08-4.09,6.62-2.12,10.18-4.58,17.18-1.86,5,1.93,11.42,2.19,16,5a16.19,16.19,0,0,1,4.92,5.18c4.67,7.3,5.79,17.57,2.75,25.19a31.08,31.08,0,0,1-2.47,4.77c-1.85,3-3.83,6.7-7.11,8.16-.21-1.41-1.26-2.19-1.59-3.58a11,11,0,0,1-.11-3.08c.2-4,1.43-10.34-2.57-12.32-5.06-2.51-14.54-.25-19.42,1.88-4.31,1.88-11.58,4.33-16.18,2.31C503.92,365.16,500.45,357.7,500.59,353.11Z" transform="translate(-61 -80.36)"/><polygon class="cls-2" points="480.95 361.39 526.14 349.91 540.43 406.44 557.15 407.9 552.45 335.43 533.18 320.8 485.18 323.63 480.95 361.39"/><polygon class="cls-14" points="768.96 309.13 755.9 309.68 716.99 346.6 659.18 338.87 655.34 353.02 712.15 373.37 729.3 373.37 759.72 354.69 768.96 309.13"/><polygon class="cls-13" points="659.3 347.64 651.63 353.44 645.47 353.89 645.04 351.83 648.32 349.76 636.39 349.41 634.31 344.07 647.44 338.25 660.57 339.55 659.3 347.64"/><path class="cls-9" d="M803,691.49l-10.84,7.68L788.5,705a42.14,42.14,0,0,0,6.32,2.26c2.26.45,19.88-2.26,19.88-2.26V694.65Z" transform="translate(-61 -80.36)"/><path class="cls-9" d="M887.19,694.76l-4,7.28s-2.5,9.19-.33,8.56,14.26-2.73,14.75-4.28,5.74-7.78,6.35-8.9-2-8.61-2-8.61Z" transform="translate(-61 -80.36)"/><path class="cls-15" d="M813,523.49,848,628l39.14,66.77,15.18-4.41-26-76.15s-3.13-76.5-8.26-99Z" transform="translate(-61 -80.36)"/><polygon class="cls-15" points="724.34 458.9 737.89 614.29 754.15 614.29 759.12 534.79 768.45 464.4 732.92 422.76 724.34 458.9"/><path class="cls-14" d="M784.81,439.83c1.68-8,2.35-16.63,6.31-24.1s11.46-13.12,17.24-19.47c2.45-2.69,5.07-5.49,8.71-6.77a25.93,25.93,0,0,1,7.94-1l24.47-.62c3-.07,6.07-.13,8.78.94,4.06,1.61,6.36,5.35,8.37,8.84,5.13,8.92,6.07,18.8,6.53,28.88,0,.09,6.36,126.57,1.3,124.19-6.3-3-13.51-4.53-20.58-5.63a227.43,227.43,0,0,0-30.3-2.86l-17.88,1.21H794.91c-6.48.63-5.94,2.58-12.6,2.17C778.05,545.34,782.89,449,784.81,439.83Z" transform="translate(-61 -80.36)"/><path class="cls-13" d="M831.67,392.56l12.14-.53a60.7,60.7,0,0,0-.12-9.68c3.42-1,7.4-2.55,8.18-6a10,10,0,0,0,0-3.35l-1.61-13.82a12.25,12.25,0,0,0-1.17-4.63c-1.37-2.46-4.24-3.66-7-4.29-7-1.62-14.79-.52-20.52,3.81a11,11,0,0,0-3.67,4.32c-1.15,2.72-.57,5.81,0,8.7l1.63,8c.63,3.07,1.58,6.57,4.43,7.86,1.51.69,3.35.61,4.7,1.58C831.07,386.2,830.53,389.85,831.67,392.56Z" transform="translate(-61 -80.36)"/><path class="cls-12" d="M809.24,334a11.92,11.92,0,0,0,2.74-.75c2.93-1.28,5-3.84,8.1-5a28.52,28.52,0,0,1,20.39.53c5.92,2.49,14,3.45,19.3,6.8a16.16,16.16,0,0,1,5.22,5.76A24.34,24.34,0,0,1,863.64,367a34.79,34.79,0,0,1-4,4.56c-3,2.93-6.64,6.56-10.63,7.49.1-3.51,3.91-14.39,1.38-17.42-3.36-4-10-3.91-14.68-3.46-5.63.53-10.27-1.28-15.88-1-2.86.14-6.1.72-8.29-1.12-2.54-2.13-7.9-8.89-9.17-11.86a7.5,7.5,0,0,1,1.56-7.86C805.56,334.54,807.36,334.33,809.24,334Z" transform="translate(-61 -80.36)"/><path class="cls-10" d="M832.77,392.46a62.49,62.49,0,0,1-1.33,6.33s-22.56,65-24.7,70.16a9.55,9.55,0,0,0-.72,3.65l5.18,15.21,10.28-12.71,13.94-72.81,3.39-2.91L840,392Z" transform="translate(-61 -80.36)"/><rect class="cls-6" x="327.54" y="474.01" width="133.51" height="30.05" rx="8.04" ry="8.04" transform="translate(-18.07 -112.07) rotate(4.87)"/><path class="cls-6" d="M338,423.84l-79.52-9.33a42.54,42.54,0,0,0-47.07,37.18l-4.58,39A42.54,42.54,0,0,0,244,537.8l79.52,9.33A42.54,42.54,0,0,0,370.57,510l4.58-39A42.54,42.54,0,0,0,338,423.84ZM350.19,468l-4.58,39a17.51,17.51,0,0,1-19.17,15.15l-79.52-9.33a17.51,17.51,0,0,1-15.15-19.17l4.58-39a17.51,17.51,0,0,1,19.17-15.15L335,448.81A17.51,17.51,0,0,1,350.19,468Z" transform="translate(-61 -80.36)"/><path class="cls-6" d="M535.69,502.33l-56.62-56.62a42.54,42.54,0,0,0-60,0l-27.8,27.8a42.54,42.54,0,0,0,0,60l56.62,56.62a42.54,42.54,0,0,0,60,0l27.8-27.8A42.54,42.54,0,0,0,535.69,502.33Zm-45.57,70a17.51,17.51,0,0,1-24.43,0l-56.62-56.62a17.51,17.51,0,0,1,0-24.43l27.8-27.8a17.51,17.51,0,0,1,24.43,0l56.62,56.62a17.51,17.51,0,0,1,0,24.43Z" transform="translate(-61 -80.36)"/><path class="cls-6" d="M791.91,500.48l-2.33-39.24a42.54,42.54,0,0,0-44.86-39.82l-79.92,4.75A42.54,42.54,0,0,0,625,471l2.33,39.24a42.54,42.54,0,0,0,44.86,39.82l79.92-4.75A42.54,42.54,0,0,0,791.91,500.48ZM750.6,520.24,670.67,525a17.51,17.51,0,0,1-18.27-16.22l-2.33-39.24a17.51,17.51,0,0,1,16.22-18.27l79.92-4.75a17.51,17.51,0,0,1,18.27,16.22L766.82,502A17.51,17.51,0,0,1,750.6,520.24Z" transform="translate(-61 -80.36)"/><rect class="cls-6" x="530.92" y="466.01" width="133.51" height="30.05" rx="8.04" ry="8.04" transform="translate(17.81 -164.48) rotate(8.62)"/><polygon class="cls-14" points="782.92 343.44 776.99 379.5 712.28 396.29 712.28 413.55 789.7 405.37 803.08 383.76 801.79 327.83 782.92 343.44"/><polygon class="cls-13" points="712.28 410.21 704.87 413.55 689.71 410.11 692.29 401.9 704.06 401.21 706.43 397.23 712.17 398.76 712.28 410.21"/><polygon class="cls-13" points="383.74 339.78 368.82 345.38 365.11 361.21 373.77 363.18 380.78 353.59 386.55 353.23 391.97 344.48 383.74 339.78"/><polygon class="cls-13" points="264.45 339.89 278.31 338.66 287.2 349.73 281.14 354.54 271.99 349.64 267.32 351.54 259.76 346.7 264.45 339.89"/><text class="cls-16" transform="translate(432.59 194.74)">?</text></g></svg>