<svg width="80" height="80" viewBox="0 0 80 80" fill="none" xmlns="http://www.w3.org/2000/svg">
<circle cx="40" cy="40" r="40" fill="#F3F3F3"/>
<circle cx="40" cy="40" r="28" fill="#D0D0D0"/>
<path d="M26.2271 44V36.836H23.7791V35.6H30.2231V36.836H27.7631V44H26.2271ZM33.1028 44.144C32.5268 44.144 32.0068 44.012 31.5428 43.748C31.0868 43.484 30.7228 43.12 30.4508 42.656C30.1868 42.184 30.0548 41.64 30.0548 41.024C30.0548 40.408 30.1908 39.868 30.4628 39.404C30.7348 38.932 31.0988 38.564 31.5548 38.3C32.0188 38.036 32.5388 37.904 33.1148 37.904C33.6828 37.904 34.1948 38.036 34.6508 38.3C35.1148 38.564 35.4788 38.932 35.7428 39.404C36.0148 39.868 36.1508 40.408 36.1508 41.024C36.1508 41.64 36.0148 42.184 35.7428 42.656C35.4788 43.12 35.1148 43.484 34.6508 43.748C34.1868 44.012 33.6708 44.144 33.1028 44.144ZM33.1028 42.812C33.5028 42.812 33.8508 42.664 34.1468 42.368C34.4428 42.064 34.5908 41.616 34.5908 41.024C34.5908 40.432 34.4428 39.988 34.1468 39.692C33.8508 39.388 33.5068 39.236 33.1148 39.236C32.7068 39.236 32.3548 39.388 32.0588 39.692C31.7708 39.988 31.6268 40.432 31.6268 41.024C31.6268 41.616 31.7708 42.064 32.0588 42.368C32.3548 42.664 32.7028 42.812 33.1028 42.812ZM37.5241 44V35.36H39.0601V40.46L41.1721 38.048H42.9961L40.5601 40.76L43.3921 44H41.4721L39.0601 41.012V44H37.5241ZM46.7443 44.144C46.1443 44.144 45.6123 44.016 45.1483 43.76C44.6843 43.504 44.3203 43.144 44.0563 42.68C43.7923 42.216 43.6603 41.68 43.6603 41.072C43.6603 40.456 43.7883 39.908 44.0443 39.428C44.3083 38.948 44.6683 38.576 45.1243 38.312C45.5883 38.04 46.1323 37.904 46.7563 37.904C47.3403 37.904 47.8563 38.032 48.3043 38.288C48.7523 38.544 49.1003 38.896 49.3483 39.344C49.6043 39.784 49.7323 40.276 49.7323 40.82C49.7323 40.908 49.7283 41 49.7203 41.096C49.7203 41.192 49.7163 41.292 49.7083 41.396H45.1843C45.2163 41.86 45.3763 42.224 45.6643 42.488C45.9603 42.752 46.3163 42.884 46.7323 42.884C47.0443 42.884 47.3043 42.816 47.5123 42.68C47.7283 42.536 47.8883 42.352 47.9923 42.128H49.5523C49.4403 42.504 49.2523 42.848 48.9883 43.16C48.7323 43.464 48.4123 43.704 48.0283 43.88C47.6523 44.056 47.2243 44.144 46.7443 44.144ZM46.7563 39.152C46.3803 39.152 46.0483 39.26 45.7603 39.476C45.4723 39.684 45.2883 40.004 45.2083 40.436H48.1723C48.1483 40.044 48.0043 39.732 47.7403 39.5C47.4763 39.268 47.1483 39.152 46.7563 39.152ZM51.0241 44V38.048H52.3801L52.5001 39.056C52.6841 38.704 52.9481 38.424 53.2921 38.216C53.6441 38.008 54.0561 37.904 54.5281 37.904C55.2641 37.904 55.8361 38.136 56.2441 38.6C56.6521 39.064 56.8561 39.744 56.8561 40.64V44H55.3201V40.784C55.3201 40.272 55.2161 39.88 55.0081 39.608C54.8001 39.336 54.4761 39.2 54.0361 39.2C53.6041 39.2 53.2481 39.352 52.9681 39.656C52.6961 39.96 52.5601 40.384 52.5601 40.928V44H51.0241Z" fill="#5C6C7F"/>
</svg>
