<svg width="48" height="48" viewBox="0 0 48 48" fill="none" xmlns="http://www.w3.org/2000/svg">
<circle cx="24" cy="24" r="24" fill="#0364FF"/>
<path fill-rule="evenodd" clip-rule="evenodd" d="M16.0775 14.2408C14.9305 14.2408 14.0006 15.1707 14.0006 16.3178V18.7372C14.0006 19.8843 14.9305 20.8142 16.0775 20.8142H19.7522V34.3489C19.7522 35.496 20.6821 36.4258 21.8291 36.4258H24.2486C25.3957 36.4258 26.3255 35.496 26.3255 34.3489V18.7548C26.3256 18.749 26.3256 18.7431 26.3256 18.7372V16.3178C26.3256 15.1707 25.3957 14.2408 24.2487 14.2408H21.8291H16.0775Z" fill="white"/>
<path d="M31.2567 20.8142C33.0719 20.8142 34.5434 19.3427 34.5434 17.5275C34.5434 15.7123 33.0719 14.2408 31.2567 14.2408C29.4415 14.2408 27.97 15.7123 27.97 17.5275C27.97 19.3427 29.4415 20.8142 31.2567 20.8142Z" fill="white"/>
</svg>
