<svg width="310" height="72" viewBox="0 0 310 72" fill="none" xmlns="http://www.w3.org/2000/svg">
	<path fill-rule="evenodd" clip-rule="evenodd" d="M136.242 50.811C137.912 46.0576 138.732 41.0435 138.664 36.0016C138.729 30.9761 137.91 25.9789 136.242 21.2421C134.755 17.0245 132.435 13.1537 129.425 9.86256C126.468 6.69529 122.871 4.20575 118.875 2.56285C114.566 0.814332 109.955 -0.0557469 105.309 0.00294407C100.671 -0.0578331 96.0672 0.822963 91.7733 2.59284C87.7937 4.24938 84.2058 6.73339 81.2441 9.88256C78.2313 13.1646 75.9118 17.0293 74.4263 21.2421C72.759 25.9789 71.9392 30.9761 72.0049 36.0016C71.9367 41.0435 72.7565 46.0576 74.4263 50.811C75.9118 55.0238 78.2313 58.8885 81.2441 62.1705C84.2015 65.3199 87.7909 67.7982 91.7733 69.4403C100.49 72.8532 110.159 72.8532 118.875 69.4403C122.865 67.8009 126.462 65.3225 129.425 62.1705C132.437 58.8885 134.757 55.0238 136.242 50.811ZM131.408 22.7524C132.799 27.0263 133.47 31.5047 133.392 36.0019C133.474 40.5059 132.803 44.9917 131.408 49.2714C130.187 52.9425 128.231 56.322 125.662 59.201C123.188 61.9287 120.135 64.0582 116.73 65.4308C109.383 68.2716 101.252 68.2716 93.9053 65.4308C90.5052 64.0498 87.4538 61.9214 84.9738 59.201C82.3924 56.3241 80.4233 52.9447 79.1882 49.2714C77.7673 44.9965 77.076 40.5097 77.1439 36.0019C77.0893 31.5171 77.7838 27.0551 79.1981 22.8024C80.4247 19.1042 82.3941 15.7003 84.9837 12.8028C87.4682 10.0827 90.5179 7.94867 93.9152 6.55304C101.255 3.67281 109.4 3.67281 116.74 6.55304C120.142 7.94013 123.194 10.0754 125.672 12.8028C128.24 15.6885 130.192 19.0751 131.408 22.7524Z" fill="#FFFFFF" />
	<path fill-rule="evenodd" clip-rule="evenodd" d="M190.61 71.9981C192.268 71.9981 193.206 70.0959 192.196 68.7803L170.748 40.8389C170.168 40.0432 169.45 39.3652 168.632 38.839C171.466 38.5255 174.243 37.7913 176.875 36.659C179.182 35.6576 181.297 34.235 183.118 32.4592C184.823 30.7641 186.169 28.721 187.07 26.4593C188.012 24.0701 188.482 21.5098 188.452 18.9295C188.433 12.723 186.429 8.01646 182.441 4.80988C178.453 1.60329 172.462 0 164.467 0H148.666C147.561 0 146.666 0.895431 146.666 2V69.9981C146.666 71.1027 147.561 71.9981 148.666 71.9981H149.73C150.834 71.9981 151.73 71.1027 151.73 69.9981V41.439C151.73 40.3344 152.625 39.439 153.73 39.439H160.852C161.437 39.4335 162.022 39.4702 162.602 39.549C163.024 39.5943 163.438 39.7055 163.829 39.879C164.186 40.0259 164.513 40.2394 164.795 40.509C165.094 40.8169 165.365 41.1516 165.607 41.5089L187.93 70.7182C188.191 71.141 188.554 71.4858 188.984 71.7181C189.425 71.9192 189.903 72.0148 190.385 71.9981H190.61ZM172.025 34.4192C169.335 35.2231 166.544 35.6106 163.743 35.5692H153.731C152.627 35.5692 151.731 34.6738 151.731 33.5692V6.12002C151.731 5.01545 152.627 4.12002 153.731 4.12002H164.478C170.656 4.12669 175.356 5.36666 178.577 7.83993C181.799 10.3132 183.409 14.1098 183.409 19.2296C183.444 21.5585 182.992 23.8678 182.085 25.9995C181.2 28.0001 179.877 29.7598 178.22 31.1393C176.385 32.6461 174.28 33.761 172.025 34.4192Z" fill="#FFFFFF" />
	<path d="M229.333 67.4135C232.457 67.4711 235.558 66.8652 238.436 65.635C241.025 64.4999 243.34 62.8127 245.223 60.6891C247.121 58.513 248.567 55.9752 249.478 53.2254C250.468 50.2411 250.956 47.1103 250.922 43.9631V2.53792C250.922 1.13627 252.059 0 253.46 0C254.862 0 255.998 1.13626 255.998 2.53792V43.9631C256.03 47.7076 255.407 51.4284 254.158 54.9539C252.994 58.245 251.191 61.2682 248.854 63.8465C246.507 66.4233 243.643 68.4668 240.454 69.8414C233.314 72.7195 225.352 72.7195 218.211 69.8414C215.021 68.4694 212.157 66.4256 209.811 63.8465C207.471 61.2708 205.668 58.2468 204.508 54.9539C203.258 51.4284 202.635 47.7076 202.667 43.9631V2.54781C202.667 1.1407 203.808 0 205.215 0C206.622 0 207.763 1.1407 207.763 2.54781V43.9032C207.734 47.0549 208.229 50.1891 209.227 53.1754C210.138 55.9207 211.577 58.4572 213.462 60.6392C215.329 62.7804 217.635 64.4852 220.22 65.635C223.098 66.8759 226.204 67.4823 229.333 67.4135Z" fill="#FFFFFF" />
	<path d="M306.214 9.35152C305.996 9.86784 305.496 10.2024 304.943 10.2014C304.308 10.094 303.728 9.76946 303.299 9.28153C302.444 8.54626 301.535 7.8778 300.581 7.28189C299.233 6.42968 297.792 5.73855 296.288 5.22225C292.055 3.8964 287.522 3.93132 283.309 5.32223C281.522 5.97793 279.887 6.99878 278.504 8.3217C277.226 9.55344 276.219 11.0459 275.55 12.7009C274.887 14.3582 274.553 16.1316 274.565 17.92C274.481 19.998 274.998 22.0555 276.052 23.839C277.077 25.435 278.419 26.797 279.991 27.8382C281.73 28.9809 283.598 29.9074 285.554 30.5978C287.622 31.3376 289.759 32.0775 291.945 32.8074C294.131 33.5372 296.268 34.3471 298.336 35.2169C300.333 36.0528 302.205 37.1666 303.9 38.5264C305.534 39.8634 306.875 41.532 307.838 43.4255C308.899 45.6824 309.409 48.1651 309.325 50.6642C309.351 53.5089 308.853 56.3335 307.858 58.9927C306.895 61.5394 305.415 63.8522 303.516 65.7815C301.529 67.7641 299.162 69.3124 296.563 70.3307C293.558 71.4863 290.363 72.0496 287.15 71.9904C283.077 72.1006 279.034 71.2591 275.333 69.5309C272.799 68.2664 270.474 66.6201 268.435 64.6519C267.334 63.5894 267.223 61.898 268.036 60.6024C268.349 60.1458 268.857 59.8674 269.405 59.8526C269.838 59.9193 270.236 60.1303 270.537 60.4525L272.202 61.9122C272.851 62.5021 273.639 63.132 274.555 63.8119C275.552 64.5453 276.617 65.1781 277.736 65.7015C280.716 67.0982 283.966 67.8018 287.248 67.7612C289.756 67.805 292.251 67.3744 294.604 66.4914C296.634 65.712 298.487 64.5214 300.049 62.992C301.536 61.5266 302.695 59.7534 303.447 57.7929C304.243 55.7434 304.644 53.5574 304.628 51.3541C304.712 49.202 304.193 47.0699 303.131 45.2052C302.119 43.5981 300.775 42.2336 299.193 41.2059C297.455 40.0798 295.59 39.1701 293.639 38.4964C291.561 37.7665 289.434 37.0566 287.238 36.3567C285.042 35.6569 282.925 34.887 280.847 34.0172C278.844 33.2003 276.969 32.0886 275.284 30.7177C273.635 29.3555 272.292 27.6511 271.345 25.7186C270.27 23.3597 269.758 20.7773 269.848 18.18C269.847 15.8416 270.296 13.5255 271.168 11.3612C272.051 9.18127 273.368 7.21035 275.038 5.57219C276.858 3.83014 279 2.47095 281.34 1.5729C284.067 0.500364 286.972 -0.0324521 289.897 0.00317504C293.203 -0.0489667 296.489 0.541542 299.577 1.74287C301.725 2.6307 303.724 3.84007 305.51 5.32674C306.688 6.30757 306.915 7.98801 306.214 9.35152Z" fill="#FFFFFF" />
	<path fill-rule="evenodd" clip-rule="evenodd" d="M6.74056 0C3.01785 0 0 3.01784 0 6.74055V14.5928C0 18.3155 3.01785 21.3333 6.74055 21.3333H18.6664V65.2594C18.6664 68.9821 21.6843 72 25.407 72H33.2592C36.9819 72 39.9998 68.9821 39.9998 65.2594V14.6499C39.9999 14.6308 40 14.6118 40 14.5928V6.74056C40 3.01785 36.9821 0 33.2594 0H25.407H6.74056Z" fill="#FFFFFF" />
	<path d="M56.0006 21.3333C61.8917 21.3333 66.6673 16.5577 66.6673 10.6667C66.6673 4.77563 61.8917 0 56.0006 0C50.1096 0 45.334 4.77563 45.334 10.6667C45.334 16.5577 50.1096 21.3333 56.0006 21.3333Z" fill="#FFFFFF" />
</svg>
