<svg width="21" height="20" viewBox="0 0 21 20" fill="none" xmlns="http://www.w3.org/2000/svg">
<path fill-rule="evenodd" clip-rule="evenodd" d="M10.5 0C16.0232 0 20.5 4.47676 20.5 10C20.5 15.5232 16.0232 20 10.5 20C4.97676 20 0.5 15.5232 0.5 10C0.5 4.47676 4.97676 0 10.5 0Z" fill="#F0B90B"/>
<path d="M5.99599 10.0009L6.00321 12.6451L8.25 13.9672V15.5153L4.6883 13.4264V9.22766L5.99599 10.0009ZM5.99599 7.35667V8.89754L4.6875 8.1235V6.58263L5.99599 5.80859L7.3109 6.58263L5.99599 7.35667ZM9.1883 6.58263L10.4968 5.80859L11.8117 6.58263L10.4968 7.35667L9.1883 6.58263Z" fill="white"/>
<path d="M6.94141 12.0971V10.549L8.2499 11.323V12.8639L6.94141 12.0971ZM9.1882 14.5217L10.4967 15.2958L11.8116 14.5217V16.0626L10.4967 16.8366L9.1882 16.0626V14.5217ZM13.6882 6.58263L14.9967 5.80859L16.3116 6.58263V8.1235L14.9967 8.89754V7.35667L13.6882 6.58263ZM14.9967 12.6451L15.0039 10.0009L16.3124 9.22686V13.4256L12.7507 15.5145V13.9664L14.9967 12.6451Z" fill="white"/>
<path d="M14.0585 12.0969L12.75 12.8637V11.3229L14.0585 10.5488V12.0969Z" fill="white"/>
<path d="M14.0584 7.90365L14.0656 9.45172L11.8124 10.7738V13.4245L10.5039 14.1913L9.19541 13.4245V10.7738L6.94221 9.45172V7.90365L8.25631 7.12961L10.4959 8.45813L12.7491 7.12961L14.064 7.90365H14.0584ZM6.94141 5.26022L10.4967 3.16406L14.0584 5.26022L12.7499 6.03425L10.4967 4.70573L8.2499 6.03425L6.94141 5.26022Z" fill="white"/>
</svg>
