<svg width="23" height="20" viewBox="0 0 23 20" fill="none" xmlns="http://www.w3.org/2000/svg">
<path d="M17.0366 6.11276C16.6253 5.87537 16.0966 5.87537 15.6266 6.11276L12.3368 8.07122L10.1044 9.31751L6.87337 11.276C6.46214 11.5134 5.93342 11.5134 5.46345 11.276L2.93734 9.73294C2.52611 9.49555 2.23238 9.02077 2.23238 8.48665V5.51929C2.23238 5.04451 2.46736 4.56973 2.93734 4.273L5.46345 2.78932C5.87467 2.55193 6.40339 2.55193 6.87337 2.78932L9.39948 4.33234C9.81071 4.56973 10.1044 5.04451 10.1044 5.57864V7.53709L12.3368 6.23145V4.21365C12.3368 3.73887 12.1018 3.2641 11.6319 2.96736L6.93212 0.178042C6.52089 -0.0593472 5.99217 -0.0593472 5.52219 0.178042L0.704961 3.02671C0.234987 3.2641 0 3.73887 0 4.21365V9.79228C0 10.2671 0.234987 10.7418 0.704961 11.0386L5.46345 13.8279C5.87467 14.0653 6.40339 14.0653 6.87337 13.8279L10.1044 11.9288L12.3368 10.6231L15.5679 8.72404C15.9791 8.48665 16.5078 8.48665 16.9778 8.72404L19.5039 10.2077C19.9151 10.4451 20.2089 10.9199 20.2089 11.454V14.4214C20.2089 14.8961 19.9739 15.3709 19.5039 15.6677L17.0366 17.1513C16.6253 17.3887 16.0966 17.3887 15.6266 17.1513L13.1005 15.6677C12.6893 15.4303 12.3956 14.9555 12.3956 14.4214V12.5223L10.1632 13.8279V15.7864C10.1632 16.2611 10.3982 16.7359 10.8681 17.0326L15.6266 19.822C16.0379 20.0593 16.5666 20.0593 17.0366 19.822L21.795 17.0326C22.2063 16.7953 22.5 16.3205 22.5 15.7864V10.1484C22.5 9.67359 22.265 9.19881 21.795 8.90208L17.0366 6.11276Z" fill="#8247E5"/>
</svg>
