<svg width="42" height="43" viewBox="0 0 42 43" fill="none" xmlns="http://www.w3.org/2000/svg">
<path fill-rule="evenodd" clip-rule="evenodd" d="M5.84192 1C3.72009 1 2 2.72008 2 4.84192V9.31745C2 11.4393 3.72009 13.1594 5.84192 13.1594H12.6393V38.196C12.6393 40.3178 14.3594 42.0379 16.4812 42.0379H20.9568C23.0786 42.0379 24.7987 40.3178 24.7987 38.196V9.34999C24.7988 9.33915 24.7988 9.32831 24.7988 9.31746V4.84192C24.7988 2.72009 23.0787 1 20.9569 1H16.4812H5.84192Z" fill="#0364FF"/>
<path d="M33.9204 13.1594C37.2781 13.1594 40.0001 10.4374 40.0001 7.07969C40.0001 3.72197 37.2781 1 33.9204 1C30.5627 1 27.8407 3.72197 27.8407 7.07969C27.8407 10.4374 30.5627 13.1594 33.9204 13.1594Z" fill="#0364FF"/>
</svg>
