<svg id="Layer_1" data-name="Layer 1" xmlns="http://www.w3.org/2000/svg" viewBox="0 0 54.38 113.31"><defs><style>.cls-1{opacity:0.3;}.cls-2{fill:#207bd2;}.cls-3{opacity:0.6;}</style></defs><title>blue arrow down</title><g class="cls-1"><path class="cls-2" d="M15.31,94.47A5.86,5.86,0,0,1,17,90.41a5.77,5.77,0,0,1,8.13,0l17.4,17.34,17.4-17.34A5.75,5.75,0,1,1,68,98.54L46.56,120a5.66,5.66,0,0,1-4.06,1.66A5.91,5.91,0,0,1,38.43,120L17,98.54A6,6,0,0,1,15.31,94.47Z" transform="translate(-15.31 -8.34)"/></g><g class="cls-3"><path class="cls-2" d="M15.31,54.28A5.86,5.86,0,0,1,17,50.21a5.77,5.77,0,0,1,8.13,0l17.4,17.34,17.4-17.34A5.75,5.75,0,0,1,68,58.34L46.56,79.8a5.66,5.66,0,0,1-4.06,1.66,5.91,5.91,0,0,1-4.06-1.66L17,58.34A6,6,0,0,1,15.31,54.28Z" transform="translate(-15.31 -8.34)"/></g><path class="cls-2" d="M15.31,14.08A5.86,5.86,0,0,1,17,10a5.77,5.77,0,0,1,8.13,0l17.4,17.34L59.89,10A5.75,5.75,0,0,1,68,18.14L46.56,39.6a5.66,5.66,0,0,1-4.06,1.66,5.91,5.91,0,0,1-4.06-1.66L17,18.14A6,6,0,0,1,15.31,14.08Z" transform="translate(-15.31 -8.34)"/></svg>