<svg id="address-card-regular" xmlns="http://www.w3.org/2000/svg" xmlns:xlink="http://www.w3.org/1999/xlink" width="34" height="24" viewBox="0 0 34 24">
  <defs>
    <linearGradient id="linear-gradient" x1="0.5" x2="0.5" y2="1" gradientUnits="objectBoundingBox">
      <stop offset="0" stop-color="#5495f7"/>
      <stop offset="1" stop-color="#295dab"/>
    </linearGradient>
  </defs>
  <path id="Shape" d="M31.167,24H2.833A2.715,2.715,0,0,1,0,21.429V2.571A2.715,2.715,0,0,1,2.833,0H31.167A2.715,2.715,0,0,1,34,2.571V21.429A2.715,2.715,0,0,1,31.167,24ZM2.833,2.571V21.429H31.167V2.571ZM17.567,18.857H6.989a1.2,1.2,0,0,1-1.322-1.028V16.8c0-1.7,1.78-3.086,3.967-3.086a2.438,2.438,0,0,1,.752.148,5.758,5.758,0,0,0,1.892.281,5.976,5.976,0,0,0,1.9-.283,2.575,2.575,0,0,1,.744-.146c2.188,0,3.967,1.384,3.967,3.086v1.029A1.2,1.2,0,0,1,17.567,18.857Zm10.294-3.428H21.25A.453.453,0,0,1,20.777,15v-.858a.453.453,0,0,1,.472-.428h6.611a.452.452,0,0,1,.472.428V15A.452.452,0,0,1,27.861,15.429Zm0-3.429H21.25a.453.453,0,0,1-.472-.428v-.857a.453.453,0,0,1,.472-.428h6.611a.452.452,0,0,1,.472.428v.857A.452.452,0,0,1,27.861,12ZM12.278,12A3.62,3.62,0,0,1,8.5,8.572a3.62,3.62,0,0,1,3.778-3.429,3.62,3.62,0,0,1,3.778,3.429A3.62,3.62,0,0,1,12.278,12ZM27.861,8.572H21.25a.453.453,0,0,1-.472-.428V7.286a.453.453,0,0,1,.472-.428h6.611a.452.452,0,0,1,.472.428v.858A.452.452,0,0,1,27.861,8.572Z" fill="url(#linear-gradient)"/>
</svg>
