<svg id="Layer_1" data-name="Layer 1" xmlns="http://www.w3.org/2000/svg" viewBox="0 0 113.31 54.38"><defs><style>.cls-1{opacity:0.3;}.cls-2{fill:#207bd2;}.cls-3{opacity:0.6;}</style></defs><title>blur arrow reverse</title><g class="cls-1"><path class="cls-2" d="M114,81.69A5.86,5.86,0,0,1,109.91,80a5.77,5.77,0,0,1,0-8.13l17.34-17.4-17.34-17.4A5.75,5.75,0,1,1,118,29L139.5,50.44a5.66,5.66,0,0,1,1.66,4.06,5.91,5.91,0,0,1-1.66,4.06L118,80A6,6,0,0,1,114,81.69Z" transform="translate(-27.84 -27.31)"/></g><g class="cls-3"><path class="cls-2" d="M73.78,81.69A5.86,5.86,0,0,1,69.71,80a5.77,5.77,0,0,1,0-8.13l17.34-17.4L69.71,37.11A5.75,5.75,0,0,1,77.84,29L99.3,50.44A5.66,5.66,0,0,1,101,54.51a5.91,5.91,0,0,1-1.66,4.06L77.84,80A6,6,0,0,1,73.78,81.69Z" transform="translate(-27.84 -27.31)"/></g><path class="cls-2" d="M33.58,81.69A5.86,5.86,0,0,1,29.52,80a5.77,5.77,0,0,1,0-8.13l17.34-17.4L29.52,37.11A5.75,5.75,0,1,1,37.64,29L59.1,50.44a5.66,5.66,0,0,1,1.66,4.06,5.91,5.91,0,0,1-1.66,4.06L37.64,80A6,6,0,0,1,33.58,81.69Z" transform="translate(-27.84 -27.31)"/></svg>