<svg id="clock-regular" xmlns="http://www.w3.org/2000/svg" xmlns:xlink="http://www.w3.org/1999/xlink" width="24" height="24" viewBox="0 0 24 24">
  <defs>
    <linearGradient id="linear-gradient" y1="0.5" x2="1" y2="0.5" gradientUnits="objectBoundingBox">
      <stop offset="0" stop-color="#5495f7"/>
      <stop offset="1" stop-color="#295dab"/>
    </linearGradient>
  </defs>
  <path id="Shape" d="M12,24A12,12,0,0,1,3.515,3.515,12,12,0,0,1,20.486,20.486,11.922,11.922,0,0,1,12,24ZM12,2.323a9.678,9.678,0,0,0-6.844,16.52A9.678,9.678,0,0,0,18.843,5.156,9.614,9.614,0,0,0,12,2.323Zm3.333,14.414a.58.58,0,0,1-.342-.111L10.882,13.64a.59.59,0,0,1-.237-.47V5.225a.581.581,0,0,1,.58-.58h1.549a.581.581,0,0,1,.58.58v6.857l3.232,2.352a.57.57,0,0,1,.231.374.584.584,0,0,1-.105.438L15.8,16.5A.586.586,0,0,1,15.333,16.737Z" fill="url(#linear-gradient)"/>
</svg>
