<svg width="17" height="16" viewBox="0 0 17 16" fill="none" xmlns="http://www.w3.org/2000/svg">
<path d="M8.22572 15.9999H8.14555C7.04599 15.9916 5.95916 15.7639 4.94869 15.3302C3.93822 14.8966 3.02444 14.2657 2.26083 13.4745C0.844851 11.9602 0.0399419 9.97517 0.00144718 7.90238C-0.0370475 5.82959 0.693601 3.816 2.05238 2.25023C2.92778 1.26919 4.02828 0.515348 5.25931 0.0534853C5.40295 -0.00178735 5.55947 -0.0145472 5.71016 0.0167293C5.86086 0.0480059 5.99937 0.121997 6.10915 0.229866C6.21082 0.333548 6.28242 0.462897 6.31631 0.604102C6.3502 0.745307 6.3451 0.893065 6.30156 1.0316C5.86218 2.23495 5.77513 3.53865 6.05062 4.78973C6.32611 6.04082 6.95272 7.18737 7.85692 8.09486C8.76955 8.99628 9.91883 9.62077 11.1717 9.89603C12.4246 10.1713 13.7298 10.0861 14.9362 9.65021C15.0798 9.59967 15.2348 9.59105 15.3831 9.62537C15.5315 9.65968 15.6669 9.73552 15.7737 9.844C15.8805 9.95248 15.9542 10.0891 15.9862 10.238C16.0182 10.3868 16.0072 10.5417 15.9544 10.6844C15.5449 11.7778 14.9051 12.7703 14.0784 13.5947C13.3094 14.3614 12.3964 14.9686 11.3921 15.3814C10.3877 15.7941 9.31161 16.0043 8.22572 15.9999Z" fill="#5C6C7F"/>
</svg>
