<svg width="12" height="11" viewBox="0 0 12 11" fill="none" xmlns="http://www.w3.org/2000/svg">
<path fill-rule="evenodd" clip-rule="evenodd" d="M11.8649 9.24665C12.2495 9.91899 11.7668 10.7594 10.9988 10.7594H1.00113C0.23161 10.7594 -0.248848 9.91768 0.134943 9.24665L5.13382 0.504033C5.51855 -0.16862 6.48215 -0.167401 6.86619 0.504033L11.8649 9.24665ZM6 7.43913C5.47073 7.43913 5.04167 7.87192 5.04167 8.4058C5.04167 8.93967 5.47073 9.37246 6 9.37246C6.52928 9.37246 6.95834 8.93967 6.95834 8.4058C6.95834 7.87192 6.52928 7.43913 6 7.43913ZM5.09015 3.96447L5.24469 6.82244C5.25192 6.95617 5.36155 7.06087 5.49432 7.06087H6.50569C6.63846 7.06087 6.74809 6.95617 6.75532 6.82244L6.90986 3.96447C6.91767 3.82001 6.80365 3.69855 6.66023 3.69855H5.33975C5.19634 3.69855 5.08234 3.82001 5.09015 3.96447Z" fill="#FFC654"/>
</svg>
