<svg width="113" height="49" viewBox="0 0 113 49" fill="none" xmlns="http://www.w3.org/2000/svg">
<circle cx="24.5" cy="24.5" r="23.8295" fill="white" stroke="#FAFBFF" stroke-width="1.34091"/>
<circle r="2.12969" transform="matrix(1 0 0 -1 46.3893 29.6477)" fill="#D7E6FF"/>
<circle r="2.12969" transform="matrix(1 0 0 -1 58.1025 29.6477)" fill="#D7E6FF"/>
<circle r="2.12969" transform="matrix(1 0 0 -1 69.8155 29.6477)" fill="#D7E6FF"/>
<circle r="2.12969" transform="matrix(1 0 0 -1 42.1297 21.1281)" fill="#D7E6FF"/>
<circle r="2.12969" transform="matrix(1 0 0 -1 52.7783 21.1281)" fill="#D7E6FF"/>
<circle r="2.12969" transform="matrix(1 0 0 -1 63.4269 21.1301)" fill="#D7E6FF"/>
<circle r="2.12969" transform="matrix(1 0 0 -1 74.0749 21.1281)" fill="#D7E6FF"/>
<ellipse cx="24.5" cy="24" rx="15.5" ry="16" fill="#D7E6FF"/>
<path d="M30.0522 24.66C30.3267 24.92 30.4744 25.28 30.4744 25.66C30.4744 26.02 30.3267 26.38 30.0522 26.64C29.7778 26.9 29.3978 27.06 28.9967 27.06C28.6167 27.06 28.2367 26.9 27.9411 26.64C27.6667 26.38 27.5189 26.02 27.5189 25.66C27.5189 25.28 27.6878 24.94 27.9411 24.66C28.2156 24.4 28.5956 24.26 28.9967 24.26C29.3978 24.24 29.7778 24.4 30.0522 24.66V24.66ZM34 21.54V30.38C34 31.28 33.24 32 32.29 32H17.0056C15.9078 32 15 31.14 15 30.1V18.4C15 17.08 16.14 16 17.5333 16H29.2078C30.3689 16 31.2556 16.9 31.2556 18V19.2H31.6356C32.9444 19.2 34 20.3 34 21.54ZM16.5622 18.4C16.5622 18.84 16.9422 19.2 17.4067 19.2H29.5667V17.96C29.5667 17.76 29.3978 17.6 29.1867 17.6H17.4067C16.9422 17.6 16.5622 17.96 16.5622 18.4V18.4ZM32.3111 21.54C32.3111 21.2 32.0156 20.8 31.6356 20.8H17.0267C16.8367 20.8 16.6889 21.04 16.6889 21.22V30.1C16.6889 30.26 16.8367 30.4 17.0056 30.4H32.29C32.3111 30.4 32.3111 30.38 32.3111 30.38V21.54V21.54Z" fill="#0364FF"/>
<circle cx="88.5" cy="24.5" r="23.8295" fill="white" stroke="#FAFBFF" stroke-width="1.34091"/>
<ellipse cx="88.5" cy="24" rx="15.5" ry="16" fill="#D7E6FF"/>
<path d="M94.0522 24.66C94.3267 24.92 94.4744 25.28 94.4744 25.66C94.4744 26.02 94.3267 26.38 94.0522 26.64C93.7778 26.9 93.3978 27.06 92.9967 27.06C92.6167 27.06 92.2367 26.9 91.9411 26.64C91.6667 26.38 91.5189 26.02 91.5189 25.66C91.5189 25.28 91.6878 24.94 91.9411 24.66C92.2156 24.4 92.5956 24.26 92.9967 24.26C93.3978 24.24 93.7778 24.4 94.0522 24.66V24.66ZM98 21.54V30.38C98 31.28 97.24 32 96.29 32H81.0056C79.9078 32 79 31.14 79 30.1V18.4C79 17.08 80.14 16 81.5333 16H93.2078C94.3689 16 95.2556 16.9 95.2556 18V19.2H95.6356C96.9444 19.2 98 20.3 98 21.54ZM80.5622 18.4C80.5622 18.84 80.9422 19.2 81.4067 19.2H93.5667V17.96C93.5667 17.76 93.3978 17.6 93.1867 17.6H81.4067C80.9422 17.6 80.5622 17.96 80.5622 18.4V18.4ZM96.3111 21.54C96.3111 21.2 96.0156 20.8 95.6356 20.8H81.0267C80.8367 20.8 80.6889 21.04 80.6889 21.22V30.1C80.6889 30.26 80.8367 30.4 81.0056 30.4H96.29C96.3111 30.4 96.3111 30.38 96.3111 30.38V21.54V21.54Z" fill="#0364FF"/>
</svg>
