<svg width="999" height="185" viewBox="0 0 999 185" fill="none" xmlns="http://www.w3.org/2000/svg">
<path d="M528.26 62.6372C517.754 62.6372 509.28 67.8852 505.457 74.9332V65.3872H470.965V80.9002H490.178V121.722H470.844V137.235L531.001 136.992V121.712H506.893V96.0582C506.893 83.2862 515.367 78.3922 522.77 78.3922C525.035 78.3922 527.31 78.8672 528.139 79.5852C527.542 81.1322 527.3 82.5682 527.3 84.1252C527.3 89.7382 531.244 94.6322 538.039 94.6322C543.53 94.6322 549.375 90.0922 549.375 81.3852C549.385 70.0292 539.121 62.6372 528.26 62.6372Z" fill="white"/>
<path d="M420.476 62.5161C398.512 62.5161 381.807 79.4641 381.807 100.952C381.807 121.48 398.522 139.621 420.718 139.621C434.329 139.621 445.19 135.323 452.471 126.971L442.328 114.442C437.676 119.215 430.507 123.037 420.728 123.037C409.989 123.037 401.03 115.281 399.958 106.322L457.132 106.443C457.375 105.371 457.608 104.41 457.608 100.952C457.598 79.8181 442.561 62.5161 420.476 62.5161ZM399.948 93.0751C402.213 83.8831 410.93 78.2701 420.354 78.2701C429.425 78.2701 438.02 83.6401 439.567 93.0751H399.948Z" fill="white"/>
<path d="M357.811 91.7601C357.811 74.3371 346.232 62.5161 329.638 62.5161C317.342 62.5161 307.796 68.2491 303.377 77.0771C299.554 68.1281 290.848 62.5161 280.098 62.5161C269.117 62.5161 262.19 68.4821 259.207 74.9331H258.964V65.3871L229.002 65.5091V80.9101H242.491V137.012H259.207V97.0081C259.207 86.0261 266.366 78.8671 275.922 78.8671C285.478 78.8671 291.798 84.8331 291.798 96.8871V136.992H308.514V96.8871C308.514 86.0261 316.148 78.8671 325.704 78.8671C335.139 78.8671 341.105 84.8331 341.105 96.1791V137.002H371.189V121.722H357.821V91.7601H357.811Z" fill="white"/>
<path d="M880.261 80.8999H887.901L872.381 119.69L855.671 80.8999H864.391V65.377H829.17V80.8999H838.837L863.191 136.992L850.181 169.705H868.321L903.531 80.8999H914.041V65.377H880.261V80.8999Z" fill="white"/>
<path d="M801.724 62.6372C791.218 62.6372 782.744 67.8852 778.921 74.9332V65.3872H744.429V80.9002H763.642V121.722H744.307V137.235L804.465 136.992V121.712H780.357V96.0582C780.357 83.2862 788.831 78.3922 796.233 78.3922C798.499 78.3922 800.774 78.8672 801.603 79.5852C801.006 81.1322 800.764 82.5682 800.764 84.1252C800.764 89.7382 804.707 94.6322 811.503 94.6322C816.994 94.6322 822.839 90.0922 822.839 81.3852C822.849 70.0292 812.585 62.6372 801.724 62.6372Z" fill="white"/>
<path d="M959.041 62.5161C937.551 62.5161 919.891 79.8281 919.891 101.073C919.891 122.319 937.551 139.631 959.041 139.631C980.641 139.631 998.191 122.319 998.191 101.073C998.191 79.8281 980.641 62.5161 959.041 62.5161ZM959.041 123.512C946.621 123.512 936.601 113.481 936.601 101.073C936.601 88.6661 946.631 78.6341 959.041 78.6341C971.461 78.6341 981.481 88.6661 981.481 101.073C981.481 113.481 971.461 123.512 959.041 123.512Z" fill="white"/>
<path d="M621.009 100.355C627.451 100.355 632.831 95.5821 632.831 87.5841C632.831 76.4811 619.816 62.5161 597.853 62.5161C575.889 62.5161 559.184 79.4641 559.184 100.952C559.184 121.48 575.899 139.621 598.095 139.621C613.85 139.621 624.478 133.18 631.516 125.302L621.606 113.127C615.873 119.69 608.834 123.158 599.167 123.158C588.428 123.158 577.325 115.281 577.325 100.598C577.325 85.6831 588.428 78.9981 598.217 78.9981C605.376 78.9981 609.674 80.6671 613.021 83.4181C611.231 85.3291 610.392 88.1901 610.392 90.3441C610.382 96.1691 615.276 100.355 621.009 100.355Z" fill="white"/>
<path d="M721.15 65.377H704.435V105.361C704.435 116.343 697.276 123.502 687.72 123.502C678.164 123.502 671.843 117.536 671.843 105.482V65.377H641.76V80.657H655.128V106.676C655.128 124.342 665.038 139.5 682.815 139.5C694.04 139.5 701.674 133.887 704.657 127.325H704.779V136.992L734.62 136.871V121.47H721.13V65.377H721.15Z" fill="white"/>
<path d="M91.0734 0.720215C41.2724 0.720215 0.900391 41.0922 0.900391 90.8932C0.900391 140.694 41.2724 181.067 91.0734 181.067C140.874 181.067 181.247 140.694 181.247 90.8932C181.247 41.0922 140.874 0.720215 91.0734 0.720215Z" fill="white"/>
<mask id="mask0" mask-type="alpha" maskUnits="userSpaceOnUse" x="0" y="0" width="182" height="185">
<path d="M91.0734 0.720215C41.2724 0.720215 0.900391 41.0922 0.900391 90.8932C0.900391 132.771 29.4474 167.981 68.1434 178.125C75.4644 180.044 83.1504 184.089 91.0734 184.089C98.9974 184.089 106.682 180.044 114.004 178.125C152.699 167.981 181.247 132.771 181.247 90.8932C181.247 41.0922 140.874 0.720215 91.0734 0.720215Z" fill="#FBFBFB"/>
</mask>
<g mask="url(#mask0)">
<path d="M30.6738 107.42C30.6738 128.279 36.9078 145.067 42.1848 158.491C46.7428 170.24 46.7428 172.16 46.7428 181.27H50.0998C50.0998 172.879 50.0998 169.759 45.0668 157.291C39.7898 144.104 33.7988 127.798 33.7988 107.42C33.7988 85.8432 36.4378 67.6162 41.4708 54.9112C44.1098 48.1962 46.9858 45.8012 52.0198 45.8012C57.2968 45.8012 62.8108 47.7202 64.4868 60.9072C66.4068 76.2512 70.0018 88.9622 73.8408 102.387C79.8368 123.246 86.0708 144.348 84.8698 177.918C70.4828 174.798 65.4498 167.607 64.0118 142.672L59.2158 65.2222C58.7348 58.2692 56.5778 55.1492 52.2628 55.1492C47.9488 55.1492 46.0288 59.4632 44.8288 64.0212C43.3908 69.0552 38.5948 92.5522 40.5148 116.53C41.7148 131.155 46.5108 143.623 50.5868 154.415C56.8208 169.759 56.8208 170.959 57.0588 181.27H60.4158C60.4158 172.16 60.1788 169.521 53.7008 153.214C49.6248 142.666 45.0668 130.436 43.8718 116.287C41.9528 92.7902 46.5108 69.7682 47.9488 64.9722C49.6248 59.2202 51.0688 58.5012 52.2628 58.5012C53.4638 58.5012 55.3828 58.5012 55.8578 65.4532L60.6538 142.66C62.0918 167.596 67.1258 181.264 90.8668 181.264C114.607 181.264 119.641 167.596 121.079 142.66L125.875 65.4532C126.356 58.5012 128.27 58.5012 129.47 58.5012C130.67 58.5012 132.109 59.2202 133.784 64.9722C135.223 69.7682 139.781 92.7842 137.861 116.287C136.661 130.436 132.109 142.66 128.032 153.214C121.56 169.521 121.317 172.16 121.317 181.27H124.674C124.912 170.959 124.912 169.759 131.146 154.415C135.223 143.623 140.018 131.155 141.219 116.53C143.138 92.5522 138.342 69.0552 136.904 64.0212C135.704 59.4632 133.784 55.1492 129.47 55.1492C125.156 55.1492 122.998 58.2692 122.517 65.2222L117.721 142.672C116.283 167.607 111.25 174.804 96.8628 177.918C95.6618 144.348 101.896 123.251 107.892 102.387C111.731 88.9572 115.326 76.2512 117.246 60.9072C118.922 47.7202 124.437 45.8012 129.714 45.8012C134.747 45.8012 137.629 48.1962 140.262 54.9112C145.295 67.6162 147.934 85.8432 147.934 107.42C147.934 127.804 141.938 144.104 136.666 157.291C131.633 169.759 131.633 172.879 131.633 181.27H134.991C134.991 172.16 134.991 170.24 139.549 158.491C144.826 145.061 151.059 128.279 151.059 107.42C151.059 85.3612 148.421 66.8972 143.144 53.7112C140.749 47.9582 137.629 42.6812 129.714 42.6812C119.403 42.6812 115.326 49.6342 114.126 60.6642C112.45 75.7702 108.849 88.2372 105.016 101.424C98.7818 122.527 92.5478 144.586 93.7488 178.393C93.0298 178.393 92.0728 178.393 90.8718 178.393H87.9958C89.1958 144.586 82.9628 122.527 76.7288 101.424C72.8898 88.2372 69.2948 75.7702 67.6188 60.6642C66.4178 49.6342 62.3418 42.6812 52.0308 42.6812C44.1158 42.6812 41.0018 47.9582 38.6008 53.7112C33.3118 66.8972 30.6738 85.3612 30.6738 107.42ZM91.5798 30.4512H89.9038C88.2278 39.0862 85.1078 41.9622 76.4738 43.8812V45.0822C85.1078 47.0012 88.2218 50.1152 89.9038 58.7502H91.5798C93.2558 50.1152 96.6128 47.0012 104.767 45.0822V43.8812C96.6128 41.9622 93.2558 39.0862 91.5798 30.4512Z" fill="black"/>
</g>
</svg>
