<svg width="999" height="182" viewBox="0 0 999 182" fill="none" xmlns="http://www.w3.org/2000/svg">
<path d="M528.266 62.6372C517.76 62.6372 509.286 67.8852 505.463 74.9332V65.3872H470.971V80.9002H490.184V121.722H470.85V137.235L531.007 136.992V121.712H506.899V96.0582C506.899 83.2862 515.373 78.3922 522.776 78.3922C525.041 78.3922 527.316 78.8672 528.145 79.5852C527.548 81.1322 527.306 82.5682 527.306 84.1252C527.306 89.7382 531.25 94.6322 538.045 94.6322C543.536 94.6322 549.381 90.0922 549.381 81.3852C549.391 70.0292 539.127 62.6372 528.266 62.6372Z" fill="black"/>
<path d="M420.481 62.5161C398.517 62.5161 381.812 79.4641 381.812 100.952C381.812 121.48 398.527 139.621 420.723 139.621C434.334 139.621 445.195 135.323 452.476 126.971L442.333 114.442C437.681 119.215 430.512 123.037 420.733 123.037C409.994 123.037 401.035 115.281 399.963 106.322L457.137 106.443C457.38 105.371 457.613 104.41 457.613 100.952C457.603 79.8181 442.566 62.5161 420.481 62.5161ZM399.953 93.0751C402.218 83.8831 410.935 78.2701 420.359 78.2701C429.43 78.2701 438.025 83.6401 439.572 93.0751H399.953Z" fill="black"/>
<path d="M357.815 91.7601C357.815 74.3371 346.237 62.5161 329.643 62.5161C317.347 62.5161 307.801 68.2491 303.382 77.0771C299.559 68.1281 290.853 62.5161 280.103 62.5161C269.122 62.5161 262.195 68.4821 259.212 74.9331H258.969V65.3871L229.006 65.5091V80.9101H242.496V137.012H259.212V97.0081C259.212 86.0261 266.371 78.8671 275.927 78.8671C285.483 78.8671 291.803 84.8331 291.803 96.8871V136.992H308.519V96.8871C308.519 86.0261 316.153 78.8671 325.709 78.8671C335.144 78.8671 341.11 84.8331 341.11 96.1791V137.002H371.194V121.722H357.826V91.7601H357.815Z" fill="black"/>
<path d="M880.267 80.8999H887.907L872.387 119.69L855.677 80.8999H864.397V65.377H829.176V80.8999H838.843L863.197 136.992L850.187 169.705H868.327L903.537 80.8999H914.047V65.377H880.267V80.8999Z" fill="black"/>
<path d="M801.729 62.6372C791.223 62.6372 782.75 67.8852 778.927 74.9332V65.3872H744.435V80.9002H763.648V121.722H744.312V137.235L804.471 136.992V121.712H780.362V96.0582C780.362 83.2862 788.836 78.3922 796.238 78.3922C798.503 78.3922 800.78 78.8672 801.609 79.5852C801.012 81.1322 800.768 82.5682 800.768 84.1252C800.768 89.7382 804.712 94.6322 811.508 94.6322C816.999 94.6322 822.844 90.0922 822.844 81.3852C822.854 70.0292 812.59 62.6372 801.729 62.6372Z" fill="black"/>
<path d="M959.047 62.5161C937.557 62.5161 919.896 79.8281 919.896 101.073C919.896 122.319 937.557 139.631 959.047 139.631C980.647 139.631 998.196 122.319 998.196 101.073C998.196 79.8281 980.647 62.5161 959.047 62.5161ZM959.047 123.512C946.627 123.512 936.606 113.481 936.606 101.073C936.606 88.6661 946.637 78.6341 959.047 78.6341C971.467 78.6341 981.486 88.6661 981.486 101.073C981.486 113.481 971.467 123.512 959.047 123.512Z" fill="black"/>
<path d="M621.014 100.355C627.456 100.355 632.836 95.5821 632.836 87.5841C632.836 76.4811 619.821 62.5161 597.858 62.5161C575.894 62.5161 559.189 79.4641 559.189 100.952C559.189 121.48 575.904 139.621 598.1 139.621C613.855 139.621 624.483 133.18 631.521 125.302L621.611 113.127C615.878 119.69 608.839 123.158 599.172 123.158C588.433 123.158 577.33 115.281 577.33 100.598C577.33 85.6831 588.433 78.9981 598.222 78.9981C605.381 78.9981 609.679 80.6671 613.026 83.4181C611.236 85.3291 610.397 88.1901 610.397 90.3441C610.387 96.1691 615.281 100.355 621.014 100.355Z" fill="black"/>
<path d="M721.156 65.377H704.441V105.361C704.441 116.343 697.281 123.502 687.725 123.502C678.169 123.502 671.849 117.536 671.849 105.482V65.377H641.766V80.657H655.134V106.676C655.134 124.342 665.044 139.5 682.821 139.5C694.045 139.5 701.68 133.887 704.663 127.325H704.785V136.992L734.626 136.871V121.47H721.136V65.377H721.156Z" fill="black"/>
<path d="M76.214 44.954V43.468C84.844 41.679 87.822 38.707 89.611 30.071H91.4C93.189 38.701 96.162 41.679 104.798 43.468V44.954C96.167 46.744 93.189 49.716 91.4 58.352H89.611C87.822 49.716 84.844 46.738 76.214 44.954ZM0 90.8C0 125.038 19.05 156.595 49.715 171.776C46.44 153.319 33.34 142.002 33.34 107.17C33.34 83.353 36.615 45.543 51.499 45.543C56.86 45.543 62.513 47.332 64.005 60.724C65.794 76.202 69.663 88.708 73.533 102.106C79.489 123.243 85.742 144.38 84.547 178.023C69.96 175.045 64.599 160.458 63.707 142.597C62.519 122.054 60.135 82.461 58.649 64.897C58.055 57.758 55.968 54.78 51.802 54.78C47.338 54.78 45.549 59.244 44.36 63.714C42.874 68.772 38.107 92.59 39.896 116.407C41.382 131.291 45.852 143.797 50.316 154.514C54.779 165.528 55.974 168.209 56.569 175.057L60.438 176.543C58.952 168.209 58.055 164.637 53.293 153.319C48.829 142.602 44.36 130.393 43.468 116.104C41.382 92.584 46.149 69.664 47.635 64.599C49.121 58.941 50.613 58.049 51.802 58.049C52.99 58.049 54.779 58.049 55.374 65.194C56.86 82.758 59.243 122.351 60.432 142.894C61.918 168.197 70.852 181.298 90.503 181.595C110.154 181.298 119.082 168.197 120.574 142.894C121.762 122.351 124.146 82.758 125.632 65.194C126.226 58.049 128.015 58.049 129.204 58.049C130.393 58.049 131.885 58.941 133.371 64.599C134.857 69.658 139.624 92.584 137.538 116.104C136.646 130.393 132.176 142.602 127.712 153.319C122.951 164.631 122.054 168.203 120.568 176.543L124.437 175.057C125.032 168.209 126.226 165.528 130.69 154.514C135.154 143.797 139.624 131.291 141.11 116.407C142.899 92.59 138.132 68.772 136.646 63.714C135.457 59.25 133.668 54.78 129.204 54.78C125.038 54.78 122.951 57.758 122.357 64.902C120.871 82.467 118.487 122.06 117.298 142.602C116.407 160.464 111.045 175.051 96.459 178.029C95.27 144.386 101.517 123.249 107.473 102.112C111.343 88.714 115.212 76.214 117.001 60.73C118.487 47.332 124.146 45.549 129.507 45.549C144.391 45.549 147.666 83.359 147.666 107.176C147.666 142.008 134.566 153.319 131.291 171.781C161.956 156.6 181.006 125.044 181.006 90.806C181.006 40.788 140.522 0.297 90.503 0C40.49 0.297 0 40.788 0 90.8Z" fill="black"/>
</svg>
