<svg width="312" height="276" viewBox="0 0 312 276" fill="none" xmlns="http://www.w3.org/2000/svg">
<circle cx="145.271" cy="177.431" r="3.56027" transform="rotate(-90 145.271 177.431)" fill="#D7E6FF"/>
<circle cx="145.271" cy="157.851" r="3.56027" transform="rotate(-90 145.271 157.851)" fill="#D7E6FF"/>
<circle cx="145.271" cy="138.269" r="3.56027" transform="rotate(-90 145.271 138.269)" fill="#D7E6FF"/>
<circle cx="159.512" cy="184.552" r="3.56027" transform="rotate(-90 159.512 184.552)" fill="#D7E6FF"/>
<circle cx="159.512" cy="166.751" r="3.56027" transform="rotate(-90 159.512 166.751)" fill="#D7E6FF"/>
<circle cx="159.512" cy="148.949" r="3.56027" transform="rotate(-90 159.512 148.949)" fill="#D7E6FF"/>
<circle cx="159.512" cy="131.148" r="3.56027" transform="rotate(-90 159.512 131.148)" fill="#D7E6FF"/>
<circle cx="78.3461" cy="155.16" r="3.56027" transform="rotate(-45 78.3461 155.16)" fill="#D7E6FF"/>
<circle cx="92.1923" cy="141.314" r="3.56027" transform="rotate(-45 92.1923 141.314)" fill="#D7E6FF"/>
<circle cx="106.039" cy="127.469" r="3.56027" transform="rotate(-45 106.039 127.469)" fill="#D7E6FF"/>
<circle cx="83.3813" cy="170.266" r="3.56027" transform="rotate(-45 83.3813 170.266)" fill="#D7E6FF"/>
<circle cx="95.9687" cy="157.679" r="3.56027" transform="rotate(-45 95.9687 157.679)" fill="#D7E6FF"/>
<circle cx="108.556" cy="145.091" r="3.56027" transform="rotate(-45 108.556 145.091)" fill="#D7E6FF"/>
<circle cx="121.144" cy="132.504" r="3.56027" transform="rotate(-45 121.144 132.504)" fill="#D7E6FF"/>
<circle r="3.56027" transform="matrix(-0.707107 -0.707107 -0.707107 0.707107 233.429 155.161)" fill="#D7E6FF"/>
<circle r="3.56027" transform="matrix(-0.707107 -0.707107 -0.707107 0.707107 219.583 141.315)" fill="#D7E6FF"/>
<circle r="3.56027" transform="matrix(-0.707107 -0.707107 -0.707107 0.707107 205.737 127.47)" fill="#D7E6FF"/>
<circle r="3.56027" transform="matrix(-0.707107 -0.707107 -0.707107 0.707107 228.395 170.267)" fill="#D7E6FF"/>
<circle r="3.56027" transform="matrix(-0.707107 -0.707107 -0.707107 0.707107 215.807 157.68)" fill="#D7E6FF"/>
<circle r="3.56027" transform="matrix(-0.707107 -0.707107 -0.707107 0.707107 203.22 145.092)" fill="#D7E6FF"/>
<circle r="3.56027" transform="matrix(-0.707107 -0.707107 -0.707107 0.707107 190.632 132.505)" fill="#D7E6FF"/>
<g filter="url(#filter0_d)">
<circle cx="62.648" cy="177.369" r="24.648" fill="white"/>
<circle cx="62.648" cy="177.369" r="23.9776" stroke="#FAFBFF" stroke-width="1.34091"/>
</g>
<path fill-rule="evenodd" clip-rule="evenodd" d="M71.1922 177.406C71.1922 176.763 71.1344 176.144 71.0272 175.55H62.4802V179.06H67.3642C67.1538 180.195 66.5145 181.156 65.5533 181.799V184.076H68.4862C70.2022 182.496 71.1922 180.17 71.1922 177.406Z" fill="#5C6C7F"/>
<path fill-rule="evenodd" clip-rule="evenodd" d="M62.4803 186.276C64.9306 186.276 66.9848 185.463 68.4863 184.077L65.5534 181.8C64.7408 182.344 63.7013 182.666 62.4803 182.666C60.1167 182.666 58.1161 181.07 57.4025 178.925H54.3706V181.276C55.8638 184.242 58.9328 186.276 62.4803 186.276Z" fill="#5C6C7F"/>
<path fill-rule="evenodd" clip-rule="evenodd" d="M57.4021 178.925C57.2206 178.38 57.1175 177.799 57.1175 177.2C57.1175 176.602 57.2206 176.021 57.4021 175.476V173.125H54.3703C53.7557 174.35 53.405 175.736 53.405 177.2C53.405 178.665 53.7557 180.051 54.3703 181.276L57.4021 178.925Z" fill="#5C6C7F"/>
<path fill-rule="evenodd" clip-rule="evenodd" d="M62.4803 171.734C63.8127 171.734 65.0089 172.192 65.9494 173.091L68.5523 170.489C66.9807 169.024 64.9264 168.125 62.4803 168.125C58.9328 168.125 55.8638 170.159 54.3706 173.124L57.4025 175.476C58.1161 173.331 60.1167 171.734 62.4803 171.734Z" fill="#5C6C7F"/>
<g filter="url(#filter1_d)">
<circle cx="155.951" cy="194.96" r="24.648" fill="white"/>
<circle cx="155.951" cy="194.96" r="23.9776" stroke="#FAFBFF" stroke-width="1.34091"/>
</g>
<g filter="url(#filter2_d)">
<circle cx="249.352" cy="171.062" r="24.648" fill="white"/>
<circle cx="249.352" cy="171.062" r="23.9776" stroke="#FAFBFF" stroke-width="1.34091"/>
</g>
<path d="M252.621 169.891L257.316 168.36C257.666 168.245 258.056 168.245 258.407 168.36L260.027 168.888C260.206 168.947 260.401 168.887 260.554 168.776C260.705 168.666 260.796 168.461 260.796 168.273C260.796 166.979 259.742 165.926 258.448 165.926H237.321C236.027 165.926 234.974 166.979 234.974 168.273V174.142C234.974 175.436 236.027 176.489 237.321 176.489H250.856C251.017 176.489 251.171 176.423 251.282 176.306C251.392 176.189 251.451 176.032 251.441 175.871C251.421 175.475 251.406 175.067 251.406 174.627V171.565C251.406 170.8 251.894 170.127 252.621 169.891ZM240.392 171.286C240.673 171.448 240.769 171.807 240.606 172.088C240.499 172.276 240.3 172.381 240.098 172.381C239.999 172.381 239.898 172.356 239.805 172.303L239.669 172.224V172.381C239.669 172.706 239.406 172.968 239.082 172.968C238.757 172.968 238.495 172.706 238.495 172.381V172.224L238.359 172.303C238.266 172.356 238.165 172.381 238.065 172.381C237.863 172.381 237.665 172.276 237.557 172.088C237.395 171.807 237.491 171.448 237.772 171.286L237.908 171.208L237.772 171.129C237.491 170.967 237.395 170.608 237.557 170.327C237.719 170.046 238.079 169.952 238.359 170.112L238.495 170.191V170.034C238.495 169.709 238.757 169.447 239.082 169.447C239.406 169.447 239.669 169.709 239.669 170.034V170.191L239.805 170.112C240.085 169.95 240.445 170.045 240.606 170.327C240.769 170.608 240.673 170.967 240.392 171.129L240.256 171.207L240.392 171.286ZM245.087 171.286C245.368 171.448 245.464 171.807 245.301 172.088C245.193 172.276 244.995 172.381 244.793 172.381C244.694 172.381 244.593 172.356 244.5 172.303L244.364 172.224V172.381C244.364 172.706 244.101 172.968 243.777 172.968C243.452 172.968 243.19 172.706 243.19 172.381V172.224L243.053 172.303C242.961 172.356 242.86 172.381 242.76 172.381C242.558 172.381 242.36 172.276 242.252 172.088C242.09 171.807 242.186 171.448 242.467 171.286L242.603 171.208L242.467 171.129C242.186 170.967 242.09 170.608 242.252 170.327C242.414 170.046 242.774 169.952 243.054 170.112L243.19 170.191V170.034C243.19 169.709 243.452 169.447 243.777 169.447C244.101 169.447 244.364 169.709 244.364 170.034V170.191L244.5 170.112C244.78 169.95 245.141 170.045 245.301 170.327C245.464 170.608 245.368 170.967 245.087 171.129L244.951 171.208L245.087 171.286ZM249.782 171.286C250.063 171.448 250.159 171.807 249.996 172.088C249.888 172.276 249.69 172.381 249.488 172.381C249.389 172.381 249.288 172.356 249.195 172.303L249.058 172.224V172.381C249.058 172.706 248.796 172.968 248.472 172.968C248.147 172.968 247.885 172.706 247.885 172.381V172.224L247.748 172.303C247.655 172.356 247.555 172.381 247.455 172.381C247.253 172.381 247.055 172.276 246.947 172.088C246.784 171.807 246.881 171.448 247.161 171.286L247.298 171.208L247.161 171.129C246.881 170.967 246.784 170.608 246.947 170.327C247.109 170.046 247.469 169.952 247.748 170.112L247.885 170.191V170.034C247.885 169.709 248.147 169.447 248.472 169.447C248.796 169.447 249.058 169.709 249.058 170.034V170.191L249.195 170.112C249.476 169.95 249.836 170.045 249.996 170.327C250.159 170.608 250.063 170.967 249.782 171.129L249.646 171.208L249.782 171.286Z" fill="#5C6C7F"/>
<path d="M262.739 171.005L258.044 169.475C257.924 169.437 257.798 169.437 257.679 169.475L252.984 171.005C252.744 171.085 252.58 171.31 252.58 171.564V174.626C252.58 178.756 253.24 180.265 257.614 182.302C257.692 182.339 257.777 182.357 257.861 182.357C257.946 182.357 258.031 182.339 258.109 182.302C262.483 180.265 263.143 178.756 263.143 174.626V171.564C263.143 171.31 262.979 171.085 262.739 171.005ZM258.13 179.683C258.045 179.727 257.953 179.748 257.861 179.748C257.755 179.748 257.649 179.72 257.555 179.662C257.381 179.556 257.275 179.366 257.275 179.161V176.488H255.514C255.19 176.488 254.927 176.226 254.927 175.902V173.268C254.927 173.014 255.091 172.788 255.332 172.709L257.679 171.944C257.859 171.886 258.054 171.917 258.206 172.027C258.358 172.137 258.448 172.314 258.448 172.502V175.315H260.209C260.369 175.315 260.523 175.381 260.634 175.497C260.744 175.613 260.803 175.77 260.795 175.93C260.702 177.851 260.129 178.658 258.13 179.683Z" fill="#5C6C7F"/>
<g filter="url(#filter3_d)">
<circle cx="156.084" cy="82.1949" r="63.1949" fill="white"/>
<circle cx="156.084" cy="82.1949" r="62.5244" stroke="#FAFBFF" stroke-width="1.34091"/>
</g>
<circle cx="156" cy="82.0092" r="40.0971" fill="#D7E6FF"/>
<path d="M170.061 84.3304C170.756 85.0192 171.13 85.9729 171.13 86.9797C171.13 87.9334 170.756 88.8871 170.061 89.576C169.366 90.2648 168.403 90.6886 167.387 90.6886C166.425 90.6886 165.463 90.2648 164.714 89.576C164.019 88.8871 163.645 87.9334 163.645 86.9797C163.645 85.9729 164.073 85.0722 164.714 84.3304C165.409 83.6416 166.372 83.2707 167.387 83.2707C168.403 83.2177 169.366 83.6416 170.061 84.3304ZM180.058 76.0647V99.4842C180.058 101.869 178.134 103.776 175.728 103.776H137.021C134.241 103.776 131.942 101.498 131.942 98.7424V67.7459C131.942 64.2489 134.829 61.3877 138.357 61.3877H167.922C170.863 61.3877 173.108 63.772 173.108 66.6862V69.8654H174.07C177.385 69.8654 180.058 72.7796 180.058 76.0647ZM135.898 67.7459C135.898 68.9116 136.86 69.8654 138.036 69.8654H168.831V66.5803C168.831 66.0504 168.403 65.6265 167.869 65.6265H138.036C136.86 65.6265 135.898 66.5803 135.898 67.7459ZM175.781 76.0647C175.781 75.1639 175.033 74.1042 174.07 74.1042H137.074C136.593 74.1042 136.219 74.74 136.219 75.2169V98.7424C136.219 99.1663 136.593 99.5372 137.021 99.5372H175.728C175.781 99.5372 175.781 99.4842 175.781 99.4842V76.0647Z" fill="#0364FF"/>
<path d="M157.52 202.805C157.347 202.805 157.198 202.805 157.05 202.805C153.337 202.805 149.625 202.805 145.912 202.805C144.559 202.805 143.932 202.186 143.94 200.841C143.948 199.191 143.99 197.541 143.981 195.899C143.981 193.234 143.948 190.57 143.932 187.905C143.924 186.56 144.551 185.941 145.904 185.941C151.687 185.941 157.479 185.941 163.262 185.941C164.59 185.941 165.201 186.56 165.201 187.88C165.201 188.623 165.201 189.365 165.201 190.108C165.201 190.718 164.887 191.106 164.409 191.114C163.914 191.122 163.584 190.726 163.584 190.091C163.575 189.266 163.584 188.449 163.584 187.6C157.569 187.6 151.596 187.6 145.574 187.6C145.574 191.642 145.574 195.685 145.574 199.785C149.542 199.785 153.51 199.785 157.503 199.785C157.52 200.808 157.52 201.773 157.52 202.805ZM155.309 201.245C155.309 200.8 154.946 200.445 154.492 200.445C154.047 200.445 153.675 200.808 153.667 201.245C153.659 201.699 154.055 202.087 154.509 202.079C154.954 202.062 155.309 201.691 155.309 201.245Z" fill="#5C6C7F"/>
<path d="M158.939 199.224C158.939 197.36 158.939 195.495 158.939 193.622C158.939 192.756 159.302 192.393 160.16 192.385C162.082 192.385 164.004 192.385 165.935 192.385C166.776 192.385 167.148 192.756 167.148 193.589C167.148 197.343 167.148 201.089 167.148 204.842C167.148 205.684 166.776 206.055 165.943 206.055C164.004 206.055 162.065 206.055 160.127 206.055C159.318 206.055 158.939 205.676 158.939 204.875C158.93 202.986 158.939 201.105 158.939 199.224ZM159.945 202.648C162.016 202.648 164.054 202.648 166.133 202.648C166.133 199.653 166.133 196.675 166.133 193.672C164.046 193.672 162.008 193.672 159.945 193.672C159.945 196.667 159.945 199.637 159.945 202.648ZM161.471 204.743C162.519 204.743 163.559 204.743 164.607 204.743C164.607 204.455 164.607 204.182 164.607 203.902C163.551 203.902 162.519 203.902 161.471 203.902C161.471 204.191 161.471 204.446 161.471 204.743Z" fill="#5C6C7F"/>
<path d="M157.536 204.208C157.536 204.835 157.536 205.421 157.536 206.023C154.574 206.023 151.629 206.023 148.684 206.023C148.593 205.058 149.344 204.208 150.276 204.208C152.677 204.208 155.078 204.208 157.536 204.208Z" fill="#5C6C7F"/>
<defs>
<filter id="filter0_d" x="0.45454" y="133.948" width="124.387" height="124.387" filterUnits="userSpaceOnUse" color-interpolation-filters="sRGB">
<feFlood flood-opacity="0" result="BackgroundImageFix"/>
<feColorMatrix in="SourceAlpha" type="matrix" values="0 0 0 0 0 0 0 0 0 0 0 0 0 0 0 0 0 0 127 0"/>
<feOffset dy="18.7727"/>
<feGaussianBlur stdDeviation="18.7727"/>
<feColorMatrix type="matrix" values="0 0 0 0 0.0117647 0 0 0 0 0.392157 0 0 0 0 1 0 0 0 0.06 0"/>
<feBlend mode="normal" in2="BackgroundImageFix" result="effect1_dropShadow"/>
<feBlend mode="normal" in="SourceGraphic" in2="effect1_dropShadow" result="shape"/>
</filter>
<filter id="filter1_d" x="93.7578" y="151.539" width="124.387" height="124.387" filterUnits="userSpaceOnUse" color-interpolation-filters="sRGB">
<feFlood flood-opacity="0" result="BackgroundImageFix"/>
<feColorMatrix in="SourceAlpha" type="matrix" values="0 0 0 0 0 0 0 0 0 0 0 0 0 0 0 0 0 0 127 0"/>
<feOffset dy="18.7727"/>
<feGaussianBlur stdDeviation="18.7727"/>
<feColorMatrix type="matrix" values="0 0 0 0 0.0117647 0 0 0 0 0.392157 0 0 0 0 1 0 0 0 0.06 0"/>
<feBlend mode="normal" in2="BackgroundImageFix" result="effect1_dropShadow"/>
<feBlend mode="normal" in="SourceGraphic" in2="effect1_dropShadow" result="shape"/>
</filter>
<filter id="filter2_d" x="187.158" y="127.641" width="124.387" height="124.387" filterUnits="userSpaceOnUse" color-interpolation-filters="sRGB">
<feFlood flood-opacity="0" result="BackgroundImageFix"/>
<feColorMatrix in="SourceAlpha" type="matrix" values="0 0 0 0 0 0 0 0 0 0 0 0 0 0 0 0 0 0 127 0"/>
<feOffset dy="18.7727"/>
<feGaussianBlur stdDeviation="18.7727"/>
<feColorMatrix type="matrix" values="0 0 0 0 0.0117647 0 0 0 0 0.392157 0 0 0 0 1 0 0 0 0.06 0"/>
<feBlend mode="normal" in2="BackgroundImageFix" result="effect1_dropShadow"/>
<feBlend mode="normal" in="SourceGraphic" in2="effect1_dropShadow" result="shape"/>
</filter>
<filter id="filter3_d" x="55.3435" y="0.22727" width="201.481" height="201.481" filterUnits="userSpaceOnUse" color-interpolation-filters="sRGB">
<feFlood flood-opacity="0" result="BackgroundImageFix"/>
<feColorMatrix in="SourceAlpha" type="matrix" values="0 0 0 0 0 0 0 0 0 0 0 0 0 0 0 0 0 0 127 0"/>
<feOffset dy="18.7727"/>
<feGaussianBlur stdDeviation="18.7727"/>
<feColorMatrix type="matrix" values="0 0 0 0 0.0117647 0 0 0 0 0.392157 0 0 0 0 1 0 0 0 0.06 0"/>
<feBlend mode="normal" in2="BackgroundImageFix" result="effect1_dropShadow"/>
<feBlend mode="normal" in="SourceGraphic" in2="effect1_dropShadow" result="shape"/>
</filter>
</defs>
</svg>
