<svg width="262" height="214" viewBox="0 0 262 214" fill="none" xmlns="http://www.w3.org/2000/svg">
<path d="M66.3903 32.9674C66.4103 33.0411 66.3965 33.124 66.343 33.1938C66.1662 33.4237 65.3528 33.8973 63.8459 34.6458C63.9787 36.0181 64.001 36.7953 63.9247 37.0217C63.8907 37.11 63.8197 37.1688 63.7347 37.176C63.5917 37.1831 63.4197 37.1901 62.4021 35.0925C59.1846 35.2761 59.0695 35.0383 58.9958 34.9001C58.9918 34.8853 58.981 34.8724 58.9751 34.8503C58.9551 34.7766 58.9689 34.6937 59.0224 34.6239C59.2086 34.3756 60.1558 33.8341 61.8389 33.0141C61.6622 30.7044 61.8141 30.6236 61.9411 30.5576C62.0161 30.5135 62.1071 30.5284 62.1831 30.5948C62.3632 30.7517 62.7384 31.4412 63.3206 32.7075C66.1867 32.5637 66.2939 32.772 66.3628 32.9195C66.3756 32.9398 66.3863 32.9527 66.3903 32.9674Z" fill="#9D4492"/>
<path d="M30.1113 73.7656L27.9344 72.3864L30.881 66.6818L33.0579 68.061L30.1113 73.7656Z" fill="#9BEC7D"/>
<path d="M22.1055 28.5732L23.8826 29.8302L21.1797 34.4634L19.4026 33.2064L22.1055 28.5732Z" fill="#FFBF19"/>
<path d="M89.4718 23.0649L89.9586 20.9049L94.9952 22.4515L94.5083 24.6114L89.4718 23.0649Z" fill="#FFBF19"/>
<path d="M45.8282 56.6376L47.4429 54.6898L52.1244 59.2508L50.5096 61.1986L45.8282 56.6376Z" fill="#9D4492"/>
<path d="M110.236 14.8644L110.946 12.3412L116.861 14.5346L116.151 17.0578L110.236 14.8644Z" fill="#9D4492"/>
<path d="M53.4257 21.4809L52.038 23.6264L46.9246 19.6543L48.3123 17.5088L53.4257 21.4809Z" fill="#9BEC7D"/>
<path d="M36.6338 121.427C36.6478 121.478 36.6395 121.528 36.607 121.568C36.4952 121.717 36.1493 122.116 35.1774 122.593C35.2586 123.48 35.0927 123.893 35.0456 124.041C35.0259 124.101 34.9779 124.138 34.9199 124.138C34.8262 124.14 34.5778 124.29 33.9136 122.935C31.8378 123.054 31.9013 122.757 31.8551 122.666C31.8531 122.659 31.8491 122.644 31.8471 122.637C31.8331 122.585 31.8414 122.535 31.8739 122.495C31.9971 122.335 32.4103 121.932 33.4977 121.4C33.3842 119.912 33.673 119.911 33.7567 119.872C33.8067 119.843 33.8667 119.851 33.9144 119.893C34.0294 119.996 34.2866 120.261 34.6687 121.083C36.5206 120.993 36.5708 121.301 36.619 121.399C36.621 121.406 36.6318 121.419 36.6338 121.427Z" fill="#9BEC7D"/>
<path d="M19.4176 102.251L20.4312 100.513L24.5498 103.426L23.5362 105.164L19.4176 102.251Z" fill="#FF623A"/>
<path d="M195.537 32.9674C195.517 33.0411 195.531 33.124 195.585 33.1938C195.762 33.4237 196.575 33.8973 198.082 34.6458C197.949 36.0181 197.927 36.7953 198.003 37.0217C198.037 37.11 198.108 37.1688 198.193 37.176C198.336 37.1831 198.508 37.1901 199.526 35.0925C202.743 35.2761 202.858 35.0383 202.932 34.9001C202.936 34.8853 202.947 34.8724 202.953 34.8503C202.973 34.7766 202.959 34.6937 202.905 34.6239C202.719 34.3756 201.772 33.8341 200.089 33.0141C200.266 30.7044 200.114 30.6236 199.987 30.5576C199.912 30.5135 199.821 30.5284 199.745 30.5948C199.565 30.7517 199.189 31.4412 198.607 32.7075C195.741 32.5637 195.634 32.772 195.565 32.9195C195.552 32.9398 195.541 32.9527 195.537 32.9674Z" fill="#9D4492"/>
<path d="M231.816 73.7656L233.993 72.3864L231.047 66.6818L228.87 68.061L231.816 73.7656Z" fill="#9BEC7D"/>
<path d="M239.822 28.5732L238.045 29.8302L240.748 34.4634L242.525 33.2064L239.822 28.5732Z" fill="#FFBF19"/>
<path d="M172.456 23.0649L171.969 20.9049L166.933 22.4515L167.419 24.6114L172.456 23.0649Z" fill="#FFBF19"/>
<path d="M216.1 56.6376L214.485 54.6898L209.803 59.2508L211.418 61.1986L216.1 56.6376Z" fill="#9D4492"/>
<path d="M151.692 14.8644L150.981 12.3412L145.066 14.5346L145.777 17.0578L151.692 14.8644Z" fill="#9D4492"/>
<path d="M208.502 21.4809L209.89 23.6264L215.003 19.6543L213.615 17.5088L208.502 21.4809Z" fill="#9BEC7D"/>
<path d="M225.294 121.427C225.28 121.478 225.288 121.528 225.321 121.568C225.433 121.717 225.778 122.116 226.75 122.593C226.669 123.48 226.835 123.893 226.882 124.041C226.902 124.101 226.95 124.138 227.008 124.138C227.102 124.14 227.35 124.29 228.014 122.935C230.09 123.054 230.026 122.757 230.073 122.666C230.075 122.659 230.079 122.644 230.081 122.637C230.095 122.585 230.086 122.535 230.054 122.495C229.931 122.335 229.517 121.932 228.43 121.4C228.544 119.912 228.255 119.911 228.171 119.872C228.121 119.843 228.061 119.851 228.013 119.893C227.898 119.996 227.641 120.261 227.259 121.083C225.407 120.993 225.357 121.301 225.309 121.399C225.307 121.406 225.296 121.419 225.294 121.427Z" fill="#9BEC7D"/>
<path d="M242.51 102.251L241.497 100.513L237.378 103.426L238.392 105.164L242.51 102.251Z" fill="#FF623A"/>
<circle cx="122.908" cy="175.647" r="3.18313" transform="rotate(-90 122.908 175.647)" fill="#D7E6FF"/>
<circle cx="122.908" cy="158.141" r="3.18313" transform="rotate(-90 122.908 158.141)" fill="#D7E6FF"/>
<circle cx="122.908" cy="140.634" r="3.18313" transform="rotate(-90 122.908 140.634)" fill="#D7E6FF"/>
<circle cx="135.64" cy="182.014" r="3.18313" transform="rotate(-90 135.64 182.014)" fill="#D7E6FF"/>
<circle cx="135.64" cy="166.099" r="3.18313" transform="rotate(-90 135.64 166.099)" fill="#D7E6FF"/>
<circle cx="135.64" cy="150.183" r="3.18313" transform="rotate(-90 135.64 150.183)" fill="#D7E6FF"/>
<circle cx="135.64" cy="134.267" r="3.18313" transform="rotate(-90 135.64 134.267)" fill="#D7E6FF"/>
<circle cx="63.0719" cy="155.736" r="3.18313" transform="rotate(-45 63.0719 155.736)" fill="#D7E6FF"/>
<circle cx="75.4508" cy="143.357" r="3.18313" transform="rotate(-45 75.4508 143.357)" fill="#D7E6FF"/>
<circle cx="87.8297" cy="130.979" r="3.18313" transform="rotate(-45 87.8297 130.979)" fill="#D7E6FF"/>
<circle cx="67.5739" cy="169.242" r="3.18313" transform="rotate(-45 67.5739 169.242)" fill="#D7E6FF"/>
<circle cx="78.8278" cy="157.988" r="3.18313" transform="rotate(-45 78.8278 157.988)" fill="#D7E6FF"/>
<circle cx="90.0817" cy="146.733" r="3.18313" transform="rotate(-45 90.0817 146.733)" fill="#D7E6FF"/>
<circle cx="101.336" cy="135.48" r="3.18313" transform="rotate(-45 101.336 135.48)" fill="#D7E6FF"/>
<circle r="3.18313" transform="matrix(-0.707107 -0.707107 -0.707107 0.707107 201.727 155.737)" fill="#D7E6FF"/>
<circle r="3.18313" transform="matrix(-0.707107 -0.707107 -0.707107 0.707107 189.348 143.358)" fill="#D7E6FF"/>
<circle r="3.18313" transform="matrix(-0.707107 -0.707107 -0.707107 0.707107 176.969 130.979)" fill="#D7E6FF"/>
<circle r="3.18313" transform="matrix(-0.707107 -0.707107 -0.707107 0.707107 197.225 169.243)" fill="#D7E6FF"/>
<circle r="3.18313" transform="matrix(-0.707107 -0.707107 -0.707107 0.707107 185.971 157.989)" fill="#D7E6FF"/>
<circle r="3.18313" transform="matrix(-0.707107 -0.707107 -0.707107 0.707107 174.717 146.734)" fill="#D7E6FF"/>
<circle r="3.18313" transform="matrix(-0.707107 -0.707107 -0.707107 0.707107 163.463 135.481)" fill="#D7E6FF"/>
<circle cx="49.037" cy="175.593" r="22.037" fill="#5C6C7F"/>
<circle cx="132.457" cy="191.32" r="22.037" fill="#5C6C7F"/>
<circle cx="215.963" cy="169.954" r="22.037" fill="#5C6C7F"/>
<path d="M218.909 168.973L223.106 167.604C223.42 167.501 223.768 167.501 224.082 167.604L225.53 168.076C225.691 168.129 225.865 168.075 226.001 167.976C226.136 167.878 226.217 167.695 226.217 167.527C226.217 166.369 225.276 165.428 224.119 165.428H205.23C204.073 165.428 203.131 166.369 203.131 167.526V172.773C203.131 173.931 204.073 174.872 205.23 174.872H217.33C217.475 174.872 217.612 174.813 217.712 174.708C217.81 174.604 217.862 174.463 217.854 174.319C217.836 173.966 217.822 173.601 217.822 173.207V170.469C217.822 169.786 218.259 169.184 218.909 168.973ZM207.975 170.22C208.226 170.365 208.312 170.686 208.167 170.937C208.07 171.105 207.893 171.199 207.713 171.199C207.624 171.199 207.533 171.177 207.45 171.129L207.328 171.059V171.199C207.328 171.489 207.094 171.724 206.804 171.724C206.514 171.724 206.279 171.489 206.279 171.199V171.059L206.157 171.129C206.074 171.177 205.984 171.199 205.895 171.199C205.714 171.199 205.537 171.105 205.441 170.937C205.295 170.686 205.381 170.365 205.632 170.22L205.754 170.15L205.632 170.08C205.381 169.935 205.295 169.614 205.441 169.363C205.585 169.112 205.907 169.027 206.157 169.171L206.279 169.241V169.101C206.279 168.811 206.514 168.576 206.804 168.576C207.094 168.576 207.328 168.811 207.328 169.101V169.241L207.45 169.171C207.7 169.026 208.022 169.111 208.167 169.363C208.312 169.614 208.226 169.935 207.975 170.08L207.853 170.15L207.975 170.22ZM212.173 170.22C212.424 170.365 212.51 170.686 212.364 170.937C212.268 171.105 212.091 171.199 211.91 171.199C211.821 171.199 211.731 171.177 211.648 171.129L211.526 171.059V171.199C211.526 171.489 211.291 171.724 211.001 171.724C210.711 171.724 210.477 171.489 210.477 171.199V171.059L210.355 171.129C210.272 171.177 210.181 171.199 210.092 171.199C209.912 171.199 209.735 171.105 209.638 170.937C209.493 170.686 209.579 170.365 209.83 170.22L209.952 170.15L209.83 170.08C209.579 169.935 209.493 169.614 209.638 169.363C209.783 169.112 210.105 169.027 210.355 169.171L210.477 169.241V169.101C210.477 168.811 210.711 168.576 211.001 168.576C211.291 168.576 211.526 168.811 211.526 169.101V169.241L211.648 169.171C211.898 169.026 212.221 169.111 212.364 169.363C212.51 169.614 212.424 169.935 212.173 170.08L212.051 170.15L212.173 170.22ZM216.37 170.22C216.621 170.365 216.707 170.686 216.562 170.937C216.465 171.105 216.288 171.199 216.108 171.199C216.019 171.199 215.928 171.177 215.846 171.129L215.724 171.059V171.199C215.724 171.489 215.489 171.724 215.199 171.724C214.909 171.724 214.674 171.489 214.674 171.199V171.059L214.552 171.129C214.469 171.177 214.379 171.199 214.29 171.199C214.109 171.199 213.932 171.105 213.836 170.937C213.69 170.686 213.776 170.365 214.027 170.22L214.149 170.15L214.027 170.08C213.776 169.935 213.69 169.614 213.836 169.363C213.98 169.112 214.302 169.027 214.552 169.171L214.674 169.241V169.101C214.674 168.811 214.909 168.576 215.199 168.576C215.489 168.576 215.724 168.811 215.724 169.101V169.241L215.846 169.171C216.097 169.026 216.418 169.111 216.562 169.363C216.707 169.614 216.621 169.935 216.37 170.08L216.249 170.15L216.37 170.22Z" fill="#D6EEFF"/>
<path d="M227.954 169.969L223.756 168.601C223.65 168.567 223.537 168.567 223.43 168.601L219.233 169.969C219.018 170.04 218.871 170.241 218.871 170.468V173.206C218.871 176.899 219.461 178.248 223.372 180.069C223.442 180.102 223.517 180.118 223.593 180.118C223.669 180.118 223.745 180.102 223.815 180.069C227.725 178.248 228.316 176.899 228.316 173.206V170.468C228.316 170.241 228.169 170.04 227.954 169.969ZM223.833 177.728C223.757 177.767 223.675 177.786 223.593 177.786C223.498 177.786 223.404 177.76 223.32 177.709C223.164 177.614 223.069 177.444 223.069 177.261V174.871H221.494C221.204 174.871 220.97 174.637 220.97 174.347V171.992C220.97 171.765 221.116 171.563 221.332 171.493L223.43 170.808C223.591 170.757 223.765 170.784 223.902 170.882C224.037 170.981 224.118 171.139 224.118 171.307V173.822H225.692C225.836 173.822 225.973 173.881 226.072 173.985C226.171 174.089 226.223 174.229 226.216 174.372C226.133 176.09 225.62 176.811 223.833 177.728Z" fill="#D6EEFF"/>
<g filter="url(#filter0_d)">
<circle cx="132.575" cy="90.5005" r="56.5005" fill="#5C6C7F"/>
</g>
<circle cx="132.5" cy="90.3349" r="35.8495" fill="#D7E6FF"/>
<path d="M145.071 92.4098C145.693 93.0256 146.027 93.8783 146.027 94.7784C146.027 95.6311 145.693 96.4838 145.071 97.0997C144.45 97.7155 143.589 98.0945 142.681 98.0945C141.821 98.0945 140.96 97.7155 140.291 97.0997C139.67 96.4838 139.335 95.6311 139.335 94.7784C139.335 93.8783 139.718 93.073 140.291 92.4098C140.913 91.7939 141.773 91.4623 142.681 91.4623C143.589 91.415 144.45 91.7939 145.071 92.4098V92.4098ZM154.01 85.0197V105.958C154.01 108.09 152.289 109.796 150.138 109.796H115.531C113.046 109.796 110.99 107.759 110.99 105.295V77.5822C110.99 74.4556 113.571 71.8975 116.726 71.8975H143.159C145.788 71.8975 147.796 74.0292 147.796 76.6347V79.4771H148.656C151.62 79.4771 154.01 82.0826 154.01 85.0197ZM114.527 77.5822C114.527 78.6244 115.388 79.4771 116.439 79.4771H143.972V76.54C143.972 76.0662 143.589 75.6873 143.111 75.6873H116.439C115.388 75.6873 114.527 76.54 114.527 77.5822V77.5822ZM150.186 85.0197C150.186 84.2143 149.517 83.2669 148.656 83.2669H115.579C115.149 83.2669 114.814 83.8354 114.814 84.2617V105.295C114.814 105.674 115.149 106.006 115.531 106.006H150.138C150.186 106.006 150.186 105.958 150.186 105.958V85.0197V85.0197Z" fill="#0364FF"/>
<path d="M133.859 198.334C133.705 198.334 133.572 198.334 133.439 198.334C130.12 198.334 126.801 198.334 123.481 198.334C122.272 198.334 121.711 197.78 121.718 196.578C121.726 195.103 121.763 193.628 121.755 192.16C121.755 189.777 121.726 187.395 121.711 185.012C121.704 183.81 122.264 183.257 123.474 183.257C128.645 183.257 133.823 183.257 138.993 183.257C140.181 183.257 140.727 183.81 140.727 184.99C140.727 185.654 140.727 186.318 140.727 186.982C140.727 187.528 140.446 187.874 140.019 187.882C139.576 187.889 139.281 187.535 139.281 186.967C139.274 186.229 139.281 185.499 139.281 184.739C133.904 184.739 128.563 184.739 123.179 184.739C123.179 188.354 123.179 191.968 123.179 195.634C126.727 195.634 130.275 195.634 133.845 195.634C133.859 196.549 133.859 197.412 133.859 198.334ZM131.883 196.94C131.883 196.541 131.558 196.224 131.152 196.224C130.754 196.224 130.422 196.549 130.415 196.94C130.407 197.345 130.761 197.692 131.167 197.685C131.565 197.67 131.883 197.338 131.883 196.94Z" fill="#D6EEFF"/>
<path d="M135.128 195.132C135.128 193.465 135.128 191.798 135.128 190.124C135.128 189.35 135.453 189.025 136.22 189.018C137.939 189.018 139.657 189.018 141.383 189.018C142.136 189.018 142.468 189.35 142.468 190.094C142.468 193.451 142.468 196.799 142.468 200.156C142.468 200.908 142.136 201.24 141.391 201.24C139.657 201.24 137.924 201.24 136.19 201.24C135.468 201.24 135.128 200.9 135.128 200.185C135.121 198.496 135.128 196.814 135.128 195.132ZM136.028 198.193C137.88 198.193 139.701 198.193 141.56 198.193C141.56 195.516 141.56 192.853 141.56 190.168C139.694 190.168 137.872 190.168 136.028 190.168C136.028 192.846 136.028 195.501 136.028 198.193ZM137.393 200.067C138.33 200.067 139.259 200.067 140.196 200.067C140.196 199.809 140.196 199.565 140.196 199.315C139.252 199.315 138.33 199.315 137.393 199.315C137.393 199.573 137.393 199.801 137.393 200.067Z" fill="#D6EEFF"/>
<path d="M133.874 199.589C133.874 200.149 133.874 200.673 133.874 201.212C131.226 201.212 128.593 201.212 125.96 201.212C125.879 200.349 126.55 199.589 127.383 199.589C129.53 199.589 131.676 199.589 133.874 199.589Z" fill="#D6EEFF"/>
<path fill-rule="evenodd" clip-rule="evenodd" d="M57.2071 174.621C57.2071 174.045 57.1554 173.492 57.0595 172.961H49.418V176.099H53.7846C53.5965 177.114 53.0248 177.973 52.1655 178.548V180.584H54.7877C56.3219 179.172 57.2071 177.092 57.2071 174.621V174.621Z" fill="#D3D3D4"/>
<path fill-rule="evenodd" clip-rule="evenodd" d="M49.4186 182.55C51.6093 182.55 53.4459 181.823 54.7884 180.584L52.1662 178.548C51.4396 179.035 50.5103 179.323 49.4186 179.323C47.3054 179.323 45.5167 177.895 44.8787 175.978H42.168V178.08C43.503 180.731 46.2469 182.55 49.4186 182.55V182.55Z" fill="#D3D3D4"/>
<path fill-rule="evenodd" clip-rule="evenodd" d="M44.8784 175.978C44.7161 175.492 44.6239 174.971 44.6239 174.437C44.6239 173.902 44.7161 173.382 44.8784 172.895V170.793H42.1677C41.6182 171.888 41.3047 173.127 41.3047 174.437C41.3047 175.746 41.6182 176.985 42.1677 178.08L44.8784 175.978V175.978Z" fill="#D3D3D4"/>
<path fill-rule="evenodd" clip-rule="evenodd" d="M49.4186 169.549C50.6098 169.549 51.6794 169.959 52.5202 170.763L54.8474 168.435C53.4422 167.126 51.6056 166.322 49.4186 166.322C46.2469 166.322 43.503 168.14 42.168 170.792L44.8787 172.894C45.5167 170.977 47.3054 169.549 49.4186 169.549V169.549Z" fill="#D3D3D4"/>
<defs>
<filter id="filter0_d" x="38.5288" y="15.2273" width="188.092" height="188.092" filterUnits="userSpaceOnUse" color-interpolation-filters="sRGB">
<feFlood flood-opacity="0" result="BackgroundImageFix"/>
<feColorMatrix in="SourceAlpha" type="matrix" values="0 0 0 0 0 0 0 0 0 0 0 0 0 0 0 0 0 0 127 0"/>
<feOffset dy="18.7727"/>
<feGaussianBlur stdDeviation="18.7727"/>
<feColorMatrix type="matrix" values="0 0 0 0 0.0117647 0 0 0 0 0.392157 0 0 0 0 1 0 0 0 0.06 0"/>
<feBlend mode="normal" in2="BackgroundImageFix" result="effect1_dropShadow"/>
<feBlend mode="normal" in="SourceGraphic" in2="effect1_dropShadow" result="shape"/>
</filter>
</defs>
</svg>
