<svg width="262" height="213" viewBox="0 0 262 213" fill="none" xmlns="http://www.w3.org/2000/svg">
<path d="M66.3903 32.9684C66.4103 33.0421 66.3965 33.1249 66.343 33.1948C66.1662 33.4247 65.3528 33.8983 63.8459 34.6468C63.9787 36.0191 64.001 36.7963 63.9247 37.0226C63.8907 37.111 63.8197 37.1698 63.7347 37.177C63.5917 37.1841 63.4197 37.1911 62.4021 35.0935C59.1846 35.2771 59.0695 35.0393 58.9958 34.901C58.9918 34.8863 58.981 34.8734 58.9751 34.8513C58.9551 34.7776 58.9689 34.6947 59.0224 34.6248C59.2086 34.3766 60.1558 33.8351 61.8389 33.0151C61.6622 30.7053 61.8141 30.6246 61.9411 30.5585C62.0161 30.5145 62.1071 30.5294 62.1831 30.5958C62.3632 30.7527 62.7384 31.4422 63.3206 32.7085C66.1867 32.5647 66.2939 32.773 66.3628 32.9205C66.3756 32.9407 66.3863 32.9536 66.3903 32.9684Z" fill="#9D4492"/>
<path d="M30.1104 73.7661L27.9334 72.3869L30.8801 66.6823L33.057 68.0615L30.1104 73.7661Z" fill="#9BEC7D"/>
<path d="M22.1045 28.5742L23.8816 29.8312L21.1787 34.4643L19.4016 33.2074L22.1045 28.5742Z" fill="#FFBF19"/>
<path d="M89.4708 23.0658L89.9576 20.9059L94.9942 22.4525L94.5074 24.6124L89.4708 23.0658Z" fill="#FFBF19"/>
<path d="M45.8292 56.6384L47.4439 54.6906L52.1253 59.2515L50.5106 61.1993L45.8292 56.6384Z" fill="#9D4492"/>
<path d="M110.236 14.8646L110.946 12.3414L116.861 14.5349L116.151 17.0581L110.236 14.8646Z" fill="#9D4492"/>
<path d="M53.4257 21.4816L52.038 23.6271L46.9246 19.655L48.3123 17.5095L53.4257 21.4816Z" fill="#9BEC7D"/>
<path d="M36.6348 121.427C36.6487 121.478 36.6405 121.528 36.608 121.568C36.4962 121.717 36.1503 122.116 35.1784 122.593C35.2596 123.48 35.0936 123.893 35.0466 124.041C35.0268 124.101 34.9788 124.138 34.9209 124.138C34.8271 124.14 34.5788 124.29 33.9146 122.935C31.8388 123.054 31.9023 122.757 31.8561 122.666C31.8541 122.659 31.8501 122.644 31.8481 122.637C31.8341 122.585 31.8424 122.535 31.8749 122.495C31.9981 122.335 32.4113 121.932 33.4987 121.4C33.3852 119.912 33.674 119.911 33.7577 119.872C33.8077 119.843 33.8677 119.851 33.9154 119.893C34.0303 119.996 34.2876 120.261 34.6697 121.083C36.5215 120.993 36.5718 121.301 36.62 121.399C36.622 121.406 36.6328 121.419 36.6348 121.427Z" fill="#9BEC7D"/>
<path d="M19.4186 102.251L20.4321 100.514L24.5508 103.427L23.5372 105.164L19.4186 102.251Z" fill="#FF623A"/>
<path d="M195.537 32.9684C195.517 33.0421 195.531 33.1249 195.585 33.1948C195.762 33.4247 196.575 33.8983 198.082 34.6468C197.949 36.0191 197.927 36.7963 198.003 37.0226C198.037 37.111 198.108 37.1698 198.193 37.177C198.336 37.1841 198.508 37.1911 199.526 35.0935C202.743 35.2771 202.858 35.0393 202.932 34.901C202.936 34.8863 202.947 34.8734 202.953 34.8513C202.973 34.7776 202.959 34.6947 202.905 34.6248C202.719 34.3766 201.772 33.8351 200.089 33.0151C200.266 30.7053 200.114 30.6246 199.987 30.5585C199.912 30.5145 199.821 30.5294 199.745 30.5958C199.565 30.7527 199.189 31.4422 198.607 32.7085C195.741 32.5647 195.634 32.773 195.565 32.9205C195.552 32.9407 195.541 32.9536 195.537 32.9684Z" fill="#9D4492"/>
<path d="M231.817 73.7661L233.994 72.3869L231.048 66.6823L228.871 68.0615L231.817 73.7661Z" fill="#9BEC7D"/>
<path d="M239.823 28.5742L238.046 29.8312L240.749 34.4643L242.526 33.2074L239.823 28.5742Z" fill="#FFBF19"/>
<path d="M172.457 23.0658L171.97 20.9059L166.934 22.4525L167.42 24.6124L172.457 23.0658Z" fill="#FFBF19"/>
<path d="M216.099 56.6384L214.484 54.6906L209.802 59.2515L211.417 61.1993L216.099 56.6384Z" fill="#9D4492"/>
<path d="M151.692 14.8646L150.981 12.3414L145.066 14.5349L145.777 17.0581L151.692 14.8646Z" fill="#9D4492"/>
<path d="M208.502 21.4816L209.89 23.6271L215.003 19.655L213.615 17.5095L208.502 21.4816Z" fill="#9BEC7D"/>
<path d="M225.293 121.427C225.279 121.478 225.287 121.528 225.32 121.568C225.432 121.717 225.777 122.116 226.749 122.593C226.668 123.48 226.834 123.893 226.881 124.041C226.901 124.101 226.949 124.138 227.007 124.138C227.101 124.14 227.349 124.29 228.013 122.935C230.089 123.054 230.025 122.757 230.072 122.666C230.074 122.659 230.078 122.644 230.08 122.637C230.094 122.585 230.085 122.535 230.053 122.495C229.93 122.335 229.516 121.932 228.429 121.4C228.543 119.912 228.254 119.911 228.17 119.872C228.12 119.843 228.06 119.851 228.012 119.893C227.897 119.996 227.64 120.261 227.258 121.083C225.406 120.993 225.356 121.301 225.308 121.399C225.306 121.406 225.295 121.419 225.293 121.427Z" fill="#9BEC7D"/>
<path d="M242.509 102.251L241.496 100.514L237.377 103.427L238.391 105.164L242.509 102.251Z" fill="#FF623A"/>
<circle cx="123.635" cy="175.292" r="3.1077" transform="rotate(-90 123.635 175.292)" fill="#D7E6FF"/>
<circle cx="123.635" cy="158.2" r="3.1077" transform="rotate(-90 123.635 158.2)" fill="#D7E6FF"/>
<circle cx="123.635" cy="141.108" r="3.1077" transform="rotate(-90 123.635 141.108)" fill="#D7E6FF"/>
<circle cx="136.066" cy="181.508" r="3.1077" transform="rotate(-90 136.066 181.508)" fill="#D7E6FF"/>
<circle cx="136.066" cy="165.969" r="3.1077" transform="rotate(-90 136.066 165.969)" fill="#D7E6FF"/>
<circle cx="136.066" cy="150.431" r="3.1077" transform="rotate(-90 136.066 150.431)" fill="#D7E6FF"/>
<circle cx="136.066" cy="134.892" r="3.1077" transform="rotate(-90 136.066 134.892)" fill="#D7E6FF"/>
<circle cx="65.2182" cy="155.852" r="3.1077" transform="rotate(-45 65.2182 155.852)" fill="#D7E6FF"/>
<circle cx="77.3041" cy="143.765" r="3.1077" transform="rotate(-45 77.3041 143.765)" fill="#D7E6FF"/>
<circle cx="89.3901" cy="131.68" r="3.1077" transform="rotate(-45 89.3901 131.68)" fill="#D7E6FF"/>
<circle cx="69.6127" cy="169.037" r="3.1077" transform="rotate(-45 69.6127 169.037)" fill="#D7E6FF"/>
<circle cx="80.6" cy="158.049" r="3.1077" transform="rotate(-45 80.6 158.049)" fill="#D7E6FF"/>
<circle cx="91.5873" cy="147.062" r="3.1077" transform="rotate(-45 91.5873 147.062)" fill="#D7E6FF"/>
<circle cx="102.575" cy="136.075" r="3.1077" transform="rotate(-45 102.575 136.075)" fill="#D7E6FF"/>
<circle r="3.1077" transform="matrix(-0.707107 -0.707107 -0.707107 0.707107 200.587 155.853)" fill="#D7E6FF"/>
<circle r="3.1077" transform="matrix(-0.707107 -0.707107 -0.707107 0.707107 188.501 143.766)" fill="#D7E6FF"/>
<circle r="3.1077" transform="matrix(-0.707107 -0.707107 -0.707107 0.707107 176.415 131.68)" fill="#D7E6FF"/>
<circle r="3.1077" transform="matrix(-0.707107 -0.707107 -0.707107 0.707107 196.192 169.037)" fill="#D7E6FF"/>
<circle r="3.1077" transform="matrix(-0.707107 -0.707107 -0.707107 0.707107 185.205 158.05)" fill="#D7E6FF"/>
<circle r="3.1077" transform="matrix(-0.707107 -0.707107 -0.707107 0.707107 174.217 147.063)" fill="#D7E6FF"/>
<circle r="3.1077" transform="matrix(-0.707107 -0.707107 -0.707107 0.707107 163.23 136.075)" fill="#D7E6FF"/>
<circle cx="51.5148" cy="175.237" r="21.0148" fill="white" stroke="#FAFBFF"/>
<path fill-rule="evenodd" clip-rule="evenodd" d="M58.9727 175.27C58.9727 174.709 58.9223 174.169 58.8286 173.65H51.3682V176.714H55.6313C55.4477 177.704 54.8896 178.543 54.0506 179.105V181.093H56.6107C58.1085 179.714 58.9727 177.683 58.9727 175.27V175.27Z" fill="#5C6C7F"/>
<path fill-rule="evenodd" clip-rule="evenodd" d="M51.3679 183.011C53.5066 183.011 55.2998 182.302 56.6104 181.092L54.0503 179.105C53.341 179.58 52.4337 179.861 51.3679 179.861C49.3047 179.861 47.5584 178.467 46.9355 176.595H44.2891V178.647C45.5925 181.236 48.2713 183.011 51.3679 183.011V183.011Z" fill="#5C6C7F"/>
<path fill-rule="evenodd" clip-rule="evenodd" d="M46.9353 176.595C46.7769 176.12 46.6868 175.612 46.6868 175.09C46.6868 174.568 46.7769 174.06 46.9353 173.585V171.533H44.2888C43.7523 172.602 43.4463 173.812 43.4463 175.09C43.4463 176.368 43.7523 177.578 44.2888 178.648L46.9353 176.595V176.595Z" fill="#5C6C7F"/>
<path fill-rule="evenodd" clip-rule="evenodd" d="M51.3679 170.319C52.5309 170.319 53.5751 170.719 54.396 171.504L56.668 169.232C55.2962 167.953 53.503 167.168 51.3679 167.168C48.2713 167.168 45.5925 168.944 44.2891 171.532L46.9355 173.585C47.5584 171.712 49.3047 170.319 51.3679 170.319V170.319Z" fill="#5C6C7F"/>
<circle cx="132.957" cy="190.592" r="21.0148" fill="white" stroke="#FAFBFF"/>
<circle cx="214.486" cy="169.731" r="21.0148" fill="white" stroke="#FAFBFF"/>
<path d="M217.339 168.71L221.437 167.373C221.744 167.273 222.084 167.273 222.39 167.374L223.804 167.834C223.961 167.885 224.131 167.833 224.264 167.737C224.396 167.641 224.475 167.462 224.475 167.298C224.475 166.168 223.555 165.249 222.426 165.249H203.985C202.855 165.249 201.936 166.167 201.936 167.298V172.42C201.936 173.55 202.855 174.469 203.985 174.469H215.799C215.94 174.469 216.074 174.411 216.171 174.309C216.267 174.207 216.318 174.07 216.31 173.929C216.292 173.584 216.279 173.228 216.279 172.843V170.171C216.279 169.503 216.705 168.916 217.339 168.71ZM206.665 169.927C206.91 170.069 206.994 170.382 206.852 170.627C206.758 170.791 206.585 170.883 206.409 170.883C206.322 170.883 206.234 170.861 206.153 170.815L206.034 170.746V170.883C206.034 171.167 205.805 171.396 205.521 171.396C205.238 171.396 205.009 171.167 205.009 170.883V170.746L204.89 170.815C204.809 170.861 204.721 170.883 204.634 170.883C204.458 170.883 204.285 170.791 204.191 170.627C204.049 170.382 204.133 170.069 204.378 169.927L204.497 169.859L204.378 169.79C204.133 169.649 204.049 169.336 204.191 169.09C204.332 168.845 204.646 168.763 204.89 168.903L205.009 168.972V168.834C205.009 168.551 205.238 168.322 205.521 168.322C205.805 168.322 206.034 168.551 206.034 168.834V168.972L206.153 168.903C206.397 168.761 206.711 168.844 206.852 169.09C206.994 169.336 206.91 169.649 206.665 169.79L206.546 169.859L206.665 169.927ZM210.763 169.927C211.008 170.069 211.092 170.382 210.95 170.627C210.856 170.791 210.683 170.883 210.507 170.883C210.42 170.883 210.332 170.861 210.251 170.815L210.132 170.746V170.883C210.132 171.167 209.903 171.396 209.619 171.396C209.336 171.396 209.107 171.167 209.107 170.883V170.746L208.988 170.815C208.907 170.861 208.819 170.883 208.732 170.883C208.556 170.883 208.383 170.791 208.289 170.627C208.147 170.382 208.231 170.069 208.476 169.927L208.595 169.859L208.476 169.79C208.231 169.649 208.147 169.336 208.289 169.09C208.43 168.845 208.744 168.763 208.988 168.903L209.107 168.972V168.834C209.107 168.551 209.336 168.322 209.62 168.322C209.903 168.322 210.132 168.551 210.132 168.834V168.972L210.251 168.903C210.495 168.761 210.81 168.844 210.95 169.09C211.092 169.336 211.008 169.649 210.763 169.79L210.644 169.859L210.763 169.927ZM214.861 169.927C215.106 170.069 215.19 170.382 215.048 170.627C214.954 170.791 214.781 170.883 214.605 170.883C214.518 170.883 214.43 170.861 214.349 170.815L214.23 170.746V170.883C214.23 171.167 214.001 171.396 213.718 171.396C213.434 171.396 213.205 171.167 213.205 170.883V170.746L213.086 170.815C213.005 170.861 212.917 170.883 212.83 170.883C212.654 170.883 212.481 170.791 212.387 170.627C212.245 170.382 212.329 170.069 212.574 169.927L212.693 169.859L212.574 169.79C212.329 169.649 212.245 169.336 212.387 169.09C212.528 168.845 212.842 168.763 213.086 168.903L213.205 168.972V168.834C213.205 168.551 213.434 168.322 213.718 168.322C214.001 168.322 214.23 168.551 214.23 168.834V168.972L214.349 168.903C214.594 168.761 214.908 168.844 215.048 169.09C215.19 169.336 215.106 169.649 214.861 169.79L214.742 169.859L214.861 169.927Z" fill="#5C6C7F"/>
<path d="M226.171 169.683L222.073 168.347C221.969 168.314 221.859 168.314 221.755 168.347L217.657 169.683C217.447 169.753 217.304 169.949 217.304 170.171V172.844C217.304 176.449 217.88 177.766 221.698 179.544C221.766 179.576 221.84 179.592 221.914 179.592C221.988 179.592 222.062 179.576 222.13 179.544C225.948 177.766 226.524 176.449 226.524 172.844V170.171C226.524 169.949 226.381 169.753 226.171 169.683ZM222.148 177.258C222.074 177.296 221.994 177.315 221.914 177.315C221.821 177.315 221.729 177.29 221.647 177.24C221.495 177.147 221.402 176.981 221.402 176.803V174.469H219.865C219.582 174.469 219.353 174.24 219.353 173.957V171.658C219.353 171.436 219.496 171.24 219.706 171.171L221.755 170.502C221.912 170.452 222.082 170.479 222.215 170.575C222.347 170.671 222.426 170.826 222.426 170.99V173.445H223.963C224.103 173.445 224.237 173.502 224.334 173.604C224.43 173.706 224.481 173.842 224.474 173.982C224.393 175.659 223.893 176.363 222.148 177.258Z" fill="#5C6C7F"/>
<g filter="url(#filter0_d)">
<circle cx="133.074" cy="92.1616" r="55.1616" fill="white"/>
<circle cx="133.074" cy="92.1616" r="54.6616" stroke="#FAFBFF"/>
</g>
<circle cx="133" cy="92" r="35" fill="#D7E6FF"/>
<path d="M145.273 94.0262C145.88 94.6275 146.207 95.46 146.207 96.3388C146.207 97.1713 145.88 98.0038 145.273 98.605C144.667 99.2063 143.827 99.5763 142.94 99.5763C142.1 99.5763 141.26 99.2063 140.607 98.605C140 98.0038 139.673 97.1713 139.673 96.3388C139.673 95.46 140.047 94.6737 140.607 94.0262C141.213 93.425 142.053 93.1012 142.94 93.1012C143.827 93.055 144.667 93.425 145.273 94.0262V94.0262ZM154 86.8113V107.254C154 109.335 152.32 111 150.22 111H116.433C114.007 111 112 109.011 112 106.606V79.55C112 76.4975 114.52 74 117.6 74H143.407C145.973 74 147.933 76.0813 147.933 78.625V81.4H148.773C151.667 81.4 154 83.9437 154 86.8113ZM115.453 79.55C115.453 80.5675 116.293 81.4 117.32 81.4H144.2V78.5325C144.2 78.07 143.827 77.7 143.36 77.7H117.32C116.293 77.7 115.453 78.5325 115.453 79.55V79.55ZM150.267 86.8113C150.267 86.025 149.613 85.1 148.773 85.1H116.48C116.06 85.1 115.733 85.655 115.733 86.0712V106.606C115.733 106.976 116.06 107.3 116.433 107.3H150.22C150.267 107.3 150.267 107.254 150.267 107.254V86.8113V86.8113Z" fill="#0364FF"/>
<path d="M134.133 196.576C134.004 196.576 133.893 196.576 133.783 196.576C131.014 196.576 128.245 196.576 125.477 196.576C124.468 196.576 124 196.114 124.006 195.112C124.012 193.881 124.043 192.651 124.037 191.426C124.037 189.439 124.012 187.452 124 185.464C123.994 184.461 124.462 184 125.471 184C129.783 184 134.103 184 138.416 184C139.406 184 139.861 184.461 139.861 185.446C139.861 186 139.861 186.553 139.861 187.107C139.861 187.562 139.628 187.852 139.271 187.858C138.902 187.864 138.656 187.568 138.656 187.095C138.649 186.479 138.656 185.87 138.656 185.237C134.17 185.237 129.716 185.237 125.224 185.237C125.224 188.251 125.224 191.266 125.224 194.324C128.184 194.324 131.143 194.324 134.121 194.324C134.133 195.087 134.133 195.807 134.133 196.576ZM132.484 195.413C132.484 195.081 132.214 194.816 131.875 194.816C131.543 194.816 131.266 195.087 131.26 195.413C131.254 195.751 131.549 196.041 131.888 196.034C132.22 196.022 132.484 195.745 132.484 195.413Z" fill="#5C6C7F"/>
<path d="M135.191 193.906C135.191 192.515 135.191 191.125 135.191 189.728C135.191 189.082 135.462 188.811 136.102 188.805C137.535 188.805 138.969 188.805 140.409 188.805C141.036 188.805 141.313 189.082 141.313 189.703C141.313 192.503 141.313 195.296 141.313 198.096C141.313 198.723 141.036 199 140.415 199C138.969 199 137.523 199 136.077 199C135.474 199 135.191 198.717 135.191 198.12C135.185 196.711 135.191 195.308 135.191 193.906ZM135.942 196.459C137.486 196.459 139.006 196.459 140.556 196.459C140.556 194.226 140.556 192.005 140.556 189.765C139 189.765 137.48 189.765 135.942 189.765C135.942 191.998 135.942 194.213 135.942 196.459ZM137.08 198.022C137.861 198.022 138.637 198.022 139.418 198.022C139.418 197.806 139.418 197.603 139.418 197.394C138.631 197.394 137.861 197.394 137.08 197.394C137.08 197.61 137.08 197.8 137.08 198.022Z" fill="#5C6C7F"/>
<path d="M134.145 197.622C134.145 198.089 134.145 198.526 134.145 198.975C131.937 198.975 129.74 198.975 127.544 198.975C127.476 198.256 128.036 197.622 128.731 197.622C130.521 197.622 132.312 197.622 134.145 197.622Z" fill="#5C6C7F"/>
<defs>
<filter id="filter0_d" x="49.9121" y="23" width="166.323" height="166.323" filterUnits="userSpaceOnUse" color-interpolation-filters="sRGB">
<feFlood flood-opacity="0" result="BackgroundImageFix"/>
<feColorMatrix in="SourceAlpha" type="matrix" values="0 0 0 0 0 0 0 0 0 0 0 0 0 0 0 0 0 0 127 0"/>
<feOffset dy="14"/>
<feGaussianBlur stdDeviation="14"/>
<feColorMatrix type="matrix" values="0 0 0 0 0.0117647 0 0 0 0 0.392157 0 0 0 0 1 0 0 0 0.06 0"/>
<feBlend mode="normal" in2="BackgroundImageFix" result="effect1_dropShadow"/>
<feBlend mode="normal" in="SourceGraphic" in2="effect1_dropShadow" result="shape"/>
</filter>
</defs>
</svg>
