<svg width="80" height="80" viewBox="0 0 80 80" fill="none" xmlns="http://www.w3.org/2000/svg">
<path opacity="0.2" d="M21.0712 64.6682L45.352 50.6627C46.3015 50.1201 46.1998 49.1366 45.0807 48.4923L31.3126 40.5231C30.1935 39.8788 28.5318 39.8109 27.5823 40.3535L3.30154 54.359C2.35201 54.9016 2.45375 55.8851 3.57283 56.5294L17.341 64.4986C18.46 65.1429 20.1217 65.2108 21.0712 64.6682Z" fill="#92B4D1"/>
<path d="M21.0717 63.2783L45.3524 49.2727C45.7932 49.0354 45.9967 48.6962 45.9967 48.3571V47.1702C45.9967 46.7633 45.6915 47.4754 45.0811 47.1363L31.313 39.1671C30.1939 38.5227 28.5322 38.4549 27.5827 38.9975L3.30196 53.003C2.99675 53.1726 2.75937 52.3926 2.65764 52.6639C2.62373 52.7317 2.65764 53.8508 2.65764 53.9186C2.65764 54.3595 2.96284 54.8003 3.57325 55.1734L17.3414 63.1426C18.4605 63.753 20.1221 63.8208 21.0717 63.2783Z" fill="#2672AB"/>
<path d="M21.0712 62.0907L45.352 48.0852C46.3015 47.5426 46.1998 46.5592 45.0807 45.9149L31.3126 37.9456C30.1935 37.3013 28.5318 37.2335 27.5823 37.7761L3.30154 51.7816C2.35201 52.3242 2.45375 53.3076 3.57283 53.9519L17.341 61.9212C18.46 62.5994 20.1217 62.6672 21.0712 62.0907Z" fill="#D1EBFF"/>
<path opacity="0.5" d="M21.0707 63.2784C20.1212 63.821 18.4256 63.7532 17.3405 63.1088V61.9219C18.4595 62.5663 20.1212 62.6341 21.0707 62.0915V63.2784Z" fill="#3F92D1"/>
<path d="M21.0713 62.0907L45.3521 48.0852C45.8268 47.8139 46.0303 47.4408 45.9964 47.0678C45.9964 47.1017 45.9964 47.1017 45.9964 47.1356V48.3225C45.9964 48.6617 45.7929 49.0008 45.3521 49.2382L21.0713 63.2437V62.0907Z" fill="#3F92D1"/>
<path d="M3.57291 53.7823L17.341 61.7515C18.4601 62.3959 20.1218 62.4637 21.0713 61.9211L45.3521 47.9156C45.759 47.6782 45.9625 47.373 45.9964 47.0678C46.0303 47.4747 45.8268 47.8478 45.3521 48.1191L21.0713 62.1246C20.1218 62.6672 18.4262 62.5993 17.341 61.955L3.57291 53.9858C2.92859 53.6128 2.62338 53.138 2.6573 52.6632C2.72512 53.0702 3.03032 53.4771 3.57291 53.7823Z" fill="white"/>
<path opacity="0.3" d="M26.5995 57.2084L35.247 52.2234C35.4165 52.1217 35.3826 51.9521 35.2131 51.8504L31.9576 49.9852C31.7541 49.8835 31.4489 49.8496 31.2793 49.9513L22.6319 54.9363C22.4623 55.0381 22.4962 55.2076 22.6658 55.3094L25.9213 57.1745C26.1247 57.3101 26.43 57.3101 26.5995 57.2084Z" fill="white"/>
<path d="M35.2131 52.019L31.9576 50.1538C31.7541 50.0521 31.4489 50.0182 31.2793 50.1199L22.6318 55.1049C22.5979 55.1388 22.564 55.1388 22.564 55.1727C22.4962 55.071 22.5301 54.9693 22.6318 54.9015L31.2793 49.9165C31.4489 49.8147 31.7541 49.8147 31.9576 49.9504L35.2131 51.8155C35.3826 51.9172 35.4165 52.019 35.3487 52.1207C35.3148 52.1207 35.247 52.0529 35.2131 52.019Z" fill="#A8CFF0"/>
<path d="M29.1428 39.6085L27.6507 40.4563C27.4472 40.558 27.142 40.558 26.9724 40.4563C26.7689 40.3545 26.7689 40.185 26.9724 40.0493L28.4645 39.2015C28.668 39.0998 28.9732 39.0998 29.1428 39.2015C29.3462 39.3372 29.3462 39.5068 29.1428 39.6085ZM26.5994 41.1006L25.8872 41.5075C25.6838 41.6093 25.3786 41.6093 25.209 41.5075C25.0055 41.4058 25.0055 41.2362 25.209 41.1006L25.9212 40.6937C26.1246 40.5919 26.4298 40.5919 26.5994 40.6937C26.8029 40.7954 26.8029 40.9989 26.5994 41.1006ZM24.836 42.118L24.1238 42.5249C23.9204 42.6266 23.6152 42.6266 23.4456 42.5249C23.2421 42.4232 23.2421 42.2536 23.4456 42.118L24.1578 41.711C24.3612 41.6093 24.6664 41.6093 24.836 41.711C25.0395 41.8127 25.0395 42.0162 24.836 42.118ZM23.0726 43.1353L22.3604 43.5422C22.157 43.644 21.8518 43.644 21.6822 43.5422C21.4787 43.4405 21.4787 43.2709 21.6822 43.1353L22.3943 42.7284C22.5978 42.6266 22.903 42.6266 23.0726 42.7284C23.276 42.8301 23.276 43.0336 23.0726 43.1353ZM21.3092 44.1526L20.597 44.5596C20.3936 44.6613 20.0884 44.6613 19.9188 44.5596C19.7153 44.4579 19.7153 44.2883 19.9188 44.1526L20.6309 43.7457C20.8344 43.644 21.1396 43.644 21.3092 43.7457C21.5126 43.8814 21.5126 44.0509 21.3092 44.1526ZM19.5458 45.17L18.8336 45.5769C18.6302 45.6787 18.3249 45.6787 18.1554 45.5769C17.9519 45.4752 17.9519 45.3056 18.1554 45.17L18.8675 44.7631C19.071 44.6613 19.3762 44.6613 19.5458 44.7631C19.7492 44.8987 19.7492 45.0683 19.5458 45.17ZM17.7824 46.1873L17.0702 46.5943C16.8667 46.696 16.5615 46.696 16.392 46.5943C16.1885 46.4926 16.1885 46.323 16.392 46.1873L17.1041 45.7804C17.3076 45.6787 17.6128 45.6787 17.7824 45.7804C17.9858 45.9161 17.9858 46.0856 17.7824 46.1873ZM16.019 47.2047L15.3068 47.6116C15.1033 47.7134 14.7981 47.7134 14.6286 47.6116C14.4251 47.5099 14.4251 47.3403 14.6286 47.2047L15.3407 46.7978C15.5442 46.696 15.8494 46.696 16.019 46.7978C16.1885 46.9334 16.1885 47.103 16.019 47.2047ZM14.2555 48.222L13.5434 48.629C13.3399 48.7307 13.0347 48.7307 12.8652 48.629C12.6617 48.5273 12.6617 48.3577 12.8652 48.222L13.5773 47.8151C13.7808 47.7134 14.086 47.7134 14.2555 47.8151C14.4251 47.9508 14.4251 48.1203 14.2555 48.222ZM12.4921 49.2394L11.78 49.6463C11.5765 49.7481 11.2713 49.7481 11.1018 49.6463C10.8983 49.5446 10.8983 49.375 11.1018 49.2394L11.8139 48.8325C12.0174 48.7307 12.3226 48.7307 12.4921 48.8325C12.6617 48.9681 12.6617 49.1377 12.4921 49.2394ZM10.7287 50.2567L10.0166 50.6637C9.81312 50.7654 9.50792 50.7654 9.33836 50.6637C9.13489 50.562 9.13489 50.3924 9.33836 50.2567L10.0505 49.8498C10.254 49.7481 10.5592 49.7481 10.7287 49.8498C10.8983 49.9855 10.8983 50.155 10.7287 50.2567ZM8.96533 51.2741L8.25319 51.681C8.04972 51.7828 7.74451 51.7828 7.57495 51.681C7.37148 51.5793 7.37148 51.4097 7.57495 51.2741L8.28709 50.8672C8.49056 50.7654 8.79577 50.7654 8.96533 50.8672C9.13489 51.0028 9.13489 51.1724 8.96533 51.2741ZM7.1341 52.3254L6.42195 52.7323C6.21848 52.834 5.91328 52.834 5.74372 52.7323C5.54025 52.6306 5.54025 52.461 5.74372 52.3254L6.45587 51.9184C6.65934 51.8167 6.96454 51.8167 7.1341 51.9184C7.33757 52.0541 7.33757 52.2236 7.1341 52.3254ZM30.7366 40.5919L30.1262 40.931C29.9227 41.0667 29.5497 41.0667 29.3462 40.931L28.7358 40.5919C28.5324 40.4563 28.5324 40.2528 28.7358 40.1511L29.3462 39.812C29.5497 39.6763 29.9227 39.6763 30.1262 39.812L30.7366 40.1511C30.974 40.2528 30.974 40.4563 30.7366 40.5919ZM27.5828 41.9823L26.9724 41.6432C26.7689 41.5075 26.7689 41.3041 26.9724 41.2023L27.5828 40.8632C27.7863 40.7276 28.1593 40.7276 28.3628 40.8632L28.9732 41.2023C29.1767 41.338 29.1767 41.5415 28.9732 41.6432L28.3628 41.9823C28.1593 42.084 27.8202 42.084 27.5828 41.9823ZM27.2098 42.6266L26.5994 42.9657C26.3959 43.1014 26.0229 43.1014 25.8194 42.9657L25.209 42.6266C25.0055 42.491 25.0055 42.2875 25.209 42.1858L25.8194 41.8467C26.0229 41.711 26.3959 41.711 26.5994 41.8467L27.2098 42.1858C27.4472 42.3214 27.4133 42.491 27.2098 42.6266ZM25.4464 43.644L24.836 43.9831C24.6325 44.1187 24.2595 44.1187 24.056 43.9831L23.4456 43.644C23.2421 43.5083 23.2421 43.3049 23.4456 43.2031L24.056 42.864C24.2595 42.7284 24.6325 42.7284 24.836 42.864L25.4464 43.2031C25.6499 43.3388 25.6499 43.5422 25.4464 43.644ZM21.6822 44.2205L22.2926 43.8814C22.4961 43.7457 22.8691 43.7457 23.0726 43.8814L23.683 44.2205C23.8865 44.3561 23.8865 44.5596 23.683 44.6613L23.0726 45.0004C22.8691 45.1361 22.4961 45.1361 22.2926 45.0004L21.6822 44.6613C21.4787 44.5596 21.4787 44.3561 21.6822 44.2205ZM19.9188 45.2378L20.5292 44.8987C20.7327 44.7631 21.1057 44.7631 21.3092 44.8987L21.9196 45.2378C22.1231 45.3735 22.1231 45.5769 21.9196 45.6787L21.3092 46.0178C21.1057 46.1534 20.7327 46.1534 20.5292 46.0178L19.9188 45.6787C19.7153 45.5769 19.7153 45.3735 19.9188 45.2378ZM18.1554 46.2552L18.7658 45.9161C18.9693 45.7804 19.3423 45.7804 19.5458 45.9161L20.1562 46.2552C20.3596 46.3908 20.3596 46.5943 20.1562 46.696L19.5458 47.0351C19.3423 47.1708 18.9693 47.1708 18.7658 47.0351L18.1554 46.696C17.9519 46.5943 17.9519 46.3908 18.1554 46.2552ZM16.392 47.2725L17.0024 46.9334C17.2059 46.7978 17.5789 46.7978 17.7824 46.9334L18.3928 47.2725C18.5962 47.4082 18.5962 47.6116 18.3928 47.7134L17.7824 48.0525C17.5789 48.1881 17.2059 48.1881 17.0024 48.0525L16.392 47.7134C16.1885 47.6116 16.1885 47.4082 16.392 47.2725ZM14.6286 48.2899L15.239 47.9508C15.4425 47.8151 15.8155 47.8151 16.019 47.9508L16.6294 48.2899C16.8328 48.4255 16.8328 48.629 16.6294 48.7307L16.019 49.0698C15.8155 49.2055 15.4425 49.2055 15.239 49.0698L14.6286 48.7307C14.4251 48.629 14.4251 48.4255 14.6286 48.2899ZM12.8652 49.3072L13.4756 48.9681C13.679 48.8325 14.0521 48.8325 14.2555 48.9681L14.866 49.3072C15.0694 49.4429 15.0694 49.6463 14.866 49.7481L14.2555 50.0872C14.0521 50.2228 13.679 50.2228 13.4756 50.0872L12.8652 49.7481C12.6617 49.6463 12.6617 49.4429 12.8652 49.3072ZM13.1026 50.7993L12.4921 51.1384C12.2887 51.2741 11.9156 51.2741 11.7122 51.1384L11.1018 50.7993C10.8983 50.6637 10.8983 50.4602 11.1018 50.3585L11.7122 50.0194C11.9156 49.8837 12.2887 49.8837 12.4921 50.0194L13.1026 50.3585C13.306 50.4602 13.306 50.6637 13.1026 50.7993ZM9.33836 51.3758L9.94877 51.0367C10.1522 50.9011 10.5253 50.9011 10.7287 51.0367L11.3391 51.3758C11.5426 51.5115 11.5426 51.7149 11.3391 51.8167L10.7287 52.1558C10.5253 52.2914 10.1522 52.2914 9.94877 52.1558L9.33836 51.8167C9.10098 51.681 9.10098 51.4776 9.33836 51.3758ZM6.76107 52.8679L8.15145 52.0541C8.35492 51.9184 8.72795 51.9184 8.93142 52.0541L9.54183 52.3932C9.7453 52.5288 9.7453 52.7323 9.54183 52.834L8.15145 53.6479C7.94798 53.7836 7.57495 53.7836 7.37148 53.6479L6.76107 53.3088C6.52369 53.1731 6.52369 52.9697 6.76107 52.8679ZM32.3644 41.5415L30.974 42.3553C30.7705 42.491 30.3975 42.491 30.194 42.3553L29.5836 42.0162C29.3801 41.8806 29.3801 41.6771 29.5836 41.5754L30.974 40.7615C31.1775 40.6258 31.5505 40.6258 31.754 40.7615L32.3644 41.1006C32.6018 41.2023 32.6018 41.4058 32.3644 41.5415ZM29.821 42.9997L29.2106 43.3388C29.0071 43.4744 28.6341 43.4744 28.4306 43.3388L27.8202 42.9997C27.6167 42.864 27.6167 42.6605 27.8202 42.5588L28.4306 42.2197C28.6341 42.084 29.0071 42.084 29.2106 42.2197L29.821 42.5588C30.0584 42.6944 30.0584 42.8979 29.821 42.9997ZM27.4472 44.39C27.2437 44.5257 26.8707 44.5257 26.6672 44.39L26.0568 44.0509C25.8533 43.9153 25.8533 43.7118 26.0568 43.6101L26.6672 43.2709C26.8707 43.1353 27.2437 43.1353 27.4472 43.2709L28.0576 43.6101C28.2611 43.7457 28.2611 43.9492 28.0576 44.0509L27.4472 44.39ZM25.6838 45.4074C25.4803 45.543 25.1073 45.543 24.9038 45.4074L24.2934 45.0683C24.0899 44.9326 24.0899 44.7291 24.2934 44.6274L24.9038 44.2883C25.1073 44.1526 25.4803 44.1526 25.6838 44.2883L26.2942 44.6274C26.4977 44.7631 26.4977 44.9665 26.2942 45.0683L25.6838 45.4074ZM23.9204 45.2717L24.5308 45.6108C24.7343 45.7465 24.7343 45.95 24.5308 46.0517L23.9204 46.3908C23.7169 46.5265 23.3439 46.5265 23.1404 46.3908L22.53 46.0517C22.3265 45.9161 22.3265 45.7126 22.53 45.6108L23.1404 45.2717C23.3778 45.1361 23.7169 45.1361 23.9204 45.2717ZM22.1231 46.2552L22.8013 46.6621C23.0048 46.7638 23.0048 46.9673 22.8013 47.0691L22.1231 47.476C21.9196 47.5777 21.6144 47.5777 21.4109 47.476L20.7327 47.0691C20.5292 46.9673 20.5292 46.7638 20.7327 46.6621L21.4109 46.2552C21.6144 46.1534 21.9196 46.1534 22.1231 46.2552ZM20.3596 47.2725L21.0379 47.6795C21.2413 47.7812 21.2413 47.9847 21.0379 48.0864L20.3596 48.4933C20.1562 48.5951 19.851 48.5951 19.6475 48.4933L18.9693 48.0864C18.7658 47.9847 18.7658 47.7812 18.9693 47.6795L19.6475 47.2725C19.851 47.1708 20.1562 47.1708 20.3596 47.2725ZM18.5962 48.2899L19.2745 48.6968C19.4779 48.7985 19.4779 49.002 19.2745 49.1037L18.5962 49.5107C18.3928 49.6124 18.0876 49.6124 17.8841 49.5107L17.2059 49.1037C17.0024 49.002 17.0024 48.7985 17.2059 48.6968L17.8841 48.2899C18.0876 48.1881 18.3928 48.1881 18.5962 48.2899ZM16.8328 49.3072L17.5111 49.7142C17.7145 49.8159 17.7145 50.0194 17.5111 50.1211L16.8328 50.528C16.6294 50.6298 16.3242 50.6298 16.1207 50.528L15.4425 50.1211C15.239 50.0194 15.239 49.8159 15.4425 49.7142L16.1207 49.3072C16.3242 49.2055 16.6294 49.2055 16.8328 49.3072ZM15.0694 50.3585L15.7477 50.7654C15.9511 50.8672 15.9511 51.0706 15.7477 51.1724L15.0694 51.5793C14.866 51.681 14.5608 51.681 14.3573 51.5793L13.6791 51.1724C13.4756 51.0706 13.4756 50.8672 13.6791 50.7654L14.3573 50.3585C14.5608 50.2228 14.866 50.2228 15.0694 50.3585ZM12.5939 52.5627L11.9156 52.1558C11.7122 52.0541 11.7122 51.8506 11.9156 51.7489L12.5939 51.3419C12.7973 51.2402 13.1026 51.2402 13.306 51.3419L13.9843 51.7489C14.1877 51.8506 14.1877 52.0541 13.9843 52.1558L13.306 52.5627C13.1026 52.6645 12.7973 52.6645 12.5939 52.5627ZM10.8305 53.5801L10.1522 53.1731C9.94877 53.0714 9.94877 52.8679 10.1522 52.7662L10.8305 52.3593C11.0339 52.2575 11.3391 52.2575 11.5426 52.3593L12.2208 52.7662C12.4243 52.8679 12.4243 53.0714 12.2208 53.1731L11.5426 53.5801C11.3391 53.6818 11.0339 53.6818 10.8305 53.5801ZM8.35492 53.8175L9.03315 53.4105C9.23662 53.3088 9.54183 53.3088 9.7453 53.4105L10.4235 53.8175C10.627 53.9192 10.627 54.1227 10.4235 54.2244L9.7453 54.6313C9.54183 54.7331 9.23662 54.7331 9.03315 54.6313L8.35492 54.2244C8.15145 54.1227 8.15145 53.9192 8.35492 53.8175ZM34.06 42.4571L31.8557 43.7457C31.6522 43.8474 31.347 43.8474 31.1436 43.7457L30.4653 43.3388C30.2619 43.237 30.2619 43.0336 30.4653 42.9318L32.6696 41.6432C32.873 41.5415 33.1783 41.5415 33.3817 41.6432L34.06 42.0501C34.2634 42.1519 34.2634 42.3553 34.06 42.4571ZM30.7705 44.3561L30.0923 44.7631C29.8888 44.8648 29.5836 44.8648 29.3801 44.7631L28.7019 44.3561C28.4984 44.2544 28.4984 44.0509 28.7019 43.9492L29.3801 43.5422C29.5836 43.4405 29.8888 43.4405 30.0923 43.5422L30.7705 43.9492C30.9401 44.0509 30.9401 44.2544 30.7705 44.3561ZM29.0071 45.3735L28.3289 45.7804C28.1254 45.8821 27.8202 45.8821 27.6167 45.7804L26.9385 45.3735C26.735 45.2717 26.735 45.0683 26.9385 44.9665L27.6167 44.5596C27.8202 44.4579 28.1254 44.4579 28.3289 44.5596L29.0071 44.9665C29.1767 45.1022 29.1767 45.2717 29.0071 45.3735ZM27.2437 46.3908L26.5655 46.7978C26.362 46.8995 26.0568 46.8995 25.8533 46.7978L25.1751 46.3908C24.9716 46.2891 24.9716 46.0856 25.1751 45.9839L25.8533 45.5769C26.0568 45.4752 26.362 45.4752 26.5655 45.5769L27.2437 45.9839C27.4133 46.1195 27.4133 46.2891 27.2437 46.3908ZM24.0899 47.8151L23.4117 47.4082C23.2082 47.3064 23.2082 47.103 23.4117 47.0012L24.0899 46.5943C24.2934 46.4926 24.5986 46.4926 24.8021 46.5943L25.4803 47.0012C25.6838 47.103 25.6838 47.3064 25.4803 47.4082L24.8021 47.8151C24.5986 47.9168 24.2595 47.9168 24.0899 47.8151ZM22.2926 48.8325L21.6144 48.4255C21.4109 48.3238 21.4109 48.1203 21.6144 48.0186L22.2926 47.6116C22.4961 47.5099 22.8013 47.5099 23.0048 47.6116L23.683 48.0186C23.8865 48.1203 23.8865 48.3238 23.683 48.4255L23.0048 48.8325C22.8013 48.9342 22.4961 48.9342 22.2926 48.8325ZM20.5292 49.8498L19.851 49.4429C19.6475 49.3411 19.6475 49.1377 19.851 49.0359L20.5292 48.629C20.7327 48.5273 21.0379 48.5273 21.2414 48.629L21.9196 49.0359C22.1231 49.1377 22.1231 49.3411 21.9196 49.4429L21.2414 49.8498C21.0379 49.9515 20.7327 49.9515 20.5292 49.8498ZM18.7658 50.8672L18.0876 50.4602C17.8841 50.3585 17.8841 50.155 18.0876 50.0533L18.7658 49.6463C18.9693 49.5446 19.2745 49.5446 19.4779 49.6463L20.1562 50.0533C20.3596 50.155 20.3596 50.3585 20.1562 50.4602L19.4779 50.8672C19.2745 51.0028 18.9693 51.0028 18.7658 50.8672ZM17.0024 51.8845L16.3242 51.4776C16.1207 51.3758 16.1207 51.1724 16.3242 51.0706L17.0024 50.6637C17.2059 50.562 17.5111 50.562 17.7145 50.6637L18.3928 51.0706C18.5962 51.1724 18.5962 51.3758 18.3928 51.4776L17.7145 51.8845C17.5111 52.0202 17.2059 52.0202 17.0024 51.8845ZM15.239 52.9019L14.5608 52.4949C14.3573 52.3932 14.3573 52.1897 14.5608 52.088L15.239 51.681C15.4425 51.5793 15.7477 51.5793 15.9511 51.681L16.6294 52.088C16.8328 52.1897 16.8328 52.3932 16.6294 52.4949L15.9511 52.9019C15.7477 53.0375 15.4425 53.0375 15.239 52.9019ZM14.866 53.5462L14.1877 53.9531C13.9843 54.0549 13.679 54.0549 13.4756 53.9531L12.7973 53.5462C12.5939 53.4444 12.5939 53.241 12.7973 53.1392L13.4756 52.7323C13.679 52.6306 13.9843 52.6306 14.1877 52.7323L14.866 53.1392C15.0694 53.241 15.0694 53.4105 14.866 53.5462ZM9.98268 54.767L11.7122 53.7496C11.9156 53.6479 12.2209 53.6479 12.4243 53.7496L13.1026 54.1566C13.306 54.2583 13.306 54.4618 13.1026 54.5635L11.3731 55.5809C11.1696 55.6826 10.8644 55.6826 10.6609 55.5809L9.98268 55.1739C9.77921 55.0722 9.77921 54.8687 9.98268 54.767ZM35.6877 43.4405L32.5339 45.2378C32.3305 45.3735 31.9574 45.3735 31.754 45.2378L31.1775 44.8987C30.974 44.7631 30.974 44.5596 31.1775 44.4239L34.3312 42.6266C34.5347 42.491 34.9077 42.491 35.1112 42.6266L35.6877 42.9657C35.8912 43.1353 35.8912 43.3388 35.6877 43.4405ZM31.3809 45.95L30.7705 46.2891C30.5671 46.4247 30.194 46.4247 29.9906 46.2891L29.4141 45.95C29.2106 45.8143 29.2106 45.6108 29.4141 45.4752L30.0245 45.1361C30.2279 45.0004 30.601 45.0004 30.8044 45.1361L31.3809 45.4752C31.5844 45.6108 31.5844 45.8143 31.3809 45.95ZM29.6175 46.9673L29.0071 47.3064C28.8036 47.4421 28.4306 47.4421 28.2271 47.3064L27.6507 46.9673C27.4472 46.8317 27.4472 46.6282 27.6507 46.4926L28.2611 46.1534C28.4645 46.0178 28.8376 46.0178 29.041 46.1534L29.6175 46.4926C29.821 46.6282 29.821 46.8317 29.6175 46.9673ZM27.8541 47.9847L27.2437 48.3238C27.0402 48.4594 26.6672 48.4594 26.4637 48.3238L25.8872 47.9847C25.6838 47.849 25.6838 47.6455 25.8872 47.5099L26.4977 47.1708C26.7011 47.0351 27.0742 47.0351 27.2776 47.1708L27.8541 47.5099C28.0576 47.6455 28.0576 47.849 27.8541 47.9847ZM26.0568 49.002L25.4464 49.3411C25.2429 49.4768 24.8699 49.4768 24.6664 49.3411L24.0899 49.002C23.8865 48.8664 23.8865 48.6629 24.0899 48.5273L24.7003 48.1881C24.9038 48.0525 25.2768 48.0525 25.4803 48.1881L26.0568 48.5273C26.2942 48.6629 26.2942 48.8664 26.0568 49.002ZM24.2934 50.0194L23.683 50.3585C23.4795 50.4941 23.1065 50.4941 22.903 50.3585L22.3265 50.0194C22.1231 49.8837 22.1231 49.6802 22.3265 49.5446L22.9369 49.2055C23.1404 49.0698 23.5134 49.0698 23.7169 49.2055L24.2934 49.5446C24.5308 49.6802 24.5308 49.8837 24.2934 50.0194ZM22.53 51.0367L21.9196 51.3758C21.7161 51.5115 21.3431 51.5115 21.1396 51.3758L20.5631 51.0367C20.3596 50.9011 20.3596 50.6976 20.5631 50.562L21.1735 50.2228C21.377 50.0872 21.75 50.0872 21.9535 50.2228L22.53 50.562C22.7674 50.6976 22.7674 50.9011 22.53 51.0367ZM20.7666 52.0541L20.1562 52.3932C19.9527 52.5288 19.5797 52.5288 19.3762 52.3932L18.7997 52.0541C18.5962 51.9184 18.5962 51.7149 18.7997 51.5793L19.4101 51.2402C19.6136 51.1045 19.9866 51.1045 20.1901 51.2402L20.7666 51.5793C21.004 51.7149 21.004 51.9184 20.7666 52.0541ZM19.0032 53.0714L18.3928 53.4105C18.1893 53.5462 17.8163 53.5462 17.6128 53.4105L17.0363 53.0714C16.8328 52.9358 16.8328 52.7323 17.0363 52.5966L17.6467 52.2575C17.8502 52.1219 18.2232 52.1219 18.4267 52.2575L19.0032 52.5966C19.2406 52.7323 19.2406 52.9358 19.0032 53.0714ZM17.2398 54.0888L16.6294 54.4279C16.4259 54.5635 16.0529 54.5635 15.8494 54.4279L15.2729 54.0888C15.0694 53.9531 15.0694 53.7496 15.2729 53.614L15.8833 53.2749C16.0868 53.1392 16.4598 53.1392 16.6633 53.2749L17.2398 53.614C17.4772 53.7496 17.4772 53.987 17.2398 54.0888ZM15.4764 55.1061L14.866 55.4452C14.6625 55.5809 14.2895 55.5809 14.086 55.4452L13.5095 55.1061C13.306 54.9705 13.306 54.767 13.5095 54.6313L14.1199 54.2922C14.3234 54.1566 14.6964 54.1566 14.8999 54.2922L15.4764 54.6313C15.7138 54.8009 15.7138 55.0044 15.4764 55.1061ZM11.7122 55.7165L12.3226 55.3774C12.5261 55.2418 12.8991 55.2418 13.1026 55.3774L13.6791 55.7165C13.8825 55.8522 13.8825 56.0556 13.6791 56.1913L13.0686 56.5304C12.8652 56.6661 12.4921 56.6661 12.2887 56.5304L11.7122 56.1913C11.4748 56.0217 11.4748 55.8183 11.7122 55.7165ZM34.5686 44.39L35.959 43.6101C36.1625 43.4744 36.5355 43.4744 36.739 43.6101L37.3155 43.9492C37.5189 44.0848 37.5189 44.2883 37.3155 44.4239L35.9251 45.2039C35.7216 45.3396 35.3486 45.3396 35.1451 45.2039L34.5686 44.8648C34.3312 44.7291 34.3312 44.5257 34.5686 44.39ZM32.8052 45.4074L33.4156 45.0683C33.6191 44.9326 33.9921 44.9326 34.1956 45.0683L34.7721 45.4074C34.9756 45.543 34.9756 45.7465 34.7721 45.8821L34.1617 46.2213C33.9582 46.3569 33.5852 46.3569 33.3817 46.2213L32.8052 45.8821C32.5678 45.7465 32.5678 45.543 32.8052 45.4074ZM31.0418 46.4247L31.6522 46.0856C31.8557 45.95 32.2287 45.95 32.4322 46.0856L33.0087 46.4247C33.2122 46.5604 33.2122 46.7638 33.0087 46.8995L32.3983 47.2386C32.1948 47.3743 31.8218 47.3743 31.6183 47.2386L31.0418 46.8995C30.8044 46.7638 30.8044 46.5604 31.0418 46.4247ZM18.6641 53.5801L29.8549 47.1369C30.0584 47.0012 30.4314 47.0012 30.6349 47.1369L31.2114 47.476C31.4148 47.6116 31.4148 47.8151 31.2114 47.9508L20.0205 54.394C19.8171 54.5296 19.444 54.5296 19.2406 54.394L18.6641 54.0549C18.4606 53.8853 18.4606 53.6818 18.6641 53.5801ZM16.9007 54.5974L17.5111 54.2583C17.7145 54.1227 18.0876 54.1227 18.291 54.2583L18.8675 54.5974C19.071 54.7331 19.071 54.9366 18.8675 55.0722L18.2571 55.4113C18.0537 55.547 17.6806 55.547 17.4772 55.4113L16.9007 55.0722C16.6972 54.9366 16.6972 54.6992 16.9007 54.5974ZM15.1373 55.6148L15.7477 55.2757C15.9511 55.14 16.3242 55.14 16.5276 55.2757L17.1041 55.6148C17.3076 55.7504 17.3076 55.9539 17.1041 56.0896L16.4937 56.4287C16.2902 56.5643 15.9172 56.5643 15.7138 56.4287L15.1373 56.0896C14.8999 55.9539 14.8999 55.7504 15.1373 55.6148ZM13.3399 56.6321L13.9503 56.293C14.1538 56.1574 14.5268 56.1574 14.7303 56.293L15.3068 56.6321C15.5103 56.7678 15.5103 56.9713 15.3068 57.1069L14.6964 57.446C14.4929 57.5817 14.1199 57.5817 13.9164 57.446L13.3399 57.1069C13.1026 56.9713 13.1026 56.7678 13.3399 56.6321Z" fill="#72B5E8"/>
<path d="M29.1428 39.4723L27.6507 40.32C27.4472 40.4218 27.142 40.4218 26.9724 40.32C26.7689 40.2183 26.7689 40.0488 26.9724 39.9131L28.4645 39.0653C28.668 38.9636 28.9732 38.9636 29.1428 39.0653C29.3462 39.167 29.3462 39.3366 29.1428 39.4723ZM26.5994 40.9305L25.8872 41.3374C25.6838 41.4391 25.3786 41.4391 25.209 41.3374C25.0055 41.2357 25.0055 41.0661 25.209 40.9305L25.9212 40.5235C26.1246 40.4218 26.4298 40.4218 26.5994 40.5235C26.8029 40.6592 26.8029 40.8287 26.5994 40.9305ZM24.836 41.9478L24.1238 42.3547C23.9204 42.4565 23.6152 42.4565 23.4456 42.3547C23.2421 42.253 23.2421 42.0835 23.4456 41.9478L24.1578 41.5409C24.3612 41.4391 24.6664 41.4391 24.836 41.5409C25.0395 41.6765 25.0395 41.8461 24.836 41.9478ZM23.0726 42.9652L22.3604 43.3721C22.157 43.4738 21.8518 43.4738 21.6822 43.3721C21.4787 43.2704 21.4787 43.1008 21.6822 42.9652L22.3943 42.5582C22.5978 42.4565 22.903 42.4565 23.0726 42.5582C23.276 42.6939 23.276 42.8634 23.0726 42.9652ZM21.3092 43.9825L20.597 44.3894C20.3936 44.4912 20.0884 44.4912 19.9188 44.3894C19.7153 44.2877 19.7153 44.1181 19.9188 43.9825L20.6309 43.5756C20.8344 43.4738 21.1396 43.4738 21.3092 43.5756C21.5126 43.7112 21.5126 43.8808 21.3092 43.9825ZM19.5458 44.9999L18.8336 45.4068C18.6302 45.5085 18.3249 45.5085 18.1554 45.4068C17.9519 45.3051 17.9519 45.1355 18.1554 44.9999L18.8675 44.5929C19.071 44.4912 19.3762 44.4912 19.5458 44.5929C19.7492 44.7286 19.7492 44.8981 19.5458 44.9999ZM17.7824 46.0172L17.0702 46.4241C16.8667 46.5259 16.5615 46.5259 16.392 46.4241C16.1885 46.3224 16.1885 46.1528 16.392 46.0172L17.1041 45.6103C17.3076 45.5085 17.6128 45.5085 17.7824 45.6103C17.9858 45.7459 17.9858 45.9155 17.7824 46.0172ZM16.019 47.0346L15.3068 47.4415C15.1033 47.5432 14.7981 47.5432 14.6286 47.4415C14.4251 47.3398 14.4251 47.1702 14.6286 47.0346L15.3407 46.6276C15.5442 46.5259 15.8494 46.5259 16.019 46.6276C16.1885 46.7633 16.1885 46.9328 16.019 47.0346ZM14.2555 48.0519L13.5434 48.4588C13.3399 48.5606 13.0347 48.5606 12.8652 48.4588C12.6617 48.3571 12.6617 48.1875 12.8652 48.0519L13.5773 47.645C13.7808 47.5432 14.086 47.5432 14.2555 47.645C14.4251 47.7806 14.4251 47.9502 14.2555 48.0519ZM12.4921 49.0692L11.78 49.4762C11.5765 49.5779 11.2713 49.5779 11.1018 49.4762C10.8983 49.3745 10.8983 49.2049 11.1018 49.0692L11.8139 48.6623C12.0174 48.5606 12.3226 48.5606 12.4921 48.6623C12.6617 48.798 12.6617 48.9675 12.4921 49.0692ZM10.7287 50.0866L10.0166 50.4935C9.81312 50.5953 9.50792 50.5953 9.33836 50.4935C9.13489 50.3918 9.13489 50.2222 9.33836 50.0866L10.0505 49.6797C10.254 49.5779 10.5592 49.5779 10.7287 49.6797C10.8983 49.8153 10.8983 49.9849 10.7287 50.0866ZM8.96533 51.1379L8.25319 51.5448C8.04972 51.6465 7.74451 51.6465 7.57495 51.5448C7.37148 51.4431 7.37148 51.2735 7.57495 51.1379L8.28709 50.7309C8.49056 50.6292 8.79577 50.6292 8.96533 50.7309C9.13489 50.8327 9.13489 51.0022 8.96533 51.1379ZM7.1341 52.1552L6.42195 52.5621C6.21848 52.6639 5.91328 52.6639 5.74372 52.5621C5.54025 52.4604 5.54025 52.2909 5.74372 52.1552L6.45587 51.7483C6.65934 51.6465 6.96454 51.6465 7.1341 51.7483C7.33757 51.8839 7.33757 52.0535 7.1341 52.1552ZM30.7366 40.4218L30.1262 40.7609C29.9227 40.8965 29.5497 40.8965 29.3462 40.7609L28.7358 40.4218C28.5324 40.2861 28.5324 40.0827 28.7358 39.9809L29.3462 39.6418C29.5497 39.5062 29.9227 39.5062 30.1262 39.6418L30.7366 39.9809C30.974 40.1166 30.974 40.32 30.7366 40.4218ZM27.5828 41.8122L26.9724 41.473C26.7689 41.3374 26.7689 41.1339 26.9724 41.0322L27.5828 40.6931C27.7863 40.5574 28.1593 40.5574 28.3628 40.6931L28.9732 41.0322C29.1767 41.1678 29.1767 41.3713 28.9732 41.473L28.3628 41.8122C28.1593 41.9139 27.8202 41.9139 27.5828 41.8122ZM27.2098 42.4565L26.5994 42.7956C26.3959 42.9312 26.0229 42.9312 25.8194 42.7956L25.209 42.4565C25.0055 42.3208 25.0055 42.1174 25.209 42.0156L25.8194 41.6765C26.0229 41.5409 26.3959 41.5409 26.5994 41.6765L27.2098 42.0156C27.4472 42.1513 27.4133 42.3547 27.2098 42.4565ZM25.4464 43.4738L24.836 43.8129C24.6325 43.9486 24.2595 43.9486 24.056 43.8129L23.4456 43.4738C23.2421 43.3382 23.2421 43.1347 23.4456 43.033L24.056 42.6939C24.2595 42.5582 24.6325 42.5582 24.836 42.6939L25.4464 43.033C25.6499 43.1686 25.6499 43.3721 25.4464 43.4738ZM21.6822 44.0503L22.2926 43.7112C22.4961 43.5756 22.8691 43.5756 23.0726 43.7112L23.683 44.0503C23.8865 44.186 23.8865 44.3894 23.683 44.4912L23.0726 44.8303C22.8691 44.9659 22.4961 44.9659 22.2926 44.8303L21.6822 44.4912C21.4787 44.3894 21.4787 44.186 21.6822 44.0503ZM19.9188 45.0677L20.5292 44.7286C20.7327 44.5929 21.1057 44.5929 21.3092 44.7286L21.9196 45.0677C22.1231 45.2033 22.1231 45.4068 21.9196 45.5085L21.3092 45.8476C21.1057 45.9833 20.7327 45.9833 20.5292 45.8476L19.9188 45.5085C19.7153 45.4068 19.7153 45.2033 19.9188 45.0677ZM18.1554 46.085L18.7658 45.7459C18.9693 45.6103 19.3423 45.6103 19.5458 45.7459L20.1562 46.085C20.3596 46.2207 20.3596 46.4241 20.1562 46.5259L19.5458 46.865C19.3423 47.0006 18.9693 47.0006 18.7658 46.865L18.1554 46.5259C17.9519 46.4241 17.9519 46.2207 18.1554 46.085ZM16.392 47.1024L17.0024 46.7633C17.2059 46.6276 17.5789 46.6276 17.7824 46.7633L18.3928 47.1024C18.5962 47.238 18.5962 47.4415 18.3928 47.5432L17.7824 47.8823C17.5789 48.018 17.2059 48.018 17.0024 47.8823L16.392 47.5432C16.1885 47.4415 16.1885 47.238 16.392 47.1024ZM14.6286 48.1536L15.239 47.8145C15.4425 47.6789 15.8155 47.6789 16.019 47.8145L16.6294 48.1536C16.8328 48.2893 16.8328 48.4927 16.6294 48.5945L16.019 48.9336C15.8155 49.0692 15.4425 49.0692 15.239 48.9336L14.6286 48.5945C14.4251 48.4588 14.4251 48.2554 14.6286 48.1536ZM12.8652 49.171L13.4756 48.8319C13.679 48.6962 14.0521 48.6962 14.2555 48.8319L14.866 49.171C15.0694 49.3066 15.0694 49.5101 14.866 49.6118L14.2555 49.9509C14.0521 50.0866 13.679 50.0866 13.4756 49.9509L12.8652 49.6118C12.6617 49.4762 12.6617 49.2727 12.8652 49.171ZM13.1026 50.6292L12.4921 50.9683C12.2887 51.1039 11.9156 51.1039 11.7122 50.9683L11.1018 50.6292C10.8983 50.4935 10.8983 50.2901 11.1018 50.1883L11.7122 49.8492C11.9156 49.7136 12.2887 49.7136 12.4921 49.8492L13.1026 50.1883C13.306 50.2901 13.306 50.4935 13.1026 50.6292ZM9.33836 51.2057L9.94877 50.8666C10.1522 50.7309 10.5253 50.7309 10.7287 50.8666L11.3391 51.2057C11.5426 51.3413 11.5426 51.5448 11.3391 51.6465L10.7287 51.9856C10.5253 52.1213 10.1522 52.1213 9.94877 51.9856L9.33836 51.6465C9.10098 51.5109 9.10098 51.3074 9.33836 51.2057ZM6.76107 52.6978L8.15145 51.8839C8.35492 51.7483 8.72795 51.7483 8.93142 51.8839L9.54183 52.223C9.7453 52.3587 9.7453 52.5621 9.54183 52.6639L8.15145 53.4778C7.94798 53.6134 7.57495 53.6134 7.37148 53.4778L6.76107 53.1386C6.52369 53.003 6.52369 52.7995 6.76107 52.6978ZM32.3644 41.3713L30.974 42.1852C30.7705 42.3208 30.3975 42.3208 30.194 42.1852L29.5836 41.8461C29.3801 41.7104 29.3801 41.507 29.5836 41.4052L30.974 40.5913C31.1775 40.4557 31.5505 40.4557 31.754 40.5913L32.3644 40.9305C32.6018 41.0322 32.6018 41.2357 32.3644 41.3713ZM29.821 42.8295L29.2106 43.1686C29.0071 43.3043 28.6341 43.3043 28.4306 43.1686L27.8202 42.8295C27.6167 42.6939 27.6167 42.4904 27.8202 42.3887L28.4306 42.0495C28.6341 41.9139 29.0071 41.9139 29.2106 42.0495L29.821 42.3887C30.0584 42.5243 30.0584 42.7278 29.821 42.8295ZM27.4472 44.2199C27.2437 44.3555 26.8707 44.3555 26.6672 44.2199L26.0568 43.8808C25.8533 43.7451 25.8533 43.5416 26.0568 43.4399L26.6672 43.1008C26.8707 42.9652 27.2437 42.9652 27.4472 43.1008L28.0576 43.4399C28.2611 43.5756 28.2611 43.779 28.0576 43.8808L27.4472 44.2199ZM25.6838 45.2372C25.4803 45.3729 25.1073 45.3729 24.9038 45.2372L24.2934 44.8981C24.0899 44.7625 24.0899 44.559 24.2934 44.4573L24.9038 44.1181C25.1073 43.9825 25.4803 43.9825 25.6838 44.1181L26.2942 44.4573C26.4977 44.5929 26.4977 44.7964 26.2942 44.8981L25.6838 45.2372ZM23.9204 45.1016L24.5308 45.4407C24.7343 45.5763 24.7343 45.7798 24.5308 45.8816L23.9204 46.2207C23.7169 46.3563 23.3439 46.3563 23.1404 46.2207L22.53 45.8816C22.3265 45.7459 22.3265 45.5424 22.53 45.4407L23.1404 45.1016C23.3778 44.9659 23.7169 44.9659 23.9204 45.1016ZM22.1231 46.085L22.8013 46.492C23.0048 46.5937 23.0048 46.7972 22.8013 46.8989L22.1231 47.3058C21.9196 47.4076 21.6144 47.4076 21.4109 47.3058L20.7327 46.8989C20.5292 46.7972 20.5292 46.5937 20.7327 46.492L21.4109 46.085C21.6144 45.9833 21.9196 45.9833 22.1231 46.085ZM20.3596 47.1363L21.0379 47.5432C21.2413 47.645 21.2413 47.8484 21.0379 47.9502L20.3596 48.3571C20.1562 48.4588 19.851 48.4588 19.6475 48.3571L18.9693 47.9502C18.7658 47.8484 18.7658 47.645 18.9693 47.5432L19.6475 47.1363C19.851 47.0006 20.1562 47.0006 20.3596 47.1363ZM18.5962 48.1536L19.2745 48.5606C19.4779 48.6623 19.4779 48.8658 19.2745 48.9675L18.5962 49.3745C18.3928 49.4762 18.0876 49.4762 17.8841 49.3745L17.2059 48.9675C17.0024 48.8658 17.0024 48.6623 17.2059 48.5606L17.8841 48.1536C18.0876 48.018 18.3928 48.018 18.5962 48.1536ZM16.8328 49.171L17.5111 49.5779C17.7145 49.6797 17.7145 49.8831 17.5111 49.9849L16.8328 50.3918C16.6294 50.4935 16.3242 50.4935 16.1207 50.3918L15.4425 49.9849C15.239 49.8831 15.239 49.6797 15.4425 49.5779L16.1207 49.171C16.3242 49.0353 16.6294 49.0353 16.8328 49.171ZM15.0694 50.1883L15.7477 50.5953C15.9511 50.697 15.9511 50.9005 15.7477 51.0022L15.0694 51.4092C14.866 51.5109 14.5608 51.5109 14.3573 51.4092L13.6791 51.0022C13.4756 50.9005 13.4756 50.697 13.6791 50.5953L14.3573 50.1883C14.5608 50.0527 14.866 50.0527 15.0694 50.1883ZM12.5939 52.3926L11.9156 51.9856C11.7122 51.8839 11.7122 51.6804 11.9156 51.5787L12.5939 51.1718C12.7973 51.07 13.1026 51.07 13.306 51.1718L13.9843 51.5787C14.1877 51.6804 14.1877 51.8839 13.9843 51.9856L13.306 52.3926C13.1026 52.4943 12.7973 52.4943 12.5939 52.3926ZM10.8305 53.4099L10.1522 53.003C9.94877 52.9013 9.94877 52.6978 10.1522 52.5961L10.8305 52.1891C11.0339 52.0874 11.3391 52.0874 11.5426 52.1891L12.2208 52.5961C12.4243 52.6978 12.4243 52.9013 12.2208 53.003L11.5426 53.4099C11.3391 53.5117 11.0339 53.5117 10.8305 53.4099ZM8.35492 53.6473L9.03315 53.2404C9.23662 53.1386 9.54183 53.1386 9.7453 53.2404L10.4235 53.6473C10.627 53.7491 10.627 53.9525 10.4235 54.0543L9.7453 54.4612C9.54183 54.5629 9.23662 54.5629 9.03315 54.4612L8.35492 54.0543C8.15145 53.9525 8.15145 53.783 8.35492 53.6473ZM34.06 42.2869L31.8557 43.5756C31.6522 43.6773 31.347 43.6773 31.1436 43.5756L30.4653 43.1686C30.2619 43.0669 30.2619 42.8634 30.4653 42.7617L32.6696 41.473C32.873 41.3713 33.1783 41.3713 33.3817 41.473L34.06 41.88C34.2634 42.0156 34.2634 42.1852 34.06 42.2869ZM30.7705 44.186L30.0923 44.5929C29.8888 44.6946 29.5836 44.6946 29.3801 44.5929L28.7019 44.186C28.4984 44.0842 28.4984 43.8808 28.7019 43.779L29.3801 43.3721C29.5836 43.2704 29.8888 43.2704 30.0923 43.3721L30.7705 43.779C30.9401 43.9147 30.9401 44.0842 30.7705 44.186ZM29.0071 45.2033L28.3289 45.6103C28.1254 45.712 27.8202 45.712 27.6167 45.6103L26.9385 45.2033C26.735 45.1016 26.735 44.8981 26.9385 44.7964L27.6167 44.3894C27.8202 44.2877 28.1254 44.2877 28.3289 44.3894L29.0071 44.7964C29.1767 44.932 29.1767 45.1016 29.0071 45.2033ZM27.2437 46.2207L26.5655 46.6276C26.362 46.7293 26.0568 46.7293 25.8533 46.6276L25.1751 46.2207C24.9716 46.1189 24.9716 45.9155 25.1751 45.8137L25.8533 45.4068C26.0568 45.3051 26.362 45.3051 26.5655 45.4068L27.2437 45.8137C27.4133 45.9494 27.4133 46.1189 27.2437 46.2207ZM24.0899 47.645L23.4117 47.238C23.2082 47.1363 23.2082 46.9328 23.4117 46.8311L24.0899 46.4241C24.2934 46.3224 24.5986 46.3224 24.8021 46.4241L25.4803 46.8311C25.6838 46.9328 25.6838 47.1363 25.4803 47.238L24.8021 47.645C24.5986 47.7467 24.2595 47.7467 24.0899 47.645ZM22.2926 48.6623L21.6144 48.2554C21.4109 48.1536 21.4109 47.9502 21.6144 47.8484L22.2926 47.4415C22.4961 47.3398 22.8013 47.3398 23.0048 47.4415L23.683 47.8484C23.8865 47.9502 23.8865 48.1536 23.683 48.2554L23.0048 48.6623C22.8013 48.798 22.4961 48.798 22.2926 48.6623ZM20.5292 49.6797L19.851 49.2727C19.6475 49.171 19.6475 48.9675 19.851 48.8658L20.5292 48.4588C20.7327 48.3571 21.0379 48.3571 21.2414 48.4588L21.9196 48.8658C22.1231 48.9675 22.1231 49.171 21.9196 49.2727L21.2414 49.6797C21.0379 49.8153 20.7327 49.8153 20.5292 49.6797ZM18.7658 50.697L18.0876 50.2901C17.8841 50.1883 17.8841 49.9849 18.0876 49.8831L18.7658 49.4762C18.9693 49.3745 19.2745 49.3745 19.4779 49.4762L20.1562 49.8831C20.3596 49.9849 20.3596 50.1883 20.1562 50.2901L19.4779 50.697C19.2745 50.8327 18.9693 50.8327 18.7658 50.697ZM17.0024 51.7144L16.3242 51.3074C16.1207 51.2057 16.1207 51.0022 16.3242 50.9005L17.0024 50.4935C17.2059 50.3918 17.5111 50.3918 17.7145 50.4935L18.3928 50.9005C18.5962 51.0022 18.5962 51.2057 18.3928 51.3074L17.7145 51.7144C17.5111 51.85 17.2059 51.85 17.0024 51.7144ZM15.239 52.7317L14.5608 52.3248C14.3573 52.223 14.3573 52.0196 14.5608 51.9178L15.239 51.5109C15.4425 51.4092 15.7477 51.4092 15.9511 51.5109L16.6294 51.9178C16.8328 52.0196 16.8328 52.223 16.6294 52.3248L15.9511 52.7317C15.7477 52.8674 15.4425 52.8674 15.239 52.7317ZM14.866 53.376L14.1877 53.783C13.9843 53.8847 13.679 53.8847 13.4756 53.783L12.7973 53.376C12.5939 53.2743 12.5939 53.0708 12.7973 52.9691L13.4756 52.5621C13.679 52.4604 13.9843 52.4604 14.1877 52.5621L14.866 52.9691C15.0694 53.0708 15.0694 53.2743 14.866 53.376ZM9.98268 54.5968L11.7122 53.5795C11.9156 53.4778 12.2209 53.4778 12.4243 53.5795L13.1026 53.9864C13.306 54.0882 13.306 54.2916 13.1026 54.3934L11.3731 55.4107C11.1696 55.5125 10.8644 55.5125 10.6609 55.4107L9.98268 55.0038C9.77921 54.9021 9.77921 54.6986 9.98268 54.5968ZM35.6877 43.3043L32.5339 45.1016C32.3305 45.2372 31.9574 45.2372 31.754 45.1016L31.1775 44.7625C30.974 44.6268 30.974 44.4234 31.1775 44.2877L34.3312 42.4904C34.5347 42.3547 34.9077 42.3547 35.1112 42.4904L35.6877 42.8295C35.8912 42.9652 35.8912 43.1686 35.6877 43.3043ZM31.3809 45.7798L30.7705 46.1189C30.5671 46.2546 30.194 46.2546 29.9906 46.1189L29.4141 45.7798C29.2106 45.6442 29.2106 45.4407 29.4141 45.3051L30.0245 44.9659C30.2279 44.8303 30.601 44.8303 30.8044 44.9659L31.3809 45.3051C31.5844 45.4407 31.5844 45.6442 31.3809 45.7798ZM29.6175 46.7972L29.0071 47.1363C28.8036 47.2719 28.4306 47.2719 28.2271 47.1363L27.6507 46.7972C27.4472 46.6615 27.4472 46.4581 27.6507 46.3224L28.2611 45.9833C28.4645 45.8476 28.8376 45.8476 29.041 45.9833L29.6175 46.3224C29.821 46.4581 29.821 46.6615 29.6175 46.7972ZM27.8541 47.8145L27.2437 48.1536C27.0402 48.2893 26.6672 48.2893 26.4637 48.1536L25.8872 47.8145C25.6838 47.6789 25.6838 47.4754 25.8872 47.3398L26.4977 47.0006C26.7011 46.865 27.0742 46.865 27.2776 47.0006L27.8541 47.3398C28.0576 47.4754 28.0576 47.6789 27.8541 47.8145ZM26.0568 48.8319L25.4464 49.171C25.2429 49.3066 24.8699 49.3066 24.6664 49.171L24.0899 48.8319C23.8865 48.6962 23.8865 48.4927 24.0899 48.3571L24.7003 48.018C24.9038 47.8823 25.2768 47.8823 25.4803 48.018L26.0568 48.3571C26.2942 48.4927 26.2942 48.6962 26.0568 48.8319ZM24.2934 49.8492L23.683 50.1883C23.4795 50.324 23.1065 50.324 22.903 50.1883L22.3265 49.8492C22.1231 49.7136 22.1231 49.5101 22.3265 49.3745L22.9369 49.0353C23.1404 48.8997 23.5134 48.8997 23.7169 49.0353L24.2934 49.3745C24.5308 49.5101 24.5308 49.7136 24.2934 49.8492ZM22.53 50.8666L21.9196 51.2057C21.7161 51.3413 21.3431 51.3413 21.1396 51.2057L20.5631 50.8666C20.3596 50.7309 20.3596 50.5274 20.5631 50.3918L21.1735 50.0527C21.377 49.917 21.75 49.917 21.9535 50.0527L22.53 50.3918C22.7674 50.5274 22.7674 50.7309 22.53 50.8666ZM20.7666 51.8839L20.1562 52.223C19.9527 52.3587 19.5797 52.3587 19.3762 52.223L18.7997 51.8839C18.5962 51.7483 18.5962 51.5448 18.7997 51.4092L19.4101 51.07C19.6136 50.9344 19.9866 50.9344 20.1901 51.07L20.7666 51.4092C21.004 51.5448 21.004 51.7822 20.7666 51.8839ZM19.0032 52.9013L18.3928 53.2404C18.1893 53.376 17.8163 53.376 17.6128 53.2404L17.0363 52.9013C16.8328 52.7656 16.8328 52.5621 17.0363 52.4265L17.6467 52.0874C17.8502 51.9517 18.2232 51.9517 18.4267 52.0874L19.0032 52.4265C19.2406 52.5961 19.2406 52.7995 19.0032 52.9013ZM17.2398 53.9186L16.6294 54.2577C16.4259 54.3934 16.0529 54.3934 15.8494 54.2577L15.2729 53.9186C15.0694 53.783 15.0694 53.5795 15.2729 53.4438L15.8833 53.1047C16.0868 52.9691 16.4598 52.9691 16.6633 53.1047L17.2398 53.4438C17.4772 53.6134 17.4772 53.8169 17.2398 53.9186ZM15.4764 54.936L14.866 55.2751C14.6625 55.4107 14.2895 55.4107 14.086 55.2751L13.5095 54.936C13.306 54.8003 13.306 54.5968 13.5095 54.4612L14.1199 54.1221C14.3234 53.9864 14.6964 53.9864 14.8999 54.1221L15.4764 54.4612C15.7138 54.6308 15.7138 54.8342 15.4764 54.936ZM11.7122 55.5464L12.3226 55.2073C12.5261 55.0716 12.8991 55.0716 13.1026 55.2073L13.6791 55.5464C13.8825 55.682 13.8825 55.8855 13.6791 56.0211L13.0686 56.3603C12.8652 56.4959 12.4921 56.4959 12.2887 56.3603L11.7122 56.0211C11.4748 55.8855 11.4748 55.682 11.7122 55.5464ZM34.5686 44.2199L35.959 43.4399C36.1625 43.3043 36.5355 43.3043 36.739 43.4399L37.3155 43.779C37.5189 43.9147 37.5189 44.1181 37.3155 44.2538L35.9251 45.0338C35.7216 45.1694 35.3486 45.1694 35.1451 45.0338L34.5686 44.6946C34.3312 44.559 34.3312 44.3555 34.5686 44.2199ZM32.8052 45.2372L33.4156 44.8981C33.6191 44.7625 33.9921 44.7625 34.1956 44.8981L34.7721 45.2372C34.9756 45.3729 34.9756 45.5763 34.7721 45.712L34.1617 46.0511C33.9582 46.1868 33.5852 46.1868 33.3817 46.0511L32.8052 45.712C32.5678 45.5763 32.5678 45.3729 32.8052 45.2372ZM31.0418 46.2546L31.6522 45.9155C31.8557 45.7798 32.2287 45.7798 32.4322 45.9155L33.0087 46.2546C33.2122 46.3902 33.2122 46.5937 33.0087 46.7293L32.3983 47.0685C32.1948 47.2041 31.8218 47.2041 31.6183 47.0685L31.0418 46.7293C30.8044 46.5937 30.8044 46.3902 31.0418 46.2546ZM18.6641 53.4099L29.8549 46.9667C30.0584 46.8311 30.4314 46.8311 30.6349 46.9667L31.2114 47.3058C31.4148 47.4415 31.4148 47.645 31.2114 47.7806L20.0205 54.2238C19.8171 54.3595 19.444 54.3595 19.2406 54.2238L18.6641 53.8847C18.4606 53.7491 18.4606 53.5456 18.6641 53.4099ZM16.9007 54.4273L17.5111 54.0882C17.7145 53.9525 18.0876 53.9525 18.291 54.0882L18.8675 54.4273C19.071 54.5629 19.071 54.7664 18.8675 54.9021L18.2571 55.2412C18.0537 55.3768 17.6806 55.3768 17.4772 55.2412L16.9007 54.9021C16.6972 54.7664 16.6972 54.5629 16.9007 54.4273ZM15.1373 55.4446L15.7477 55.1055C15.9511 54.9699 16.3242 54.9699 16.5276 55.1055L17.1041 55.4446C17.3076 55.5803 17.3076 55.7838 17.1041 55.9194L16.4937 56.2585C16.2902 56.3942 15.9172 56.3942 15.7138 56.2585L15.1373 55.9194C14.8999 55.7838 14.8999 55.5803 15.1373 55.4446ZM13.3399 56.4959L13.9503 56.1568C14.1538 56.0211 14.5268 56.0211 14.7303 56.1568L15.3068 56.4959C15.5103 56.6315 15.5103 56.835 15.3068 56.9707L14.6964 57.3098C14.4929 57.4454 14.1199 57.4454 13.9164 57.3098L13.3399 56.9707C13.1026 56.8011 13.1026 56.5976 13.3399 56.4959Z" fill="#A8CFF0"/>
<path d="M3.67474 51.6453L27.0738 38.1485C27.9894 37.6398 28.7015 36.2156 28.7015 35.0286V16.6485C28.7015 15.4277 27.9555 14.8851 27.0738 15.3938L3.67474 28.8906C2.75913 29.3993 2.04698 30.8236 2.04698 32.0105V50.3567C2.04698 51.6114 2.79304 52.154 3.67474 51.6453Z" fill="#A8CFF0"/>
<path d="M3.47081 50.6968L26.5986 37.3356C27.3107 36.8608 27.7855 35.9452 27.7855 34.9957V16.5817C27.7855 16.3443 27.5481 16.2086 27.3446 16.3443C27.3107 16.3443 27.3107 16.3782 27.2768 16.3782L4.11514 29.7733C3.23344 30.282 2.92823 31.1637 2.92823 32.1132V50.4933C2.92823 50.7307 3.19952 50.9002 3.40299 50.7646C3.4369 50.7307 3.47081 50.6968 3.47081 50.6968Z" fill="#03336E"/>
<path d="M4.14961 29.7392L27.3113 16.3441C27.3113 16.3441 27.3452 16.3441 27.3791 16.3102C27.5826 16.2084 27.8199 16.3441 27.8199 16.5476V34.9955C27.8199 35.945 27.3791 36.8606 26.633 37.3354L3.50529 50.6966C3.50529 50.6966 3.47138 50.6966 3.47138 50.7305C3.26791 50.8661 2.99662 50.6966 2.99662 50.4592V32.0452C2.9627 31.1296 3.26791 30.2139 4.14961 29.7392ZM3.16617 50.4592C3.16617 50.527 3.234 50.5948 3.30182 50.5948C3.33573 50.5948 3.33573 50.5948 3.36964 50.5609L26.5313 37.1658C27.1756 36.7589 27.6165 35.8772 27.6165 34.9955V16.5815C27.6165 16.5136 27.5487 16.4797 27.5147 16.4797C27.4808 16.4797 27.4808 16.4797 27.4469 16.4797L4.25135 29.8748C3.33573 30.3835 3.16617 31.333 3.16617 32.0452V50.4592Z" fill="#022652"/>
<path d="M3.23359 28.688L26.6326 15.1912C27.0056 14.9877 27.3109 14.9538 27.5821 15.0556C27.6161 15.0556 28.0569 15.3268 28.0908 15.3268C27.8195 15.1912 27.4465 15.2251 27.0735 15.4286L3.67444 28.9254C2.75882 29.4341 2.04668 30.8584 2.04668 32.0453V50.3915C2.04668 51.1375 2.31797 51.6462 2.75882 51.7819C2.72491 51.7819 2.691 51.7819 2.62317 51.7479C2.58926 51.7479 2.1145 51.4427 2.08059 51.4427C1.77539 51.2393 1.57192 50.7645 1.57192 50.1541V31.8079C1.57192 30.621 2.31797 29.1967 3.23359 28.688Z" fill="#3F92D1"/>
<path d="M3.23359 28.688L26.6326 15.1912C27.0056 14.9877 27.3109 14.9538 27.5821 15.0556C27.6161 15.0556 28.0569 15.3268 28.0908 15.3268C27.8195 15.1912 27.4465 15.2251 27.0735 15.4286L3.67444 28.9254L3.23359 28.688Z" fill="#4F9FDB"/>
<path d="M3.60654 28.8916L27.0056 15.3948C27.3786 15.1913 27.7177 15.1574 27.989 15.2591C27.7516 15.2252 27.4803 15.293 27.209 15.4287L3.81001 28.9255C2.89439 29.4342 2.18225 30.8585 2.18225 32.0454V50.3916C2.18225 51.1037 2.45354 51.5785 2.82657 51.748C2.3179 51.6802 1.97878 51.1376 1.97878 50.3237V32.0115C1.97878 30.8245 2.69093 29.4003 3.60654 28.8916Z" fill="white"/>
</svg>
