<svg width="50" height="37" viewBox="0 0 50 37" fill="none" xmlns="http://www.w3.org/2000/svg">
<path d="M40.3511 16.6137C40.8133 17.0525 41.0622 17.66 41.0622 18.3013C41.0622 18.9088 40.8133 19.5163 40.3511 19.955C39.8889 20.3938 39.2489 20.6638 38.5733 20.6638C37.9333 20.6638 37.2933 20.3938 36.7956 19.955C36.3333 19.5163 36.0844 18.9088 36.0844 18.3013C36.0844 17.66 36.3689 17.0862 36.7956 16.6137C37.2578 16.175 37.8978 15.9387 38.5733 15.9387C39.2489 15.905 39.8889 16.175 40.3511 16.6137V16.6137ZM47 11.3487V26.2662C47 27.785 45.72 29 44.12 29H18.3778C16.5289 29 15 27.5488 15 25.7938V6.05C15 3.8225 16.92 2 19.2667 2H38.9289C40.8844 2 42.3778 3.51875 42.3778 5.375V7.4H43.0178C45.2222 7.4 47 9.25625 47 11.3487ZM17.6311 6.05C17.6311 6.7925 18.2711 7.4 19.0533 7.4H39.5333V5.3075C39.5333 4.97 39.2489 4.7 38.8933 4.7H19.0533C18.2711 4.7 17.6311 5.3075 17.6311 6.05V6.05ZM44.1556 11.3487C44.1556 10.775 43.6578 10.1 43.0178 10.1H18.4133C18.0933 10.1 17.8444 10.505 17.8444 10.8087V25.7938C17.8444 26.0638 18.0933 26.3 18.3778 26.3H44.12C44.1556 26.3 44.1556 26.2662 44.1556 26.2662V11.3487V11.3487Z" fill="#D6EEFF"/>
<circle cx="14" cy="22" r="12" fill="white"/>
<path d="M14 10C20.629 10 26 15.371 26 22C26 28.629 20.629 34 14 34C7.37097 34 2 28.629 2 22C2 15.371 7.37097 10 14 10ZM14 14.6452C11.6484 14.6452 9.74194 16.5516 9.74194 18.9032C9.74194 21.2548 11.6484 23.1613 14 23.1613C16.3516 23.1613 18.2581 21.2548 18.2581 18.9032C18.2581 16.5516 16.3516 14.6452 14 14.6452ZM14 31.2903C16.8403 31.2903 19.3855 30.0032 21.0887 27.9903C20.179 26.2774 18.3984 25.0968 16.3226 25.0968C16.2065 25.0968 16.0903 25.1161 15.979 25.15C15.35 25.3532 14.6919 25.4839 14 25.4839C13.3081 25.4839 12.6452 25.3532 12.021 25.15C11.9097 25.1161 11.7935 25.0968 11.6774 25.0968C9.60161 25.0968 7.82097 26.2774 6.91129 27.9903C8.61452 30.0032 11.1597 31.2903 14 31.2903Z" fill="#0364FF"/>
</svg>
