<svg width="151" height="151" viewBox="0 0 151 151" fill="none" xmlns="http://www.w3.org/2000/svg">
<circle cx="69.1678" cy="113.772" r="2.12969" transform="rotate(-90 69.1678 113.772)" fill="#D7E6FF"/>
<circle cx="69.1678" cy="102.059" r="2.12969" transform="rotate(-90 69.1678 102.059)" fill="#D7E6FF"/>
<circle cx="69.1678" cy="90.3459" r="2.12969" transform="rotate(-90 69.1678 90.3459)" fill="#D7E6FF"/>
<circle cx="77.6863" cy="118.031" r="2.12969" transform="rotate(-90 77.6863 118.031)" fill="#D7E6FF"/>
<circle cx="77.6863" cy="107.383" r="2.12969" transform="rotate(-90 77.6863 107.383)" fill="#D7E6FF"/>
<circle cx="77.6863" cy="96.7355" r="2.12969" transform="rotate(-90 77.6863 96.7355)" fill="#D7E6FF"/>
<circle cx="77.6863" cy="86.0861" r="2.12969" transform="rotate(-90 77.6863 86.0861)" fill="#D7E6FF"/>
<circle cx="29.1339" cy="100.448" r="2.12969" transform="rotate(-45 29.1339 100.448)" fill="#D7E6FF"/>
<circle cx="37.4171" cy="92.166" r="2.12969" transform="rotate(-45 37.4171 92.166)" fill="#D7E6FF"/>
<circle cx="45.6993" cy="83.8838" r="2.12969" transform="rotate(-45 45.6993 83.8838)" fill="#D7E6FF"/>
<circle cx="32.1456" cy="109.483" r="2.12969" transform="rotate(-45 32.1456 109.483)" fill="#D7E6FF"/>
<circle cx="39.6759" cy="101.955" r="2.12969" transform="rotate(-45 39.6759 101.955)" fill="#D7E6FF"/>
<circle cx="47.2052" cy="94.4238" r="2.12969" transform="rotate(-45 47.2052 94.4238)" fill="#D7E6FF"/>
<circle cx="54.7345" cy="86.8955" r="2.12969" transform="rotate(-45 54.7345 86.8955)" fill="#D7E6FF"/>
<circle r="2.12969" transform="matrix(-0.707107 -0.707107 -0.707107 0.707107 121.903 100.448)" fill="#D7E6FF"/>
<circle r="2.12969" transform="matrix(-0.707107 -0.707107 -0.707107 0.707107 113.62 92.166)" fill="#D7E6FF"/>
<circle r="2.12969" transform="matrix(-0.707107 -0.707107 -0.707107 0.707107 105.338 83.8838)" fill="#D7E6FF"/>
<circle r="2.12969" transform="matrix(-0.707107 -0.707107 -0.707107 0.707107 118.891 109.483)" fill="#D7E6FF"/>
<circle r="2.12969" transform="matrix(-0.707107 -0.707107 -0.707107 0.707107 111.361 101.954)" fill="#D7E6FF"/>
<circle r="2.12969" transform="matrix(-0.707107 -0.707107 -0.707107 0.707107 103.832 94.4238)" fill="#D7E6FF"/>
<circle r="2.12969" transform="matrix(-0.707107 -0.707107 -0.707107 0.707107 96.3026 86.8955)" fill="#D7E6FF"/>
<circle cx="19.744" cy="113.733" r="14.0736" fill="white" stroke="#FAFBFF" stroke-width="1.34091"/>
<path fill-rule="evenodd" clip-rule="evenodd" d="M24.8549 113.757C24.8549 113.372 24.8204 113.002 24.7562 112.646H19.6436V114.746H22.5651C22.4392 115.425 22.0568 116 21.4818 116.385V117.747H23.2362C24.2627 116.802 24.8549 115.41 24.8549 113.757V113.757Z" fill="#5C6C7F"/>
<path fill-rule="evenodd" clip-rule="evenodd" d="M19.6431 119.061C21.1088 119.061 22.3376 118.575 23.2358 117.746L21.4814 116.384C20.9953 116.71 20.3735 116.902 19.6431 116.902C18.2292 116.902 17.0325 115.947 16.6056 114.664H14.792V116.071C15.6852 117.845 17.521 119.061 19.6431 119.061V119.061Z" fill="#5C6C7F"/>
<path fill-rule="evenodd" clip-rule="evenodd" d="M16.6058 114.665C16.4973 114.339 16.4356 113.991 16.4356 113.633C16.4356 113.275 16.4973 112.927 16.6058 112.602V111.195H14.7922C14.4246 111.928 14.2148 112.757 14.2148 113.633C14.2148 114.509 14.4246 115.338 14.7922 116.071L16.6058 114.665V114.665Z" fill="#5C6C7F"/>
<path fill-rule="evenodd" clip-rule="evenodd" d="M19.6431 110.363C20.4401 110.363 21.1557 110.637 21.7182 111.175L23.2752 109.618C22.3351 108.742 21.1063 108.204 19.6431 108.204C17.521 108.204 15.6852 109.421 14.792 111.195L16.6056 112.601C17.0325 111.318 18.2292 110.363 19.6431 110.363V110.363Z" fill="#5C6C7F"/>
<circle cx="75.5565" cy="124.257" r="14.0736" fill="white" stroke="#FAFBFF" stroke-width="1.34091"/>
<circle cx="131.427" cy="109.961" r="14.0736" fill="white" stroke="#FAFBFF" stroke-width="1.34091"/>
<path d="M133.382 109.261L136.191 108.345C136.401 108.276 136.634 108.276 136.843 108.345L137.812 108.661C137.92 108.696 138.037 108.66 138.128 108.594C138.218 108.528 138.272 108.405 138.272 108.293C138.272 107.518 137.642 106.889 136.868 106.889H124.23C123.456 106.889 122.826 107.518 122.826 108.293V111.803C122.826 112.578 123.456 113.208 124.23 113.208H132.326C132.423 113.208 132.515 113.168 132.582 113.098C132.647 113.028 132.682 112.934 132.677 112.838C132.665 112.601 132.656 112.357 132.656 112.093V110.262C132.656 109.804 132.948 109.402 133.382 109.261ZM126.067 110.095C126.235 110.192 126.293 110.407 126.195 110.575C126.131 110.687 126.012 110.75 125.892 110.75C125.832 110.75 125.772 110.735 125.716 110.703L125.635 110.656V110.75C125.635 110.944 125.478 111.101 125.284 111.101C125.089 111.101 124.932 110.944 124.932 110.75V110.656L124.851 110.703C124.795 110.735 124.735 110.75 124.675 110.75C124.555 110.75 124.436 110.687 124.372 110.575C124.274 110.407 124.332 110.192 124.5 110.095L124.581 110.048L124.5 110.001C124.332 109.904 124.274 109.69 124.372 109.522C124.468 109.354 124.684 109.297 124.851 109.393L124.932 109.44V109.346C124.932 109.152 125.089 108.995 125.284 108.995C125.478 108.995 125.635 109.152 125.635 109.346V109.44L125.716 109.393C125.883 109.296 126.099 109.353 126.195 109.522C126.293 109.689 126.235 109.904 126.067 110.001L125.986 110.048L126.067 110.095ZM128.876 110.095C129.044 110.192 129.101 110.407 129.004 110.575C128.939 110.687 128.821 110.75 128.7 110.75C128.64 110.75 128.58 110.735 128.525 110.703L128.443 110.656V110.75C128.443 110.944 128.286 111.101 128.092 111.101C127.898 111.101 127.741 110.944 127.741 110.75V110.656L127.659 110.703C127.604 110.735 127.543 110.75 127.484 110.75C127.363 110.75 127.245 110.687 127.18 110.575C127.083 110.407 127.14 110.192 127.308 110.095L127.39 110.048L127.308 110.001C127.14 109.904 127.083 109.69 127.18 109.522C127.277 109.354 127.492 109.297 127.659 109.393L127.741 109.44V109.346C127.741 109.152 127.898 108.995 128.092 108.995C128.286 108.995 128.443 109.152 128.443 109.346V109.44L128.525 109.393C128.692 109.296 128.908 109.353 129.004 109.522C129.101 109.69 129.044 109.904 128.876 110.001L128.794 110.048L128.876 110.095ZM131.684 110.095C131.852 110.192 131.91 110.407 131.812 110.575C131.748 110.687 131.629 110.75 131.509 110.75C131.449 110.75 131.389 110.735 131.333 110.703L131.251 110.656V110.75C131.251 110.944 131.094 111.101 130.9 111.101C130.706 111.101 130.549 110.944 130.549 110.75V110.656L130.468 110.703C130.412 110.735 130.352 110.75 130.292 110.75C130.171 110.75 130.053 110.687 129.988 110.575C129.891 110.407 129.949 110.192 130.117 110.095L130.198 110.048L130.117 110.001C129.949 109.904 129.891 109.69 129.988 109.522C130.085 109.354 130.3 109.297 130.468 109.393L130.549 109.44V109.346C130.549 109.152 130.706 108.995 130.9 108.995C131.094 108.995 131.251 109.152 131.251 109.346V109.44L131.333 109.393C131.501 109.296 131.716 109.353 131.812 109.522C131.91 109.69 131.852 109.904 131.684 110.001L131.603 110.048L131.684 110.095Z" fill="#5C6C7F"/>
<path d="M139.434 109.928L136.626 109.012C136.555 108.989 136.479 108.989 136.408 109.012L133.599 109.928C133.455 109.975 133.357 110.11 133.357 110.262V112.093C133.357 114.564 133.752 115.467 136.369 116.685C136.415 116.707 136.466 116.718 136.517 116.718C136.568 116.718 136.618 116.707 136.665 116.685C139.281 115.467 139.676 114.564 139.676 112.093V110.262C139.676 110.11 139.578 109.975 139.434 109.928ZM136.677 115.119C136.627 115.145 136.572 115.158 136.517 115.158C136.453 115.158 136.39 115.14 136.334 115.106C136.23 115.042 136.166 114.929 136.166 114.807V113.208H135.113C134.919 113.208 134.762 113.051 134.762 112.857V111.281C134.762 111.129 134.86 110.994 135.004 110.947L136.408 110.489C136.515 110.455 136.632 110.473 136.723 110.539C136.814 110.605 136.868 110.71 136.868 110.823V112.505H137.921C138.017 112.505 138.109 112.545 138.175 112.614C138.241 112.684 138.276 112.778 138.271 112.874C138.216 114.023 137.873 114.505 136.677 115.119Z" fill="#5C6C7F"/>
<g filter="url(#filter0_d)">
<circle cx="75.636" cy="56.8021" r="37.8021" fill="white"/>
<circle cx="75.636" cy="56.8021" r="37.1316" stroke="#FAFBFF" stroke-width="1.34091"/>
</g>
<circle cx="75.586" cy="56.6914" r="23.9854" fill="#D7E6FF"/>
<path d="M83.9964 58.0794C84.4122 58.4914 84.6361 59.0619 84.6361 59.6641C84.6361 60.2347 84.4122 60.8052 83.9964 61.2172C83.5807 61.6292 83.005 61.8828 82.3974 61.8828C81.8218 61.8828 81.2461 61.6292 80.7984 61.2172C80.3826 60.8052 80.1588 60.2347 80.1588 59.6641C80.1588 59.0619 80.4146 58.5231 80.7984 58.0794C81.2141 57.6674 81.7898 57.4455 82.3974 57.4455C83.005 57.4138 83.5807 57.6674 83.9964 58.0794V58.0794ZM89.9768 53.135V67.1442C89.9768 68.5704 88.8255 69.7114 87.3864 69.7114H64.2325C62.5695 69.7114 61.1943 68.3486 61.1943 66.7004V48.1589C61.1943 46.067 62.9213 44.3555 65.032 44.3555H82.7172C84.4762 44.3555 85.8193 45.7817 85.8193 47.525V49.4267H86.395C88.3778 49.4267 89.9768 51.1699 89.9768 53.135ZM63.5609 48.1589C63.5609 48.8562 64.1365 49.4267 64.8401 49.4267H83.2609V47.4616C83.2609 47.1446 83.005 46.8911 82.6852 46.8911H64.8401C64.1365 46.8911 63.5609 47.4616 63.5609 48.1589V48.1589ZM87.4184 53.135C87.4184 52.5962 86.9706 51.9623 86.395 51.9623H64.2645C63.9766 51.9623 63.7528 52.3426 63.7528 52.6279V66.7004C63.7528 66.954 63.9766 67.1758 64.2325 67.1758H87.3864C87.4184 67.1758 87.4184 67.1442 87.4184 67.1442V53.135V53.135Z" fill="#0364FF"/>
<path d="M76.4943 128.949C76.3906 128.949 76.3018 128.949 76.213 128.949C73.9922 128.949 71.7714 128.949 69.5507 128.949C68.7413 128.949 68.3663 128.578 68.3712 127.774C68.3761 126.787 68.4008 125.8 68.3959 124.818C68.3959 123.224 68.3761 121.63 68.3663 120.036C68.3613 119.231 68.7364 118.861 69.5457 118.861C73.0052 118.861 76.4696 118.861 79.9291 118.861C80.7236 118.861 81.0888 119.231 81.0888 120.021C81.0888 120.465 81.0888 120.909 81.0888 121.354C81.0888 121.719 80.9013 121.951 80.615 121.956C80.3189 121.961 80.1215 121.724 80.1215 121.344C80.1166 120.85 80.1215 120.362 80.1215 119.853C76.5239 119.853 72.9509 119.853 69.3483 119.853C69.3483 122.271 69.3483 124.69 69.3483 127.142C71.7221 127.142 74.0958 127.142 76.4844 127.142C76.4943 127.754 76.4943 128.332 76.4943 128.949ZM75.1717 128.016C75.1717 127.749 74.9545 127.537 74.6831 127.537C74.4166 127.537 74.1945 127.754 74.1896 128.016C74.1847 128.287 74.4216 128.519 74.693 128.514C74.9595 128.504 75.1717 128.282 75.1717 128.016Z" fill="#5C6C7F"/>
<path d="M77.343 126.807C77.343 125.692 77.343 124.576 77.343 123.456C77.343 122.938 77.5602 122.721 78.0734 122.716C79.2233 122.716 80.3731 122.716 81.5279 122.716C82.0313 122.716 82.2534 122.938 82.2534 123.436C82.2534 125.682 82.2534 127.922 82.2534 130.168C82.2534 130.671 82.0313 130.893 81.5329 130.893C80.3731 130.893 79.2134 130.893 78.0537 130.893C77.57 130.893 77.343 130.666 77.343 130.187C77.3381 129.057 77.343 127.932 77.343 126.807ZM77.9451 128.855C79.1838 128.855 80.4027 128.855 81.6464 128.855C81.6464 127.064 81.6464 125.282 81.6464 123.486C80.3978 123.486 79.1788 123.486 77.9451 123.486C77.9451 125.277 77.9451 127.054 77.9451 128.855ZM78.8581 130.109C79.4848 130.109 80.1066 130.109 80.7334 130.109C80.7334 129.936 80.7334 129.773 80.7334 129.605C80.1017 129.605 79.4848 129.605 78.8581 129.605C78.8581 129.778 78.8581 129.931 78.8581 130.109Z" fill="#5C6C7F"/>
<path d="M76.5039 129.788C76.5039 130.163 76.5039 130.514 76.5039 130.874C74.7322 130.874 72.9704 130.874 71.2086 130.874C71.1543 130.296 71.6034 129.788 72.161 129.788C73.5971 129.788 75.0332 129.788 76.5039 129.788Z" fill="#5C6C7F"/>
<defs>
<filter id="filter0_d" x="0.288525" y="0.22727" width="150.695" height="150.695" filterUnits="userSpaceOnUse" color-interpolation-filters="sRGB">
<feFlood flood-opacity="0" result="BackgroundImageFix"/>
<feColorMatrix in="SourceAlpha" type="matrix" values="0 0 0 0 0 0 0 0 0 0 0 0 0 0 0 0 0 0 127 0"/>
<feOffset dy="18.7727"/>
<feGaussianBlur stdDeviation="18.7727"/>
<feColorMatrix type="matrix" values="0 0 0 0 0.0117647 0 0 0 0 0.392157 0 0 0 0 1 0 0 0 0.06 0"/>
<feBlend mode="normal" in2="BackgroundImageFix" result="effect1_dropShadow"/>
<feBlend mode="normal" in="SourceGraphic" in2="effect1_dropShadow" result="shape"/>
</filter>
</defs>
</svg>
