<svg width="93" height="72" viewBox="0 0 93 72" fill="none" xmlns="http://www.w3.org/2000/svg">
<path fill-rule="evenodd" clip-rule="evenodd" d="M50.7009 6.81796C59.6408 7.18318 69.1792 4.93894 75.8959 10.8056C84.0242 17.9051 89.3771 28.5098 87.6885 39.1244C85.8812 50.4859 78.1695 60.9707 67.2866 64.9263C57.2613 68.5702 47.2966 62.1678 37.8443 57.2413C29.0035 52.6335 19.4878 47.9535 16.5492 38.482C13.3797 28.2669 14.8935 15.9316 22.7633 8.63497C29.9381 1.98277 40.8905 6.41719 50.7009 6.81796Z" fill="#D6EEFF"/>
<path d="M41.739 51.7996C41.2068 51.7996 40.7506 51.7996 40.2945 51.7996C28.8904 51.7996 17.4864 51.7996 6.08239 51.7996C1.92626 51.7996 0.00024831 49.8989 0.0255906 45.7681C0.0509328 40.6997 0.177644 35.6312 0.152302 30.5881C0.152302 22.4026 0.0509313 14.217 0.000246764 6.03146C-0.0250955 1.90067 1.90092 0 6.05705 0C23.822 0 41.6123 0 59.3772 0C63.4573 0 65.3326 1.90067 65.3326 5.95543C65.3326 8.23624 65.3326 10.517 65.3326 12.7978C65.3326 14.6732 64.3696 15.8643 62.8998 15.8896C61.3792 15.9149 60.3655 14.6985 60.3655 12.7472C60.3402 10.2129 60.3655 7.70405 60.3655 5.09379C41.891 5.09379 23.5432 5.09379 5.04336 5.09379C5.04336 17.5115 5.04336 29.9292 5.04336 42.5243C17.233 42.5243 29.4226 42.5243 41.6883 42.5243C41.739 45.6668 41.739 48.6318 41.739 51.7996ZM34.9472 47.0099C34.9472 45.6414 33.8322 44.5517 32.4384 44.5517C31.0699 44.5517 29.9295 45.6668 29.9041 47.0099C29.8788 48.4037 31.0952 49.5948 32.489 49.5695C33.8575 49.5188 34.9472 48.3784 34.9472 47.0099Z" fill="#0364FF"/>
<path d="M46.0977 40.7998C46.0977 35.0724 46.0977 29.345 46.0977 23.5924C46.0977 20.9314 47.2127 19.8164 49.8483 19.791C55.7531 19.791 61.6578 19.791 67.5879 19.791C70.1728 19.791 71.3132 20.9314 71.3132 23.491C71.3132 35.0217 71.3132 46.5271 71.3132 58.0578C71.3132 60.6427 70.1728 61.7831 67.6133 61.7831C61.6578 61.7831 55.7024 61.7831 49.747 61.7831C47.2634 61.7831 46.0977 60.6174 46.0977 58.1592C46.0723 52.3558 46.0977 46.5778 46.0977 40.7998ZM49.1894 51.3168C55.5504 51.3168 61.8099 51.3168 68.1961 51.3168C68.1961 42.1176 68.1961 32.969 68.1961 23.7444C61.7845 23.7444 55.525 23.7444 49.1894 23.7444C49.1894 32.9437 49.1894 42.0669 49.1894 51.3168ZM53.8778 57.7537C57.0962 57.7537 60.2894 57.7537 63.5078 57.7537C63.5078 56.8667 63.5078 56.0305 63.5078 55.1688C60.264 55.1688 57.0962 55.1688 53.8778 55.1688C53.8778 56.0558 53.8778 56.8414 53.8778 57.7537Z" fill="#0364FF"/>
<path d="M41.7898 56.1094C41.7898 58.0354 41.7898 59.8347 41.7898 61.6847C32.692 61.6847 23.6448 61.6847 14.5976 61.6847C14.3188 58.7196 16.625 56.1094 19.4886 56.1094C26.8632 56.1094 34.2378 56.1094 41.7898 56.1094Z" fill="#0364FF"/>
<circle cx="77" cy="56" r="15.5" fill="white" stroke="#2DCC70"/>
<path d="M65.7041 55.9972C65.7041 62.2348 70.7607 67.2914 76.9982 67.2914C83.2358 67.2914 88.2923 62.2348 88.2923 55.9972C88.2923 49.7597 83.2358 44.7031 76.9982 44.7031C70.7607 44.7031 65.7041 49.7597 65.7041 55.9972Z" fill="#2DCC70"/>
<path d="M83.5651 53.367L81.8548 51.6406L75.5785 57.9331L72.158 54.4964L70.4316 56.2067L73.8683 59.6433L75.5785 61.3536L83.5651 53.367Z" fill="white"/>
</svg>
