<svg width="88" height="66" viewBox="0 0 88 66" fill="none" xmlns="http://www.w3.org/2000/svg">
<path fill-rule="evenodd" clip-rule="evenodd" d="M50.7009 6.81796C59.6408 7.18318 69.1792 4.93894 75.8959 10.8056C84.0242 17.9051 89.3771 28.5098 87.6885 39.1244C85.8812 50.4859 78.1695 60.9707 67.2866 64.9263C57.2613 68.5702 47.2966 62.1678 37.8443 57.2413C29.0035 52.6335 19.4878 47.9535 16.5492 38.482C13.3797 28.2669 14.8935 15.9316 22.7633 8.63497C29.9381 1.98277 40.8905 6.41719 50.7009 6.81796Z" fill="#D6EEFF"/>
<path d="M41.739 51.7996C41.2068 51.7996 40.7506 51.7996 40.2945 51.7996C28.8904 51.7996 17.4864 51.7996 6.08239 51.7996C1.92626 51.7996 0.00024831 49.8989 0.0255906 45.7681C0.0509328 40.6997 0.177644 35.6312 0.152302 30.5881C0.152302 22.4026 0.0509313 14.217 0.000246764 6.03146C-0.0250955 1.90067 1.90092 0 6.05705 0C23.822 0 41.6123 0 59.3772 0C63.4573 0 65.3326 1.90067 65.3326 5.95543C65.3326 8.23624 65.3326 10.517 65.3326 12.7978C65.3326 14.6732 64.3696 15.8643 62.8998 15.8896C61.3792 15.9149 60.3655 14.6985 60.3655 12.7472C60.3402 10.2129 60.3655 7.70405 60.3655 5.09379C41.891 5.09379 23.5432 5.09379 5.04336 5.09379C5.04336 17.5115 5.04336 29.9292 5.04336 42.5243C17.233 42.5243 29.4226 42.5243 41.6883 42.5243C41.739 45.6668 41.739 48.6318 41.739 51.7996ZM34.9472 47.0099C34.9472 45.6414 33.8322 44.5517 32.4384 44.5517C31.0699 44.5517 29.9295 45.6668 29.9041 47.0099C29.8788 48.4037 31.0952 49.5948 32.489 49.5695C33.8575 49.5188 34.9472 48.3784 34.9472 47.0099Z" fill="#0364FF"/>
<path d="M46.0977 40.7991C46.0977 35.0717 46.0977 29.3444 46.0977 23.5917C46.0977 20.9307 47.2128 19.8157 49.8484 19.7903C55.7531 19.7903 61.6579 19.7903 67.588 19.7903C70.1729 19.7903 71.3133 20.9307 71.3133 23.4903C71.3133 35.021 71.3133 46.5264 71.3133 58.0572C71.3133 60.6421 70.1729 61.7825 67.6133 61.7825C61.6579 61.7825 55.7024 61.7825 49.747 61.7825C47.2635 61.7825 46.0977 60.6167 46.0977 58.1585C46.0724 52.3552 46.0977 46.5771 46.0977 40.7991ZM49.1895 51.3161C55.5504 51.3161 61.8099 51.3161 68.1962 51.3161C68.1962 42.1169 68.1962 32.9683 68.1962 23.7437C61.7846 23.7437 55.525 23.7437 49.1895 23.7437C49.1895 32.943 49.1895 42.0662 49.1895 51.3161ZM53.8778 57.7531C57.0963 57.7531 60.2894 57.7531 63.5078 57.7531C63.5078 56.8661 63.5078 56.0298 63.5078 55.1681C60.264 55.1681 57.0963 55.1681 53.8778 55.1681C53.8778 56.0551 53.8778 56.8407 53.8778 57.7531Z" fill="#0364FF"/>
<path d="M41.7899 56.1088C41.7899 58.0348 41.7899 59.8341 41.7899 61.6841C32.692 61.6841 23.6448 61.6841 14.5976 61.6841C14.3189 58.7191 16.625 56.1088 19.4887 56.1088C26.8633 56.1088 34.2379 56.1088 41.7899 56.1088Z" fill="#0364FF"/>
</svg>
