<svg width="237" height="151" viewBox="0 0 237 151" fill="none" xmlns="http://www.w3.org/2000/svg">
<path fill-rule="evenodd" clip-rule="evenodd" d="M38.8472 112.569L56.3049 78.7787C57.7177 83.9926 64.0735 86.6837 62.9202 90.5015C61.7663 94.319 59.1327 90.5523 57.5332 93.8629C55.9338 97.1737 61.1302 104.659 57.2938 108.454C54.5085 111.21 51.4079 107.363 47.4906 108.475C43.5735 109.587 45.7441 115.337 41.5925 114.098C40.5428 113.784 39.6296 113.249 38.8472 112.569Z" fill="#AAD5FF"/>
<path fill-rule="evenodd" clip-rule="evenodd" d="M48.5676 53.5571L45.4554 112.383C40.4268 112.464 36.5984 110.838 36.3793 108.778C35.8428 103.743 40.3674 103.766 40.3906 101.157C40.4284 97.0191 33.359 97.4945 32.7855 92.7843C32.213 88.0742 37.1479 88.1868 37.298 83.7739C37.4481 79.3613 28.2692 74.2104 30.6042 68.0544C32.2995 63.5848 37.4817 65.9976 41.1827 62.6644C44.8836 59.3311 39.7997 54.3775 44.8742 53.4277C46.1571 53.1875 47.3988 53.2595 48.5676 53.5571Z" fill="#D6EEFF"/>
<path fill-rule="evenodd" clip-rule="evenodd" d="M24.7434 79.3822C19.33 75.5782 11.9224 81.185 8.65613 85.0226L43.9728 116.092C45.8202 112.519 45.4022 107.941 44.1206 106.131C42.4097 103.715 38.38 106.652 36.8748 103.42C35.3705 100.187 41.9953 96.1769 39.5011 92.2362C37.8446 89.6181 26.6146 89.7306 25.6546 89.0493C21.99 86.4504 29.2408 82.5426 24.7434 79.3822Z" fill="#C3E4FF"/>
<path fill-rule="evenodd" clip-rule="evenodd" d="M47.8361 124.031H37.2144C37.1346 124.031 37.0552 124.029 36.9761 124.027C32.1329 123.846 29.4384 117.721 32.1813 113.302L34.6146 109.382H50.4359L52.8691 113.302C55.6122 117.721 52.9177 123.846 48.0744 124.027C47.9953 124.029 47.9158 124.031 47.8361 124.031Z" fill="#E8F6FF"/>
<path d="M31.0837 118.397H53.967" stroke="#AAD5FF" stroke-width="6.3"/>
<path d="M31.6147 114.609H53.5094" stroke="#AAD5FF" stroke-width="6.3"/>
<path fill-rule="evenodd" clip-rule="evenodd" d="M208.409 108.76L224.373 62.6801C225.71 68.9519 231.606 71.0404 230.561 76.0793C229.515 81.1182 227.056 76.9166 225.595 81.4088C224.133 85.9009 228.984 94.2575 225.456 99.8167C222.894 103.853 220.003 99.6448 216.384 101.844C212.766 104.043 214.807 110.834 210.958 110.123C209.985 109.943 209.137 109.456 208.409 108.76Z" fill="#AAD5FF"/>
<path fill-rule="evenodd" clip-rule="evenodd" d="M207.018 106.858L190.47 62.7712C186.922 64.0645 184.634 66.3384 184.983 67.9711C185.837 71.9607 189.005 70.7235 189.658 72.7095C190.695 75.8597 185.62 77.4024 186.368 81.1541C187.117 84.9058 190.551 83.4894 191.734 86.8191C192.917 90.1486 187.736 96.5569 190.877 100.629C193.158 103.585 196.204 100.346 199.614 101.893C203.024 103.441 200.667 108.595 204.459 107.952C205.418 107.79 206.271 107.4 207.018 106.858Z" fill="#C3E4FF"/>
<path fill-rule="evenodd" clip-rule="evenodd" d="M199.541 98.8295C200.211 107.103 209.222 108.759 214.218 108.269L214.534 48.7029C210.658 50.2341 207.501 54.7027 206.979 57.4746C206.282 61.1742 211.099 62.1761 209.657 66.4208C208.214 70.6646 200.906 68.2861 199.577 74.0541C198.693 77.8854 206.074 87.8942 206.188 89.3673C206.623 94.9896 198.985 91.9557 199.541 98.8295Z" fill="#D6EEFF"/>
<path fill-rule="evenodd" clip-rule="evenodd" d="M219.343 124.031H199.105C196.597 124.031 194.564 121.999 194.564 119.491L197.335 102.61H221.113L223.884 119.491C223.884 121.999 221.851 124.031 219.343 124.031Z" fill="#E8F6FF"/>
<mask id="mask0" mask-type="alpha" maskUnits="userSpaceOnUse" x="0" y="0" width="237" height="151">
<path fill-rule="evenodd" clip-rule="evenodd" d="M0 150.741H236.14V0H0V150.741Z" fill="white"/>
</mask>
<g mask="url(#mask0)">
<path fill-rule="evenodd" clip-rule="evenodd" d="M198.666 116.967H205.459V110.175H198.666V116.967Z" fill="#D6EEFF"/>
<path fill-rule="evenodd" clip-rule="evenodd" d="M213.407 118.374L208.604 113.571L213.407 108.768L218.211 113.571L213.407 118.374Z" fill="#D6EEFF"/>
<path fill-rule="evenodd" clip-rule="evenodd" d="M186.361 33.9658H203.058V19.9378H186.361V33.9658Z" fill="#D6EEFF"/>
<path fill-rule="evenodd" clip-rule="evenodd" d="M186.361 33.9658H203.058V19.9378H186.361V33.9658Z" stroke="#D6EEFF" stroke-width="3.5"/>
<path fill-rule="evenodd" clip-rule="evenodd" d="M185.379 33.9846H202.077V19.9567H185.379V33.9846Z" fill="white"/>
<path fill-rule="evenodd" clip-rule="evenodd" d="M185.379 33.9846H202.077V19.9567H185.379V33.9846Z" stroke="#D6EEFF" stroke-width="3.5"/>
<path fill-rule="evenodd" clip-rule="evenodd" d="M188.223 31.0865H198.995V22.8171H188.223V31.0865Z" fill="#D6EEFF"/>
<path fill-rule="evenodd" clip-rule="evenodd" d="M61.4141 65.5563H87.4195V43.5058H61.4141V65.5563Z" fill="#D6EEFF"/>
<path fill-rule="evenodd" clip-rule="evenodd" d="M61.4141 65.5563H87.4195V43.5058H61.4141V65.5563Z" stroke="#D6EEFF" stroke-width="3.5"/>
<path fill-rule="evenodd" clip-rule="evenodd" d="M59.8851 65.5859H85.8906V43.5354H59.8851V65.5859Z" fill="white"/>
<path fill-rule="evenodd" clip-rule="evenodd" d="M59.8851 65.5859H85.8906V43.5354H59.8851V65.5859Z" stroke="#D6EEFF" stroke-width="3.5"/>
<path fill-rule="evenodd" clip-rule="evenodd" d="M64.3142 61.0303H81.0906V48.0317H64.3142V61.0303Z" fill="#D6EEFF"/>
<path fill-rule="evenodd" clip-rule="evenodd" d="M96.0984 53.305H106.246V41.4788H96.0984V53.305Z" fill="#D6EEFF"/>
<path fill-rule="evenodd" clip-rule="evenodd" d="M96.0984 53.305H106.246V41.4788H96.0984V53.305Z" stroke="#D6EEFF" stroke-width="3.5"/>
<path fill-rule="evenodd" clip-rule="evenodd" d="M95.3964 53.305H105.732V41.4788H95.3964V53.305Z" fill="white"/>
<path fill-rule="evenodd" clip-rule="evenodd" d="M95.3964 53.305H105.732V41.4788H95.3964V53.305Z" stroke="#D6EEFF" stroke-width="3.5"/>
<path fill-rule="evenodd" clip-rule="evenodd" d="M97.8429 50.2275H102.81V44.5344H97.8429V50.2275Z" fill="#C3E4FF"/>
<path fill-rule="evenodd" clip-rule="evenodd" d="M156.102 40.099H172.799V13.823H156.102V40.099Z" fill="#D6EEFF"/>
<path fill-rule="evenodd" clip-rule="evenodd" d="M156.102 40.099H172.799V13.823H156.102V40.099Z" stroke="#D6EEFF" stroke-width="3.5"/>
<path fill-rule="evenodd" clip-rule="evenodd" d="M140.282 40.099H171.575V13.823H140.282V40.099Z" fill="white"/>
<path fill-rule="evenodd" clip-rule="evenodd" d="M140.282 40.099H171.575V13.823H140.282V40.099Z" stroke="#D6EEFF" stroke-width="3.5"/>
<path fill-rule="evenodd" clip-rule="evenodd" d="M143.162 37.2403H168.694V16.6814H143.162V37.2403Z" fill="white"/>
<path fill-rule="evenodd" clip-rule="evenodd" d="M143.162 37.2403H168.694V16.6814H143.162V37.2403Z" stroke="#D6EEFF" stroke-width="3.5"/>
<path fill-rule="evenodd" clip-rule="evenodd" d="M148.489 32.9294H163.367V20.9925H148.489V32.9294Z" fill="#AAD5FF"/>
<path fill-rule="evenodd" clip-rule="evenodd" d="M72.6505 28.0512H86.6979L88.5948 9.10437H74.5475L72.6505 28.0512Z" fill="#D6EEFF"/>
<path fill-rule="evenodd" clip-rule="evenodd" d="M72.6505 28.0512H86.6979L88.5948 9.10437H74.5475L72.6505 28.0512Z" stroke="#D6EEFF" stroke-width="3.5"/>
<path fill-rule="evenodd" clip-rule="evenodd" d="M71.8922 28.0512H86.201L88.0979 9.10437H73.7892L71.8922 28.0512Z" fill="white"/>
<path fill-rule="evenodd" clip-rule="evenodd" d="M71.8922 28.0512H86.201L88.0979 9.10437H73.7892L71.8922 28.0512Z" stroke="#D6EEFF" stroke-width="3.5"/>
<path fill-rule="evenodd" clip-rule="evenodd" d="M74.6327 25.5494H83.9615L85.3575 11.6061H76.0287L74.6327 25.5494Z" fill="#D6EEFF"/>
<path fill-rule="evenodd" clip-rule="evenodd" d="M68.264 14.2033L66.8769 28.0514H48.667L50.0541 14.2033H68.264Z" fill="#D6EEFF"/>
<path fill-rule="evenodd" clip-rule="evenodd" d="M68.264 14.2033L66.8769 28.0514H48.667L50.0541 14.2033H68.264Z" stroke="#D6EEFF" stroke-width="3.5"/>
<path fill-rule="evenodd" clip-rule="evenodd" d="M67.8565 14.2033L66.4695 28.0514H47.9209L49.3078 14.2033H67.8565Z" fill="white"/>
<path fill-rule="evenodd" clip-rule="evenodd" d="M67.8565 14.2033L66.4695 28.0514H47.9209L49.3078 14.2033H67.8565Z" stroke="#D6EEFF" stroke-width="3.5"/>
<path fill-rule="evenodd" clip-rule="evenodd" d="M63.9456 16.92L63.1029 25.3348H51.8317L52.6746 16.92H63.9456Z" fill="#C3E4FF"/>
<path fill-rule="evenodd" clip-rule="evenodd" d="M34.3134 30.4026H86.8381V28.0515H34.3134V30.4026Z" fill="#D6EEFF"/>
<path fill-rule="evenodd" clip-rule="evenodd" d="M86.8379 30.4024H95.4785V28.0512H86.8379V30.4024Z" fill="#C3E4FF"/>
<path fill-rule="evenodd" clip-rule="evenodd" d="M46.134 30.4024L48.9506 35.5424V30.4024H46.134Z" fill="#AAD5FF"/>
<path fill-rule="evenodd" clip-rule="evenodd" d="M44.5753 30.4024L47.3919 35.5424H48.9506L46.134 30.4024H44.5753Z" fill="#C3E4FF"/>
<path fill-rule="evenodd" clip-rule="evenodd" d="M78.2612 30.4024L81.0778 35.5424V30.4024H78.2612Z" fill="#AAD5FF"/>
<path fill-rule="evenodd" clip-rule="evenodd" d="M76.7025 30.4024L79.519 35.5424H81.0778L78.2612 30.4024H76.7025Z" fill="#C3E4FF"/>
<path fill-rule="evenodd" clip-rule="evenodd" d="M126.962 26.671C126.962 31.88 122.738 36.1026 117.528 36.1026C112.319 36.1026 108.095 31.88 108.095 26.671C108.095 21.4622 112.319 17.2395 117.528 17.2395C122.738 17.2395 126.962 21.4622 126.962 26.671Z" fill="#C3E4FF"/>
<path fill-rule="evenodd" clip-rule="evenodd" d="M125.112 26.671C125.112 31.88 120.889 36.1026 115.679 36.1026C110.469 36.1026 106.245 31.88 106.245 26.671C106.245 21.4622 110.469 17.2395 115.679 17.2395C120.889 17.2395 125.112 21.4622 125.112 26.671Z" fill="#D6EEFF"/>
<path fill-rule="evenodd" clip-rule="evenodd" d="M122.827 26.6703C122.827 30.3519 120.044 33.3825 116.468 33.7753C116.209 33.804 115.946 33.8184 115.679 33.8184C111.731 33.8184 108.53 30.6186 108.53 26.6703C108.53 22.7237 111.731 19.5238 115.679 19.5238C115.946 19.5238 116.209 19.5382 116.468 19.5669C120.044 19.9596 122.827 22.9904 122.827 26.6703Z" fill="#C3E4FF"/>
<path fill-rule="evenodd" clip-rule="evenodd" d="M122.827 26.6703C122.827 30.3518 120.044 33.3824 116.468 33.7752C112.891 33.3824 110.108 30.3518 110.108 26.6703C110.108 22.9903 112.891 19.9596 116.468 19.5668C120.044 19.9596 122.827 22.9903 122.827 26.6703Z" fill="#E8F6FF"/>
<path d="M115.989 22.6966L118.305 27.7472" stroke="#C3E4FF" stroke-width="5.6"/>
<path d="M118.526 25.6299L113.452 31.1437" stroke="#C3E4FF" stroke-width="5.6"/>
<path fill-rule="evenodd" clip-rule="evenodd" d="M73.7812 89.0283C73.7812 89.9485 74.5274 90.6944 75.4477 90.6944H90.4406V87.3621H75.4477C74.5274 87.3621 73.7812 88.1081 73.7812 89.0283Z" fill="#C3E4FF"/>
<path fill-rule="evenodd" clip-rule="evenodd" d="M83.8654 89.0282C83.8654 89.561 84.2973 89.9928 84.8301 89.9928H90.4005C90.4227 89.9928 90.4406 89.9748 90.4406 89.9527V88.1038C90.4406 88.0817 90.4227 88.0637 90.4005 88.0637H84.8301C84.2973 88.0637 83.8654 88.4955 83.8654 89.0282Z" fill="#D6EEFF"/>
<path fill-rule="evenodd" clip-rule="evenodd" d="M71.6886 90.6944V94.0266H88.0534C88.9737 94.0266 89.7199 93.2806 89.7199 92.3604C89.7199 91.4404 88.9737 90.6944 88.0534 90.6944H71.6886Z" fill="#C3E4FF"/>
<path fill-rule="evenodd" clip-rule="evenodd" d="M71.6886 91.4052V93.3158H78.4172C78.9448 93.3158 79.3726 92.8881 79.3726 92.3604C79.3726 91.8329 78.9448 91.4052 78.4172 91.4052H71.6886Z" fill="#D6EEFF"/>
<path fill-rule="evenodd" clip-rule="evenodd" d="M114.533 94.0266H143.115L146.974 55.4769H118.393L114.533 94.0266Z" fill="#D6EEFF"/>
<path fill-rule="evenodd" clip-rule="evenodd" d="M114.533 94.0266H143.115L146.974 55.4769H118.393L114.533 94.0266Z" stroke="#D6EEFF" stroke-width="3.5"/>
<path fill-rule="evenodd" clip-rule="evenodd" d="M112.991 94.0266H142.104L145.963 55.4769H116.85L112.991 94.0266Z" fill="white"/>
<path fill-rule="evenodd" clip-rule="evenodd" d="M112.991 94.0266H142.104L145.963 55.4769H116.85L112.991 94.0266Z" stroke="#D6EEFF" stroke-width="3.5"/>
<path fill-rule="evenodd" clip-rule="evenodd" d="M118.567 88.9365H137.547L140.387 60.567H121.407L118.567 88.9365Z" fill="#C3E4FF"/>
<path fill-rule="evenodd" clip-rule="evenodd" d="M151.847 94.0266H180.428L184.288 55.4769H155.706L151.847 94.0266Z" fill="#D6EEFF"/>
<path fill-rule="evenodd" clip-rule="evenodd" d="M151.847 94.0266H180.428L184.288 55.4769H155.706L151.847 94.0266Z" stroke="#D6EEFF" stroke-width="3.5"/>
<path fill-rule="evenodd" clip-rule="evenodd" d="M150.304 94.0266H179.417L183.277 55.4769H154.164L150.304 94.0266Z" fill="white"/>
<path fill-rule="evenodd" clip-rule="evenodd" d="M150.304 94.0266H179.417L183.277 55.4769H154.164L150.304 94.0266Z" stroke="#D6EEFF" stroke-width="3.5"/>
<path fill-rule="evenodd" clip-rule="evenodd" d="M155.88 88.9365H174.861L177.701 60.567H158.721L155.88 88.9365Z" fill="#D6EEFF"/>
<path fill-rule="evenodd" clip-rule="evenodd" d="M128.122 66.9292L125.409 94.0266H96.8267L99.54 66.9292H128.122Z" fill="#D6EEFF"/>
<path fill-rule="evenodd" clip-rule="evenodd" d="M128.122 66.9292L125.409 94.0266H96.8267L99.54 66.9292H128.122Z" stroke="#D6EEFF" stroke-width="3.5"/>
<path fill-rule="evenodd" clip-rule="evenodd" d="M127.111 66.9292L124.397 94.0266H95.2841L97.9974 66.9292H127.111Z" fill="white"/>
<path fill-rule="evenodd" clip-rule="evenodd" d="M127.111 66.9292L124.397 94.0266H95.2841L97.9974 66.9292H127.111Z" stroke="#D6EEFF" stroke-width="3.5"/>
<path fill-rule="evenodd" clip-rule="evenodd" d="M121.025 72.111L119.349 88.8448H101.37L103.046 72.111H121.025Z" fill="#D6EEFF"/>
<path fill-rule="evenodd" clip-rule="evenodd" d="M57.5895 115.798H174.098V96.5125H57.5895V115.798Z" fill="#C3E4FF"/>
<path fill-rule="evenodd" clip-rule="evenodd" d="M60.5999 113.735H79.409V98.5755H60.5999V113.735Z" fill="#D6EEFF"/>
<path fill-rule="evenodd" clip-rule="evenodd" d="M83.3699 105.017H102.179V98.5755H83.3699V105.017Z" fill="#D6EEFF"/>
<path fill-rule="evenodd" clip-rule="evenodd" d="M83.3699 113.735H102.179V107.293H83.3699V113.735Z" fill="#D6EEFF"/>
<path fill-rule="evenodd" clip-rule="evenodd" d="M151.679 105.017H170.489V98.5755H151.679V105.017Z" fill="#D6EEFF"/>
<path fill-rule="evenodd" clip-rule="evenodd" d="M151.679 113.735H170.489V107.293H151.679V113.735Z" fill="#D6EEFF"/>
<path fill-rule="evenodd" clip-rule="evenodd" d="M106.14 113.735H124.949V98.5755H106.14V113.735Z" fill="#D6EEFF"/>
<path fill-rule="evenodd" clip-rule="evenodd" d="M128.91 113.735H147.719V98.5755H128.91V113.735Z" fill="#D6EEFF"/>
<path fill-rule="evenodd" clip-rule="evenodd" d="M174.098 115.798H189.822V96.5125H174.098V115.798Z" fill="#AAD5FF"/>
<path fill-rule="evenodd" clip-rule="evenodd" d="M55.0691 96.5127H176.019V94.0267H55.0691V96.5127Z" fill="#D6EEFF"/>
<path fill-rule="evenodd" clip-rule="evenodd" d="M176.019 96.5127H192.342V94.0267H176.019V96.5127Z" fill="#AAD5FF"/>
<path d="M174.818 115.798V124.518" stroke="#C3E4FF" stroke-width="7"/>
<path d="M189.113 115.798V124.518" stroke="#C3E4FF" stroke-width="7"/>
<path d="M58.142 115.798V124.518" stroke="#C3E4FF" stroke-width="7"/>
<path d="M71.7907 115.798V124.518" stroke="#C3E4FF" stroke-width="7"/>
<path fill-rule="evenodd" clip-rule="evenodd" d="M77.9756 85.3306L79.04 74.96H82.3684L83.4329 85.3306C83.5443 86.4174 82.6914 87.3622 81.5987 87.3622H79.8097C78.7171 87.3622 77.8641 86.4174 77.9756 85.3306Z" fill="#D6EEFF"/>
<path fill-rule="evenodd" clip-rule="evenodd" d="M74.8889 99.9084H65.1199C64.3837 99.9084 63.7869 99.3116 63.7869 98.5755H76.2221C76.2221 99.3116 75.6252 99.9084 74.8889 99.9084Z" fill="#AAD5FF"/>
<path fill-rule="evenodd" clip-rule="evenodd" d="M97.6588 99.9084H87.8899C87.1536 99.9084 86.5566 99.3116 86.5566 98.5755H98.9919C98.9919 99.3116 98.3951 99.9084 97.6588 99.9084Z" fill="#AAD5FF"/>
<path fill-rule="evenodd" clip-rule="evenodd" d="M120.728 99.9084H110.959C110.223 99.9084 109.626 99.3116 109.626 98.5755H122.061C122.061 99.3116 121.465 99.9084 120.728 99.9084Z" fill="#AAD5FF"/>
<path fill-rule="evenodd" clip-rule="evenodd" d="M143.198 99.9084H133.43C132.693 99.9084 132.096 99.3116 132.096 98.5755H144.532C144.532 99.3116 143.935 99.9084 143.198 99.9084Z" fill="#AAD5FF"/>
<path fill-rule="evenodd" clip-rule="evenodd" d="M97.6588 108.626H87.8899C87.1536 108.626 86.5566 108.029 86.5566 107.293H98.9919C98.9919 108.029 98.3951 108.626 97.6588 108.626Z" fill="#AAD5FF"/>
<path fill-rule="evenodd" clip-rule="evenodd" d="M165.968 99.9084H156.199C155.463 99.9084 154.866 99.3116 154.866 98.5755H167.301C167.301 99.3116 166.704 99.9084 165.968 99.9084Z" fill="#AAD5FF"/>
<path fill-rule="evenodd" clip-rule="evenodd" d="M165.968 108.626H156.199C155.463 108.626 154.866 108.029 154.866 107.293H167.301C167.301 108.029 166.704 108.626 165.968 108.626Z" fill="#AAD5FF"/>
<path d="M234.807 125.061H1.33313" stroke="#D6EEFF" stroke-width="14" stroke-linecap="round"/>
</g>
<path fill-rule="evenodd" clip-rule="evenodd" d="M177.976 65.5882L172.928 114.654C172.697 116.901 170.803 118.61 168.543 118.61H109.305C106.692 118.61 104.653 116.35 104.92 113.751L109.968 64.7024C110.199 62.4553 112.092 60.7466 114.351 60.7461L173.59 60.7292C176.203 60.7284 178.244 62.9885 177.976 65.5882Z" fill="#E8F6FF"/>
<path fill-rule="evenodd" clip-rule="evenodd" d="M63.3878 57.4511C66.7682 55.3003 71.2521 56.297 73.4029 59.6774L73.4702 59.7832L74.8421 58.422C77.6862 55.6 82.2795 55.6179 85.1015 58.462C87.9235 61.3061 87.9056 65.8994 85.0615 68.7214L70.9005 82.7725L61.1615 67.4661C59.0107 64.0857 60.0075 59.6019 63.3878 57.4511Z" fill="#EF3C7C"/>
<path fill-rule="evenodd" clip-rule="evenodd" d="M55.5878 49.4045L60.1409 53.9578L59.3612 54.7375L54.8081 50.1842L55.5878 49.4045Z" fill="#1A1A30"/>
<path fill-rule="evenodd" clip-rule="evenodd" d="M49 65.7642H55.44V66.8669H49V65.7642Z" fill="#1A1A30"/>
<path fill-rule="evenodd" clip-rule="evenodd" d="M55.5673 82.4475L60.1203 77.8935L60.9001 78.6732L56.347 83.2271L55.5673 82.4475Z" fill="#1A1A30"/>
<path fill-rule="evenodd" clip-rule="evenodd" d="M154.208 50.8364C154.208 56.2689 149.804 60.6728 144.372 60.6728C138.94 60.6728 134.536 56.2689 134.536 50.8364C134.536 45.4039 138.94 41 144.372 41C149.804 41 154.208 45.4039 154.208 50.8364Z" fill="#463C34"/>
<path fill-rule="evenodd" clip-rule="evenodd" d="M152.87 73.5843C152.87 73.7 152.87 73.813 152.867 73.9288C152.682 84.4701 144.085 92.9556 133.502 92.9556C124.932 92.9556 117.665 87.3942 115.11 79.6804C114.887 79.0052 114.699 78.3134 114.551 77.6052C114.3 76.4174 114.157 75.1882 114.134 73.9288C114.132 73.813 114.132 73.7 114.132 73.5843C114.132 69.0095 115.717 64.8039 118.37 61.4886C118.864 60.8713 119.395 60.287 119.96 59.7358C123.452 56.3185 128.228 54.2157 133.502 54.2157C144.197 54.2157 152.87 62.8886 152.87 73.5843Z" fill="#463C34"/>
<path fill-rule="evenodd" clip-rule="evenodd" d="M67.1859 104.004L110.553 101.985L125.362 88.5093L65.5338 97.6876C65.5338 97.6876 65.0163 96.295 64.2703 94.8584C63.5243 93.4217 61.7617 92.0325 61.9588 88.9671C62.1555 85.9019 60.0231 88.7176 59.8658 90.1965C59.7081 91.6753 61.3079 94.4304 60.0917 95.0529C58.8759 95.6755 55.4777 95.619 54.7235 96.4405C53.9698 97.2621 54.2795 99.0587 54.8599 99.3712C54.8599 99.3712 54.1064 101.587 55.5932 102.959C55.5932 102.959 55.7177 104.533 57.1665 105.149C57.1665 105.149 57.6917 106.71 59.2675 106.523C60.8432 106.336 64.4045 105.039 67.1859 104.004Z" fill="#F8D7B5"/>
<path fill-rule="evenodd" clip-rule="evenodd" d="M114.132 99.4511H152.87V73.9286H114.132V99.4511Z" fill="#463C34"/>
<path fill-rule="evenodd" clip-rule="evenodd" d="M169.758 93.7079L162.763 110.329C162.763 110.329 161.895 115.849 156.279 118.61H139.764C126.671 114.248 121.3 102.273 121.3 102.273L102.67 111.204V90.9308C102.67 90.9308 132.927 86.6282 132.731 86.515C132.461 86.3606 151.316 85.3134 155.047 85.7326C158.779 86.1512 169.758 93.7079 169.758 93.7079Z" fill="white"/>
<path fill-rule="evenodd" clip-rule="evenodd" d="M124.053 87.8695C124.053 87.8695 122.538 88.8079 121.623 90.8244C120.426 93.4613 120.395 97.1966 120.69 99.6714C120.876 101.229 121.3 102.273 121.3 102.273C121.3 102.273 104.051 110.595 102.67 111.204V90.9308C104.682 90.6386 124.053 87.8695 124.053 87.8695Z" fill="#DADAD5"/>
<path fill-rule="evenodd" clip-rule="evenodd" d="M173.847 105.715L172.929 114.653C172.698 116.901 170.805 118.61 168.545 118.61H148.599L145.591 120.574C145.591 120.574 145.647 123.244 145.901 125.153C146.033 126.137 144.815 126.751 144.815 126.751C144.815 126.751 144.503 127.685 143.712 127.881C143.059 128.044 142.515 126.847 142.356 126.42C143.217 128.728 141.839 129.322 141.423 129.267C140.998 129.209 140.827 128.589 140.827 128.589C140.827 128.589 139.981 128.956 138.667 127.6C137.352 126.241 136.815 122.058 136.864 120.611C136.881 120.107 137.253 119.374 137.729 118.61C137.771 118.544 137.812 118.475 137.856 118.409C138.73 117.045 139.868 115.639 139.868 115.314L162.761 110.329L167.608 98.8144L173.847 105.715Z" fill="#F8D7B5"/>
<path fill-rule="evenodd" clip-rule="evenodd" d="M138.059 81.7527C137.006 83.3484 137.442 85.4484 138.045 86.6748C138.249 87.0964 138.475 87.4161 138.668 87.576C139.418 88.196 134.611 92.7764 134.611 92.7764L130.381 88.1244C127.725 88.2732 124.963 88.0858 123.249 87.011C118.143 83.8086 117.823 72.6803 117.906 72.1236L122.177 67.5901C122.177 67.5901 128.625 64.7628 129.609 65.9586C131.408 68.1498 135.627 77.9575 138.668 76.8334C138.668 76.8334 138.279 73.7826 140.972 73.7826C142.978 73.7826 143.524 75.3039 143.524 76.183C143.524 79.1511 139.473 79.6031 138.059 81.7527Z" fill="#F8D7B5"/>
<path fill-rule="evenodd" clip-rule="evenodd" d="M126.054 78.433C126.103 79.3138 126.652 79.9992 127.279 79.9642C127.908 79.9289 128.376 79.1864 128.327 78.3059C128.277 77.4251 127.729 76.7395 127.101 76.7747C126.473 76.8097 126.005 77.5522 126.054 78.433Z" fill="#463C34"/>
<path fill-rule="evenodd" clip-rule="evenodd" d="M120.159 78.301C120.209 79.1818 120.757 79.8672 121.385 79.8322C122.013 79.7969 122.481 79.0545 122.432 78.1739C122.383 77.2931 121.834 76.6075 121.207 76.6428C120.579 76.6778 120.11 77.4202 120.159 78.301Z" fill="#463C34"/>
<path fill-rule="evenodd" clip-rule="evenodd" d="M123.637 67.5377C123.637 68.7558 123.422 69.9271 123.028 71.0129C122.975 71.1479 122.923 71.2885 122.862 71.4235C122.482 72.333 121.975 73.1763 121.363 73.9286C119.712 75.9542 117.293 77.3267 114.551 77.605C114.41 77.6188 114.273 77.6298 114.132 77.6353V73.9286H114.135C114.132 73.8129 114.132 73.6999 114.132 73.5841C114.132 69.0093 115.717 64.8038 118.37 61.4884C118.864 60.8711 119.395 60.2869 119.96 59.7357C121.244 60.7967 122.262 62.1692 122.898 63.74C123.375 64.9113 123.637 66.1928 123.637 67.5377Z" fill="#463C34"/>
<path fill-rule="evenodd" clip-rule="evenodd" d="M138.667 67.3024C138.667 69.95 136.134 72.1817 132.674 72.8658C132.4 72.9217 132.121 72.9664 131.835 73C131.376 73.0584 130.903 73.0865 130.422 73.0865C125.868 73.0865 122.177 70.4976 122.177 67.3024C122.177 66.9951 122.211 66.6936 122.278 66.4004C122.895 63.6326 126.306 61.5155 130.422 61.5155C134.933 61.5155 138.595 64.0573 138.664 67.2104C138.667 67.2409 138.667 67.2718 138.667 67.3024Z" fill="#463C34"/>
<path fill-rule="evenodd" clip-rule="evenodd" d="M124.321 84.5505C124.321 84.5505 126.908 84.7908 126.908 82.9958L124.321 84.5505Z" fill="white"/>
<path fill-rule="evenodd" clip-rule="evenodd" d="M144.616 100.521H137.432V83.6846H152.87V92.2665C152.87 96.8251 149.175 100.521 144.616 100.521Z" fill="#463C34"/>
<path fill-rule="evenodd" clip-rule="evenodd" d="M130.381 88.1244C130.381 88.1244 133.207 87.7008 134.638 86.9589L131.949 89.8493L130.381 88.1244Z" fill="#E1A76A"/>
<path fill-rule="evenodd" clip-rule="evenodd" d="M102.669 91.9903V102.352L101.355 102.413L101.9 92.1082L102.669 91.9903Z" fill="#E1A76A"/>
<path fill-rule="evenodd" clip-rule="evenodd" d="M162.76 110.329L165.262 109.677L167.607 98.8144L162.76 110.329Z" fill="#E1A76A"/>
<path fill-rule="evenodd" clip-rule="evenodd" d="M152.601 100.521L160.116 110.905L156.18 111.762L152.601 100.521Z" fill="#DADAD5"/>
<path d="M60.4567 96.4844C60.7463 97.2687 59.6368 98.0462 59.6368 98.0462C59.6368 98.0462 60.7868 97.9475 61.1208 99.0212C61.4176 99.9753 60.2106 100.71 60.2106 100.71C60.2106 100.71 61.5802 100.512 61.9407 101.594C62.3664 102.871 60.8116 103.558 60.8116 103.558C60.8116 103.558 62.3185 103.017 62.6575 104.201C62.9829 105.336 61.5237 105.689 61.5237 105.689" stroke="#E5E5E5" stroke-width="0.3" stroke-linecap="round"/>
<path d="M54.8584 99.371L59.6378 98.0459" stroke="#E5E5E5" stroke-width="0.3"/>
<path d="M55.5924 102.959L60.2125 100.71" stroke="#E5E5E5" stroke-width="0.3"/>
<path d="M57.1654 105.149L60.813 103.558" stroke="#E5E5E5" stroke-width="0.3"/>
<path d="M140.826 128.314C140.826 128.314 139.442 125.237 139.195 123.825C138.834 121.768 138.875 120.115 138.875 120.115" stroke="#E5E5E5" stroke-width="0.3" stroke-linecap="round"/>
<path d="M142.759 127.27C142.759 127.27 141.811 124.637 141.448 123.565C141.042 122.367 141.039 119.691 141.039 119.691" stroke="#E5E5E5" stroke-width="0.3" stroke-linecap="round"/>
<path d="M143.525 119.394C143.525 119.394 143.3 121.394 143.501 122.814C143.767 124.69 144.814 126.476 144.814 126.476" stroke="#E5E5E5" stroke-width="0.3" stroke-linecap="round"/>
</svg>
