<svg width="237" height="151" viewBox="0 0 237 151" fill="none" xmlns="http://www.w3.org/2000/svg">
<path fill-rule="evenodd" clip-rule="evenodd" d="M38.8472 112.569L56.3049 78.7787C57.7177 83.9926 64.0735 86.6837 62.9202 90.5015C61.7663 94.319 59.1327 90.5523 57.5332 93.8629C55.9338 97.1737 61.1302 104.659 57.2938 108.454C54.5085 111.21 51.4079 107.363 47.4906 108.475C43.5735 109.587 45.7441 115.337 41.5925 114.098C40.5428 113.784 39.6296 113.249 38.8472 112.569Z" fill="#AAD5FF"/>
<path fill-rule="evenodd" clip-rule="evenodd" d="M48.5676 53.5571L45.4554 112.383C40.4268 112.464 36.5984 110.838 36.3793 108.778C35.8428 103.743 40.3674 103.766 40.3906 101.157C40.4284 97.0191 33.359 97.4945 32.7855 92.7842C32.213 88.0741 37.1479 88.1867 37.298 83.7739C37.4481 79.3612 28.2692 74.2103 30.6042 68.0544C32.2995 63.5848 37.4817 65.9975 41.1827 62.6644C44.8836 59.3311 39.7997 54.3774 44.8742 53.4277C46.1571 53.1875 47.3988 53.2595 48.5676 53.5571Z" fill="#D6EEFF"/>
<path fill-rule="evenodd" clip-rule="evenodd" d="M24.7435 79.3822C19.3301 75.5781 11.9226 81.185 8.65625 85.0226L43.9729 116.092C45.8203 112.519 45.4024 107.941 44.1207 106.131C42.4099 103.715 38.3801 106.652 36.8749 103.42C35.3707 100.187 41.9954 96.1769 39.5012 92.2362C37.8447 89.6181 26.6147 89.7306 25.6548 89.0493C21.9901 86.4504 29.2409 82.5426 24.7435 79.3822Z" fill="#C3E4FF"/>
<path fill-rule="evenodd" clip-rule="evenodd" d="M47.836 124.031H37.2142C37.1345 124.031 37.0551 124.03 36.976 124.027C32.1328 123.846 29.4382 117.721 32.1812 113.302L34.6145 109.382H50.4357L52.869 113.302C55.6121 117.721 52.9175 123.846 48.0743 124.027C47.9951 124.03 47.9157 124.031 47.836 124.031Z" fill="#E8F6FF"/>
<path d="M31.0835 118.397H53.9668" stroke="#AAD5FF" stroke-width="6.3"/>
<path d="M31.6147 114.609H53.5094" stroke="#AAD5FF" stroke-width="6.3"/>
<path fill-rule="evenodd" clip-rule="evenodd" d="M208.409 108.761L224.373 62.6802C225.71 68.952 231.606 71.0404 230.561 76.0793C229.514 81.1183 227.056 76.9166 225.595 81.4088C224.133 85.9009 228.984 94.2575 225.456 99.8168C222.894 103.853 220.003 99.6448 216.384 101.844C212.766 104.043 214.807 110.834 210.958 110.123C209.985 109.943 209.137 109.456 208.409 108.761Z" fill="#AAD5FF"/>
<path fill-rule="evenodd" clip-rule="evenodd" d="M207.018 106.858L190.47 62.7712C186.922 64.0645 184.634 66.3384 184.983 67.9712C185.837 71.9608 189.005 70.7235 189.658 72.7095C190.695 75.8597 185.62 77.4025 186.368 81.1541C187.117 84.9058 190.551 83.4894 191.734 86.8191C192.917 90.1487 187.736 96.5569 190.877 100.629C193.158 103.585 196.204 100.346 199.614 101.894C203.024 103.441 200.667 108.595 204.459 107.952C205.418 107.79 206.271 107.4 207.018 106.858Z" fill="#C3E4FF"/>
<path fill-rule="evenodd" clip-rule="evenodd" d="M199.541 98.8295C200.211 107.103 209.222 108.759 214.218 108.269L214.533 48.7029C210.658 50.234 207.501 54.7027 206.979 57.4746C206.282 61.1741 211.099 62.176 209.657 66.4207C208.214 70.6646 200.906 68.286 199.576 74.054C198.692 77.8854 206.074 87.8942 206.187 89.3672C206.623 94.9896 198.985 91.9556 199.541 98.8295Z" fill="#D6EEFF"/>
<path fill-rule="evenodd" clip-rule="evenodd" d="M219.343 124.031H199.105C196.597 124.031 194.564 121.999 194.564 119.491L197.335 102.61H221.113L223.884 119.491C223.884 121.999 221.851 124.031 219.343 124.031Z" fill="#E8F6FF"/>
<mask id="mask0" mask-type="alpha" maskUnits="userSpaceOnUse" x="0" y="0" width="237" height="151">
<path fill-rule="evenodd" clip-rule="evenodd" d="M0 150.741H236.14V0H0V150.741Z" fill="white"/>
</mask>
<g mask="url(#mask0)">
<path fill-rule="evenodd" clip-rule="evenodd" d="M198.666 116.967H205.459V110.175H198.666V116.967Z" fill="#D6EEFF"/>
<path fill-rule="evenodd" clip-rule="evenodd" d="M213.407 118.374L208.604 113.571L213.407 108.768L218.211 113.571L213.407 118.374Z" fill="#D6EEFF"/>
<path fill-rule="evenodd" clip-rule="evenodd" d="M186.361 33.9659H203.058V19.9379H186.361V33.9659Z" fill="#D6EEFF"/>
<path fill-rule="evenodd" clip-rule="evenodd" d="M186.361 33.9659H203.058V19.9379H186.361V33.9659Z" stroke="#D6EEFF" stroke-width="3.5"/>
<path fill-rule="evenodd" clip-rule="evenodd" d="M185.379 33.9845H202.077V19.9567H185.379V33.9845Z" fill="white"/>
<path fill-rule="evenodd" clip-rule="evenodd" d="M185.379 33.9845H202.077V19.9567H185.379V33.9845Z" stroke="#D6EEFF" stroke-width="3.5"/>
<path fill-rule="evenodd" clip-rule="evenodd" d="M188.223 31.0865H198.995V22.8171H188.223V31.0865Z" fill="#D6EEFF"/>
<path fill-rule="evenodd" clip-rule="evenodd" d="M61.4141 65.5563H87.4195V43.5059H61.4141V65.5563Z" fill="#D6EEFF"/>
<path fill-rule="evenodd" clip-rule="evenodd" d="M61.4141 65.5563H87.4195V43.5059H61.4141V65.5563Z" stroke="#D6EEFF" stroke-width="3.5"/>
<path fill-rule="evenodd" clip-rule="evenodd" d="M59.8853 65.5859H85.8907V43.5354H59.8853V65.5859Z" fill="white"/>
<path fill-rule="evenodd" clip-rule="evenodd" d="M59.8853 65.5859H85.8907V43.5354H59.8853V65.5859Z" stroke="#D6EEFF" stroke-width="3.5"/>
<path fill-rule="evenodd" clip-rule="evenodd" d="M64.3145 61.0304H81.0909V48.0317H64.3145V61.0304Z" fill="#D6EEFF"/>
<path fill-rule="evenodd" clip-rule="evenodd" d="M96.0981 53.305H106.245V41.4788H96.0981V53.305Z" fill="#D6EEFF"/>
<path fill-rule="evenodd" clip-rule="evenodd" d="M96.0981 53.305H106.245V41.4788H96.0981V53.305Z" stroke="#D6EEFF" stroke-width="3.5"/>
<path fill-rule="evenodd" clip-rule="evenodd" d="M95.3965 53.305H105.733V41.4788H95.3965V53.305Z" fill="white"/>
<path fill-rule="evenodd" clip-rule="evenodd" d="M95.3965 53.305H105.733V41.4788H95.3965V53.305Z" stroke="#D6EEFF" stroke-width="3.5"/>
<path fill-rule="evenodd" clip-rule="evenodd" d="M97.8428 50.2275H102.809V44.5344H97.8428V50.2275Z" fill="#C3E4FF"/>
<path fill-rule="evenodd" clip-rule="evenodd" d="M156.102 40.099H172.799V13.823H156.102V40.099Z" fill="#D6EEFF"/>
<path fill-rule="evenodd" clip-rule="evenodd" d="M156.102 40.099H172.799V13.823H156.102V40.099Z" stroke="#D6EEFF" stroke-width="3.5"/>
<path fill-rule="evenodd" clip-rule="evenodd" d="M140.282 40.099H171.574V13.823H140.282V40.099Z" fill="white"/>
<path fill-rule="evenodd" clip-rule="evenodd" d="M140.282 40.099H171.574V13.823H140.282V40.099Z" stroke="#D6EEFF" stroke-width="3.5"/>
<path fill-rule="evenodd" clip-rule="evenodd" d="M143.162 37.2403H168.694V16.6814H143.162V37.2403Z" fill="white"/>
<path fill-rule="evenodd" clip-rule="evenodd" d="M143.162 37.2403H168.694V16.6814H143.162V37.2403Z" stroke="#D6EEFF" stroke-width="3.5"/>
<path fill-rule="evenodd" clip-rule="evenodd" d="M148.489 32.9293H163.367V20.9924H148.489V32.9293Z" fill="#AAD5FF"/>
<path fill-rule="evenodd" clip-rule="evenodd" d="M72.6504 28.0512H86.6977L88.5947 9.10437H74.5474L72.6504 28.0512Z" fill="#D6EEFF"/>
<path fill-rule="evenodd" clip-rule="evenodd" d="M72.6504 28.0512H86.6977L88.5947 9.10437H74.5474L72.6504 28.0512Z" stroke="#D6EEFF" stroke-width="3.5"/>
<path fill-rule="evenodd" clip-rule="evenodd" d="M71.8921 28.0512H86.2008L88.0978 9.10437H73.7891L71.8921 28.0512Z" fill="white"/>
<path fill-rule="evenodd" clip-rule="evenodd" d="M71.8921 28.0512H86.2008L88.0978 9.10437H73.7891L71.8921 28.0512Z" stroke="#D6EEFF" stroke-width="3.5"/>
<path fill-rule="evenodd" clip-rule="evenodd" d="M74.6328 25.5494H83.9616L85.3576 11.6061H76.0288L74.6328 25.5494Z" fill="#D6EEFF"/>
<path fill-rule="evenodd" clip-rule="evenodd" d="M68.264 14.2034L66.8769 28.0514H48.667L50.0541 14.2034H68.264Z" fill="#D6EEFF"/>
<path fill-rule="evenodd" clip-rule="evenodd" d="M68.264 14.2034L66.8769 28.0514H48.667L50.0541 14.2034H68.264Z" stroke="#D6EEFF" stroke-width="3.5"/>
<path fill-rule="evenodd" clip-rule="evenodd" d="M67.8565 14.2034L66.4695 28.0514H47.9209L49.3078 14.2034H67.8565Z" fill="white"/>
<path fill-rule="evenodd" clip-rule="evenodd" d="M67.8565 14.2034L66.4695 28.0514H47.9209L49.3078 14.2034H67.8565Z" stroke="#D6EEFF" stroke-width="3.5"/>
<path fill-rule="evenodd" clip-rule="evenodd" d="M63.9455 16.9199L63.1027 25.3348H51.8315L52.6745 16.9199H63.9455Z" fill="#C3E4FF"/>
<path fill-rule="evenodd" clip-rule="evenodd" d="M34.3135 30.4026H86.8382V28.0515H34.3135V30.4026Z" fill="#D6EEFF"/>
<path fill-rule="evenodd" clip-rule="evenodd" d="M86.8379 30.4024H95.4785V28.0511H86.8379V30.4024Z" fill="#C3E4FF"/>
<path fill-rule="evenodd" clip-rule="evenodd" d="M46.1338 30.4023L48.9503 35.5423V30.4023H46.1338Z" fill="#AAD5FF"/>
<path fill-rule="evenodd" clip-rule="evenodd" d="M44.5752 30.4023L47.3917 35.5423H48.9505L46.1338 30.4023H44.5752Z" fill="#C3E4FF"/>
<path fill-rule="evenodd" clip-rule="evenodd" d="M78.2612 30.4023L81.0778 35.5423V30.4023H78.2612Z" fill="#AAD5FF"/>
<path fill-rule="evenodd" clip-rule="evenodd" d="M76.7026 30.4023L79.5192 35.5423H81.0779L78.2613 30.4023H76.7026Z" fill="#C3E4FF"/>
<path fill-rule="evenodd" clip-rule="evenodd" d="M126.962 26.6711C126.962 31.8801 122.738 36.1026 117.528 36.1026C112.319 36.1026 108.095 31.8801 108.095 26.6711C108.095 21.4622 112.319 17.2395 117.528 17.2395C122.738 17.2395 126.962 21.4622 126.962 26.6711Z" fill="#C3E4FF"/>
<path fill-rule="evenodd" clip-rule="evenodd" d="M125.112 26.6711C125.112 31.8801 120.889 36.1026 115.679 36.1026C110.469 36.1026 106.246 31.8801 106.246 26.6711C106.246 21.4622 110.469 17.2395 115.679 17.2395C120.889 17.2395 125.112 21.4622 125.112 26.6711Z" fill="#D6EEFF"/>
<path fill-rule="evenodd" clip-rule="evenodd" d="M122.827 26.6703C122.827 30.3519 120.044 33.3825 116.468 33.7753C116.209 33.804 115.946 33.8184 115.68 33.8184C111.731 33.8184 108.53 30.6186 108.53 26.6703C108.53 22.7237 111.731 19.5238 115.68 19.5238C115.946 19.5238 116.209 19.5382 116.468 19.5669C120.044 19.9596 122.827 22.9904 122.827 26.6703Z" fill="#C3E4FF"/>
<path fill-rule="evenodd" clip-rule="evenodd" d="M122.827 26.6703C122.827 30.3518 120.044 33.3824 116.468 33.7752C112.891 33.3824 110.107 30.3518 110.107 26.6703C110.107 22.9903 112.891 19.9596 116.468 19.5668C120.044 19.9596 122.827 22.9903 122.827 26.6703Z" fill="#E8F6FF"/>
<path d="M115.989 22.6965L118.305 27.7472" stroke="#C3E4FF" stroke-width="5.6"/>
<path d="M118.526 25.6299L113.452 31.1437" stroke="#C3E4FF" stroke-width="5.6"/>
<path fill-rule="evenodd" clip-rule="evenodd" d="M73.7812 89.0282C73.7812 89.9484 74.5274 90.6943 75.4477 90.6943H90.4406V87.3621H75.4477C74.5274 87.3621 73.7812 88.108 73.7812 89.0282Z" fill="#C3E4FF"/>
<path fill-rule="evenodd" clip-rule="evenodd" d="M83.8652 89.0282C83.8652 89.5609 84.2972 89.9927 84.83 89.9927H90.4004C90.4225 89.9927 90.4405 89.9748 90.4405 89.9526V88.1037C90.4405 88.0816 90.4225 88.0636 90.4004 88.0636H84.83C84.2972 88.0636 83.8652 88.4954 83.8652 89.0282Z" fill="#D6EEFF"/>
<path fill-rule="evenodd" clip-rule="evenodd" d="M71.6885 90.6943V94.0266H88.0532C88.9736 94.0266 89.7197 93.2806 89.7197 92.3604C89.7197 91.4403 88.9736 90.6943 88.0532 90.6943H71.6885Z" fill="#C3E4FF"/>
<path fill-rule="evenodd" clip-rule="evenodd" d="M71.6885 91.4052V93.3158H78.4171C78.9447 93.3158 79.3725 92.8881 79.3725 92.3604C79.3725 91.8329 78.9447 91.4052 78.4171 91.4052H71.6885Z" fill="#D6EEFF"/>
<path fill-rule="evenodd" clip-rule="evenodd" d="M114.533 94.0266H143.114L146.974 55.4769H118.393L114.533 94.0266Z" fill="#D6EEFF"/>
<path fill-rule="evenodd" clip-rule="evenodd" d="M114.533 94.0266H143.114L146.974 55.4769H118.393L114.533 94.0266Z" stroke="#D6EEFF" stroke-width="3.5"/>
<path fill-rule="evenodd" clip-rule="evenodd" d="M112.991 94.0266H142.104L145.963 55.4769H116.85L112.991 94.0266Z" fill="white"/>
<path fill-rule="evenodd" clip-rule="evenodd" d="M112.991 94.0266H142.104L145.963 55.4769H116.85L112.991 94.0266Z" stroke="#D6EEFF" stroke-width="3.5"/>
<path fill-rule="evenodd" clip-rule="evenodd" d="M118.566 88.9365H137.547L140.387 60.5669H121.407L118.566 88.9365Z" fill="#C3E4FF"/>
<path fill-rule="evenodd" clip-rule="evenodd" d="M151.847 94.0266H180.428L184.288 55.4769H155.707L151.847 94.0266Z" fill="#D6EEFF"/>
<path fill-rule="evenodd" clip-rule="evenodd" d="M151.847 94.0266H180.428L184.288 55.4769H155.707L151.847 94.0266Z" stroke="#D6EEFF" stroke-width="3.5"/>
<path fill-rule="evenodd" clip-rule="evenodd" d="M150.304 94.0266H179.417L183.277 55.4769H154.164L150.304 94.0266Z" fill="white"/>
<path fill-rule="evenodd" clip-rule="evenodd" d="M150.304 94.0266H179.417L183.277 55.4769H154.164L150.304 94.0266Z" stroke="#D6EEFF" stroke-width="3.5"/>
<path fill-rule="evenodd" clip-rule="evenodd" d="M155.88 88.9365H174.86L177.701 60.5669H158.72L155.88 88.9365Z" fill="#D6EEFF"/>
<path fill-rule="evenodd" clip-rule="evenodd" d="M128.122 66.9292L125.409 94.0266H96.8267L99.54 66.9292H128.122Z" fill="#D6EEFF"/>
<path fill-rule="evenodd" clip-rule="evenodd" d="M128.122 66.9292L125.409 94.0266H96.8267L99.54 66.9292H128.122Z" stroke="#D6EEFF" stroke-width="3.5"/>
<path fill-rule="evenodd" clip-rule="evenodd" d="M127.111 66.9292L124.397 94.0266H95.2842L97.9975 66.9292H127.111Z" fill="white"/>
<path fill-rule="evenodd" clip-rule="evenodd" d="M127.111 66.9292L124.397 94.0266H95.2842L97.9975 66.9292H127.111Z" stroke="#D6EEFF" stroke-width="3.5"/>
<path fill-rule="evenodd" clip-rule="evenodd" d="M121.024 72.111L119.349 88.8447H101.37L103.046 72.111H121.024Z" fill="#D6EEFF"/>
<path fill-rule="evenodd" clip-rule="evenodd" d="M57.5894 115.798H174.098V96.5125H57.5894V115.798Z" fill="#C3E4FF"/>
<path fill-rule="evenodd" clip-rule="evenodd" d="M60.6001 113.735H79.4092V98.5754H60.6001V113.735Z" fill="#D6EEFF"/>
<path fill-rule="evenodd" clip-rule="evenodd" d="M83.3696 105.017H102.179V98.5754H83.3696V105.017Z" fill="#D6EEFF"/>
<path fill-rule="evenodd" clip-rule="evenodd" d="M83.3696 113.735H102.179V107.293H83.3696V113.735Z" fill="#D6EEFF"/>
<path fill-rule="evenodd" clip-rule="evenodd" d="M151.679 105.017H170.488V98.5754H151.679V105.017Z" fill="#D6EEFF"/>
<path fill-rule="evenodd" clip-rule="evenodd" d="M151.679 113.735H170.488V107.293H151.679V113.735Z" fill="#D6EEFF"/>
<path fill-rule="evenodd" clip-rule="evenodd" d="M106.14 113.735H124.949V98.5754H106.14V113.735Z" fill="#D6EEFF"/>
<path fill-rule="evenodd" clip-rule="evenodd" d="M128.91 113.735H147.719V98.5754H128.91V113.735Z" fill="#D6EEFF"/>
<path fill-rule="evenodd" clip-rule="evenodd" d="M174.099 115.798H189.822V96.5125H174.099V115.798Z" fill="#AAD5FF"/>
<path fill-rule="evenodd" clip-rule="evenodd" d="M55.0688 96.5127H176.019V94.0267H55.0688V96.5127Z" fill="#D6EEFF"/>
<path fill-rule="evenodd" clip-rule="evenodd" d="M176.019 96.5127H192.342V94.0267H176.019V96.5127Z" fill="#AAD5FF"/>
<path d="M174.818 115.798V124.518" stroke="#C3E4FF" stroke-width="7"/>
<path d="M189.113 115.798V124.518" stroke="#C3E4FF" stroke-width="7"/>
<path d="M58.1418 115.798V124.518" stroke="#C3E4FF" stroke-width="7"/>
<path d="M71.7908 115.798V124.518" stroke="#C3E4FF" stroke-width="7"/>
<path fill-rule="evenodd" clip-rule="evenodd" d="M77.9756 85.3306L79.04 74.96H82.3684L83.4329 85.3306C83.5443 86.4174 82.6914 87.3622 81.5987 87.3622H79.8097C78.7171 87.3622 77.8641 86.4174 77.9756 85.3306Z" fill="#D6EEFF"/>
<path fill-rule="evenodd" clip-rule="evenodd" d="M74.8887 99.9084H65.1197C64.3834 99.9084 63.7866 99.3116 63.7866 98.5754H76.2219C76.2219 99.3116 75.6249 99.9084 74.8887 99.9084Z" fill="#AAD5FF"/>
<path fill-rule="evenodd" clip-rule="evenodd" d="M97.6588 99.9084H87.8899C87.1536 99.9084 86.5566 99.3116 86.5566 98.5754H98.9919C98.9919 99.3116 98.3951 99.9084 97.6588 99.9084Z" fill="#AAD5FF"/>
<path fill-rule="evenodd" clip-rule="evenodd" d="M120.729 99.9084H110.96C110.223 99.9084 109.626 99.3116 109.626 98.5754H122.062C122.062 99.3116 121.465 99.9084 120.729 99.9084Z" fill="#AAD5FF"/>
<path fill-rule="evenodd" clip-rule="evenodd" d="M143.199 99.9084H133.43C132.694 99.9084 132.097 99.3116 132.097 98.5754H144.532C144.532 99.3116 143.935 99.9084 143.199 99.9084Z" fill="#AAD5FF"/>
<path fill-rule="evenodd" clip-rule="evenodd" d="M97.6588 108.626H87.8899C87.1536 108.626 86.5566 108.029 86.5566 107.293H98.9919C98.9919 108.029 98.3951 108.626 97.6588 108.626Z" fill="#AAD5FF"/>
<path fill-rule="evenodd" clip-rule="evenodd" d="M165.968 99.9084H156.199C155.463 99.9084 154.866 99.3116 154.866 98.5754H167.301C167.301 99.3116 166.704 99.9084 165.968 99.9084Z" fill="#AAD5FF"/>
<path fill-rule="evenodd" clip-rule="evenodd" d="M165.968 108.626H156.199C155.463 108.626 154.866 108.029 154.866 107.293H167.301C167.301 108.029 166.704 108.626 165.968 108.626Z" fill="#AAD5FF"/>
<path d="M234.807 125.061H1.33301" stroke="#D6EEFF" stroke-width="14" stroke-linecap="round"/>
</g>
<mask id="mask1" mask-type="alpha" maskUnits="userSpaceOnUse" x="84" y="149" width="72" height="2">
<path fill-rule="evenodd" clip-rule="evenodd" d="M84.6431 149.777H155.253V150.74H84.6431V149.777Z" fill="white"/>
</mask>
<g mask="url(#mask1)">
<path fill-rule="evenodd" clip-rule="evenodd" d="M84.6431 150.259C84.6431 150.525 100.45 150.741 119.948 150.741C139.446 150.741 155.253 150.525 155.253 150.259C155.253 149.993 139.446 149.777 119.948 149.777C100.45 149.777 84.6431 149.993 84.6431 150.259Z" fill="#AFB4C8"/>
</g>
<mask id="mask2" mask-type="alpha" maskUnits="userSpaceOnUse" x="82" y="0" width="76" height="98">
<path fill-rule="evenodd" clip-rule="evenodd" d="M82.9785 0H157.221V97.4407H82.9785V0Z" fill="white"/>
</mask>
<g mask="url(#mask2)">
<path fill-rule="evenodd" clip-rule="evenodd" d="M154.955 97.4406H85.2448C83.9983 97.4406 82.9785 96.421 82.9785 95.1748V2.2657C82.9785 1.0195 83.9983 -0.00012207 85.2448 -0.00012207H154.955C156.201 -0.00012207 157.221 1.0195 157.221 2.2657V95.1748C157.221 96.421 156.201 97.4406 154.955 97.4406Z" fill="#007EFF"/>
</g>
<path fill-rule="evenodd" clip-rule="evenodd" d="M102.817 42.306H149.454V40.5016H102.817V42.306Z" fill="white"/>
<path fill-rule="evenodd" clip-rule="evenodd" d="M102.817 46.0791H135.672V44.2747H102.817V46.0791Z" fill="white"/>
<path fill-rule="evenodd" clip-rule="evenodd" d="M102.817 88.9857H134.661V86.5045H102.817V88.9857Z" fill="white"/>
<path fill-rule="evenodd" clip-rule="evenodd" d="M93.0687 39.1793C90.808 39.1793 88.9568 41.0303 88.9568 43.2903C88.9568 45.5504 90.808 47.4014 93.0687 47.4014C95.3294 47.4014 97.1806 45.5504 97.1806 43.2903C97.1806 41.0303 95.3294 39.1793 93.0687 39.1793ZM88.1567 43.2903C88.1567 40.5882 90.3662 38.3792 93.0687 38.3792C95.7711 38.3792 97.9807 40.5882 97.9807 43.2903C97.9807 45.9924 95.7711 48.2015 93.0687 48.2015C90.3662 48.2015 88.1567 45.9924 88.1567 43.2903Z" fill="white"/>
<path fill-rule="evenodd" clip-rule="evenodd" d="M93.0687 69.1669C90.8079 69.1669 88.9568 71.0178 88.9568 73.278C88.9568 75.5381 90.808 77.3891 93.0687 77.3891C95.3294 77.3891 97.1806 75.5381 97.1806 73.278C97.1806 71.0178 95.3294 69.1669 93.0687 69.1669ZM88.1567 73.278C88.1567 70.5758 90.3662 68.3668 93.0687 68.3668C95.7711 68.3668 97.9807 70.5758 97.9807 73.278C97.9807 75.9801 95.7711 78.1892 93.0687 78.1892C90.3662 78.1892 88.1567 75.9801 88.1567 73.278Z" fill="white"/>
<path fill-rule="evenodd" clip-rule="evenodd" d="M93.0687 54.173C90.808 54.173 88.9568 56.024 88.9568 58.2841C88.9568 60.5443 90.8079 62.3952 93.0687 62.3952C95.3294 62.3952 97.1806 60.5443 97.1806 58.2841C97.1806 56.024 95.3294 54.173 93.0687 54.173ZM88.1567 58.2841C88.1567 55.582 90.3662 53.3729 93.0687 53.3729C95.7711 53.3729 97.9807 55.582 97.9807 58.2841C97.9807 60.9863 95.7711 63.1953 93.0687 63.1953C90.3662 63.1953 88.1567 60.9863 88.1567 58.2841Z" fill="white"/>
<path fill-rule="evenodd" clip-rule="evenodd" d="M102.817 57.2999H149.454V55.4954H102.817V57.2999Z" fill="white"/>
<path fill-rule="evenodd" clip-rule="evenodd" d="M102.817 61.0727H135.672V59.2682H102.817V61.0727Z" fill="white"/>
<path fill-rule="evenodd" clip-rule="evenodd" d="M102.817 72.2937H149.454V70.4891H102.817V72.2937Z" fill="white"/>
<path fill-rule="evenodd" clip-rule="evenodd" d="M102.817 76.0666H135.672V74.2621H102.817V76.0666Z" fill="white"/>
<path fill-rule="evenodd" clip-rule="evenodd" d="M98.1881 22.6299L91.9427 29.8512L88.1807 26.8771L88.925 25.9356L91.7862 28.1975L97.2804 21.8448L98.1881 22.6299Z" fill="white"/>
<path fill-rule="evenodd" clip-rule="evenodd" d="M98.1886 7.63617L91.9432 14.8572L88.1812 11.8834L88.9254 10.9418L91.7866 13.2036L97.2809 6.85107L98.1886 7.63617Z" fill="white"/>
<path fill-rule="evenodd" clip-rule="evenodd" d="M102.817 9.39219H149.454V7.11011H102.817V9.39219Z" fill="white"/>
<path fill-rule="evenodd" clip-rule="evenodd" d="M102.817 14.1639H135.672V11.8817H102.817V14.1639Z" fill="white"/>
<path fill-rule="evenodd" clip-rule="evenodd" d="M102.817 24.3862H149.454V22.104H102.817V24.3862Z" fill="white"/>
<path fill-rule="evenodd" clip-rule="evenodd" d="M102.817 29.1577H135.672V26.8756H102.817V29.1577Z" fill="white"/>
<path fill-rule="evenodd" clip-rule="evenodd" d="M148.894 34.8709H91.0308V34.4708H148.894V34.8709Z" fill="#C2C7D0"/>
<path fill-rule="evenodd" clip-rule="evenodd" d="M92.4688 91.2174V84.2729H93.6689V91.2174H92.4688Z" fill="white"/>
<path fill-rule="evenodd" clip-rule="evenodd" d="M96.5419 88.3453H89.5962V87.1451H96.5419V88.3453Z" fill="white"/>
<path fill-rule="evenodd" clip-rule="evenodd" d="M97.633 51.1342L97.9298 50.1813C97.9298 50.1813 98.0972 49.5074 98.1939 48.7573C98.2904 48.007 98.0135 47.0132 98.8549 45.8715C99.6961 44.731 98.2307 45.2775 97.8026 45.8124C97.4459 46.2583 97.2996 47.3607 96.9197 47.6751C96.7145 47.4776 96.5994 47.2616 96.5994 47.2616L93.8624 42.7471C93.8059 42.6042 93.6553 42.5252 93.5097 42.5605L93.3453 42.6016C93.1723 42.6449 93.0744 42.8303 93.1355 43.0017C93.463 43.9283 94.51 46.3159 94.4604 46.3274L92.9561 48.5555C92.9561 48.5555 93.0852 50.0417 93.8252 51.0604C94.1376 51.4921 94.6668 51.975 94.9563 52.2456" fill="#FF77CA"/>
<path fill-rule="evenodd" clip-rule="evenodd" d="M110.266 70.6748C110.266 70.6748 101.02 65.4277 99.1038 63.3553C96.9681 60.3252 94.6187 51.1173 94.6187 51.1173L97.5937 50.8402L102.12 60.4629L112.165 67.0394L110.266 70.6748Z" fill="#FF77CA"/>
<path fill-rule="evenodd" clip-rule="evenodd" d="M125.881 95.1982L123.778 94.3309L125.772 82.9853L122.662 76.4667L127.158 73.8959C127.158 73.8959 129.38 80.1621 129.442 82.2101C129.551 85.7943 125.881 95.1982 125.881 95.1982Z" fill="#FF77CA"/>
<path fill-rule="evenodd" clip-rule="evenodd" d="M128.464 75.1993L122.473 77.2377L120.692 70.1796L125.392 68.7489L128.464 75.1993Z" fill="#FF9200"/>
<path fill-rule="evenodd" clip-rule="evenodd" d="M106.241 62.3234L105.39 69.9824L108.815 71.7053C108.815 71.7053 110.046 74.3999 110.963 75.7976C112.31 77.8521 113.518 83.3162 113.518 83.3162H124.594L124.665 79.0289C124.665 79.0289 127.403 68.807 124.763 67.6514C122.063 66.4686 120.744 66.8129 116.788 66.8189C113.064 66.8252 106.241 62.3234 106.241 62.3234Z" fill="#FFC100"/>
<path fill-rule="evenodd" clip-rule="evenodd" d="M124.063 138.919L118.575 140.835L112.402 99.8794C111.573 94.8709 111.816 89.7435 113.115 84.836L113.518 83.316H121.516L123.211 113.24L124.063 138.919Z" fill="#272636"/>
<path fill-rule="evenodd" clip-rule="evenodd" d="M132.65 140.575L126.91 140.131L123.211 113.24L118.425 83.316H124.594L126.689 86.4426C127.998 88.3979 128.794 90.6501 129.003 92.9939L132.65 140.575Z" fill="#272636"/>
<path fill-rule="evenodd" clip-rule="evenodd" d="M124.421 145.46L120.43 150.272H114.874L118.518 147.761L120.049 143.345L119.989 141.143L123.579 139.306L124.421 145.46Z" fill="#0B096F"/>
<path fill-rule="evenodd" clip-rule="evenodd" d="M123.56 139.66L123.943 141.969L120.048 143.345L119.865 140.933L123.56 139.66Z" fill="#EF3C86"/>
<path fill-rule="evenodd" clip-rule="evenodd" d="M132.891 145.46L128.9 150.272H123.343L126.988 147.761L128.519 143.345L128.458 141.143L132.049 139.306L132.891 145.46Z" fill="#0B096F"/>
<path fill-rule="evenodd" clip-rule="evenodd" d="M131.961 139.114L132.36 141.41L128.523 142.742L128.32 140.345L131.961 139.114Z" fill="#EF3C86"/>
<path fill-rule="evenodd" clip-rule="evenodd" d="M125.261 140.908L117.972 142.253L117.588 140.174L124.878 138.83L125.261 140.908Z" fill="#272636"/>
<path fill-rule="evenodd" clip-rule="evenodd" d="M133.637 140.483L126.348 141.708L125.965 139.814L133.254 138.589L133.637 140.483Z" fill="#272636"/>
<path fill-rule="evenodd" clip-rule="evenodd" d="M125.855 59.9511C124.71 63.6608 120.773 65.7397 117.064 64.5942C113.613 63.5289 111.573 60.0495 112.227 56.5839C112.275 56.3234 112.34 56.063 112.42 55.8035C113.024 53.8494 114.402 52.3478 116.113 51.532C117.649 50.7989 119.456 50.6195 121.212 51.1613C124.922 52.3068 127.001 56.2424 125.855 59.9511Z" fill="#25003F"/>
<path fill-rule="evenodd" clip-rule="evenodd" d="M129.035 53.2728C128.4 55.3287 126.218 56.4809 124.162 55.846C122.106 55.2112 120.954 53.0299 121.589 50.9738C122.223 48.9179 124.405 47.766 126.461 48.4008C128.518 49.0355 129.67 51.2169 129.035 53.2728Z" fill="#25003F"/>
<path fill-rule="evenodd" clip-rule="evenodd" d="M112.512 58.7557L110.496 60.9637L111.706 61.4354L112.512 58.7557Z" fill="#285FD7"/>
<path fill-rule="evenodd" clip-rule="evenodd" d="M114.883 65.7982C114.883 65.7982 111.841 64.4852 111.485 63.3153C110.48 60.0212 115.236 53.5612 115.236 53.5612L120.975 60.5775C120.975 60.5775 120.061 67.466 120.038 67.466C120.021 67.466 114.944 67.4056 114.944 67.4056L114.883 65.7982Z" fill="#FF77CA"/>
<path fill-rule="evenodd" clip-rule="evenodd" d="M112.356 58.7711C112.207 59.0711 112.258 59.3978 112.469 59.5007C112.68 59.6036 112.971 59.4436 113.12 59.1436C113.268 58.8436 113.217 58.5169 113.006 58.4142C112.795 58.3113 112.504 58.4711 112.356 58.7711Z" fill="#0B096F"/>
<path fill-rule="evenodd" clip-rule="evenodd" d="M121.26 61.3815C119.449 62.6852 117.004 62.509 115.282 61.104C115.144 60.9936 115.013 60.8754 114.886 60.7478C114.68 60.5456 114.489 60.3211 114.315 60.0791C112.664 57.7868 113.096 54.654 115.282 53.0807C115.492 52.9293 115.71 52.7977 115.935 52.6872C118.052 51.6352 120.737 52.3094 122.229 54.3815C123.864 56.6522 123.453 59.7471 121.322 61.3348C121.302 61.3512 121.281 61.3664 121.26 61.3815Z" fill="#25003F"/>
<path fill-rule="evenodd" clip-rule="evenodd" d="M122.776 74.4004L114.559 74.5507L114.238 58.0967L126.17 57.8785L126.414 70.3686C126.456 72.5578 124.828 74.3628 122.776 74.4004Z" fill="#25003F"/>
<path fill-rule="evenodd" clip-rule="evenodd" d="M121.211 92.2933L122.071 94.7724L123.222 113.305L121.211 92.2933Z" fill="#0D0D11"/>
<path fill-rule="evenodd" clip-rule="evenodd" d="M114.211 60.8308C114.211 60.8308 114.059 59.3186 115.123 59.3202C115.916 59.3213 116.13 60.0755 116.129 60.5112C116.127 61.9823 114.526 62.2039 113.966 63.2686" fill="#FF77CA"/>
<path d="M111.352 62.3705C111.352 62.3705 111.7 62.4662 112.105 61.9608" stroke="#0C245F" stroke-width="2.1"/>
</svg>
