<svg width="234" height="130" viewBox="0 0 234 130" fill="none" xmlns="http://www.w3.org/2000/svg">
<path fill-rule="evenodd" clip-rule="evenodd" d="M208.761 68.047C208.761 82.384 199.405 90.3824 187.219 90.3824C175.033 90.3824 165.677 82.384 165.677 68.047C165.677 37.861 179.426 3.0611 187.219 3.0611C195.011 3.0611 208.761 37.861 208.761 68.047" fill="#C3E4FF"/>
<path d="M187.219 46.7218V112.896" stroke="#E8F6FF" stroke-width="10.5" stroke-linecap="square"/>
<path d="M193.128 80.7538L197.891 75.9907" stroke="#E8F6FF" stroke-width="7" stroke-linecap="square"/>
<path d="M193.128 53.9027L197.891 49.1397" stroke="#E8F6FF" stroke-width="7" stroke-linecap="square"/>
<path fill-rule="evenodd" clip-rule="evenodd" d="M180.536 60.58C180.536 77.0306 167.201 90.3662 150.752 90.3662C134.302 90.3662 120.967 77.0306 120.967 60.58C120.967 44.1297 134.302 30.7939 150.752 30.7939C167.201 30.7939 180.536 44.1297 180.536 60.58" fill="#E8F6FF"/>
<path d="M150.752 54.8051V112.895" stroke="#AAD5FF" stroke-width="10.5" stroke-linecap="square"/>
<path d="M157.814 80.8689L162.577 76.1058" stroke="#AAD5FF" stroke-width="8.4" stroke-linecap="square"/>
<path d="M157.814 59.5127L162.577 54.7498" stroke="#AAD5FF" stroke-width="8.4" stroke-linecap="square"/>
<path d="M143.689 70.6781L138.927 65.915" stroke="#AAD5FF" stroke-width="8.4" stroke-linecap="square"/>
<path d="M143.689 60L138.927 55.2369" stroke="#AAD5FF" stroke-width="8.4" stroke-linecap="square"/>
<path fill-rule="evenodd" clip-rule="evenodd" d="M109.367 84.6572C109.367 98.8402 100.106 105.205 88.7273 105.205C77.3499 105.205 68.089 98.8402 68.089 84.6572C68.089 58.2374 79.3525 33.5651 88.7273 33.5651C98.1034 33.5651 109.367 58.2374 109.367 84.6572" fill="#E8F6FF"/>
<path d="M88.728 61.6943V112.896" stroke="#C3E4FF" stroke-width="10.5" stroke-linecap="square"/>
<path d="M93.3478 90.2469L98.1105 85.4838" stroke="#C3E4FF" stroke-width="7" stroke-linecap="square"/>
<path d="M93.3478 67.3888L98.1105 62.6257" stroke="#C3E4FF" stroke-width="7" stroke-linecap="square"/>
<path d="M84.849 90.2503L80.0228 85.4238" stroke="#C3E4FF" stroke-width="7" stroke-linecap="square"/>
<path d="M84.5104 78.9687L79.6842 74.1422" stroke="#C3E4FF" stroke-width="7" stroke-linecap="square"/>
<path fill-rule="evenodd" clip-rule="evenodd" d="M177.64 112.614L123.936 112.896C120.87 109.001 113.732 99.2478 116.605 96.3663C118.496 94.4708 124.161 100.571 125.691 98.7406C127.221 96.9114 117.175 85.5072 119.726 83.8999C124.221 81.0677 138.685 101.395 140.552 99.7591C142.515 98.0388 133.291 86.0853 136.541 84.8189C140.325 83.345 150.344 101.625 153.239 99.7591C154.755 98.7808 151.811 92.8212 154 91.8028C157.809 90.028 164.165 107.241 166.867 105.708C168.145 104.981 166.707 102.494 168.624 101.875C170.965 101.12 175.682 109.082 177.64 112.614" fill="#C3E4FF"/>
<path fill-rule="evenodd" clip-rule="evenodd" d="M203.229 105.736C203.15 105.841 200.765 109.023 200.466 111.953H196.275C198.254 108.02 203.12 105.785 203.229 105.736" fill="#C3E4FF"/>
<path fill-rule="evenodd" clip-rule="evenodd" d="M17.0804 106.255C17.1593 106.36 19.5437 109.542 19.8428 112.472H24.0346C22.0557 108.539 17.1893 106.304 17.0804 106.255" fill="#D6EEFF"/>
<path fill-rule="evenodd" clip-rule="evenodd" d="M108.213 106.346C108.292 106.452 110.676 109.633 110.975 112.564H115.167C113.188 108.631 108.322 106.395 108.213 106.346" fill="#D6EEFF"/>
<path fill-rule="evenodd" clip-rule="evenodd" d="M217.017 108.297C216.962 108.372 215.754 109.982 214.944 111.953H211.909C214.127 109.624 216.934 108.333 217.017 108.297" fill="#D6EEFF"/>
<path fill-rule="evenodd" clip-rule="evenodd" d="M43.9298 112.472H39.4889C39.4629 109.282 37.8255 105.128 37.8255 105.128C37.8255 105.128 42.6982 109.107 43.9298 112.472" fill="#D6EEFF"/>
<path fill-rule="evenodd" clip-rule="evenodd" d="M45.2642 112.472C46.3375 110.2 46.402 108.37 46.402 108.37C46.402 108.37 48.5085 110.66 49.4059 112.472H45.2642Z" fill="#D6EEFF"/>
<path fill-rule="evenodd" clip-rule="evenodd" d="M188.77 93.9122C188.707 94.1049 185.241 103.666 184.907 111.953H179.31C179.643 108.211 177.974 103.692 177.974 103.692C177.974 103.692 180.953 105.977 181.723 109.238C181.723 109.238 184.034 98.8431 188.77 93.9122" fill="#D6EEFF"/>
<path fill-rule="evenodd" clip-rule="evenodd" d="M193.787 104.154C193.787 104.154 190.512 108.5 189.637 111.953H186.592C187.631 109.821 190.124 105.499 193.787 104.154" fill="#D6EEFF"/>
<path fill-rule="evenodd" clip-rule="evenodd" d="M220.22 91.8202C220.22 99.1012 216.751 105.714 208.898 105.714C201.044 105.714 197.575 99.1012 197.575 91.8202C197.575 83.279 203.51 74.7855 208.898 74.7855C214.285 74.7855 220.22 83.279 220.22 91.8202" fill="#E8F6FF"/>
<path d="M208.898 91.1404V112.896" stroke="#D6EEFF" stroke-width="10.5" stroke-linecap="square"/>
<path d="M212.809 93.5757L216.057 90.3824" stroke="#D6EEFF" stroke-width="6.3" stroke-linecap="square"/>
<path d="M205.35 96.9136L201.383 93.3318" stroke="#D6EEFF" stroke-width="6.3" stroke-linecap="square"/>
<mask id="mask0" mask-type="alpha" maskUnits="userSpaceOnUse" x="23" y="0" width="52" height="102">
<path fill-rule="evenodd" clip-rule="evenodd" d="M23.8501 0H74.9612V101.377H23.8501V0Z" fill="white"/>
</mask>
<g mask="url(#mask0)">
<path fill-rule="evenodd" clip-rule="evenodd" d="M29.4072 57.9514C28.615 55.5794 24.2731 55.9809 24.2724 49.3668C24.2713 39.408 37.986 40.5447 38.7947 33.0411C39.6035 25.5375 30.7906 25.7169 30.5178 19.388C30.2449 13.059 36.9461 -0.00012207 47.1133 -0.00012207C55.1303 -0.00012207 48.4902 10.0763 54.9603 14.5825C61.4303 19.0886 68.82 13.3157 72.4772 20.4016C77.5149 30.1622 64.6331 41.8844 65.904 49.3668C67.175 56.8494 74.7265 55.0802 74.9576 63.3017C75.1887 71.5232 64.2191 72.9701 65.2526 80.0199C65.904 84.4639 72.8462 82.9802 73.2104 91.743C73.5187 99.1623 49.6664 108.343 31.7488 93.245C13.831 78.1475 32.4308 67.0046 29.4072 57.9514" fill="#C3E4FF"/>
</g>
<path d="M49.0305 39.9805V112.896" stroke="#E8F6FF" stroke-width="10.5" stroke-linecap="square"/>
<path d="M56.1061 86.604L60.869 81.8411" stroke="#E8F6FF" stroke-width="8.4" stroke-linecap="square"/>
<path d="M54.6543 60.996L59.4171 56.233" stroke="#E8F6FF" stroke-width="8.4" stroke-linecap="square"/>
<path d="M54.6543 48.1921L59.4171 43.429" stroke="#E8F6FF" stroke-width="8.4" stroke-linecap="square"/>
<path d="M42.1581 48.1921L37.3954 43.429" stroke="#E8F6FF" stroke-width="8.4" stroke-linecap="square"/>
<path d="M68.1932 112.179C68.1932 112.179 63.9569 102.658 57.5639 98.1211" stroke="#AAD5FF" stroke-width="6.3" stroke-linecap="square"/>
<path d="M70.3214 112.472C70.3214 112.472 69.6281 98.0649 74.8658 92.7809" stroke="#AAD5FF" stroke-width="6.3" stroke-linecap="square"/>
<path fill-rule="evenodd" clip-rule="evenodd" d="M70.9079 92.7809C70.9079 94.5666 72.3554 96.0142 74.1411 96.0142C75.9267 96.0142 77.3743 94.5666 77.3743 92.7809C77.3743 90.9951 75.9267 89.5475 74.1411 89.5475C72.3554 89.5475 70.9079 90.9951 70.9079 92.7809" fill="#AAD5FF"/>
<path fill-rule="evenodd" clip-rule="evenodd" d="M55.5459 99.4958C55.5459 101.282 56.9934 102.729 58.7791 102.729C60.5647 102.729 62.0123 101.282 62.0123 99.4958C62.0123 97.71 60.5647 96.2624 58.7791 96.2624C56.9934 96.2624 55.5459 97.71 55.5459 99.4958" fill="#AAD5FF"/>
<path d="M128.538 111.676C128.538 111.676 128.049 105.15 131.698 97.5216" stroke="#AAD5FF" stroke-width="6.3" stroke-linecap="square"/>
<path d="M126.496 112.343C126.496 112.343 123.371 98.6578 115.27 91.9792" stroke="#AAD5FF" stroke-width="6.3" stroke-linecap="square"/>
<path fill-rule="evenodd" clip-rule="evenodd" d="M118.349 90.5656C118.666 92.323 117.499 94.0049 115.741 94.3222C113.984 94.6396 112.302 93.4724 111.985 91.7152C111.668 89.9579 112.835 88.276 114.592 87.9585C116.349 87.6411 118.031 88.8083 118.349 90.5656" fill="#AAD5FF"/>
<path fill-rule="evenodd" clip-rule="evenodd" d="M135.763 94.5481C136.08 96.3053 134.913 97.9873 133.156 98.3047C131.399 98.622 129.717 97.4548 129.399 95.6975C129.082 93.9402 130.249 92.2583 132.007 91.9409C133.764 91.6235 135.446 92.7908 135.763 94.5481" fill="#AAD5FF"/>
<path fill-rule="evenodd" clip-rule="evenodd" d="M81.4672 96.3602C81.3646 96.4959 74.7684 105.159 74.5995 111.947H69.2725C69.9859 109.737 73.0787 101.652 81.4672 96.3602" fill="#C3E4FF"/>
<path fill-rule="evenodd" clip-rule="evenodd" d="M66.4041 111.953H62.1598C61.3205 108.763 58.7791 106.774 58.7791 106.774C58.7791 106.774 63.8257 107.761 66.4041 111.953" fill="#C3E4FF"/>
<path fill-rule="evenodd" clip-rule="evenodd" d="M144.394 103.543C144.487 103.66 146.474 108.231 146.238 112.563H153.234C153.368 110.195 154.87 106.806 154.87 106.806C154.87 106.806 151.789 108.053 149.706 111.616C149.706 111.616 148.13 105.188 144.394 103.543" fill="#D6EEFF"/>
<path fill-rule="evenodd" clip-rule="evenodd" d="M133.427 105.592C133.344 105.752 131.66 108.671 131.216 112.082L124.546 112.767C124.092 109.734 123.111 108.045 123.111 108.045C123.111 108.045 125.912 108.86 127.407 111.241C127.407 111.241 129.14 107.577 133.427 105.592" fill="#D6EEFF"/>
<path fill-rule="evenodd" clip-rule="evenodd" d="M44.5019 82.3403C44.5019 93.9485 39.7006 104.492 28.8301 104.492C17.9595 104.492 13.1582 93.9485 13.1582 82.3403C13.1582 68.7229 21.3728 55.1821 28.8301 55.1821C36.2874 55.1821 44.5019 68.7229 44.5019 82.3403" fill="#E8F6FF"/>
<path d="M28.8298 79.8369V112.896" stroke="#D6EEFF" stroke-width="10.5" stroke-linecap="square"/>
<path d="M33.3879 83.8686L37.6298 79.1057" stroke="#D6EEFF" stroke-width="7" stroke-linecap="square"/>
<path d="M24.2717 93.6556L20.0299 88.8925" stroke="#D6EEFF" stroke-width="7" stroke-linecap="square"/>
<path d="M24.2717 84.0644L20.0299 79.3013" stroke="#D6EEFF" stroke-width="7" stroke-linecap="square"/>
<path d="M226.211 112.896H7" stroke="#D6EEFF" stroke-width="14" stroke-linecap="round"/>
<path fill-rule="evenodd" clip-rule="evenodd" d="M190.761 129.037C190.761 129.287 178.295 129.489 162.917 129.489C147.539 129.489 135.072 129.287 135.072 129.037C135.072 128.787 147.539 128.584 162.917 128.584C178.295 128.584 190.761 128.787 190.761 129.037" fill="#AFB4C8"/>
<path fill-rule="evenodd" clip-rule="evenodd" d="M144.886 106.235H179.78C181.734 106.235 183.371 104.757 183.571 102.814L191.452 26.2047C191.683 23.9576 189.92 22.0037 187.662 22.0037H152.769C150.815 22.0037 149.178 23.4812 148.978 25.4246L141.096 102.034C140.864 104.281 142.628 106.235 144.886 106.235" fill="#1F2430"/>
<path fill-rule="evenodd" clip-rule="evenodd" d="M187.067 26.2041L179.185 102.813C178.985 104.757 177.348 106.234 175.394 106.234H140.501C138.241 106.234 136.478 104.28 136.709 102.034L144.592 25.4243C144.791 23.4804 146.428 22.0034 148.382 22.0034H183.276C185.535 22.0034 187.297 23.9573 187.067 26.2041" fill="#5B6A76"/>
<path fill-rule="evenodd" clip-rule="evenodd" d="M142.216 103.09H173.981C175.309 103.09 176.421 102.086 176.557 100.766L184.068 27.7526C184.225 26.2256 183.027 24.8979 181.492 24.8979H149.729C148.401 24.8979 147.288 25.9019 147.153 27.2225L139.64 100.236C139.483 101.763 140.681 103.09 142.216 103.09" fill="white"/>
<path fill-rule="evenodd" clip-rule="evenodd" d="M192.216 34.7637L191.71 39.6819H188.128L188.633 34.7637H192.216Z" stroke="#5B6A76" stroke-width="3.5"/>
<path fill-rule="evenodd" clip-rule="evenodd" d="M191.477 43.0894L190.971 48.0076H187.388L187.894 43.0894H191.477Z" stroke="#5B6A76" stroke-width="3.5"/>
<path fill-rule="evenodd" clip-rule="evenodd" d="M176.519 22.4292L176.102 26.4847C175.963 27.8341 174.827 28.8605 173.471 28.8605H158.326C156.759 28.8605 155.535 27.5036 155.695 25.944L156.057 22.4292H176.519Z" fill="#5B6A76"/>
<path fill-rule="evenodd" clip-rule="evenodd" d="M168.666 26.1823H161.897C161.617 26.1823 161.387 25.9528 161.387 25.672C161.387 25.3914 161.617 25.1617 161.897 25.1617H168.666C168.946 25.1617 169.176 25.3914 169.176 25.672C169.176 25.9528 168.946 26.1823 168.666 26.1823" fill="black"/>
<path fill-rule="evenodd" clip-rule="evenodd" d="M171.913 25.6721C171.913 26.1419 171.532 26.5228 171.062 26.5228C170.592 26.5228 170.211 26.1419 170.211 25.6721C170.211 25.2024 170.592 24.8216 171.062 24.8216C171.532 24.8216 171.913 25.2024 171.913 25.6721" fill="black"/>
<path fill-rule="evenodd" clip-rule="evenodd" d="M179.994 38.4776L177.702 60.7625C177.597 61.7834 176.736 62.5596 175.71 62.5596H148.805C147.618 62.5596 146.692 61.5331 146.813 60.3527L149.106 38.0753C149.211 37.0546 150.071 36.2786 151.097 36.2783L178.002 36.2707C179.189 36.2703 180.116 37.2968 179.994 38.4776" fill="#E8F6FF"/>
<path fill-rule="evenodd" clip-rule="evenodd" d="M176.01 76.3002L173.717 98.5853C173.612 99.6062 172.752 100.382 171.725 100.382H144.82C143.633 100.382 142.707 99.3558 142.828 98.1752L145.121 75.898C145.226 74.8773 146.086 74.1012 147.112 74.101L174.018 74.0933C175.204 74.0929 176.131 75.1195 176.01 76.3002" fill="#E8F6FF"/>
<path fill-rule="evenodd" clip-rule="evenodd" d="M151.048 27.0302C151.048 27.5938 150.591 28.0508 150.028 28.0508C149.464 28.0508 149.007 27.5938 149.007 27.0302C149.007 26.4665 149.464 26.0095 150.028 26.0095C150.591 26.0095 151.048 26.4665 151.048 27.0302" fill="#D6E1E6"/>
<path fill-rule="evenodd" clip-rule="evenodd" d="M153.859 27.0302C153.859 27.5938 153.403 28.0508 152.839 28.0508C152.275 28.0508 151.818 27.5938 151.818 27.0302C151.818 26.4665 152.275 26.0095 152.839 26.0095C153.403 26.0095 153.859 26.4665 153.859 27.0302" fill="#D6E1E6"/>
<path fill-rule="evenodd" clip-rule="evenodd" d="M182.33 27.0302C182.33 27.5938 181.873 28.0508 181.309 28.0508C180.746 28.0508 180.289 27.5938 180.289 27.0302C180.289 26.4665 180.746 26.0095 181.309 26.0095C181.873 26.0095 182.33 26.4665 182.33 27.0302" fill="#D6E1E6"/>
<path fill-rule="evenodd" clip-rule="evenodd" d="M142.626 37.3849L142.55 37.4604V40.3161C142.55 42.8319 143.669 44.5133 145.878 44.8718C146.246 44.9316 147.512 44.9653 148.57 44.9834C148.843 44.9882 148.86 44.6145 148.598 44.5379C146.464 43.9146 145.878 41.9759 145.878 40.3161V37.4604L145.802 37.3849H142.626Z" fill="#49ADFF"/>
<path fill-rule="evenodd" clip-rule="evenodd" d="M174.766 88.3848L173.716 98.5848C173.611 99.6062 172.751 100.382 171.725 100.382H162.339C161.107 98.8865 160.368 96.969 160.368 94.8799C160.368 90.0945 164.246 86.2156 169.031 86.2156C171.232 86.2156 173.238 87.0355 174.766 88.3848" fill="#D0E1E9"/>
<path fill-rule="evenodd" clip-rule="evenodd" d="M159.218 86.8044C159.673 90.5579 157 93.9697 153.246 94.4247C149.493 94.8798 146.081 92.2058 145.626 88.4522C145.171 84.6987 147.845 81.2869 151.598 80.8319C155.352 80.3769 158.763 83.051 159.218 86.8044" fill="#D0E1E9"/>
<path fill-rule="evenodd" clip-rule="evenodd" d="M165.557 79.6953C163.095 81.2252 162.34 84.4612 163.869 86.9232C165.399 89.3852 168.635 90.1408 171.097 88.611L165.557 79.6953Z" fill="#BCCED4"/>
<path fill-rule="evenodd" clip-rule="evenodd" d="M152.487 82.5C154.09 83.7566 156.408 83.4756 157.665 81.8723C158.921 80.2691 158.64 77.9507 157.037 76.6941L152.487 82.5Z" fill="#BCCED4"/>
<path fill-rule="evenodd" clip-rule="evenodd" d="M118.97 42.7451H147.464C148.88 42.7451 150.028 41.5971 150.028 40.1811V32.5038C150.028 31.0876 148.88 29.9396 147.464 29.9396H118.97C117.554 29.9396 116.407 31.0876 116.407 32.5038V40.1811C116.407 41.5971 117.554 42.7451 118.97 42.7451" fill="#49ADFF"/>
<path fill-rule="evenodd" clip-rule="evenodd" d="M169.199 31.7776C169.199 34.2449 167.199 36.2452 164.731 36.2452C162.264 36.2452 160.264 34.2449 160.264 31.7776C160.264 29.3102 162.264 27.31 164.731 27.31C167.199 27.31 169.199 29.3102 169.199 31.7776" fill="#25003F"/>
<path fill-rule="evenodd" clip-rule="evenodd" d="M168.591 42.1092C168.591 42.1618 168.591 42.2131 168.59 42.2657C168.506 47.0535 164.601 50.9075 159.795 50.9075C155.902 50.9075 152.602 48.3815 151.441 44.878C151.34 44.5713 151.255 44.2572 151.187 43.9355C151.073 43.396 151.008 42.8377 150.998 42.2657C150.997 42.2131 150.997 42.1618 150.997 42.1092C150.997 40.0314 151.717 38.1213 152.922 36.6155C153.146 36.3351 153.387 36.0698 153.644 35.8194C155.23 34.2673 157.399 33.3123 159.795 33.3123C164.652 33.3123 168.591 37.2514 168.591 42.1092" fill="#25003F"/>
<path fill-rule="evenodd" clip-rule="evenodd" d="M129.674 55.9255L149.371 55.0085L156.097 48.888L128.924 53.0567C128.924 53.0567 128.689 52.4242 128.35 51.7717C128.011 51.1192 127.21 50.4882 127.3 49.0959C127.389 47.7038 126.421 48.9826 126.349 49.6543C126.278 50.326 127.004 51.5773 126.452 51.8601C125.9 52.1428 124.356 52.1172 124.014 52.4903C123.671 52.8634 123.812 53.6794 124.076 53.8213C124.076 53.8213 123.733 54.8276 124.409 55.4508C124.409 55.4508 124.465 56.1659 125.123 56.4458C125.123 56.4458 125.362 57.1544 126.078 57.0696C126.793 56.9849 128.411 56.3955 129.674 55.9255" fill="#FF77CA"/>
<path fill-rule="evenodd" clip-rule="evenodd" d="M150.997 53.8578H168.592V42.2658H150.997V53.8578Z" fill="#25003F"/>
<path fill-rule="evenodd" clip-rule="evenodd" d="M176.261 51.2492L173.084 58.7983C173.084 58.7983 172.69 61.3054 170.139 62.5596H162.638C156.691 60.5781 154.252 55.1395 154.252 55.1395L145.791 59.1956V49.9878C145.791 49.9878 159.533 48.0337 159.444 47.9822C159.321 47.9121 167.885 47.4365 169.58 47.6269C171.274 47.817 176.261 51.2492 176.261 51.2492" fill="#49A2FF"/>
<path fill-rule="evenodd" clip-rule="evenodd" d="M155.503 48.5974C155.503 48.5974 154.814 49.0236 154.399 49.9395C153.855 51.1371 153.841 52.8337 153.975 53.9577C154.059 54.6652 154.252 55.1394 154.252 55.1394C154.252 55.1394 146.418 58.919 145.791 59.1956V49.9878C146.704 49.8551 155.503 48.5974 155.503 48.5974" fill="#285FD7"/>
<path fill-rule="evenodd" clip-rule="evenodd" d="M178.118 56.7029L177.702 60.7621C177.596 61.7835 176.737 62.5596 175.71 62.5596H166.651L165.285 63.4514C165.285 63.4514 165.31 64.6642 165.426 65.5311C165.485 65.9782 164.932 66.2571 164.932 66.2571C164.932 66.2571 164.791 66.6814 164.432 66.7703C164.135 66.8442 163.888 66.3006 163.816 66.1068C164.206 67.1552 163.581 67.425 163.392 67.3999C163.199 67.3736 163.121 67.092 163.121 67.092C163.121 67.092 162.737 67.2585 162.14 66.6426C161.543 66.0256 161.299 64.1255 161.321 63.4683C161.329 63.2393 161.498 62.9063 161.714 62.5596C161.733 62.5295 161.752 62.4983 161.772 62.4682C162.169 61.8486 162.685 61.2103 162.685 61.0626L173.083 58.7982L175.285 53.5686L178.118 56.7029Z" fill="#FF77CA"/>
<path fill-rule="evenodd" clip-rule="evenodd" d="M161.864 45.8193C161.386 46.5441 161.584 47.4979 161.858 48.0549C161.95 48.2464 162.053 48.3916 162.141 48.4642C162.481 48.7458 160.298 50.8262 160.298 50.8262L158.377 48.7133C157.17 48.7809 155.916 48.6958 155.138 48.2076C152.818 46.7531 152.673 41.6987 152.711 41.4459L154.651 39.3868C154.651 39.3868 157.579 38.1027 158.026 38.6458C158.843 39.6411 160.759 44.0956 162.141 43.5851C162.141 43.5851 161.964 42.1994 163.187 42.1994C164.098 42.1994 164.346 42.8904 164.346 43.2897C164.346 44.6377 162.506 44.843 161.864 45.8193" fill="#FF77CA"/>
<path fill-rule="evenodd" clip-rule="evenodd" d="M155.482 44.3278L154.612 46.3315L155.625 46.3108L155.482 44.3278Z" fill="#285FD7"/>
<path fill-rule="evenodd" clip-rule="evenodd" d="M156.412 44.3116C156.434 44.7116 156.683 45.0229 156.968 45.007C157.253 44.991 157.466 44.6538 157.444 44.2539C157.421 43.8539 157.172 43.5424 156.887 43.5585C156.602 43.5743 156.389 43.9116 156.412 44.3116" fill="#0B096F"/>
<path fill-rule="evenodd" clip-rule="evenodd" d="M153.735 44.2515C153.757 44.6515 154.006 44.9628 154.291 44.9469C154.576 44.9309 154.789 44.5937 154.767 44.1938C154.744 43.7937 154.495 43.4823 154.21 43.4983C153.925 43.5142 153.712 43.8514 153.735 44.2515" fill="#0B096F"/>
<path fill-rule="evenodd" clip-rule="evenodd" d="M155.314 39.3632C155.314 39.9164 155.216 40.4484 155.037 40.9416C155.014 41.0029 154.99 41.0667 154.962 41.1281C154.789 41.5411 154.559 41.9241 154.281 42.2659C153.532 43.1859 152.432 43.8092 151.187 43.9356C151.123 43.9419 151.061 43.9469 150.997 43.9494V42.2659H150.998C150.997 42.2133 150.997 42.162 150.997 42.1094C150.997 40.0316 151.717 38.1215 152.922 36.6157C153.146 36.3353 153.387 36.0699 153.644 35.8196C154.227 36.3015 154.689 36.9248 154.978 37.6383C155.195 38.1703 155.314 38.7523 155.314 39.3632" fill="#25003F"/>
<path fill-rule="evenodd" clip-rule="evenodd" d="M162.14 39.2561C162.14 40.4586 160.99 41.4722 159.418 41.7829C159.294 41.8083 159.167 41.8286 159.037 41.8438C158.829 41.8704 158.614 41.8831 158.396 41.8831C156.327 41.8831 154.651 40.7073 154.651 39.2561C154.651 39.1165 154.666 38.9796 154.697 38.8464C154.977 37.5893 156.526 36.6277 158.396 36.6277C160.444 36.6277 162.108 37.7822 162.139 39.2143C162.14 39.2282 162.14 39.2422 162.14 39.2561" fill="#25003F"/>
<path fill-rule="evenodd" clip-rule="evenodd" d="M155.625 47.0902C155.625 47.0902 156.8 47.1993 156.8 46.3841Z" fill="white"/>
<path fill-rule="evenodd" clip-rule="evenodd" d="M162.517 48.3361C163.177 48.9127 163.22 49.9435 162.613 50.6384C162.007 51.3334 160.837 51.4617 160.298 50.8262C159.731 50.1578 159.616 49.2454 160.223 48.5504C160.83 47.8555 161.857 47.7596 162.517 48.3361" fill="#FF77CA"/>
<path fill-rule="evenodd" clip-rule="evenodd" d="M164.843 54.3435H161.58V46.6967H168.591V50.5945C168.591 52.665 166.913 54.3435 164.843 54.3435" fill="#25003F"/>
<path fill-rule="evenodd" clip-rule="evenodd" d="M158.377 48.7132C158.377 48.7132 159.66 48.5209 160.31 48.1839L159.089 49.4967L158.377 48.7132Z" fill="#EF3C86"/>
<path fill-rule="evenodd" clip-rule="evenodd" d="M145.791 50.4691V55.1753L145.194 55.2029L145.441 50.5227L145.791 50.4691Z" fill="#EF3C86"/>
<path fill-rule="evenodd" clip-rule="evenodd" d="M173.083 58.7982L174.22 58.5023L175.285 53.5686L173.083 58.7982Z" fill="#EF3C86"/>
<path fill-rule="evenodd" clip-rule="evenodd" d="M168.469 54.3436L171.882 59.0599L170.094 59.4492L168.469 54.3436Z" fill="#285FD7"/>
<path fill-rule="evenodd" clip-rule="evenodd" d="M126.575 52.3928C126.64 52.3688 126.712 52.402 126.736 52.4669C126.827 52.7122 126.693 52.9388 126.579 53.0782C126.564 53.096 126.549 53.1131 126.534 53.1294C126.545 53.1324 126.555 53.1357 126.566 53.1393C126.744 53.1985 126.949 53.3338 127.04 53.6253C127.127 53.9044 126.989 54.1413 126.859 54.2908C126.851 54.2999 126.843 54.3088 126.835 54.3174C126.845 54.3193 126.855 54.3214 126.866 54.3237C127.066 54.368 127.311 54.4884 127.412 54.7912C127.522 55.1209 127.388 55.3789 127.23 55.5489C127.316 55.5599 127.405 55.5853 127.488 55.6358C127.602 55.7054 127.692 55.8173 127.739 55.9804C127.784 56.1373 127.768 56.2754 127.713 56.3915C127.66 56.5047 127.573 56.5883 127.489 56.6483C127.404 56.7085 127.316 56.7491 127.25 56.7744C127.216 56.7873 127.188 56.7965 127.168 56.8027C127.158 56.8057 127.149 56.8081 127.143 56.8097C127.14 56.8105 127.138 56.8111 127.136 56.8115L127.134 56.8121L127.133 56.8123L127.133 56.8123L127.133 56.8124C127.133 56.8124 127.133 56.8124 127.103 56.6907L127.133 56.8124C127.066 56.8286 126.998 56.7873 126.982 56.7201C126.966 56.653 127.007 56.5854 127.074 56.569C127.074 56.569 127.074 56.569 127.074 56.569C127.074 56.569 127.074 56.569 127.074 56.569C127.074 56.569 127.074 56.569 127.074 56.569C127.074 56.569 127.074 56.569 127.074 56.569C127.074 56.569 127.074 56.569 127.074 56.569C127.074 56.569 127.074 56.569 127.074 56.569C127.074 56.569 127.074 56.569 127.074 56.569L127.074 56.5689L127.078 56.5679C127.082 56.5669 127.088 56.5652 127.095 56.5629C127.111 56.5583 127.133 56.551 127.16 56.5408C127.213 56.52 127.281 56.4884 127.344 56.4441C127.407 56.3996 127.458 56.3464 127.487 56.2846C127.515 56.2257 127.527 56.1503 127.498 56.0494L127.498 56.0494C127.468 55.9437 127.415 55.8848 127.357 55.8493C127.296 55.8119 127.22 55.795 127.138 55.7925C127.056 55.7901 126.977 55.802 126.916 55.8153C126.886 55.8219 126.862 55.8286 126.845 55.8335C126.837 55.8359 126.831 55.838 126.827 55.8393L126.823 55.8407L126.822 55.8408L126.822 55.8409C126.822 55.8409 126.822 55.8409 126.822 55.8394L126.73 55.61C126.729 55.6085 126.729 55.6085 126.729 55.6085L126.729 55.6085L126.73 55.6082L126.734 55.6062C126.738 55.6043 126.745 55.6012 126.753 55.5969C126.77 55.5885 126.794 55.5755 126.822 55.5581C126.88 55.5231 126.954 55.4717 127.021 55.4053C127.155 55.2728 127.25 55.0975 127.174 54.8704L127.174 54.8704C127.111 54.682 126.963 54.6018 126.811 54.5682C126.735 54.5514 126.663 54.5476 126.608 54.5483C126.581 54.5486 126.56 54.5501 126.545 54.5513C126.538 54.552 126.532 54.5526 126.529 54.553L126.525 54.5534L126.525 54.5534C126.525 54.5534 126.525 54.5534 126.525 54.5531L126.442 54.3228C126.442 54.3226 126.442 54.3226 126.442 54.3226L126.442 54.3225L126.442 54.3223L126.446 54.3202C126.449 54.3182 126.454 54.315 126.46 54.3106C126.473 54.3019 126.492 54.2887 126.514 54.2715C126.559 54.2367 126.617 54.187 126.67 54.1261C126.78 54.0004 126.849 53.8538 126.801 53.6996L126.916 53.6637L126.801 53.6996C126.74 53.5034 126.608 53.4173 126.487 53.3769C126.425 53.3563 126.366 53.348 126.322 53.3451C126.3 53.3437 126.283 53.3436 126.272 53.3438C126.266 53.3439 126.262 53.3441 126.259 53.3442L126.257 53.3444C126.257 53.3444 126.257 53.3444 126.257 53.3444L125.793 53.3841L126.174 53.1172L126.174 53.1171L126.174 53.1171L126.175 53.1171L126.175 53.1167L126.178 53.1144C126.181 53.1123 126.186 53.1089 126.192 53.1043C126.204 53.0951 126.221 53.0814 126.242 53.0637C126.283 53.0281 126.337 52.978 126.385 52.9188C126.49 52.7926 126.542 52.6646 126.501 52.5536C126.477 52.4888 126.511 52.4167 126.575 52.3928ZM126.442 54.3226C126.442 54.3227 126.442 54.3227 126.442 54.3227L126.442 54.3226ZM126.822 55.8409C126.822 55.8409 126.822 55.8409 126.822 55.8409L126.822 55.8409Z" fill="#5495F7"/>
<path fill-rule="evenodd" clip-rule="evenodd" d="M126.28 53.3401L124.109 53.9419L124.042 53.7006L126.213 53.0988L126.28 53.3401Z" fill="#5495F7"/>
<path fill-rule="evenodd" clip-rule="evenodd" d="M126.562 54.5421L124.463 55.5634L124.354 55.3382L126.452 54.317L126.562 54.5421Z" fill="#5495F7"/>
<path fill-rule="evenodd" clip-rule="evenodd" d="M126.83 55.8378L125.173 56.5605L125.073 56.331L126.73 55.6083L126.83 55.8378Z" fill="#5495F7"/>
<path fill-rule="evenodd" clip-rule="evenodd" d="M162.238 63.1177C162.308 63.1194 162.362 63.1769 162.361 63.246C162.361 63.246 162.361 63.246 162.361 63.246L162.361 63.2463L162.36 63.2477L162.36 63.2537C162.36 63.259 162.36 63.2672 162.36 63.278C162.36 63.2997 162.36 63.3319 162.36 63.3736C162.361 63.457 162.364 63.5783 162.372 63.7285C162.387 64.0293 162.423 64.4453 162.504 64.9062C162.557 65.2124 162.738 65.7105 162.909 66.1416C162.994 66.3551 163.076 66.5487 163.136 66.689C163.167 66.7591 163.191 66.8159 163.209 66.855C163.217 66.8746 163.224 66.8898 163.229 66.9L163.234 66.9116L163.236 66.9154L163.121 66.9668C163.007 67.0182 163.007 67.0182 163.007 67.0182L163.005 67.014L163 67.0019C162.995 66.9914 162.988 66.9759 162.98 66.9561C162.962 66.9163 162.937 66.8589 162.906 66.788C162.845 66.6462 162.763 66.4504 162.677 66.2343C162.506 65.8063 162.316 65.285 162.257 64.9494C162.174 64.4762 162.137 64.0497 162.121 63.7415C162.113 63.5873 162.111 63.4625 162.11 63.376C162.109 63.3327 162.109 63.299 162.11 63.2759C162.11 63.2644 162.11 63.2555 162.11 63.2494L162.11 63.2424L162.11 63.2406L162.11 63.2398C162.11 63.2398 162.11 63.2398 162.235 63.2429L162.11 63.2398C162.112 63.1707 162.169 63.116 162.238 63.1177ZM163.121 66.9668L163.007 67.0182C163.036 67.0812 163.11 67.1094 163.173 67.081C163.236 67.0526 163.264 66.9785 163.236 66.9154L163.121 66.9668Z" fill="#5495F7"/>
<path fill-rule="evenodd" clip-rule="evenodd" d="M163.343 63.0501C163.343 63.0501 163.343 63.0501 163.343 63.0501L163.343 63.0533L163.343 63.0633C163.343 63.0721 163.343 63.0852 163.343 63.1021C163.344 63.1359 163.345 63.185 163.346 63.2456C163.349 63.3669 163.355 63.5342 163.367 63.7181C163.39 64.091 163.436 64.5153 163.522 64.7698M163.218 63.0503C163.093 63.0504 163.093 63.0504 163.093 63.0504L163.093 63.0542L163.093 63.0648C163.093 63.074 163.093 63.0876 163.093 63.105C163.093 63.1398 163.094 63.1899 163.096 63.2517C163.099 63.3753 163.105 63.5459 163.117 63.7338C163.14 64.1046 163.187 64.5601 163.285 64.85C163.368 65.0946 163.517 65.5163 163.645 65.8759C163.709 66.0559 163.768 66.2207 163.811 66.3404C163.833 66.4003 163.85 66.4489 163.862 66.4826L163.881 66.535C163.905 66.6 163.976 66.6338 164.041 66.6104C164.106 66.5869 164.14 66.5152 164.117 66.4501L164.098 66.3979C164.086 66.3642 164.068 66.3157 164.047 66.2558C164.004 66.1362 163.945 65.9716 163.881 65.7918C163.753 65.4319 163.604 65.0122 163.522 64.7698M163.343 63.0501C163.343 62.981 163.287 62.925 163.218 62.925C163.149 62.9251 163.093 62.9813 163.093 63.0504L163.218 63.0503" fill="#5495F7"/>
<path fill-rule="evenodd" clip-rule="evenodd" d="M164.361 62.791C164.43 62.7987 164.479 62.8607 164.471 62.9294L164.471 62.9299L164.471 62.9317L164.47 62.939C164.47 62.9456 164.469 62.9554 164.467 62.9682C164.465 62.9937 164.461 63.0311 164.457 63.0781C164.449 63.1721 164.439 63.3041 164.432 63.456C164.418 63.7615 164.416 64.1405 164.46 64.4513C164.518 64.8618 164.663 65.266 164.794 65.5701C164.86 65.7216 164.922 65.8469 164.967 65.9341C164.99 65.9777 165.008 66.0117 165.021 66.0346C165.027 66.046 165.032 66.0547 165.036 66.0605L165.039 66.0668L165.04 66.0683L165.04 66.0685M164.932 66.1319C164.824 66.1952 164.824 66.1952 164.824 66.1952L164.824 66.1943L164.823 66.1923L164.818 66.1847C164.814 66.1781 164.809 66.1685 164.802 66.1562C164.788 66.1314 164.769 66.0954 164.745 66.0496C164.697 65.9581 164.633 65.8275 164.565 65.6697C164.428 65.3552 164.275 64.928 164.212 64.4864C164.165 64.1521 164.168 63.7544 164.182 63.4444C164.189 63.2886 164.199 63.1532 164.208 63.0567C164.212 63.0084 164.215 62.9698 164.218 62.9432C164.219 62.9298 164.221 62.9195 164.221 62.9124L164.222 62.9043L164.222 62.9022L164.223 62.9014C164.223 62.9014 164.223 62.9014 164.347 62.9154L164.223 62.9014C164.23 62.8327 164.292 62.7832 164.361 62.791M164.932 66.1319L164.824 66.1952C164.859 66.2548 164.936 66.2749 164.996 66.2399C165.055 66.2049 165.075 66.1282 165.04 66.0685" fill="#5495F7"/>
<path fill-rule="evenodd" clip-rule="evenodd" d="M108.954 129.037C108.954 129.287 96.4882 129.489 81.1102 129.489C65.7322 129.489 53.2659 129.287 53.2659 129.037C53.2659 128.787 65.7322 128.584 81.1102 128.584C96.4882 128.584 108.954 128.787 108.954 129.037" fill="#AFB4C8"/>
<path fill-rule="evenodd" clip-rule="evenodd" d="M92.0663 107.123H57.1721C55.2185 107.123 53.5814 105.645 53.3814 103.702L45.5004 27.0926C45.2692 24.8456 47.0323 22.8918 49.2911 22.8918H84.1841C86.1377 22.8918 87.7749 24.3692 87.9748 26.3126L95.8571 102.922C96.0882 105.169 94.3252 107.123 92.0663 107.123" fill="#1F2430"/>
<path fill-rule="evenodd" clip-rule="evenodd" d="M96.4519 107.123H61.5586C59.6047 107.123 57.9676 105.646 57.7673 103.702L49.8857 27.0924C49.6554 24.8458 51.4177 22.8917 53.6769 22.8917H88.5703C90.5241 22.8917 92.1613 24.3689 92.3603 26.3126L100.243 102.922C100.475 105.169 98.7111 107.123 96.4519 107.123" fill="#5B6A76"/>
<mask id="mask1" mask-type="alpha" maskUnits="userSpaceOnUse" x="53" y="25" width="45" height="77">
<path fill-rule="evenodd" clip-rule="evenodd" d="M80.4668 25.3513C79.3622 25.3513 78.5001 26.307 78.6131 27.4059V27.4059L78.7409 28.6463C78.859 29.795 77.9578 30.7939 76.8032 30.7939V30.7939H68.1307C66.8502 30.7939 65.7763 29.825 65.6449 28.5508V28.5508L65.5114 27.2528C65.4002 26.1727 64.4903 25.3513 63.4043 25.3513V25.3513H55.6842C54.1423 25.3513 52.9395 26.6845 53.0972 28.2178V28.2178L60.4105 99.3008C60.547 100.628 61.6634 101.635 62.9964 101.635V101.635H94.9321C96.4742 101.635 97.677 100.302 97.5194 98.7689V98.7689L90.2047 27.6859C90.0683 26.3591 88.9518 25.3513 87.6189 25.3513V25.3513H80.4668Z" fill="white"/>
</mask>
<g mask="url(#mask1)">
<path fill-rule="evenodd" clip-rule="evenodd" d="M45.4798 108.853H103.485V21.1182H45.4798V108.853Z" fill="white"/>
<path fill-rule="evenodd" clip-rule="evenodd" d="M62.3759 86.5577L64.6687 108.843C64.7738 109.864 65.6338 110.64 66.6602 110.64H93.5658C94.7525 110.64 95.6786 109.613 95.5572 108.433L93.2644 86.1554C93.1594 85.1348 92.2996 84.3587 91.2735 84.3585L64.3679 84.3508C63.181 84.3505 62.2545 85.377 62.3759 86.5577" fill="#E8F6FF"/>
<path fill-rule="evenodd" clip-rule="evenodd" d="M58.4959 48.6009L60.7887 70.8859C60.8937 71.9068 61.7538 72.6829 62.78 72.6829H89.6856C90.8723 72.6829 91.7985 71.6564 91.6771 70.4759L89.3844 48.1986C89.2792 47.178 88.4196 46.4019 87.3935 46.4017L60.4878 46.394C59.301 46.3937 58.3744 47.4202 58.4959 48.6009" fill="#E8F6FF"/>
<path fill-rule="evenodd" clip-rule="evenodd" d="M54.4957 10.608L56.7885 32.893C56.8935 33.9138 57.7537 34.69 58.7799 34.69H85.6855C86.8722 34.69 87.7984 33.6636 87.677 32.4831L85.3842 10.2058C85.2791 9.18506 84.4194 8.40913 83.3933 8.40876L56.4877 8.40112C55.3008 8.40087 54.3742 9.42727 54.4957 10.608" fill="#E8F6FF"/>
<path fill-rule="evenodd" clip-rule="evenodd" d="M77.4361 95.5228C75.0251 98.0806 70.9973 98.1992 68.4398 95.7881C65.8822 93.3769 65.7634 89.3491 68.1745 86.7913" fill="#D8E9F0"/>
<path fill-rule="evenodd" clip-rule="evenodd" d="M82.434 103.495C79.1241 100.508 78.8617 95.4036 81.8481 92.0935C84.8346 88.7834 89.9389 88.521 93.2489 91.5076" fill="#D8E9F0"/>
<path fill-rule="evenodd" clip-rule="evenodd" d="M87.2062 50.1942C87.2062 54.4525 85.1773 58.3215 80.5825 58.3215C75.9889 58.3215 73.96 54.4525 73.96 50.1942C73.96 48.8962 74.1941 47.6007 74.5971 46.394H86.5678C86.9709 47.6007 87.2062 48.8962 87.2062 50.1942" fill="#D8E9F0"/>
<path d="M80.5792 51.2649V63.2492" stroke="#CDD9E3" stroke-width="3.5"/>
<path fill-rule="evenodd" clip-rule="evenodd" d="M70.6094 58.5717C66.5729 59.3828 64.1059 56.3411 63.3549 52.5985C63.1271 51.467 63.1033 50.2954 63.2397 49.1714C63.3587 48.1913 63.6002 47.2475 63.9357 46.3951L68.1637 46.3963L68.9886 50.5019L70.6094 58.5717Z" fill="#CEDDE1"/>
<path fill-rule="evenodd" clip-rule="evenodd" d="M72.0597 69.9282C72.0597 69.9282 68.7734 65.691 69.8517 64.716C70.93 63.7408 72.0362 66.2636 73.7563 66.1352C75.4766 66.0067 73.9259 64.2893 74.3486 63.4933C74.7711 62.6974 79.9682 65.2879 79.9682 65.2879L72.0597 69.9282Z" fill="#D8E9F0"/>
<path fill-rule="evenodd" clip-rule="evenodd" d="M72.4308 57.0708C72.4308 61.4831 68.8536 65.0604 64.4403 65.0604C62.8207 65.0604 61.3137 64.5785 60.0545 63.7499L58.7866 51.4269C59.9657 50.2453 61.5115 49.4317 63.24 49.1713C63.6317 49.1112 64.0323 49.0812 64.4403 49.0812C66.13 49.0812 67.6983 49.6056 68.9888 50.5019C71.069 51.9438 72.4308 54.3483 72.4308 57.0708" fill="#D8E9F0"/>
<path d="M64.7422 57.0709V69.0552" stroke="#CDD9E3" stroke-width="3.5"/>
<path fill-rule="evenodd" clip-rule="evenodd" d="M76.8968 92.1565C76.8968 93.294 75.9747 94.216 74.8373 94.216C73.6999 94.216 72.7779 93.294 72.7779 92.1565C72.7779 91.0191 73.6999 90.0969 74.8373 90.0969C75.9747 90.0969 76.8968 91.0191 76.8968 92.1565" fill="#CEDDE1"/>
</g>
<path fill-rule="evenodd" clip-rule="evenodd" d="M73.6076 28.1031H70.8013C70.4851 28.1031 70.2264 27.8445 70.2264 27.5283C70.2264 27.2122 70.4851 26.9536 70.8013 26.9536H73.6076C73.9236 26.9536 74.1823 27.2122 74.1823 27.5283C74.1823 27.8445 73.9236 28.1031 73.6076 28.1031" fill="black"/>
<path fill-rule="evenodd" clip-rule="evenodd" d="M76.9799 27.1053C76.9799 27.6346 76.551 28.0634 76.0219 28.0634C75.4927 28.0634 75.0638 27.6346 75.0638 27.1053C75.0638 26.5761 75.4927 26.1473 76.0219 26.1473C76.551 26.1473 76.9799 26.5761 76.9799 27.1053" fill="black"/>
<path fill-rule="evenodd" clip-rule="evenodd" d="M69.3449 27.1427C69.3449 27.672 68.916 28.1009 68.3869 28.1009C67.8577 28.1009 67.4288 27.672 67.4288 27.1427C67.4288 26.6137 67.8577 26.1847 68.3869 26.1847C68.916 26.1847 69.3449 26.6137 69.3449 27.1427" fill="black"/>
<path fill-rule="evenodd" clip-rule="evenodd" d="M91.8651 102.265L90.9328 104.814C90.9328 104.814 97.1279 107.726 99.0955 110.451L86.9931 107.731L89.0583 100.356L91.8651 102.265Z" fill="#0B096F"/>
<path fill-rule="evenodd" clip-rule="evenodd" d="M88.8612 100.912L88.0216 104.059L90.933 104.814L91.7122 102.699L88.8612 100.912Z" fill="#EF3C86"/>
<path fill-rule="evenodd" clip-rule="evenodd" d="M68.0892 72.6831C68.0892 72.6831 76.3733 62.9958 86.0014 63.2782C95.6294 63.5607 92.5043 70.3319 92.5043 70.3319C92.5043 70.3319 97.2429 79.163 97.709 85.6676C98.0237 90.0576 92.4233 104.02 92.4233 104.02L87.9559 102.75C87.9559 102.75 92.5099 89.7116 91.4701 84.3197C90.7166 80.4122 84.889 73.1013 82.9804 72.6831H68.0892Z" fill="#25003F"/>
<path fill-rule="evenodd" clip-rule="evenodd" d="M116.602 62.0855L115.861 67.7363L109.27 67.198C109.27 67.198 106.413 69.2612 101.98 70.3314C97.5478 71.4029 90.854 72.9575 87.0027 70.3314C83.1514 67.7054 84.3455 64.3971 84.3455 64.3971L88.7287 64.4497L89.814 58.7079C93.3149 58.2548 96.2561 58.444 98.7594 58.6192C102.001 58.8458 104.442 59.4166 106.173 59.8522C106.391 59.9072 106.628 59.9661 106.885 60.0287C110.242 60.8473 116.602 62.0855 116.602 62.0855" fill="#FFC100"/>
<path fill-rule="evenodd" clip-rule="evenodd" d="M100.854 64.8445C99.0825 64.2796 98.4407 62.5785 98.6717 60.3127C98.7333 59.7086 99.1351 58.7953 100.03 58.7289C103.272 58.9554 106.22 59.3357 106.336 59.889C107.234 64.2026 102.323 65.3127 100.854 64.8445" fill="#FF77CA"/>
<path fill-rule="evenodd" clip-rule="evenodd" d="M101.98 63.2781L106.173 60.5776C106.173 60.5776 110.407 62.049 111.428 61.7578C111.428 61.7578 113.884 57.7412 113.842 54.5454L110.879 50.5249L104.93 49.7604L103.183 54.9298C103.06 53.9623 100.5 52.2584 99.4157 54.1512C98.0174 56.5922 102.174 58.7018 102.174 58.7018L99.5525 60.1455L101.98 63.2781Z" fill="#FF77CA"/>
<path fill-rule="evenodd" clip-rule="evenodd" d="M100.476 53.3318C100.476 53.3318 98.1102 51.3079 102.125 48.5543C106.14 45.8005 108.731 48.1835 108.731 48.1835C108.731 48.1835 110.278 44.8585 112.582 45.3391C115.865 46.0241 115.336 51.2044 115.336 51.2044C115.336 51.2044 116.72 48.6107 117.581 49.1976C118.442 49.7846 117.432 59.1308 105.271 51.9938C105.271 51.9938 106.283 55.0274 103.183 54.9298C103.183 54.9298 102.474 53.1988 100.476 53.3318" fill="#0B096F"/>
<path d="M104.233 45.6113L104.178 47.9861L103.236 48.2215L101.98 46.2826" stroke="#001F68" stroke-width="6.3"/>
<path fill-rule="evenodd" clip-rule="evenodd" d="M110.872 56.8148L111.297 59.1474L110.242 58.9387L110.872 56.8148Z" fill="#285FD7"/>
<path fill-rule="evenodd" clip-rule="evenodd" d="M110.107 56.4687C110.061 56.7655 109.784 56.969 109.487 56.9232C109.19 56.8774 108.987 56.5997 109.032 56.3029C109.078 56.0061 109.356 55.8027 109.653 55.8484C109.949 55.8942 110.153 56.172 110.107 56.4687" fill="#0B096F"/>
<path fill-rule="evenodd" clip-rule="evenodd" d="M112.906 56.61C112.86 56.9068 112.582 57.1103 112.286 57.0645C111.989 57.0187 111.786 56.741 111.831 56.4442C111.877 56.1474 112.155 55.944 112.452 55.9897C112.748 56.0356 112.952 56.3133 112.906 56.61" fill="#0B096F"/>
<path fill-rule="evenodd" clip-rule="evenodd" d="M106.173 60.5606L103.107 59.0796L104.881 61.4101L106.173 60.5606Z" fill="#EF3C86"/>
<path fill-rule="evenodd" clip-rule="evenodd" d="M109.581 54.9188C109.31 54.8924 109.059 55.0252 108.922 55.2406L108.605 55.039C108.815 54.709 109.2 54.5043 109.618 54.545L109.618 54.545C110.035 54.5858 110.374 54.861 110.516 55.2255L110.166 55.3619C110.073 55.1241 109.853 54.9454 109.581 54.9188" fill="#0D1A88"/>
<path fill-rule="evenodd" clip-rule="evenodd" d="M112.38 55.1917C112.109 55.1653 111.858 55.298 111.721 55.5135L111.404 55.3119C111.614 54.9819 111.999 54.7771 112.417 54.8178L112.417 54.8178C112.834 54.8586 113.173 55.1338 113.315 55.4982L112.965 55.6348C112.872 55.3968 112.652 55.2182 112.38 55.1917" fill="#0D1A88"/>
<path fill-rule="evenodd" clip-rule="evenodd" d="M139.388 67.2772L137.882 68.6444L135.418 67.6623L136.265 66.0833L139.388 67.2772Z" fill="#EF3C86"/>
<path fill-rule="evenodd" clip-rule="evenodd" d="M115.938 67.1544L133.421 68.2013C133.421 68.2013 134.942 68.9511 135.751 69.1154C136.559 69.2797 137.965 69.0293 138.793 69.4146C139.621 69.7996 139.467 68.779 138.716 68.6057C137.965 68.4324 136.309 67.6622 136.309 67.6622L137.272 67.0074C137.272 67.0074 140.545 67.7199 141.123 67.6237C141.701 67.5273 142.49 67.0844 142.49 66.7763C142.49 66.7763 138.755 66.5068 137.465 65.6017C136.174 64.6966 133.363 65.7365 133.363 65.7365L116.58 62.2511L115.938 67.1544Z" fill="#FF77CA"/>
<path fill-rule="evenodd" clip-rule="evenodd" d="M89.7754 58.9262C89.7754 58.9262 82.6892 59.3017 81.0461 59.8521C79.4028 60.4026 71.9058 72.65 71.9058 72.65L74.255 72.8041C74.255 72.8041 73.2922 74.3447 72.5605 74.5758C71.8288 74.8068 72.7145 75.192 72.7145 75.192C72.7145 75.192 72.6001 75.6495 73.4847 75.6927C75.0647 75.7696 77.413 74.7297 78.4143 73.1121C78.4143 73.1121 78.9536 72.1714 78.1833 71.7752C77.413 71.379 75.8725 71.3021 75.8725 71.3021L82.0973 64.3695L88.728 64.4502L89.7754 58.9262Z" fill="#FF77CA"/>
<path fill-rule="evenodd" clip-rule="evenodd" d="M110.547 60.0973C110.361 60.4478 109.736 60.4805 109.151 60.17C108.565 59.8597 108.308 59.1917 108.494 58.8411C108.68 58.4906 109.244 59.0451 109.829 59.3554C110.414 59.6657 110.733 59.7468 110.547 60.0973" fill="white"/>
<path fill-rule="evenodd" clip-rule="evenodd" d="M84.3454 64.3971L88.7287 64.4497L88.6122 65.0073L93.1196 64.7224L84.2437 66.4618C84.2437 66.4618 84.1077 65.8073 84.1976 65.1225C84.2489 64.7323 84.3454 64.3971 84.3454 64.3971" fill="#E0660C"/>
<path fill-rule="evenodd" clip-rule="evenodd" d="M75.6583 72.3445C75.7259 72.3591 75.7689 72.4257 75.7543 72.4933L75.6319 72.4669C75.7543 72.4933 75.7543 72.4933 75.7543 72.4933L75.7542 72.4936L75.7542 72.494L75.7539 72.495L75.7532 72.498C75.7527 72.5005 75.7518 72.5039 75.7508 72.5082C75.7486 72.5168 75.7455 72.5289 75.7411 72.5444C75.7322 72.5752 75.7185 72.6193 75.6983 72.6748C75.6578 72.7859 75.5912 72.9425 75.486 73.13C75.2754 73.5052 74.9104 74.0027 74.2907 74.5044C73.9339 74.7932 73.5636 74.9759 73.2831 75.0864C73.1427 75.1418 73.0241 75.1793 72.9401 75.203C72.8981 75.2149 72.8647 75.2234 72.8414 75.229C72.8298 75.2317 72.8207 75.2338 72.8144 75.2352L72.8069 75.2368L72.8048 75.2373L72.8041 75.2374L72.8039 75.2374C72.8038 75.2375 72.8037 75.2375 72.7789 75.1148L72.8039 75.2374C72.7361 75.2511 72.6699 75.2073 72.6562 75.1395C72.6425 75.0718 72.6863 75.0058 72.754 74.9921L72.7552 74.9918L72.7605 74.9907C72.7654 74.9896 72.773 74.9879 72.7831 74.9854C72.8032 74.9806 72.8334 74.973 72.8719 74.9621C72.949 74.9403 73.0596 74.9053 73.1913 74.8534C73.4552 74.7494 73.8014 74.5783 74.1331 74.3097C74.7266 73.8293 75.0715 73.3568 75.2677 73.0074C75.3658 72.8326 75.4268 72.6883 75.463 72.589C75.4811 72.5394 75.493 72.501 75.5003 72.4756C75.5039 72.4629 75.5063 72.4535 75.5078 72.4476C75.5086 72.4446 75.5091 72.4425 75.5093 72.4413L75.5095 72.4405C75.5242 72.3729 75.5908 72.3299 75.6583 72.3445Z" fill="#DE479D"/>
<path fill-rule="evenodd" clip-rule="evenodd" d="M76.7952 72.6198C76.8608 72.6414 76.8965 72.7123 76.8748 72.7779L76.7559 72.7386C76.8748 72.7779 76.8748 72.778 76.8748 72.778L76.8747 72.7782L76.8746 72.7785L76.8743 72.7795L76.8732 72.7827C76.8722 72.7854 76.8709 72.7892 76.8692 72.7939C76.8658 72.8035 76.8607 72.8172 76.8538 72.8347C76.8401 72.8698 76.8193 72.9201 76.7902 72.9832C76.7319 73.1093 76.6402 73.2868 76.5056 73.4956C76.2362 73.9134 75.7948 74.4566 75.1044 74.9652L75.1044 74.9652C74.6648 75.2891 74.2793 75.476 74.0015 75.5823C73.8627 75.6355 73.7508 75.6684 73.6727 75.6882C73.6337 75.6981 73.6031 75.7048 73.5817 75.709C73.571 75.7111 73.5626 75.7126 73.5567 75.7136L73.5496 75.7148L73.5475 75.7151L73.5467 75.7152L73.5465 75.7153L73.5463 75.7153C73.5463 75.7153 73.5462 75.7153 73.5282 75.5914L73.5462 75.7153C73.4778 75.7253 73.4143 75.6779 73.4043 75.6095C73.3943 75.5411 73.4416 75.4776 73.5098 75.4675C73.5098 75.4675 73.5098 75.4675 73.5099 75.4675C73.5099 75.4675 73.5099 75.4675 73.51 75.4675C73.51 75.4675 73.51 75.4675 73.51 75.4675C73.51 75.4675 73.51 75.4675 73.51 75.4675M76.7952 72.6198C76.7296 72.5981 76.6588 72.6337 76.6371 72.6993Z" fill="#DE479D"/>
<path d="M119.46 36.415L119.467 36.5908C119.583 36.4541 119.74 36.3857 119.938 36.3857C120.159 36.3857 120.31 36.4707 120.39 36.6406C120.443 36.5645 120.511 36.5029 120.595 36.4561C120.68 36.4092 120.78 36.3857 120.896 36.3857C121.243 36.3857 121.42 36.5698 121.426 36.938V38H121.155V36.9541C121.155 36.8408 121.129 36.7563 121.077 36.7007C121.025 36.644 120.938 36.6157 120.816 36.6157C120.716 36.6157 120.632 36.646 120.566 36.7065C120.5 36.7661 120.461 36.8467 120.45 36.9482V38H120.178V36.9614C120.178 36.731 120.065 36.6157 119.839 36.6157C119.662 36.6157 119.54 36.6914 119.475 36.8428V38H119.204V36.415H119.46ZM122.354 37.603L122.724 36.415H123.014L122.376 38.2446C122.278 38.5083 122.121 38.6401 121.906 38.6401L121.855 38.6357L121.754 38.6167V38.397L121.827 38.4028C121.919 38.4028 121.99 38.3843 122.041 38.3472C122.093 38.3101 122.135 38.2422 122.168 38.1436L122.229 37.9824L121.663 36.415H121.959L122.354 37.603ZM123.894 38.0293C123.679 38.0293 123.504 37.959 123.37 37.8184C123.235 37.6768 123.167 37.4878 123.167 37.2515V37.2017C123.167 37.0444 123.197 36.9043 123.257 36.7812C123.317 36.6572 123.401 36.5605 123.509 36.4912C123.617 36.4209 123.734 36.3857 123.86 36.3857C124.066 36.3857 124.227 36.4536 124.341 36.5894C124.455 36.7251 124.512 36.9194 124.512 37.1724V37.2852H123.438C123.442 37.4414 123.488 37.5679 123.575 37.6646C123.663 37.7603 123.774 37.8081 123.909 37.8081C124.004 37.8081 124.085 37.7886 124.152 37.7495C124.218 37.7104 124.276 37.6587 124.326 37.5942L124.492 37.7231C124.359 37.9272 124.16 38.0293 123.894 38.0293ZM123.86 36.6084C123.751 36.6084 123.659 36.6484 123.585 36.7285C123.511 36.8076 123.465 36.9189 123.447 37.0625H124.241V37.042C124.233 36.9043 124.196 36.7979 124.13 36.7227C124.063 36.6465 123.974 36.6084 123.86 36.6084ZM125.082 36.415L125.089 36.5908C125.206 36.4541 125.362 36.3857 125.56 36.3857C125.781 36.3857 125.932 36.4707 126.012 36.6406C126.065 36.5645 126.133 36.5029 126.217 36.4561C126.302 36.4092 126.402 36.3857 126.518 36.3857C126.865 36.3857 127.042 36.5698 127.048 36.938V38H126.777V36.9541C126.777 36.8408 126.751 36.7563 126.699 36.7007C126.647 36.644 126.561 36.6157 126.438 36.6157C126.338 36.6157 126.254 36.646 126.188 36.7065C126.122 36.7661 126.083 36.8467 126.072 36.9482V38H125.8V36.9614C125.8 36.731 125.687 36.6157 125.461 36.6157C125.284 36.6157 125.162 36.6914 125.097 36.8428V38H124.826V36.415H125.082ZM128.437 38C128.421 37.9688 128.408 37.9131 128.398 37.833C128.272 37.9639 128.122 38.0293 127.947 38.0293C127.791 38.0293 127.663 37.9854 127.562 37.8975C127.462 37.8086 127.413 37.6963 127.413 37.5605C127.413 37.3955 127.475 37.2676 127.6 37.1768C127.726 37.085 127.903 37.0391 128.13 37.0391H128.394V36.9146C128.394 36.8198 128.366 36.7446 128.309 36.689C128.252 36.6323 128.169 36.604 128.059 36.604C127.962 36.604 127.881 36.6284 127.815 36.6772C127.75 36.7261 127.717 36.7852 127.717 36.8545H127.445C127.445 36.7754 127.473 36.6992 127.528 36.626C127.585 36.5518 127.661 36.4932 127.757 36.4502C127.854 36.4072 127.959 36.3857 128.075 36.3857C128.257 36.3857 128.4 36.4316 128.504 36.5234C128.607 36.6143 128.661 36.7397 128.665 36.8999V37.6294C128.665 37.7749 128.684 37.8906 128.721 37.9766V38H128.437ZM127.987 37.7935C128.072 37.7935 128.152 37.7715 128.229 37.7275C128.305 37.6836 128.36 37.6265 128.394 37.5562V37.231H128.182C127.85 37.231 127.684 37.3281 127.684 37.5225C127.684 37.6074 127.712 37.6738 127.769 37.7217C127.825 37.7695 127.898 37.7935 127.987 37.7935ZM129.384 38H129.113V36.415H129.384V38ZM129.091 35.9946C129.091 35.9507 129.104 35.9136 129.131 35.8833C129.158 35.853 129.198 35.8379 129.251 35.8379C129.304 35.8379 129.344 35.853 129.371 35.8833C129.398 35.9136 129.412 35.9507 129.412 35.9946C129.412 36.0386 129.398 36.0752 129.371 36.1045C129.344 36.1338 129.304 36.1484 129.251 36.1484C129.198 36.1484 129.158 36.1338 129.131 36.1045C129.104 36.0752 129.091 36.0386 129.091 35.9946ZM130.114 38H129.843V35.75H130.114V38ZM132.89 37.2646C132.878 37.501 132.819 37.6875 132.714 37.8242C132.608 37.9609 132.467 38.0293 132.291 38.0293C132.108 38.0293 131.991 37.9473 131.939 37.7832C131.886 37.8662 131.826 37.9282 131.757 37.9692C131.69 38.0093 131.62 38.0293 131.548 38.0293C131.409 38.0293 131.304 37.9727 131.233 37.8594C131.162 37.7461 131.135 37.5894 131.154 37.3892C131.168 37.228 131.205 37.0845 131.264 36.9585C131.323 36.8315 131.399 36.7319 131.492 36.6597C131.586 36.5874 131.684 36.5513 131.787 36.5513C131.866 36.5513 131.937 36.562 131.999 36.5835C132.062 36.604 132.132 36.645 132.21 36.7065L132.134 37.5181C132.115 37.7437 132.178 37.8564 132.321 37.8564C132.432 37.8564 132.521 37.8018 132.589 37.6924C132.658 37.583 132.695 37.4404 132.701 37.2646C132.719 36.8848 132.648 36.5952 132.488 36.396C132.329 36.1968 132.086 36.0972 131.76 36.0972C131.564 36.0972 131.39 36.146 131.237 36.2437C131.085 36.3403 130.965 36.4805 130.877 36.6641C130.789 36.8477 130.74 37.0596 130.729 37.2998C130.717 37.542 130.747 37.7524 130.817 37.9312C130.887 38.1089 130.994 38.2446 131.138 38.3384C131.282 38.4331 131.457 38.4805 131.661 38.4805C131.749 38.4805 131.836 38.4697 131.924 38.4482C132.013 38.4268 132.087 38.3989 132.146 38.3647L132.2 38.5332C132.139 38.5713 132.059 38.6025 131.958 38.627C131.858 38.6514 131.757 38.6636 131.655 38.6636C131.411 38.6636 131.201 38.6084 131.025 38.498C130.849 38.3887 130.717 38.2305 130.629 38.0234C130.542 37.8174 130.505 37.5762 130.517 37.2998C130.528 37.0312 130.588 36.79 130.697 36.5762C130.805 36.3613 130.952 36.1958 131.138 36.0796C131.323 35.9624 131.533 35.9038 131.766 35.9038C132.009 35.9038 132.218 35.9585 132.392 36.0679C132.565 36.1772 132.695 36.335 132.78 36.541C132.865 36.7471 132.901 36.9883 132.89 37.2646ZM131.387 37.3892C131.373 37.5278 131.386 37.6343 131.425 37.7085C131.465 37.7827 131.528 37.8198 131.614 37.8198C131.672 37.8198 131.729 37.7949 131.782 37.7451C131.837 37.6953 131.882 37.624 131.917 37.5312L131.918 37.5181L131.986 36.7812C131.931 36.7529 131.873 36.7388 131.81 36.7388C131.696 36.7388 131.601 36.7969 131.526 36.9131C131.452 37.0293 131.405 37.188 131.387 37.3892ZM133.902 38.0293C133.687 38.0293 133.512 37.959 133.377 37.8184C133.243 37.6768 133.175 37.4878 133.175 37.2515V37.2017C133.175 37.0444 133.205 36.9043 133.265 36.7812C133.325 36.6572 133.409 36.5605 133.517 36.4912C133.625 36.4209 133.742 36.3857 133.868 36.3857C134.074 36.3857 134.234 36.4536 134.349 36.5894C134.463 36.7251 134.52 36.9194 134.52 37.1724V37.2852H133.446C133.45 37.4414 133.496 37.5679 133.583 37.6646C133.67 37.7603 133.782 37.8081 133.917 37.8081C134.012 37.8081 134.093 37.7886 134.16 37.7495C134.226 37.7104 134.284 37.6587 134.334 37.5942L134.5 37.7231C134.367 37.9272 134.167 38.0293 133.902 38.0293ZM133.868 36.6084C133.759 36.6084 133.667 36.6484 133.593 36.7285C133.519 36.8076 133.473 36.9189 133.455 37.0625H134.249V37.042C134.241 36.9043 134.204 36.7979 134.138 36.7227C134.071 36.6465 133.981 36.6084 133.868 36.6084ZM135.09 36.415L135.097 36.5908C135.213 36.4541 135.37 36.3857 135.567 36.3857C135.789 36.3857 135.94 36.4707 136.02 36.6406C136.073 36.5645 136.141 36.5029 136.225 36.4561C136.31 36.4092 136.41 36.3857 136.525 36.3857C136.873 36.3857 137.05 36.5698 137.056 36.938V38H136.785V36.9541C136.785 36.8408 136.759 36.7563 136.707 36.7007C136.655 36.644 136.568 36.6157 136.446 36.6157C136.346 36.6157 136.262 36.646 136.196 36.7065C136.129 36.7661 136.091 36.8467 136.08 36.9482V38H135.808V36.9614C135.808 36.731 135.695 36.6157 135.469 36.6157C135.292 36.6157 135.17 36.6914 135.104 36.8428V38H134.833V36.415H135.09ZM138.444 38C138.429 37.9688 138.416 37.9131 138.406 37.833C138.28 37.9639 138.13 38.0293 137.955 38.0293C137.799 38.0293 137.67 37.9854 137.57 37.8975C137.47 37.8086 137.42 37.6963 137.42 37.5605C137.42 37.3955 137.483 37.2676 137.608 37.1768C137.734 37.085 137.911 37.0391 138.138 37.0391H138.402V36.9146C138.402 36.8198 138.374 36.7446 138.317 36.689C138.26 36.6323 138.177 36.604 138.066 36.604C137.97 36.604 137.889 36.6284 137.823 36.6772C137.758 36.7261 137.725 36.7852 137.725 36.8545H137.453C137.453 36.7754 137.48 36.6992 137.536 36.626C137.593 36.5518 137.669 36.4932 137.765 36.4502C137.861 36.4072 137.967 36.3857 138.083 36.3857C138.265 36.3857 138.408 36.4316 138.512 36.5234C138.615 36.6143 138.669 36.7397 138.673 36.8999V37.6294C138.673 37.7749 138.691 37.8906 138.729 37.9766V38H138.444ZM137.995 37.7935C138.08 37.7935 138.16 37.7715 138.236 37.7275C138.312 37.6836 138.368 37.6265 138.402 37.5562V37.231H138.189C137.857 37.231 137.691 37.3281 137.691 37.5225C137.691 37.6074 137.72 37.6738 137.776 37.7217C137.833 37.7695 137.906 37.7935 137.995 37.7935ZM139.392 38H139.121V36.415H139.392V38ZM139.099 35.9946C139.099 35.9507 139.112 35.9136 139.139 35.8833C139.166 35.853 139.206 35.8379 139.259 35.8379C139.312 35.8379 139.352 35.853 139.379 35.8833C139.406 35.9136 139.42 35.9507 139.42 35.9946C139.42 36.0386 139.406 36.0752 139.379 36.1045C139.352 36.1338 139.312 36.1484 139.259 36.1484C139.206 36.1484 139.166 36.1338 139.139 36.1045C139.112 36.0752 139.099 36.0386 139.099 35.9946ZM140.122 38H139.851V35.75H140.122V38ZM140.562 37.8579C140.562 37.811 140.576 37.772 140.604 37.7407C140.632 37.7095 140.674 37.6938 140.729 37.6938C140.785 37.6938 140.827 37.7095 140.855 37.7407C140.885 37.772 140.899 37.811 140.899 37.8579C140.899 37.9028 140.885 37.9404 140.855 37.9707C140.827 38.001 140.785 38.0161 140.729 38.0161C140.674 38.0161 140.632 38.001 140.604 37.9707C140.576 37.9404 140.562 37.9028 140.562 37.8579ZM141.983 37.8081C142.08 37.8081 142.165 37.7788 142.237 37.7202C142.309 37.6616 142.349 37.5884 142.357 37.5005H142.613C142.608 37.5913 142.577 37.6777 142.52 37.7598C142.462 37.8418 142.385 37.9072 142.288 37.9561C142.192 38.0049 142.091 38.0293 141.983 38.0293C141.768 38.0293 141.596 37.9575 141.468 37.814C141.341 37.6694 141.277 37.4722 141.277 37.2222V37.1768C141.277 37.0225 141.306 36.8853 141.362 36.7651C141.419 36.645 141.5 36.5518 141.605 36.4854C141.712 36.4189 141.837 36.3857 141.982 36.3857C142.16 36.3857 142.307 36.439 142.424 36.5454C142.542 36.6519 142.605 36.79 142.613 36.96H142.357C142.349 36.8574 142.31 36.7734 142.24 36.708C142.17 36.6416 142.084 36.6084 141.982 36.6084C141.844 36.6084 141.737 36.6582 141.661 36.7578C141.586 36.8564 141.548 36.9995 141.548 37.187V37.2383C141.548 37.4209 141.586 37.5615 141.661 37.6602C141.736 37.7588 141.844 37.8081 141.983 37.8081ZM142.846 37.1929C142.846 37.0376 142.876 36.8979 142.937 36.7739C142.999 36.6499 143.083 36.5542 143.192 36.4868C143.301 36.4194 143.426 36.3857 143.565 36.3857C143.781 36.3857 143.956 36.4604 144.088 36.6099C144.222 36.7593 144.289 36.958 144.289 37.2061V37.2251C144.289 37.3794 144.259 37.5181 144.2 37.6411C144.141 37.7632 144.057 37.8584 143.946 37.9268C143.837 37.9951 143.711 38.0293 143.568 38.0293C143.354 38.0293 143.179 37.9546 143.045 37.8052C142.913 37.6558 142.846 37.458 142.846 37.2119V37.1929ZM143.119 37.2251C143.119 37.4009 143.159 37.542 143.24 37.6484C143.322 37.7549 143.432 37.8081 143.568 37.8081C143.706 37.8081 143.815 37.7544 143.896 37.647C143.978 37.5386 144.018 37.3872 144.018 37.1929C144.018 37.019 143.977 36.8784 143.894 36.771C143.812 36.6626 143.702 36.6084 143.565 36.6084C143.432 36.6084 143.324 36.6616 143.242 36.7681C143.16 36.8745 143.119 37.0269 143.119 37.2251ZM144.884 36.415L144.891 36.5908C145.007 36.4541 145.164 36.3857 145.361 36.3857C145.583 36.3857 145.734 36.4707 145.814 36.6406C145.867 36.5645 145.935 36.5029 146.019 36.4561C146.104 36.4092 146.204 36.3857 146.319 36.3857C146.667 36.3857 146.844 36.5698 146.85 36.938V38H146.579V36.9541C146.579 36.8408 146.553 36.7563 146.501 36.7007C146.449 36.644 146.362 36.6157 146.24 36.6157C146.14 36.6157 146.056 36.646 145.99 36.7065C145.923 36.7661 145.885 36.8467 145.874 36.9482V38H145.602V36.9614C145.602 36.731 145.489 36.6157 145.263 36.6157C145.085 36.6157 144.964 36.6914 144.898 36.8428V38H144.627V36.415H144.884Z" fill="white"/>
</svg>
