<svg width="242" height="134" viewBox="0 0 242 134" fill="none" xmlns="http://www.w3.org/2000/svg">
<path d="M234.69 118.186H7" stroke="#DCF0FF" stroke-width="14" stroke-linecap="round"/>
<path fill-rule="evenodd" clip-rule="evenodd" d="M108.274 116.886H134.728V110.161H108.274V116.886Z" fill="#AAD5FF"/>
<path fill-rule="evenodd" clip-rule="evenodd" d="M133.048 116.886H134.728V110.161H133.048V116.886Z" fill="#CEECFD"/>
<path fill-rule="evenodd" clip-rule="evenodd" d="M108.274 110.161H134.728V108.506H108.274V110.161Z" fill="#E8F6FF"/>
<path fill-rule="evenodd" clip-rule="evenodd" d="M108.274 114.157H133.888V113.33H108.274V114.157Z" fill="#E8F6FF"/>
<path fill-rule="evenodd" clip-rule="evenodd" d="M202.772 116.886H229.227V110.161H202.772V116.886Z" fill="#AAD5FF"/>
<path fill-rule="evenodd" clip-rule="evenodd" d="M227.547 116.886H229.227V110.161H227.547V116.886Z" fill="#CEECFD"/>
<path fill-rule="evenodd" clip-rule="evenodd" d="M202.772 110.161H229.227V108.506H202.772V110.161Z" fill="#E8F6FF"/>
<path fill-rule="evenodd" clip-rule="evenodd" d="M202.772 114.157H228.387V113.33H202.772V114.157Z" fill="#E8F6FF"/>
<path fill-rule="evenodd" clip-rule="evenodd" d="M61.6392 116.886H88.0936V110.161H61.6392V116.886Z" fill="#AAD5FF"/>
<path fill-rule="evenodd" clip-rule="evenodd" d="M86.4131 116.886H88.0931V110.161H86.4131V116.886Z" fill="#CEECFD"/>
<path fill-rule="evenodd" clip-rule="evenodd" d="M61.6392 110.161H88.0936V108.506H61.6392V110.161Z" fill="#E8F6FF"/>
<path fill-rule="evenodd" clip-rule="evenodd" d="M61.6392 114.157H87.2535V113.33H61.6392V114.157Z" fill="#E8F6FF"/>
<path fill-rule="evenodd" clip-rule="evenodd" d="M15.6655 116.886H42.12V110.161H15.6655V116.886Z" fill="#AAD5FF"/>
<path fill-rule="evenodd" clip-rule="evenodd" d="M40.4395 116.886H42.1195V110.161H40.4395V116.886Z" fill="#CEECFD"/>
<path fill-rule="evenodd" clip-rule="evenodd" d="M15.6655 110.161H42.12V108.506H15.6655V110.161Z" fill="#E8F6FF"/>
<path fill-rule="evenodd" clip-rule="evenodd" d="M15.6655 114.157H41.2799V113.33H15.6655V114.157Z" fill="#E8F6FF"/>
<path fill-rule="evenodd" clip-rule="evenodd" d="M109.862 89.9811H133.143V21.6888H109.862V89.9811Z" fill="#AAD5FF"/>
<path fill-rule="evenodd" clip-rule="evenodd" d="M137.155 16.9164V91.9109H133.144V21.6886H109.862V91.9109H105.87V16.9164H137.155Z" fill="#E8F6FF"/>
<path fill-rule="evenodd" clip-rule="evenodd" d="M105.87 95.1039H137.156V85.5303H105.87V95.1039Z" fill="#E8F6FF"/>
<path fill-rule="evenodd" clip-rule="evenodd" d="M138.999 91.911H115.68L109.862 85.5307H133.181L138.999 91.911Z" fill="#C3E4FF"/>
<path fill-rule="evenodd" clip-rule="evenodd" d="M131.239 85.5304H133.143V21.6888H131.239V85.5304Z" fill="#C3E4FF"/>
<path fill-rule="evenodd" clip-rule="evenodd" d="M104.921 95.104H105.869V16.9164H104.921V95.104Z" fill="#C3E4FF"/>
<path fill-rule="evenodd" clip-rule="evenodd" d="M109.862 85.5303H132.351V82.6943H109.862V85.5303Z" fill="#D0F0FF"/>
<path fill-rule="evenodd" clip-rule="evenodd" d="M109.862 40.6922H132.348V38.0829H109.862V40.6922Z" fill="#D0F0FF"/>
<path fill-rule="evenodd" clip-rule="evenodd" d="M115.68 91.911H109.862V85.5307L115.68 91.911Z" fill="#AAD5FF"/>
<path fill-rule="evenodd" clip-rule="evenodd" d="M63.3286 89.9811H86.6096V21.6888H63.3286V89.9811Z" fill="#AAD5FF"/>
<path fill-rule="evenodd" clip-rule="evenodd" d="M90.6213 16.9164V91.9109H86.6093V21.6886H63.3279V91.9109H59.3354V16.9164H90.6213Z" fill="#E8F6FF"/>
<path fill-rule="evenodd" clip-rule="evenodd" d="M59.3359 95.1039H90.6219V85.5303H59.3359V95.1039Z" fill="#E8F6FF"/>
<path fill-rule="evenodd" clip-rule="evenodd" d="M92.4654 91.911H69.1457L63.3281 85.5307H86.6476L92.4654 91.911Z" fill="#C3E4FF"/>
<path fill-rule="evenodd" clip-rule="evenodd" d="M84.7051 85.5304H86.6097V21.6888H84.7051V85.5304Z" fill="#C3E4FF"/>
<path fill-rule="evenodd" clip-rule="evenodd" d="M58.3872 95.104H59.3356V16.9164H58.3872V95.104Z" fill="#C3E4FF"/>
<path fill-rule="evenodd" clip-rule="evenodd" d="M63.3286 85.5303H85.8174V82.6943H63.3286V85.5303Z" fill="#D0F0FF"/>
<path fill-rule="evenodd" clip-rule="evenodd" d="M63.3276 40.6922H85.8139V38.0829H63.3276V40.6922Z" fill="#D0F0FF"/>
<path fill-rule="evenodd" clip-rule="evenodd" d="M69.1454 91.911H63.3276V85.5307L69.1454 91.911Z" fill="#AAD5FF"/>
<path fill-rule="evenodd" clip-rule="evenodd" d="M16.8281 89.9811H40.1091V21.6888H16.8281V89.9811Z" fill="#AAD5FF"/>
<path fill-rule="evenodd" clip-rule="evenodd" d="M44.1213 16.9164V91.9109H40.1093V21.6886H16.8279V91.9109H12.8354V16.9164H44.1213Z" fill="#E8F6FF"/>
<path fill-rule="evenodd" clip-rule="evenodd" d="M12.8359 95.1039H44.1219V85.5303H12.8359V95.1039Z" fill="#E8F6FF"/>
<path fill-rule="evenodd" clip-rule="evenodd" d="M45.9649 91.911H22.6453L16.8276 85.5307H40.1471L45.9649 91.911Z" fill="#C3E4FF"/>
<path fill-rule="evenodd" clip-rule="evenodd" d="M38.2046 85.5304H40.1092V21.6888H38.2046V85.5304Z" fill="#C3E4FF"/>
<path fill-rule="evenodd" clip-rule="evenodd" d="M11.8867 95.104H12.8351V16.9164H11.8867V95.104Z" fill="#C3E4FF"/>
<path fill-rule="evenodd" clip-rule="evenodd" d="M16.8281 85.5303H39.3169V82.6943H16.8281V85.5303Z" fill="#D0F0FF"/>
<path fill-rule="evenodd" clip-rule="evenodd" d="M16.8276 40.6922H39.3139V38.0829H16.8276V40.6922Z" fill="#D0F0FF"/>
<path fill-rule="evenodd" clip-rule="evenodd" d="M22.6454 91.911H16.8276V85.5307L22.6454 91.911Z" fill="#AAD5FF"/>
<path fill-rule="evenodd" clip-rule="evenodd" d="M203.445 89.9811H226.726V21.6888H203.445V89.9811Z" fill="#AAD5FF"/>
<path fill-rule="evenodd" clip-rule="evenodd" d="M230.737 16.9164V91.9109H226.726V21.6886H203.444V91.9109H199.452V16.9164H230.737Z" fill="#E8F6FF"/>
<path fill-rule="evenodd" clip-rule="evenodd" d="M199.452 95.1039H230.738V85.5303H199.452V95.1039Z" fill="#E8F6FF"/>
<path fill-rule="evenodd" clip-rule="evenodd" d="M232.582 91.911H209.262L203.444 85.5307H226.764L232.582 91.911Z" fill="#C3E4FF"/>
<path fill-rule="evenodd" clip-rule="evenodd" d="M224.821 85.5304H226.726V21.6888H224.821V85.5304Z" fill="#C3E4FF"/>
<path fill-rule="evenodd" clip-rule="evenodd" d="M198.503 95.104H199.452V16.9164H198.503V95.104Z" fill="#C3E4FF"/>
<path fill-rule="evenodd" clip-rule="evenodd" d="M203.445 85.5303H225.934V82.6943H203.445V85.5303Z" fill="#D0F0FF"/>
<path fill-rule="evenodd" clip-rule="evenodd" d="M203.444 40.6922H225.931V38.0829H203.444V40.6922Z" fill="#D0F0FF"/>
<path fill-rule="evenodd" clip-rule="evenodd" d="M209.262 91.911H203.444V85.5307L209.262 91.911Z" fill="#AAD5FF"/>
<path d="M234.69 99.9518H7" stroke="#DCF0FF" stroke-width="14" stroke-linecap="round"/>
<path fill-rule="evenodd" clip-rule="evenodd" d="M157.66 108.118H186.101V20.8094H157.66V108.118Z" fill="#E8F6FF"/>
<path fill-rule="evenodd" clip-rule="evenodd" d="M157.66 108.118H186.101V20.8094H157.66V108.118Z" fill="#D0F0FF"/>
<path fill-rule="evenodd" clip-rule="evenodd" d="M157.66 97.2297H174.62V20.8099H157.66V97.2297Z" fill="#AAD5FF"/>
<path fill-rule="evenodd" clip-rule="evenodd" d="M157.27 103.064H178.664V96.8394H157.27V103.064Z" fill="#CFF2FE"/>
<path fill-rule="evenodd" clip-rule="evenodd" d="M179.054 96.4491H178.274H157.66H156.88V97.2297V102.674V103.455H157.66H178.274H179.054V102.674V97.2297V96.4491ZM157.66 102.674H178.274V97.2299H157.66V102.674Z" fill="#AAD5FF"/>
<path fill-rule="evenodd" clip-rule="evenodd" d="M157.27 108.509H182.691V102.284H157.27V108.509Z" fill="#D0F0FF"/>
<path fill-rule="evenodd" clip-rule="evenodd" d="M183.081 101.893H182.301H157.66H156.88V102.674V108.118V108.899H157.66H182.301H183.081V108.118V102.674V101.893ZM157.66 108.118H182.301V102.674H157.66V108.118Z" fill="#AAD5FF"/>
<path fill-rule="evenodd" clip-rule="evenodd" d="M187.902 17.2485V108.118H186.101V20.8094H157.66V108.118H155.861V17.2485H187.902Z" fill="white"/>
<path fill-rule="evenodd" clip-rule="evenodd" d="M191.382 10.7226V98.6574H187.901V16.1279H155.86V98.6574H152.38V10.7226H191.382Z" fill="#E8F6FF"/>
<path d="M176.538 65.2681L170.934 77.1707L177.414 83.3356L183.448 72.3604" stroke="#AAD5FF" stroke-width="9.1" stroke-linejoin="round"/>
<path fill-rule="evenodd" clip-rule="evenodd" d="M155.396 116.495H189.405V108.509H155.396V116.495Z" fill="#D0F0FF"/>
<path fill-rule="evenodd" clip-rule="evenodd" d="M155.006 116.885H189.795V108.118H155.006V116.885ZM155.786 116.104H189.014V108.899H155.786V116.104Z" fill="#AAD5FF"/>
<path fill-rule="evenodd" clip-rule="evenodd" d="M155.007 116.885H161.404V108.118H155.007V116.885Z" fill="#AAD5FF"/>
<path d="M183.577 72.2302H180.074L173.164 65.3981H176.668" stroke="white" stroke-width="8.4" stroke-linecap="round" stroke-linejoin="round"/>
<path fill-rule="evenodd" clip-rule="evenodd" d="M168.519 0L170.663 7.33396H172.969L175.112 0H168.519Z" fill="#E4F6FF"/>
<path fill-rule="evenodd" clip-rule="evenodd" d="M188.95 133.53C188.95 133.789 176.001 134 160.029 134C144.056 134 131.107 133.789 131.107 133.53C131.107 133.27 144.056 133.059 160.029 133.059C176.001 133.059 188.95 133.27 188.95 133.53" fill="#AFB4C8"/>
<path fill-rule="evenodd" clip-rule="evenodd" d="M138.828 126.045L137.441 128.501C137.441 128.501 131.668 124.498 128.188 124.778L137.788 133.585L142.228 126.98L138.828 126.045Z" fill="#0B096F"/>
<path fill-rule="evenodd" clip-rule="evenodd" d="M178.07 123.11L181.51 126.673L180.163 131.33L175.75 133.598H182.563L186.972 126.054L179.53 119.794L178.07 123.11Z" fill="#0B096F"/>
<path fill-rule="evenodd" clip-rule="evenodd" d="M156.442 78.7718C156.442 78.7718 151.687 69.6047 152.059 66.7224C152.431 63.8402 155.863 58.9563 159.626 57.235L163.719 63.4399L156.442 78.7718Z" fill="#EF3C86"/>
<path fill-rule="evenodd" clip-rule="evenodd" d="M170.896 33.5999C170.896 33.5999 165.601 36.6292 169.754 39.7648Z" fill="#0B096F"/>
<path fill-rule="evenodd" clip-rule="evenodd" d="M158.201 58.0424L159.509 66.132L162.989 60.4475L158.201 58.0424Z" fill="#BE2145"/>
<path fill-rule="evenodd" clip-rule="evenodd" d="M141.922 127.51L139.999 130.296L137.441 128.501L138.588 126.459L141.922 127.51Z" fill="#EF3C86"/>
<path fill-rule="evenodd" clip-rule="evenodd" d="M179.583 119.794L183.863 123.461L181.51 126.673L178.937 124.017L179.583 119.794Z" fill="#EF3C86"/>
<path fill-rule="evenodd" clip-rule="evenodd" d="M167.189 75.0959C162.668 99.5157 183.863 119.794 183.863 119.794L178.67 126.302C178.67 126.302 169.23 116.892 162.429 103.281C152.341 83.0893 157.749 70.8423 157.749 70.8423L167.189 75.0959Z" fill="#0D0D11"/>
<path fill-rule="evenodd" clip-rule="evenodd" d="M161.555 72.6048L137.175 126.796L143.523 129.991L172.165 77.3376L161.555 72.6048Z" fill="#393940"/>
<path fill-rule="evenodd" clip-rule="evenodd" d="M157.749 70.8424L160.349 62.0089L157.962 57.6015C157.962 57.6015 165.189 51.2804 171.39 53.0018L176.27 53.9225C176.27 53.9225 185.676 55.1565 188.19 63.0897L178.208 66.8577L172.165 77.3377" fill="#F38C01"/>
<path fill-rule="evenodd" clip-rule="evenodd" d="M188.19 63.0892L187.922 63.1972L178.325 67.0534L178.025 67.1744L172.478 76.7941C172.183 76.8891 171.882 76.9815 171.575 77.0726L157.75 70.842L160.35 62.0094C160.35 62.0094 160.981 58.001 164.135 55.0438C166.34 52.9777 168.786 52.7253 169.023 52.7058H169.026C169.819 52.6954 170.612 52.7852 171.39 53.0012L176.27 53.9223C176.27 53.9223 185.676 55.1569 188.19 63.0892" fill="#FFC100"/>
<path fill-rule="evenodd" clip-rule="evenodd" d="M190.43 74.4185C189.78 81.7237 168.229 82.905 168.229 82.905L167.189 78.142C168.75 77.8414 170.218 77.4733 171.575 77.0725C171.882 76.9815 172.183 76.8891 172.478 76.7941C178.182 74.9831 181.709 72.6777 181.709 72.6777L178.325 67.0534L187.922 63.1972C189.563 66.2975 190.801 70.2474 190.43 74.4185" fill="#FF77CA"/>
<path fill-rule="evenodd" clip-rule="evenodd" d="M180.25 44.355C181.01 43.4942 184.63 43.5343 184.43 46.0963C184.172 49.4001 178.13 48.6584 178.13 48.6584L176.769 53.8823L178.67 54.4948C178.67 54.4948 172.429 58.2859 169.016 57.0849C165.602 55.8839 169.042 52.7052 169.042 52.7052L170.544 52.8165L172.609 47.7376C172.609 47.7376 167.549 46.063 166.749 45.1022C166.749 45.1022 167.976 39.9915 170.136 36.9091L175.683 34.961L181.976 38.1634L180.25 44.355Z" fill="#FF77CA"/>
<path fill-rule="evenodd" clip-rule="evenodd" d="M183.32 44.156C183.32 44.156 187.01 44.1948 184.93 38.8506C182.85 33.5066 178.75 34.107 178.75 34.107C178.75 34.107 179.45 29.8446 176.889 28.7838C173.242 27.2725 170.322 32.6659 170.322 32.6659C170.322 32.6659 170.696 29.2231 169.469 29.2231C168.242 29.2231 163.029 38.9908 179.59 40.1117C179.59 40.1117 177.17 42.3934 180.25 44.355C180.25 44.355 181.33 43.4009 183.32 44.156" fill="#0B096F"/>
<path d="M184.83 34.5874L183.31 36.9359L184.07 37.7899L186.577 36.7358" stroke="#001F68" stroke-width="6.3"/>
<path d="M167.927 77.3325C167.927 77.3325 166.901 78.1704 167.441 80.7951C167.879 82.9259 168.658 83.3054 168.658 83.3054" stroke="#0C0D11" stroke-width="3.5"/>
<path fill-rule="evenodd" clip-rule="evenodd" d="M172.61 47.7376L176.123 48.3981L172.006 49.2214L172.61 47.7376Z" fill="#EF3C86"/>
<path fill-rule="evenodd" clip-rule="evenodd" d="M170.946 41.0887L168.986 43.077L170.151 43.5742L170.946 41.0887Z" fill="#285FD7"/>
<path fill-rule="evenodd" clip-rule="evenodd" d="M170.299 40.5414C170.166 40.9184 169.754 41.1158 169.377 40.9827C169 40.8497 168.801 40.4364 168.934 40.0593L170.299 40.5414Z" fill="#0B096F"/>
<path fill-rule="evenodd" clip-rule="evenodd" d="M173.492 41.7513C173.359 42.1283 172.947 42.3257 172.57 42.1926C172.193 42.0596 171.994 41.6463 172.127 41.2692L173.492 41.7513Z" fill="#0B096F"/>
<path d="M169.443 44.6985C169.443 44.6985 170.389 45.1656 170.976 44.485" stroke="#0D1A88" stroke-width="2.1"/>
<path fill-rule="evenodd" clip-rule="evenodd" d="M178.025 67.1742L175.177 62.8762L176.438 69.9265L178.025 67.1742Z" fill="#F38C01"/>
<path fill-rule="evenodd" clip-rule="evenodd" d="M172.478 76.7942L172.165 77.338L171.576 77.0726C171.882 76.9815 172.183 76.8892 172.478 76.7942" fill="#5495F7"/>
</svg>
