<svg width="234" height="130" viewBox="0 0 234 130" fill="none" xmlns="http://www.w3.org/2000/svg">
<path fill-rule="evenodd" clip-rule="evenodd" d="M208.761 68.047C208.761 82.384 199.405 90.3824 187.219 90.3824C175.033 90.3824 165.677 82.384 165.677 68.047C165.677 37.8609 179.426 3.06104 187.219 3.06104C195.012 3.06104 208.761 37.8609 208.761 68.047Z" fill="#C3E4FF"/>
<path d="M187.219 46.7218V112.896" stroke="#E8F6FF" stroke-width="10.5" stroke-linecap="square"/>
<path d="M193.128 80.7537L197.891 75.9906" stroke="#E8F6FF" stroke-width="7" stroke-linecap="square"/>
<path d="M193.128 53.9026L197.891 49.1396" stroke="#E8F6FF" stroke-width="7" stroke-linecap="square"/>
<path fill-rule="evenodd" clip-rule="evenodd" d="M180.536 60.5801C180.536 77.0306 167.201 90.3663 150.752 90.3663C134.302 90.3663 120.967 77.0306 120.967 60.5801C120.967 44.1297 134.302 30.7939 150.752 30.7939C167.201 30.7939 180.536 44.1297 180.536 60.5801Z" fill="#E8F6FF"/>
<path d="M150.752 54.8051V112.895" stroke="#AAD5FF" stroke-width="10.5" stroke-linecap="square"/>
<path d="M157.813 80.8688L162.576 76.1057" stroke="#AAD5FF" stroke-width="8.4" stroke-linecap="square"/>
<path d="M157.813 59.5127L162.576 54.7498" stroke="#AAD5FF" stroke-width="8.4" stroke-linecap="square"/>
<path d="M143.69 70.6781L138.927 65.915" stroke="#AAD5FF" stroke-width="8.4" stroke-linecap="square"/>
<path d="M143.69 60L138.927 55.2369" stroke="#AAD5FF" stroke-width="8.4" stroke-linecap="square"/>
<path fill-rule="evenodd" clip-rule="evenodd" d="M109.367 84.6571C109.367 98.8401 100.106 105.205 88.7272 105.205C77.3498 105.205 68.0889 98.8401 68.0889 84.6571C68.0889 58.2374 79.3524 33.5651 88.7272 33.5651C98.1033 33.5651 109.367 58.2374 109.367 84.6571Z" fill="#E8F6FF"/>
<path d="M88.7281 61.6943V112.896" stroke="#C3E4FF" stroke-width="10.5" stroke-linecap="square"/>
<path d="M93.3477 90.247L98.1104 85.4839" stroke="#C3E4FF" stroke-width="7" stroke-linecap="square"/>
<path d="M93.3477 67.3888L98.1104 62.6257" stroke="#C3E4FF" stroke-width="7" stroke-linecap="square"/>
<path d="M84.8492 90.2504L80.0229 85.4238" stroke="#C3E4FF" stroke-width="7" stroke-linecap="square"/>
<path d="M84.5103 78.9687L79.6841 74.1422" stroke="#C3E4FF" stroke-width="7" stroke-linecap="square"/>
<path fill-rule="evenodd" clip-rule="evenodd" d="M177.64 112.614L123.936 112.896C120.87 109.001 113.732 99.2478 116.606 96.3663C118.496 94.4708 124.162 100.571 125.691 98.7406C127.221 96.9114 117.176 85.5072 119.726 83.8999C124.222 81.0677 138.685 101.395 140.552 99.7591C142.515 98.0388 133.291 86.0853 136.541 84.8189C140.325 83.345 150.345 101.625 153.239 99.7591C154.755 98.7808 151.811 92.8212 154 91.8028C157.809 90.028 164.165 107.241 166.867 105.708C168.145 104.981 166.708 102.494 168.624 101.875C170.965 101.12 175.683 109.082 177.64 112.614Z" fill="#C3E4FF"/>
<path fill-rule="evenodd" clip-rule="evenodd" d="M203.229 105.736C203.15 105.841 200.765 109.023 200.466 111.953H196.274C198.253 108.02 203.12 105.785 203.229 105.736Z" fill="#C3E4FF"/>
<path fill-rule="evenodd" clip-rule="evenodd" d="M17.0806 106.255C17.1594 106.36 19.5438 109.542 19.8429 112.472H24.0347C22.0559 108.539 17.1895 106.304 17.0806 106.255Z" fill="#D6EEFF"/>
<path fill-rule="evenodd" clip-rule="evenodd" d="M108.213 106.346C108.292 106.452 110.676 109.633 110.975 112.564H115.167C113.188 108.631 108.322 106.395 108.213 106.346Z" fill="#D6EEFF"/>
<path fill-rule="evenodd" clip-rule="evenodd" d="M217.017 108.297C216.962 108.372 215.754 109.982 214.944 111.953H211.909C214.127 109.624 216.935 108.333 217.017 108.297Z" fill="#D6EEFF"/>
<path fill-rule="evenodd" clip-rule="evenodd" d="M43.93 112.472H39.4891C39.4631 109.282 37.8257 105.128 37.8257 105.128C37.8257 105.128 42.6983 109.107 43.93 112.472Z" fill="#D6EEFF"/>
<path fill-rule="evenodd" clip-rule="evenodd" d="M45.2642 112.472C46.3374 110.2 46.4019 108.37 46.4019 108.37C46.4019 108.37 48.5084 110.66 49.4059 112.472H45.2642Z" fill="#D6EEFF"/>
<path fill-rule="evenodd" clip-rule="evenodd" d="M188.77 93.9121C188.707 94.1049 185.242 103.666 184.907 111.953H179.31C179.643 108.211 177.975 103.692 177.975 103.692C177.975 103.692 180.953 105.977 181.723 109.238C181.723 109.238 184.034 98.8431 188.77 93.9121Z" fill="#D6EEFF"/>
<path fill-rule="evenodd" clip-rule="evenodd" d="M193.787 104.154C193.787 104.154 190.512 108.5 189.638 111.953H186.592C187.631 109.821 190.124 105.499 193.787 104.154Z" fill="#D6EEFF"/>
<path fill-rule="evenodd" clip-rule="evenodd" d="M220.22 91.8202C220.22 99.1012 216.752 105.714 208.898 105.714C201.044 105.714 197.575 99.1012 197.575 91.8202C197.575 83.279 203.51 74.7855 208.898 74.7855C214.286 74.7855 220.22 83.279 220.22 91.8202Z" fill="#E8F6FF"/>
<path d="M208.898 91.1404V112.896" stroke="#D6EEFF" stroke-width="10.5" stroke-linecap="square"/>
<path d="M212.809 93.5758L216.056 90.3824" stroke="#D6EEFF" stroke-width="6.3" stroke-linecap="square"/>
<path d="M205.35 96.9137L201.383 93.3319" stroke="#D6EEFF" stroke-width="6.3" stroke-linecap="square"/>
<mask id="mask0" mask-type="alpha" maskUnits="userSpaceOnUse" x="23" y="0" width="52" height="102">
<path fill-rule="evenodd" clip-rule="evenodd" d="M23.8501 0H74.9612V101.377H23.8501V0Z" fill="white"/>
</mask>
<g mask="url(#mask0)">
<path fill-rule="evenodd" clip-rule="evenodd" d="M29.4072 57.9514C28.615 55.5794 24.2731 55.9809 24.2724 49.3668C24.2713 39.408 37.986 40.5447 38.7947 33.0411C39.6035 25.5375 30.7906 25.7169 30.5178 19.388C30.2449 13.059 36.9461 -0.00012207 47.1133 -0.00012207C55.1303 -0.00012207 48.4902 10.0763 54.9603 14.5825C61.4303 19.0886 68.82 13.3158 72.4772 20.4016C77.5149 30.1622 64.6331 41.8844 65.904 49.3668C67.175 56.8494 74.7265 55.0802 74.9576 63.3017C75.1887 71.5232 64.2191 72.9701 65.2526 80.0199C65.904 84.464 72.8462 82.9802 73.2104 91.743C73.5187 99.1623 49.6664 108.343 31.7488 93.245C13.831 78.1475 32.4308 67.0046 29.4072 57.9514Z" fill="#C3E4FF"/>
</g>
<path d="M49.0304 39.9805V112.896" stroke="#E8F6FF" stroke-width="10.5" stroke-linecap="square"/>
<path d="M56.106 86.604L60.8688 81.8411" stroke="#E8F6FF" stroke-width="8.4" stroke-linecap="square"/>
<path d="M54.6543 60.996L59.4171 56.233" stroke="#E8F6FF" stroke-width="8.4" stroke-linecap="square"/>
<path d="M54.6543 48.1921L59.4171 43.429" stroke="#E8F6FF" stroke-width="8.4" stroke-linecap="square"/>
<path d="M42.1583 48.1921L37.3955 43.429" stroke="#E8F6FF" stroke-width="8.4" stroke-linecap="square"/>
<path d="M68.1933 112.179C68.1933 112.179 63.957 102.658 57.564 98.1211" stroke="#AAD5FF" stroke-width="6.3" stroke-linecap="square"/>
<path d="M70.3214 112.472C70.3214 112.472 69.6281 98.0649 74.8659 92.7809" stroke="#AAD5FF" stroke-width="6.3" stroke-linecap="square"/>
<path fill-rule="evenodd" clip-rule="evenodd" d="M70.9077 92.7809C70.9077 94.5666 72.3552 96.0142 74.141 96.0142C75.9266 96.0142 77.3741 94.5666 77.3741 92.7809C77.3741 90.9951 75.9266 89.5475 74.141 89.5475C72.3552 89.5475 70.9077 90.9951 70.9077 92.7809Z" fill="#AAD5FF"/>
<path fill-rule="evenodd" clip-rule="evenodd" d="M55.5459 99.4959C55.5459 101.282 56.9934 102.729 58.7791 102.729C60.5647 102.729 62.0123 101.282 62.0123 99.4959C62.0123 97.71 60.5647 96.2625 58.7791 96.2625C56.9934 96.2625 55.5459 97.71 55.5459 99.4959Z" fill="#AAD5FF"/>
<path d="M128.539 111.676C128.539 111.676 128.049 105.15 131.698 97.5216" stroke="#AAD5FF" stroke-width="6.3" stroke-linecap="square"/>
<path d="M126.496 112.343C126.496 112.343 123.371 98.6577 115.271 91.9791" stroke="#AAD5FF" stroke-width="6.3" stroke-linecap="square"/>
<path fill-rule="evenodd" clip-rule="evenodd" d="M118.349 90.5656C118.666 92.323 117.499 94.0049 115.742 94.3222C113.984 94.6396 112.303 93.4724 111.985 91.7152C111.668 89.9579 112.835 88.276 114.592 87.9585C116.349 87.6411 118.031 88.8083 118.349 90.5656Z" fill="#AAD5FF"/>
<path fill-rule="evenodd" clip-rule="evenodd" d="M135.763 94.5481C136.08 96.3054 134.913 97.9873 133.156 98.3047C131.399 98.6221 129.717 97.4548 129.4 95.6976C129.082 93.9403 130.25 92.2584 132.007 91.941C133.764 91.6235 135.446 92.7909 135.763 94.5481Z" fill="#AAD5FF"/>
<path fill-rule="evenodd" clip-rule="evenodd" d="M81.4672 96.3602C81.3646 96.4959 74.7684 105.159 74.5995 111.947H69.2725C69.9859 109.737 73.0787 101.652 81.4672 96.3602Z" fill="#C3E4FF"/>
<path fill-rule="evenodd" clip-rule="evenodd" d="M66.4043 111.953H62.16C61.3206 108.763 58.7793 106.774 58.7793 106.774C58.7793 106.774 63.8259 107.761 66.4043 111.953Z" fill="#C3E4FF"/>
<path fill-rule="evenodd" clip-rule="evenodd" d="M144.395 103.543C144.487 103.66 146.474 108.231 146.238 112.563H153.234C153.368 110.195 154.87 106.806 154.87 106.806C154.87 106.806 151.789 108.053 149.706 111.616C149.706 111.616 148.13 105.188 144.395 103.543Z" fill="#D6EEFF"/>
<path fill-rule="evenodd" clip-rule="evenodd" d="M133.427 105.592C133.344 105.753 131.66 108.671 131.216 112.082L124.546 112.767C124.092 109.734 123.111 108.045 123.111 108.045C123.111 108.045 125.912 108.86 127.407 111.241C127.407 111.241 129.14 107.577 133.427 105.592Z" fill="#D6EEFF"/>
<path fill-rule="evenodd" clip-rule="evenodd" d="M44.5019 82.3403C44.5019 93.9485 39.7006 104.492 28.8301 104.492C17.9595 104.492 13.1582 93.9485 13.1582 82.3403C13.1582 68.7229 21.3727 55.1821 28.8301 55.1821C36.2874 55.1821 44.5019 68.7229 44.5019 82.3403Z" fill="#E8F6FF"/>
<path d="M28.8297 79.8369V112.896" stroke="#D6EEFF" stroke-width="10.5" stroke-linecap="square"/>
<path d="M33.3877 83.8687L37.6295 79.1057" stroke="#D6EEFF" stroke-width="7" stroke-linecap="square"/>
<path d="M24.2716 93.6556L20.0298 88.8925" stroke="#D6EEFF" stroke-width="7" stroke-linecap="square"/>
<path d="M24.2716 84.0644L20.0298 79.3013" stroke="#D6EEFF" stroke-width="7" stroke-linecap="square"/>
<path d="M226.211 112.896H7" stroke="#D6EEFF" stroke-width="14" stroke-linecap="round"/>
<path fill-rule="evenodd" clip-rule="evenodd" d="M190.761 129.037C190.761 129.287 178.295 129.489 162.917 129.489C147.539 129.489 135.073 129.287 135.073 129.037C135.073 128.787 147.539 128.584 162.917 128.584C178.295 128.584 190.761 128.787 190.761 129.037Z" fill="#AFB4C8"/>
<path fill-rule="evenodd" clip-rule="evenodd" d="M144.886 106.235H179.78C181.734 106.235 183.371 104.757 183.571 102.814L191.452 26.2048C191.683 23.9577 189.92 22.0038 187.662 22.0038H152.769C150.815 22.0038 149.178 23.4813 148.978 25.4247L141.096 102.034C140.864 104.281 142.627 106.235 144.886 106.235Z" fill="#1F2430"/>
<path fill-rule="evenodd" clip-rule="evenodd" d="M187.067 26.2041L179.185 102.814C178.985 104.757 177.348 106.234 175.394 106.234H140.501C138.241 106.234 136.478 104.28 136.709 102.034L144.592 25.4243C144.791 23.4804 146.428 22.0034 148.382 22.0034H183.276C185.535 22.0034 187.297 23.9573 187.067 26.2041Z" fill="#5B6A76"/>
<path fill-rule="evenodd" clip-rule="evenodd" d="M142.217 103.09H173.981C175.309 103.09 176.422 102.086 176.557 100.766L184.068 27.7527C184.226 26.2258 183.028 24.8981 181.493 24.8981H149.729C148.401 24.8981 147.289 25.9021 147.153 27.2226L139.641 100.236C139.484 101.763 140.682 103.09 142.217 103.09Z" fill="white"/>
<path fill-rule="evenodd" clip-rule="evenodd" d="M192.217 34.7637L191.71 39.6819H188.128L188.633 34.7637H192.217Z" stroke="#5B6A76" stroke-width="3.5"/>
<path fill-rule="evenodd" clip-rule="evenodd" d="M191.477 43.0895L190.971 48.0077H187.389L187.894 43.0895H191.477Z" stroke="#5B6A76" stroke-width="3.5"/>
<path fill-rule="evenodd" clip-rule="evenodd" d="M176.519 22.4293L176.102 26.4848C175.963 27.8342 174.827 28.8606 173.471 28.8606H158.326C156.759 28.8606 155.535 27.5037 155.695 25.9441L156.057 22.4293H176.519Z" fill="#5B6A76"/>
<path fill-rule="evenodd" clip-rule="evenodd" d="M168.666 26.1824H161.897C161.617 26.1824 161.387 25.9528 161.387 25.6721C161.387 25.3914 161.617 25.1617 161.897 25.1617H168.666C168.947 25.1617 169.176 25.3914 169.176 25.6721C169.176 25.9528 168.947 26.1824 168.666 26.1824Z" fill="black"/>
<path fill-rule="evenodd" clip-rule="evenodd" d="M171.913 25.6722C171.913 26.142 171.532 26.5228 171.062 26.5228C170.592 26.5228 170.211 26.142 170.211 25.6722C170.211 25.2024 170.592 24.8217 171.062 24.8217C171.532 24.8217 171.913 25.2024 171.913 25.6722Z" fill="black"/>
<path fill-rule="evenodd" clip-rule="evenodd" d="M179.995 38.4776L177.702 60.7626C177.597 61.7835 176.737 62.5597 175.71 62.5597H148.805C147.618 62.5597 146.692 61.5331 146.813 60.3528L149.106 38.0753C149.211 37.0547 150.071 36.2786 151.097 36.2784L178.003 36.2708C179.189 36.2704 180.116 37.2969 179.995 38.4776Z" fill="#E8F6FF"/>
<path fill-rule="evenodd" clip-rule="evenodd" d="M176.01 76.3003L173.717 98.5853C173.612 99.6062 172.752 100.382 171.726 100.382H144.82C143.633 100.382 142.707 99.3559 142.829 98.1753L145.121 75.8981C145.226 74.8773 146.086 74.1013 147.112 74.101L174.018 74.0934C175.205 74.093 176.131 75.1195 176.01 76.3003Z" fill="#E8F6FF"/>
<path fill-rule="evenodd" clip-rule="evenodd" d="M151.049 27.0303C151.049 27.5939 150.592 28.0509 150.028 28.0509C149.464 28.0509 149.007 27.5939 149.007 27.0303C149.007 26.4666 149.464 26.0096 150.028 26.0096C150.592 26.0096 151.049 26.4666 151.049 27.0303Z" fill="#D6E1E6"/>
<path fill-rule="evenodd" clip-rule="evenodd" d="M153.86 27.0303C153.86 27.5939 153.403 28.0509 152.839 28.0509C152.275 28.0509 151.818 27.5939 151.818 27.0303C151.818 26.4666 152.275 26.0096 152.839 26.0096C153.403 26.0096 153.86 26.4666 153.86 27.0303Z" fill="#D6E1E6"/>
<path fill-rule="evenodd" clip-rule="evenodd" d="M182.33 27.0303C182.33 27.5939 181.873 28.0509 181.309 28.0509C180.746 28.0509 180.289 27.5939 180.289 27.0303C180.289 26.4666 180.746 26.0096 181.309 26.0096C181.873 26.0096 182.33 26.4666 182.33 27.0303Z" fill="#D6E1E6"/>
<path fill-rule="evenodd" clip-rule="evenodd" d="M142.626 37.385L142.55 37.4605V40.3161C142.55 42.8319 143.669 44.5133 145.878 44.8718C146.246 44.9317 147.512 44.9653 148.57 44.9835C148.844 44.9882 148.86 44.6146 148.598 44.538C146.464 43.9146 145.878 41.976 145.878 40.3161V37.4605L145.802 37.385H142.626Z" fill="#49ADFF"/>
<path fill-rule="evenodd" clip-rule="evenodd" d="M174.767 88.3849L173.716 98.5849C173.611 99.6063 172.751 100.382 171.725 100.382H162.339C161.107 98.8866 160.368 96.9691 160.368 94.88C160.368 90.0946 164.247 86.2157 169.032 86.2157C171.232 86.2157 173.238 87.0356 174.767 88.3849Z" fill="#D0E1E9"/>
<path fill-rule="evenodd" clip-rule="evenodd" d="M159.219 86.8046C159.674 90.558 157 93.9698 153.247 94.4248C149.493 94.8799 146.082 92.2059 145.627 88.4523C145.172 84.6988 147.845 81.287 151.599 80.8321C155.352 80.3771 158.764 83.0511 159.219 86.8046Z" fill="#D0E1E9"/>
<path fill-rule="evenodd" clip-rule="evenodd" d="M165.557 79.6953C163.095 81.2253 162.34 84.4613 163.869 86.9233C165.399 89.3852 168.635 90.1409 171.097 88.6111L165.557 79.6953Z" fill="#BCCED4"/>
<path fill-rule="evenodd" clip-rule="evenodd" d="M152.487 82.5C154.091 83.7566 156.409 83.4756 157.665 81.8723C158.922 80.2691 158.641 77.9507 157.038 76.6941L152.487 82.5Z" fill="#BCCED4"/>
<path fill-rule="evenodd" clip-rule="evenodd" d="M118.971 42.7451H147.464C148.88 42.7451 150.028 41.5972 150.028 40.1811V32.5038C150.028 31.0876 148.88 29.9397 147.464 29.9397H118.971C117.555 29.9397 116.407 31.0876 116.407 32.5038V40.1811C116.407 41.5972 117.555 42.7451 118.971 42.7451Z" fill="#49ADFF"/>
<path fill-rule="evenodd" clip-rule="evenodd" d="M169.199 31.7776C169.199 34.245 167.199 36.2452 164.732 36.2452C162.264 36.2452 160.264 34.245 160.264 31.7776C160.264 29.3103 162.264 27.3101 164.732 27.3101C167.199 27.3101 169.199 29.3103 169.199 31.7776Z" fill="#25003F"/>
<path fill-rule="evenodd" clip-rule="evenodd" d="M168.591 42.1094C168.591 42.1619 168.591 42.2132 168.59 42.2658C168.506 47.0536 164.601 50.9076 159.795 50.9076C155.902 50.9076 152.602 48.3816 151.441 44.8781C151.34 44.5715 151.255 44.2573 151.187 43.9356C151.073 43.3961 151.008 42.8378 150.998 42.2658C150.997 42.2132 150.997 42.1619 150.997 42.1094C150.997 40.0315 151.717 38.1214 152.922 36.6156C153.146 36.3352 153.388 36.0699 153.644 35.8195C155.23 34.2674 157.399 33.3124 159.795 33.3124C164.652 33.3124 168.591 37.2515 168.591 42.1094Z" fill="#25003F"/>
<path fill-rule="evenodd" clip-rule="evenodd" d="M129.674 55.9256L149.371 55.0086L156.097 48.8881L128.924 53.0568C128.924 53.0568 128.689 52.4243 128.35 51.7718C128.011 51.1193 127.211 50.4883 127.3 49.096C127.389 47.7039 126.421 48.9828 126.349 49.6544C126.278 50.3261 127.004 51.5774 126.452 51.8602C125.9 52.1429 124.356 52.1173 124.014 52.4904C123.672 52.8635 123.812 53.6795 124.076 53.8215C124.076 53.8215 123.734 54.8277 124.409 55.4509C124.409 55.4509 124.466 56.166 125.124 56.4459C125.124 56.4459 125.362 57.1545 126.078 57.0698C126.793 56.985 128.411 56.3956 129.674 55.9256Z" fill="#FF77CA"/>
<path fill-rule="evenodd" clip-rule="evenodd" d="M150.998 53.8579H168.592V42.2659H150.998V53.8579Z" fill="#25003F"/>
<path fill-rule="evenodd" clip-rule="evenodd" d="M176.261 51.2492L173.085 58.7984C173.085 58.7984 172.69 61.3054 170.14 62.5596H162.638C156.692 60.5782 154.252 55.1395 154.252 55.1395L145.791 59.1957V49.9879C145.791 49.9879 159.533 48.0337 159.444 47.9823C159.322 47.9122 167.885 47.4365 169.58 47.6269C171.275 47.8171 176.261 51.2492 176.261 51.2492Z" fill="#49A2FF"/>
<path fill-rule="evenodd" clip-rule="evenodd" d="M155.503 48.5975C155.503 48.5975 154.815 49.0237 154.399 49.9396C153.855 51.1372 153.841 52.8338 153.975 53.9578C154.06 54.6653 154.253 55.1396 154.253 55.1396C154.253 55.1396 146.418 58.9191 145.791 59.1957V49.9879C146.705 49.8552 155.503 48.5975 155.503 48.5975Z" fill="#285FD7"/>
<path fill-rule="evenodd" clip-rule="evenodd" d="M178.119 56.703L177.702 60.7623C177.597 61.7837 176.737 62.5597 175.711 62.5597H166.651L165.285 63.4515C165.285 63.4515 165.311 64.6643 165.426 65.5313C165.486 65.9784 164.933 66.2572 164.933 66.2572C164.933 66.2572 164.791 66.6816 164.432 66.7704C164.135 66.8443 163.888 66.3007 163.816 66.1069C164.207 67.1553 163.581 67.4251 163.392 67.4C163.199 67.3738 163.122 67.0921 163.122 67.0921C163.122 67.0921 162.737 67.2586 162.14 66.6428C161.543 66.0257 161.299 64.1256 161.322 63.4684C161.329 63.2394 161.498 62.9064 161.715 62.5597C161.734 62.5297 161.752 62.4984 161.772 62.4683C162.169 61.8487 162.686 61.2104 162.686 61.0627L173.083 58.7983L175.285 53.5687L178.119 56.703Z" fill="#FF77CA"/>
<path fill-rule="evenodd" clip-rule="evenodd" d="M161.864 45.8194C161.386 46.5441 161.584 47.4979 161.858 48.055C161.951 48.2465 162.053 48.3917 162.141 48.4643C162.481 48.7459 160.298 50.8262 160.298 50.8262L158.377 48.7133C157.171 48.7809 155.916 48.6958 155.138 48.2077C152.819 46.7532 152.673 41.6988 152.711 41.446L154.651 39.3869C154.651 39.3869 157.579 38.1028 158.026 38.6459C158.844 39.6411 160.76 44.0957 162.141 43.5851C162.141 43.5851 161.965 42.1995 163.187 42.1995C164.099 42.1995 164.346 42.8904 164.346 43.2897C164.346 44.6378 162.506 44.8431 161.864 45.8194Z" fill="#FF77CA"/>
<path fill-rule="evenodd" clip-rule="evenodd" d="M155.482 44.3279L154.612 46.3316L155.625 46.311L155.482 44.3279Z" fill="#285FD7"/>
<path fill-rule="evenodd" clip-rule="evenodd" d="M156.412 44.3117C156.434 44.7118 156.683 45.0231 156.968 45.0072C157.254 44.9911 157.467 44.6539 157.444 44.254C157.422 43.854 157.172 43.5426 156.887 43.5586C156.602 43.5745 156.389 43.9117 156.412 44.3117Z" fill="#0B096F"/>
<path fill-rule="evenodd" clip-rule="evenodd" d="M153.735 44.2515C153.757 44.6516 154.006 44.9629 154.291 44.947C154.576 44.931 154.789 44.5938 154.767 44.1938C154.744 43.7938 154.495 43.4824 154.21 43.4984C153.925 43.5143 153.712 43.8515 153.735 44.2515Z" fill="#0B096F"/>
<path fill-rule="evenodd" clip-rule="evenodd" d="M155.314 39.3632C155.314 39.9164 155.216 40.4484 155.037 40.9416C155.014 41.0029 154.99 41.0667 154.962 41.1281C154.79 41.5411 154.559 41.9241 154.281 42.2659C153.532 43.1859 152.433 43.8092 151.187 43.9356C151.123 43.9419 151.061 43.9469 150.997 43.9494V42.2659H150.998C150.997 42.2133 150.997 42.162 150.997 42.1094C150.997 40.0316 151.717 38.1215 152.922 36.6157C153.146 36.3353 153.388 36.0699 153.644 35.8196C154.227 36.3015 154.689 36.9248 154.978 37.6383C155.195 38.1703 155.314 38.7523 155.314 39.3632Z" fill="#25003F"/>
<path fill-rule="evenodd" clip-rule="evenodd" d="M162.14 39.2561C162.14 40.4586 160.99 41.4723 159.418 41.7829C159.294 41.8084 159.167 41.8286 159.037 41.8439C158.829 41.8704 158.614 41.8832 158.396 41.8832C156.327 41.8832 154.651 40.7074 154.651 39.2561C154.651 39.1166 154.666 38.9796 154.697 38.8465C154.977 37.5894 156.526 36.6278 158.396 36.6278C160.444 36.6278 162.108 37.7823 162.139 39.2143C162.14 39.2282 162.14 39.2422 162.14 39.2561Z" fill="#25003F"/>
<path fill-rule="evenodd" clip-rule="evenodd" d="M155.625 47.0902C155.625 47.0902 156.8 47.1994 156.8 46.3842L155.625 47.0902Z" fill="white"/>
<path fill-rule="evenodd" clip-rule="evenodd" d="M162.517 48.3362C163.177 48.9127 163.22 49.9435 162.614 50.6385C162.007 51.3334 160.837 51.4617 160.298 50.8262C159.731 50.1578 159.616 49.2454 160.223 48.5505C160.83 47.8556 161.857 47.7597 162.517 48.3362Z" fill="#FF77CA"/>
<path fill-rule="evenodd" clip-rule="evenodd" d="M164.843 54.3436H161.58V46.6968H168.591V50.5946C168.591 52.665 166.913 54.3436 164.843 54.3436Z" fill="#25003F"/>
<path fill-rule="evenodd" clip-rule="evenodd" d="M158.377 48.7133C158.377 48.7133 159.661 48.5209 160.31 48.184L159.089 49.4967L158.377 48.7133Z" fill="#EF3C86"/>
<path fill-rule="evenodd" clip-rule="evenodd" d="M145.791 50.4691V55.1753L145.194 55.2029L145.442 50.5227L145.791 50.4691Z" fill="#EF3C86"/>
<path fill-rule="evenodd" clip-rule="evenodd" d="M173.083 58.7983L174.22 58.5024L175.285 53.5687L173.083 58.7983Z" fill="#EF3C86"/>
<path fill-rule="evenodd" clip-rule="evenodd" d="M168.469 54.3436L171.882 59.0599L170.095 59.4492L168.469 54.3436Z" fill="#285FD7"/>
<path fill-rule="evenodd" clip-rule="evenodd" d="M126.575 52.3928C126.64 52.3688 126.712 52.402 126.736 52.4669C126.827 52.7122 126.693 52.9388 126.579 53.0782C126.564 53.096 126.549 53.1131 126.534 53.1294C126.545 53.1324 126.555 53.1357 126.566 53.1393C126.744 53.1985 126.949 53.3338 127.04 53.6253C127.127 53.9044 126.989 54.1413 126.859 54.2908C126.851 54.2999 126.843 54.3088 126.835 54.3174C126.845 54.3193 126.855 54.3214 126.866 54.3237C127.066 54.368 127.311 54.4884 127.412 54.7912C127.522 55.1209 127.388 55.3789 127.23 55.5489C127.316 55.5599 127.405 55.5853 127.488 55.6358C127.602 55.7054 127.692 55.8173 127.739 55.9804C127.784 56.1373 127.768 56.2754 127.713 56.3915C127.66 56.5047 127.573 56.5883 127.489 56.6483C127.404 56.7085 127.316 56.7491 127.25 56.7744C127.216 56.7873 127.188 56.7965 127.168 56.8027C127.158 56.8057 127.149 56.8081 127.143 56.8097C127.14 56.8105 127.138 56.8111 127.136 56.8115L127.134 56.8121L127.133 56.8123L127.133 56.8123L127.133 56.8124C127.133 56.8124 127.133 56.8124 127.103 56.6907L127.133 56.8124C127.066 56.8286 126.998 56.7873 126.982 56.7201C126.966 56.653 127.007 56.5854 127.074 56.569C127.074 56.569 127.074 56.569 127.074 56.569C127.074 56.569 127.074 56.569 127.074 56.569C127.074 56.569 127.074 56.569 127.074 56.569C127.074 56.569 127.074 56.569 127.074 56.569C127.074 56.569 127.074 56.569 127.074 56.569C127.074 56.569 127.074 56.569 127.074 56.569C127.074 56.569 127.074 56.569 127.074 56.569L127.074 56.5689L127.078 56.5679C127.082 56.5669 127.088 56.5652 127.095 56.5629C127.111 56.5583 127.133 56.551 127.16 56.5408C127.213 56.52 127.281 56.4884 127.344 56.4441C127.407 56.3996 127.458 56.3464 127.487 56.2846C127.515 56.2257 127.527 56.1503 127.498 56.0494L127.498 56.0494C127.468 55.9437 127.415 55.8848 127.357 55.8493C127.296 55.8119 127.22 55.795 127.138 55.7925C127.056 55.7901 126.977 55.802 126.916 55.8153C126.886 55.8219 126.862 55.8286 126.845 55.8335C126.837 55.8359 126.831 55.8379 126.827 55.8393L126.823 55.8407L126.822 55.8408L126.822 55.8409C126.822 55.8409 126.822 55.8409 126.822 55.8394L126.73 55.61C126.729 55.6085 126.729 55.6085 126.729 55.6085L126.729 55.6085L126.73 55.6082L126.734 55.6062C126.738 55.6043 126.745 55.6012 126.753 55.5969C126.77 55.5885 126.794 55.5755 126.822 55.5581C126.88 55.5231 126.954 55.4717 127.021 55.4053C127.155 55.2728 127.25 55.0975 127.174 54.8704L127.174 54.8704C127.111 54.682 126.963 54.6018 126.811 54.5682C126.735 54.5514 126.663 54.5476 126.608 54.5483C126.581 54.5486 126.56 54.5501 126.545 54.5513C126.538 54.552 126.532 54.5526 126.529 54.553L126.525 54.5534L126.525 54.5534C126.525 54.5534 126.525 54.5534 126.525 54.5531L126.442 54.3228C126.442 54.3226 126.442 54.3226 126.442 54.3226L126.442 54.3225L126.442 54.3223L126.446 54.3202C126.449 54.3182 126.454 54.315 126.46 54.3106C126.473 54.3019 126.492 54.2887 126.514 54.2715C126.559 54.2367 126.617 54.187 126.67 54.1261C126.78 54.0004 126.849 53.8538 126.801 53.6996L126.916 53.6637L126.801 53.6996C126.74 53.5034 126.608 53.4173 126.487 53.3769C126.425 53.3563 126.366 53.348 126.322 53.3451C126.3 53.3437 126.283 53.3436 126.272 53.3438C126.266 53.3439 126.262 53.3441 126.259 53.3442L126.257 53.3444C126.257 53.3444 126.257 53.3444 126.257 53.3444L125.793 53.3841L126.174 53.1172L126.174 53.1171L126.174 53.1171L126.175 53.1171L126.175 53.1167L126.178 53.1144C126.181 53.1123 126.186 53.1089 126.192 53.1043C126.204 53.0951 126.221 53.0814 126.242 53.0637C126.283 53.0281 126.337 52.978 126.385 52.9188C126.49 52.7926 126.542 52.6646 126.501 52.5536C126.477 52.4888 126.511 52.4167 126.575 52.3928ZM126.442 54.3226C126.442 54.3227 126.442 54.3227 126.442 54.3227L126.442 54.3226ZM126.822 55.8409C126.822 55.8409 126.822 55.8409 126.822 55.8409L126.822 55.8409Z" fill="#5495F7"/>
<path fill-rule="evenodd" clip-rule="evenodd" d="M126.28 53.3402L124.109 53.942L124.042 53.7007L126.213 53.0989L126.28 53.3402Z" fill="#5495F7"/>
<path fill-rule="evenodd" clip-rule="evenodd" d="M126.562 54.5422L124.464 55.5634L124.354 55.3383L126.452 54.317L126.562 54.5422Z" fill="#5495F7"/>
<path fill-rule="evenodd" clip-rule="evenodd" d="M126.83 55.8378L125.173 56.5605L125.073 56.331L126.73 55.6083L126.83 55.8378Z" fill="#5495F7"/>
<path fill-rule="evenodd" clip-rule="evenodd" d="M162.239 63.1177C162.308 63.1194 162.363 63.1769 162.361 63.246C162.361 63.246 162.361 63.246 162.361 63.246L162.361 63.2463L162.361 63.2477L162.361 63.2537C162.361 63.259 162.361 63.2672 162.36 63.278C162.36 63.2997 162.36 63.3319 162.361 63.3736C162.361 63.457 162.364 63.5783 162.372 63.7285C162.387 64.0293 162.423 64.4453 162.504 64.9062C162.558 65.2124 162.738 65.7105 162.91 66.1416C162.995 66.3551 163.076 66.5487 163.137 66.689C163.167 66.7591 163.192 66.8159 163.209 66.855C163.218 66.8746 163.224 66.8898 163.229 66.9L163.234 66.9116L163.236 66.9154L163.122 66.9668C163.008 67.0182 163.008 67.0182 163.008 67.0182L163.006 67.014L163 67.0019C162.996 66.9914 162.989 66.9759 162.98 66.9561C162.962 66.9163 162.937 66.8589 162.907 66.788C162.846 66.6462 162.763 66.4504 162.677 66.2343C162.507 65.8063 162.316 65.285 162.257 64.9494C162.175 64.4762 162.138 64.0497 162.122 63.7415C162.114 63.5873 162.111 63.4625 162.11 63.376C162.11 63.3327 162.11 63.299 162.11 63.2759C162.11 63.2644 162.11 63.2555 162.11 63.2494L162.11 63.2424L162.111 63.2406L162.111 63.2398C162.111 63.2398 162.111 63.2398 162.236 63.2429L162.111 63.2398C162.112 63.1707 162.17 63.116 162.239 63.1177ZM163.122 66.9668L163.008 67.0182C163.036 67.0812 163.11 67.1094 163.173 67.081C163.236 67.0526 163.264 66.9785 163.236 66.9154L163.122 66.9668Z" fill="#5495F7"/>
<path fill-rule="evenodd" clip-rule="evenodd" d="M163.343 63.0501C163.343 63.0501 163.343 63.0501 163.343 63.0501L163.343 63.0533L163.343 63.0633C163.343 63.0721 163.343 63.0852 163.344 63.1021C163.344 63.1359 163.345 63.185 163.346 63.2456C163.349 63.3669 163.355 63.5342 163.367 63.7181C163.39 64.091 163.436 64.5153 163.522 64.7698M163.218 63.0503C163.093 63.0504 163.093 63.0504 163.093 63.0504L163.093 63.0542L163.093 63.0648C163.093 63.074 163.093 63.0876 163.093 63.105C163.094 63.1398 163.094 63.1899 163.096 63.2517C163.099 63.3753 163.105 63.5459 163.117 63.7338C163.14 64.1046 163.187 64.5601 163.285 64.85C163.368 65.0946 163.517 65.5163 163.645 65.8759C163.709 66.0559 163.768 66.2207 163.811 66.3404C163.833 66.4003 163.85 66.4489 163.862 66.4826L163.881 66.535C163.905 66.6 163.976 66.6338 164.041 66.6104C164.106 66.5869 164.14 66.5152 164.117 66.4501L164.098 66.3979C164.086 66.3642 164.068 66.3157 164.047 66.2558C164.004 66.1362 163.945 65.9716 163.881 65.7918C163.753 65.4319 163.604 65.0122 163.522 64.7698M163.343 63.0501C163.343 62.981 163.287 62.925 163.218 62.925C163.149 62.9251 163.093 62.9813 163.093 63.0504L163.218 63.0503" fill="#5495F7"/>
<path fill-rule="evenodd" clip-rule="evenodd" d="M164.361 62.7911C164.43 62.7988 164.479 62.8608 164.471 62.9295L164.471 62.93L164.471 62.9318L164.47 62.9392C164.47 62.9457 164.469 62.9555 164.467 62.9683C164.465 62.9939 164.461 63.0312 164.457 63.0782C164.449 63.1722 164.439 63.3042 164.432 63.4561C164.418 63.7616 164.416 64.1406 164.46 64.4514C164.518 64.8619 164.663 65.2662 164.794 65.5702C164.86 65.7217 164.922 65.847 164.967 65.9342C164.99 65.9778 165.008 66.0118 165.021 66.0347C165.028 66.0462 165.032 66.0549 165.036 66.0606L165.039 66.0669L165.04 66.0684L165.04 66.0687M164.932 66.132C164.824 66.1953 164.824 66.1953 164.824 66.1953L164.824 66.1944L164.823 66.1924L164.818 66.1848C164.815 66.1782 164.809 66.1687 164.802 66.1563C164.788 66.1315 164.769 66.0955 164.745 66.0497C164.698 65.9583 164.633 65.8276 164.565 65.6698C164.428 65.3554 164.275 64.9281 164.212 64.4866C164.165 64.1522 164.168 63.7545 164.182 63.4446C164.189 63.2887 164.199 63.1533 164.208 63.0568C164.212 63.0085 164.215 62.9699 164.218 62.9433C164.22 62.93 164.221 62.9196 164.221 62.9126L164.222 62.9045L164.222 62.9023L164.223 62.9015C164.223 62.9015 164.223 62.9015 164.347 62.9155L164.223 62.9015C164.23 62.8328 164.292 62.7833 164.361 62.7911M164.932 66.132L164.824 66.1953C164.859 66.2549 164.936 66.275 164.996 66.24C165.055 66.205 165.075 66.1283 165.04 66.0687" fill="#5495F7"/>
<path fill-rule="evenodd" clip-rule="evenodd" d="M108.955 129.037C108.955 129.287 96.4884 129.489 81.1105 129.489C65.7324 129.489 53.2661 129.287 53.2661 129.037C53.2661 128.787 65.7324 128.584 81.1105 128.584C96.4884 128.584 108.955 128.787 108.955 129.037Z" fill="#AFB4C8"/>
<path fill-rule="evenodd" clip-rule="evenodd" d="M92.0663 107.123H57.1721C55.2185 107.123 53.5814 105.645 53.3814 103.702L45.5004 27.0927C45.2692 24.8456 47.0323 22.8918 49.2911 22.8918H84.1841C86.1377 22.8918 87.7749 24.3692 87.9748 26.3126L95.8571 102.922C96.0882 105.169 94.3252 107.123 92.0663 107.123Z" fill="#1F2430"/>
<path fill-rule="evenodd" clip-rule="evenodd" d="M96.4517 107.123H61.5583C59.6045 107.123 57.9674 105.646 57.7671 103.702L49.8855 27.0926C49.6552 24.8459 51.4175 22.8918 53.6767 22.8918H88.5701C90.5239 22.8918 92.1611 24.369 92.3601 26.3128L100.243 102.922C100.474 105.169 98.7109 107.123 96.4517 107.123Z" fill="#5B6A76"/>
<mask id="mask1" mask-type="alpha" maskUnits="userSpaceOnUse" x="53" y="25" width="45" height="77">
<path fill-rule="evenodd" clip-rule="evenodd" d="M80.4665 25.3514C79.3619 25.3514 78.4998 26.3071 78.6128 27.406L78.7406 28.6464C78.8588 29.7951 77.9576 30.794 76.803 30.794H68.1304C66.85 30.794 65.7761 29.8252 65.6447 28.5509L65.5111 27.2529C65.4 26.1728 64.49 25.3514 63.4041 25.3514H55.6839C54.142 25.3514 52.9392 26.6846 53.0969 28.218L60.4103 99.3009C60.5467 100.628 61.6632 101.635 62.9962 101.635H94.9319C96.4739 101.635 97.6768 100.302 97.5192 98.769L90.2044 27.686C90.068 26.3592 88.9515 25.3514 87.6187 25.3514H80.4665Z" fill="white"/>
</mask>
<g mask="url(#mask1)">
<path fill-rule="evenodd" clip-rule="evenodd" d="M45.4795 108.853H103.485V21.1183H45.4795V108.853Z" fill="white"/>
<path fill-rule="evenodd" clip-rule="evenodd" d="M62.3755 86.5578L64.6682 108.843C64.7734 109.864 65.6334 110.64 66.6597 110.64H93.5653C94.752 110.64 95.6781 109.613 95.5567 108.433L93.2639 86.1555C93.1589 85.1349 92.2992 84.3588 91.2731 84.3586L64.3674 84.351C63.1805 84.3506 62.254 85.3771 62.3755 86.5578Z" fill="#E8F6FF"/>
<path fill-rule="evenodd" clip-rule="evenodd" d="M58.4956 48.601L60.7884 70.886C60.8934 71.9069 61.7535 72.6831 62.7797 72.6831H89.6853C90.872 72.6831 91.7982 71.6565 91.6768 70.4761L89.3841 48.1987C89.2789 47.1781 88.4193 46.4021 87.3932 46.4018L60.4875 46.3942C59.3006 46.3938 58.3741 47.4203 58.4956 48.601Z" fill="#E8F6FF"/>
<path fill-rule="evenodd" clip-rule="evenodd" d="M54.4956 10.6081L56.7884 32.8931C56.8934 33.914 57.7535 34.6901 58.7797 34.6901H85.6853C86.872 34.6901 87.7982 33.6637 87.6768 32.4833L85.3841 10.206C85.2789 9.18519 84.4193 8.40926 83.3932 8.40888L56.4876 8.40125C55.3006 8.40099 54.3741 9.42739 54.4956 10.6081Z" fill="#E8F6FF"/>
<path fill-rule="evenodd" clip-rule="evenodd" d="M77.4359 95.5229C75.0249 98.0806 70.9971 98.1993 68.4396 95.7881C65.882 93.377 65.7632 89.3491 68.1743 86.7914" fill="#D8E9F0"/>
<path fill-rule="evenodd" clip-rule="evenodd" d="M82.4338 103.495C79.1239 100.508 78.8615 95.4038 81.848 92.0936C84.8344 88.7835 89.9387 88.5212 93.2487 91.5077" fill="#D8E9F0"/>
<path fill-rule="evenodd" clip-rule="evenodd" d="M87.2061 50.1943C87.2061 54.4526 85.1772 58.3216 80.5824 58.3216C75.9889 58.3216 73.96 54.4526 73.96 50.1943C73.96 48.8963 74.194 47.6008 74.597 46.3942H86.5678C86.9708 47.6008 87.2061 48.8963 87.2061 50.1943Z" fill="#D8E9F0"/>
<path d="M80.5792 51.265V63.2493" stroke="#CDD9E3" stroke-width="3.5"/>
<path fill-rule="evenodd" clip-rule="evenodd" d="M70.609 58.5718C66.5724 59.3829 64.1054 56.3413 63.3544 52.5987C63.1266 51.4672 63.1029 50.2956 63.2393 49.1715C63.3582 48.1915 63.5998 47.2477 63.9352 46.3953L68.1633 46.3965L68.9881 50.5021L70.609 58.5718Z" fill="#CEDDE1"/>
<path fill-rule="evenodd" clip-rule="evenodd" d="M72.0596 69.9284C72.0596 69.9284 68.7732 65.6912 69.8515 64.7162C70.9298 63.741 72.036 66.2638 73.7562 66.1353C75.4764 66.0069 73.9258 64.2894 74.3484 63.4935C74.771 62.6975 79.9681 65.2881 79.9681 65.2881L72.0596 69.9284Z" fill="#D8E9F0"/>
<path fill-rule="evenodd" clip-rule="evenodd" d="M72.4303 57.0709C72.4303 61.4832 68.8531 65.0605 64.4398 65.0605C62.8202 65.0605 61.3132 64.5786 60.054 63.75L58.7861 51.427C59.9652 50.2454 61.511 49.4318 63.2395 49.1714C63.6313 49.1113 64.0318 49.0813 64.4398 49.0813C66.1295 49.0813 67.6978 49.6058 68.9883 50.502C71.0685 51.9439 72.4303 54.3485 72.4303 57.0709Z" fill="#D8E9F0"/>
<path d="M64.7418 57.071V69.0554" stroke="#CDD9E3" stroke-width="3.5"/>
<path fill-rule="evenodd" clip-rule="evenodd" d="M76.8967 92.1566C76.8967 93.2941 75.9747 94.2162 74.8373 94.2162C73.6998 94.2162 72.7778 93.2941 72.7778 92.1566C72.7778 91.0192 73.6998 90.097 74.8373 90.097C75.9747 90.097 76.8967 91.0192 76.8967 92.1566Z" fill="#CEDDE1"/>
</g>
<path fill-rule="evenodd" clip-rule="evenodd" d="M73.6078 28.1031H70.8014C70.4853 28.1031 70.2266 27.8445 70.2266 27.5283C70.2266 27.2121 70.4853 26.9535 70.8014 26.9535H73.6078C73.9238 26.9535 74.1825 27.2121 74.1825 27.5283C74.1825 27.8445 73.9238 28.1031 73.6078 28.1031Z" fill="black"/>
<path fill-rule="evenodd" clip-rule="evenodd" d="M76.9796 27.1053C76.9796 27.6345 76.5507 28.0633 76.0216 28.0633C75.4924 28.0633 75.0635 27.6345 75.0635 27.1053C75.0635 26.5761 75.4924 26.1472 76.0216 26.1472C76.5507 26.1472 76.9796 26.5761 76.9796 27.1053Z" fill="black"/>
<path fill-rule="evenodd" clip-rule="evenodd" d="M69.3449 27.1426C69.3449 27.6718 68.9159 28.1008 68.3868 28.1008C67.8576 28.1008 67.4287 27.6718 67.4287 27.1426C67.4287 26.6135 67.8576 26.1846 68.3868 26.1846C68.9159 26.1846 69.3449 26.6135 69.3449 27.1426Z" fill="black"/>
<path fill-rule="evenodd" clip-rule="evenodd" d="M91.8652 102.265L90.9328 104.814C90.9328 104.814 97.128 107.726 99.0956 110.451L86.9932 107.731L89.0584 100.356L91.8652 102.265Z" fill="#0B096F"/>
<path fill-rule="evenodd" clip-rule="evenodd" d="M88.8611 100.912L88.0215 104.059L90.9329 104.814L91.7121 102.699L88.8611 100.912Z" fill="#EF3C86"/>
<path fill-rule="evenodd" clip-rule="evenodd" d="M68.0894 72.683C68.0894 72.683 76.3735 62.9956 86.0015 63.278C95.6296 63.5605 92.5044 70.3318 92.5044 70.3318C92.5044 70.3318 97.243 79.1629 97.7092 85.6675C98.0238 90.0575 92.4235 104.019 92.4235 104.019L87.9561 102.75C87.9561 102.75 92.5101 89.7115 91.4702 84.3195C90.7167 80.4121 84.8892 73.1011 82.9806 72.683H68.0894Z" fill="#25003F"/>
<path fill-rule="evenodd" clip-rule="evenodd" d="M116.602 62.0854L115.861 67.7362L109.27 67.198C109.27 67.198 106.413 69.2612 101.98 70.3314C97.5477 71.4028 90.8539 72.9574 87.0026 70.3314C83.1513 67.7053 84.3453 64.397 84.3453 64.397L88.7286 64.4496L89.8139 58.7078C93.3147 58.2547 96.256 58.4439 98.7593 58.6192C102.001 58.8457 104.442 59.4165 106.173 59.8521C106.391 59.9072 106.628 59.966 106.885 60.0286C110.242 60.8472 116.602 62.0854 116.602 62.0854Z" fill="#FFC100"/>
<path fill-rule="evenodd" clip-rule="evenodd" d="M100.854 64.8445C99.0825 64.2796 98.4407 62.5785 98.6718 60.3127C98.7333 59.7086 99.1351 58.7953 100.03 58.7289C103.272 58.9554 106.22 59.3357 106.336 59.889C107.234 64.2026 102.323 65.3127 100.854 64.8445Z" fill="#FF77CA"/>
<path fill-rule="evenodd" clip-rule="evenodd" d="M101.98 63.278L106.173 60.5775C106.173 60.5775 110.407 62.0489 111.428 61.7577C111.428 61.7577 113.884 57.7411 113.842 54.5453L110.879 50.5248L104.93 49.7603L103.182 54.9297C103.06 53.9622 100.5 52.2583 99.4154 54.1511C98.0171 56.5921 102.174 58.7017 102.174 58.7017L99.5522 60.1454L101.98 63.278Z" fill="#FF77CA"/>
<path fill-rule="evenodd" clip-rule="evenodd" d="M100.476 53.3318C100.476 53.3318 98.1102 51.3079 102.125 48.5543C106.14 45.8005 108.731 48.1835 108.731 48.1835C108.731 48.1835 110.278 44.8585 112.582 45.3391C115.865 46.0241 115.336 51.2044 115.336 51.2044C115.336 51.2044 116.72 48.6107 117.581 49.1976C118.442 49.7846 117.432 59.1308 105.271 51.9938C105.271 51.9938 106.283 55.0274 103.183 54.9298C103.183 54.9298 102.474 53.1988 100.476 53.3318Z" fill="#0B096F"/>
<path d="M104.233 45.6112L104.177 47.9859L103.236 48.2214L101.98 46.2825" stroke="#001F68" stroke-width="6.3"/>
<path fill-rule="evenodd" clip-rule="evenodd" d="M110.872 56.8148L111.297 59.1474L110.242 58.9387L110.872 56.8148Z" fill="#285FD7"/>
<path fill-rule="evenodd" clip-rule="evenodd" d="M110.107 56.4687C110.061 56.7655 109.784 56.969 109.487 56.9232C109.19 56.8774 108.987 56.5996 109.032 56.3028C109.078 56.006 109.356 55.8026 109.653 55.8483C109.949 55.8941 110.153 56.1719 110.107 56.4687Z" fill="#0B096F"/>
<path fill-rule="evenodd" clip-rule="evenodd" d="M112.906 56.61C112.86 56.9068 112.582 57.1103 112.285 57.0645C111.989 57.0187 111.785 56.741 111.831 56.4442C111.877 56.1474 112.155 55.944 112.451 55.9897C112.748 56.0356 112.952 56.3133 112.906 56.61Z" fill="#0B096F"/>
<path fill-rule="evenodd" clip-rule="evenodd" d="M106.173 60.5606L103.106 59.0796L104.88 61.4101L106.173 60.5606Z" fill="#EF3C86"/>
<path fill-rule="evenodd" clip-rule="evenodd" d="M109.581 54.9188C109.31 54.8924 109.059 55.0251 108.922 55.2406L108.605 55.039C108.815 54.709 109.2 54.5042 109.618 54.5449L109.618 54.5449C110.036 54.5858 110.374 54.8609 110.516 55.2254L110.166 55.3618C110.073 55.124 109.853 54.9453 109.581 54.9188" fill="#0D1A88"/>
<path fill-rule="evenodd" clip-rule="evenodd" d="M112.38 55.1916C112.109 55.1652 111.858 55.2979 111.721 55.5134L111.404 55.3118C111.614 54.9818 111.999 54.7771 112.417 54.8177L112.417 54.8178C112.834 54.8586 113.173 55.1338 113.315 55.4982L112.965 55.6347C112.872 55.3968 112.651 55.2181 112.38 55.1916" fill="#0D1A88"/>
<path fill-rule="evenodd" clip-rule="evenodd" d="M139.388 67.2771L137.882 68.6444L135.417 67.6623L136.265 66.0833L139.388 67.2771Z" fill="#EF3C86"/>
<path fill-rule="evenodd" clip-rule="evenodd" d="M115.938 67.1543L133.421 68.2012C133.421 68.2012 134.942 68.951 135.751 69.1153C136.559 69.2795 137.965 69.0292 138.793 69.4145C139.621 69.7995 139.467 68.7789 138.716 68.6056C137.965 68.4323 136.309 67.6621 136.309 67.6621L137.272 67.0073C137.272 67.0073 140.545 67.7198 141.123 67.6235C141.701 67.5272 142.49 67.0843 142.49 66.7761C142.49 66.7761 138.755 66.5066 137.465 65.6015C136.174 64.6964 133.363 65.7363 133.363 65.7363L116.58 62.251L115.938 67.1543Z" fill="#FF77CA"/>
<path fill-rule="evenodd" clip-rule="evenodd" d="M89.7754 58.9261C89.7754 58.9261 82.6892 59.3017 81.046 59.852C79.4027 60.4025 71.9058 72.6499 71.9058 72.6499L74.255 72.804C74.255 72.804 73.2922 74.3446 72.5605 74.5757C71.8288 74.8068 72.7144 75.1919 72.7144 75.1919C72.7144 75.1919 72.6 75.6494 73.4847 75.6926C75.0647 75.7696 77.413 74.7297 78.4143 73.1121C78.4143 73.1121 78.9535 72.1713 78.1833 71.7751C77.413 71.379 75.8725 71.302 75.8725 71.302L82.0973 64.3694L88.728 64.4502L89.7754 58.9261Z" fill="#FF77CA"/>
<path fill-rule="evenodd" clip-rule="evenodd" d="M110.547 60.0973C110.361 60.4478 109.736 60.4805 109.151 60.17C108.565 59.8597 108.308 59.1917 108.494 58.8411C108.68 58.4906 109.244 59.0451 109.829 59.3554C110.415 59.6657 110.733 59.7468 110.547 60.0973Z" fill="white"/>
<path fill-rule="evenodd" clip-rule="evenodd" d="M84.3455 64.3971L88.7288 64.4497L88.6123 65.0073L93.1197 64.7224L84.2438 66.4618C84.2438 66.4618 84.1078 65.8073 84.1977 65.1225C84.249 64.7323 84.3455 64.3971 84.3455 64.3971Z" fill="#E0660C"/>
<path fill-rule="evenodd" clip-rule="evenodd" d="M75.6585 72.3445C75.7261 72.3591 75.769 72.4257 75.7544 72.4933L75.632 72.4669C75.7544 72.4933 75.7544 72.4933 75.7544 72.4933L75.7544 72.4936L75.7543 72.494L75.7541 72.495L75.7534 72.498C75.7528 72.5005 75.752 72.5039 75.7509 72.5082C75.7488 72.5168 75.7456 72.5289 75.7412 72.5444C75.7324 72.5752 75.7186 72.6193 75.6984 72.6748C75.6579 72.7859 75.5914 72.9425 75.4861 73.13C75.2755 73.5052 74.9105 74.0027 74.2908 74.5044C73.934 74.7932 73.5637 74.9759 73.2832 75.0864C73.1428 75.1418 73.0242 75.1793 72.9402 75.203C72.8982 75.2149 72.8648 75.2234 72.8415 75.229C72.8299 75.2317 72.8208 75.2338 72.8145 75.2352L72.807 75.2368L72.8049 75.2373L72.8042 75.2374L72.804 75.2374C72.8039 75.2375 72.8038 75.2375 72.779 75.1148L72.804 75.2374C72.7362 75.2511 72.67 75.2073 72.6563 75.1395C72.6426 75.0718 72.6864 75.0058 72.7541 74.9921L72.7554 74.9918L72.7607 74.9907C72.7655 74.9896 72.7731 74.9879 72.7832 74.9854C72.8034 74.9806 72.8335 74.973 72.872 74.9621C72.9491 74.9403 73.0597 74.9053 73.1914 74.8534C73.4553 74.7494 73.8015 74.5783 74.1333 74.3097C74.7267 73.8293 75.0717 73.3568 75.2678 73.0074C75.3659 72.8326 75.4269 72.6883 75.4631 72.589C75.4812 72.5394 75.4931 72.501 75.5004 72.4756C75.504 72.4629 75.5065 72.4535 75.5079 72.4476C75.5087 72.4446 75.5092 72.4425 75.5095 72.4413L75.5097 72.4405C75.5243 72.3729 75.5909 72.3299 75.6585 72.3445Z" fill="#DE479D"/>
<path fill-rule="evenodd" clip-rule="evenodd" d="M76.7951 72.6198C76.8607 72.6414 76.8964 72.7123 76.8747 72.7779L76.7558 72.7386C76.8747 72.7779 76.8747 72.778 76.8746 72.778L76.8746 72.7782L76.8745 72.7785L76.8742 72.7795L76.8731 72.7827C76.8721 72.7854 76.8708 72.7892 76.8691 72.7939C76.8656 72.8035 76.8606 72.8172 76.8537 72.8347C76.84 72.8698 76.8192 72.9201 76.79 72.9832C76.7317 73.1093 76.6401 73.2868 76.5054 73.4956C76.2361 73.9134 75.7946 74.4566 75.1043 74.9652L75.1043 74.9652C74.6647 75.2891 74.2791 75.476 74.0014 75.5823C73.8625 75.6355 73.7507 75.6684 73.6726 75.6882C73.6336 75.6981 73.6029 75.7048 73.5816 75.709C73.5709 75.7111 73.5625 75.7126 73.5566 75.7136L73.5495 75.7148L73.5473 75.7151L73.5466 75.7152L73.5463 75.7153L73.5462 75.7153C73.5462 75.7153 73.5461 75.7153 73.5281 75.5914L73.5461 75.7153C73.4777 75.7253 73.4141 75.6779 73.4042 75.6095C73.3942 75.5411 73.4414 75.4776 73.5097 75.4675C73.5097 75.4675 73.5097 75.4675 73.5097 75.4675C73.5098 75.4675 73.5098 75.4675 73.5098 75.4675C73.5099 75.4675 73.5099 75.4675 73.5099 75.4675C73.5099 75.4675 73.5099 75.4675 73.5099 75.4675M76.7951 72.6198C76.7294 72.5981 76.6587 72.6337 76.6369 72.6993L76.7951 72.6198Z" fill="#DE479D"/>
</svg>
