<svg width="51" height="39" viewBox="0 0 51 39" fill="none" xmlns="http://www.w3.org/2000/svg">
<path d="M0 32.2136C0 31.5571 0.10796 30.9624 0.32388 30.4295C0.539799 29.8889 0.836689 29.4294 1.21455 29.051C1.60012 28.6725 2.0551 28.3829 2.57948 28.1821C3.11156 27.9736 3.69378 27.8693 4.32611 27.8693C4.96615 27.8616 5.55221 27.9581 6.0843 28.1589C6.6164 28.352 7.07525 28.6378 7.46082 29.0162C7.8464 29.3946 8.14713 29.8503 8.36304 30.3832C8.57898 30.9161 8.68693 31.5108 8.68693 32.1673C8.68693 32.8083 8.57898 33.3914 8.36304 33.9165C8.14713 34.4417 7.8464 34.8935 7.46082 35.2719C7.07525 35.6504 6.6164 35.9477 6.0843 36.164C5.55221 36.3725 4.96615 36.4806 4.32611 36.4883C3.69378 36.4883 3.11156 36.388 2.57948 36.1871C2.0551 35.9786 1.60012 35.689 1.21455 35.3183C0.836689 34.9398 0.539799 34.488 0.32388 33.9629C0.10796 33.4377 0 32.8546 0 32.2136ZM1.52687 32.1209C1.52687 32.5611 1.59241 32.9666 1.7235 33.3373C1.86231 33.708 2.0551 34.0285 2.30187 34.2988C2.54863 34.5691 2.84166 34.7815 3.18097 34.936C3.52798 35.0905 3.91355 35.1677 4.33767 35.1677C4.7618 35.1677 5.14738 35.0905 5.49439 34.936C5.84139 34.7815 6.13832 34.5691 6.38508 34.2988C6.63185 34.0285 6.82078 33.708 6.95185 33.3373C7.09066 32.9666 7.16008 32.5611 7.16008 32.1209C7.16008 31.7116 7.09066 31.3293 6.95185 30.974C6.82078 30.6188 6.63185 30.3098 6.38508 30.0472C6.13832 29.7769 5.84139 29.5684 5.49439 29.4217C5.14738 29.2672 4.7618 29.19 4.33767 29.19C3.91355 29.19 3.52798 29.2672 3.18097 29.4217C2.84166 29.5684 2.54863 29.7769 2.30187 30.0472C2.0551 30.3098 1.86231 30.6188 1.7235 30.974C1.59241 31.3293 1.52687 31.7116 1.52687 32.1209Z" fill="white"/>
<path d="M10.3608 30.7191H11.6795V31.5532H11.7026C11.9031 31.2134 12.1731 30.9662 12.5124 30.8118C12.8517 30.6573 13.2179 30.5801 13.6112 30.5801C14.0353 30.5801 14.4171 30.6573 14.7564 30.8118C15.0957 30.9585 15.3849 31.1632 15.6239 31.4258C15.863 31.6883 16.0442 31.9973 16.1676 32.3525C16.2909 32.7078 16.3526 33.0901 16.3526 33.4994C16.3526 33.9087 16.2871 34.291 16.156 34.6463C16.0249 35.0016 15.8398 35.3105 15.6008 35.5731C15.3694 35.8357 15.088 36.0442 14.7564 36.1987C14.4248 36.3454 14.0624 36.4187 13.669 36.4187C13.4069 36.4187 13.1755 36.3917 12.975 36.3377C12.7745 36.2836 12.5972 36.2141 12.4429 36.1292C12.2887 36.0442 12.1576 35.9554 12.0497 35.8627C11.9417 35.7623 11.853 35.6658 11.7836 35.5731H11.7489V38.921H10.3608V30.7191ZM14.9646 33.4994C14.9646 33.2832 14.926 33.0746 14.8489 32.8738C14.7795 32.6731 14.6715 32.4954 14.525 32.341C14.3862 32.1865 14.2166 32.0629 14.0161 31.9702C13.8156 31.8776 13.5881 31.8312 13.3336 31.8312C13.0791 31.8312 12.8517 31.8776 12.6511 31.9702C12.4506 32.0629 12.2772 32.1865 12.1306 32.341C11.9918 32.4954 11.8839 32.6731 11.8067 32.8738C11.7374 33.0746 11.7026 33.2832 11.7026 33.4994C11.7026 33.7157 11.7374 33.9242 11.8067 34.125C11.8839 34.3258 11.9918 34.5034 12.1306 34.6579C12.2772 34.8124 12.4506 34.9359 12.6511 35.0286C12.8517 35.1213 13.0791 35.1676 13.3336 35.1676C13.5881 35.1676 13.8156 35.1213 14.0161 35.0286C14.2166 34.9359 14.3862 34.8124 14.525 34.6579C14.6715 34.5034 14.7795 34.3258 14.8489 34.125C14.926 33.9242 14.9646 33.7157 14.9646 33.4994Z" fill="white"/>
<path d="M19.1703 33.986C19.2165 34.403 19.3785 34.7274 19.6561 34.9591C19.9337 35.1908 20.2692 35.3066 20.6624 35.3066C21.0094 35.3066 21.2986 35.2371 21.53 35.0981C21.769 34.9514 21.9772 34.7699 22.1546 34.5536L23.1494 35.3066C22.8255 35.7083 22.463 35.994 22.0621 36.1639C21.6611 36.3338 21.2408 36.4187 20.8012 36.4187C20.3848 36.4187 19.9915 36.3492 19.6214 36.2102C19.2512 36.0712 18.9312 35.8743 18.6613 35.6194C18.3914 35.3646 18.1755 35.0595 18.0135 34.7042C17.8593 34.3412 17.7822 33.9396 17.7822 33.4994C17.7822 33.0592 17.8593 32.6615 18.0135 32.3062C18.1755 31.9432 18.3914 31.6343 18.6613 31.3794C18.9312 31.1246 19.2512 30.9276 19.6214 30.7886C19.9915 30.6496 20.3848 30.5801 20.8012 30.5801C21.1868 30.5801 21.5377 30.6496 21.8539 30.7886C22.1777 30.9199 22.4515 31.113 22.6751 31.3678C22.9064 31.6227 23.0838 31.9393 23.2072 32.3178C23.3383 32.6885 23.4038 33.1171 23.4038 33.6037V33.986H19.1703ZM22.0158 32.9433C22.0081 32.534 21.8808 32.2135 21.6341 31.9818C21.3873 31.7424 21.0442 31.6227 20.6046 31.6227C20.1882 31.6227 19.8566 31.7424 19.6098 31.9818C19.3708 32.2212 19.2242 32.5417 19.1703 32.9433H22.0158Z" fill="white"/>
<path d="M25.1152 30.7191H26.4339V31.6111H26.457C26.5881 31.3331 26.7886 31.0937 27.0585 30.8929C27.3284 30.6843 27.6947 30.5801 28.1574 30.5801C28.5275 30.5801 28.8399 30.6419 29.0943 30.7654C29.3565 30.889 29.5686 31.0512 29.7305 31.252C29.8924 31.4528 30.0081 31.6845 30.0775 31.9471C30.147 32.2096 30.1816 32.4838 30.1816 32.7696V36.2797H28.7936V33.4646C28.7936 33.3102 28.7858 33.1403 28.7704 32.9549C28.755 32.7619 28.7126 32.5842 28.6432 32.422C28.5815 32.2521 28.4813 32.1131 28.3424 32.005C28.2036 31.8891 28.0147 31.8312 27.7757 31.8312C27.5443 31.8312 27.3477 31.8698 27.1858 31.9471C27.0315 32.0243 26.9004 32.1286 26.7924 32.2599C26.6922 32.3912 26.619 32.5417 26.5727 32.7117C26.5264 32.8816 26.5033 33.0592 26.5033 33.2446V36.2797H25.1152V30.7191Z" fill="white"/>
<path d="M36.3112 29.8388C36.157 29.6148 35.9487 29.4526 35.6866 29.3522C35.4321 29.2441 35.1622 29.19 34.8769 29.19C34.7072 29.19 34.5414 29.2093 34.3795 29.248C34.2253 29.2866 34.0826 29.3484 33.9515 29.4333C33.8281 29.5183 33.7279 29.6303 33.6508 29.7693C33.5736 29.9006 33.5351 30.0589 33.5351 30.2442C33.5351 30.5223 33.6315 30.7347 33.8243 30.8814C34.0171 31.0281 34.2561 31.1556 34.5414 31.2637C34.8267 31.3718 35.1391 31.4761 35.4784 31.5765C35.8177 31.6769 36.13 31.8159 36.4153 31.9935C36.7006 32.1712 36.9397 32.4067 37.1325 32.7002C37.3253 32.9937 37.4217 33.3837 37.4217 33.8703C37.4217 34.3105 37.3407 34.6966 37.1787 35.0287C37.0168 35.3531 36.797 35.6234 36.5194 35.8397C36.2495 36.0559 35.9333 36.2181 35.5709 36.3262C35.2085 36.4343 34.8267 36.4884 34.4258 36.4884C33.9168 36.4884 33.4271 36.4035 32.9567 36.2335C32.4863 36.0636 32.0815 35.7779 31.7422 35.3763L32.841 34.3105C33.0184 34.5808 33.2498 34.7932 33.5351 34.9476C33.8281 35.0944 34.1366 35.1677 34.4605 35.1677C34.6301 35.1677 34.7998 35.1446 34.9694 35.0982C35.1391 35.0519 35.2933 34.9824 35.4321 34.8897C35.5709 34.797 35.6827 34.6812 35.7676 34.5422C35.8524 34.3954 35.8948 34.2294 35.8948 34.044C35.8948 33.7428 35.7984 33.5111 35.6056 33.349C35.4128 33.1867 35.1737 33.0516 34.8884 32.9435C34.6031 32.8276 34.2908 32.7195 33.9515 32.6191C33.6122 32.5187 33.2999 32.3835 33.0146 32.2136C32.7292 32.036 32.4902 31.8043 32.2974 31.5186C32.1046 31.2251 32.0082 30.8351 32.0082 30.3485C32.0082 29.9237 32.093 29.5569 32.2627 29.248C32.4401 28.939 32.6676 28.6842 32.9451 28.4834C33.2305 28.2748 33.5544 28.1204 33.9168 28.02C34.2792 27.9196 34.6494 27.8694 35.0272 27.8694C35.4591 27.8694 35.8755 27.935 36.2765 28.0663C36.6852 28.1976 37.0515 28.4139 37.3754 28.7151L36.3112 29.8388Z" fill="white"/>
<path d="M40.3358 33.986C40.3821 34.403 40.544 34.7274 40.8216 34.9591C41.0994 35.1908 41.4346 35.3066 41.8281 35.3066C42.1748 35.3066 42.4641 35.2371 42.6957 35.0981C42.9346 34.9514 43.1428 34.7699 43.3203 34.5536L44.315 35.3066C43.9912 35.7083 43.6285 35.994 43.2277 36.1639C42.8264 36.3338 42.4064 36.4187 41.9666 36.4187C41.5502 36.4187 41.1572 36.3492 40.7869 36.2102C40.4168 36.0712 40.0968 35.8743 39.8269 35.6194C39.557 35.3646 39.341 35.0595 39.1791 34.7042C39.0249 34.3412 38.9478 33.9396 38.9478 33.4994C38.9478 33.0592 39.0249 32.6615 39.1791 32.3062C39.341 31.9432 39.557 31.6343 39.8269 31.3794C40.0968 31.1246 40.4168 30.9276 40.7869 30.7886C41.1572 30.6496 41.5502 30.5801 41.9666 30.5801C42.3523 30.5801 42.7031 30.6496 43.0195 30.7886C43.3432 30.9199 43.617 31.113 43.8408 31.3678C44.0719 31.6227 44.2494 31.9393 44.3728 32.3178C44.5039 32.6885 44.5695 33.1171 44.5695 33.6037V33.986H40.3358ZM43.1814 32.9433C43.1736 32.534 43.0465 32.2135 42.7998 31.9818C42.5527 31.7424 42.2096 31.6227 41.7703 31.6227C41.3539 31.6227 41.0219 31.7424 40.7754 31.9818C40.5363 32.2212 40.3898 32.5417 40.3358 32.9433H43.1814Z" fill="white"/>
<path d="M49.7508 35.5151H49.7164C49.5156 35.8318 49.2611 36.0635 48.9529 36.2102C48.6443 36.3492 48.3049 36.4187 47.9348 36.4187C47.6803 36.4187 47.4299 36.384 47.1832 36.3145C46.9438 36.245 46.7279 36.1407 46.5352 36.0017C46.35 35.8627 46.1996 35.6889 46.084 35.4804C45.9684 35.2719 45.9106 35.0286 45.9106 34.7506C45.9106 34.4494 45.9647 34.1945 46.0725 33.986C46.1803 33.7697 46.3233 33.5921 46.5004 33.4531C46.6856 33.3063 46.8975 33.1905 47.1369 33.1056C47.3758 33.0206 47.6225 32.9588 47.877 32.9202C48.1393 32.8738 48.4012 32.8468 48.6635 32.8391C48.9258 32.8237 49.1725 32.8159 49.4037 32.8159H49.7508V32.6653C49.7508 32.3178 49.6315 32.0591 49.3922 31.8891C49.1533 31.7115 48.8488 31.6227 48.4787 31.6227C48.1856 31.6227 47.9119 31.6768 47.6574 31.7849C47.4029 31.8853 47.1832 32.0243 46.9979 32.2019L46.2693 31.4721C46.5774 31.1555 46.9361 30.9276 47.3451 30.7886C47.7615 30.6496 48.1893 30.5801 48.6287 30.5801C49.0221 30.5801 49.3537 30.6264 49.6238 30.7191C49.8934 30.804 50.1172 30.916 50.2947 31.055C50.4717 31.1941 50.607 31.3563 50.6996 31.5416C50.7996 31.7192 50.8692 31.9007 50.9078 32.0861C50.9537 32.2715 50.9807 32.4529 50.9885 32.6305C50.9963 32.8005 51 32.9511 51 33.0824V36.2797H49.7508V35.5151ZM49.6701 33.789H49.3807C49.1881 33.789 48.9721 33.7968 48.7332 33.8122C48.4938 33.8276 48.2664 33.8663 48.0504 33.9281C47.8422 33.9821 47.6647 34.0671 47.5184 34.1829C47.3717 34.291 47.2988 34.4455 47.2988 34.6463C47.2988 34.7776 47.3258 34.8896 47.3795 34.9823C47.4414 35.0672 47.5184 35.1406 47.6111 35.2024C47.7037 35.2642 47.8078 35.3105 47.9233 35.3414C48.0389 35.3646 48.1545 35.3761 48.2705 35.3761C48.7483 35.3761 49.0992 35.2642 49.3229 35.0402C49.5541 34.8085 49.6701 34.4957 49.6701 34.1018V33.789Z" fill="white"/>
<path d="M13.5244 11.8852C13.5244 5.32121 18.8456 0 25.4097 0C31.9737 0 37.2949 5.32121 37.2949 11.8852C37.2949 18.4493 31.9737 23.7705 25.4097 23.7705C18.8456 23.7705 13.5244 18.4493 13.5244 11.8852Z" fill="#3291E9"/>
<path d="M13.5244 11.8852C13.5244 5.32121 18.8456 0 25.4097 0C31.9737 0 37.2949 5.32121 37.2949 11.8852C37.2949 18.4493 31.9737 23.7705 25.4097 23.7705C18.8456 23.7705 13.5244 18.4493 13.5244 11.8852Z" fill="url(#paint0_linear)"/>
<g opacity="0.5">
<path opacity="0.5" fill-rule="evenodd" clip-rule="evenodd" d="M33.1223 2.89014C32.6612 3.37399 32.0929 3.84732 31.4102 4.30213C29.1225 5.82607 27.2972 8.00328 27.2463 12.3532C27.1899 17.1712 29.3698 19.57 31.9529 21.7738C30.0711 23.0351 27.8091 23.7705 25.3758 23.7705C18.8305 23.7705 13.5244 18.4493 13.5244 11.8852C13.5244 5.32123 18.8305 0 25.3758 0C28.3372 0 31.045 1.0893 33.1223 2.89014Z" fill="#3291E9"/>
<path opacity="0.5" fill-rule="evenodd" clip-rule="evenodd" d="M33.1223 2.89014C32.6612 3.37399 32.0929 3.84732 31.4102 4.30213C29.1225 5.82607 27.2972 8.00328 27.2463 12.3532C27.1899 17.1712 29.3698 19.57 31.9529 21.7738C30.0711 23.0351 27.8091 23.7705 25.3758 23.7705C18.8305 23.7705 13.5244 18.4493 13.5244 11.8852C13.5244 5.32123 18.8305 0 25.3758 0C28.3372 0 31.045 1.0893 33.1223 2.89014Z" fill="url(#paint1_linear)"/>
</g>
<g opacity="0.5">
<path opacity="0.5" fill-rule="evenodd" clip-rule="evenodd" d="M28.3406 0.374941C28.0234 1.23676 27.4732 2.14779 26.6589 3.08793C24.8579 5.16734 23.6756 7.75316 24.7781 11.9594C26.172 17.2773 29.5393 18.7807 33.1287 20.3832C33.2497 20.4372 33.3709 20.4914 33.4924 20.5457C31.3717 22.5454 28.5164 23.7705 25.3758 23.7705C18.8305 23.7705 13.5244 18.4493 13.5244 11.8852C13.5244 5.32123 18.8305 0 25.3758 0C26.3995 0 27.393 0.130175 28.3406 0.374941Z" fill="#3291E9"/>
<path opacity="0.5" fill-rule="evenodd" clip-rule="evenodd" d="M28.3406 0.374941C28.0234 1.23676 27.4732 2.14779 26.6589 3.08793C24.8579 5.16734 23.6756 7.75316 24.7781 11.9594C26.172 17.2773 29.5393 18.7807 33.1287 20.3832C33.2497 20.4372 33.3709 20.4914 33.4924 20.5457C31.3717 22.5454 28.5164 23.7705 25.3758 23.7705C18.8305 23.7705 13.5244 18.4493 13.5244 11.8852C13.5244 5.32123 18.8305 0 25.3758 0C26.3995 0 27.393 0.130175 28.3406 0.374941Z" fill="url(#paint2_linear)"/>
</g>
<g opacity="0.3">
<path opacity="0.3" fill-rule="evenodd" clip-rule="evenodd" d="M14.3631 7.48511C14.401 7.64037 14.4429 7.79774 14.4889 7.95721C16.0137 13.2386 20.2655 14.4935 24.7978 15.8313C27.9668 16.7667 31.2728 17.7425 33.88 20.1633C31.7262 22.3881 28.712 23.7706 25.3758 23.7706C18.8305 23.7706 13.5244 18.4494 13.5244 11.8854C13.5244 10.3308 13.822 8.84604 14.3631 7.48511Z" fill="#3291E9"/>
<path opacity="0.3" fill-rule="evenodd" clip-rule="evenodd" d="M14.3631 7.48511C14.401 7.64037 14.4429 7.79774 14.4889 7.95721C16.0137 13.2386 20.2655 14.4935 24.7978 15.8313C27.9668 16.7667 31.2728 17.7425 33.88 20.1633C31.7262 22.3881 28.712 23.7706 25.3758 23.7706C18.8305 23.7706 13.5244 18.4494 13.5244 11.8854C13.5244 10.3308 13.822 8.84604 14.3631 7.48511Z" fill="url(#paint3_linear)"/>
</g>
<path d="M25.3587 20.5355C30.0837 20.5355 33.9141 16.6941 33.9141 11.9556C33.9141 7.21708 30.0837 3.37573 25.3587 3.37573C20.6336 3.37573 16.8032 7.21708 16.8032 11.9556C16.8032 16.6941 20.6336 20.5355 25.3587 20.5355Z" fill="white"/>
<path d="M25.8201 7.69409V8.23113L25.2412 8.1531V7.69409C25.3278 7.74458 25.4235 7.77212 25.5284 7.77212C25.6332 7.77212 25.7335 7.74458 25.8201 7.69409Z" fill="#24D7D0"/>
<path d="M25.8015 13.3628V14.6939H25.2227V13.3582C25.4004 13.349 25.5964 13.349 25.8015 13.3628Z" fill="#24D7D0"/>
<path d="M26.0886 7.19378C26.0886 7.40952 25.9746 7.59771 25.8014 7.69869C25.7148 7.74918 25.6191 7.77673 25.5143 7.77673C25.4094 7.77673 25.3091 7.74918 25.2271 7.69869C25.0539 7.59771 24.9399 7.40952 24.9399 7.19378C24.9399 6.87248 25.1998 6.61084 25.5188 6.61084C25.8379 6.61084 26.0886 6.87248 26.0886 7.19378Z" fill="#14869F"/>
<path d="M24.0561 10.3883V12.9129C24.0561 12.9496 24.0287 12.9771 23.9923 12.9771H21.6631C21.6175 12.9771 21.5856 12.9312 21.6038 12.8853L22.7889 9.82834C22.8026 9.79161 22.8436 9.77784 22.8756 9.79161L24.0196 10.3287C24.0424 10.3378 24.0561 10.3654 24.0561 10.3883Z" fill="#1EB6D1"/>
<path d="M26.4265 11.1594C26.2761 11.5128 26.0618 11.8433 25.8203 12.1463C25.6425 12.3666 25.4465 12.5732 25.2414 12.7614C25.0004 12.987 24.7555 13.189 24.5175 13.3636C24.4868 13.3862 24.4379 13.3724 24.4574 13.3397C24.5714 13.0964 24.7947 12.4309 24.7537 10.9942C24.7081 9.43812 24.1657 8.4283 23.956 8.09781C23.9241 8.05191 23.9651 7.99224 24.0198 7.99683L25.2414 8.15749L25.8203 8.23552L26.659 8.34568C26.6688 8.34568 26.674 8.35428 26.6769 8.36365C26.721 8.50614 27.0523 9.68466 26.4265 11.1594Z" fill="#6BD9FC"/>
<path d="M28.2631 11.5727C28.2631 13.6291 27.5383 13.8265 27.356 13.9733C27.3287 13.9917 27.2922 13.9917 27.2694 13.9688C27.1463 13.8494 26.8227 13.496 26.1071 13.395C26.0114 13.3812 25.9157 13.372 25.8199 13.3629C25.6194 13.3491 25.4234 13.3491 25.2411 13.3537C24.9311 13.3674 24.6759 13.4042 24.5254 13.4271C24.4858 13.4338 24.4884 13.3804 24.5208 13.3565C24.5968 13.3003 24.6728 13.2412 24.7488 13.1792C24.7761 13.1563 24.8035 13.1379 24.8308 13.115C24.9676 13.0048 25.1043 12.8855 25.2411 12.757C25.2684 12.734 25.2958 12.7065 25.3185 12.6836C25.3413 12.6606 25.3641 12.6376 25.3915 12.6147C25.4015 12.6045 25.4116 12.5958 25.4209 12.587C25.4357 12.5728 25.4483 12.5581 25.4621 12.543C25.476 12.5279 25.4899 12.511 25.5043 12.4964C25.5244 12.4759 25.5446 12.4547 25.5647 12.4311C25.5875 12.4081 25.6057 12.3852 25.6285 12.3622C25.6513 12.3393 25.6741 12.3117 25.6923 12.2888C25.7333 12.2429 25.7744 12.1924 25.8154 12.1419C25.8336 12.1144 25.8564 12.0914 25.8746 12.0639C25.8929 12.0363 25.9157 12.0134 25.9339 11.9858C25.9521 11.9583 25.9704 11.9353 25.9886 11.9078C26.0068 11.8803 26.025 11.8573 26.0433 11.8298C26.0524 11.816 26.0661 11.7976 26.0752 11.7839C26.0889 11.7655 26.098 11.7472 26.1117 11.7288C26.139 11.6875 26.1663 11.6462 26.1891 11.6049C26.1983 11.5865 26.2119 11.5681 26.221 11.5498C26.2399 11.5118 26.2646 11.4769 26.2831 11.4387C26.2837 11.4375 26.2843 11.4362 26.2849 11.435C26.3213 11.3708 26.3532 11.3019 26.3851 11.2376C26.3988 11.2101 26.4125 11.1826 26.4216 11.155C27.0555 9.66116 26.7073 8.47124 26.6663 8.35012C26.6648 8.34573 26.6678 8.34138 26.6711 8.34465C26.6716 8.34515 26.6724 8.34593 26.673 8.34626C26.8229 8.42352 28.2631 9.69389 28.2631 11.5727Z" fill="#1EB6D1"/>
<path d="M30.8704 13.5555C30.8704 13.6106 30.8385 13.6657 30.7838 13.6933C30.1417 14.0037 29.7413 14.6407 29.5057 15.3139C29.3992 15.6182 29.2624 15.9079 29.0991 16.1798C28.9927 16.357 28.7885 16.4691 28.6005 16.3831L28.3088 16.2545C28.09 16.1581 27.853 16.1581 27.6342 16.2545L27.3425 16.3831C27.1237 16.4794 26.8867 16.4794 26.6679 16.3831L26.3762 16.2545C26.1574 16.1581 25.9203 16.1581 25.7016 16.2545L25.4099 16.3831C25.1911 16.4794 24.954 16.4794 24.7353 16.3831L24.4435 16.2545C24.2248 16.1581 23.9877 16.1581 23.769 16.2545L23.4772 16.3831C23.2584 16.4794 23.0169 16.4794 22.8026 16.3831L22.5109 16.2545C22.2921 16.1581 22.0506 16.1581 21.8363 16.2545L21.5674 16.3739C21.4398 16.4301 21.2956 16.3664 21.22 16.2492C20.7533 15.5257 20.4917 14.6726 20.4917 13.7575C20.4917 13.6933 20.4917 13.629 20.4963 13.5647C20.4963 13.528 20.5282 13.5005 20.5601 13.5005H23.0305C23.067 13.5005 23.0944 13.528 23.0944 13.5647V13.8814C23.0944 14.3267 23.4544 14.6893 23.8966 14.6893H27.4063C27.7937 14.6893 28.1128 14.4139 28.1903 14.0513C28.1949 14.0237 28.2222 14.0008 28.2541 14.0008C29.0341 14.0008 29.804 13.8247 30.5065 13.4857L30.6471 13.4178C30.6974 13.3925 30.7563 13.3999 30.8 13.431C30.8401 13.4595 30.8704 13.5063 30.8704 13.5555Z" fill="#14869F"/>
<defs>
<linearGradient id="paint0_linear" x1="-74.5391" y1="-18.1502" x2="-78.908" y2="8.76913" gradientUnits="userSpaceOnUse">
<stop offset="0.048" stop-color="#1F66A9"/>
<stop offset="0.685348" stop-color="#3291E9"/>
</linearGradient>
<linearGradient id="paint1_linear" x1="32.5175" y1="-1.27135" x2="3.04505" y2="-1.61633" gradientUnits="userSpaceOnUse">
<stop stop-color="#E9A332" stop-opacity="0"/>
<stop offset="0.0001" stop-color="#23DC7D" stop-opacity="0"/>
<stop offset="1" stop-color="#23DC7D"/>
</linearGradient>
<linearGradient id="paint2_linear" x1="23.5205" y1="-12.0736" x2="-4.98888" y2="-4.60076" gradientUnits="userSpaceOnUse">
<stop stop-color="#E9A332" stop-opacity="0"/>
<stop offset="0.0001" stop-color="#23DC7D" stop-opacity="0"/>
<stop offset="1" stop-color="#23DC7D"/>
</linearGradient>
<linearGradient id="paint3_linear" x1="2.70954" y1="47.7993" x2="40.5172" y2="52.9379" gradientUnits="userSpaceOnUse">
<stop stop-color="#23DC7D"/>
<stop offset="1" stop-color="#23DC7D" stop-opacity="0"/>
</linearGradient>
</defs>
</svg>
