<svg width="48" height="48" viewBox="0 0 48 48" fill="none" xmlns="http://www.w3.org/2000/svg">
<path d="M24 48C37.2548 48 48 37.2548 48 24C48 10.7452 37.2548 0 24 0C10.7452 0 0 10.7452 0 24C0 37.2548 10.7452 48 24 48Z" fill="#F2F6FC"/>
<path fill-rule="evenodd" clip-rule="evenodd" d="M35.5151 24.7483C35.5151 23.9338 35.442 23.1506 35.3063 22.3987H24.4874V26.8421H30.6696C30.4034 28.278 29.594 29.4947 28.3773 30.3092V33.1915H32.0898C34.262 31.1917 35.5151 28.2467 35.5151 24.7483Z" fill="#586C81"/>
<path fill-rule="evenodd" clip-rule="evenodd" d="M24.4874 35.9746C27.589 35.9746 30.1892 34.9461 32.0898 33.1916L28.3774 30.3094C27.3488 30.9986 26.0329 31.4059 24.4874 31.4059C21.4955 31.4059 18.963 29.3852 18.0597 26.67H14.2219V29.6462C16.1121 33.4005 19.9969 35.9746 24.4874 35.9746Z" fill="#586C81"/>
<path fill-rule="evenodd" clip-rule="evenodd" d="M18.0596 26.6698C17.8299 25.9805 17.6993 25.2442 17.6993 24.4871C17.6993 23.73 17.8299 22.9938 18.0596 22.3045V19.3283H14.2218C13.4438 20.8791 13 22.6335 13 24.4871C13 26.3407 13.4438 28.0952 14.2218 29.646L18.0596 26.6698Z" fill="#586C81"/>
<path fill-rule="evenodd" clip-rule="evenodd" d="M24.4874 17.5688C26.1739 17.5688 27.6882 18.1484 28.8786 19.2867L32.1734 15.9919C30.1841 14.1383 27.5837 13 24.4874 13C19.9969 13 16.1121 15.5742 14.2219 19.3284L18.0597 22.3047C18.963 19.5895 21.4955 17.5688 24.4874 17.5688Z" fill="#586C81"/>
</svg>
