<svg width="200" height="160" viewBox="0 0 200 160" fill="none" xmlns="http://www.w3.org/2000/svg">
<circle cx="99.3176" cy="75.3176" r="75.3176" fill="#016BE8"/>
<rect x="108.578" y="41.4248" width="98.8544" height="8.47323" transform="rotate(25.2326 108.578 41.4248)" fill="#222426"/>
<rect x="108.578" y="41.4248" width="20.0371" height="8.47323" transform="rotate(25.2326 108.578 41.4248)" fill="#FEFEFE"/>
<rect x="109.29" y="42.3661" width="17.714" height="3.51497" rx="1.75749" transform="rotate(25.2326 109.29 42.3661)" fill="#DEDEDE"/>
<path d="M91.0988 96.2063L59.2278 85.8783C57.3994 85.2858 55.4815 85.5367 53.914 86.4062C53.8865 86.4203 53.8657 86.4135 53.8382 86.4276C53.8107 86.4416 53.804 86.4624 53.7765 86.4764C52.3674 87.2825 51.2318 88.5905 50.6932 90.2526L38.3386 128.377C37.7865 130.081 37.9531 131.834 38.6564 133.347C38.6705 133.375 38.657 133.417 38.6711 133.444C38.6711 133.444 38.6918 133.451 38.6851 133.472C39.4581 135.054 40.8503 136.354 42.6579 136.94L74.5081 147.261L91.0988 96.2063V96.2063Z" fill="#F1F2F6"/>
<path d="M127.298 115.076C127.837 113.414 127.678 111.709 127.016 110.209C127.002 110.182 127.009 110.161 126.995 110.133C126.981 110.106 126.96 110.099 126.946 110.072C126.186 108.448 124.78 107.12 122.952 106.527L91.0806 96.1994L74.5315 147.268L106.403 157.596C108.21 158.182 110.101 157.945 111.655 157.117C111.655 157.117 111.675 157.124 111.682 157.103C111.71 157.089 111.716 157.068 111.751 157.033C113.208 156.22 114.371 154.898 114.923 153.194L127.298 115.076V115.076Z" fill="#F1F2F6"/>
<path d="M96.6932 124.007L124.79 112.541C124.843 113.087 124.82 113.653 124.639 114.214L112.284 152.339C112.122 152.838 111.864 153.282 111.528 153.678L96.6932 124.007ZM40.8263 130.767C40.7807 130.27 40.8317 129.758 41 129.239L53.3546 91.1141C53.5364 90.5531 53.8294 90.0741 54.2128 89.6703L70.2448 115.436L40.8263 130.767ZM43.5492 134.266C42.9467 134.071 42.4188 133.716 41.9802 133.299L71.722 117.82L79.2269 129.872C79.4089 130.16 79.6661 130.359 79.9777 130.46C80.2894 130.561 80.6139 130.551 80.9306 130.424L94.0775 125.065L109.088 155.045C108.481 155.147 107.873 155.111 107.25 154.909L43.5492 134.266Z" fill="white"/>
<path d="M58.5553 87.9554C57.9528 87.7602 57.3172 87.7379 56.717 87.8189L80.9528 127.447L123.825 109.566C123.393 109.127 122.879 108.8 122.256 108.598L58.5553 87.9554Z" fill="white"/>
<path d="M116.964 72.862C116.437 73.8936 115.909 74.9252 115.382 75.9568C115.261 76.1931 115.054 76.2774 114.851 76.2557C114.647 76.2766 114.441 76.1931 114.32 75.9568L112.738 72.8611C111.55 72.6951 110.361 72.5283 109.173 72.3614C108.702 72.2954 108.601 71.654 108.901 71.3698C109.747 70.5755 110.59 69.7794 111.435 68.986C111.24 67.8866 111.045 66.7881 110.85 65.6896C110.759 65.1803 111.246 64.7849 111.753 65.0421C112.786 65.5662 113.817 66.0954 114.851 66.6334C115.883 66.0954 116.916 65.5662 117.948 65.0421C118.456 64.7849 118.943 65.1916 118.852 65.7009C118.655 66.7994 118.463 67.8927 118.266 68.9886C119.111 69.7838 119.956 70.5772 120.799 71.3716C121.101 71.6557 120.998 72.2962 120.528 72.3623C119.342 72.5292 118.151 72.6951 116.964 72.862Z" fill="#FFD964"/>
<path d="M96.3928 63.3883C95.8461 63.6711 95.2991 63.9536 94.7528 64.2366C94.6272 64.3012 94.5116 64.2735 94.4307 64.2014C94.3362 64.1475 94.2729 64.0477 94.2938 63.9082L94.567 62.0815C94.1053 61.6428 93.6432 61.2031 93.1814 60.7638C92.9982 60.5896 93.1526 60.2811 93.3704 60.2513C93.9813 60.1694 94.5919 60.0862 95.2021 60.0045C95.4577 59.4692 95.713 58.9343 95.9683 58.3994C96.0865 58.1513 96.4191 58.1309 96.5587 58.3988C96.8428 58.9444 97.125 59.492 97.4052 60.0439C98.0176 60.1307 98.6273 60.2212 99.2351 60.3136C99.5341 60.3595 99.6187 60.6858 99.4224 60.878C98.9975 61.2915 98.5764 61.7045 98.1526 62.1172C98.2721 62.7221 98.3917 63.326 98.5107 63.93C98.5532 64.146 98.3106 64.3909 98.0874 64.2743C97.5232 63.9796 96.9574 63.6833 96.3928 63.3883Z" fill="#FFD964"/>
<path d="M123.552 34.9091C122.95 34.7783 122.349 34.647 121.748 34.5167C121.61 34.4863 121.538 34.3913 121.522 34.2842C121.483 34.1824 121.498 34.0651 121.603 33.9711L122.979 32.7382C122.903 32.1058 122.827 31.4724 122.752 30.8395C122.722 30.5885 123.037 30.4494 123.224 30.5653C123.747 30.8917 124.27 31.2171 124.792 31.5432C125.331 31.2938 125.868 31.0446 126.406 30.7954C126.655 30.6796 126.925 30.8761 126.861 31.1714C126.732 31.7729 126.6 32.3746 126.464 32.9784C126.881 33.4358 127.293 33.8943 127.702 34.3531C127.903 34.5791 127.76 34.8844 127.486 34.9073C126.895 34.9549 126.308 35.0044 125.718 35.0521C125.424 35.5943 125.131 36.1357 124.838 36.6769C124.733 36.8704 124.39 36.9043 124.292 36.6721C124.045 36.0854 123.799 35.4963 123.552 34.9091Z" fill="#FFD964"/>
<path d="M111.553 17.6044C111.158 17.5185 110.763 17.4323 110.368 17.3466C110.277 17.3267 110.231 17.2643 110.22 17.1939C110.195 17.1271 110.204 17.05 110.273 16.9882L111.177 16.1783C111.127 15.7629 111.077 15.3469 111.028 14.9311C111.008 14.7662 111.215 14.6748 111.338 14.7509C111.681 14.9654 112.025 15.1791 112.368 15.3933C112.722 15.2295 113.075 15.0658 113.428 14.9021C113.592 14.8261 113.769 14.9551 113.727 15.1491C113.643 15.5443 113.556 15.9395 113.467 16.3362C113.74 16.6366 114.011 16.9378 114.279 17.2392C114.412 17.3876 114.318 17.5882 114.138 17.6032C113.75 17.6345 113.364 17.6671 112.976 17.6984C112.783 18.0545 112.591 18.4102 112.398 18.7657C112.329 18.8928 112.104 18.9151 112.04 18.7626C111.878 18.3771 111.715 17.9901 111.553 17.6044Z" fill="#FFD964"/>
<path d="M75.7779 100.454C75.3828 100.368 74.9876 100.282 74.5927 100.196C74.5021 100.176 74.4552 100.114 74.4444 100.043C74.4192 99.9764 74.429 99.8993 74.498 99.8376L75.4014 99.0277C75.3516 98.6123 75.3019 98.1962 75.2523 97.7804C75.2325 97.6155 75.4399 97.5241 75.5626 97.6003C75.906 97.8147 76.2498 98.0284 76.5928 98.2427C76.9464 98.0789 77.2997 97.9152 77.6529 97.7515C77.8167 97.6754 77.9935 97.8044 77.9519 97.9985C77.8671 98.3936 77.7805 98.7889 77.6911 99.1855C77.9647 99.4859 78.2353 99.7871 78.5041 100.089C78.6362 100.237 78.5423 100.438 78.3625 100.453C77.9742 100.484 77.5882 100.516 77.2009 100.548C77.0079 100.904 76.8155 101.26 76.6227 101.615C76.5537 101.742 76.3284 101.764 76.2642 101.612C76.1022 101.226 75.94 100.839 75.7779 100.454Z" fill="#FFD964"/>
<path d="M93.2319 107.457C92.9682 107.151 92.7047 106.844 92.4409 106.538C92.3806 106.467 92.3807 106.389 92.4145 106.327C92.4347 106.258 92.4888 106.202 92.5811 106.195L93.7901 106.092C94.0005 105.73 94.2114 105.368 94.4221 105.006C94.5057 104.863 94.7263 104.915 94.7784 105.05C94.9234 105.428 95.0692 105.805 95.214 106.183C95.5949 106.265 95.9755 106.347 96.3561 106.429C96.5327 106.467 96.5961 106.676 96.4461 106.806C96.1405 107.071 95.8333 107.334 95.5231 107.597C95.5605 108.001 95.5952 108.405 95.6283 108.807C95.6444 109.005 95.4487 109.109 95.296 109.013C94.9672 108.804 94.6394 108.597 94.3114 108.389C93.9429 108.557 93.575 108.725 93.207 108.893C93.0754 108.953 92.8821 108.835 92.9228 108.675C93.0255 108.269 93.1291 107.863 93.2319 107.457Z" fill="#FFD964"/>
<path d="M110.358 99.6632C110.13 99.3977 109.901 99.1321 109.673 98.8669C109.621 98.8059 109.621 98.7383 109.65 98.684C109.668 98.6246 109.715 98.5764 109.794 98.5697L110.841 98.4809C111.024 98.1677 111.206 97.8542 111.389 97.5408C111.461 97.4166 111.652 97.4615 111.697 97.5781C111.823 97.9055 111.949 98.2325 112.074 98.5595C112.404 98.6306 112.734 98.7017 113.064 98.7727C113.216 98.8055 113.271 98.987 113.141 99.0994C112.877 99.3284 112.611 99.5565 112.342 99.7841C112.375 100.134 112.405 100.484 112.433 100.832C112.447 101.004 112.278 101.094 112.145 101.01C111.861 100.829 111.577 100.651 111.293 100.47C110.974 100.616 110.655 100.761 110.336 100.907C110.222 100.958 110.055 100.856 110.09 100.718C110.179 100.367 110.269 100.014 110.358 99.6632Z" fill="#FFD964"/>
<path d="M97.9791 91.1368C97.1324 91.5747 96.2852 92.0122 95.4391 92.4505C95.2446 92.5505 95.0655 92.5077 94.9402 92.3961C94.7939 92.3125 94.6958 92.1579 94.7282 91.9419L95.1513 89.1128C94.4363 88.4333 93.7205 87.7523 93.0053 87.0718C92.7216 86.802 92.9608 86.3243 93.2981 86.2781C94.2442 86.1513 95.1899 86.0225 96.1349 85.8959C96.5308 85.0669 96.9262 84.2384 97.3217 83.41C97.5047 83.0256 98.0199 82.9942 98.236 83.4091C98.6761 84.2541 99.1131 85.1022 99.5471 85.957C100.496 86.0913 101.44 86.2315 102.381 86.3747C102.844 86.4457 102.975 86.9511 102.671 87.2488C102.013 87.8893 101.361 88.5288 100.705 89.168C100.89 90.1049 101.075 91.0402 101.259 91.9757C101.325 92.3102 100.949 92.6895 100.604 92.5089C99.7298 92.0525 98.8535 91.5935 97.9791 91.1368Z" fill="#FFD964"/>
<path d="M99.8634 31.8241C99.0167 32.262 98.1694 32.6995 97.3233 33.1379C97.1288 33.2379 96.9498 33.1951 96.8245 33.0834C96.6782 32.9999 96.5801 32.8452 96.6125 32.6293L97.0356 29.8001C96.3206 29.1206 95.6048 28.4397 94.8896 27.7592C94.6059 27.4894 94.8451 27.0116 95.1824 26.9654C96.1284 26.8386 97.0741 26.7099 98.0192 26.5832C98.4151 25.7542 98.8105 24.9258 99.206 24.0973C99.389 23.713 99.9042 23.6815 100.12 24.0964C100.56 24.9415 100.997 25.7896 101.431 26.6443C102.38 26.7786 103.324 26.9188 104.265 27.062C104.729 27.1331 104.86 27.6384 104.556 27.9361C103.897 28.5766 103.245 29.2161 102.589 29.8553C102.774 30.7922 102.959 31.7275 103.144 32.663C103.209 32.9976 102.834 33.3768 102.488 33.1962C101.614 32.7399 100.738 32.2809 99.8634 31.8241Z" fill="#FFD964"/>
<path d="M77.297 76.5826C76.7116 76.7726 76.1259 76.9623 75.5408 77.1526C75.4064 77.1959 75.2968 77.1498 75.2287 77.0655C75.1443 76.9969 75.098 76.8881 75.1414 76.7539L75.7082 74.9961C75.3241 74.488 74.9396 73.979 74.5555 73.4704C74.4031 73.2687 74.6057 72.9894 74.8254 72.9955C75.4415 73.0141 76.0575 73.0314 76.6728 73.0501C77.0121 72.5635 77.3511 72.0773 77.6901 71.5911C77.847 71.3655 78.1785 71.3996 78.2727 71.6866C78.4642 72.2712 78.6535 72.8574 78.8401 73.4475C79.4303 73.6327 80.0172 73.8213 80.6017 74.0114C80.8893 74.1053 80.9197 74.441 80.6947 74.5987C80.2082 74.9376 79.7255 75.2765 79.2402 75.6147C79.2597 76.231 79.2794 76.8464 79.2985 77.4617C79.3053 77.6817 79.0261 77.8839 78.8248 77.7325C78.3161 77.35 77.806 76.9654 77.297 76.5826Z" fill="#FFD964"/>
<path d="M77.3036 54.3686C77.1434 54.785 76.9829 55.2015 76.8231 55.618C76.7861 55.7134 76.7101 55.7541 76.6316 55.754C76.5544 55.7702 76.472 55.7466 76.4162 55.661L75.6848 54.5393C75.2233 54.5238 74.7611 54.508 74.2992 54.4922C74.1161 54.486 74.0513 54.2444 74.155 54.1234C74.4466 53.7849 74.7376 53.4458 75.0289 53.1077C74.9098 52.6945 74.7906 52.2817 74.6715 51.8688C74.616 51.6774 74.7866 51.5063 74.9912 51.5843C75.4079 51.7432 75.8245 51.9042 76.2421 52.0684C76.6158 51.8205 76.9898 51.576 77.3638 51.3335C77.5479 51.2144 77.7509 51.3505 77.737 51.5492C77.7058 51.978 77.6764 52.4045 77.6454 52.8322C78.0014 53.1026 78.357 53.3723 78.7123 53.6424C78.8394 53.7391 78.8258 53.9886 78.6486 54.0329C78.201 54.1448 77.7516 54.2566 77.3036 54.3686Z" fill="#FFD964"/>
<path d="M92.5488 45.5042C92.2965 46.16 92.0437 46.8159 91.792 47.4717C91.7338 47.6221 91.6142 47.6861 91.4905 47.6859C91.3689 47.7115 91.2391 47.6743 91.1513 47.5394L89.9994 45.7731C89.2727 45.7486 88.5449 45.7238 87.8175 45.6988C87.5291 45.689 87.427 45.3086 87.5903 45.1181C88.0496 44.585 88.5078 44.0511 88.9667 43.5186C88.779 42.8679 88.5913 42.2177 88.4037 41.5676C88.3164 41.2662 88.5849 40.9966 88.9072 41.1194C89.5634 41.3697 90.2195 41.6232 90.8771 41.8818C91.4656 41.4915 92.0547 41.1065 92.6436 40.7246C92.9335 40.537 93.2532 40.7513 93.2314 41.0643C93.1822 41.7395 93.1359 42.4112 93.0871 43.0848C93.6477 43.5105 94.2077 43.9353 94.7673 44.3607C94.9673 44.5128 94.9459 44.9058 94.6669 44.9755C93.962 45.1518 93.2543 45.3278 92.5488 45.5042Z" fill="#FFD964"/>
</svg>
