<?xml version="1.0"?>
<svg xmlns="http://www.w3.org/2000/svg" height="512px" viewBox="0 0 480.50946 480" width="512px"><g><path d="m312 112.253906c4.417969 0 8-3.582031 8-8v-48c0-4.417968-3.582031-8-8-8h-256c-4.417969 0-8 3.582032-8 8v48c0 4.417969 3.582031 8 8 8zm-248-48h240v32h-240zm0 0" data-original="#000000" class="active-path" data-old_color="#ffffff" fill="#ffffff"/><path d="m56 144.253906h72v16h-72zm0 0" data-original="#000000" class="active-path" data-old_color="#ffffff" fill="#ffffff"/><path d="m144 144.253906h168v16h-168zm0 0" data-original="#000000" class="active-path" data-old_color="#ffffff" fill="#ffffff"/><path d="m56 192.253906h72v16h-72zm0 0" data-original="#000000" class="active-path" data-old_color="#ffffff" fill="#ffffff"/><path d="m144 192.253906h168v16h-168zm0 0" data-original="#000000" class="active-path" data-old_color="#ffffff" fill="#ffffff"/><path d="m56 240.253906h72v16h-72zm0 0" data-original="#000000" class="active-path" data-old_color="#ffffff" fill="#ffffff"/><path d="m144 240.253906h160v16h-160zm0 0" data-original="#000000" class="active-path" data-old_color="#ffffff" fill="#ffffff"/><path d="m56 288.253906h72v16h-72zm0 0" data-original="#000000" class="active-path" data-old_color="#ffffff" fill="#ffffff"/><path d="m144 288.253906h136v16h-136zm0 0" data-original="#000000" class="active-path" data-old_color="#ffffff" fill="#ffffff"/><path d="m56 336.253906h72v16h-72zm0 0" data-original="#000000" class="active-path" data-old_color="#ffffff" fill="#ffffff"/><path d="m144 336.253906h104v16h-104zm0 0" data-original="#000000" class="active-path" data-old_color="#ffffff" fill="#ffffff"/><path d="m213.246094 414.695312-13.660156-40.96875c-.96875-2.894531-3.5-4.988281-6.527344-5.394531-3.023438-.40625-6.019532.945313-7.714844 3.484375l-24.351562 36.535156-9.792969-19.671874c-1.234375-2.5-3.679688-4.179688-6.457031-4.429688-2.773438-.25-5.480469.964844-7.140626 3.203125l-24 32 12.796876 9.601563 16.234374-21.601563 10.207032 20.417969c1.273437 2.550781 3.808594 4.230468 6.65625 4.40625 2.855468.214844 5.597656-1.144532 7.160156-3.542969l22.929688-34.398437 10.828124 32.480468c1.101563 3.25 4.152344 5.441406 7.585938 5.4375.65625 0 1.308594-.082031 1.945312-.238281l32-8-3.875-15.519531zm0 0" data-original="#000000" class="active-path" data-old_color="#ffffff" fill="#ffffff"/><path d="m480.222656 171.335938c-.546875-2.054688-1.886718-3.804688-3.726562-4.863282l-20.800782-12 12-20.800781c3.1875-5.515625 4.050782-12.074219 2.398438-18.226563-1.648438-6.152343-5.679688-11.394531-11.199219-14.574218l-13.855469-8c-5.515624-3.1875-12.070312-4.050782-18.222656-2.398438-6.152344 1.648438-11.394531 5.679688-14.578125 11.199219l-16 27.710937-28.238281 49.015626v-154.144532c0-13.253906-10.746094-24-24-24h-320c-13.253906 0-24 10.746094-24 24v432c0 13.253906 10.746094 24 24 24h320c13.253906 0 24-10.746094 24-24v-149.855468l79.710938-138.0625 13.855468 8-51.964844 90.0625 13.863282 8 56-96.992188c1.046875-1.84375 1.320312-4.027344.757812-6.070312zm-54.070312-61.648438c2.207031-3.820312 7.09375-5.132812 10.917968-2.929688l13.859376 8c3.828124 2.214844 5.132812 7.109376 2.917968 10.9375l-12 20.800782-27.703125-16zm-74.152344 346.566406c0 4.417969-3.582031 8-8 8h-320c-4.417969 0-8-3.582031-8-8v-432c0-4.417968 3.582031-8 8-8h320c4.417969 0 8 3.582032 8 8v181.855469l-83.710938 144.992187c-.464843.835938-.769531 1.75-.90625 2.695313h-.054687l-11.199219 67.433594c-.546875 3.289062 1.003906 6.574219 3.890625 8.242187 2.890625 1.664063 6.507813 1.367188 9.085938-.753906l52.796875-43.425781c.75-.59375 1.386718-1.320313 1.882812-2.140625l28.214844-49.042969zm-70.785156-88.445312 21.601562 12.453125-27.390625 22.535156zm32.632812.367187-27.695312-16 120-207.839843 27.695312 16zm0 0" data-original="#000000" class="active-path" data-old_color="#ffffff" fill="#ffffff"/></g> </svg>
