<svg width="64" height="64" viewBox="0 0 64 64" fill="none" xmlns="http://www.w3.org/2000/svg">
<path d="M32 0C49.674 0 64 14.326 64 32C64 49.674 49.674 64 32 64C14.326 64 0 49.674 0 32C0 14.326 14.326 0 32 0ZM23.514 20.686C23.3295 20.495 23.1088 20.3426 22.8648 20.2378C22.6208 20.133 22.3584 20.0778 22.0928 20.0755C21.8272 20.0732 21.5639 20.1238 21.3181 20.2244C21.0723 20.3249 20.849 20.4734 20.6612 20.6612C20.4734 20.849 20.3249 21.0723 20.2244 21.3181C20.1238 21.5639 20.0732 21.8272 20.0755 22.0928C20.0778 22.3584 20.133 22.6208 20.2378 22.8648C20.3426 23.1088 20.495 23.3295 20.686 23.514L29.172 32L20.686 40.486C20.495 40.6705 20.3426 40.8912 20.2378 41.1352C20.133 41.3792 20.0778 41.6416 20.0755 41.9072C20.0732 42.1728 20.1238 42.4361 20.2244 42.6819C20.3249 42.9277 20.4734 43.151 20.6612 43.3388C20.849 43.5266 21.0723 43.6751 21.3181 43.7756C21.5639 43.8762 21.8272 43.9268 22.0928 43.9245C22.3584 43.9222 22.6208 43.867 22.8648 43.7622C23.1088 43.6574 23.3295 43.505 23.514 43.314L32 34.828L40.486 43.314C40.6705 43.505 40.8912 43.6574 41.1352 43.7622C41.3792 43.867 41.6416 43.9222 41.9072 43.9245C42.1728 43.9268 42.4361 43.8762 42.6819 43.7756C42.9277 43.6751 43.151 43.5266 43.3388 43.3388C43.5266 43.151 43.6751 42.9277 43.7756 42.6819C43.8762 42.4361 43.9268 42.1728 43.9245 41.9072C43.9222 41.6416 43.867 41.3792 43.7622 41.1352C43.6574 40.8912 43.505 40.6705 43.314 40.486L34.828 32L43.314 23.514C43.505 23.3295 43.6574 23.1088 43.7622 22.8648C43.867 22.6208 43.9222 22.3584 43.9245 22.0928C43.9268 21.8272 43.8762 21.5639 43.7756 21.3181C43.6751 21.0723 43.5266 20.849 43.3388 20.6612C43.151 20.4734 42.9277 20.3249 42.6819 20.2244C42.4361 20.1238 42.1728 20.0732 41.9072 20.0755C41.6416 20.0778 41.3792 20.133 41.1352 20.2378C40.8912 20.3426 40.6705 20.495 40.486 20.686L32 29.172L23.514 20.686Z" fill="#EF4C56"/>
</svg>
