<svg width="64" height="64" viewBox="0 0 64 64" fill="none" xmlns="http://www.w3.org/2000/svg">
<path d="M21.1264 20.805C21.1264 22.5488 21.7826 24.2175 22.9764 25.5113L28.7951 31.8113C29.2889 32.3488 29.2889 33.1613 28.7951 33.6925L22.9764 39.9863C21.7826 41.28 21.1201 42.9488 21.1201 44.6925V48.2113H42.7451V44.6925C42.7451 42.9488 42.0889 41.28 40.8889 39.9863L35.0826 33.6925C34.5889 33.155 34.5889 32.3425 35.0826 31.8113L40.9014 25.5113C42.0951 24.2175 42.7514 22.5488 42.7514 20.805V17.28H21.1264V20.805ZM39.1451 41.8863V43.9925C39.1451 44.7675 38.5014 45.3988 37.7014 45.3988H26.1701C25.3764 45.3988 24.7264 44.7675 24.7264 43.9925V41.8863H39.1451Z" fill="#E9EEFE"/>
<path d="M32 0C14.325 0 0 14.325 0 32C0 49.675 14.325 64 32 64C49.675 64 64 49.675 64 32C64 14.325 49.675 0 32 0ZM45.675 20.0625C45.675 22.5 44.7562 24.8375 43.0812 26.65L38.1312 32.0062L43.0812 37.3625C44.7562 39.175 45.675 41.5125 45.675 43.95V47.4688C45.675 49.0187 44.3813 50.2812 42.7938 50.2812H21.1688C19.5813 50.2812 18.2875 49.0187 18.2875 47.4688V43.95C18.2875 41.5125 19.2125 39.1688 20.8813 37.3625L25.825 32.0125L20.875 26.6562C19.2 24.8438 18.2812 22.5063 18.2812 20.0688V16.5438C18.2812 14.9938 19.575 13.7312 21.1625 13.7312H42.7875C44.375 13.7312 45.6688 14.9938 45.6688 16.5438V20.0625H45.675Z" fill="#E9EEFE"/>
</svg>
