<?xml version="1.0" encoding="UTF-8"?>
<svg width="223px" height="165px" viewBox="0 0 223 165" version="1.1" xmlns="http://www.w3.org/2000/svg" xmlns:xlink="http://www.w3.org/1999/xlink">
    <!-- Generator: sketchtool 56.2 (101010) - https://sketch.com -->
    <title>36EA4FFC-7EDE-4063-9624-74A1E2B58118@3x</title>
    <desc>Created with sketchtool.</desc>
    <defs>
        <polygon id="path-1" points="0 0.0947546337 52.3493077 0.0947546337 52.3493077 13.661545 0 13.661545"></polygon>
        <polygon id="path-3" points="0.306428434 0.0518188677 45.1203966 0.0518188677 45.1203966 8.43502942 0.306428434 8.43502942"></polygon>
        <polygon id="path-5" points="0 165.829878 222.205931 165.829878 222.205931 0.344685667 0 0.344685667"></polygon>
        <path d="M2.48236364,1.12854545 C-0.0769090909,2.976 -0.654545455,6.54872727 1.19345455,9.108 L1.19345455,9.108 C3.04036364,11.6683636 6.61309091,12.2449091 9.17290909,10.3974545 L9.17290909,10.3974545 C11.7327273,8.55054545 12.3098182,4.97727273 10.4623636,2.418 L10.4623636,2.418 C9.34472727,0.87 7.59654545,0.0469090909 5.82272727,0.0469090909 L5.82272727,0.0469090909 C4.66363636,0.0469090909 3.49418182,0.398181818 2.48236364,1.12854545 L2.48236364,1.12854545 Z" id="path-7"></path>
    </defs>
    <g id="Invision-2" stroke="none" stroke-width="1" fill="none" fill-rule="evenodd">
        <g id="Torus-Website-Landing-Mobile-Log-Out" transform="translate(-75.000000, -162.000000)">
            <g id="Group-222-Copy" transform="translate(75.000000, 160.000000)">
                <g id="Group-27">
                    <g id="Group-3" transform="translate(0.000000, 74.648495)">
                        <mask id="mask-2" fill="white">
                            <use xlink:href="#path-1"></use>
                        </mask>
                        <g id="Clip-2"></g>
                        <path d="M0.780373551,13.408523 C0.00369136044,13.404515 -0.296106967,12.5793736 0.360356592,12.2432048 C0.543428117,12.1500195 0.779874718,12.0573351 1.08166838,11.9681577 C3.19522165,11.3484249 4.52361257,12.1194587 6.20068741,9.89854072 C7.87776225,7.67762274 9.76035607,8.76829236 12.5388531,8.33192432 C15.31735,7.89505527 17.3545819,0.24684103 23.3525438,0.0970430433 C29.3500069,-0.0532559396 29.5360714,7.24526267 36.5257123,8.63202129 C36.5257123,8.63202129 38.0785778,9.08993219 40.3083591,7.2993703 C42.5386391,5.50830742 44.6511947,4.97875401 46.9817401,5.35049349 C49.1576475,5.69818514 51.9965032,9.1921355 52.3466836,12.8814745 C52.3865902,13.3048167 51.9660744,13.6645322 51.443298,13.661545 L0.780373551,13.408523 Z" id="Fill-1" fill="#D9EBFE" mask="url(#mask-2)"></path>
                    </g>
                    <g id="Group-6" transform="translate(177.085535, 21.041858)">
                        <mask id="mask-4" fill="white">
                            <use xlink:href="#path-3"></use>
                        </mask>
                        <g id="Clip-5"></g>
                        <path d="M0.447153446,8.43502942 C0.294011871,8.43502942 0.250613444,8.22461084 0.393778369,8.16849922 C1.87830387,7.58934714 5.36564182,6.08385233 7.91068519,3.85541941 C11.2264248,0.95164306 12.884544,-1.26075797 17.7202262,0.95164306 C22.5559083,3.16404409 23.4423337,7.05227878 28.4156936,3.73367723 C33.3900512,0.415075691 34.495464,3.66353771 36.5676142,5.01222058 C38.2187498,6.08635731 43.1122965,7.62090993 45.0362934,8.201064 C45.1679852,8.24064273 45.1370576,8.43502942 44.9993798,8.43502942 L0.447153446,8.43502942 Z" id="Fill-4" fill="#D9EBFE" mask="url(#mask-4)"></path>
                    </g>
                    <path d="M180.694737,159.479646 C180.694737,157.643493 148.757985,156.155032 109.361691,156.155032 C69.9653973,156.155032 38.0286447,157.643493 38.0286447,159.479646 C38.0286447,161.315297 69.9653973,162.803758 109.361691,162.803758 C148.757985,162.803758 180.694737,161.315297 180.694737,159.479646" id="Fill-7" fill="#D9EBFE"></path>
                    <mask id="mask-6" fill="white">
                        <use xlink:href="#path-5"></use>
                    </mask>
                    <g id="Clip-10"></g>
                    <polygon id="Fill-9" fill="#0096FA" mask="url(#mask-6)" points="62.2927051 80.2591559 124.619331 80.2591559 124.619331 46.2765558 62.2927051 46.2765558"></polygon>
                    <polygon id="Fill-11" fill="#0096FA" mask="url(#mask-6)" points="90.7840217 158.991775 124.61983 158.991775 124.61983 46.3186396 90.7840217 46.3186396"></polygon>
                    <path d="M149.923956,46.276656 C159.267587,46.276656 166.84186,53.8837886 166.84186,63.2679561 C166.84186,72.6521236 159.267587,80.2592561 149.923956,80.2592561 C140.580823,80.2592561 133.006551,72.6521236 133.006551,63.2679561 C133.006551,53.8837886 140.580823,46.276656 149.923956,46.276656" id="Fill-12" fill="#0096FA" mask="url(#mask-6)"></path>
                    <polygon id="Fill-13" fill="#FD7D7D" mask="url(#mask-6)" points="49.8276793 57.9081941 45.5317339 64.1030172 42.2015281 61.4016435 46.4725319 55.2759579"></polygon>
                    <path d="M42.494243,60.9660269 L38.6073403,60.7175326 L36.4917917,59.8613294 C35.520066,59.4680471 34.4056742,59.7651381 33.7556954,60.5912815 L33.4524053,60.9775499 L43.8246293,67.8101416 L46.2589319,63.4599881 L42.494243,60.9660269 Z" id="Fill-14" fill="#0A0708" mask="url(#mask-6)"></path>
                    <polygon id="Fill-15" fill="#0A0708" mask="url(#mask-6)" points="43.8207384 67.9051306 33.3667059 61.0189322 33.955827 60.1171383 44.4098596 67.0033367"></polygon>
                    <path d="M60.0427711,45.6477049 L49.2445441,62.2537385 L43.5069728,58.4992699 L54.5695809,41.2068709 C55.7587976,39.2264313 58.5692199,39.0921643 59.9405104,40.9498597 C60.7501155,42.0470423 60.7910198,44.5079376 60.0427711,45.6477049" id="Fill-16" fill="#005DAF" mask="url(#mask-6)"></path>
                    <path d="M69.7407731,37.0370762 L55.5489887,39.574123 L58.4746412,46.216336 L77.5120845,46.216336 C77.5120845,46.216336 83.2361873,45.0004173 80.5943704,38.6988819 L69.7407731,37.0370762 Z" id="Fill-17" fill="#005DAF" mask="url(#mask-6)"></path>
                    <polygon id="Fill-18" fill="#FD7D7D" mask="url(#mask-6)" points="65.9780796 57.9913596 69.4743965 64.6741533 65.5530743 66.3985837 62.1066406 59.7698975"></polygon>
                    <path d="M65.4982526,65.9449312 L63.4884565,69.2955966 L61.7575077,70.7875645 C60.9618699,71.4729278 60.711456,72.6026752 61.1424473,73.5625847 L61.3439756,74.0114777 L72.1596617,67.9113429 L69.4360363,63.7370392 L65.4982526,65.9449312 Z" id="Fill-19" fill="#0A0708" mask="url(#mask-6)"></path>
                    <polygon id="Fill-20" fill="#0A0708" mask="url(#mask-6)" points="72.2417695 67.9582362 61.3412819 74.1059656 60.8155125 73.166096 71.7160001 67.0183666"></polygon>
                    <path d="M60.7885755,41.3894842 L69.4517994,60.9398749 L63.7361767,63.87822 L53.0516836,44.3483702 C51.9622334,42.310316 53.2806477,39.8143509 55.5717853,39.5773795 C56.9236214,39.4376014 60.1939672,40.1615415 60.7885755,41.3894842" id="Fill-21" fill="#005DAF" mask="url(#mask-6)"></path>
                    <path d="M72.573992,16.2831413 L72.9007273,16.0461699 C73.9826949,15.2616092 74.858146,14.5046033 74.0769743,13.4179417 L68.2555991,5.43606371 L64.3552278,8.26368858 L69.9990186,15.9098988 C70.6425126,16.8051798 71.6077534,16.8101897 72.573992,16.2831413" id="Fill-22" fill="#FD7D7D" mask="url(#mask-6)"></path>
                    <path d="M68.7565267,14.2258488 C68.7565267,14.2258488 69.937762,13.2178437 69.6559217,11.5750758 C69.6559217,11.5750758 70.9199632,13.4027114 69.5202392,15.2604068 L68.7565267,14.2258488 Z" id="Fill-23" fill="#E15252" mask="url(#mask-6)"></path>
                    <path d="M68.5468175,14.3965885 L68.5468175,14.3965885 C69.6582163,13.5909859 69.9086302,12.0328865 69.1070064,10.916666 L66.1773632,6.84005661 L61.4015409,10.3024442 L63.7889532,13.6240517 C64.8903753,15.1571013 67.0203901,15.502789 68.5468175,14.3965885" id="Fill-24" fill="#FD7D7D" mask="url(#mask-6)"></path>
                    <path d="M62.2568391,11.231342 L62.3157013,13.2719012 C62.3446336,13.590034 62.712772,13.741335 62.9826403,13.5454453 L64.201787,12.9713032 L62.2568391,11.231342 Z" id="Fill-25" fill="#FD7D7D" mask="url(#mask-6)"></path>
                    <path d="M61.4498777,10.3697781 C63.1394234,12.7209552 66.4067762,13.2510096 68.7477971,11.5541341 C71.0883192,9.85725859 71.6165828,6.5757308 69.9270371,4.22455371 C68.2369926,1.87387762 64.9701386,1.34332221 62.6291178,3.04069872 C60.2880969,4.73757424 59.7603321,8.01910203 61.4498777,10.3697781" id="Fill-26" fill="#FD7D7D" mask="url(#mask-6)"></path>
                </g>
                <g id="Group-30" transform="translate(61.000000, 2.000000)">
                    <mask id="mask-8" fill="white">
                        <use xlink:href="#path-7"></use>
                    </mask>
                    <g id="Clip-29"></g>
                    <path d="M6.82745455,8.10834545 C6.82745455,8.10834545 4.716,8.10452727 3.86890909,5.11652727 C3.86890909,5.11652727 -0.451090909,7.99434545 -1.99636364,7.36434545 C-1.99636364,7.36434545 -2.484,-0.804381818 4.69036364,-1.72838182 C11.8647273,-2.65292727 13.7443636,4.93816364 13.7443636,4.93816364 L10.3696364,9.23416364 L6.82745455,8.10834545 Z" id="Fill-28" fill="#000000" mask="url(#mask-8)"></path>
                </g>
                <g id="Group-221" transform="translate(9.000000, 5.000000)">
                    <path d="M56.8762672,6.06816021 C57.3406178,6.71047271 58.2383956,6.85486854 58.8813042,6.39130812 C59.5247116,5.92824562 59.6698523,5.03199562 59.2055017,4.38968313 C58.7411511,3.74786854 57.8433733,3.60297479 57.2004647,4.06653521 C56.5570573,4.53009562 56.4119165,5.42584771 56.8762672,6.06816021" id="Fill-31" fill="#FD7D7D"></path>
                    <path d="M60.6722711,4.33834792 L62.0129526,6.33748333 C62.0129526,6.33748333 59.8797328,8.01845 58.7470365,6.48835208 L60.2163995,5.78828125 L60.6722711,4.33834792 Z" id="Fill-33" fill="#000000"></path>
                    <path d="M59.4409689,15.4490596 C59.4409689,15.4490596 60.0130528,12.9475263 60.7402528,12.1752575 C61.2574726,11.6260554 63.1203615,9.87289083 64.1443269,9.49596792 C64.4485738,9.38443458 64.7847417,9.41978667 65.0610578,9.58858042 C66.2860257,10.3359533 69.6516948,12.7672804 71.3021096,17.7190617 C72.8916751,22.4876096 73.2318331,37.1333304 73.2318331,37.1333304 C68.7130183,40.0640679 60.2549541,33.32377 60.2549541,33.32377 C60.4714183,24.8676513 58.379596,23.3644408 59.4409689,15.4490596" id="Fill-35" fill="#7F7CCA"></path>
                    <path d="M52.531322,30.9274962 L48.5895788,29.5208817 C48.2698701,29.4068587 47.9137516,29.4681025 47.6509022,29.6822067 L45.897243,31.10824 C45.382517,31.5269879 45.4982306,32.3415796 46.1092183,32.6009942 C46.4209467,32.7329421 46.7805565,32.6756817 47.0354257,32.452615 L47.876843,31.7161962 C47.876843,31.7161962 50.7636973,33.3652963 52.1303146,32.91269 L52.531322,30.9274962 Z" id="Fill-37" fill="#FD7D7D"></path>
                    <path d="M62.5772558,13.4496254 L61.8874632,26.334215 L51.3904459,29.0553296 L51.8248706,32.9779171 L64.6516212,31.6385213 C65.8621249,31.5583567 66.9439472,30.8557963 67.5090484,29.7832838 L69.1789151,15.7729046 L62.5772558,13.4496254 Z" id="Fill-39" fill="#7F7CCA"></path>
                    <polyline id="Stroke-41" stroke="#6A6ABE" stroke-width="0.728" points="59.9246217 26.843036 61.8872637 26.3346631 62.4418909 15.9725194"></polyline>
                    <path d="M60.4681763,32.0752938 L65.8767886,31.4364667 C66.7900281,31.3294146 67.5087491,30.6079333 67.6104973,29.6952521 L68.7127689,19.795175" id="Stroke-43" stroke="#6A6ABE" stroke-width="0.728"></path>
                    <path d="M44.9246504,36.0615648 L59.8167886,33.4594523 C60.273159,33.3797856 60.5789022,32.9456023 60.4990998,32.4895106 C60.4187985,32.0339169 59.9838751,31.728694 59.5270059,31.8083606 L44.6348677,34.4104731 C44.1784973,34.4901398 43.8732528,34.924821 43.9530553,35.3804148 C44.0328578,35.8365065 44.4677812,36.1412315 44.9246504,36.0615648" id="Fill-45" fill="#000000"></path>
                    <path d="M45.0337304,35.2629065 C44.9469452,35.2629065 44.86016,35.2270565 44.7983131,35.1563523 L35.8330044,25.0142877 C35.7177896,24.8843315 35.7302588,24.6861606 35.8599378,24.5711419 C35.9901156,24.4561231 36.189123,24.4680731 36.3043378,24.5990252 L45.2696464,34.7410898 C45.3843625,34.871046 45.3718933,35.0692169 45.2417156,35.1842356 C45.1823625,35.2370148 45.1080464,35.2629065 45.0337304,35.2629065" id="Fill-47" fill="#000000"></path>
                    <polygon id="Fill-49" fill="#B94141" points="187.424727 138.07976 193.923641 143.812275 190.309587 147.468975 183.889977 141.7748"></polygon>
                    <path d="M189.830373,147.175503 L189.071751,151.788203 L187.800896,154.213057 C187.216343,155.326897 187.437795,156.692682 188.344551,157.566028 L188.768501,157.974817 L198.140802,146.396761 L193.248911,142.974082 L189.830373,147.175503 Z" id="Fill-51" fill="#0A0708"></path>
                    <polygon id="Fill-53" fill="#FFFFFF" points="198.253374 146.412097 188.807754 158.08177 187.80324 157.27166 197.24886 145.601987"></polygon>
                    <path d="M177.269664,113.374032 L173.466577,129.638978 C173.286523,130.433155 173.506479,131.264675 174.055619,131.866159 L185.937708,145.384596 L190.1024,139.72428 L182.573535,130.092082 L186.394079,112.130236 L177.269664,113.374032 Z" id="Fill-55" fill="#6262B3"></path>
                    <polygon id="Fill-57" fill="#B94141" points="182.734637 145.708989 183.673313 154.864681 178.53952 154.510164 177.623787 145.439118"></polygon>
                    <path d="M178.488347,154.005326 L174.733142,156.429185 L172.061755,157.046103 C170.834293,157.329916 169.941004,158.386993 169.867685,159.642739 L169.833271,160.23028 L184.738377,159.785143 L184.151829,153.850474 L178.488347,154.005326 Z" id="Fill-59" fill="#0A0708"></path>
                    <polygon id="Fill-61" fill="#FFFFFF" points="184.799875 159.880643 169.778057 160.328768 169.739154 159.040658 184.76147 158.592533"></polygon>
                    <path d="M192.844861,113.374032 L182.916437,113.374032 L176.420017,132.058852 C176.220012,132.634942 176.158664,133.249371 176.241459,133.853344 L178.145246,150.474798 L185.361883,150.474798 L183.501488,133.757744 L192.844861,113.374032 Z" id="Fill-63" fill="#7F7CCA"></path>
                    <path d="M179.160982,88.5122558 L170.331338,105.627643 C169.624587,106.961562 170.096419,108.685848 171.377748,109.452639 C172.49199,110.11935 173.872074,109.8445 174.645659,108.800866 L184.403506,94.9961267 L179.160982,88.5122558 Z" id="Fill-65" fill="#005DAF"></path>
                    <polygon id="Fill-67" fill="#B94141" points="168.649401 95.0887392 167.419944 91.8582558 164.656285 92.5757538 166.183505 96.6183392"></polygon>
                    <path d="M164.275478,87.3122269 C162.948263,88.2413394 163.20812,90.890754 164.147295,92.1290727 C165.08647,93.3673915 166.834144,93.4878873 168.050633,92.3989435 C169.267621,91.3099998 169.492065,89.4233935 168.55289,88.1855727 C167.613715,86.9477519 166.182757,85.9768144 164.275478,87.3122269" id="Fill-69" fill="#B94141"></path>
                    <path d="M163.972029,82.8559723 L163.972029,82.8559723 C163.691224,83.0441848 163.589974,83.437041 163.748582,83.7288202 L167.314755,90.3157598 C167.473362,90.607539 167.832473,90.6926827 168.113777,90.5049681 C168.39508,90.3167556 168.495831,89.9238994 168.337722,89.6321202 L164.771051,83.0451806 C164.612942,82.7529035 164.253332,82.6682577 163.972029,82.8559723" id="Fill-71" fill="#000000"></path>
                    <polygon id="Fill-73" fill="#005DAF" points="175.564883 105.898958 169.447525 94.2382477 164.510246 95.6010456 170.360266 108.380077"></polygon>
                    <path d="M183.111155,86.2300548 L188.574132,86.2156152 C191.106863,86.2156152 193.217639,88.2814715 193.284972,90.8093944 L193.583234,113.373982 C193.583234,113.373982 181.883693,116.343557 177.269614,113.373982 L178.443708,90.656036 C178.571392,88.1754152 180.623313,86.2300548 183.111155,86.2300548" id="Fill-75" fill="#005DAF"></path>
                    <path d="M185.369714,89.8411954 L195.737052,103.111172 C196.70765,104.267833 198.782514,105.035122 199.977057,104.139868 C201.015986,103.360131 201.483329,101.427716 200.806504,100.318358 L192.27562,88.0317662 L185.369714,89.8411954 Z" id="Fill-77" fill="#005DAF"></path>
                    <path d="M193.407918,100.130145 L188.915537,94.2382975" id="Stroke-79" stroke="#005D9E" stroke-width="0.75"></path>
                    <polygon id="Fill-81" fill="#B94141" points="197.804784 115.070583 197.615752 118.521644 200.433278 118.984706 200.680666 114.671254"></polygon>
                    <path d="M198.643009,123.950379 C200.233074,123.638683 201.072496,121.111258 200.716876,119.599583 C200.361256,118.08741 198.813587,117.269333 197.258935,117.772229 C195.704283,118.274627 194.73219,119.907794 195.087809,121.419967 C195.443429,122.931642 196.356669,124.398006 198.643009,123.950379" id="Fill-83" fill="#B94141"></path>
                    <polygon id="Fill-85" fill="#005DAF" points="194.908154 101.602037 196.729645 115.524783 201.796603 116.278629 201.10731 101.22611"></polygon>
                    <path d="M183.139435,79.1359871 L186.395375,85.4495704 C187.040279,86.7401704 186.504605,88.30811 185.204822,88.9369787 C183.902047,89.5663454 182.335923,89.0106704 181.72344,87.7016475 L179.259538,82.6124412 L183.139435,79.1359871 Z" id="Fill-87" fill="#B94141"></path>
                    <path d="M180.282207,84.7397404 C180.282207,84.7397404 182.060306,83.4112987 182.239861,82.1077529 C182.239861,82.1077529 182.5072,84.9254633 181.108162,86.4311633 L180.282207,84.7397404 Z" id="Fill-89" fill="#782121"></path>
                    <path d="M175.919506,76.6461548 L176.12799,81.6068985 C175.995318,83.707609 178.149486,85.9586902 180.094671,85.147086 C181.822893,84.3454402 182.669298,82.3731923 182.058809,80.5712319 L180.336572,75.4924819 C180.079209,75.198711 176.410291,74.5046152 175.919506,76.6461548" id="Fill-91" fill="#B94141"></path>
                    <path d="M176.261409,79.2687317 L175.339691,80.9820629 C175.215,81.2135942 175.283829,81.4794817 175.507276,81.6288567 L176.154175,81.8574004 L176.261409,79.2687317 Z" id="Fill-93" fill="#B94141"></path>
                    <path d="M182.731744,79.179256 C182.731744,79.179256 182.239961,82.1080019 184.661966,82.0891723 L186.042549,79.3595019 C186.56725,78.1092331 186.287941,76.4267727 185.661492,75.223806 C185.154746,74.249881 184.634035,73.7016748 183.06043,73.0952123 C179.330662,71.6582248 177.338094,73.4248331 177.337596,75.0425644 L180.413981,78.1137144 L182.731744,79.179256 Z" id="Fill-95" fill="#000000"></path>
                    <path d="M178.932548,75.2136485 C178.932548,75.2136485 178.47917,78.0303631 180.950054,78.3350881 L178.932548,75.2136485 Z" id="Fill-97" fill="#000000"></path>
                    <polygon id="Fill-99" fill="#000000" points="180.163401 77.3465742 180.283603 79.2854617 181.678152 79.2202346 181.076142 77.4376929"></polygon>
                    <path d="M181.338193,78.8174698 C181.123225,79.8874927 182.03846,80.8195927 183.114796,80.626899 C183.712317,80.5198469 184.204598,80.0378635 184.323803,79.443351 C184.538272,78.373826 183.623536,77.442224 182.548198,77.6344198 C181.950677,77.740974 181.457398,78.2234552 181.338193,78.8174698" id="Fill-101" fill="#B94141"></path>
                    <path d="M180.283703,79.2852625 C180.283703,79.2852625 178.698627,81.4148521 178.568948,82.8214667 C178.568948,82.8214667 177.263679,83.0848646 176.904069,82.3041312 C176.769901,82.0133479 176.474133,81.8291187 176.154424,81.8575 C176.154424,81.8575 175.802296,83.3104208 176.471639,84.8534646 C176.999832,86.0693771 178.514083,86.4891208 179.653264,85.8099625 C181.316148,84.8181125 183.132153,83.7381312 181.938607,80.19645 L181.263279,78.2251979 L180.759525,78.971575 L180.283703,79.2852625 Z" id="Fill-103" fill="#000000"></path>
                    <path d="M180.336772,71.8913992 C184.711942,71.3984617 185.986787,74.2833908 186.336421,76.2471742 L175.704737,76.6415242 C175.82494,75.0506804 176.694787,72.3016825 180.336772,71.8913992" id="Fill-105" fill="#7F7CCA"></path>
                    <path d="M186.336571,76.2471742 C186.374976,76.4647638 186.402408,76.6763783 186.420363,76.8800263 L171.261884,77.5188533 C171.049909,77.5278158 170.87584,77.3515533 170.88781,77.1394408 C170.898783,76.9542158 171.048413,76.8078283 171.233954,76.8013554 L186.336571,76.2471742 Z" id="Fill-107" fill="#7F7CCA"></path>
                    <polygon id="Fill-109" fill="#6262B3" points="150.589105 34.28216 141.665692 19.2639975 139.018245 25.5327683 141.879164 37.0346433"></polygon>
                    <polygon id="Fill-111" fill="#FD7D7D" points="137.178 33.3526492 135.850786 37.9882533 132.724524 36.8863637 133.573423 33.2824429"></polygon>
                    <path d="M132.603374,36.3182906 L129.093561,37.2394365 L127.058599,37.1607656 C126.123413,37.1249156 125.276011,37.708474 124.978248,38.5942677 L124.838594,39.0085344 L135.607937,41.5947135 L136.348105,37.2269885 L132.603374,36.3182906 Z" id="Fill-113" fill="#060005"></path>
                    <path d="M135.633474,41.6747785 L124.77934,39.0686827 L124.944432,38.3830515 C124.97735,38.2476181 125.113513,38.164466 125.249177,38.1968306 L135.857419,40.7441723 L135.633474,41.6747785" id="Fill-115" fill="#FFFFFF"></path>
                    <path d="M138.647014,33.9374025 L132.385513,33.0122733 L136.210545,19.75574 C136.641479,18.291865 138.131291,17.407565 139.625592,17.7287212 C141.350822,18.0991712 142.985775,21.03439 142.391745,22.6929504 L138.647014,33.9374025 Z" id="Fill-117" fill="#6262B3"></path>
                    <polygon id="Fill-119" fill="#FD7D7D" points="115.764654 42.0803317 111.991992 42.1460567 112.310703 38.85184 116.019523 38.8070275"></polygon>
                    <path d="M112.833958,38.597554 L111.093765,35.418356 L110.680289,33.4276852 C110.490259,32.5130123 109.718669,31.8328581 108.785978,31.7571748 L108.349059,31.7213248 L108.427365,42.7790581 L112.851914,42.444956 L112.833958,38.597554 Z" id="Fill-121" fill="#060005"></path>
                    <path d="M108.355294,42.823074 L108.276489,31.6787031 L108.98324,31.6737174 C109.122395,31.6727281 109.236612,31.7847594 109.23761,31.9236781 L109.31442,42.8161031 L108.355294,42.823074" id="Fill-123" fill="#FFFFFF"></path>
                    <path d="M151.547682,33.3645992 L131.76864,35.468795 L115.091919,37.4385533 L115.021094,42.9838512 L131.88984,42.3714137 L146.515139,43.2357971 C146.515139,43.2357971 157.24508,44.5483054 156.677484,37.5495887 L151.547682,33.3645992 Z" id="Fill-125" fill="#7F7CCA"></path>
                    <path d="M158.428101,7.47656729 C158.428101,7.47656729 162.630699,4.64491521 165.030259,7.18379229 C168.311637,10.656761 162.49304,14.0714735 161.980807,15.114609 C161.538402,16.0153402 161.74539,17.181959 162.228195,18.2201152 C162.365356,18.5133881 162.045647,18.8051673 161.771326,18.6328881 C160.383262,17.7595423 158.59818,15.5069673 159.885494,13.3106569 C161.513963,10.5327798 161.956867,8.40269229 158.341815,8.64069646 L158.428101,7.47656729 Z" id="Fill-127" fill="#000000"></path>
                    <path d="M158.471943,5.24928646 C158.566209,5.30306146 160.579227,5.45293437 160.050535,7.55663229 C159.521844,9.66082812 157.849982,9.25502604 157.849982,9.25502604 L158.471943,5.24928646 Z" id="Fill-129" fill="#FF5E4A"></path>
                    <path d="M159.250765,6.69468875 C158.667209,9.63239708 155.808785,11.5414096 152.86557,10.9588471 C149.923353,10.3762846 148.361219,7.59193458 148.945274,4.65422625 C149.528829,1.71651792 152.036622,-0.262202917 154.979837,0.320359583 C157.922054,0.902922083 159.834819,3.75698042 159.250765,6.69468875" id="Fill-131" fill="#000000"></path>
                    <path d="M155.205628,6.94534 L151.394062,10.3127504 L151.866393,14.9742463 C151.866393,14.9742463 151.775119,15.3974754 152.718284,15.7729046 C153.926793,16.25439 155.827588,15.7161421 156.002156,14.5221379 L155.205628,6.94534 Z" id="Fill-133" fill="#FD7D7D"></path>
                    <path d="M154.384909,7.99270771 L155.221838,7.18359313 C155.221838,7.18359313 155.600899,11.8201931 151.59681,12.3136285 L151.394312,10.3125015 L154.384909,7.99270771 Z" id="Fill-135" fill="#E15252"></path>
                    <path d="M151.0153,11.2454479 L151.0153,11.2454479 C149.050663,10.856575 147.67806,9.35535625 148.067596,7.3940625 L149.060139,2.39697083 C149.230218,1.54354167 150.068643,0.983385417 150.923527,1.15267708 L154.95804,1.95133542 C155.813423,2.12062708 156.374534,2.957625 156.204954,3.81155208 L155.32164,8.25695208 C154.932105,10.2182458 152.672199,11.573575 151.0153,11.2454479" id="Fill-137" fill="#FD7D7D"></path>
                    <path d="M148.763573,5.56830167 L147.421396,6.40081833 C147.283736,6.52778708 147.260793,6.72695375 147.365035,6.88479333 L148.200966,7.67100375 L148.763573,5.56830167 Z" id="Fill-139" fill="#FD7D7D"></path>
                    <path d="M157.387228,4.19001854 C157.026121,2.55087688 155.91986,1.06210604 154.542768,1.01032271 C153.805593,0.982439375 152.771154,1.01530188 151.966146,1.05115188 C151.361144,0.471078958 150.428951,-0.021360625 149.369075,0.844516458 C147.516161,2.35868104 148.804472,3.68463313 148.804472,3.68463313 C149.565089,1.79205188 150.721726,1.39421646 150.721726,1.39421646 C150.699781,2.13362271 150.852403,4.18553729 153.00707,5.50800396 C153.177149,6.34400604 153.659455,7.29004771 154.995647,7.14614979 L154.995647,6.32408937 C155.007618,6.32707687 155.018092,6.33106021 155.030062,6.33404771 C155.030062,6.33404771 157.748334,5.82866229 157.387228,4.19001854" id="Fill-141" fill="#000000"></path>
                    <path d="M157.130563,7.16024083 C156.972953,7.95392 156.200365,8.46976167 155.405333,8.31192208 C154.610301,8.15507833 154.09358,7.38380542 154.251689,6.59012625 C154.4088,5.79644708 155.181388,5.28060542 155.97642,5.43794708 C156.770953,5.59528875 157.287674,6.36656167 157.130563,7.16024083" id="Fill-143" fill="#FD7D7D"></path>
                    <path d="M151.923701,16.4273662 L138.607163,20.3564267 C137.308378,20.7398225 136.608111,22.1419558 137.082936,23.4081579 C137.50938,24.5449017 138.738837,25.16431 139.908442,24.8312037 L151.588531,21.5056183 L151.923701,16.4273662 Z" id="Fill-145" fill="#FD7D7D"></path>
                    <path d="M135.747441,10.6692587 L137.04074,23.3661337 C137.503595,24.6363192 138.948518,25.2477608 140.184459,24.697065 C141.295708,24.2026337 141.839861,22.9389212 141.434864,21.7942108 L137.946498,10.5079337 L135.747441,10.6692587 Z" id="Fill-147" fill="#FD7D7D"></path>
                    <path d="M136.09962,7.07345396 C134.838242,7.68887896 134.850212,9.97132896 135.585891,11.1439227 C136.320573,12.3170144 137.870237,12.6466352 139.045827,11.8808394 C140.221916,11.1155415 140.578533,9.54361854 139.843852,8.37102479 C139.108173,7.19843104 137.912632,6.18865604 136.09962,7.07345396" id="Fill-149" fill="#FD7D7D"></path>
                    <path d="M136.198974,3.25279 L136.198974,3.25279 C135.932633,3.37577542 135.809937,3.69593583 135.926648,3.96431292 L138.562124,10.0174858 C138.679334,10.2858629 138.993058,10.404865 139.259399,10.2818796 C139.526238,10.1588942 139.648436,9.83923167 139.531724,9.57035667 L136.895749,3.51718375 C136.779038,3.24880667 136.465315,3.12980458 136.198974,3.25279" id="Fill-151" fill="#000000"></path>
                    <path d="M144.136826,17.6697679 L151.550475,14.7051721 C151.550475,14.7051721 157.227922,12.5158325 158.544164,17.4322617 C158.544164,17.4322617 163.574213,29.4365346 157.300742,41.5946637 C157.300742,41.5946637 150.115028,38.6987804 148.087547,30.4602512 L148.703522,23.1408762 L146.049092,23.9977908 L144.136826,17.6697679 Z" id="Fill-153" fill="#00AE5F"></path>
                    <path d="M148.703672,23.1409758 L152.294284,22.0291279" id="Stroke-155" stroke="#E9E9E9" stroke-width="0.75"></path>
                    <path d="M46.0185926,112.509997 C46.7163654,115.580649 45.8694617,119.634686 42.7940741,120.330774 C39.7186864,121.027359 36.659758,119.103409 35.9614864,116.033255 C35.2642123,112.963101 36.7679901,110.491443 39.8433778,109.794857 C42.9187654,109.097774 45.3208198,109.439843 46.0185926,112.509997" id="Fill-157" fill="#000000"></path>
                    <path d="M37.7936015,110.983683 C37.7936015,110.983683 34.7017546,111.5055 34.9546286,113.952262 C35.1611175,115.950402 38.2275274,115.763683 38.2275274,115.763683 L37.7936015,110.983683 Z" id="Fill-159" fill="#000000"></path>
                    <path d="M38.000639,111.948845 C35.317281,112.556801 35.7372415,114.663984 35.7372415,114.663984 L36.3856365,119.658089 C36.7821551,121.206111 37.4205748,122.477791 38.8480415,122.880605 C39.6929501,123.118609 40.6021995,122.945832 41.3633156,122.509159 L42.340397,121.948007 C43.1284464,121.496397 43.3269551,120.487618 43.1773254,119.593359 L41.6890094,114.945307 C41.6890094,114.945307 40.683997,111.340889 38.000639,111.948845" id="Fill-161" fill="#B94141"></path>
                    <path d="M36.3141136,117.283972 L35.4213235,119.016224 C35.316084,119.261697 35.4088543,119.524099 35.6472642,119.655549 L36.7250963,119.923428 L36.3141136,117.283972 Z" id="Fill-163" fill="#B94141"></path>
                    <polygon id="Fill-165" fill="#B94141" points="43.2520405 116.545362 47.7020257 122.089167 45.7403812 125.767775 40.3881294 119.167392"></polygon>
                    <path d="M42.5153141,121.847876 C42.5153141,121.847876 43.3731906,121.055691 43.4395264,119.722768 C43.4395264,119.722768 43.8963956,121.169714 43.3018672,122.776989 L42.5153141,121.847876 Z" id="Fill-167" fill="#782121"></path>
                    <path d="M35.6351442,112.809992 C35.6351442,112.809992 38.1135096,112.542112 40.3584528,116.058898 L43.3016677,114.951531 C43.3016677,114.951531 41.4672084,110.528537 40.5809022,110.697331 C39.694596,110.866623 35.7842751,111.50296 35.6351442,112.809992" id="Fill-169" fill="#000000"></path>
                    <polygon id="Fill-171" fill="#000000" points="39.5999304 114.721942 41.1171748 117.395754 41.3481032 114.87779"></polygon>
                    <path d="M42.277403,117.724031 C42.277403,117.724031 43.9727067,119.571302 45.5827215,119.448814 L45.1004153,116.085387 L42.277403,117.724031 Z" id="Fill-173" fill="#000000"></path>
                    <path d="M40.8122795,116.798205 C40.877119,117.639186 41.6122993,118.268552 42.4547141,118.203823 C43.2971289,118.139094 43.9275684,117.405165 43.8627289,116.563686 C43.7973906,115.723202 43.0622104,115.093836 42.2197956,115.158565 C41.3773807,115.223294 40.74744,115.957721 40.8122795,116.798205" id="Fill-175" fill="#B94141"></path>
                    <path d="M35.8019812,112.809992 C35.8019812,112.809992 36.7506331,114.427723 39.1367269,114.336604 C41.9208356,114.231046 41.1871516,112.298133 41.1871516,112.298133 L35.8019812,112.809992 Z" id="Fill-177" fill="#000000"></path>
                    <path d="M45.9290143,107.945097 C46.0447279,109.107234 45.1948316,110.143399 44.0302143,110.258916 C42.865597,110.374432 41.8281649,109.525982 41.7119526,108.363347 C41.596239,107.201209 42.4466341,106.165045 43.6112514,106.04903 C44.7753699,105.933514 45.8133007,106.782461 45.9290143,107.945097" id="Fill-179" fill="#000000"></path>
                    <path d="M48.5148637,106.332693 C48.6305773,107.495329 47.780681,108.530995 46.6160637,108.646512 C45.4514464,108.762527 44.4140143,107.914077 44.297802,106.751441 C44.1820884,105.588806 45.0324835,104.552641 46.1971007,104.437125 C47.3612193,104.321608 48.3991501,105.170058 48.5148637,106.332693" id="Fill-181" fill="#000000"></path>
                    <path d="M51.1168232,108.600554 C51.2325368,109.76319 50.3826405,110.798856 49.2180232,110.914373 C48.0534059,111.030388 47.0159738,110.181938 46.8997615,109.019302 C46.7840479,107.856667 47.634443,106.820502 48.7990602,106.704986 C49.9631788,106.589469 51.0011096,107.437919 51.1168232,108.600554" id="Fill-183" fill="#000000"></path>
                    <path d="M49.6823738,111.546229 C49.7980874,112.708865 48.9476923,113.745029 47.7835738,113.860546 C46.6189565,113.976063 45.5810257,113.127613 45.4653121,111.964977 C45.3495985,110.802342 46.1999936,109.766675 47.3641121,109.650661 C48.5287294,109.535144 49.5666602,110.384092 49.6823738,111.546229" id="Fill-185" fill="#000000"></path>
                    <path d="M47.8410316,109.172412 C47.9567452,110.334549 47.1068489,111.370714 45.9422316,111.48623 C44.7776143,111.602245 43.7401822,110.753297 43.6239699,109.590662 C43.5082563,108.428524 44.3586514,107.39236 45.5232686,107.276345 C46.6873872,107.160828 47.725318,108.009776 47.8410316,109.172412" id="Fill-187" fill="#000000"></path>
                    <polygon id="Fill-189" fill="#B94141" points="10.3059901 156.929591 5.7901679 157.441449 6.00613333 153.983418 10.4561185 153.495957"></polygon>
                    <path d="M5.95276543,153.726692 L3.69585185,150.675957 L2.98411358,148.66985 C2.65692346,147.747709 1.76014321,147.151205 0.781565432,147.20498 L0.324197531,147.230373 L1.97660741,158.687934 L6.51836543,157.715005 L5.95276543,153.726692 Z" id="Fill-191" fill="#060005"></path>
                    <path d="M1.90832642,158.7438 L0.242948642,147.196117 L0.974637531,147.091056 C1.11927951,147.070144 1.25344741,147.170225 1.27389679,147.314621 L2.90186716,158.600898 L1.90832642,158.7438" id="Fill-193" fill="#060005"></path>
                    <polygon id="Fill-195" fill="#00AE5F" points="50.3806454 157.863185 28.1506701 156.933574 8.99408741 158.11513 8.7561763 151.846858 28.6364677 150.018508 50.3806454 150.249043"></polygon>
                    <polygon id="Fill-197" fill="#B94141" points="24.1255333 154.870855 21.6561457 157.948478 19.2111975 155.489267 21.6546494 152.476871"></polygon>
                    <path d="M19.3558395,154.898539 L15.6270691,154.172079 L13.7442296,153.173756 C12.8788716,152.714676 11.8140074,152.879985 11.1292025,153.580056 L10.8089951,153.907187 L19.7832815,161.237516 L22.4721259,157.456835 L19.3558395,154.898539 Z" id="Fill-199" fill="#060005"></path>
                    <path d="M19.7706128,161.324801 L10.7260005,153.936713 L11.1943412,153.365603 C11.2866128,153.252576 11.4532005,153.236145 11.5659215,153.327761 L20.40604,160.549047 L19.7706128,161.324801" id="Fill-201" fill="#060005"></path>
                    <path d="M56.0004849,154.198369 C56.8034973,152.707108 56.2463763,150.847887 54.7540701,150.042756 L34.8488405,139.299208 C33.1181244,138.365116 30.971438,138.733077 29.6522035,140.190479 L20.0559565,152.040398 L25.0865047,156.431027 L32.9365738,147.722962 L45.5029689,156.530112 C48.9818578,159.113304 53.9470677,158.010419 56.0004849,154.198369" id="Fill-203" fill="#00AE5F"></path>
                    <path d="M56.0004849,154.198369 C56.0004849,154.198369 58.3017886,150.603908 56.3675763,145.815941 L47.3818183,147.098077 L56.0004849,154.198369 Z" id="Fill-205" fill="#00AE5F"></path>
                    <path d="M58.5620444,147.562534 C58.5620444,147.562534 57.2288444,131.753181 48.352316,122.575581 C47.0605136,121.240667 44.8454963,121.740575 44.2754074,123.507184 C43.9133037,124.630981 43.1871012,127.7335 43.487358,130.301754 C44.4928691,138.90924 42.6065383,143.48609 42.6065383,143.48609 C42.6065383,143.48609 51.2705926,150.519661 58.5620444,147.562534" id="Fill-207" fill="#0063B1"></path>
                    <polygon id="Fill-209" fill="#B94141" points="31.4918499 131.902507 29.1406696 129.526946 26.979519 131.238784 29.9107635 134.216325"></polygon>
                    <path d="M24.5824025,126.735625 C23.7729062,128.074025 25.0397704,130.314153 26.354516,131.042107 C27.668763,131.770061 29.2608222,131.195465 29.909716,129.758478 C30.5586099,128.321988 30.0194444,126.566832 28.7046988,125.838878 C27.3899531,125.110923 25.7460222,124.811675 24.5824025,126.735625" id="Fill-211" fill="#B94141"></path>
                    <path d="M22.9404667,121.98789 L22.9404667,121.98789 C22.7304864,122.238342 22.7434543,122.629705 22.9693951,122.857751 L28.0622889,128.005711 C28.2877309,128.234255 28.6443481,128.21633 28.8543284,127.965878 C29.0643086,127.715426 29.0513407,127.324063 28.8254,127.096017 L23.7330049,121.947559 C23.5070642,121.719513 23.1504469,121.737438 22.9404667,121.98789" id="Fill-213" fill="#000000"></path>
                    <polygon id="Fill-215" fill="#0063B1" points="42.7576642 139.493296 31.2666074 130.36499 27.4385827 133.442115 38.4039407 143.044438"></polygon>
                    <path d="M44.5184059,123.218093 L37.2932899,139.485529 C36.6768158,140.806999 37.2169788,142.448133 38.4913244,143.125299 C39.5995812,143.714335 40.9178183,143.381229 41.6130973,142.336101 L49.1479467,130.527012 L44.5184059,123.218093 Z" id="Fill-217" fill="#0063B1"></path>
                    <path d="M43.4378306,139.476267 L48.119243,132.139465" id="Stroke-219" stroke="#005A99" stroke-width="0.75"></path>
                </g>
            </g>
        </g>
    </g>
</svg>