<svg id="wallet" xmlns="http://www.w3.org/2000/svg" xmlns:xlink="http://www.w3.org/1999/xlink" width="30" height="30" viewBox="0 0 30 30">
  <defs>
    <linearGradient id="linear-gradient" x1="1" y1="0.5" x2="0.5" y2="0.5" gradientUnits="objectBoundingBox">
      <stop offset="0" stop-color="#295dab"/>
      <stop offset="1" stop-color="#5495f7"/>
    </linearGradient>
  </defs>
  <path id="Shape" d="M25.638,30H2.908A2.9,2.9,0,0,1,0,27.122V7.354A2.9,2.9,0,0,1,2.908,4.475h8.639L19.281.218A1.789,1.789,0,0,1,20.128,0a1.749,1.749,0,0,1,1.525.888l2.015,3.587h1.969a2.9,2.9,0,0,1,2.908,2.878v6.621H30v7.34H28.546v5.806A2.9,2.9,0,0,1,25.638,30ZM2.908,5.627A1.738,1.738,0,0,0,1.163,7.354V27.122a1.738,1.738,0,0,0,1.745,1.727h22.73a1.738,1.738,0,0,0,1.744-1.727V21.316H23.13a3.569,3.569,0,0,1-3.583-3.547v-.247a3.569,3.569,0,0,1,3.583-3.546h4.253V8.314H3.272a.576.576,0,1,1,0-1.152H6.666L9.455,5.627Zm20.222,9.5a2.411,2.411,0,0,0-2.42,2.4v.247a2.41,2.41,0,0,0,2.42,2.395h5.707V15.126H23.13Zm1.186-9.5.862,1.535h2.185a1.734,1.734,0,0,0-1.725-1.535Zm-4.2-4.472a.58.58,0,0,0-.274.069L9.06,7.161H23.847l-3.21-5.714A.6.6,0,0,0,20.12,1.155Zm3.506,17.809a1.271,1.271,0,1,1,1.284-1.271A1.279,1.279,0,0,1,23.627,18.964Z" fill="url(#linear-gradient)"/>
</svg>
