<?xml version="1.0" encoding="utf-8"?>
<!-- Generator: Adobe Illustrator 23.0.4, SVG Export Plug-In . SVG Version: 6.00 Build 0)  -->
<svg version="1.1" id="Layer_1" xmlns="http://www.w3.org/2000/svg" xmlns:xlink="http://www.w3.org/1999/xlink" x="0px" y="0px"
	 viewBox="0 0 20 20" style="enable-background:new 0 0 20 20;" xml:space="preserve">
<style type="text/css">
	.st0{fill-rule:evenodd;clip-rule:evenodd;fill-opacity:0;}
	.st1{fill:none;stroke:#5495F7;stroke-width:2;stroke-linecap:round;stroke-linejoin:round;}
	.st2{fill-rule:evenodd;clip-rule:evenodd;fill:#5495F7;}
</style>
<title>Info circle</title>
<desc>Created with Sketch.</desc>
<g id="Icons">
	<g id="Faticons" transform="translate(-316.000000, -411.000000)">
		<g transform="translate(314.000000, 409.000000)">
			<rect id="Rectangle" class="st0" width="24" height="24"/>
			<path id="Stroke-1" class="st1" d="M13.1,21h-2.2C6.5,21,3,17.5,3,13.1v-2.2C3,6.5,6.5,3,10.9,3h2.2c4.3,0,7.9,3.5,7.9,7.9v2.2
				C21,17.5,17.5,21,13.1,21z"/>
			<path id="Stroke-3" class="st1" d="M12,12v4"/>
			<path id="Fill-5" class="st2" d="M13,8c0,0.6-0.4,1-1,1s-1-0.4-1-1s0.4-1,1-1S13,7.4,13,8"/>
		</g>
	</g>
</g>
</svg>
