<?xml version="1.0" encoding="UTF-8"?>
<svg width="45px" height="45px" viewBox="0 0 45 45" version="1.1" xmlns="http://www.w3.org/2000/svg" xmlns:xlink="http://www.w3.org/1999/xlink">
    <!-- Generator: Sketch 55.2 (78181) - https://sketchapp.com -->
    <title>Money2</title>
    <desc>Created with Sketch.</desc>
    <g id="Icons" stroke="none" stroke-width="1" fill="none" fill-rule="evenodd">
        <g id="More-Icons" transform="translate(-29.000000, -107.000000)" fill="#5495F7" fill-rule="nonzero">
            <g id="Money2" transform="translate(29.000000, 107.000000)">
                <g id="Group">
                    <path d="M22.5,0 C10.0735,0 0,10.0735 0,22.5 C0,34.926 10.0735,45 22.5,45 C34.9265,45 45,34.926 45,22.5 C45,10.0735 34.9265,0 22.5,0 Z M22.5,43 C11.1965,43 2,33.8035 2,22.5 C2,11.1965 11.1965,2 22.5,2 C33.8035,2 43,11.1965 43,22.5 C43,33.8035 33.8035,43 22.5,43 Z" id="Shape"></path>
                    <path d="M21.0065,34 L21.0065,31.3225 C19.118,31.2375 17.2855,30.7025 16.2145,30.1105 L17.06,26.8125 C18.2435,27.461 19.9065,28.0525 21.7385,28.0525 C23.3735,28.0525 24.4725,27.404 24.4725,26.3055 C24.4725,25.234 23.5705,24.5575 21.4565,23.8525 C18.441,22.8385 16.3835,21.429 16.3835,18.695 C16.3835,16.1865 18.131,14.2415 21.147,13.678 L21.147,11 L23.909,11 L23.909,13.48 C25.7695,13.5365 27.038,13.959 28.024,14.41 L27.179,17.595 C26.4745,17.257 25.149,16.6085 23.12,16.6085 C21.288,16.6085 20.696,17.426 20.696,18.215 C20.696,19.117 21.683,19.737 24.1065,20.611 C27.461,21.795 28.785,23.345 28.785,25.9095 C28.785,28.4185 27.038,30.561 23.7965,31.096 L23.7965,34 L21.0065,34 Z" id="Path"></path>
                </g>
            </g>
        </g>
    </g>
</svg>