<?xml version="1.0" encoding="UTF-8"?>
<svg width="45px" height="45px" viewBox="0 0 45 45" version="1.1" xmlns="http://www.w3.org/2000/svg" xmlns:xlink="http://www.w3.org/1999/xlink">
    <!-- Generator: Sketch 55.2 (78181) - https://sketchapp.com -->
    <title>Password2</title>
    <desc>Created with Sketch.</desc>
    <g id="Icons" stroke="none" stroke-width="1" fill="none" fill-rule="evenodd">
        <g id="More-Icons" transform="translate(-103.000000, -107.000000)" fill="#5495F7" fill-rule="nonzero">
            <g id="Password2" transform="translate(103.000000, 107.000000)">
                <path d="M22.471216,10.55875 C19.0747093,10.55875 16.3690175,13.3232651 16.3690175,16.6637208 L16.3690175,19.5434239 L14.5268444,19.5434239 C13.9511653,19.5434239 13.4330541,20.0041764 13.4330541,20.6377111 L13.4330541,30.8894544 C13.4330541,31.4653951 13.8935974,31.9837416 14.5268444,31.9837416 L30.4155877,31.9837416 C30.9912668,31.9837416 31.509378,31.5229891 31.509378,30.8894544 L31.509378,20.6377111 C31.509378,20.0617705 31.0488347,19.5434239 30.4155877,19.5434239 L28.5734145,19.5434239 L28.5734145,16.6637208 C28.5734145,13.3232651 25.8677228,10.55875 22.471216,10.55875 Z M18.4990302,16.6637208 C18.4990302,14.4751463 20.2836355,12.6897304 22.471216,12.6897304 C24.6587966,12.6897304 26.4434019,14.4751463 26.4434019,16.6637208 L26.4434019,19.5434239 L18.4990302,19.5434239 L18.4990302,16.6637208 Z M29.3217974,29.8527613 L15.5630668,29.8527613 L15.5630668,21.7319983 L29.3217974,21.7319983 L29.3217974,29.8527613 Z M3.3586698,29.3344147 C3.53137353,29.9103554 3.24353398,30.486296 2.72542279,30.7166723 C2.61028697,30.7742663 2.49515115,30.7742663 2.38001533,30.7742663 C1.91947204,30.7742663 1.51649667,30.486296 1.34379294,30.0831376 C-1.59217049,21.9047805 0.365138462,12.9777007 6.40976905,6.75754184 C14.9873877,-1.99675582 29.0339578,-2.28472613 37.899416,6.12400714 L37.899416,4.22340304 C37.899416,3.64746241 38.3599593,3.12911584 38.9932063,3.12911584 C38.9932063,3.12911584 38.9932063,3.12911584 38.9932063,3.12911584 C39.5688854,3.12911584 40.0869966,3.58986834 40.0869966,4.22340304 L40.1445645,8.71574 C40.1445645,9.29168063 39.6840212,9.8100272 39.0507742,9.8100272 L34.5604772,9.86762127 C34.5604772,9.86762127 34.5604772,9.86762127 34.5604772,9.86762127 C33.9847981,9.86762127 33.4666869,9.40686876 33.4666869,8.77333406 C33.4666869,8.19739342 33.9272302,7.67904685 34.5604772,7.67904685 L36.4026504,7.67904685 C28.3431429,0.134224534 15.7357705,0.422194851 7.96410263,8.31258155 C7.96410263,8.31258155 7.96410263,8.31258155 7.96410263,8.31258155 C2.43758324,13.8992057 0.652978014,21.9623746 3.3586698,29.3344147 Z M43.6562071,14.8783048 C46.5921705,23.0566618 44.6348615,31.9837416 38.5902309,38.2039005 C34.3877735,42.5234553 28.7461183,44.8848119 22.7590556,45 C22.6439198,45 22.5863519,45 22.471216,45 C16.714425,45 11.2454735,42.8114256 7.04301607,38.8950293 L7.04301607,40.7956334 C7.04301607,41.371574 6.58247278,41.8899206 5.94922577,41.8899206 C5.94922577,41.8899206 5.94922577,41.8899206 5.94922577,41.8899206 C5.37354666,41.8899206 4.85543547,41.4291681 4.85543547,40.7956334 L4.79786756,36.3032964 C4.79786756,36.0153261 4.91300338,35.7273558 5.08570711,35.5545736 C5.25841084,35.3241973 5.5462504,35.2090092 5.83408995,35.2090092 L10.324387,35.1514151 C10.324387,35.1514151 10.324387,35.1514151 10.324387,35.1514151 C10.9000661,35.1514151 11.4181773,35.6121676 11.4181773,36.2457023 C11.4181773,36.821643 10.957634,37.3399896 10.324387,37.3399896 L8.48221382,37.3399896 C12.3392638,40.9108215 17.347672,42.8690197 22.5863519,42.8114256 C27.9977354,42.7538315 33.1212795,40.5652571 36.9207615,36.7064549 C42.389713,31.0622366 44.1743183,22.9990677 41.5261944,15.6270276 C41.3534906,15.051087 41.6413302,14.4751463 42.1594414,14.2447701 C42.7926884,14.0143938 43.4259354,14.3023642 43.6562071,14.8783048 Z" id="Shape"></path>
            </g>
        </g>
    </g>
</svg>