<svg xmlns="http://www.w3.org/2000/svg" xmlns:xlink="http://www.w3.org/1999/xlink" preserveAspectRatio="xMidYMid" width="525.062" height="486.56" viewBox="0 0 525.062 486.56">
  <defs>
    <style>
      .cls-1 {
        fill: #004cff;
        opacity: 0.2;
        fill-rule: evenodd;
      }
    </style>
  </defs>
  <g>
    <path d="M45.018,193.214 L368.045,6.713 C391.959,-7.093 422.539,1.100 436.346,25.015 L518.346,167.044 C532.153,190.958 523.960,221.537 500.045,235.345 L177.017,421.844 C153.103,435.652 122.523,427.458 108.716,403.543 L26.716,261.515 C12.909,237.601 21.103,207.021 45.018,193.214 Z" class="cls-1"/>
    <path d="M25.018,251.214 L348.045,64.714 C371.959,50.907 402.539,59.100 416.346,83.015 L498.346,225.043 C512.153,248.958 503.960,279.537 480.045,293.344 L157.018,479.844 C133.103,493.652 102.523,485.458 88.716,461.544 L6.716,319.515 C-7.091,295.600 1.103,265.021 25.018,251.214 Z" class="cls-1"/>
  </g>
</svg>
