<?xml version="1.0" encoding="UTF-8"?>
<svg width="283px" height="249px" viewBox="0 0 283 249" version="1.1" xmlns="http://www.w3.org/2000/svg" xmlns:xlink="http://www.w3.org/1999/xlink">
    <!-- Generator: Sketch 60.1 (88133) - https://sketch.com -->
    <title>Group 303 Copy@3x</title>
    <desc>Created with Sketch.</desc>
    <defs>
        <polygon id="path-1" points="0.0783451517 0.0755041747 275.142094 0.0755041747 275.142094 67.5 0.0783451517 67.5"></polygon>
        <polygon id="path-3" points="0.0666231224 0.201087432 59.17275 0.201087432 59.17275 47.846385 0.0666231224 47.846385"></polygon>
        <path d="M0.150525,4.103775 C0.150525,4.103775 -0.3114,19.473525 6.845175,25.141275 L6.845175,25.141275 C14.199075,30.96405 34.296075,27.70875 32.039775,3.1986 L32.039775,3.1986 C32.039775,3.1986 36.563625,0.784575 33.662925,0.5553 L33.662925,0.5553 C33.662925,0.5553 30.2076,0.183375 25.137675,0.183375 L25.137675,0.183375 C18.25245,0.183375 8.388225,0.869175 0.150525,4.103775" id="path-5"></path>
        <linearGradient x1="57.0523212%" y1="80.7027972%" x2="48.9291387%" y2="19.0510904%" id="linearGradient-7">
            <stop stop-color="#FEFEFE" offset="0%"></stop>
            <stop stop-color="#58585B" offset="100%"></stop>
        </linearGradient>
        <path d="M0.63045,6.220575 C-1.384875,7.125975 2.2392,8.0334 2.2392,8.0334 L2.2392,8.0334 C4.700475,29.22795 21.24495,28.552725 26.59905,21.671325 L26.59905,21.671325 C32.094225,14.6088 28.561275,0.073125 28.561275,0.073125 L28.561275,0.073125 C27.785475,0.02475 27.008325,0.0018 26.230275,0.0018 L26.230275,0.0018 C13.403925,0.00225 0.63045,6.220575 0.63045,6.220575" id="path-8"></path>
        <linearGradient x1="56.6359388%" y1="88.6411335%" x2="47.7805115%" y2="14.7066024%" id="linearGradient-10">
            <stop stop-color="#FEFEFE" offset="0%"></stop>
            <stop stop-color="#58585B" offset="100%"></stop>
        </linearGradient>
        <path d="M15.7833,0.93555 C11.13255,3.180825 6.642225,9.114525 6.642225,9.114525 L6.642225,9.114525 C6.642225,9.595575 5.19885,28.03815 4.076325,29.80215 L4.076325,29.80215 C2.9538,31.566375 0.066825,31.7268 0.066825,31.7268 L0.066825,31.7268 L1.510425,36.217125 L14.339925,36.537975 C14.339925,36.537975 22.83975,29.1609 25.0848,24.51015 L25.0848,24.51015 C27.32985,19.8594 27.97155,15.529275 27.97155,15.529275 L27.97155,15.529275 L22.5189,15.36885 C22.5189,15.36885 23.9625,3.98295 26.528175,2.0583 L26.528175,2.0583 C27.16425,1.5813 27.79065,1.340775 28.372725,1.24875 L28.372725,1.24875 C26.114175,0.73395 22.98465,0.1638 20.20095,0.1638 L20.20095,0.1638 C18.509625,0.1638 16.9461,0.3744 15.7833,0.93555 M28.372725,1.24875 C30.231,1.6722 31.49955,2.0583 31.49955,2.0583 L31.49955,2.0583 C31.49955,2.0583 30.430575,1.20285 28.9575,1.20285 L28.9575,1.20285 C28.7685,1.20285 28.573425,1.217025 28.372725,1.24875" id="path-11"></path>
        <linearGradient x1="0.000565851354%" y1="50.0001567%" x2="99.9999898%" y2="50.0001567%" id="linearGradient-13">
            <stop stop-color="#5495F7" offset="0%"></stop>
            <stop stop-color="#2483C5" offset="100%"></stop>
        </linearGradient>
        <path d="M19.545975,20.2788 C13.291425,27.816075 6.395625,27.495225 4.15035,26.372475 L4.15035,26.372475 C1.9053,25.24995 0.1413,24.127425 0.1413,24.127425 L0.1413,24.127425 L1.49895,31.833225 C1.49895,31.833225 4.79205,28.938375 10.565325,29.099025 L10.565325,29.099025 C16.3386,29.25945 18.744075,30.7026 22.2723,30.7026 L22.2723,30.7026 C25.800525,30.7026 27.725175,31.3443 29.6496,29.419875 L29.6496,29.419875 C31.5738,27.495225 32.055075,26.693325 32.055075,26.693325 L32.055075,26.693325 L22.111875,0.071775 C22.111875,0.071775 25.800525,12.741525 19.545975,20.2788" id="path-14"></path>
        <linearGradient x1="-4.95632372e-05%" y1="50.0001903%" x2="99.9998783%" y2="50.0001903%" id="linearGradient-16">
            <stop stop-color="#5495F7" offset="0%"></stop>
            <stop stop-color="#2483C5" offset="100%"></stop>
        </linearGradient>
        <path d="M7.7265,4.945275 C1.953,7.6716 0.188775,11.36025 0.188775,11.36025 L0.188775,11.36025 C0.188775,11.36025 2.594475,10.878975 4.83975,10.878975 L4.83975,10.878975 C7.0848,10.878975 11.254725,11.0394 11.254725,11.0394 L11.254725,11.0394 C11.254725,11.0394 12.858525,10.0773 14.94315,9.59625 L14.94315,9.59625 C15.985575,9.35595 16.867575,9.396 17.52885,9.43605 L17.52885,9.43605 C18.190575,9.4761 18.631575,9.51615 18.792,9.2754 L18.792,9.2754 C19.112625,8.794125 21.3579,0.134325 21.3579,0.134325 L21.3579,0.134325 C20.87685,0.134325 13.499775,2.21895 7.7265,4.945275" id="path-17"></path>
        <linearGradient x1="0.000831907318%" y1="49.9996693%" x2="99.9997686%" y2="49.9996693%" id="linearGradient-19">
            <stop stop-color="#5495F7" offset="0%"></stop>
            <stop stop-color="#2483C5" offset="100%"></stop>
        </linearGradient>
        <path d="M5.3469,9.908775 C-2.19015,17.767125 0.0549,26.1063 2.300175,25.62525 L2.300175,25.62525 C4.545225,25.1442 10.837125,20.056275 16.591725,19.713375 L16.591725,19.713375 C22.34655,19.370925 25.55415,19.370925 28.921725,19.69155 L28.921725,19.69155 C32.2893,20.0124 38.223225,21.134925 38.223225,21.134925 L38.223225,21.134925 L27.9594,0.12645 C27.47835,0.12645 12.884175,2.05065 5.3469,9.908775" id="path-20"></path>
        <linearGradient x1="-7.18705212e-05%" y1="49.9999878%" x2="99.9998628%" y2="49.9999878%" id="linearGradient-22">
            <stop stop-color="#5495F7" offset="0%"></stop>
            <stop stop-color="#2483C5" offset="100%"></stop>
        </linearGradient>
    </defs>
    <g id="Invision-4" stroke="none" stroke-width="1" fill="none" fill-rule="evenodd">
        <g id="Group-303-Copy">
            <g id="Group-302">
                <g id="Group-89" transform="translate(2.700000, 0.202500)">
                    <g id="Group-3" transform="translate(0.000000, 180.675000)">
                        <mask id="mask-2" fill="white">
                            <use xlink:href="#path-1"></use>
                        </mask>
                        <g id="Clip-2"></g>
                        <path d="M63.9867825,20.64582 C62.0713575,20.45907 1.3008825,55.336095 0.0836325,59.596245 C-1.1336175,63.85662 208.225282,69.33402 213.702682,66.89952 C219.180307,64.465245 270.303007,24.90642 274.563157,20.03742 C278.823082,15.16842 258.739357,15.16842 241.698532,7.865145 C224.657707,0.56187 225.165532,0.45792 207.262057,0.205695 C189.358807,-0.04653 168.666007,-0.65493 148.582282,6.64812 C128.498782,13.95117 88.9392825,23.080095 63.9867825,20.64582" id="Fill-1" fill="#102F63" mask="url(#mask-2)"></path>
                    </g>
                    <path d="M240.446115,199.088392 C240.446115,206.207167 221.51754,211.977967 198.168165,211.977967 C174.818565,211.977967 155.889765,206.207167 155.889765,199.088392 C155.889765,191.969617 174.818565,186.198817 198.168165,186.198817 C221.51754,186.198817 240.446115,191.969617 240.446115,199.088392" id="Fill-4" fill="#5C6C7E"></path>
                    <path d="M198.168075,187.487708 C174.012525,187.487708 157.1787,193.601408 157.1787,199.088482 C157.1787,204.575333 174.012525,210.689033 198.168075,210.689033 C222.323625,210.689033 239.157225,204.575333 239.157225,199.088482 C239.157225,193.601408 222.323625,187.487708 198.168075,187.487708 M198.168075,213.266858 C186.75135,213.266858 176.00085,211.906283 167.897025,209.435558 C159.19875,206.783707 154.600875,203.205533 154.600875,199.088482 C154.600875,194.970983 159.19875,191.393033 167.897025,188.740958 C176.00085,186.270458 186.75135,184.909658 198.168075,184.909658 C209.584575,184.909658 220.3353,186.270458 228.439125,188.740958 C237.1374,191.393033 241.735275,194.970983 241.735275,199.088482 C241.735275,203.205533 237.1374,206.783707 228.439125,209.435558 C220.3353,211.906283 209.584575,213.266858 198.168075,213.266858" id="Fill-6" fill="#2C5DAB"></path>
                    <path d="M207.081495,182.181758 L207.081495,198.889358 C207.081495,198.889358 203.46462,201.472807 201.05307,199.578307 L201.05307,182.870933 L207.081495,182.181758 Z" id="Fill-8" fill="#2C5DAB"></path>
                    <path d="M202.342005,198.844493 C202.58658,198.937868 202.85793,198.983542 203.161455,198.983542 C204.098805,198.983542 205.13268,198.534668 205.792605,198.171292 L205.792605,183.626393 L202.342005,184.020817 L202.342005,198.844493 Z M203.161455,201.561592 C202.053105,201.561592 201.075705,201.235343 200.256705,200.591842 L199.76418,200.204842 L199.76418,181.720867 L208.370655,180.736717 L208.370655,199.552343 L207.83088,199.937993 C207.598005,200.104267 205.490655,201.561592 203.161455,201.561592 L203.161455,201.561592 Z" id="Fill-10" fill="#2C5DAB"></path>
                    <path d="M230.082277,122.491935 C230.082277,122.491935 230.164852,133.49601 229.618777,136.70226" id="Fill-12" fill="#FEFEFE"></path>
                    <path d="M229.62042,137.991443 C229.548645,137.991443 229.47552,137.985592 229.402395,137.972993 C228.70062,137.853743 228.22857,137.187743 228.34827,136.485968 C228.869145,133.427317 228.79422,122.610667 228.79332,122.501542 C228.788145,121.789867 229.360995,121.208243 230.072895,121.203068 L230.082795,121.203068 C230.78997,121.203068 231.36597,121.773668 231.371145,122.482418 C231.37452,122.936242 231.44832,133.637918 230.889645,136.918643 C230.782545,137.547067 230.237145,137.991443 229.62042,137.991443" id="Fill-14" fill="#2C5DAB"></path>
                    <path d="M221.897003,41.8502925 C221.897003,41.8502925 246.036128,36.6091425 263.114753,43.8039675 C280.193827,50.9987925 281.522002,68.9506425 273.916553,77.1937425 C266.311552,85.4361675 249.211552,84.9841425 249.211552,84.9841425 C249.211552,84.9841425 238.207478,55.0618425 221.897003,41.8502925" id="Fill-16" fill="#648DC9"></path>
                    <g id="Group-20" transform="translate(220.500000, 38.475000)">
                        <mask id="mask-4" fill="white">
                            <use xlink:href="#path-3"></use>
                        </mask>
                        <g id="Clip-19"></g>
                        <path d="M4.37013,4.1856525 C18.24633,16.9249275 27.744255,40.2880275 29.63043,45.1779525 C33.15438,45.1271025 46.29078,44.4791025 52.43868,37.8166275 C55.926855,34.0350525 57.31443,28.0903275 56.05983,22.3010775 C55.18053,18.2468025 52.198155,10.8103275 42.09813,6.5553525 C36.879255,4.3566525 30.421305,3.1277025 22.90293,2.9011275 C15.128955,2.6669025 8.06148,3.5826525 4.37013,4.1856525 M28.67148,47.8394775 C28.12833,47.8232775 27.64998,47.4788025 27.462555,46.9685025 C27.35343,46.6728525 16.39233,17.2340775 0.559755,4.4093025 C0.16173,4.0873275 -0.01557,3.5653275 0.10278,3.0674025 C0.22113,2.5688025 0.61443,2.1833775 1.11483,2.0742525 C1.52658,1.9853775 11.33163,-0.1104975 22.98303,0.2407275 C30.830805,0.4769775 37.60938,1.7761275 43.131555,4.1024025 C51.43923,7.6020525 56.95443,13.8653775 58.66083,21.7374525 C60.096555,28.3601025 58.461705,35.2131525 54.39483,39.6209025 C46.471005,48.2087025 29.398905,47.8590525 28.675755,47.8399275 C28.674405,47.8399275 28.672605,47.8394775 28.67148,47.8394775" id="Fill-18" fill="#2C5DAB" mask="url(#mask-4)"></path>
                    </g>
                    <path d="M198.91647,208.654403 C198.91647,211.061903 200.868345,213.014003 203.27607,213.014003 C205.683795,213.014003 207.63567,211.061903 207.63567,208.654178 C207.63567,206.246453 205.683795,204.294578 203.27607,204.294578 C200.868345,204.294578 198.91647,206.246453 198.91647,208.654403" id="Fill-21" fill="#FEFEFE"></path>
                    <path d="M203.27607,205.583512 C201.58317,205.583512 200.205495,206.961187 200.205495,208.654313 C200.205495,210.347437 201.58317,211.725112 203.27607,211.725112 C204.96897,211.725112 206.346645,210.347437 206.346645,208.654088 C206.346645,206.961187 204.96897,205.583512 203.27607,205.583512 M203.27607,214.302937 C200.161395,214.302937 197.62767,211.768987 197.62767,208.654313 C197.62767,205.539862 200.161395,203.005687 203.27607,203.005687 C206.390745,203.005687 208.92447,205.539637 208.92447,208.654088 C208.92447,211.768763 206.390745,214.302937 203.27607,214.302937" id="Fill-23" fill="#2C5DAB"></path>
                    <path d="M244.884375,127.956757 C244.884375,127.956757 265.33125,127.953158 273.048975,144.071258 C280.76715,160.188683 241.994925,182.526683 206.407575,182.165558 C150.474825,181.597658 138.00465,155.770583 138.00465,155.770583 L244.884375,127.956757 Z" id="Fill-25" fill="#648DC9"></path>
                    <path d="M140.00031,156.583373 C141.47721,158.778473 145.082385,163.290848 152.127585,167.799173 C161.201835,173.605523 177.98661,180.587948 206.42076,180.876398 C206.70291,180.879323 206.979435,180.880673 207.262035,180.880673 C219.904785,180.880673 233.65791,178.005173 245.988585,172.783823 C257.60916,167.863073 266.555385,161.418847 270.53316,155.103548 C272.934135,151.291148 273.38976,147.766973 271.886535,144.627772 C264.947985,130.137773 246.900285,129.295597 245.03886,129.248573 L140.00031,156.583373 Z M207.262035,183.458497 C206.97066,183.458497 206.685585,183.456922 206.394435,183.454448 C193.524885,183.323723 181.878435,181.839848 171.779085,179.043772 C163.65996,176.796247 156.511485,173.698898 150.53211,169.838122 C140.237235,163.190272 136.977435,156.607898 136.84401,156.331148 L136.16181,154.918373 L244.719135,126.667822 L244.88406,126.667822 C245.101185,126.667822 250.275285,126.690547 256.478085,128.746148 C264.768885,131.494073 270.901035,136.600673 274.211685,143.514698 C276.09561,147.448823 275.577885,151.931273 272.714535,156.477397 C268.462485,163.227847 259.087635,170.036572 246.99366,175.158023 C234.352485,180.510548 220.24206,183.458497 207.262035,183.458497 L207.262035,183.458497 Z" id="Fill-27" fill="#2C5DAB"></path>
                    <path d="M222.155618,167.35437 C221.604818,167.35437 221.242793,167.349645 221.100143,167.347395 C220.107893,167.330745 219.317468,166.541895 219.333859,165.585645 C219.351218,164.639295 220.152443,163.882845 221.130518,163.882845 C221.141093,163.882845 221.150768,163.882845 221.162018,163.883295 C221.284418,163.886445 233.596418,164.057445 245.862518,161.73612 C256.709093,159.683895 269.763593,155.23182 270.358268,145.674045 C270.417893,144.71892 271.264118,143.992395 272.260418,144.04887 C273.251093,144.106245 274.005968,144.926595 273.946568,145.881945 C272.666093,166.446945 229.698293,167.35437 222.155618,167.35437" id="Fill-29" fill="#2C5DAB"></path>
                    <path d="M148.97151,149.822617 C145.14516,147.418267 136.173735,139.349542 136.173735,139.349542 C136.173735,139.349542 136.539135,141.541717 135.442935,143.222467 C134.346735,144.903217 130.47426,147.533692 128.64771,147.825742 C126.820935,148.118017 130.109085,148.922167 131.131935,149.141092 C132.154785,149.360467 134.054685,148.995067 132.301035,149.652517 C130.547385,150.310192 130.254885,151.260367 130.693635,151.625542 C131.131935,151.990717 134.165835,151.927492 137.409885,153.317992 C140.654385,154.708267 139.03236,154.244767 136.483335,154.708267 C133.934085,155.171767 152.502885,157.443592 155.29131,157.257517 C157.472685,157.111942 165.32091,154.054417 162.540585,155.213167 C159.759585,156.371467 163.80576,156.931717 167.74506,156.699967 C171.68436,156.468217 173.32146,159.302317 173.32146,159.302317 C179.34291,159.302317 184.474035,161.161042 184.474035,161.161042 L178.340085,164.507017 L195.141285,159.012967 L194.105385,160.566817 L195.10911,163.355017 C195.10911,163.355017 193.213035,164.470117 194.21676,165.808192 C195.22026,167.146042 195.55506,166.589167 193.101885,167.034892 C190.64826,167.480842 195.443685,169.265092 195.443685,169.265092 C195.443685,169.265092 196.112835,171.383917 197.22771,172.833592 C198.343035,174.283042 200.684835,172.164442 200.684835,172.164442 C200.684835,172.164442 199.79226,175.286767 199.79226,176.067517 C199.79226,176.848042 201.79971,174.506242 204.81066,173.056567 C207.821835,171.606892 204.587685,176.402092 205.591185,175.955917 C206.59491,175.509742 201.57786,158.702467 213.10056,160.923892 C226.68831,163.543117 245.351385,152.574592 245.351385,152.574592 C249.562485,145.555042 256.08636,150.921067 260.810685,135.311017 C261.28611,133.738942 261.22131,133.051792 261.22131,133.051792 C263.89161,118.879492 257.160285,93.2281425 251.228385,76.4667675 C251.228385,76.4667675 245.42001,57.7769175 234.314685,49.5608175" id="Fill-31" fill="#0089CC"></path>
                    <path d="M199.897335,177.520905 C199.696635,177.520905 199.49346,177.47298 199.28016,177.36723 C198.79371,177.12648 198.50346,176.64048 198.50346,176.067405 C198.50346,175.740705 198.596835,175.19643 198.72846,174.59208 C198.491985,174.628755 198.249885,174.64068 198.008685,174.618405 C197.281935,174.55293 196.65846,174.20733 196.20621,173.619405 C195.338385,172.491255 194.72436,171.045855 194.423535,170.247105 C194.119785,170.12178 193.72896,169.95258 193.336785,169.761555 C192.12516,169.171605 191.017935,168.46668 191.11986,167.31423 C191.160135,166.85973 191.428785,166.06863 192.76236,165.788055 C192.62466,165.378105 192.596985,164.949255 192.683385,164.51838 C192.817485,163.848105 193.20381,163.313055 193.58541,162.92808 L192.925035,161.093655 L178.740585,165.73203 L177.722685,163.37538 L181.085535,161.54118 C179.10441,161.077005 176.31621,160.59123 173.32146,160.59123 L172.577385,160.59123 L172.205235,159.947055 C172.158885,159.870555 170.872335,157.80798 167.820885,157.98663 C163.297485,158.25213 161.559135,157.665105 160.862085,157.076055 C158.567085,157.84353 156.479985,158.46993 155.377035,158.54373 C153.88371,158.64363 148.91976,158.153805 144.66186,157.624155 C142.322535,157.333005 140.19426,157.02903 138.669885,156.767805 C136.13796,156.334005 135.104985,156.113055 134.96481,154.98108 C134.92926,154.69353 134.99046,154.26468 135.29871,153.925155 C133.98786,153.53388 132.786135,153.353205 131.905935,153.22068 C130.874085,153.06543 130.305285,152.97993 129.868335,152.615655 C129.370635,152.20143 129.139785,151.56063 129.251385,150.902505 C129.28761,150.687855 129.37266,150.40548 129.563235,150.09678 C127.463085,149.546205 126.791235,149.000805 126.815756,148.031955 C126.82881,147.57498 127.055835,146.77533 128.444085,146.552805 C129.919185,146.31678 133.45956,143.90388 134.36316,142.51833 C135.162135,141.29343 134.90406,139.57263 134.90136,139.55553 L134.339985,135.97218 L137.03571,138.391155 C137.124585,138.47103 145.96821,146.413305 149.65731,148.731255 L148.28571,150.91398 C145.49886,149.16303 140.202585,144.61803 137.30931,142.078905 C137.15991,142.68753 136.91466,143.32563 136.522485,143.92638 C135.67941,145.219455 133.66791,146.83563 131.753835,147.92193 C131.95926,147.934305 132.18921,147.935655 132.377085,147.93678 C132.973785,147.94038 134.08461,147.94758 134.284185,149.067405 C134.465985,150.08868 133.61706,150.522255 132.97176,150.776505 C134.292735,150.987555 136.05021,151.332705 137.917935,152.133255 C139.680585,152.88858 140.658435,153.30798 140.49666,154.45053 C145.367685,155.18448 153.51336,156.085605 155.20536,155.97153 C156.421485,155.890305 160.27056,154.561005 161.71956,154.06038 C162.024885,153.955305 162.275085,153.86913 162.449235,153.81063 C163.751085,153.374805 164.200635,154.143855 164.333835,154.49373 C164.34486,154.522755 164.50191,154.95138 164.33361,155.40588 C165.23046,155.47068 166.384035,155.488905 167.669685,155.413305 C171.13941,155.208105 173.143485,157.01643 173.97756,158.020155 C179.862435,158.14323 184.702635,159.87258 184.91301,159.948855 L186.439635,160.50213 L198.27846,156.630555 L195.53796,160.741305 L196.68411,163.924155 L195.76251,164.46618 C195.54156,164.60118 195.28191,164.856555 195.221385,164.995605 C195.227235,165.00573 195.235785,165.018555 195.247935,165.034755 C195.43581,165.284955 195.59106,165.44988 195.715935,165.582405 C195.94296,165.82338 196.474185,166.387455 196.178535,167.184855 C196.03791,167.56398 195.791085,167.78268 195.521085,167.91273 C195.645735,167.96313 195.770385,168.01128 195.89301,168.05673 L196.48296,168.276555 L196.672635,168.876855 C196.67826,168.894855 197.291385,170.80218 198.249435,172.047555 C198.251235,172.049805 198.252585,172.05138 198.253935,172.05318 C198.53586,172.075005 199.320885,171.66033 199.819935,171.20853 L203.162535,168.184755 L201.924135,172.51893 C201.84066,172.811205 201.755385,173.12013 201.673035,173.42883 C202.388085,172.92888 203.231385,172.393605 204.17211,171.933705 C203.893785,168.35508 203.85936,163.543905 206.64261,161.01783 C208.241685,159.56658 210.496185,159.109155 213.34446,159.658155 C225.428985,161.98713 242.105535,152.92548 244.42731,151.618005 C246.20616,148.822605 248.34681,147.857355 250.41951,146.922705 C253.56816,145.50273 256.82391,144.034605 259.576785,134.937405 C259.910685,133.83468 259.934085,133.26678 259.93521,133.15473 L259.903935,132.954255 L259.95456,132.812955 C262.480185,119.410155 256.177485,94.314555 250.012935,76.89663 L249.99741,76.849605 C249.940485,76.66668 244.17891,58.462155 233.54811,50.597055 L235.081035,48.52458 C246.297735,56.822805 252.11556,74.986155 252.451485,76.06008 C258.99876,94.56588 265.06431,119.24118 262.513485,133.15248 C262.51371,133.54173 262.44756,134.351955 262.044585,135.684405 C258.95196,145.90278 254.98206,147.693105 251.479485,149.27238 C249.53436,150.149655 247.855185,150.90723 246.456585,153.23778 L246.28761,153.51948 L246.004335,153.685755 C245.22516,154.143855 226.760985,164.870505 212.85666,162.18918 C210.820185,161.796555 209.354535,162.03798 208.37511,162.92673 C206.445285,164.678355 206.51796,168.835905 206.75106,171.830205 C206.78976,171.86013 206.82846,171.892305 206.866485,171.926955 C207.743985,172.728855 207.399285,173.95128 207.013185,175.010805 C207.054135,176.166405 206.88066,176.793255 206.114535,177.13368 C205.448535,177.42978 204.86331,177.20883 204.538635,176.903055 C203.898735,176.30028 204.08121,175.530555 204.35661,174.761055 C203.38281,175.33458 202.552335,175.967505 201.90231,176.46273 C201.10626,177.06933 200.513835,177.520905 199.897335,177.520905" id="Fill-33" fill="#2C5DAB"></path>
                    <path d="M149.153243,155.724682 C149.153243,155.724682 139.552493,151.902157 136.028993,135.691132 C131.484218,114.782332 139.096193,102.032707 139.096193,102.032707 C139.096193,102.032707 141.364643,94.3302825 141.364643,88.4215575 C141.364643,88.4215575 140.923418,80.9511075 139.929368,72.4042575 C138.935543,63.8569575 144.301793,59.8812075 147.879968,60.2787825 C151.457918,60.6765825 220.630343,48.3528825 220.630343,48.3528825" id="Fill-35" fill="#0089CC"></path>
                    <path d="M148.724775,156.801127 C148.3092,156.635752 138.509775,152.559202 134.896725,135.937102 C130.504725,115.731202 137.160675,103.094977 138.021975,101.576002 C138.31245,100.553377 140.19795,93.7111275 140.20605,88.4558025 C140.17185,87.8984775 139.72275,80.6609025 138.778425,72.5379525 C138.070125,66.4487775 140.4324,63.0589275 141.903675,61.5806775 C143.66025,59.8146525 145.94085,58.8968775 148.007925,59.1275025 C148.0527,59.1315525 148.1094,59.1335775 148.176225,59.1335775 C152.082,59.1335775 193.23945,52.0559775 220.426875,47.2119525 L220.83345,49.4934525 C213.86385,50.7352275 153.61065,61.4405025 148.0032,61.4411775 C147.90105,61.4414025 147.81735,61.4378025 147.751875,61.4306025 C146.40165,61.2778275 144.790425,61.9640775 143.546175,63.2150775 C142.369425,64.3974525 140.484375,67.1469525 141.080175,72.2704275 C142.06635,80.7520275 142.517025,88.2780525 142.521525,88.3532025 L142.523325,88.4216025 C142.523325,94.4284275 140.3019,102.039052 140.2074,102.360127 L140.166,102.500752 L140.091075,102.626752 C140.018175,102.749377 132.778575,115.282552 137.1609,135.445027 C140.514975,150.875077 149.491575,154.612102 149.582025,154.648327 L148.724775,156.801127 Z" id="Fill-37" fill="#2C5DAB"></path>
                    <path d="M235.154655,158.2443 C235.154655,158.2443 242.724105,158.775525 250.293105,153.729" id="Fill-39" fill="#0089CC"></path>
                    <path d="M233.58339,159.215715 C235.764315,159.215715 242.19324,158.81049 248.676615,154.48779 L247.39119,152.55999 C240.234615,157.331115 232.08399,159.19659 232.01199,159.19344 L232.814115,159.19479 C232.86924,159.199065 233.13789,159.215715 233.58339,159.215715" id="Fill-41" fill="#2C5DAB"></path>
                    <path d="M173.883015,166.841753 C173.88279,166.841303 173.882565,166.841303 173.882565,166.841303 L174.323565,165.769628 L173.883015,166.841753 Z" id="Fill-43" fill="#2C5DAB"></path>
                    <path d="M168.795697,46.117395 C163.664347,51.64317 154.389623,51.84072 150.639772,50.85387 C146.890147,49.867245 144.916448,49.275045 144.916448,49.275045 L147.087248,43.354845 C147.087248,43.354845 156.757297,50.458995 163.664347,45.722745 C170.571847,40.98627 168.598598,38.02662 169.190348,34.27677" id="Fill-45" fill="#2C5DAB"></path>
                    <path d="M155.32029,38.7684225 C155.220165,42.3648225 157.570065,45.2952225 160.601265,45.3112654 C163.667115,45.3276225 166.263165,42.3636975 166.36509,38.6903475 C166.46769,35.0169975 164.037015,32.0888475 160.96824,32.1486975 C157.935915,32.2085475 155.42019,35.1720225 155.32029,38.7684225" id="Fill-47" fill="#102F63"></path>
                    <path d="M155.426423,38.767545 C155.328323,42.288795 157.637498,45.166545 160.604798,45.1819179 C163.605623,45.19872 166.155098,42.285645 166.254998,38.69082 C166.356248,35.095995 163.968323,32.220045 160.965473,32.277195 C157.995248,32.33547 155.524748,35.246745 155.426423,38.767545 M155.214923,38.769795 C155.316848,35.108595 157.885448,32.080545 160.971773,32.019795 C164.096348,31.958145 166.580123,34.949745 166.477073,38.689695 C166.371773,42.430545 163.718798,45.457695 160.597148,45.4402209 C157.511948,45.421695 155.112548,42.429645 155.214923,38.769795" id="Fill-49" fill="#102F63"></path>
                    <path d="M156.894638,36.648045 C156.858188,37.95642 158.284013,39.00672 160.090088,38.995695 C161.909888,38.982645 163.423913,37.899495 163.460813,36.576045 C163.497713,35.251695 162.043763,34.20162 160.224188,34.22907 C158.416088,34.25787 156.932213,35.341245 156.894638,36.648045" id="Fill-51" fill="#0089CC"></path>
                    <path d="M161.698747,40.01931 C161.686147,40.462335 162.090922,40.821885 162.605047,40.8200917 C163.118497,40.818285 163.547122,40.45536 163.559722,40.010535 C163.572097,39.56436 163.164397,39.205035 162.650497,39.20841 C162.136822,39.21111 161.710897,39.573585 161.698747,40.01931" id="Fill-53" fill="#0089CC"></path>
                    <path d="M183.232373,39.104595 C183.391898,42.93252 186.275273,45.860445 189.710123,45.639495 C193.186373,45.416745 195.906173,42.05907 195.743048,38.142945 C195.579473,34.22727 192.597323,31.307445 189.125348,31.61862 C185.694323,31.92507 183.072398,35.27622 183.232373,39.104595" id="Fill-55" fill="#102F63"></path>
                    <path d="M183.351915,39.0962475 C183.508965,42.8431725 186.341715,45.7191225 189.704565,45.5028975 C193.10724,45.2832975 195.777765,41.9841225 195.617565,38.1521475 C195.458265,34.3201725 192.52989,31.4527725 189.129915,31.7560725 C185.771565,32.0548725 183.19599,35.3468475 183.351915,39.0962475 M183.112965,39.1137975 C182.950515,35.2158975 185.62689,31.7947725 189.118215,31.4804475 C192.655215,31.1636475 195.701265,34.1464725 195.86754,38.1334725 C196.03404,42.1211475 193.256415,45.5503725 189.71559,45.7769475 C186.22044,46.0012725 183.27564,43.0103475 183.112965,39.1137975" id="Fill-57" fill="#102F63"></path>
                    <path d="M184.853093,36.7265025 C184.911368,38.1188025 186.605618,39.1227525 188.651318,38.9663775 C190.711868,38.8086525 192.345368,37.5367275 192.286867,36.1253025 C192.227692,34.7141025 190.499468,33.7139775 188.438918,33.8906025 C186.393892,34.0647525 184.795042,35.3346525 184.853093,36.7265025" id="Fill-59" fill="#0089CC"></path>
                    <path d="M190.551038,39.926385 C190.571063,40.399335 191.057738,40.74921 191.639138,40.707585 C192.222788,40.66416 192.680213,40.244535 192.660413,39.77001 C192.640838,39.29481 192.150563,38.944935 191.567363,38.98971 C190.985738,39.03336 190.530788,39.453885 190.551038,39.926385" id="Fill-61" fill="#0089CC"></path>
                    <path d="M156.828712,44.28927 C159.602512,44.370945 162.387112,43.40952 164.079787,41.769945 M166.232587,44.89857 C163.866263,47.164995 160.283137,48.424545 156.676388,48.28662 L156.674813,48.28662 C152.582513,48.12957 148.923338,46.26297 146.338988,43.058745" id="Fill-63" fill="#102F63"></path>
                    <path d="M184.592048,42.25086 C186.314873,44.05896 189.351923,45.246285 192.541298,45.338985 M192.375923,49.652685 C188.243122,49.49451 184.384372,47.88846 182.016697,45.374085" id="Fill-65" fill="#102F63"></path>
                    <path d="M141.905543,30.31992 C141.905543,30.31992 135.804893,30.749895 133.353743,26.920395 C130.902143,23.089995 129.350093,22.299795 128.458643,26.894295 C127.568543,31.48722 132.116242,39.532995 138.233542,40.47372 C144.350617,41.41467 141.905543,30.31992 141.905543,30.31992" id="Fill-67" fill="#E6EBF1"></path>
                    <path d="M130.21785,24.6270375 C130.154625,24.6682125 129.724425,25.0205625 129.328425,27.0624375 C128.913525,29.2012875 129.843225,32.2855875 131.6988,34.9203375 C133.531425,37.5240375 135.9621,39.2297625 138.367575,39.5998875 C138.9132,39.6835875 139.38165,39.6527625 139.76235,39.5089875 C141.972975,38.6722125 141.60105,33.6882375 141.178275,31.2204375 C139.3353,31.2010875 134.782425,30.7936125 132.607575,27.3972375 C130.96845,24.8356125 130.3272,24.6396375 130.21785,24.6270375 M140.3892,41.1643125 L140.388525,41.1643125 C139.719375,41.4176625 138.94875,41.4795375 138.098475,41.3490375 C135.17775,40.8999375 132.390225,38.9777625 130.250475,35.9386875 C128.0997,32.8836375 127.08045,29.3542875 127.58985,26.7253875 C128.0241,24.4870875 128.6433,23.3281125 129.598875,22.9667625 C131.2083,22.3579125 132.71265,24.2764875 134.09865,26.4425625 C136.242675,29.7916875 141.787575,29.4411375 141.8436,29.4377625 L142.605675,29.3844375 L142.77015,30.1296375 C142.981425,31.0872375 144.70695,39.5303625 140.3892,41.1643125" id="Fill-69" fill="#2C5DAB"></path>
                    <path d="M134.562735,34.814655 C134.892135,34.00083 135.226035,33.23043 135.82341,32.57073 C136.63296,31.679955 138.011985,31.473855 139.016835,30.85578 C139.503285,30.55698 138.978135,29.84463 138.49551,30.14118 C137.468835,30.771405 136.20771,30.968505 135.323235,31.832505 C134.563185,32.57343 134.14851,33.479955 133.755435,34.451505 C133.54281,34.97913 134.34831,35.34498 134.562735,34.814655" id="Fill-71" fill="#2C5DAB"></path>
                    <path d="M131.245965,30.93714 C131.93694,29.72259 133.279515,28.94184 134.682615,29.23164 C135.243315,29.347515 135.38664,28.47339 134.82999,28.359315 C133.017165,27.984465 131.322015,29.022615 130.43934,30.57354 C130.15719,31.06944 130.966515,31.429215 131.245965,30.93714" id="Fill-73" fill="#2C5DAB"></path>
                    <path d="M136.877107,109.778332 C146.749883,88.0019325 137.249932,74.8142325 137.785882,48.5875575 C138.322508,22.3602075 160.216807,11.1540825 185.464958,14.2788825 C210.712433,17.4034575 229.655633,40.6954575 229.655633,40.6954575 C229.655633,40.6954575 248.154232,57.8613825 253.305833,84.9486825" id="Fill-75" fill="#0089CC"></path>
                    <path d="M137.932245,110.256458 L135.821745,109.299983 C141.93342,95.8193325 140.48397,85.9326075 138.64887,73.4156325 C137.608245,66.3202575 136.429245,58.2780825 136.627695,48.5637075 C136.85157,37.6116075 140.815845,28.4925825 148.092345,22.1928075 C157.024395,14.4591075 170.34732,11.2407075 185.607495,13.1286825 C198.914445,14.7759075 210.42882,21.9880575 217.745145,27.7485075 C225.302895,33.6997575 229.942395,39.2214825 230.50332,39.9018825 C231.088095,40.4540325 235.482795,44.6914575 240.50412,52.0084575 C245.37402,59.1045075 251.745345,70.5421575 254.443995,84.7320075 L252.167895,85.1651325 C249.54912,71.3971575 243.36162,60.2792325 238.63257,53.3764575 C233.492895,45.8749575 228.912795,41.5869075 228.86712,41.5443825 L228.75687,41.4267075 C228.71007,41.3691075 223.98012,35.5994325 216.266895,29.5343325 C209.191995,23.9709825 198.080145,17.0076825 185.322645,15.4286325 C170.721945,13.6221075 158.039145,16.6456575 149.60907,23.9446575 C142.84242,29.8036575 139.15467,38.3331825 138.94452,48.6111825 C138.749895,58.1329575 139.91427,66.0732075 140.941395,73.0792575 C142.756695,85.4621325 144.324945,96.1563825 137.932245,110.256458" id="Fill-77" fill="#2C5DAB"></path>
                    <path d="M172.25154,83.750175 C168.25194,83.4363 166.120515,78.48045 165.95559,78.3612 L165.958965,78.36435 L165.347865,79.21125 L165.95559,78.3612 C166.19634,78.532425 172.83969,84.563775 181.73034,80.05455 L181.79604,79.843275 C180.187065,82.617975 175.04154,83.96955 172.25154,83.750175" id="Fill-79" fill="#2C5DAB"></path>
                    <path d="M191.846115,18.68805 C191.846115,18.68805 197.93754,13.34565 196.616115,7.465275 C195.29469,1.5849 195.997365,-0.612675 201.15459,2.832525 C206.31114,6.278175 209.64789,18.062775 204.830865,24.69915 C200.01474,31.336425 191.846115,18.68805 191.846115,18.68805" id="Fill-81" fill="#E6EBF1"></path>
                    <path d="M197.760487,7.207335 C198.932287,12.42216 195.070837,17.090235 193.371862,18.84231 C195.302137,21.54231 199.648237,26.540235 202.496062,25.238835 C202.987012,25.01451 203.453437,24.601635 203.882062,24.010335 C205.776562,21.40056 206.436487,17.52111 205.693087,13.36806 C204.940912,9.16326 202.904212,5.41206 200.503237,3.807585 C198.211837,2.276685 197.477887,2.353185 197.380237,2.373435 C197.290237,2.48931 196.876912,3.275235 197.760487,7.207335 M190.860187,19.32426 L190.311187,18.473085 L191.072137,17.806185 C191.127937,17.757135 196.627162,12.864285 195.471787,7.721685 C194.724337,4.39731 194.319337,1.189935 196.393837,0.24336 C197.624587,-0.31914 199.293862,0.178335 201.805762,1.85706 C204.756412,3.82761 207.130837,8.080785 208.002262,12.954285 C208.869862,17.80371 208.081012,22.219335 205.780837,25.388685 C205.111012,26.311185 204.334312,26.978985 203.471437,27.37206 L203.471437,27.37296 C197.908087,29.914785 191.565337,20.415735 190.860187,19.32426" id="Fill-83" fill="#2C5DAB"></path>
                    <path d="M203.23431,17.0572275 C202.095585,17.3013525 201.00276,17.5076775 199.835685,17.3418525 C198.25641,17.1170775 197.00406,15.7574025 195.58026,15.1143525 C194.891535,14.8027275 194.49891,15.9090525 195.184035,16.2182025 C196.63911,16.8752025 197.792235,18.1122525 199.39581,18.4405275 C200.774385,18.7231275 202.07736,18.5037525 203.434785,18.2123775 C204.172785,18.0542025 203.975685,16.8981525 203.23431,17.0572275" id="Fill-85" fill="#2C5DAB"></path>
                    <path d="M202.92318,10.53531 C201.21993,11.26206 199.178505,11.008035 197.931105,9.577035 C197.432955,9.004635 196.58043,9.81081 197.075205,10.379385 C198.686655,12.227535 201.30678,12.493485 203.48163,11.56536 C204.17823,11.269485 203.61258,10.240335 202.92318,10.53531" id="Fill-87" fill="#2C5DAB"></path>
                </g>
                <g id="Group-92" transform="translate(170.100000, 22.927500)">
                    <mask id="mask-6" fill="white">
                        <use xlink:href="#path-5"></use>
                    </mask>
                    <g id="Clip-91"></g>
                    <path d="M0.150525,4.103775 C0.150525,4.103775 -0.3114,19.473525 6.845175,25.141275 L6.845175,25.141275 C14.199075,30.96405 34.296075,27.70875 32.039775,3.1986 L32.039775,3.1986 C32.039775,3.1986 36.563625,0.784575 33.662925,0.5553 L33.662925,0.5553 C33.662925,0.5553 30.2076,0.183375 25.137675,0.183375 L25.137675,0.183375 C18.25245,0.183375 8.388225,0.869175 0.150525,4.103775" id="Fill-90" fill="url(#linearGradient-7)" mask="url(#mask-6)"></path>
                </g>
                <g id="Group-95" transform="translate(131.850000, 28.552500)">
                    <mask id="mask-9" fill="white">
                        <use xlink:href="#path-8"></use>
                    </mask>
                    <g id="Clip-94"></g>
                    <path d="M0.63045,6.220575 C-1.384875,7.125975 2.2392,8.0334 2.2392,8.0334 L2.2392,8.0334 C4.700475,29.22795 21.24495,28.552725 26.59905,21.671325 L26.59905,21.671325 C32.094225,14.6088 28.561275,0.073125 28.561275,0.073125 L28.561275,0.073125 C27.785475,0.02475 27.008325,0.0018 26.230275,0.0018 L26.230275,0.0018 C13.403925,0.00225 0.63045,6.220575 0.63045,6.220575" id="Fill-93" fill="url(#linearGradient-10)" mask="url(#mask-9)"></path>
                </g>
                <g id="Group-280" transform="translate(0.000000, 5.602500)">
                    <path d="M147.35214,36.207495 C147.720015,39.38967 150.16194,41.672745 152.835165,41.30352 C155.538765,40.93002 157.45059,37.98927 157.075065,34.739145 C156.70044,31.489695 154.187415,29.217195 151.491015,29.659095 C148.82679,30.09537 146.985165,33.02577 147.35214,36.207495" id="Fill-96" fill="#102F63"></path>
                    <path d="M147.446167,36.193005 C147.805717,39.308805 150.205117,41.55183 152.821192,41.18958 C155.468092,40.823955 157.345942,37.93473 156.977842,34.75413 C156.612667,31.57353 154.143967,29.341755 151.504492,29.772405 C148.895167,30.19923 147.086842,33.078105 147.446167,36.193005 M147.260092,36.220905 C146.886592,32.98293 148.765342,29.98998 151.478167,29.544255 C154.223392,29.094255 156.791542,31.41603 157.173592,34.72488 C157.554967,38.033955 155.600842,41.038605 152.847742,41.41773 C150.127042,41.792805 147.632917,39.46023 147.260092,36.220905" id="Fill-98" fill="#102F63"></path>
                    <path d="M148.470975,34.13988 C148.605525,35.29773 149.994675,36.04158 151.58475,35.80308 C153.186525,35.56143 154.383075,34.41528 154.248525,33.24438 C154.11285,32.07303 152.69895,31.33053 151.09875,31.585905 C149.50935,31.841055 148.338,32.983155 148.470975,34.13988" id="Fill-100" fill="#0089CC"></path>
                    <path d="M153.13248,36.50193 C153.176355,36.893655 153.57843,37.158705 154.031355,37.09188 C154.48428,37.026405 154.81548,36.65178 154.770255,36.25803 C154.72503,35.862705 154.31958,35.598555 153.86778,35.66718 C153.41508,35.734905 153.086355,36.107955 153.13248,36.50193" id="Fill-102" fill="#0089CC"></path>
                    <path d="M174.058808,32.5635525 C174.684758,35.9167275 177.596708,38.1316275 180.595057,37.5011775 C183.629858,36.8644275 185.601307,33.5618775 184.961408,30.1310775 C184.320833,26.7011775 181.324058,24.5060775 178.303433,25.2206775 C175.318808,25.9251525 173.433533,29.2103775 174.058808,32.5635525" id="Fill-104" fill="#102F63"></path>
                    <path d="M174.163613,32.5398375 C174.776513,35.8230375 177.637163,37.9990125 180.572738,37.3820625 C183.543638,36.7574625 185.478638,33.5122875 184.852013,30.1557375 C184.226288,26.7985125 181.282838,24.6425625 178.324988,25.3402875 C175.403363,26.0294625 173.550038,29.2564125 174.163613,32.5398375 M173.955263,32.5864125 C173.317388,29.1727125 175.243388,25.8184125 178.279538,25.0995375 C181.356863,24.3718875 184.418213,26.6149125 185.070713,30.1069125 C185.722088,33.6002625 183.708563,36.9743625 180.617513,37.6221375 C177.565613,38.2618125 174.592013,35.9994375 173.955263,32.5864125" id="Fill-106" fill="#102F63"></path>
                    <path d="M175.185788,30.2630175 C175.413263,31.4825175 177.033713,32.1521175 178.816388,31.7556675 C180.613013,31.3551675 181.890788,30.0272175 181.660613,28.7915175 C181.429313,27.5546925 179.779838,26.8929675 177.986363,27.3092175 C176.206613,27.7218675 174.958313,29.0435175 175.185788,30.2630175" id="Fill-108" fill="#0089CC"></path>
                    <path d="M180.612585,32.36031 C180.689535,32.775435 181.162935,33.021585 181.66986,32.910435 C182.17881,32.79951 182.528235,32.371335 182.451735,31.955535 C182.373885,31.53906 181.897785,31.29291 181.389285,31.406535 C180.88191,31.518585 180.534735,31.946535 180.612585,32.36031" id="Fill-110" fill="#0089CC"></path>
                    <path d="M169.491555,24.022125 L170.568405,19.863225 C170.29188,19.77435 163.826955,17.7498 159.221205,21.6504 L161.28153,25.081875 C164.456955,22.428 169.440705,24.005925 169.491555,24.022125" id="Fill-112" fill="#102F63"></path>
                    <path d="M194.215185,40.9467825 C194.215185,40.9467825 200.876085,39.5290575 205.13601,31.6153575 C209.395485,23.7023325 222.59826,25.4661075 225.136935,27.1207575 C227.675835,28.7754075 217.96551,22.6767825 215.668485,21.0410325 C213.37101,19.4052825 209.78811,16.9507575 209.78811,16.9507575 L203.68926,19.1310075 C202.409235,20.2839075 200.602035,36.8391825 194.215185,40.9467825" id="Fill-114" fill="#2C5DAB"></path>
                    <path d="M161.9244,11.7440325 C162.186975,11.7647325 172.559475,8.5312575 175.44195,11.0454075 C178.3242,13.5591075 174.055725,19.8294075 174.055725,19.8294075 C174.055725,19.8294075 186.36975,18.4184325 189.142875,17.8437825 C191.91555,17.2698075 195.475725,17.1336825 195.792975,16.4546325 C196.110225,15.7753575 194.800275,11.2929075 194.800275,11.2929075 C194.800275,11.2929075 177.417225,8.2965825 173.514825,8.6941575 C169.611525,9.0917325 161.9244,11.7440325 161.9244,11.7440325" id="Fill-116" fill="#2C5DAB"></path>
                    <path d="M181.206293,20.77875 C177.872468,21.311325 174.832493,22.055625 172.139468,22.9905 C172.242293,26.8137 172.998743,36.73035 178.027718,40.6881 C180.040343,42.2721 183.296993,43.0344 186.548918,42.663375 C193.845893,41.83335 201.398468,35.638425 200.032493,20.815425 L199.950143,19.920825 C195.788318,19.704375 188.567843,19.60335 181.206293,20.77875 M175.868618,44.235675 C167.988443,37.95615 168.367118,22.072275 168.386693,21.39525 L168.431693,19.88145 L169.679767,19.38465 C172.903568,18.10395 176.620568,17.0991 180.746618,16.402275 C192.317693,14.448825 203.255393,15.495975 204.020393,15.572475 C206.201093,15.7473 206.730743,17.081325 206.852243,17.862525 C207.073193,19.29465 206.299418,20.54295 204.380168,21.80115 C205.348118,38.97405 195.573217,46.17 187.010843,47.067975 C182.791643,47.510325 178.639493,46.442925 175.868618,44.235675" id="Fill-118" fill="#102F63"></path>
                    <path d="M150.566287,25.673805 C144.289687,26.67663 138.669187,28.68903 135.588937,29.93328 L135.679162,30.711555 C137.178787,43.623855 144.046687,47.50443 150.137437,46.81008 C152.965462,46.487655 155.652862,45.105705 157.131112,43.19433 C160.921687,38.292255 159.645937,28.70433 158.982862,25.072155 C156.362737,24.995655 153.535612,25.20018 150.566287,25.673805 M139.308187,47.09133 C135.892462,43.91433 133.628512,38.92923 132.688237,32.59548 C131.117737,32.00373 130.371637,31.154805 130.292437,29.918655 C130.249687,29.24298 130.404712,28.00863 131.916262,27.311805 C132.449062,27.051255 140.411137,23.21208 150.135637,21.569805 C153.822487,20.947905 157.323712,20.72178 160.531312,20.908755 L161.797162,20.98188 L162.145687,22.411755 C162.301612,23.050755 165.902738,38.223855 159.773287,46.05588 C157.702162,48.70278 154.247962,50.50458 150.566062,50.89068 C150.564937,50.890455 150.564937,50.890455 150.564262,50.89068 C146.387362,51.328755 142.399912,49.96773 139.308187,47.09133" id="Fill-120" fill="#102F63"></path>
                    <path d="M164.569478,81.2710125 C164.569478,81.2710125 194.585828,78.5705625 208.742378,92.7149625 C222.898253,106.860038 216.787253,137.874262 197.327003,147.037612 C177.867203,156.200513 146.194628,149.474137 139.767053,128.833987 C133.338353,108.193613 142.671353,84.3418125 164.569478,81.2710125" id="Fill-122" fill="#E6EBF1"></path>
                    <path d="M164.659343,83.51748 C155.678018,84.784905 148.215443,89.88858 143.644793,97.891605 C138.509618,106.88283 137.448068,118.684755 140.804618,129.462705 C145.033268,143.04078 159.923543,149.28003 172.449743,150.591555 L172.453118,150.592005 C181.298093,151.51833 189.986018,150.23133 196.914218,146.969055 C206.046968,142.66908 212.922742,132.71643 214.858643,120.99528 C216.586868,110.52648 214.022093,100.682505 207.996818,94.66263 C200.669918,87.341355 188.791718,84.72168 180.117293,83.81313 C171.818393,82.943955 165.107993,83.48013 164.659343,83.51748 M151.512818,146.16063 C145.125293,142.12143 140.704493,136.63368 138.728993,130.291155 C135.159143,118.828305 136.305293,106.245855 141.796193,96.63273 C146.737418,87.981255 154.783868,82.46988 164.453918,81.113805 L164.503418,81.108405 C164.789618,81.082755 171.616568,80.487855 180.369293,81.40428 C189.368618,82.347255 201.725618,85.099005 209.487892,92.85408 C216.065768,99.427005 218.880292,110.09088 217.015943,121.381605 C216.037193,127.307655 213.833993,132.969105 210.644618,137.753505 C207.236318,142.865505 202.773893,146.820555 197.739743,149.19138 C190.475618,152.61093 181.405643,153.96408 172.201568,153.00018 L172.197743,153.00018 C164.460443,152.19018 157.307243,149.824305 151.512818,146.16063" id="Fill-124" fill="#2C5DAB"></path>
                    <path d="M198.074025,132.39567 C198.799425,133.08777 206.698275,138.13902 208.249875,148.20147 C209.80215,158.26392 201.678075,160.481295 194.225625,154.06497 C186.773625,147.648645 188.893125,136.379745 189.9909,132.399045 C191.088225,128.41767 195.46065,129.90177 198.074025,132.39567" id="Fill-126" fill="#E6EBF1"></path>
                    <path d="M192.701723,131.10939 C192.191873,131.16204 191.472322,131.38479 191.108047,132.706665 C190.211647,135.95724 187.842623,147.040065 194.981648,153.186615 C197.707073,155.533815 200.637473,156.73869 203.021572,156.49299 C204.319373,156.35979 205.348523,155.811015 206.080897,154.86264 C207.184523,153.433665 207.538673,151.19109 207.105322,148.377915 C206.233223,142.725015 203.113597,137.783115 197.833298,133.689015 C197.560598,133.47729 197.395672,133.34949 197.273948,133.233615 C195.828548,131.854815 193.948673,130.98114 192.701723,131.10939 M203.258722,158.798565 C200.243722,159.108615 196.675897,157.703265 193.469872,154.94319 C185.298997,147.90789 187.886272,135.673065 188.873797,132.090615 C189.407497,130.15494 190.683022,128.98764 192.464572,128.804715 C194.810197,128.56329 197.313322,130.068315 198.873922,131.557365 C198.919372,131.59854 199.096672,131.73624 199.253272,131.85729 C205.017547,136.32669 208.430122,141.76629 209.394922,148.02489 C209.928172,151.480665 209.416297,154.33524 207.914422,156.279015 C206.795272,157.728915 205.185172,158.600565 203.258722,158.798565" id="Fill-128" fill="#2C5DAB"></path>
                    <path d="M161.09604,55.910835 C161.09604,55.910835 150.321465,52.08741 143.02224,57.30111 C135.72324,62.51481 131.204565,69.11856 130.16214,82.326285 C129.119265,95.534235 136.418265,104.22351 136.418265,104.22351 L138.504015,107.699085 C138.504015,107.699085 140.93649,97.271685 143.71749,94.143735 C146.49804,91.015785 148.930965,90.320535 154.14444,84.064185 C159.35814,77.807835 159.705765,70.161435 159.705765,70.161435 C159.705765,70.161435 169.090065,68.07591 169.090065,63.55746 C169.090065,59.03901 161.09604,55.910835 161.09604,55.910835" id="Fill-130" fill="#0089CC"></path>
                    <path d="M152.66358,55.717695 C149.05953,55.717695 146.042505,56.56752 143.695755,58.24377 C135.814455,63.873495 132.227955,70.876845 131.31693,82.417545 C130.32693,94.962195 137.23668,103.39587 137.306655,103.479345 L137.36448,103.54842 L138.07458,104.73192 C139.01778,101.32902 140.811705,95.668695 142.851555,93.37392 C144.01188,92.06847 145.129905,91.15272 146.312955,90.18297 C148.122405,88.699995 150.17373,87.019245 153.25443,83.32227 C158.16168,77.433795 158.54508,70.18137 158.54823,70.10892 L158.588505,69.22242 L159.45453,69.03027 C161.65323,68.53932 167.93163,66.47922 167.93163,63.557595 C167.93163,60.519195 162.72738,57.801195 160.693605,56.997495 C160.433055,56.908395 156.874005,55.717695 152.66358,55.717695 L152.66358,55.717695 Z M138.98178,110.74752 L135.46908,104.89347 C134.695305,103.94082 127.978605,95.261895 129.00708,82.23507 C129.978405,69.93027 133.84368,62.433495 142.348905,56.35827 C145.09638,54.39537 148.56723,53.400195 152.66358,53.400195 C157.43133,53.400195 161.320455,54.760995 161.48358,54.819045 L161.518455,54.83187 C162.41193,55.18152 170.248905,58.39722 170.248905,63.557595 C170.248905,68.138145 163.33443,70.407045 160.78698,71.087445 C160.53093,73.34307 159.448455,79.50897 155.03463,84.805695 C151.81263,88.67232 149.57748,90.503595 147.781755,91.975545 C146.62278,92.92482 145.622205,93.744495 144.58338,94.913595 C142.464105,97.297245 140.291055,105.14097 139.632255,107.96247 L138.98178,110.74752 Z" id="Fill-132" fill="#2C5DAB"></path>
                    <path d="M160.964415,54.6963975 C160.964415,54.6963975 165.56904,55.6868475 168.642315,54.5766975 C170.94384,53.7453225 171.50139,51.2644725 174.87504,51.5952225 C182.75409,52.3676475 183.06324,55.9203975 186.461415,53.7576975 C189.860265,51.5952225 190.787265,48.9690225 193.258665,51.7497975 C195.730965,54.5305725 200.82879,59.4740475 198.04779,59.6283975 C195.26724,59.7825225 194.80374,57.4656975 189.55134,60.4008225 C184.298715,63.3361725 181.05444,64.4170725 177.501465,63.4905225 C173.94849,62.5635225 169.931565,64.5718725 169.931565,64.5718725 C169.931565,64.5718725 168.070815,55.9320975 160.964415,54.6963975" id="Fill-134" fill="#102F63"></path>
                    <path d="M174.63294,62.9946 C174.63294,62.9946 177.20154,58.9077 181.28844,58.557375 C185.37534,58.20705 188.177715,60.659325 188.177715,60.659325 C188.177715,60.659325 185.95944,62.5275 181.872315,63.1116 C177.785415,63.695025 175.800465,62.5275 174.63294,62.9946" id="Fill-136" fill="#F4A5C7"></path>
                    <path d="M153.396585,71.5206375 C153.396585,71.5206375 156.00231,72.0419625 161.214435,69.7485375" id="Fill-138" fill="#0089CC"></path>
                    <path d="M151.720515,70.336305 C151.143615,70.336305 151.81434,70.35498 151.720515,70.336305 L153.607815,70.381755 C153.631665,70.38603 156.033315,70.762455 160.747965,68.68818 L161.681265,70.809255 C157.957965,72.44703 153.00864,70.336305 151.720515,70.336305" id="Fill-140" fill="#2C5DAB"></path>
                    <polygon id="Fill-142" fill="#B2BFCC" points="18.350235 130.78683 18.350235 235.45098 35.879985 235.45098 35.879985 131.302305"></polygon>
                    <path d="M19.6391475,234.162022 L34.5910725,234.162022 L34.5910725,132.554047 L19.6391475,132.114172 L19.6391475,234.162022 Z M37.1691225,236.739847 L17.0613225,236.739847 L17.0613225,129.459172 L37.1691225,130.050472 L37.1691225,236.739847 Z" id="Fill-144" fill="#2C5DAB"></path>
                    <polygon id="Fill-146" fill="#5C6C7E" points="42.58278 130.78683 42.58278 230.295105 35.88003 235.45098 35.88003 131.302305"></polygon>
                    <path d="M37.1691675,132.495862 L37.1691675,232.833037 L41.2938675,229.660313 L41.2938675,132.178612 L37.1691675,132.495862 Z M34.5911175,238.068787 L34.5911175,130.108837 L43.8716925,129.394913 L43.8716925,230.929763 L34.5911175,238.068787 Z" id="Fill-148" fill="#2C5DAB"></path>
                    <polygon id="Fill-150" fill="#B2BFCC" points="189.525127 130.78683 189.525127 235.45098 207.055103 235.45098 207.055103 131.302305"></polygon>
                    <path d="M190.81404,234.162022 L205.765965,234.162022 L205.765965,132.554047 L190.81404,132.114172 L190.81404,234.162022 Z M208.344015,236.739847 L188.236215,236.739847 L188.236215,129.459172 L208.344015,130.050472 L208.344015,236.739847 Z" id="Fill-152" fill="#2C5DAB"></path>
                    <polygon id="Fill-154" fill="#5C6C7E" points="213.757673 130.78683 213.757673 230.295105 207.055148 235.45098 207.055148 131.302305"></polygon>
                    <path d="M208.34406,132.495862 L208.34406,232.833037 L212.46876,229.660313 L212.46876,132.178612 L208.34406,132.495862 Z M205.76601,238.068787 L205.76601,130.108837 L215.046585,129.394913 L215.046585,230.929763 L205.76601,238.068787 Z" id="Fill-156" fill="#2C5DAB"></path>
                    <polygon id="Fill-158" fill="#B2BFCC" points="66.29985 98.8203375 66.29985 203.484488 83.8296 203.484488 83.8296 99.3358125"></polygon>
                    <path d="M67.5887625,202.195553 L82.5406875,202.195553 L82.5406875,100.587578 L67.5887625,100.147703 L67.5887625,202.195553 Z M85.1187375,204.773603 L65.0109375,204.773603 L65.0109375,97.4927025 L85.1187375,98.0842275 L85.1187375,204.773603 Z" id="Fill-160" fill="#2C5DAB"></path>
                    <polygon id="Fill-162" fill="#5C6C7E" points="90.532395 98.8203375 90.532395 198.328613 83.829645 203.484488 83.829645 99.3358125"></polygon>
                    <path d="M85.11876,100.52937 L85.11876,200.86677 L89.24346,197.694045 L89.24346,100.212345 L85.11876,100.52937 Z M82.54071,206.102295 L82.54071,98.142345 L91.821285,97.42842 L91.821285,198.96327 L82.54071,206.102295 Z" id="Fill-164" fill="#2C5DAB"></path>
                    <polygon id="Fill-166" fill="#B2BFCC" points="237.474765 98.8203375 237.474765 203.484488 255.00474 203.484488 255.00474 99.3358125"></polygon>
                    <path d="M238.763678,202.195553 L253.715603,202.195553 L253.715603,100.587578 L238.763678,100.147703 L238.763678,202.195553 Z M256.293653,204.773603 L236.185853,204.773603 L236.185853,97.4927025 L256.293653,98.0842275 L256.293653,204.773603 Z" id="Fill-168" fill="#2C5DAB"></path>
                    <polygon id="Fill-170" fill="#5C6C7E" points="261.70731 98.8203375 261.70731 198.328613 255.004785 203.484488 255.004785 99.3358125"></polygon>
                    <path d="M256.293675,100.52937 L256.293675,200.86677 L260.418375,197.694045 L260.418375,100.212345 L256.293675,100.52937 Z M253.715625,206.102295 L253.715625,98.142345 L262.9962,97.42842 L262.9962,198.96327 L253.715625,206.102295 Z" id="Fill-172" fill="#2C5DAB"></path>
                    <polygon id="Fill-174" fill="#FEFEFE" points="1.8514125 116.865833 66.8154375 93.1488075 266.863162 93.1488075 231.803213 116.865833"></polygon>
                    <path d="M9.140625,115.57692 L231.408225,115.57692 L262.657125,94.437945 L67.043475,94.437945 L9.140625,115.57692 Z M231.8031,118.154745 L1.851525,118.154745 C1.226025,118.154745 0.69075,117.706095 0.582075,117.090495 C0.4734,116.47467 0.821925,115.86942 1.4094,115.654995 L66.3732,91.937745 C66.514725,91.886445 66.664575,91.859895 66.815325,91.859895 L266.863275,91.859895 C267.4296,91.859895 267.929775,92.22957 268.095375,92.77137 C268.261425,93.31272 268.05465,93.89907 267.585525,94.21632 L232.525575,117.93357 C232.312275,118.077795 232.06095,118.154745 231.8031,118.154745 L231.8031,118.154745 Z" id="Fill-176" fill="#2C5DAB"></path>
                    <path d="M206.598983,94.370445 C205.799108,94.370445 192.469882,106.90002 189.537232,107.43327 C186.604582,107.96652 106.094183,105.567345 106.094183,105.567345 C106.094183,105.567345 107.160682,102.901545 105.294308,101.03517 C103.428157,99.16902 102.095033,98.63577 102.095033,98.63577 C102.095033,98.63577 109.560083,92.770695 110.892758,92.770695 C112.225657,92.770695 206.598983,94.370445 206.598983,94.370445" id="Fill-178" fill="#648DC9"></path>
                    <path d="M107.664255,104.324063 C117.600255,104.616338 172.797255,106.221712 186.487605,106.221712 C188.74908,106.221712 189.223605,106.177163 189.31563,106.163663 C190.810755,105.891638 197.61048,100.091138 200.87838,97.3031625 C201.662505,96.6346875 202.32423,96.0710625 202.88628,95.5967625 C185.651955,95.3049375 113.94243,94.0915125 110.97423,94.0604625 C110.148705,94.3088625 107.17533,96.3748125 104.359455,98.5152375 C104.89158,98.9103375 105.51753,99.4354875 106.205805,100.123987 C107.56188,101.479613 107.76303,103.115138 107.664255,104.324063 M186.487605,108.799537 C171.46413,108.799537 106.70823,106.875113 106.055955,106.855762 C105.634755,106.843163 105.24708,106.625813 105.016005,106.273913 C104.78538,105.921788 104.741055,105.479438 104.897205,105.088388 C104.923755,105.019313 105.610455,103.174537 104.38308,101.946713 C102.767355,100.331438 101.615805,99.8326125 101.60433,99.8276625 C101.176605,99.6566625 100.87893,99.2728125 100.81323,98.8167375 C100.747755,98.3606625 100.93653,97.9068375 101.29878,97.6222125 C101.31768,97.6073625 103.209255,96.1225875 105.24033,94.6578375 C109.30338,91.7269875 110.26053,91.4817375 110.89278,91.4817375 C112.221405,91.4817375 202.76703,93.0162375 206.62083,93.0817125 C207.32823,93.0934125 207.89388,93.6736875 207.887853,94.3813125 C207.88308,94.9474125 207.51363,95.4257625 207.004005,95.5942875 C206.44263,95.9452875 204.379605,97.7050125 202.551255,99.2647125 C196.347105,104.557163 191.798505,108.332212 189.767655,108.701212 C189.48753,108.752513 188.89623,108.799537 186.487605,108.799537" id="Fill-180" fill="#2C5DAB"></path>
                    <path d="M145.781752,94.38714 C145.078178,94.73904 142.028752,96.84954 142.263427,97.43634 C142.498102,98.02269 162.083227,98.257365 163.138702,97.905465 C164.193952,97.55334 165.953227,94.856265 165.601327,94.856265 C165.249427,94.856265 145.781752,94.38714 145.781752,94.38714" id="Fill-182" fill="#FEFEFE"></path>
                    <path d="M142.992765,97.101855 C144.84384,97.345305 151.366365,97.555455 157.659615,97.555455 C161.19549,97.555455 162.73719,97.479405 162.98334,97.414155 C163.52244,97.234155 164.437965,96.076305 164.88369,95.35698 C161.52714,95.28183 147.55779,94.945905 145.903365,94.905855 C145.19394,95.29713 143.60319,96.451155 142.992765,97.101855 M157.65984,98.586405 L157.659615,98.586405 C154.43334,98.586405 150.616665,98.522055 147.69909,98.41833 C142.020315,98.21628 141.93684,98.00703 141.78474,97.62768 C141.28164,96.369255 145.507365,93.947805 145.55124,93.92598 C145.626165,93.88818 145.710765,93.865005 145.794015,93.87198 C152.514315,94.033755 165.302415,94.340205 165.601665,94.340655 C165.87729,94.340655 166.110165,94.540005 166.154715,94.814505 C166.269015,95.51898 164.38779,98.032455 163.301715,98.39448 C163.159515,98.441955 162.725715,98.586405 157.65984,98.586405" id="Fill-184" fill="#2C5DAB"></path>
                    <path d="M110.130232,96.73272 L105.439207,100.251045 C105.439207,100.251045 107.198482,101.54097 107.315707,102.948345 C107.315707,102.948345 186.710332,105.176745 187.766258,104.59017 C188.821732,104.003595 196.561958,98.96067 196.679302,98.60922 C196.796633,98.25732 110.130232,96.73272 110.130232,96.73272" id="Fill-186" fill="#FEFEFE"></path>
                    <path d="M107.745323,102.444525 C113.196848,102.5964 170.143223,104.172975 184.467173,104.1732 L184.468973,104.1732 C186.779948,104.1732 187.403873,104.131575 187.571498,104.10795 C188.597948,103.520475 193.269623,100.47195 195.320723,99.024975 C186.806273,98.65755 137.345423,97.7274 110.298173,97.2513 L106.266848,100.27485 C106.771073,100.74195 107.492423,101.536425 107.745323,102.444525 M184.468748,105.204375 L184.466948,105.204375 C169.480148,105.20415 107.921273,103.480875 107.301173,103.46355 C107.038598,103.45635 106.823723,103.25295 106.801898,102.99105 C106.721573,102.0285 105.570923,100.98675 105.134423,100.6668 C105.003023,100.570275 104.923815,100.416825 104.923815,100.253925 C104.923815,100.090575 104.999423,99.936675 105.129923,99.838575 L109.820948,96.320475 C109.912523,96.25185 110.023223,96.212475 110.139323,96.2172 C110.355098,96.221025 131.961173,96.6015 153.320198,97.0209 C165.865297,97.26705 175.871498,97.478325 183.061372,97.648425 C187.331423,97.749675 190.642973,97.8372 192.903773,97.90875 C196.906072,98.03565 196.906072,98.03565 197.099572,98.309025 C197.194684,98.443125 197.220173,98.6166 197.168422,98.7723 C197.095522,98.9901 197.032522,99.17865 192.858997,101.94165 C190.775948,103.32045 188.558347,104.73975 188.016773,105.0408 C187.852522,105.131925 187.722923,105.204375 184.468748,105.204375" id="Fill-188" fill="#2C5DAB"></path>
                    <line x1="106.84665" y1="99.4300875" x2="191.40165" y2="101.541037" id="Fill-190" fill="#FEFEFE"></line>
                    <path d="M191.402033,102.056693 C191.397533,102.056693 191.393033,102.056693 191.388758,102.056243 L106.833758,99.9452925 C106.549133,99.9383175 106.323908,99.7018425 106.331154,99.4172175 C106.338083,99.1328175 106.581533,98.9062425 106.859408,98.9145675 L191.414633,101.025743 C191.699258,101.032718 191.924258,101.269193 191.917226,101.553818 C191.910308,101.834168 191.680583,102.056693 191.402033,102.056693" id="Fill-192" fill="#2C5DAB"></path>
                    <line x1="183.661515" y1="98.25741" x2="176.273415" y2="104.59026" id="Fill-194" fill="#FEFEFE"></line>
                    <path d="M176.27364,105.105847 C176.12829,105.105847 175.98384,105.044647 175.881915,104.925848 C175.69674,104.709398 175.72149,104.384047 175.93794,104.198873 L183.32604,97.8657975 C183.542265,97.6808475 183.86784,97.7058225 184.053015,97.9218225 C184.23819,98.1380475 184.21344,98.4636225 183.997215,98.6490225 L176.60889,104.981647 C176.511915,105.064897 176.39244,105.105847 176.27364,105.105847" id="Fill-196" fill="#2C5DAB"></path>
                    <line x1="169.588687" y1="98.022735" x2="163.138612" y2="104.590035" id="Fill-198" fill="#FEFEFE"></line>
                    <path d="M163.138613,105.105847 C163.008113,105.105847 162.877838,105.056572 162.777488,104.958022 C162.574088,104.758672 162.571163,104.432197 162.770738,104.229022 L169.220813,97.6614975 C169.420613,97.4583225 169.746638,97.4553975 169.949813,97.6549725 C170.153213,97.8543225 170.155913,98.1810225 169.956563,98.3839725 L163.506488,104.951272 C163.405463,105.054322 163.272038,105.105847 163.138613,105.105847" id="Fill-200" fill="#2C5DAB"></path>
                    <line x1="153.99117" y1="97.670745" x2="147.89277" y2="104.003595" id="Fill-202" fill="#FEFEFE"></line>
                    <path d="M147.892657,104.519182 C147.764182,104.519182 147.635032,104.471482 147.534907,104.374957 C147.330157,104.177407 147.323857,103.850932 147.521407,103.645957 L153.619807,97.3131075 C153.817357,97.1083575 154.143382,97.1018325 154.348807,97.2993825 C154.553782,97.4969325 154.560082,97.8234075 154.362532,98.0286075 L148.263907,104.361457 C148.162882,104.466532 148.028107,104.519182 147.892657,104.519182" id="Fill-204" fill="#2C5DAB"></path>
                    <line x1="140.856143" y1="97.5534075" x2="135.461543" y2="103.651808" id="Fill-206" fill="#FEFEFE"></line>
                    <path d="M135.461407,104.167395 C135.340132,104.167395 135.218407,104.125095 135.120082,104.038245 C134.906782,103.849695 134.886982,103.52367 135.075532,103.310145 L140.470132,97.21197 C140.658682,96.99912 140.984032,96.978195 141.197782,97.16742 C141.411082,97.35597 141.430882,97.681995 141.242332,97.89507 L135.847957,103.993695 C135.746032,104.108445 135.604282,104.167395 135.461407,104.167395" id="Fill-208" fill="#2C5DAB"></path>
                    <line x1="128.89422" y1="97.201845" x2="122.79582" y2="103.417245" id="Fill-210" fill="#FEFEFE"></line>
                    <path d="M122.795933,103.932945 C122.665433,103.932945 122.535158,103.88367 122.435033,103.785345 C122.231408,103.585995 122.228483,103.25952 122.427608,103.056345 L128.526233,96.84072 C128.725583,96.63732 129.052508,96.634395 129.255233,96.833745 C129.458633,97.033095 129.461783,97.35957 129.262208,97.562745 L123.164033,103.77837 C123.063008,103.88142 122.929583,103.932945 122.795933,103.932945" id="Fill-212" fill="#2C5DAB"></path>
                    <path d="M119.043225,96.8498325 C118.691325,97.0845075 111.303225,104.003707 111.303225,104.003707" id="Fill-214" fill="#FEFEFE"></path>
                    <path d="M111.303135,104.519182 C111.16566,104.519182 111.028185,104.464282 110.92671,104.356057 C110.732085,104.148157 110.74311,103.821907 110.950785,103.627282 C112.69116,101.997383 118.39761,96.6606075 118.757385,96.4209825 C118.99386,96.2623575 119.314035,96.3269325 119.47221,96.5640825 C119.628585,96.7983075 119.56761,97.1139825 119.33676,97.2735075 C118.977435,97.5462075 114.550335,101.669107 111.655485,104.380132 C111.556035,104.473283 111.429585,104.519182 111.303135,104.519182" id="Fill-216" fill="#2C5DAB"></path>
                    <path d="M143.187885,132.428632 C138.15846,128.042933 132.368535,126.689332 129.95721,128.154083 L141.140385,151.696732 C141.140385,151.696732 145.09431,153.251483 148.697685,151.630358 C152.095185,150.101933 154.383435,151.257307 154.383435,151.257307 C154.383435,151.257307 154.911285,149.751158 153.36756,148.620758 C151.77051,147.450758 154.990035,148.285057 155.416635,147.009983 C155.841435,145.740082 154.238535,146.036182 153.46116,144.870683 C152.66961,143.682457 155.499435,144.619133 153.63036,142.980683 C151.68006,141.270682 150.006735,138.139807 149.42241,138.772507 C149.42241,138.772507 145.366785,133.754558 143.187885,132.428632" id="Fill-218" fill="#E6EBF1"></path>
                    <path d="M141.87456,150.870712 C142.44786,151.045987 143.643285,151.350863 145.042785,151.350863 C146.23416,151.350863 147.323835,151.132612 148.280535,150.702413 C149.57991,150.117188 150.883335,149.820863 152.153685,149.820863 C152.546535,149.820863 152.902485,149.849438 153.217035,149.893538 C153.113535,149.743237 152.96841,149.589787 152.766135,149.441738 C152.484435,149.235187 151.73586,148.687088 151.942185,147.857063 C152.14446,147.043238 152.96211,146.924213 153.55926,146.836913 C153.728685,146.811712 154.017135,146.769863 154.23561,146.712263 C154.232235,146.710913 154.229085,146.709113 154.225935,146.707538 C153.775485,146.487938 153.09531,146.156513 152.614485,145.435388 C152.22141,144.845663 152.26821,144.367312 152.376885,144.069862 C152.459685,143.843738 152.59041,143.674538 152.73801,143.545838 C151.927785,142.790738 151.201485,141.873188 150.554385,141.055763 C150.28281,140.712187 149.94711,140.288287 149.682285,139.990837 L149.37066,140.327663 L148.63041,139.412363 C147.53286,138.054262 144.320535,134.309363 142.65891,133.298213 L142.58466,133.252762 L142.51896,133.195838 C138.633435,129.806887 134.64981,128.604713 132.41961,128.604713 C132.02496,128.604713 131.66406,128.638688 131.34546,128.705062 L141.87456,150.870712 Z M145.042785,153.386212 C142.68321,153.386212 140.845185,152.674313 140.768235,152.644162 L140.39361,152.497238 L128.64366,127.761188 L129.42891,127.284413 C130.21011,126.809662 131.21631,126.569362 132.41961,126.569362 C135.851985,126.569362 140.203935,128.497613 143.794035,131.607337 C145.73106,132.830887 148.80366,136.429988 149.85351,137.694263 C150.599385,137.833088 151.206435,138.599438 152.150535,139.792163 C152.802135,140.615662 153.540585,141.548513 154.301085,142.215413 C154.70586,142.569788 155.45916,143.229713 155.27016,144.079538 C155.20266,144.384412 155.04471,144.597713 154.86111,144.749362 C154.942785,144.792563 155.02851,144.834413 155.11761,144.877612 C155.654235,145.139287 156.91086,145.752187 156.38166,147.332813 C156.12111,148.110862 155.476935,148.468388 154.83906,148.655138 C155.641185,149.744362 155.57031,150.947213 155.34396,151.594088 L154.960335,152.688488 L153.92466,152.165813 C153.92466,152.165813 153.25866,151.856662 152.153685,151.856662 C151.172685,151.856662 150.15051,152.092688 149.11551,152.558437 C147.89466,153.107663 146.524185,153.386212 145.042785,153.386212 L145.042785,153.386212 Z" id="Fill-220" fill="#2C5DAB"></path>
                    <path d="M136.726605,131.6664 C137.437605,132.4044 144.64098,137.96595 145.80828,145.6587 C146.92518,153.0144 139.941405,154.19745 132.749505,148.661775 C124.47378,142.2927 126.872505,132.813675 128.11428,129.5838 C129.34368,126.384525 134.07813,128.920275 136.726605,131.6664" id="Fill-222" fill="#E6EBF1"></path>
                    <path d="M130.293225,129.109432 C129.649725,129.109432 129.293325,129.352657 129.064275,129.948682 C128.048175,132.590632 125.35785,141.688732 133.3701,147.855083 C136.05255,149.919682 138.87045,151.103858 141.101325,151.103858 C141.995925,151.103858 143.232075,150.906307 144.0414,149.964907 C144.81495,149.064908 145.0782,147.628733 144.802125,145.811633 C143.820675,139.344908 138.32325,134.458807 136.516725,132.853432 C136.2663,132.630458 136.1007,132.483532 135.9936,132.372382 C134.19945,130.512307 131.7492,129.109432 130.293225,129.109432 M141.101325,153.139207 C138.390975,153.139207 135.2043,151.835782 132.128775,149.468108 C122.764725,142.261808 126.350325,131.335582 127.16415,129.218558 C127.6956,127.835482 128.8071,127.073858 130.293225,127.073858 C132.654375,127.073858 135.593775,129.025508 137.459025,130.959833 C137.511675,131.014283 137.69325,131.175833 137.8692,131.331982 C139.81185,133.058632 145.72305,138.312157 146.814525,145.506082 C147.27915,148.565407 146.402325,150.340657 145.5849,151.291957 C144.546075,152.500657 142.995375,153.139207 141.101325,153.139207" id="Fill-224" fill="#2C5DAB"></path>
                    <path d="M243.918023,63.1730025 C243.918023,63.1730025 247.916722,90.0215775 238.491248,94.5917775 C229.065998,99.1615275 192.220223,93.1634775 183.080273,94.8770775 C173.940098,96.5909025 170.798423,100.875577 167.656522,100.304077 C164.515073,99.7328025 165.669548,84.4640775 176.511173,78.5969775 C187.352348,72.7296525 206.215897,68.8853025 219.354773,73.4552775" id="Fill-226" fill="#0089CC"></path>
                    <path d="M168.240443,101.515297 C167.978768,101.515297 167.715968,101.492347 167.449568,101.444197 C166.750493,101.317072 165.516593,100.721947 165.108668,98.1630225 C164.355818,93.4400475 166.765793,82.5536475 175.959518,77.5777725 C187.107143,71.5448475 205.475693,69.8553225 218.973893,74.5497225 C206.570093,70.2355725 187.923668,73.7372475 177.062468,79.6160475 C170.628143,83.0981475 167.491868,90.4790475 167.301068,95.8628475 C167.226143,97.9643475 167.666468,98.9964225 167.892593,99.1694475 C168.932993,99.3411225 170.230568,98.6595975 172.017968,97.7172975 C174.435593,96.4435725 177.746693,94.6984725 182.866793,93.7386225 C186.677393,93.0242475 194.689418,93.5696475 203.966393,94.2012225 C216.731318,95.0703975 232.617443,96.1519725 237.985943,93.5491725 C245.084693,90.1071225 243.847868,70.5780225 242.772143,63.3435975 C242.813768,63.6214725 246.076718,69.8973975 245.897618,77.1968475 C245.648993,87.3310725 243.327443,93.5343225 238.996868,95.6340225 C233.073743,98.5056975 217.526468,97.4470725 203.809118,96.5130975 C195.069443,95.9184225 186.813968,95.3554725 183.294068,96.0160725 C178.517768,96.9115725 175.385318,98.5621725 173.098418,99.7672725 C171.276593,100.727572 169.782143,101.515297 168.240443,101.515297" id="Fill-228" fill="#2C5DAB"></path>
                    <polygon id="Fill-230" fill="#B2BFCC" points="1.8514125 116.865832 231.803213 116.865832 262.738463 96.7580325 262.738463 111.194482 232.318912 131.302282 1.3357125 131.302282"></polygon>
                    <path d="M2.67165,130.013393 L231.931575,130.013393 L261.44955,110.501167 L261.44955,99.1332675 L232.1856,118.154768 L3.0951,118.154768 L2.67165,130.013393 Z M232.70625,132.591217 L0,132.591217 L0.607725,115.576943 L231.42105,115.576943 L264.027375,94.3828425 L264.027375,111.887393 L232.70625,132.591217 Z" id="Fill-232" fill="#2C5DAB"></path>
                    <path d="M107.373983,109.94751 C107.373983,113.40756 92.1561075,116.21241 73.3836825,116.21241 C54.6114825,116.21241 39.3933825,113.40756 39.3933825,109.94751 L39.3933825,102.74976 L107.373983,102.74976 L107.373983,109.94751 Z" id="Fill-234" fill="#FEFEFE"></path>
                    <path d="M40.6823625,109.94751 C40.6859625,109.94751 41.3805375,111.668085 50.1343875,113.20911 C56.4136875,114.314535 64.6702875,114.923385 73.3836375,114.923385 C82.0965375,114.923385 90.3538125,114.314535 96.6331125,113.20911 C105.392813,111.667185 106.082663,109.94481 106.086938,109.92816 L106.085363,104.03856 L40.6823625,104.03856 L40.6823625,109.94751 Z M73.3836375,117.50121 C64.2281625,117.50121 55.6099875,116.84196 49.1151375,115.64496 C39.2457375,113.825835 38.1043125,111.52206 38.1043125,109.94751 L38.1043125,102.74976 C38.1043125,102.03786 38.6814375,101.460735 39.3933375,101.460735 L107.373938,101.460735 C108.086063,101.460735 108.663188,102.03786 108.663188,102.74976 L108.663188,109.94751 C108.663188,111.52206 107.521538,113.825835 97.6521375,115.64496 C91.1575125,116.84196 82.5386625,117.50121 73.3836375,117.50121 L73.3836375,117.50121 Z" id="Fill-236" fill="#2C5DAB"></path>
                    <path d="M36.7152075,1.807335 C36.7152075,1.807335 31.9166325,1.274085 31.1167575,7.405785 C30.3168825,13.537485 28.7173575,79.918335 32.4498825,83.11761 C36.1819575,86.316885 127.622633,87.382935 132.688058,84.450735 C137.753258,81.51831 135.887333,7.40601 134.020958,4.206735 C132.154808,1.00746 64.7072325,-0.592065 36.7152075,1.807335" id="Fill-238" fill="#FEFEFE"></path>
                    <path d="M33.5796975,82.96884 C34.1415225,83.22624 37.3893975,84.16494 55.4049225,84.931965 C67.1379975,85.43169 81.8923725,85.71834 95.8835475,85.71834 L95.8896225,85.71834 C118.869323,85.71834 130.685198,84.95424 132.284498,84.190815 C133.334573,83.05164 135.052223,73.572615 134.942873,45.022815 C134.869748,25.931115 133.959623,8.427465 133.224098,5.831415 C132.498698,5.50359 129.062048,4.52259 113.282123,3.694365 C102.189398,3.112065 87.9617475,2.77839 74.2477725,2.77839 C58.9511475,2.77839 45.7598475,3.18699 37.1040975,3.928815 C37.0199475,3.936465 36.9360225,3.935115 36.8518725,3.92589 C36.8448975,3.925215 36.7895475,3.92184 36.7067475,3.92184 C35.6701725,3.92184 33.2019225,4.35924 32.6738475,8.40969 C32.2958475,11.30679 31.7007225,28.592865 31.6530225,46.53774 C31.5699975,77.591115 33.1618725,82.27719 33.5796975,82.96884 M95.8889475,88.296165 L95.8835475,88.296165 C81.5861475,88.296165 66.5797725,87.99939 54.7128225,87.48279 C33.8006475,86.571765 32.4614475,85.42359 31.8897225,84.933315 C31.0272975,84.19419 29.0074725,82.46304 29.0738475,47.196315 C29.1080475,28.88199 29.7211725,11.11599 30.1173975,8.07669 C30.7649475,3.11274 33.9459975,1.344015 36.7067475,1.344015 C36.8203725,1.344015 36.9148725,1.34739 36.9868725,1.351665 C45.7146225,0.609165 58.9401225,0.200565 74.2477725,0.200565 C88.5368475,0.200565 103.220572,0.557415 114.533797,1.17999 C134.168197,2.260215 134.917447,3.54474 135.413122,4.394565 C136.808572,6.786765 137.380522,30.939615 137.483122,40.04424 C137.597872,50.24169 137.626897,74.859165 135.419197,83.19249 C134.950747,84.96099 134.393422,85.951665 133.612672,86.403465 C133.091347,86.70519 131.871172,87.41169 120.768322,87.880815 C114.333997,88.15239 105.730897,88.296165 95.8889475,88.296165" id="Fill-240" fill="#2C5DAB"></path>
                    <path d="M122.036558,3.17799 C122.036558,3.17799 130.301032,3.977415 130.301032,11.70864 C130.301032,19.439865 134.032882,83.421765 126.835133,86.087565" id="Fill-242" fill="#FEFEFE"></path>
                    <path d="M126.83538,87.376995 C126.31158,87.376995 125.819055,87.05547 125.626455,86.535495 C125.37918,85.86792 125.720055,85.12632 126.38763,84.879045 C126.444105,84.858345 127.78488,84.285045 128.774655,77.265945 C129.38868,72.912195 129.77253,66.814245 129.91473,59.14242 C130.17348,45.21222 129.594105,29.144745 129.24828,19.544895 C129.11103,15.74307 129.01203,12.99627 129.01203,11.708595 C129.01203,5.222295 122.20218,4.48902 121.91238,4.46067 C121.203855,4.392495 120.68478,3.762495 120.75363,3.053745 C120.82203,2.344995 121.449555,1.825245 122.16078,1.894995 C125.422155,2.21022 131.59008,4.667445 131.59008,11.708595 C131.59008,12.949695 131.688405,15.677145 131.82453,19.45197 C132.171255,29.07837 132.752205,45.18972 132.49233,59.19012 C132.06123,82.416645 129.616605,86.431995 127.28268,87.296445 C127.135305,87.35112 126.98388,87.376995 126.83538,87.376995" id="Fill-244" fill="#2C5DAB"></path>
                    <path d="M107.373983,102.749715 C107.373983,106.209765 92.1561075,109.014615 73.3836825,109.014615 C54.6114825,109.014615 39.3933825,106.209765 39.3933825,102.749715 C39.3933825,99.28944 54.6114825,96.484815 73.3836825,96.484815 C92.1561075,96.484815 107.373983,99.28944 107.373983,102.749715" id="Fill-246" fill="#2C5DAB"></path>
                    <path d="M40.689405,102.749715 C40.79088,102.94434 41.877855,104.55804 50.134455,106.011315 C56.413755,107.11674 64.670355,107.725365 73.383705,107.725365 C82.096605,107.725365 90.353655,107.11674 96.63318,106.011315 C104.889555,104.55804 105.97653,102.94434 106.078005,102.749715 C105.97653,102.554865 104.889555,100.94139 96.63318,99.48789 C90.353655,98.382465 82.096605,97.77384 73.383705,97.77384 C64.670355,97.77384 56.413755,98.382465 50.134455,99.48789 C41.877855,100.94139 40.79088,102.554865 40.689405,102.749715 M73.383705,110.303415 C64.22823,110.303415 55.60983,109.644165 49.115205,108.447165 C39.245805,106.62804 38.10438,104.324265 38.10438,102.749715 C38.10438,101.17494 39.245805,98.871165 49.115205,97.05204 C55.60983,95.85504 64.22823,95.196015 73.383705,95.196015 C82.53873,95.196015 91.15758,95.85504 97.652205,97.05204 C107.521605,98.871165 108.66303,101.17494 108.66303,102.749715 C108.66303,104.324265 107.521605,106.62804 97.652205,108.447165 C91.15758,109.644165 82.53873,110.303415 73.383705,110.303415" id="Fill-248" fill="#2C5DAB"></path>
                    <path d="M74.31678,59.4284175 C73.250505,59.9616675 63.653355,76.4903925 62.853255,99.6838425 L78.31548,99.6838425 C78.31548,99.6838425 75.38283,76.4901675 83.380905,59.6952675 L74.31678,59.4284175 Z" id="Fill-250" fill="#FEFEFE"></path>
                    <path d="M64.19772,98.3947275 L76.882095,98.3947275 C76.395195,93.2021775 75.30237,75.3630525 81.414945,60.9270525 L74.858895,60.7340025 C73.182195,63.0488025 65.224845,77.5367775 64.19772,98.3947275 M78.31557,100.972778 L62.85312,100.972778 C62.50392,100.972778 62.16912,100.830803 61.926345,100.579253 C61.68357,100.328153 61.553295,99.9886275 61.565445,99.6394275 C61.99362,87.2194275 64.907595,76.9979025 67.27662,70.6103775 C69.523245,64.5527025 72.483345,58.9040775 73.740195,58.2756525 C73.930995,58.1804775 74.137545,58.1375025 74.354895,58.1398766 L83.41902,58.4066025 C83.85417,58.4194275 84.25377,58.6511775 84.48057,59.0228775 C84.70782,59.3948025 84.73212,59.8560525 84.544695,60.2493525 C76.80627,76.4990775 79.56567,99.2940525 79.594695,99.5224275 C79.640595,99.8896275 79.52697,100.258853 79.282395,100.536278 C79.037595,100.813703 78.68547,100.972778 78.31557,100.972778" id="Fill-252" fill="#2C5DAB"></path>
                    <path d="M85.5136125,64.2270375 L83.3808375,59.6950875 C83.3808375,59.6950875 79.3821375,63.1609875 78.5820375,76.7568375 C77.7823875,90.3531375 78.3156375,99.6838875 78.3156375,99.6838875 L82.3143375,97.8175125 C82.3143375,97.8175125 80.4484125,82.0886625 85.5136125,64.2270375" id="Fill-254" fill="#FEFEFE"></path>
                    <path d="M83.1513375,62.23455 C82.0247625,64.2888 80.3509875,68.6376 79.8688125,76.832775 C79.2912375,86.656725 79.4161125,94.303575 79.5250125,97.6968 L80.9420625,97.03575 C80.6248125,93.392775 79.8526125,79.79355 84.1429125,64.34145 L83.1513375,62.23455 Z M78.3156375,100.9728 C78.0861375,100.9728 77.8575375,100.9116 77.6543625,100.7901 C77.2873875,100.57095 77.0529375,100.18395 77.0286375,99.75735 C77.0234625,99.663525 76.5003375,90.19575 77.2957125,76.68135 C78.1039125,62.9397 82.0855125,59.112225 82.5368625,58.721175 C82.8417375,58.4568 83.2539375,58.349925 83.6474625,58.434075 C84.0425625,58.517325 84.3751125,58.7808 84.5472375,59.1462 L86.6802375,63.678375 C86.8123125,63.95985 86.8386375,64.279575 86.7538125,64.578825 C81.8159625,81.99135 83.5761375,97.51095 83.5943625,97.66575 C83.6600625,98.218125 83.3637375,98.75025 82.8595125,98.985825 L78.8608125,100.851975 C78.6875625,100.93275 78.5014875,100.9728 78.3156375,100.9728 L78.3156375,100.9728 Z" id="Fill-256" fill="#2C5DAB"></path>
                    <path d="M86.753745,64.578825 C86.753745,64.578825 85.51242,76.51935 87.199695,80.569125 C88.88697,84.6189 91.24947,86.9814 91.24947,86.9814 L82.13742,86.3064 L82.314495,97.817625 L79.594695,99.52245 C79.594695,99.52245 78.08787,92.38095 79.437645,79.556625 C80.78742,66.7323 83.380995,59.6952 83.380995,59.6952 L86.68017,63.678375" id="Fill-258" fill="#2C5DAB"></path>
                    <path d="M160.590217,70.2321525 C160.590217,70.2321525 160.040992,72.0627525 163.519493,73.3443525 C166.997993,74.6259525 167.730142,70.7811525 167.730142,70.7811525 C167.730142,70.7811525 167.729917,73.1612025 171.208417,75.3581025 C174.686917,77.5552275 178.348343,77.3720775 177.616193,77.5552275 C176.884043,77.7381525 171.208417,82.1321775 171.208417,82.1321775 C171.208417,82.1321775 169.377592,82.4982525 166.631692,82.3151025 C163.885567,82.1321775 158.942543,83.0474775 158.942543,83.0474775 L154.914817,84.1459275 L151.985768,85.9767525 C151.985768,85.9767525 153.267367,84.5120025 155.647192,80.8503525 C158.027017,77.1889275 160.590217,70.2321525 160.590217,70.2321525" id="Fill-260" fill="#2C5DAB"></path>
                    <path d="M221.554463,96.0458625 C221.554463,96.0458625 236.749838,98.0596125 241.875788,88.9059375 C247.001963,79.7520375 245.354288,68.9506875 240.777563,55.2200625 C236.200613,41.4892125 231.440738,35.2645875 230.891288,35.2645875 C230.342063,35.2645875 242.513663,45.2723625 248.832563,57.9661875 C255.151463,70.6600125 260.915738,92.0181375 260.732588,92.7505125 C260.549663,93.4826625 248.100413,92.2012875 246.269813,92.3844375 C244.438988,92.5673625 242.791313,93.1163625 242.058938,93.1163625 C241.326563,93.1163625 264.760763,92.2165875 264.394013,93.2997375 C264.027488,94.3826625 239.312588,96.9611625 234.003488,96.9611625 C228.694388,96.9611625 193.543988,104.284012 194.459288,103.917937 C195.374813,103.551862 202.886213,95.5967625 202.886213,95.5967625 L221.554463,96.0458625 Z" id="Fill-262" fill="#2C5DAB"></path>
                    <path d="M231.931485,130.013393 L231.803235,116.865743 L264.027285,94.3828425 L262.738485,111.194393 L253.579185,119.043293 C253.579185,119.043293 256.278735,135.242393 255.26646,135.579893 C254.254185,135.917393 237.37986,148.404218 237.37986,148.404218 C237.37986,148.404218 240.07986,128.155343 239.06736,128.155343 C238.05486,128.155343 231.931485,130.013393 231.931485,130.013393" id="Fill-264" fill="#2C5DAB"></path>
                    <path d="M65.9386125,150.766785 C67.6261125,149.416785 86.1877125,132.205185 85.1752125,132.205185 C84.1627125,132.205185 65.9386125,131.867685 65.9386125,131.867685 L65.9386125,150.766785 Z" id="Fill-266" fill="#2C5DAB"></path>
                    <path d="M189.457448,150.091785 L208.343948,132.495885 C208.343948,132.495885 191.108048,132.70716 189.990923,132.39891 C188.873798,132.09066 141.872422,131.867685 141.872422,131.867685 L136.726673,131.66631 C136.726673,131.66631 144.011498,137.650635 144.909923,141.654735 C145.808348,145.658835 145.247198,150.091785 145.247198,150.091785 C145.247198,150.091785 151.090223,149.74821 152.153573,149.820885 C153.217148,149.89356 154.070122,152.76006 154.383323,151.257285 C154.696748,149.754285 155.117723,144.877635 155.117723,144.877635 L149.853397,137.694285 C149.853397,137.694285 172.920623,135.57996 180.682898,140.304735 C188.445173,145.02951 179.670398,151.10451 180.682898,151.441785 C181.695398,151.77906 189.457448,150.091785 189.457448,150.091785" id="Fill-268" fill="#2C5DAB"></path>
                    <path d="M238.055062,143.34201 C238.055062,143.34201 234.680287,149.41701 225.230738,151.104285 C215.781187,152.79156 214.431412,154.47906 214.431412,154.47906 L215.781187,131.867685 L232.318913,131.30226 L236.367787,128.83041 C236.367787,128.83041 236.705287,131.192685 236.705287,132.542685 C236.705287,133.892685 238.055062,143.34201 238.055062,143.34201" id="Fill-270" fill="#2C5DAB"></path>
                    <path d="M215.105693,176.752958 C215.105693,176.752958 229.617517,173.040458 230.292518,170.678182 C230.967518,168.315908 217.805468,173.378182 223.542743,168.315908 C229.280017,163.253632 228.942743,164.266132 227.255243,163.253632 C225.567743,162.241132 222.034118,160.185532 222.034118,160.185532 C222.034118,160.185532 219.119018,159.450457 223.862018,158.483407 C228.605018,157.516357 224.555243,155.828857 224.555243,155.828857 C229.955017,154.141582 234.005018,152.791583 235.354793,152.454082 L236.704568,152.116582 L237.042068,172.028182 C237.042068,172.028182 225.230018,178.102958 215.105693,176.752958" id="Fill-272" fill="#2C5DAB"></path>
                    <path d="M167.183123,170.340683 C166.219223,170.030858 176.950148,172.124933 178.995173,165.615908 C181.040198,159.106883 166.508348,157.516583 160.096073,155.491583 C153.683798,153.466583 145.241798,153.439808 148.697798,151.630358 C152.153573,149.820908 155.714648,151.388708 157.905473,150.571508 C160.096073,149.754308 161.445848,150.091808 162.795848,150.091808 C164.145848,150.091808 161.947823,149.534483 165.240473,149.813258 C168.533123,150.091808 173.257898,151.779083 173.257898,151.779083 C173.257898,151.779083 173.595173,152.454083 179.332448,153.466583 C185.069723,154.479083 182.707448,153.804083 182.707448,153.804083 L187.174148,155.760908 L185.744723,158.528858 C185.744723,158.528858 188.444498,157.516583 188.444498,159.203858 L188.444498,163.591133 L189.794498,169.328183 L189.794498,174.727958 C189.794498,174.727958 176.632673,173.377958 167.183123,170.340683" id="Fill-274" fill="#2C5DAB"></path>
                    <polygon id="Fill-276" fill="#2C5DAB" points="213.080692 188.22753 232.317293 185.86503 237.042068 189.24003 237.379568 194.63958 214.093192 195.31458"></polygon>
                    <path d="M257.62851,35.010225 C257.62851,35.010225 265.39101,40.7475 265.728285,56.2716 C266.06556,71.7957 263.36556,79.220475 262.353285,78.882975 C261.34101,78.545475 257.144085,79.33185 257.144085,79.33185 C257.144085,79.33185 248.51646,56.608875 244.129185,49.521825 C239.74191,42.434775 232.35561,35.295525 232.35561,35.295525 C232.35561,35.295525 255.26601,32.64795 257.62851,35.010225" id="Fill-278" fill="#2C5DAB"></path>
                </g>
                <g id="Group-283" transform="translate(130.500000, 61.177500)">
                    <mask id="mask-12" fill="white">
                        <use xlink:href="#path-11"></use>
                    </mask>
                    <g id="Clip-282"></g>
                    <path d="M15.7833,0.93555 C11.13255,3.180825 6.642225,9.114525 6.642225,9.114525 L6.642225,9.114525 C6.642225,9.595575 5.19885,28.03815 4.076325,29.80215 L4.076325,29.80215 C2.9538,31.566375 0.066825,31.7268 0.066825,31.7268 L0.066825,31.7268 L1.510425,36.217125 L14.339925,36.537975 C14.339925,36.537975 22.83975,29.1609 25.0848,24.51015 L25.0848,24.51015 C27.32985,19.8594 27.97155,15.529275 27.97155,15.529275 L27.97155,15.529275 L22.5189,15.36885 C22.5189,15.36885 23.9625,3.98295 26.528175,2.0583 L26.528175,2.0583 C27.16425,1.5813 27.79065,1.340775 28.372725,1.24875 L28.372725,1.24875 C26.114175,0.73395 22.98465,0.1638 20.20095,0.1638 L20.20095,0.1638 C18.509625,0.1638 16.9461,0.3744 15.7833,0.93555 M28.372725,1.24875 C30.231,1.6722 31.49955,2.0583 31.49955,2.0583 L31.49955,2.0583 C31.49955,2.0583 30.430575,1.20285 28.9575,1.20285 L28.9575,1.20285 C28.7685,1.20285 28.573425,1.217025 28.372725,1.24875" id="Fill-281" fill="url(#linearGradient-13)" mask="url(#mask-12)"></path>
                </g>
                <g id="Group-286" transform="translate(140.850000, 30.127500)">
                    <mask id="mask-15" fill="white">
                        <use xlink:href="#path-14"></use>
                    </mask>
                    <g id="Clip-285"></g>
                    <path d="M19.545975,20.2788 C13.291425,27.816075 6.395625,27.495225 4.15035,26.372475 L4.15035,26.372475 C1.9053,25.24995 0.1413,24.127425 0.1413,24.127425 L0.1413,24.127425 L1.49895,31.833225 C1.49895,31.833225 4.79205,28.938375 10.565325,29.099025 L10.565325,29.099025 C16.3386,29.25945 18.744075,30.7026 22.2723,30.7026 L22.2723,30.7026 C25.800525,30.7026 27.725175,31.3443 29.6496,29.419875 L29.6496,29.419875 C31.5738,27.495225 32.055075,26.693325 32.055075,26.693325 L32.055075,26.693325 L22.111875,0.071775 C22.111875,0.071775 25.800525,12.741525 19.545975,20.2788" id="Fill-284" fill="url(#linearGradient-16)" mask="url(#mask-15)"></path>
                </g>
                <g id="Group-289" transform="translate(148.500000, 15.952500)">
                    <mask id="mask-18" fill="white">
                        <use xlink:href="#path-17"></use>
                    </mask>
                    <g id="Clip-288"></g>
                    <path d="M7.7265,4.945275 C1.953,7.6716 0.188775,11.36025 0.188775,11.36025 L0.188775,11.36025 C0.188775,11.36025 2.594475,10.878975 4.83975,10.878975 L4.83975,10.878975 C7.0848,10.878975 11.254725,11.0394 11.254725,11.0394 L11.254725,11.0394 C11.254725,11.0394 12.858525,10.0773 14.94315,9.59625 L14.94315,9.59625 C15.985575,9.35595 16.867575,9.396 17.52885,9.43605 L17.52885,9.43605 C18.190575,9.4761 18.631575,9.51615 18.792,9.2754 L18.792,9.2754 C19.112625,8.794125 21.3579,0.134325 21.3579,0.134325 L21.3579,0.134325 C20.87685,0.134325 13.499775,2.21895 7.7265,4.945275" id="Fill-287" fill="url(#linearGradient-19)" mask="url(#mask-18)"></path>
                </g>
                <g id="Group-292" transform="translate(166.275000, 79.627500)">
                    <mask id="mask-21" fill="white">
                        <use xlink:href="#path-20"></use>
                    </mask>
                    <g id="Clip-291"></g>
                    <path d="M5.3469,9.908775 C-2.19015,17.767125 0.0549,26.1063 2.300175,25.62525 L2.300175,25.62525 C4.545225,25.1442 10.837125,20.056275 16.591725,19.713375 L16.591725,19.713375 C22.34655,19.370925 25.55415,19.370925 28.921725,19.69155 L28.921725,19.69155 C32.2893,20.0124 38.223225,21.134925 38.223225,21.134925 L38.223225,21.134925 L27.9594,0.12645 C27.47835,0.12645 12.884175,2.05065 5.3469,9.908775" id="Fill-290" fill="url(#linearGradient-22)" mask="url(#mask-21)"></path>
                </g>
                <g id="Group-301" transform="translate(68.400000, 27.652500)">
                    <path d="M23.0721525,11.6367975 C23.0721525,17.9995725 17.9142525,23.1574725 11.5517025,23.1574725 C5.1889275,23.1574725 0.0310275,17.9995725 0.0310275,11.6367975 C0.0310275,5.2742475 5.1889275,0.1163475 11.5517025,0.1163475 C17.9142525,0.1163475 23.0721525,5.2742475 23.0721525,11.6367975" id="Fill-293" fill="#578DC9"></path>
                    <path d="M23.0721525,11.6367975 C23.0721525,17.9995725 17.9142525,23.1574725 11.5517025,23.1574725 C5.1889275,23.1574725 0.0310275,17.9995725 0.0310275,11.6367975 C0.0310275,5.2742475 5.1889275,0.1163475 11.5517025,0.1163475 C17.9142525,0.1163475 23.0721525,5.2742475 23.0721525,11.6367975 Z" id="Stroke-295" stroke="#578DC9" stroke-width="1.8"></path>
                    <polygon id="Fill-297" fill="#FEFEFE" points="4.3637625 9.4661325 8.4306375 9.4661325 7.8456375 20.6547075 12.6752625 20.6547075 13.2604875 9.4661325 13.5124875 4.6430325 13.5129375 4.6365075 4.6164375 4.6365075"></polygon>
                    <path d="M17.124165,4.63653 C15.790815,4.63653 14.65344,5.717205 14.58369,7.05033 C14.513715,8.383455 15.538365,9.463905 16.871715,9.463905 C18.204615,9.463905 19.34154,8.383455 19.411515,7.05033 C19.481265,5.717205 18.45729,4.63653 17.124165,4.63653" id="Fill-299" fill="#FEFEFE"></path>
                </g>
            </g>
        </g>
    </g>
</svg>