<svg xmlns="http://www.w3.org/2000/svg" xmlns:xlink="http://www.w3.org/1999/xlink" width="255" height="262"><defs><clipPath id="b"><ellipse data-name="SVGID" cx="127.86" cy="139.4" rx="124.16" ry="122.48" fill="#ffd6f7"/></clipPath><clipPath id="c"><path data-name="&lt;Clipping Path&gt;" d="M244.07 283c-6.34-4.32-19.51-9.09-26.51-11.12l-.11-.05a36.61 36.61 0 0 0 .94-23L192.62 165c2.15-2.23 3.43-3.77 3.43-3.77 6.25 4 16.17-.52 20.2-2.68a.46.46 0 0 0-.22-.87c-7.9 0-19.15-6.13-19.15-6.13 9 2.37 12.39-.17 13.53-1.55a.46.46 0 0 0-.33-.76c-2.89-.13-12.68-1.81-19.82-18-1-2.22-2-4.43-3.13-6.59-2.16-4.15-5.71-10.73-9.82-17.26l.2-1 7.37-30.28a4.42 4.42 0 0 0-6.88-4.64l-19.39 14.36-.31.38-.71-.46a35.89 35.89 0 0 0-8.1-3.17l-.49-.12c1.48-4.2 6-6.53 6-6.53-5.29-5-14.73 2.86-14.73 2.86-5.46-5.27 2.56-15.13 2.56-15.13-9.55-4.34-16.64 12.59-16.64 12.59-.68-8.31-12.68-9.56-12.68-9.56 4 4.38 2 12.22 2 12.22-5.62-5.5-16.32-.36-16.32-.36a14.08 14.08 0 0 1 9 4.13l-.45.12a35.79 35.79 0 0 0-11.64 5.75l-19.31-12a4.43 4.43 0 0 0-6.59 5l8.48 29.86.61 2.19c-2 4.8-3.54 9.12-4.38 11.58-.53 1.54-1.12 3-1.79 4.54a37.72 37.72 0 0 1-23.6 22.56.47.47 0 0 0 0 .89c3 .84 10.74 2.57 16.36-3.1 0 0-5.49 7.61-12.27 10.35a.46.46 0 0 0 .13.89 24.61 24.61 0 0 0 12.93-2.74 37.57 37.57 0 0 1-6 6.55.46.46 0 0 0 .33.83c2.29-.24 5.08-.75 6.71-1.76l.07 1.79c.07 1.73 1.26 3.57 3.15 5.41L55.2 254.1a36.61 36.61 0 0 0 1.86 17.32l-.09.05c-5.62 1.34-19.23 6.4-27.2 11.54-3.9 2.53-1.49 8.24 3.42 8.15l39.35-.77c.66.41 1.34.8 2 1.16v.5c.06 3.43-1 6.24-4.41 6.42-2.29.11-4.16 1.46-4.52 3.1-.7 3.17.86 5.73 4 6l12.43.74A10.34 10.34 0 0 0 93 299.72l.74-3.93h78.65l.51 3a10.57 10.57 0 0 0 6.36 8 7.86 7.86 0 0 0 3.29.58l13.54-.45c3.24-.32 4.44-2.31 4.1-5.44-.11-1-.92-3.62-3.61-3.76-2.33-.13-3.72-1.27-4.14-3.23a36.85 36.85 0 0 0 9.64-4.14l38.55.75c4.93.15 7.28-5.46 3.44-8.1z" fill="none"/></clipPath><linearGradient id="a" x1="162.36" y1="90.89" x2="184.55" y2="90.89" gradientUnits="userSpaceOnUse"><stop offset="0" stop-color="#efc95e"/><stop offset="1" stop-color="#c5a54d"/></linearGradient><linearGradient id="d" x1="71.09" y1="96.37" x2="88.94" y2="96.37" xlink:href="#a"/><linearGradient id="e" x1="189.52" y1="291.96" x2="189.52" y2="82.46" gradientUnits="userSpaceOnUse"><stop offset="0" stop-color="#fff" stop-opacity="0"/><stop offset=".72" stop-color="#fff"/></linearGradient></defs><g data-name="cat"><ellipse data-name="SVGID" cx="127.86" cy="139.4" rx="124.16" ry="122.48" fill="#ffd6f7"/><g clip-path="url(#b)"><g clip-path="url(#c)"><path fill="#fff18a" d="M26.42 42.84h224.15v276.37H26.42z"/><path d="M93.85 297.6c-.82-2.15.47-8.37 3.05-20.81 1.54-7.44 2.78-12.3 3.54-15.48 5.72-23.87 2.38-26.47 7.37-40.69 3.41-9.72 7-19.34 16.36-23.88 1.13-.54 9.72-4.53 18.43-1 8.5 3.41 12 11.88 15.53 20.92 4.29 10.93 2.94 14.7 7.82 42.05l3 17.08c.6 3.33 1.17 6.68 1.77 10 1.38 7.85 1.41 8 1.38 8.29-1.39 11.57-71.7 20.71-78.25 3.52z" fill="#fff"/></g><g clip-path="url(#c)"><path d="M110.69 86.43c-12 3.48-21.39 16-26.86 35-1.6 5-9.53 30.59-9.25 39.86.31 10.11 5.63 16.07 4.66 16.07-.79 0-2.9-2.34-3.22-1.46-1 2.85-2.28 11.61-2.28 11.65-3 19.63-4.95 48.36-5.88 55.85a132.78 132.78 0 0 0-1 14.51v.49c3.47 3.83 7 13.09 7.75 26.07l.2 7.22-2.25-1.28c-7.81-4.82-21.08-16.64-16.42-41.18 4.2-22-15-133.63-15-133.63l41.59-6.52a36.19 36.19 0 0 1 25.44-26.38z" fill="#efc95e"/><path d="M184.55 77.45s-2.58-6.38-12 3.57a27.81 27.81 0 0 1-10.16 8l15.15 17.36z" fill="url(#a)"/><path d="M71.22 85.12s-1.39-5.74 5.12-3.07c2.72 1.12 7.47 6 9.36 8.26l3.24 5.16-10.26 15.93z" fill="url(#d)"/><path d="M100.48 260.12c-3.58 21.78 8 26.29 10.11 26.77 12.75 2.28 33 1.3 39.58-1 6.16-2.17 19.15-8.62 15.92-27.93l6.33 37.86H93.77z" style="mix-blend-mode:multiply" fill="#7f7f7f" opacity=".2"/><path d="M193 277.36s4.41-13.47 9.78-18.41c-5.78 11.05 2.1 13.67 4.22 12.94 7.91-2.83 11.05-9.84 11.68-22.12 0 0 3.08 14.15-3 26.11-4.44 8.74-17 15.46-23.18 18.83z" fill="#efc95e"/></g><g clip-path="url(#c)"><path d="M146.06 85.43s8 2.18 11.24 6.79 6.48 12.63 13 25.36c4.7 9.14 14.17 23.57 16.22 38.08.93 8.38-5.16 16.38-6.1 18.2.17.51 5.19-4.7 5.36-4.19 9.65 28.41 17.82 62.49 21.79 80.13 6.8 30.18-12 42.16-12 42.16l9-5.23s9.29-11 10.69-15.87c3.06-10.6 20.49-4.86 17.27-21.77S227.87 189.54 215 152c-5.72-16.73-35.75-45.44-35.75-45.44l-4-2.35c-3.05-5.42-11.84-20.38-28.77-21.76z" style="mix-blend-mode:overlay" opacity=".5" fill="url(#e)"/></g><path d="M158.61 85.83L178 71.47a4.42 4.42 0 0 1 6.93 4.59l-7.37 30.28-.2 1M96.1 88.55l-19.31-12a4.43 4.43 0 0 0-6.59 5l8.48 29.86.61 2.19M192.62 165l25.77 83.83a36.92 36.92 0 0 1-25.92 45.68m-117.89-2.95A36.89 36.89 0 0 1 55.2 254.1l15.73-82.72" fill="none" stroke="#31323d" stroke-linecap="round" stroke-miterlimit="10" stroke-width="1.843"/><path d="M100.81 260.18q-.39 3.38-.9 6.72c-.32 2.23-.68 4.46-1.06 6.68-.77 4.44-1.62 8.87-2.43 13.31L94 300.21a11.25 11.25 0 0 1-3.66 6.31 11.52 11.52 0 0 1-6.75 2.78 15.78 15.78 0 0 1-1.82 0l-1.77-.1-3.35-.2-6.75-.41a5.9 5.9 0 0 1-3.74-1.43 5.47 5.47 0 0 1-1.67-3.72 7.34 7.34 0 0 1 .15-1.94 4.09 4.09 0 0 1 1-2 6.07 6.07 0 0 1 3.47-1.95 6.58 6.58 0 0 1 1-.13 6.67 6.67 0 0 0 .71-.08 3.1 3.1 0 0 0 1.2-.46 3.62 3.62 0 0 0 1.39-2.19 10.4 10.4 0 0 0 .26-3.09l-.14-3.37-.55-13.51v.07a41.33 41.33 0 0 0-1.82-8.58 27.42 27.42 0 0 0-4.22-7.67.32.32 0 0 1 .05-.46.33.33 0 0 1 .44 0 23.19 23.19 0 0 1 5.07 7.59 34.36 34.36 0 0 1 2.26 8.86v.08l.67 13.52.16 3.38a12.64 12.64 0 0 1-.29 3.64 5.57 5.57 0 0 1-2.2 3.35 4.87 4.87 0 0 1-1.93.77 7 7 0 0 1-1 .12 5.62 5.62 0 0 0-.7.1 4.14 4.14 0 0 0-2.32 1.29 2.14 2.14 0 0 0-.5 1.05 5.65 5.65 0 0 0-.1 1.41 3.33 3.33 0 0 0 1 2.31 3.74 3.74 0 0 0 2.47.87l6.75.39 3.38.21 1.69.1a11.54 11.54 0 0 0 1.55 0A9.47 9.47 0 0 0 89 305a9.28 9.28 0 0 0 3-5.16l2.54-13.27c.86-4.43 1.67-8.86 2.57-13.28.46-2.21.93-4.42 1.44-6.62s1-4.39 1.61-6.58a.32.32 0 0 1 .4-.23.34.34 0 0 1 .25.32zm65.6-2.3q.9 3.86 1.66 7.73c.53 2.58 1 5.17 1.49 7.76.94 5.19 1.79 10.38 2.69 15.57l1.33 7.79.33 1.95a10.44 10.44 0 0 0 .47 1.72 9.56 9.56 0 0 0 1.84 3 9.28 9.28 0 0 0 2.82 2.15 6.85 6.85 0 0 0 3.32.81l7.85-.29 3.94-.11 1.95-.07a4.85 4.85 0 0 0 1.54-.39 2.68 2.68 0 0 0 1.56-2.31 6.75 6.75 0 0 0 0-1.68 4.33 4.33 0 0 0-.53-1.47 2.64 2.64 0 0 0-1-1 2 2 0 0 0-.65-.24c-.11 0-.24 0-.36-.06h-.52a6.07 6.07 0 0 1-2.25-.67 4.65 4.65 0 0 1-1.77-1.75 7.83 7.83 0 0 1-.71-4.35l.08-4 .09-4a35.94 35.94 0 0 1 .4-4 40.36 40.36 0 0 1 10.6-21.27.33.33 0 0 1 .47 0 .34.34 0 0 1 0 .44c-6.31 8.35-10.17 18.39-9.67 28.88l-.06 3.94v1a8 8 0 0 0 0 .86 3.83 3.83 0 0 0 .46 1.49 3.06 3.06 0 0 0 2.53 1.42h.46a4.28 4.28 0 0 1 .61.09 4.42 4.42 0 0 1 1.2.43 4.67 4.67 0 0 1 1.78 1.72 6.19 6.19 0 0 1 .82 2.22 8.91 8.91 0 0 1 0 2.25 5.26 5.26 0 0 1-.8 2.28 4.46 4.46 0 0 1-1.9 1.63 6.77 6.77 0 0 1-2.26.6l-2 .08-4 .15-7.94.24a9.08 9.08 0 0 1-4.27-1.05 11.54 11.54 0 0 1-5.61-6.34 12.76 12.76 0 0 1-.4-2.03l-.32-1.95-1.27-7.8c-.85-5.2-1.74-10.39-2.53-15.6-.4-2.6-.78-5.21-1.12-7.82s-.68-5.23-1-7.85a.33.33 0 0 1 .3-.36.33.33 0 0 1 .35.26zM110 86.78a11 11 0 0 0-1.79-3 11.46 11.46 0 0 0-2.57-2.3 13.16 13.16 0 0 0-6.48-2 .92.92 0 0 1-.79-1 .93.93 0 0 1 .53-.72 26.9 26.9 0 0 1 4.22-1.5 22.88 22.88 0 0 1 4.44-.74 13.81 13.81 0 0 1 4.59.44 9.51 9.51 0 0 1 4.11 2.33l-1.54.43a19.35 19.35 0 0 0 .43-3 17.12 17.12 0 0 0-.06-3 9.35 9.35 0 0 0-2.16-5.33v-.06a.91.91 0 0 1 .13-1.28.88.88 0 0 1 .69-.2 25 25 0 0 1 4.36 1 18.91 18.91 0 0 1 4.05 1.9 11.67 11.67 0 0 1 3.34 3.12 8.92 8.92 0 0 1 1.51 4.36l-1.28-.2a39.24 39.24 0 0 1 2.72-5.23 28.19 28.19 0 0 1 3.6-4.72 13.49 13.49 0 0 1 5-3.48 8.31 8.31 0 0 1 6.29.25.92.92 0 0 1 .48 1.19.82.82 0 0 1-.12.2 25.57 25.57 0 0 0-2.2 3.36 19.6 19.6 0 0 0-1.59 3.65 9.16 9.16 0 0 0-.4 3.75 5.22 5.22 0 0 0 1.56 3.13h-1.23a26.83 26.83 0 0 1 3.5-2.36 20.24 20.24 0 0 1 3.75-1.77 11.19 11.19 0 0 1 4.38-.58 7 7 0 0 1 4.19 1.86.92.92 0 0 1 0 1.3.86.86 0 0 1-.29.21 20.34 20.34 0 0 0-2.9 1.48 16.74 16.74 0 0 0-2.63 1.95 10.08 10.08 0 0 0-2 2.49 6.3 6.3 0 0 0-.84 3 .37.37 0 0 1-.74 0 7.15 7.15 0 0 1 .67-3.53 11.23 11.23 0 0 1 2-3 17.91 17.91 0 0 1 2.7-2.18 21 21 0 0 1 3-1.87l-.26 1.51a5.14 5.14 0 0 0-3.11-1.36 9.24 9.24 0 0 0-3.64.49 18.85 18.85 0 0 0-3.53 1.59 25.13 25.13 0 0 0-3.24 2.18.94.94 0 0 1-1.22-.05 7.1 7.1 0 0 1-2.1-4.22 10.84 10.84 0 0 1 .47-4.52 20.48 20.48 0 0 1 1.73-4 28.4 28.4 0 0 1 2.39-3.63l.34 1.42a6.5 6.5 0 0 0-5-.31 11.89 11.89 0 0 0-4.45 3 27.21 27.21 0 0 0-3.5 4.39 37.39 37.39 0 0 0-2.72 5 .67.67 0 0 1-.86.37.65.65 0 0 1-.41-.55 7.4 7.4 0 0 0-1.37-3.63 10.13 10.13 0 0 0-3-2.61 17.63 17.63 0 0 0-3.75-1.62 22 22 0 0 0-4-.84l.78-1.54a9.69 9.69 0 0 1 1.84 3 13.6 13.6 0 0 1 .79 3.35 19 19 0 0 1 .07 3.37 21.68 21.68 0 0 1-.48 3.34.92.92 0 0 1-1.1.68.91.91 0 0 1-.42-.23 7.71 7.71 0 0 0-3.33-1.88 12.2 12.2 0 0 0-4-.37 21.1 21.1 0 0 0-4.07.68 25.52 25.52 0 0 0-3.91 1.39l-.3-1.75a14.69 14.69 0 0 1 7 2.82 12.6 12.6 0 0 1 2.73 2.59 11.88 11.88 0 0 1 1.68 3.38.37.37 0 0 1-.24.46.36.36 0 0 1-.45-.22z" fill="#31323d"/><path d="M149.72 81.69a36.59 36.59 0 0 1 8.28 3.25h.06a60 60 0 0 1 5.23 3.59A35.28 35.28 0 0 1 168 93a98.57 98.57 0 0 1 7.62 10.1 223.43 223.43 0 0 1 12.61 21.75l2.72 5.7 1.32 2.79c.45.92 1 1.8 1.46 2.7s1.09 1.73 1.66 2.57 1.18 1.66 1.87 2.4a24.1 24.1 0 0 0 4.4 4.11 18.64 18.64 0 0 0 5.29 2.7 14.28 14.28 0 0 0 2.87.56h.46a1.39 1.39 0 0 1 1.12 1.74 1.55 1.55 0 0 1-.27.51l-.16.18a6.91 6.91 0 0 1-1.38 1.16 11.9 11.9 0 0 1-6.54 1.5 28.29 28.29 0 0 1-6.39-1l.67-1.7A70.46 70.46 0 0 0 207 155a40.9 40.9 0 0 0 5 1.38c.84.18 1.69.28 2.54.38l1.26.06c.14 0 .11 0 .51.05a1.34 1.34 0 0 1 .83.54 1.38 1.38 0 0 1-.16 1.82l-.19.15-.1.06-.15.08-.3.16-.6.31-1.23.59c-.82.39-1.66.75-2.51 1.08a33.48 33.48 0 0 1-5.24 1.62 20.19 20.19 0 0 1-5.56.48 11.52 11.52 0 0 1-5.49-1.69l1.21-.18a99.592 99.592 0 0 1-6.52 6.48 87.4 87.4 0 0 1-7.08 5.81.37.37 0 0 1-.52-.07.39.39 0 0 1 .07-.51 83.92 83.92 0 0 0 6.63-6.16c2.1-2.15 4.14-4.41 6-6.73a.91.91 0 0 1 1.12-.24l.09.05c2.74 1.75 6.36 1.68 9.67 1a32.67 32.67 0 0 0 5-1.54c.81-.31 1.61-.66 2.4-1 .4-.18.79-.37 1.18-.57l.58-.3.29-.15.14-.08-.06.05a.47.47 0 0 0-.07.61.53.53 0 0 0 .28.18h-.15l-1.4-.07c-.93-.11-1.85-.22-2.74-.41a42.72 42.72 0 0 1-5.27-1.45 69.9 69.9 0 0 1-9.94-4.31.92.92 0 0 1 .66-1.7 25.48 25.48 0 0 0 6 .92 10 10 0 0 0 5.51-1.21 4.79 4.79 0 0 0 1-.84l.11-.11a.48.48 0 0 0-.09.16.46.46 0 0 0 .06.37.48.48 0 0 0 .32.21h-.32a16.18 16.18 0 0 1-3.27-.64 20.5 20.5 0 0 1-5.82-3 26.08 26.08 0 0 1-4.73-4.41c-.73-.8-1.32-1.69-2-2.54s-1.18-1.78-1.73-2.69-1.06-1.86-1.53-2.81l-1.36-2.87-2.67-5.61a222.26 222.26 0 0 0-12.5-21.57 96.6 96.6 0 0 0-7.46-9.89 34.43 34.43 0 0 0-4.52-4.25c-1.57-1.27-3.33-2.33-5.09-3.49h.06a34.5 34.5 0 0 0-7.89-3.09.92.92 0 1 1 .46-1.78zm-70.66 95.97a46.47 46.47 0 0 1-7.8-5.1A16.25 16.25 0 0 1 68 169a7 7 0 0 1-1-2.4c0-.22-.07-.47-.09-.67v-.58l-.09-1.15 1.41.75a13.63 13.63 0 0 1-4.34 1.48c-.73.14-1.45.25-2.18.34l-.54.07a1.5 1.5 0 0 1-.72-.1 1.4 1.4 0 0 1-.61-.51 1.42 1.42 0 0 1 0-1.51 1.93 1.93 0 0 1 .26-.3l.16-.12.19-.16a24.1 24.1 0 0 0 2.93-2.88c.92-1 1.81-2.15 2.63-3.26l1.15 1.37a30.2 30.2 0 0 1-7.53 2.52 23.17 23.17 0 0 1-4 .39h-1.88a1.38 1.38 0 0 1-.79-2.42 2.78 2.78 0 0 1 .67-.37l.42-.19a24.51 24.51 0 0 0 6.1-4.18 40.19 40.19 0 0 0 5.07-5.54l1.4 1.19a14.38 14.38 0 0 1-6.47 3.74 18.69 18.69 0 0 1-7.4.32c-.61-.09-1.21-.2-1.81-.33-.3-.06-.59-.14-.89-.21l-.44-.12-.22-.06a1.26 1.26 0 0 1-.53-.27 1.38 1.38 0 0 1 .17-2.26 1.51 1.51 0 0 1 .29-.13h.1l.2-.07.41-.14c.54-.19 1.08-.38 1.61-.6a37.55 37.55 0 0 0 6.13-3.19 36.12 36.12 0 0 0 10-9.43c.71-.91 1.27-1.92 1.89-2.89s1.09-2 1.61-3.06.89-2.06 1.36-3.24l1.27-3.24c3.14-8.91 6.59-17.81 11.47-26.06a42 42 0 0 1 4.19-5.89c.82-.94 1.64-1.77 2.47-2.63s1.79-1.65 2.73-2.41a36.55 36.55 0 0 1 12.84-6.59.92.92 0 1 1 .5 1.77A34.64 34.64 0 0 0 95.8 90q-1.35 1-2.58 2.23c-.81.84-1.64 1.68-2.38 2.53a39.83 39.83 0 0 0-4 5.64c-4.76 8-8.19 16.84-11.32 25.72l-1.31 3.35c-.4 1-.93 2.2-1.38 3.29s-1.08 2.16-1.69 3.21-1.24 2.08-2 3a37.94 37.94 0 0 1-10.48 9.92 39.14 39.14 0 0 1-6.43 3.33c-.55.24-1.13.44-1.7.64l-.43.15-.22.07h-.1.08a.45.45 0 0 0 .06-.75c0-.05-.17-.1-.14-.08l.21.05.42.11.83.2c.56.12 1.11.22 1.67.3a16.74 16.74 0 0 0 6.66-.27 12.49 12.49 0 0 0 5.65-3.26.92.92 0 0 1 1.3 0 .93.93 0 0 1 .08 1.2 42.71 42.71 0 0 1-5.33 5.82 26.37 26.37 0 0 1-6.58 4.5l-.46.21c-.13 0-.42.21-.19.06a.45.45 0 0 0-.15-.78h-.09 1.71a20.57 20.57 0 0 0 3.67-.37 27.81 27.81 0 0 0 7.06-2.36.91.91 0 0 1 1.13 1.37c-.87 1.19-1.77 2.3-2.74 3.4a25.76 25.76 0 0 1-3.16 3.1c-.12.08-.42.37-.2.13a.45.45 0 0 0 0-.5.42.42 0 0 0-.2-.17.6.6 0 0 0-.2 0l.52-.06c.69-.08 1.37-.19 2-.32a11.81 11.81 0 0 0 3.72-1.24.91.91 0 0 1 1.25.31 1.06 1.06 0 0 1 .13.45v2.21a5.39 5.39 0 0 0 .66 1.87 14.94 14.94 0 0 0 2.77 3.38 45.69 45.69 0 0 0 7.51 5.41.36.36 0 0 1 .12.5.37.37 0 0 1-.49.16z" fill="#31323d"/><path data-name="&lt;Clipping Path&gt;" d="M110.09 125.28c0 14.08-4.85 17.13-12.71 15.67a35.39 35.39 0 0 0-11.75-.27c-8.34 1.25-13.86-2.15-13.78-14.84a19.29 19.29 0 0 1 18.7-19.27 19 19 0 0 1 19.54 18.71z" fill="#fff"/><path data-name="&lt;Clipping Path&gt;" d="M110.09 125.28c0 14.08-4.85 17.13-12.71 15.67a35.39 35.39 0 0 0-11.75-.27c-8.34 1.25-13.86-2.15-13.78-14.84a19.29 19.29 0 0 1 18.7-19.27 19 19 0 0 1 19.54 18.71z" fill="none" stroke="#31323d" stroke-linecap="round" stroke-miterlimit="10" stroke-width="1.474"/><path data-name="&lt;Clipping Path&gt;" d="M150.56 122.65c0 14.08 4.85 17.14 12.71 15.67a35.39 35.39 0 0 1 11.75-.27c8.34 1.25 13.86-2.15 13.78-14.83A19.27 19.27 0 0 0 170.1 104a19 19 0 0 0-19.54 18.65z" fill="#fff"/><path data-name="&lt;Clipping Path&gt;" d="M150.56 122.65c0 14.08 4.85 17.14 12.71 15.67a35.39 35.39 0 0 1 11.75-.27c8.34 1.25 13.86-2.15 13.78-14.83A19.27 19.27 0 0 0 170.1 104a19 19 0 0 0-19.54 18.65z" fill="none" stroke="#31323d" stroke-linecap="round" stroke-miterlimit="10" stroke-width="1.474"/><path d="M139.24 150.77s.65 11.18-6 11.83c-10.09 1-8.49-9.48-8.49-9.48s2.64 4.93 6 4.12c5.53-1.31 8.49-6.47 8.49-6.47z" fill="#efc95e"/><path d="M124.49 154s-.15 5.91 7.32 6 7.61-10.3 7.61-10.3l-9-5.09z" fill="#f29cb1"/><path fill="none" stroke="#db829b" stroke-linecap="round" stroke-miterlimit="10" stroke-width="3.685" d="M130.75 145.22l1.11 9.1"/><path d="M132 143.13a25.07 25.07 0 0 0 16.36 8.63c.79.11 1.6.07 2.4.11h1.2l1.2-.11c.8-.1 1.61-.11 2.4-.27l2.36-.52c.4-.1.8-.15 1.18-.28l1.15-.4 2.31-.8c1.49-.64 2.94-1.37 4.43-2.06a.26.26 0 0 1 .35.12.27.27 0 0 1-.12.34c-1.46.76-2.91 1.57-4.4 2.29l-2.31.91-1.16.45c-.39.16-.8.23-1.2.35l-2.42.64c-.81.19-1.65.25-2.47.38l-1.25.18h-1.26c-.84 0-1.68.07-2.52 0a26.84 26.84 0 0 1-18-8.62 1.1 1.1 0 0 1 1.64-1.48z" fill="#31323d"/><path d="M92.36 155.18a40.07 40.07 0 0 0 11.32 3.93 24.46 24.46 0 0 0 11.7-.39 19 19 0 0 0 5.2-2.53 20.07 20.07 0 0 0 4.17-4l.87-1.16c.28-.4.52-.83.78-1.24a25.57 25.57 0 0 0 1.4-2.57c.44-.88.78-1.81 1.17-2.7s.45-1.93 1.33-2.68a.84.84 0 0 1 1.17.08.8.8 0 0 1 .18.41c.2 1.14-.39 2.05-.72 3s-.82 1.91-1.32 2.83a29.26 29.26 0 0 1-1.58 2.7c-.29.44-.56.88-.87 1.3l-1 1.24a21.67 21.67 0 0 1-4.68 4.23 19.54 19.54 0 0 1-5.75 2.57 25.66 25.66 0 0 1-12.32-.08 40.27 40.27 0 0 1-11.29-4.62.17.17 0 0 1-.06-.24.17.17 0 0 1 .23-.07z" fill="#31323d"/><path d="M121 140.32a2.21 2.21 0 0 1 .34-2.38c1.22-1.39 3.89-3.51 9.12-3.95s7.86 1.18 9.14 2.38a2.16 2.16 0 0 1 .55 2.33 3 3 0 0 1-2.54 2 5.93 5.93 0 0 0-4.62 2.71 1.66 1.66 0 0 1-.25.34 2.61 2.61 0 0 1-3.74.08s-1.21-1.75-5.18-1.75a3.06 3.06 0 0 1-2.76-1.78zm24.89 2.68a103.09 103.09 0 0 1 24.45-2.32 100.42 100.42 0 0 1 12.24 1.07c2 .34 4 .64 6 1.12 1 .23 2 .41 3 .68l3 .81a92.66 92.66 0 0 1 22.46 9.7 97 97 0 0 1 19.21 15.06 97.33 97.33 0 0 0-19.4-14.75 92.64 92.64 0 0 0-22.46-9.3l-2.95-.76c-1-.25-2-.42-3-.63-2-.44-4-.71-6-1a98.52 98.52 0 0 0-12.13-.87 102.21 102.21 0 0 0-24.1 2.64.73.73 0 1 1-.34-1.43zm-27.97 5.71a49.31 49.31 0 0 0-7.69-.58 48.42 48.42 0 0 0-7.7.58 44.42 44.42 0 0 0-14.66 4.76 42.5 42.5 0 0 0-12.1 9.61 45.53 45.53 0 0 0-8 13.35 45.66 45.66 0 0 1 7.68-13.58 42.87 42.87 0 0 1 12-10 45.76 45.76 0 0 1 14.84-5.21 51.8 51.8 0 0 1 7.87-.77 51.15 51.15 0 0 1 7.91.41.72.72 0 0 1 .63.83.73.73 0 0 1-.82.63z" fill="#31323d"/><path d="M24.47 171.43a112.82 112.82 0 0 1 18.89-14.05A118 118 0 0 1 53.84 152a104.89 104.89 0 0 1 57.85-8.11.74.74 0 1 1-.2 1.46 103.44 103.44 0 0 0-46.38 3.14 105.25 105.25 0 0 0-11 4 117.07 117.07 0 0 0-10.52 5.24 111.89 111.89 0 0 0-19.12 13.7zm124.89-32.65l22.07-2.78c3.67-.45 7.37-1 11.1-1.09a69.71 69.71 0 0 1 32.47 6.84c6.62 3.36 13.15 6.85 19.73 10.26-6.63-3.3-13.23-6.69-19.89-9.93a68.71 68.71 0 0 0-21.24-5.89 70.21 70.21 0 0 0-11-.33c-3.67.16-7.31.75-11 1.27l-22 3.11a.73.73 0 0 1-.83-.62.74.74 0 0 1 .62-.84zm-33.58 13.13a16.53 16.53 0 0 0-8.09 0 13.37 13.37 0 0 0-6.84 4.33 15.51 15.51 0 0 0-3.39 7.52 18 18 0 0 0 .64 8.36 18.34 18.34 0 0 1-1-8.41 16 16 0 0 1 3.19-7.93 14.25 14.25 0 0 1 7.1-4.93 17.91 17.91 0 0 1 8.73-.4.74.74 0 0 1 .58.87.73.73 0 0 1-.86.58zm33.72-6.11a18.73 18.73 0 0 1 9.08.56 16.49 16.49 0 0 1 7.51 5 14.75 14.75 0 0 1 3.45 8.19 18.23 18.23 0 0 1-1.37 8.71 18.07 18.07 0 0 0 1-8.67 14.15 14.15 0 0 0-3.65-7.74 15.45 15.45 0 0 0-7.27-4.39 17.43 17.43 0 0 0-8.46-.18.73.73 0 0 1-.88-.56.74.74 0 0 1 .56-.88z" fill="#31323d"/><path d="M123.16 173s1.16 10.65 10.1 9.79c8.65-.84 9.05-10.89 9.05-10.89a11.58 11.58 0 0 1-8.47 5c-5.6.36-10.68-3.9-10.68-3.9z" fill="#efc95e"/><path d="M142.69 171.37a8.68 8.68 0 0 1-1.18 2.92 10 10 0 0 1-2.23 2.32 11.49 11.49 0 0 1-2.87 1.48 12.79 12.79 0 0 1-3.18.56 12.39 12.39 0 0 1-6.17-1.44 10.67 10.67 0 0 1-4.42-4.33.36.36 0 0 1 .15-.5.38.38 0 0 1 .44.06 13.48 13.48 0 0 0 4.61 3.08 13.08 13.08 0 0 0 5.29.92 11.32 11.32 0 0 0 5.08-1.44 11.52 11.52 0 0 0 2.12-1.65 12 12 0 0 0 1.65-2.23.37.37 0 0 1 .51-.13.38.38 0 0 1 .2.38z" fill="#31323d"/><circle cx="92.66" cy="121.25" r="11.83" fill="#ef52d1"/><circle cx="92.32" cy="121.41" r="8.57" fill="#31323d"/><circle cx="97.14" cy="114.68" r="4.56" fill="#fff"/><circle cx="168" cy="118.49" r="11.84" fill="#ef52d1"/><circle cx="168.33" cy="118.65" r="8.57" fill="#31323d"/><circle cx="175.23" cy="111.93" r="4.56" fill="#fff"/></g></g></svg>