<?xml version="1.0" encoding="UTF-8"?>
<svg width="20px" height="16px" viewBox="0 0 20 16" version="1.1" xmlns="http://www.w3.org/2000/svg" xmlns:xlink="http://www.w3.org/1999/xlink">
    <!-- Generator: Sketch 61 (89581) - https://sketch.com -->
    <title>Group 10</title>
    <desc>Created with Sketch.</desc>
    <g id="Invision-6" stroke="none" stroke-width="1" fill="none" fill-rule="evenodd">
        <g id="Group-10" fill="#A2A5B5" fill-rule="nonzero">
            <path d="M10,16 C2.74490395,16 0,13.8650747 0,8 C0,2.1349253 2.74490395,0 10,0 C17.255096,0 20,2.1349253 20,8 C20,13.8650747 17.255096,16 10,16 Z M10,14 C16.244904,14 18,12.6349253 18,8 C18,3.3650747 16.244904,2 10,2 C3.75509605,2 2,3.3650747 2,8 C2,12.6349253 3.75509605,14 10,14 Z" id="Stroke-1"></path>
            <path d="M9.05391091,7.31472842 C7.99209057,6.66685164 6.93036891,5.92747057 5.94360534,5.11264019 C5.01825511,4.34852253 4.2073114,3.55641491 3.5428351,2.7459025 C3.19268794,2.31880132 2.56260368,2.25641775 2.1355025,2.6065649 C1.70840132,2.95671206 1.64601775,3.58679632 1.9961649,4.0138975 C2.74907424,4.93227843 3.65092772,5.81318422 4.67014171,6.65481087 C5.73640222,7.53528667 6.87434922,8.32775093 8.01219754,9.0220167 C8.41070641,9.26516955 8.78141676,9.47906455 9.11528122,9.66220778 C9.31865215,9.77376804 9.46678726,9.85137827 9.55060384,9.89348393 C9.83302153,10.0353578 10.1658853,10.0353728 10.4483158,9.8935243 C10.5321337,9.85142742 10.6802716,9.77383296 10.8836465,9.66229497 C11.217518,9.47918813 11.5882361,9.26533503 11.9867535,9.0222291 C13.1246271,8.3280967 14.2625998,7.5357799 15.3288854,6.65546153 C16.3485365,5.81364428 17.250726,4.93252207 18.0038351,4.0138975 C18.3539822,3.58679632 18.2915987,2.95671206 17.8644975,2.6065649 C17.4373963,2.25641775 16.8073121,2.31880132 16.4571649,2.7459025 C15.7925378,3.55659881 14.9813088,4.34888463 14.055575,5.11316435 C13.0687911,5.92784662 12.0070465,6.6670894 10.9452029,7.31484154 C10.6047491,7.52252714 10.2871482,7.70667928 9.99955185,7.86592224 C9.71195912,7.70664663 9.3943615,7.52245663 9.05391091,7.31472842 Z" id="Stroke-3"></path>
        </g>
    </g>
</svg>