<svg width="24" height="24" viewBox="0 0 24 24" fill="none" xmlns="http://www.w3.org/2000/svg">
	<path d="M12 0C18.6278 0 24 5.37225 24 12C24 18.6278 18.6278 24 12 24C5.37225 24 0 18.6278 0 12C0 5.37225 5.37225 0 12 0ZM8.81775 7.75725C8.74856 7.68562 8.66581 7.62848 8.5743 7.58917C8.4828 7.54987 8.38439 7.52918 8.2848 7.52831C8.18522 7.52745 8.08646 7.54642 7.99428 7.58413C7.90211 7.62184 7.81837 7.67753 7.74795 7.74795C7.67753 7.81837 7.62184 7.90211 7.58413 7.99428C7.54642 8.08646 7.52745 8.18522 7.52831 8.2848C7.52918 8.38439 7.54987 8.4828 7.58917 8.5743C7.62848 8.66581 7.68562 8.74856 7.75725 8.81775L10.9395 12L7.75725 15.1823C7.68562 15.2514 7.62848 15.3342 7.58917 15.4257C7.54987 15.5172 7.52918 15.6156 7.52831 15.7152C7.52745 15.8148 7.54642 15.9135 7.58413 16.0057C7.62184 16.0979 7.67753 16.1816 7.74795 16.252C7.81837 16.3225 7.90211 16.3782 7.99428 16.4159C8.08646 16.4536 8.18522 16.4726 8.2848 16.4717C8.38439 16.4708 8.4828 16.4501 8.5743 16.4108C8.66581 16.3715 8.74856 16.3144 8.81775 16.2428L12 13.0605L15.1823 16.2428C15.2514 16.3144 15.3342 16.3715 15.4257 16.4108C15.5172 16.4501 15.6156 16.4708 15.7152 16.4717C15.8148 16.4726 15.9135 16.4536 16.0057 16.4159C16.0979 16.3782 16.1816 16.3225 16.252 16.252C16.3225 16.1816 16.3782 16.0979 16.4159 16.0057C16.4536 15.9135 16.4726 15.8148 16.4717 15.7152C16.4708 15.6156 16.4501 15.5172 16.4108 15.4257C16.3715 15.3342 16.3144 15.2514 16.2428 15.1823L13.0605 12L16.2428 8.81775C16.3144 8.74856 16.3715 8.66581 16.4108 8.5743C16.4501 8.4828 16.4708 8.38439 16.4717 8.2848C16.4726 8.18522 16.4536 8.08646 16.4159 7.99428C16.3782 7.90211 16.3225 7.81837 16.252 7.74795C16.1816 7.67753 16.0979 7.62184 16.0057 7.58413C15.9135 7.54642 15.8148 7.52745 15.7152 7.52831C15.6156 7.52918 15.5172 7.54987 15.4257 7.58917C15.3342 7.62848 15.2514 7.68562 15.1823 7.75725L12 10.9395L8.81775 7.75725Z" fill="#FF4500" />
</svg>
