<svg width="14" height="8" viewBox="0 0 14 8" fill="none" xmlns="http://www.w3.org/2000/svg">
<path fill-rule="evenodd" clip-rule="evenodd" d="M6 0.666667C6 0.298477 6.29848 0 6.66667 0H12.6667C13.0349 0 13.3333 0.298477 13.3333 0.666667C13.3333 1.03486 13.0349 1.33333 12.6667 1.33333H6.66667C6.29848 1.33333 6 1.03486 6 0.666667Z" fill="#7F8FA4"/>
<path fill-rule="evenodd" clip-rule="evenodd" d="M8.6665 3.99998C8.6665 3.63179 8.96498 3.33331 9.33317 3.33331H12.6665C13.0347 3.33331 13.3332 3.63179 13.3332 3.99998C13.3332 4.36817 13.0347 4.66665 12.6665 4.66665H9.33317C8.96498 4.66665 8.6665 4.36817 8.6665 3.99998Z" fill="#7F8FA4"/>
<path fill-rule="evenodd" clip-rule="evenodd" d="M6 7.33335C6 6.96516 6.29848 6.66669 6.66667 6.66669H12.6667C13.0349 6.66669 13.3333 6.96516 13.3333 7.33335C13.3333 7.70154 13.0349 8.00002 12.6667 8.00002H6.66667C6.29848 8.00002 6 7.70154 6 7.33335Z" fill="#7F8FA4"/>
<path fill-rule="evenodd" clip-rule="evenodd" d="M0 3.99998C0 3.63179 0.298477 3.33331 0.666667 3.33331H6C6.36819 3.33331 6.66667 3.63179 6.66667 3.99998C6.66667 4.36817 6.36819 4.66665 6 4.66665H0.666667C0.298477 4.66665 0 4.36817 0 3.99998Z" fill="#7F8FA4"/>
<path fill-rule="evenodd" clip-rule="evenodd" d="M3.52876 1.52858C3.78911 1.26823 4.21122 1.26823 4.47157 1.52858L6.47157 3.52858C6.73192 3.78892 6.73192 4.21103 6.47157 4.47138L4.47157 6.47138C4.21122 6.73173 3.78911 6.73173 3.52876 6.47138C3.26841 6.21103 3.26841 5.78892 3.52876 5.52858L5.05735 3.99998L3.52876 2.47138C3.26841 2.21103 3.26841 1.78892 3.52876 1.52858Z" fill="#7F8FA4"/>
</svg>
