<?xml version="1.0" encoding="UTF-8"?>
<svg width="16px" height="18px" viewBox="0 0 16 18" version="1.1" xmlns="http://www.w3.org/2000/svg" xmlns:xlink="http://www.w3.org/1999/xlink">
    <!-- Generator: Sketch 61 (89581) - https://sketch.com -->
    <title>Icons / User</title>
    <desc>Created with Sketch.</desc>
    <g id="Invision-6" stroke="none" stroke-width="1" fill="none" fill-rule="evenodd">
        <g id="Sign-Up-with-email" transform="translate(-170.000000, -396.000000)">
            <g id="Icons-/-Lock" transform="translate(166.000000, 393.000000)">
                <rect id="Rectangle" fill="#000000" fill-rule="evenodd" opacity="0" x="0" y="0" width="24" height="24"></rect>
                <path d="M12,21 C5.66666667,21 4,19.75 4,15 C4,10.25 5.66666667,9 12,9 C18.3333333,9 20,10.25 20,15 C20,19.75 18.3333333,21 12,21 Z M12,19 C17.3333333,19 18,18.5 18,15 C18,11.5 17.3333333,11 12,11 C6.66666667,11 6,11.5 6,15 C6,18.5 6.66666667,19 12,19 Z" id="Stroke-1" fill="#A2A5B5" fill-rule="nonzero"></path>
                <path d="M9.01908018,10.2610267 C9.00520946,9.78248667 8.9995,9.5000587 8.9995,9.177 C8.9995,5.62894206 9.50859993,5 11.9995,5 C14.4904001,5 14.9995,5.62894206 14.9995,9.177 C14.9995,9.50954302 14.9935288,9.82601681 14.9809198,10.2610267 C14.9649183,10.8130796 15.3994738,11.2735787 15.9515267,11.2895802 C16.5035796,11.3055817 16.9640787,10.8710262 16.9800802,10.3189733 C16.9932009,9.86630751 16.9995,9.53245698 16.9995,9.177 C16.9995,4.60645794 15.6991455,3 11.9995,3 C8.29985449,3 6.9995,4.60645794 6.9995,9.177 C6.9995,9.52427463 7.00552773,9.82244652 7.01991982,10.3189733 C7.03592135,10.8710262 7.49642045,11.3055817 8.04847334,11.2895802 C8.60052623,11.2735787 9.03508172,10.8130796 9.01908018,10.2610267 Z" id="Stroke-3" fill="#A2A5B5" fill-rule="nonzero"></path>
                <path d="M11,14 L11,16 C11,16.5522847 11.4477153,17 12,17 C12.5522847,17 13,16.5522847 13,16 L13,14 C13,13.4477153 12.5522847,13 12,13 C11.4477153,13 11,13.4477153 11,14 Z" id="Stroke-5" fill="#A2A5B5" fill-rule="nonzero"></path>
            </g>
        </g>
    </g>
</svg>