<svg width="242" height="242" viewBox="0 0 242 242" fill="none" xmlns="http://www.w3.org/2000/svg">
<g filter="url(#filter0_d)">
<circle cx="121" cy="107" r="93" fill="#323136"/>
</g>
<path d="M117 199.5L85.5 146C105.5 113.2 152.167 109.333 173 111.5L204.5 148C182.5 193 135.333 202.166 117 199.5Z" fill="#5495F7" fill-opacity="0.1"/>
<g clip-path="url(#clip0)">
<path d="M145.848 67.726V144.378C145.848 145.904 144.649 147.103 143.123 147.103H121.326C119.8 147.103 118.602 145.904 118.602 144.378L85.9062 67.726C85.9062 66.1998 87.1047 65.0014 88.6309 65.0014H143.123C144.649 65.0014 145.848 66.1998 145.848 67.726Z" fill="#061A21"/>
<path d="M145.848 67.726V144.378C145.848 145.904 144.649 147.103 143.123 147.103H121.326C119.8 147.103 118.602 145.904 118.602 144.378L110.428 125.306V65.0014H143.123C144.649 65.0014 145.848 66.1998 145.848 67.726Z" fill="#03232E"/>
<path d="M122.525 81.6217L89.8293 65.274C89.0126 64.8923 87.9767 64.8923 87.2139 65.3833C86.3965 65.9275 85.9062 66.7995 85.9062 67.7262V144.379C85.9062 145.577 86.669 146.613 87.7588 146.939L110.428 154.514L120.454 157.838C121.257 158.159 122.285 157.977 122.906 157.511C123.615 156.966 124.051 156.149 124.051 155.277V84.0739C124.051 83.0386 123.451 82.112 122.525 81.6217Z" fill="#5495F7"/>
<path d="M124.051 84.0738V155.277C124.051 156.149 123.614 156.966 122.906 157.511C122.29 157.973 121.264 158.163 120.454 157.838L110.428 154.514V75.5729L122.525 81.6217C123.451 82.1119 124.051 83.0386 124.051 84.0738Z" fill="#0364FF"/>
<path d="M152.737 124.984C151.85 124.511 151.297 123.588 151.297 122.581V119.857H132.225C130.718 119.857 129.5 118.638 129.5 117.132V106.234C129.5 104.727 130.718 103.509 132.225 103.509H151.297V100.785C151.297 99.7784 151.85 98.8553 152.737 98.3814C153.62 97.911 154.698 97.9642 155.533 98.5176L171.88 109.416C172.639 109.921 173.094 110.773 173.094 111.683C173.094 112.593 172.639 113.444 171.88 113.949L155.533 124.848C154.688 125.412 153.61 125.453 152.737 124.984Z" fill="#5495F7"/>
<path d="M113.152 106.234V117.132C113.152 118.658 111.954 119.857 110.428 119.857C108.902 119.857 107.703 118.658 107.703 117.132V106.234C107.703 104.708 108.902 103.509 110.428 103.509C111.954 103.509 113.152 104.708 113.152 106.234Z" fill="#FFF5F5"/>
<path d="M113.152 106.234V117.132C113.152 118.658 111.954 119.857 110.428 119.857V103.509C111.954 103.509 113.152 104.708 113.152 106.234Z" fill="#EFE2DD"/>
</g>
<defs>
<filter id="filter0_d" x="0" y="0" width="242" height="242" filterUnits="userSpaceOnUse" color-interpolation-filters="sRGB">
<feFlood flood-opacity="0" result="BackgroundImageFix"/>
<feColorMatrix in="SourceAlpha" type="matrix" values="0 0 0 0 0 0 0 0 0 0 0 0 0 0 0 0 0 0 127 0"/>
<feOffset dy="14"/>
<feGaussianBlur stdDeviation="14"/>
<feColorMatrix type="matrix" values="0 0 0 0 0.360784 0 0 0 0 0.423529 0 0 0 0 0.498039 0 0 0 0.12 0"/>
<feBlend mode="normal" in2="BackgroundImageFix" result="effect1_dropShadow"/>
<feBlend mode="normal" in="SourceGraphic" in2="effect1_dropShadow" result="shape"/>
</filter>
<clipPath id="clip0">
<rect x="83" y="65" width="93" height="93" fill="white"/>
</clipPath>
</defs>
</svg>
