<?xml version="1.0" encoding="UTF-8"?>
<svg width="40px" height="40px" viewBox="0 0 40 40" version="1.1" xmlns="http://www.w3.org/2000/svg" xmlns:xlink="http://www.w3.org/1999/xlink">
    <!-- Generator: Sketch 60.1 (88133) - https://sketch.com -->
    <title>Group 4</title>
    <desc>Created with Sketch.</desc>
    <g id="Icons" stroke="none" stroke-width="1" fill="none" fill-rule="evenodd">
        <g id="More-Icons" transform="translate(-252.000000, -175.000000)">
            <g id="Group-4" transform="translate(252.000000, 175.000000)">
                <circle id="Oval-Copy-2" fill="#F6F5F7" cx="20" cy="20" r="20"></circle>
                <g id="Group-36" transform="translate(7.000000, 18.000000)">
                    <path d="M12.6109102,2.972439 C12.6067253,2.924064 12.6045878,2.8866465 12.6001103,2.8494765 C12.5632103,2.542509 12.3262177,2.262339 12.0539903,2.203299 C11.5741328,2.0992365 11.1721703,2.4162165 11.1419527,2.9224665 C11.1205328,3.2817465 11.3202428,3.6297315 11.6081078,3.734694 C12.1205002,3.921534 12.6377753,3.522384 12.6109102,2.972439 M12.6603203,4.128264 C12.4854278,4.229694 12.3231353,4.3557165 12.1393778,4.4242065 C11.6472578,4.6076265 11.0358203,4.390074 10.7062628,3.9387915 C10.2715178,3.3435315 10.3078103,2.482164 10.7868353,1.927359 C11.1964478,1.452924 12.0329753,1.277874 12.5728403,1.806444 C12.5825153,1.815939 12.5951603,1.822419 12.6235553,1.8422865 L12.6235553,1.7079165 C12.6235553,1.2355065 12.6233303,0.7630965 12.6237128,0.290664 C12.6238253,0.1580715 12.6401378,0.141534 12.7718078,0.140724 C12.9292853,0.1398015 13.0868303,0.1433115 13.2441953,0.139509 C13.3424528,0.137124 13.3863953,0.171234 13.3862382,0.276264 C13.3840778,1.6072965 13.3842803,2.9383065 13.3857878,4.269339 C13.3859228,4.370994 13.3439378,4.4118765 13.2442178,4.4094465 C13.1055728,4.406049 12.9666128,4.4043615 12.8281253,4.4099865 C12.7230053,4.4142615 12.6751478,4.369149 12.6710303,4.2673365 C12.6688253,4.2130665 12.6627728,4.158909 12.6603203,4.128264" id="Fill-4" fill="#000000"></path>
                    <path d="M3.52823625,2.93367825 C3.53230875,3.23922825 3.61614375,3.46283325 3.82732875,3.62679075 C4.14716625,3.87507825 4.62207375,3.80328075 4.86291375,3.47149575 C5.11732125,3.12101325 5.04104625,2.56951575 4.70386125,2.33337825 C4.46164875,2.16375075 4.19986125,2.14505325 3.93917625,2.27231325 C3.65099625,2.41298325 3.53705625,2.66829075 3.52823625,2.93367825 M4.28119875,1.48349434 C5.10046875,1.48697325 5.75625375,2.15486325 5.75526487,2.98477575 C5.75425125,3.81781575 5.08588875,4.49072325 4.26619125,4.48397325 C3.42480375,4.47708825 2.78625375,3.81401325 2.7910417,2.95221825 C2.79565875,2.13292575 3.45808125,1.48002075 4.28119875,1.48349434" id="Fill-6" fill="#000000"></path>
                    <path d="M18.973521,2.75822775 C18.959751,2.37703275 18.6577785,2.11369275 18.267111,2.13511275 C17.9167185,2.15430525 17.609481,2.45546775 17.6317335,2.75822775 L18.973521,2.75822775 Z M17.6304735,3.26443275 C17.6680485,3.50309025 17.7873435,3.66947775 17.9878185,3.76400025 C18.3348135,3.92762025 18.6794685,3.91092525 19.002861,3.69791775 C19.091781,3.63935025 19.1530485,3.63532275 19.2244185,3.71616525 C19.281321,3.78056025 19.3463685,3.83809275 19.410561,3.89558025 C19.479141,3.95700525 19.477746,4.00855275 19.408086,4.07164275 C18.970461,4.46811525 18.463716,4.57548525 17.903691,4.41679275 C17.2199385,4.22306775 16.7860935,3.55911525 16.863336,2.84874525 C16.937226,2.16890775 17.3412585,1.67489775 17.947431,1.52318025 C18.7670385,1.31807025 19.535796,1.83833775 19.6428735,2.67335775 C19.657566,2.78801775 19.664271,2.90497275 19.6606935,3.02044275 C19.6548435,3.20908275 19.592406,3.26411775 19.4042835,3.26425275 C18.8569035,3.26468025 18.309546,3.26441025 17.762166,3.26443275 L17.6304735,3.26443275 Z" id="Fill-8" fill="#000000"></path>
                    <path d="M8.10335025,1.95666525 C8.24390775,1.83935025 8.37146025,1.69508025 8.53019775,1.60703775 C9.15583275,1.26011025 9.88386525,1.63433025 10.0091452,2.35793025 C10.0307453,2.48271525 10.0383728,2.61116775 10.0392278,2.73804525 C10.0425803,3.23646525 10.0408927,3.73490775 10.0405778,4.23337275 C10.0404878,4.39103025 10.0266952,4.40403525 9.86501025,4.40441775 C9.71885025,4.40477775 9.57266775,4.40561025 9.42653025,4.40412525 C9.30370275,4.40291025 9.27584775,4.37471775 9.27564525,4.24991025 C9.27488025,3.80018025 9.27629775,3.35042775 9.27445275,2.90072025 C9.27409275,2.81119275 9.26968275,2.72067525 9.25568775,2.63243025 C9.17502525,2.12395275 8.63342775,2.08883025 8.35559775,2.32244775 C8.19123525,2.46068775 8.09561025,2.63121525 8.09966025,2.85880275 C8.10791775,3.32338275 8.10240525,3.78818775 8.10195525,4.25292525 C8.10182025,4.39215525 8.08575525,4.40786025 7.94670525,4.40846775 C7.79305275,4.40909775 7.63931025,4.40574525 7.48577025,4.40961525 C7.38213525,4.41222525 7.33612275,4.37287275 7.33639157,4.26489525 C7.33850775,3.40289775 7.33844025,2.54092275 7.33639157,1.67894775 C7.33619025,1.58415525 7.36863525,1.54106775 7.46655525,1.54322775 C7.63136775,1.54689525 7.79636025,1.54570275 7.96124025,1.54379025 C8.03947275,1.54286775 8.07884775,1.57441275 8.08226775,1.65516525 C8.08670025,1.75983525 8.09666775,1.86425775 8.10335025,1.95666525" id="Fill-10" fill="#000000"></path>
                    <path d="M23.3158883,2.16175725 C23.1832957,2.16175725 23.0677808,2.15961975 22.9523783,2.16245475 C22.8669907,2.16456975 22.8292358,2.12951475 22.8317783,2.04230475 C22.8354008,1.91871225 22.8355583,1.79484975 22.8317332,1.67127975 C22.8288533,1.57794975 22.8737633,1.54305225 22.9609058,1.54404225 C23.0728207,1.54534725 23.1847808,1.54435725 23.3158883,1.54435725 C23.3158883,1.37970225 23.3236058,1.22377725 23.3135483,1.06902225 C23.3048633,0.93498975 23.3575583,0.86118975 23.4804983,0.81454725 C23.6342633,0.75620475 23.7826958,0.68391225 23.9337158,0.61832475 C24.0448432,0.57003975 24.0745658,0.58806225 24.0754883,0.71115975 C24.0773333,0.96228225 24.0759383,1.21344975 24.0764783,1.46457225 C24.0765233,1.48626225 24.0806858,1.50792975 24.0844658,1.54408725 C24.2590432,1.54408725 24.4304933,1.54365975 24.6019208,1.54422225 C24.7665308,1.54476225 24.7739557,1.55243475 24.7742933,1.71414225 C24.7745182,1.81910475 24.7706483,1.92422475 24.7753958,2.02896225 C24.7797383,2.12490225 24.7424108,2.16522225 24.6445808,2.16301725 C24.4614533,2.15889975 24.2781683,2.16182475 24.0850733,2.16182475 C24.0816307,2.20133475 24.0765233,2.23339725 24.0764783,2.26548225 C24.0759158,2.65531725 24.0759383,3.04515225 24.0764333,3.43498725 C24.0764783,3.46855725 24.0777608,3.50266725 24.0837233,3.53560725 C24.1228508,3.75237225 24.2479283,3.82889475 24.4566158,3.75534225 C24.5404058,3.72582225 24.6205507,3.68199225 24.6963308,3.63494475 C24.7655633,3.59192475 24.8154233,3.58841475 24.8676908,3.65960475 C24.9519083,3.77433225 25.0427633,3.88415475 25.1299957,3.99667725 C25.1674133,4.04496225 25.1879108,4.09531725 25.1316833,4.14504225 C24.8075708,4.43171475 24.3036157,4.57310475 23.8959158,4.42172475 C23.5246433,4.28386725 23.3205683,3.98729475 23.3168557,3.57237225 C23.3130533,3.14883225 23.3159333,2.72524725 23.3158883,2.30168475 L23.3158883,2.16175725 Z" id="Fill-12" fill="#000000"></path>
                    <path d="M21.5115165,4.48512525 C20.6650665,4.47803775 20.0709315,3.92582025 19.987524,3.12356025 C19.909269,2.37089025 20.396034,1.67037525 21.127104,1.51589025 C21.6714915,1.40082525 22.139694,1.56579525 22.5250515,1.96701525 C22.5819315,2.02625775 22.5748665,2.07641025 22.518144,2.13038775 C22.417704,2.22596775 22.316364,2.32091775 22.221594,2.42196525 C22.1557365,2.49216525 22.0980015,2.49169275 22.0293765,2.43044775 C21.8956815,2.31113025 21.7470015,2.22230025 21.563739,2.20099275 C21.030534,2.13900525 20.634219,2.57883525 20.731059,3.12680025 C20.837484,3.72883275 21.4714665,3.97721025 21.9601665,3.60528525 C22.1596965,3.45343275 22.126554,3.44697525 22.312224,3.62416275 C22.3827165,3.69143775 22.4526915,3.75932025 22.5255015,3.82400775 C22.5962415,3.88682775 22.5980865,3.94395525 22.531779,4.01399775 C22.237974,4.32425025 21.878019,4.47950025 21.5115165,4.48512525" id="Fill-14" fill="#000000"></path>
                    <path d="M0.03530925,2.97591075 C0.02669175,2.36508075 0.38997675,1.81205325 0.94622175,1.58925825 C1.51162425,1.36281825 2.14628175,1.50643575 2.56439925,1.95186825 C2.63111175,2.02294575 2.62721925,2.07784575 2.55823425,2.14179075 C2.46202425,2.23093575 2.36617425,2.32102575 2.27741175,2.41739325 C2.20910175,2.49155325 2.14990425,2.49321825 2.07709425,2.42742825 C1.94992425,2.31254325 1.80689175,2.22751575 1.63280925,2.20319325 C1.15943175,2.13704325 0.77416425,2.46936825 0.77159925,2.95298325 C0.76984425,3.28031325 0.88400925,3.55632075 1.19273175,3.70126575 C1.50356925,3.84722325 1.79879175,3.78627075 2.06161425,3.56727825 C2.19409425,3.45691575 2.19425175,3.45673575 2.31865425,3.57420825 C2.40314175,3.65399325 2.48495175,3.73674825 2.57193675,3.81367575 C2.64677175,3.87987075 2.65104675,3.94017075 2.58048675,4.01266575 C2.23344675,4.36906575 1.81431675,4.52188575 1.31922675,4.46752575 C0.59101425,4.38756075 0.03625425,3.76010325 0.03530925,2.97591075" id="Fill-16" fill="#000000"></path>
                    <path d="M15.7445955,1.92635325 C15.8178555,1.83797325 15.8688405,1.76878575 15.927588,1.70693325 C16.1480655,1.47468825 16.5348405,1.41578325 16.795008,1.56810825 C16.883523,1.61992575 16.9150455,1.67829075 16.8665355,1.77875325 C16.813008,1.88965575 16.771473,2.00647575 16.7270805,2.12163075 C16.6969305,2.19986325 16.6536855,2.23023825 16.563438,2.20717575 C16.0900605,2.08628325 15.7508055,2.35061325 15.749658,2.83764825 C15.748533,3.30990075 15.7495905,3.78215325 15.749253,4.25438325 C15.7491405,4.39766325 15.7384305,4.40812575 15.5956455,4.40850825 C15.4382355,4.40893575 15.2807805,4.40641575 15.1234155,4.40936325 C15.0233805,4.41123075 14.9836905,4.36951575 14.983938,4.26792825 C14.9861655,3.40588575 14.9864805,2.54386575 14.9835754,1.68184575 C14.983218,1.57908825 15.019578,1.54007325 15.120918,1.54297575 C15.278193,1.54752075 15.4357155,1.54536075 15.5931255,1.54385325 C15.681483,1.54302075 15.7235805,1.58356575 15.7265055,1.67199075 C15.729093,1.74995325 15.737328,1.82771325 15.7445955,1.92635325" id="Fill-18" fill="#000000"></path>
                    <path d="M13.8035093,2.969847 C13.8035093,2.546397 13.8030368,2.1229245 13.8037567,1.6994745 C13.8040043,1.557702 13.8171218,1.545057 13.9572517,1.544337 C14.1183968,1.543482 14.2795867,1.5465645 14.4406418,1.5433245 C14.5304618,1.5415245 14.5708493,1.5776595 14.5707368,1.6686945 C14.5697693,2.5380945 14.5698143,3.4074945 14.5707819,4.2768945 C14.5708718,4.3727445 14.5273118,4.4112645 14.4331493,4.4094195 C14.2758292,4.406337 14.1183968,4.409127 13.9610093,4.408452 C13.8269318,4.4078895 13.8040943,4.386222 13.8038242,4.2514695 C13.8029693,3.824262 13.8035093,3.3970545 13.8035093,2.969847" id="Fill-20" fill="#000000"></path>
                    <path d="M6.16486725,2.9724165 C6.16486725,2.548809 6.16468725,2.125179 6.16495725,1.7015715 C6.16504725,1.553274 6.17368725,1.5447465 6.32547225,1.544229 C6.48668475,1.543689 6.64789725,1.545534 6.80906475,1.54385411 C6.89370975,1.543014 6.93002475,1.578924 6.92986776,1.6655715 C6.92840475,2.539044 6.92851725,3.4125615 6.92961975,4.286034 C6.92973225,4.3725465 6.88961475,4.4088615 6.80690475,4.4086365 C6.63819975,4.4081865 6.46947225,4.406364 6.30081225,4.4094015 C6.19884225,4.411224 6.16288725,4.3655265 6.16357482,4.2657615 C6.16659975,3.8346615 6.16486725,3.403539 6.16486725,2.9724165" id="Fill-22" fill="#000000"></path>
                    <path d="M26.289756,3.98957625 C26.2869885,4.22389125 26.0999685,4.40967375 25.8675435,4.40900058 C25.630146,4.40827875 25.4441385,4.21630875 25.448166,3.97609875 C25.451991,3.74617125 25.646346,3.55712625 25.875846,3.56016375 C26.105211,3.56322375 26.2924785,3.75751125 26.289756,3.98957625" id="Fill-24" fill="#000000"></path>
                    <path d="M6.53795325,0.99160425 C6.30816075,0.98894925 6.11936325,0.79578675 6.12156825,0.56558925 C6.12375075,0.33575175 6.31682325,0.14207175 6.54402825,0.141756425 C6.76938825,0.14146425 6.96619575,0.33845175 6.96781575,0.56594925 C6.96948075,0.79999425 6.77325825,0.99432675 6.53795325,0.99160425" id="Fill-26" fill="#000000"></path>
                    <path d="M14.1824273,0.991686658 C13.9500023,0.99046575 13.7637248,0.80301825 13.7629349,0.56960325 C13.7621498,0.33513075 13.9610048,0.13683825 14.1919223,0.14183325 C14.4214898,0.14680575 14.6054048,0.33945075 14.6041957,0.57365325 C14.6029748,0.80655075 14.4149648,0.99289575 14.1824273,0.991686658" id="Fill-28" fill="#000000"></path>
                    <path d="M12.6109103,2.972439 C12.6377753,3.522384 12.1205003,3.921534 11.6081078,3.734694 C11.3202428,3.6297315 11.1205328,3.2817465 11.1419528,2.9224665 C11.1721703,2.4162165 11.5741328,2.0992365 12.0539903,2.203299 C12.3262178,2.262339 12.5632103,2.542509 12.6001103,2.8494765 C12.6045878,2.8866465 12.6067253,2.924064 12.6109103,2.972439" id="Fill-30" fill="#FFFFFF"></path>
                    <path d="M3.52823625,2.93367825 C3.53705625,2.66829075 3.65099625,2.41298325 3.93917625,2.27231325 C4.19986125,2.14505325 4.46164875,2.16375075 4.70386125,2.33337825 C5.04104625,2.56951575 5.11732125,3.12101325 4.86291375,3.47149575 C4.62207375,3.80328075 4.14716625,3.87507825 3.82732875,3.62679075 C3.61614375,3.46283325 3.53230875,3.23922825 3.52823625,2.93367825" id="Fill-32" fill="#FFFFFF"></path>
                    <path d="M18.973521,2.75822775 C18.526131,2.75822775 18.0789435,2.75822775 17.631711,2.75809275 C17.609481,2.45546775 17.9167185,2.15430525 18.267111,2.13511275 C18.6577785,2.11369275 18.959751,2.37703275 18.973521,2.75822775" id="Fill-34" fill="#FFFFFF"></path>
                </g>
            </g>
        </g>
    </g>
</svg>