<svg width="84" height="24" viewBox="0 0 84 24" fill="none" xmlns="http://www.w3.org/2000/svg">
<path fill-rule="evenodd" clip-rule="evenodd" d="M53.7075 16.5183H51.4669L48.5438 13.2475H46.724V16.5183H44.8359V6.70605C45.6321 6.70605 46.4254 6.70884 47.2187 6.71162C48.0121 6.7144 48.8054 6.71718 49.6016 6.71718C51.9673 6.7283 53.207 8.27468 53.207 9.96567C53.207 11.3118 52.5815 12.669 50.6707 13.0473L53.7075 16.3959V16.5183ZM46.7314 8.44155V11.5788H49.609C50.8146 11.5788 51.3265 10.8 51.3265 10.0102C51.3265 9.23143 50.7919 8.44155 49.609 8.44155H46.7314ZM61.6366 9.62087H59.9647L59.8965 10.5554C59.487 9.86562 58.5885 9.43174 57.6444 9.43174C55.5858 9.42062 53.9707 10.6666 53.9707 13.0474C53.9707 15.4726 55.5175 16.7297 57.6103 16.7186C58.3951 16.7075 59.4984 16.3181 59.8965 15.506L59.9874 16.5184H61.6366V9.62087ZM55.7227 13.0696C55.7227 14.3824 56.6553 15.1723 57.8154 15.1723C60.5679 15.1723 60.5679 10.9893 57.8154 10.9893C56.6553 10.9781 55.7227 11.7458 55.7227 13.0696ZM67.8097 12.8248V16.5183V16.5294H69.5499V12.8359C69.5499 11.9237 70.1413 11.1227 71.0853 11.1227C72.0294 11.1227 72.4161 11.8903 72.4161 12.8025V16.5294H74.1676V12.8025C74.1676 10.7333 73.1781 9.53179 71.1763 9.53179C70.2551 9.53179 69.4361 9.80992 68.8106 10.7889C68.4125 9.83217 67.5595 9.49842 66.7178 9.49842C66.0354 9.49842 65.2278 9.75429 64.8525 10.4552L64.7274 9.60967H63.1123V16.5183H64.8639V12.8248C64.8639 11.9125 65.4212 11.0893 66.3652 11.0893C67.3206 11.0893 67.8097 11.9125 67.8097 12.8248ZM75.7988 19.4108V9.62077H77.4253L77.539 10.5775C78.085 9.8099 79.029 9.47615 79.8251 9.47615C81.9975 9.47615 83.442 11.0559 83.442 13.0918C83.442 15.1054 82.134 16.7074 79.882 16.7074C79.1427 16.7074 78.0395 16.4849 77.539 15.7284V19.4219H75.7988V19.4108ZM79.6961 11.1226C80.9586 11.1226 81.6979 12.0015 81.6979 13.0806C81.6979 14.1598 80.8904 15.0386 79.6961 15.0386C78.5132 15.0386 77.6943 14.1598 77.6943 13.0806C77.6943 12.0015 78.4336 11.1226 79.6961 11.1226Z" fill="#CBD0DF"/>
<path d="M12.2779 14.1232L17.6431 19.3711L13.3585 23.5619C12.7613 24.146 11.785 24.146 11.1878 23.5619L0.44789 13.057C-0.149297 12.4729 -0.149297 11.5179 0.44789 10.9337L11.1878 0.438092C11.785 -0.146031 12.7613 -0.146031 13.3585 0.438092L17.6431 4.62894L12.2779 9.87676C11.0835 11.045 11.0835 12.955 12.2779 14.1232Z" fill="#EEEFF5"/>
<path d="M24.0992 13.0566L18.734 18.3045L13.3688 13.0566C12.7716 12.4725 12.7716 11.5175 13.3688 10.9334L18.734 5.68555L24.0992 10.9334C24.6964 11.5268 24.6964 12.4725 24.0992 13.0566Z" fill="#EEEFF5"/>
<path d="M37.0113 13.057L26.2715 23.5619C25.6743 24.146 24.6979 24.146 24.1007 23.5619L19.8162 19.3711L25.1814 14.1232C26.3757 12.955 26.3757 11.0543 25.1814 9.87676L19.8162 4.62894L24.1007 0.438092C24.6979 -0.146031 25.6743 -0.146031 26.2715 0.438092L37.0113 10.943C37.6085 11.5271 37.6085 12.4729 37.0113 13.057Z" fill="#CBD0DF"/>
</svg>
