<svg width="152" height="153" viewBox="0 0 152 153" fill="none" xmlns="http://www.w3.org/2000/svg">
	<path d="M5.08323 64.8911C4.98396 64.8911 4.89233 64.83 4.82361 64.7156C4.59452 64.3188 3.80912 63.0979 3.39678 60.2594C1.66339 59.855 1.16594 59.1912 0.913955 58.9623C0.814686 58.8707 0.761234 58.7181 0.791778 58.5732C0.837595 58.329 0.617743 57.7251 3.53471 56.9697C4.38231 51.5293 4.97633 51.7593 5.17486 51.7059C5.19777 51.6982 5.22068 51.6982 5.23595 51.6982C5.33522 51.6982 5.42685 51.7593 5.49558 51.8737C5.73993 52.2934 6.25782 53.7955 6.70835 56.9697C9.61004 57.7251 9.48159 58.329 9.5274 58.5808C9.55031 58.7258 9.5045 58.8707 9.40523 58.9699C9.15324 59.1988 8.6144 59.855 6.85812 60.2594C6.07924 65.1046 5.35049 64.8376 5.14432 64.8987C5.12141 64.8911 5.0985 64.8911 5.08323 64.8911Z" fill="#FFBF19" />
	<path d="M132.349 69.2504C132.273 69.2504 132.197 69.2122 132.143 69.1359C131.968 68.8841 131.723 67.8922 131.395 66.0914C130.036 65.8396 129.28 65.6413 129.081 65.4963C129.005 65.4352 128.967 65.3437 128.982 65.2521C129.012 65.0995 129.051 64.9164 131.341 64.4433C132.006 61.002 132.265 60.9486 132.418 60.9105C132.433 60.9105 132.449 60.9028 132.472 60.9028C132.548 60.9028 132.624 60.941 132.678 61.0173C132.869 61.2843 133.143 62.4365 133.495 64.4433C135.77 64.9164 135.808 65.0995 135.839 65.2521C135.862 65.3437 135.824 65.4352 135.74 65.4963C135.541 65.6413 134.778 65.8396 133.403 66.0914C132.792 69.1512 132.563 69.2046 132.403 69.2351C132.38 69.2428 132.365 69.2504 132.349 69.2504Z" fill="#9D4492" />
	<path d="M54.7534 12.6614C54.6999 12.6614 54.6541 12.6385 54.6235 12.5927C54.509 12.4325 54.2151 11.9545 54.009 10.7947C53.1308 10.6268 52.7756 10.3342 52.6458 10.2426C52.5924 10.2045 52.5695 10.1434 52.5847 10.0824C52.6076 9.98318 52.5276 9.67869 54.009 9.36584C54.4366 7.14542 54.7075 7.29731 54.8068 7.27441C54.8144 7.27441 54.8297 7.27441 54.8374 7.27441C54.8908 7.27441 54.9366 7.29731 54.9672 7.34309C55.0893 7.51858 55.37 8.06869 55.599 9.36584C57.0652 9.67106 56.9907 9.97554 57.006 10.0747C57.0213 10.1358 56.9984 10.1968 56.9449 10.235C56.8151 10.3265 56.4925 10.5219 55.599 10.6898C55.202 12.6661 54.8908 12.6309 54.7839 12.6538C54.7763 12.6538 54.761 12.6614 54.7534 12.6614Z" fill="#9BEC7D" />
	<path d="M102.461 19.3938L104.362 17.4946L109.097 22.2264L107.196 24.1256L102.461 19.3938Z" fill="#9BEC7D" />
	<path d="M148.174 23.8601L146.496 25.3731L142.731 21.2039L144.409 19.6909L148.174 23.8601Z" fill="#FFBF19" />
	<path d="M44.9789 96.262L46.2047 98.1597L41.4826 101.205L40.2569 99.3075L44.9789 96.262Z" fill="#FFBF19" />
	<path d="M135.87 96.3863L137.828 97.5156L135.018 102.379L133.06 101.25L135.87 96.3863Z" fill="#FFBF19" />
	<path d="M12.1641 25.3978L10.2635 27.297L5.52815 22.5652L7.42875 20.6661L12.1641 25.3978Z" fill="#9D4492" />
	<path d="M114.881 40.8381L116.339 43.0948L110.712 46.7237L109.255 44.4671L114.881 40.8381Z" fill="#9D4492" />
	<path d="M0.416016 129.858L0.417023 127.171L7.11125 127.169L7.11025 129.855L0.416016 129.858Z" fill="#9BEC7D" />
	<path d="M24.3614 136.239L26.9878 136.804L25.5752 143.349L22.9488 142.784L24.3614 136.239Z" fill="#9D4492" />
	<path d="M138.355 120.598L140.604 122.066L136.94 127.67L134.691 126.202L138.355 120.598Z" fill="#9D4492" />
	<path d="M146.827 58.8732L145.119 56.7992L150.291 52.5472L151.999 54.6212L146.827 58.8732Z" fill="#9BEC7D" />
	<path d="M30.8093 30.8224L32.2212 32.3859L28.3322 35.8924L26.9204 34.3289L30.8093 30.8224Z" fill="#FF623A" />
	<path d="M4.86718 98.6892L5.64655 100.646L0.779628 102.582L0.000257854 100.625L4.86718 98.6892Z" fill="#F73200" />
	<path d="M77.7644 0.00197584L79.1762 1.56545L75.2873 5.07197L73.8755 3.5085L77.7644 0.00197584Z" fill="#FF623A" />
	<path d="M121.045 135.928L121.512 133.874L126.619 135.031L126.152 137.085L121.045 135.928Z" fill="#FF623A" />
	<g filter="url(#filter0_d)">
		<path d="M75 111C97.0914 111 115 93.0914 115 71C115 48.9086 97.0914 31 75 31C52.9086 31 35 48.9086 35 71C35 93.0914 52.9086 111 75 111Z" fill="white" />
		<path d="M75.0003 104.811C93.6736 104.811 108.811 89.6733 108.811 71.0001C108.811 52.3269 93.6736 37.1892 75.0003 37.1892C56.3271 37.1892 41.1895 52.3269 41.1895 71.0001C41.1895 89.6733 56.3271 104.811 75.0003 104.811Z" fill="#2468F6" />
	</g>
	<path d="M77.5813 73.2351H74.0283H72.9395V81.3726H74.0283H77.5813H78.6701V73.2351H77.5813Z" fill="#D7813C" />
	<path d="M88.3554 46.5302C88.2407 46.1291 87.8969 45.8425 87.4958 45.8425H64.1146C63.7135 45.8425 63.3697 46.1291 63.255 46.5302C62.2235 50.6563 60.1605 66.4729 74.4298 74.8397C74.831 75.0689 75.2894 75.1835 75.8052 75.1835C76.2636 75.1835 76.7221 75.0689 77.1806 74.8397C91.3926 66.4156 89.3869 50.599 88.3554 46.5302Z" fill="#FFD949" />
	<path d="M87.1502 89.3381H84.7434H66.921H64.5141L62.623 97.8768H65.4884H86.2906H89.156L87.1502 89.3381Z" fill="#C0845A" />
	<path d="M89.9581 96.9026H61.5914C61.0756 96.9026 60.6172 97.3037 60.6172 97.8768V99.7679C60.6172 100.284 61.0183 100.742 61.5914 100.742H89.9581C90.4739 100.742 90.9324 100.341 90.9324 99.7679V97.8768C90.9324 97.3037 90.4739 96.9026 89.9581 96.9026Z" fill="#8B5E3C" />
	<path d="M82.6802 84.1807C82.2218 83.6077 81.6487 83.2638 80.961 83.0919C80.0441 82.8627 79.2992 82.2896 78.898 81.43L78.6115 80.8569H72.9381L72.6516 81.43C72.2504 82.2323 71.5055 82.8627 70.5886 83.0919C69.2132 83.4357 68.1816 84.6965 68.1816 86.1291V86.5303H83.3106V86.1291C83.3679 85.4415 83.1387 84.7538 82.6802 84.1807Z" fill="#E59E40" />
	<path d="M62.7967 58.1061H61.1349C58.2695 58.1061 55.9199 55.7565 55.9199 52.8912C55.9199 50.0258 58.2695 47.6763 61.1349 47.6763H62.8541C63.3698 47.6763 63.8283 48.0774 63.8283 48.6505C63.8283 49.1662 63.4271 49.6247 62.8541 49.6247H61.1349C59.3011 49.6247 57.8111 51.1147 57.8111 52.9485C57.8111 54.7823 59.3011 56.2723 61.1349 56.2723H62.7967C63.3125 56.2723 63.771 56.6734 63.771 57.2465C63.7137 57.7049 63.3125 58.1061 62.7967 58.1061Z" fill="#D7813C" />
	<path d="M90.4746 58.1062H88.8127C88.297 58.1062 87.8385 57.705 87.8385 57.132C87.8385 56.6162 88.2397 56.1578 88.8127 56.1578H90.4746C92.3084 56.1578 93.7984 54.6678 93.7984 52.834C93.7984 51.0002 92.3084 49.5102 90.4746 49.5102H88.7554C88.2397 49.5102 87.7812 49.1091 87.7812 48.536C87.7812 48.0202 88.1824 47.5618 88.7554 47.5618H90.4746C93.34 47.5618 95.6895 49.9113 95.6895 52.7767C95.6322 55.8139 93.34 58.1062 90.4746 58.1062Z" fill="#D7813C" />
	<path d="M64.5723 84.0088C65.7757 82.9773 66.5207 81.5446 66.6926 79.9973C67.0937 77.877 66.6925 76.387 65.9476 75.4128C65.7756 75.1836 65.4319 75.069 65.1453 75.1836C63.9992 75.642 62.9676 76.7882 62.5092 78.9658C62.3372 79.6535 62.28 80.3412 62.3373 81.0288C61.5923 79.94 60.8473 78.7939 60.1596 77.6477C61.363 76.8454 62.2226 75.5847 62.5092 74.2093C63.0822 72.7194 62.9677 71.0575 62.3373 69.6248C62.2227 69.3383 61.8788 69.2237 61.5923 69.2237C60.5034 69.4529 59.4146 70.3698 58.7269 72.3755C58.555 72.9486 58.3831 73.579 58.3258 74.1521C57.7528 72.9486 57.237 71.6879 56.7212 70.4271C57.8673 69.8541 58.7843 68.8225 59.1854 67.5618C59.8731 66.1291 59.9877 64.5245 59.5293 63.0346C59.4719 62.748 59.1854 62.5188 58.8989 62.5188C57.8674 62.5188 56.8359 63.2065 55.9763 65.0403C55.747 65.4987 55.5751 66.0145 55.4605 66.5303C55.2886 65.8426 55.0593 65.1549 54.9447 64.5245L54.7155 63.6076C55.0593 61.7738 55.1166 59.8827 54.7155 58.0489C54.1997 54.7824 53.2828 52.0317 52.194 51.5732C51.1625 52.0317 50.3029 55.069 50.704 58.6793C50.9906 61.43 51.9648 63.6076 52.939 64.5245L53.0536 64.9257C53.2255 65.6707 53.3974 66.4157 53.6266 67.1606C53.2255 66.7595 52.8244 66.4157 52.4232 66.1291C50.8186 64.8684 49.5579 64.6392 48.641 65.1549C48.3545 65.3841 48.2399 65.7853 48.3545 66.1291C48.641 67.9629 49.6725 69.6248 51.2771 70.6563C52.8244 71.6306 54.0851 71.6879 55.002 71.2294C55.5178 72.5475 56.0335 73.8655 56.6639 75.1263C56.1482 74.7824 55.5751 74.4959 55.0593 74.2093C53.1109 73.3497 51.7356 73.3498 50.8187 74.0947C50.5895 74.3813 50.5321 74.7824 50.6467 75.1263C51.2771 76.9028 52.6524 78.3354 54.429 79.0231C55.747 79.6535 57.2943 79.5389 58.5551 78.7366C59.2427 79.94 60.045 81.1434 60.79 82.2896C60.1596 82.003 59.4719 81.8311 58.7842 81.6592C56.6066 81.2007 55.174 81.4873 54.2571 82.4042C54.0278 82.6907 54.0278 83.1492 54.1997 83.4357C55.1166 85.1549 56.8358 86.301 58.7269 86.5876C60.2742 86.9887 61.9361 86.5303 63.0822 85.3841C63.598 86.0145 64.1138 86.6449 64.6868 87.2753L65.3172 87.9629L66.6926 86.7022L66.0622 86.0145C65.5465 85.2122 65.088 84.6391 64.5723 84.0088Z" fill="url(#paint0_linear)" />
	<path d="M87.0366 84.0088C85.8332 82.9773 85.0882 81.5446 84.9163 79.9973C84.5152 77.877 84.9163 76.387 85.6613 75.4128C85.8332 75.1836 86.177 75.069 86.4636 75.1836C87.6097 75.642 88.6412 76.7882 89.0997 78.9658C89.2716 79.6535 89.3289 80.3412 89.2716 81.0288C90.0166 79.94 90.7615 78.7939 91.4492 77.6477C90.2458 76.8454 89.3862 75.5847 89.0997 74.2093C88.5266 72.7194 88.6412 71.0575 89.2716 69.6248C89.3862 69.3383 89.73 69.2237 90.0165 69.2237C91.1054 69.4529 92.1942 70.3698 92.8819 72.3755C93.0538 72.9486 93.2258 73.579 93.2831 74.1521C93.8561 72.9486 94.3718 71.6879 94.8876 70.4271C93.7415 69.8541 92.8246 68.8225 92.4235 67.5618C91.7358 66.1291 91.6212 64.5245 92.0796 63.0346C92.1369 62.748 92.4235 62.5188 92.71 62.5188C93.7415 62.5188 94.773 63.2065 95.6326 65.0403C95.8618 65.4987 96.0338 66.0145 96.1484 66.5303C96.3203 65.8426 96.5496 65.1549 96.6642 64.5245L96.8933 63.6076C96.5495 61.7738 96.4922 59.8827 96.8933 58.0489C97.4091 54.7824 98.326 52.0317 99.4148 51.5732C100.446 52.0317 101.306 55.069 100.905 58.6793C100.618 61.43 99.6441 63.6076 98.6699 64.5245L98.5552 64.9257C98.3833 65.6707 98.2114 66.4157 97.9822 67.1606C98.3833 66.7595 98.7845 66.4157 99.1856 66.1291C100.79 64.8684 102.051 64.6392 102.968 65.1549C103.254 65.3841 103.369 65.7853 103.254 66.1291C102.968 67.9629 101.936 69.6248 100.332 70.6563C98.7845 71.6306 97.5237 71.6879 96.6068 71.2294C96.091 72.5475 95.5753 73.8655 94.945 75.1263C95.4607 74.7824 96.0337 74.4959 96.5495 74.2093C98.4979 73.3497 99.8733 73.3498 100.79 74.0947C101.019 74.3813 101.077 74.7824 100.962 75.1263C100.332 76.9028 98.9564 78.3354 97.1799 79.0231C95.8618 79.6535 94.3146 79.5389 93.0538 78.7366C92.3661 79.94 91.5638 81.1434 90.8188 82.2896C91.4492 82.003 92.1369 81.8311 92.8246 81.6592C95.0022 81.2007 96.4349 81.4873 97.3518 82.4042C97.581 82.6907 97.581 83.1492 97.4091 83.4357C96.4922 85.1549 94.773 86.301 92.8819 86.5876C91.3346 86.9887 89.6727 86.5303 88.5266 85.3841C88.0108 86.0145 87.4951 86.6449 86.922 87.2753L86.2916 87.9629L84.9163 86.7022L85.5467 86.0145C86.0051 85.2122 86.5209 84.6391 87.0366 84.0088Z" fill="url(#paint1_linear)" />
	<path d="M87.15 86.5303H64.4566C63.9408 86.5303 63.4824 86.9314 63.4824 87.5045V89.3956C63.4824 89.9114 63.8835 90.3698 64.4566 90.3698H87.15C87.6658 90.3698 88.1243 89.9687 88.1243 89.3956V87.5045C88.0669 86.9314 87.6658 86.5303 87.15 86.5303Z" fill="#8B5E3C" />
	<defs>
		<filter id="filter0_d" x="7" y="17" width="136" height="136" filterUnits="userSpaceOnUse" color-interpolation-filters="sRGB">
			<feFlood flood-opacity="0" result="BackgroundImageFix" />
			<feColorMatrix in="SourceAlpha" type="matrix" values="0 0 0 0 0 0 0 0 0 0 0 0 0 0 0 0 0 0 127 0" />
			<feOffset dy="14" />
			<feGaussianBlur stdDeviation="14" />
			<feColorMatrix type="matrix" values="0 0 0 0 0.180392 0 0 0 0 0.356863 0 0 0 0 1 0 0 0 0.08 0" />
			<feBlend mode="normal" in2="BackgroundImageFix" result="effect1_dropShadow" />
			<feBlend mode="normal" in="SourceGraphic" in2="effect1_dropShadow" result="shape" />
		</filter>
		<linearGradient id="paint0_linear" x1="48.3546" y1="69.6735" x2="66.8244" y2="69.6735" gradientUnits="userSpaceOnUse">
			<stop stop-color="#81D79D" />
			<stop offset="1" stop-color="#459A77" />
		</linearGradient>
		<linearGradient id="paint1_linear" x1="84.7619" y1="69.6735" x2="103.232" y2="69.6735" gradientUnits="userSpaceOnUse">
			<stop stop-color="#81D79D" />
			<stop offset="1" stop-color="#459A77" />
		</linearGradient>
	</defs>
</svg>
