<svg width="152" height="153" viewBox="0 0 152 153" fill="none" xmlns="http://www.w3.org/2000/svg">
	<g filter="url(#filter0_d)">
		<path d="M76 111C98.0914 111 116 93.0914 116 71C116 48.9086 98.0914 31 76 31C53.9086 31 36 48.9086 36 71C36 93.0914 53.9086 111 76 111Z" fill="white" />
		<path d="M76.0003 104.811C94.6736 104.811 109.811 89.6733 109.811 71.0001C109.811 52.3269 94.6736 37.1892 76.0003 37.1892C57.3271 37.1892 42.1895 52.3269 42.1895 71.0001C42.1895 89.6733 57.3271 104.811 76.0003 104.811Z" fill="#2468F6" />
	</g>
	<path d="M97.6622 88.2492C97.1465 89.7391 96.4015 91.1145 95.4846 92.4326C90.6708 99.252 82.2468 101.716 74.8542 99.5386C71.8743 98.679 69.1235 97.0744 66.774 94.7248L59.6106 87.6188L58.8084 86.8738L54.0519 82.3466C53.2496 82.3466 52.4473 82.1174 51.8169 81.7162C50.6135 80.9712 49.7539 79.5959 49.7539 78.0486C49.7539 76.5013 50.5562 75.126 51.8169 74.381C52.4473 73.9798 53.2496 73.7506 54.0519 73.7506C53.2496 73.7506 52.4473 73.5214 51.8169 73.1202C50.6135 72.3752 49.7539 70.9999 49.7539 69.4526C49.7539 67.9053 50.5562 66.53 51.8169 65.785C52.4473 65.3838 53.2496 65.1546 54.0519 65.1546V60.1116C53.2496 60.1116 52.4473 59.8824 51.8169 59.4813C50.6135 58.7363 49.7539 57.3609 49.7539 55.8136C49.7539 54.2663 50.5562 52.891 51.8169 52.146C52.4473 51.7449 53.2496 51.5156 54.0519 51.5156L81.5591 64.8681L82.6479 65.3838L83.8513 65.9569C83.9659 64.8681 84.1379 63.7792 84.3671 62.7477C84.7109 61.3151 85.6852 60.2262 86.8886 59.6532C87.8628 59.1947 89.0089 59.0228 90.0978 59.3093C92.6193 59.9397 94.1665 62.5185 93.5362 65.04C92.8485 67.9053 93.2496 70.828 94.7969 73.3494C94.8542 73.2348 100.184 81.0858 97.6622 88.2492Z" fill="#F9DCC2" />
	<path d="M74.7952 99.5385C71.8152 98.6789 69.0645 97.0744 66.7149 94.7248L59.6089 87.6188L58.8066 86.8738L71.1276 89.3953C63.6204 89.3953 69.6376 96.3294 74.7952 99.5385Z" fill="#F2BC93" />
	<path d="M87.4044 79.1947C87.1752 79.3094 87.0033 79.3667 86.774 79.3667C86.3729 79.3667 85.9144 79.1374 85.6852 78.7363C83.3356 74.7821 82.2468 70.3122 82.648 65.785C82.648 65.6704 82.648 65.4985 82.648 65.2692L83.8514 65.8423C83.966 64.7535 84.1379 63.6647 84.3672 62.6331C84.711 61.2005 85.6852 60.1116 86.8887 59.5386C85.1695 62.8624 85.1122 65.8423 85.1122 65.8996V66.0142C85.1122 66.1862 85.1121 66.3581 85.0548 66.53C84.8829 69.7392 85.456 72.891 86.8313 75.8137C87.1179 76.3867 87.4044 76.9598 87.7483 77.5329C88.1494 78.0486 87.9775 78.8509 87.4044 79.1947Z" fill="#F2BC93" />
	<path d="M81.6152 64.8108V85.6131C81.6152 87.7335 79.6094 89.4527 77.088 89.4527H61.3859L59.6094 87.6762L54.108 82.404C53.3057 82.404 52.5034 82.1747 51.873 81.7736L51.9304 81.7163C53.5349 79.5386 53.5349 76.616 51.873 74.4383C52.5034 74.0372 53.3057 73.808 54.108 73.808C53.3057 73.808 52.5034 73.5787 51.873 73.1776L52.1596 72.8337C53.5922 70.9999 53.7069 68.4211 52.3315 66.53L51.873 65.8423C52.5034 65.4412 53.3057 65.212 54.108 65.212V60.169C53.3057 60.169 52.5034 59.9398 51.873 59.5386L52.618 58.2779C53.5349 56.7306 53.5349 54.7822 52.5034 53.2349L51.873 52.2034C52.5034 51.8022 53.3057 51.573 54.108 51.573L81.6152 64.8108Z" fill="#F2BC93" />
	<path d="M54.1094 60.5128V49.7392C54.1094 47.6189 56.1151 45.8997 58.6366 45.8997H79.3816C81.8458 45.8997 83.9088 47.6189 83.9088 49.7392V85.5558C83.9088 87.6762 81.9031 89.3954 79.3816 89.3954H58.6366C56.1724 89.3954 54.1094 87.6762 54.1094 85.5558V83.1489C54.1094 83.2063 54.1094 60.5128 54.1094 60.5128Z" fill="#394263" />
	<path d="M81.616 52.5471H56.3438V82.805H81.616V52.5471Z" fill="#F1F1F6" />
	<path d="M106.373 87.1604C103.565 93.2922 98.9232 98.3925 93.0779 101.716C90.0407 103.493 86.6596 104.753 83.0493 105.384L78.8086 101.143L99.5536 80.3982L106.373 87.1604Z" fill="#72A2E0" />
	<path d="M72.8473 50.656H65.1682C64.5952 50.656 64.1367 50.1976 64.1367 49.6245C64.1367 49.0515 64.5952 48.593 65.1682 48.593H72.8473C73.4204 48.593 73.8788 49.0515 73.8788 49.6245C73.8215 50.2549 73.3631 50.656 72.8473 50.656Z" fill="#4C5C8F" />
	<path d="M68.9517 88.02C69.9961 88.02 70.8428 87.1734 70.8428 86.1289C70.8428 85.0845 69.9961 84.2378 68.9517 84.2378C67.9072 84.2378 67.0605 85.0845 67.0605 86.1289C67.0605 87.1734 67.9072 88.02 68.9517 88.02Z" fill="#4C5C8F" />
	<path d="M93.0779 101.659C90.0407 103.435 86.6596 104.696 83.0493 105.327L78.8086 101.086L85.6281 94.2664L93.0779 101.659Z" fill="#3879C8" />
	<path d="M63.1059 60.0542H61.3867V61.7734H63.1059V60.0542Z" fill="#4C5C8F" />
	<path d="M63.1059 73.5212H61.3867V75.2404H63.1059V73.5212Z" fill="#4C5C8F" />
	<path d="M71.7012 56.9597V64.9253H79.6668V56.9597H71.7012ZM77.7184 62.9769H73.6496V58.9082H77.7184V62.9769Z" fill="#4C5C8F" />
	<path d="M76.5727 60.0542H74.8535V61.7734H76.5727V60.0542Z" fill="#4C5C8F" />
	<path d="M69.8103 70.1975V68.5356H68.1484V70.1975V71.9167H69.8103V71.974V73.6359H71.5295V71.974V70.2548H69.8103V70.1975Z" fill="#4C5C8F" />
	<path d="M76.2852 66.3579V68.0198H78.0044H79.7236V66.3579H78.0044H76.2852Z" fill="#4C5C8F" />
	<path d="M69.8676 73.6934H68.1484V75.4126H69.8676V73.6934Z" fill="#4C5C8F" />
	<path d="M68.1489 66.8164H66.4297V68.5356H68.1489V66.8164Z" fill="#4C5C8F" />
	<path d="M79.6665 70.0256H77.9473V71.7448H79.6665V70.0256Z" fill="#4C5C8F" />
	<path d="M79.6665 71.6875H77.9473V73.4067H79.6665V71.6875Z" fill="#4C5C8F" />
	<path d="M72.9047 75.0112H71.1855V76.7304H72.9047V75.0112Z" fill="#4C5C8F" />
	<path d="M72.9047 76.6731H71.1855V78.3923H72.9047V76.6731Z" fill="#4C5C8F" />
	<path d="M77.9482 73.292H76.229H74.5098V75.0112V76.7304V78.4496H76.229H77.9482H79.6674V76.7304V75.0112V73.292H77.9482ZM77.9482 76.6731H76.229V74.9539H77.9482V76.6731Z" fill="#4C5C8F" />
	<path d="M73.9358 66.53H72.2166H70.5547V68.1919H72.2166V69.9111H73.9358V71.6303H75.655V69.9111V68.1919H73.9358V66.53Z" fill="#4C5C8F" />
	<path d="M62.1879 66.8165V68.5357H63.9071V66.8165V64.9253H66.2566V56.9597H58.291V64.9253H62.1879V66.8165ZM60.2394 58.9082H64.3082V62.9769H60.2394V58.9082Z" fill="#4C5C8F" />
	<path d="M59.9536 66.8164H58.2344V70.4267V71.1717V78.4496H66.2V70.484H59.8963C59.9536 70.4267 59.9536 66.8164 59.9536 66.8164ZM60.2401 72.3752H64.3089V76.4439H60.2401V72.3752Z" fill="#4C5C8F" />
	<path d="M69.8103 63.4926V61.7734V60.0542H68.1484V61.7734V63.4926V65.1545H69.8103V63.4926Z" fill="#4C5C8F" />
	<path d="M5.08323 59.4652C4.98396 59.4652 4.89233 59.4093 4.82361 59.3044C4.59452 58.9408 3.80912 57.8219 3.39678 55.2208C1.66339 54.8502 1.16594 54.2419 0.913955 54.0322C0.814686 53.9483 0.761234 53.8084 0.791778 53.6756C0.837595 53.4518 0.617743 52.8984 3.53471 52.2062C4.38231 47.2207 4.97633 47.4314 5.17486 47.3825C5.19777 47.3755 5.22068 47.3755 5.23595 47.3755C5.33522 47.3755 5.42685 47.4314 5.49558 47.5363C5.73993 47.9209 6.25782 49.2974 6.70835 52.2062C9.61004 52.8984 9.48159 53.4518 9.5274 53.6826C9.55031 53.8154 9.5045 53.9483 9.40523 54.0392C9.15324 54.2489 8.6144 54.8502 6.85812 55.2208C6.07924 59.6609 5.35049 59.4162 5.14432 59.4722C5.12141 59.4652 5.0985 59.4652 5.08323 59.4652Z" fill="#FFBF19" />
	<path d="M132.349 63.4599C132.273 63.4599 132.197 63.4249 132.143 63.355C131.968 63.1243 131.723 62.2153 131.395 60.5651C130.036 60.3343 129.28 60.1525 129.081 60.0197C129.005 59.9637 128.967 59.8798 128.982 59.7959C129.012 59.6561 129.051 59.4883 131.341 59.0547C132.006 55.9012 132.265 55.8523 132.418 55.8173C132.433 55.8173 132.449 55.8103 132.472 55.8103C132.548 55.8103 132.624 55.8453 132.678 55.9152C132.869 56.1599 133.143 57.2158 133.495 59.0547C135.77 59.4883 135.808 59.6561 135.839 59.7959C135.862 59.8798 135.824 59.9637 135.74 60.0197C135.541 60.1525 134.778 60.3343 133.403 60.5651C132.792 63.369 132.563 63.4179 132.403 63.4459C132.38 63.4529 132.365 63.4599 132.349 63.4599Z" fill="#9D4492" />
	<path d="M54.7534 11.6027C54.6999 11.6027 54.6541 11.5817 54.6235 11.5398C54.509 11.3929 54.2151 10.9549 54.009 9.89209C53.1308 9.73826 52.7756 9.47005 52.6458 9.38615C52.5924 9.35119 52.5695 9.29525 52.5847 9.23931C52.6076 9.14841 52.5276 8.86938 54.009 8.58269C54.4366 6.54793 54.7075 6.68711 54.8068 6.66614C54.8144 6.66614 54.8297 6.66614 54.8374 6.66614C54.8908 6.66614 54.9366 6.68711 54.9672 6.72907C55.0893 6.88989 55.37 7.394 55.599 8.58269C57.0652 8.86239 56.9907 9.14142 57.006 9.23232C57.0213 9.28825 56.9984 9.34419 56.9449 9.37915C56.8151 9.46306 56.4925 9.64213 55.599 9.79596C55.202 11.607 54.8908 11.5747 54.7839 11.5957C54.7763 11.5957 54.761 11.6027 54.7534 11.6027Z" fill="#9BEC7D" />
	<path d="M102.461 17.7722L104.362 16.0318L109.097 20.368L107.196 22.1083L102.461 17.7722Z" fill="#9BEC7D" />
	<path d="M148.174 21.865L146.496 23.2515L142.731 19.4309L144.409 18.0443L148.174 21.865Z" fill="#FFBF19" />
	<path d="M44.9789 88.213L46.2047 89.952L41.4826 92.7429L40.2569 91.0039L44.9789 88.213Z" fill="#FFBF19" />
	<path d="M135.87 88.3271L137.828 89.362L135.018 93.8187L133.06 92.7838L135.87 88.3271Z" fill="#FFBF19" />
	<path d="M12.1641 23.2742L10.2635 25.0146L5.52815 20.6784L7.42875 18.9381L12.1641 23.2742Z" fill="#9D4492" />
	<path d="M114.881 37.4234L116.339 39.4913L110.712 42.8169L109.255 40.7489L114.881 37.4234Z" fill="#9D4492" />
	<path d="M0.416016 119L0.417023 116.538L7.11125 116.536L7.11025 118.998L0.416016 119Z" fill="#9BEC7D" />
	<path d="M138.355 110.514L140.604 111.86L136.94 116.995L134.691 115.649L138.355 110.514Z" fill="#9D4492" />
	<path d="M146.827 53.9506L145.119 52.05L150.291 48.1535L151.999 50.0541L146.827 53.9506Z" fill="#9BEC7D" />
	<path d="M30.8093 28.2452L32.2212 29.678L28.3322 32.8913L26.9204 31.4585L30.8093 28.2452Z" fill="#FF623A" />
	<path d="M4.86718 90.4374L5.64655 92.2304L0.779628 94.0042L0.000257677 92.2112L4.86718 90.4374Z" fill="#F73200" />
	<path d="M77.7644 0.00181063L79.1762 1.43455L75.2873 4.64788L73.8755 3.21514L77.7644 0.00181063Z" fill="#FF623A" />
	<defs>
		<filter id="filter0_d" x="8" y="17" width="136" height="136" filterUnits="userSpaceOnUse" color-interpolation-filters="sRGB">
			<feFlood flood-opacity="0" result="BackgroundImageFix" />
			<feColorMatrix in="SourceAlpha" type="matrix" values="0 0 0 0 0 0 0 0 0 0 0 0 0 0 0 0 0 0 127 0" />
			<feOffset dy="14" />
			<feGaussianBlur stdDeviation="14" />
			<feColorMatrix type="matrix" values="0 0 0 0 0.180392 0 0 0 0 0.356863 0 0 0 0 1 0 0 0 0.08 0" />
			<feBlend mode="normal" in2="BackgroundImageFix" result="effect1_dropShadow" />
			<feBlend mode="normal" in="SourceGraphic" in2="effect1_dropShadow" result="shape" />
		</filter>
	</defs>
</svg>
