<svg width="461" height="50" viewBox="0 0 461 50" fill="none" xmlns="http://www.w3.org/2000/svg">
<g clip-path="url(#clip0)">
<path d="M84.4465 27.9996C84.4882 31.0809 83.9874 34.1452 82.9674 37.0502C82.0601 39.6247 80.6433 41.9866 78.803 43.9924C76.9931 45.9186 74.7963 47.4333 72.3593 48.4352C67.035 50.5209 61.129 50.5209 55.8047 48.4352C53.3721 47.4316 51.1796 45.9171 49.3731 43.9924C47.5328 41.9866 46.116 39.6247 45.2087 37.0502C44.1887 34.1452 43.6879 31.0809 43.7296 27.9996C43.6895 24.9284 44.1903 21.8744 45.2087 18.9796C46.116 16.405 47.5328 14.0432 49.3731 12.0374C51.1822 10.1128 53.3738 8.59475 55.8047 7.58238C58.4275 6.50074 61.2394 5.96246 64.0729 5.9996C66.9105 5.96373 69.7269 6.49547 72.3593 7.56405C74.7997 8.56808 76.9973 10.0895 78.803 12.0252C80.6421 14.0365 82.0587 16.4021 82.9674 18.9796C83.9859 21.8744 84.4867 24.9284 84.4465 27.9996V27.9996ZM81.2277 27.9996C81.2749 25.2512 80.8651 22.5143 80.0153 19.9024C79.2728 17.655 78.0803 15.5854 76.5116 13.8218C74.9979 12.155 73.134 10.8501 71.0561 10.0024C66.5727 8.24218 61.5974 8.24218 57.114 10.0024C55.0388 10.8553 53.176 12.1595 51.6584 13.8218C50.0766 15.5926 48.8736 17.6728 48.1244 19.9329C47.2605 22.5319 46.8363 25.2588 46.8696 27.9996C46.8282 30.7545 47.2504 33.4965 48.1183 36.109C48.8728 38.354 50.0755 40.4192 51.6523 42.1774C53.1672 43.8399 55.031 45.1406 57.1079 45.9846C61.5958 47.7207 66.5622 47.7207 71.05 45.9846C73.1297 45.1458 74.9946 43.8444 76.5056 42.1774C78.075 40.418 79.2695 38.3526 80.0153 36.109C80.8679 33.4936 81.2777 30.7522 81.2277 27.9996Z" fill="white"/>
<path d="M120.283 50.0002H117.598C117.296 50.0105 116.995 49.952 116.719 49.8291C116.449 49.6871 116.221 49.4764 116.058 49.218L102.055 31.3675C101.904 31.1491 101.733 30.9446 101.546 30.7564C101.369 30.5916 101.164 30.4611 100.94 30.3714C100.695 30.2654 100.435 30.1974 100.17 30.1697C99.8063 30.1216 99.4397 30.0991 99.0729 30.1025H93.3506V50.0002H90.1742V6.00024H101.34C106.355 6.00024 110.113 6.98006 112.615 8.93969C115.116 10.8993 116.373 13.7756 116.385 17.5686C116.404 19.1454 116.109 20.7101 115.518 22.1702C114.953 23.5524 114.109 24.801 113.039 25.8369C111.897 26.9222 110.571 27.7915 109.123 28.4036C107.472 29.0956 105.731 29.5442 103.953 29.7358C104.466 30.0574 104.916 30.4717 105.28 30.958L120.283 50.0002ZM100.885 27.7375C102.642 27.7628 104.392 27.526 106.08 27.0347C107.494 26.6324 108.815 25.9511 109.966 25.0302C111.005 24.1872 111.835 23.1118 112.391 21.8891C112.96 20.5864 113.243 19.1752 113.221 17.7519C113.221 14.623 112.211 12.3028 110.19 10.7914C108.17 9.27987 105.222 8.5221 101.346 8.51802H93.3506V27.7375H100.885Z" fill="white"/>
<path d="M141.724 47.2319C143.638 47.2672 145.538 46.8966 147.301 46.1441C148.887 45.4499 150.306 44.418 151.459 43.1191C152.622 41.7882 153.508 40.236 154.066 38.5541C154.673 36.7289 154.972 34.814 154.951 32.8891V6.00024H158.061V32.8891C158.08 35.1793 157.699 37.455 156.933 39.6114C156.22 41.6242 155.115 43.4733 153.684 45.0502C152.246 46.6263 150.491 47.8761 148.537 48.7169C144.163 50.4772 139.285 50.4772 134.911 48.7169C132.956 47.8778 131.201 46.6277 129.764 45.0502C128.331 43.4749 127.226 41.6254 126.515 39.6114C125.75 37.455 125.368 35.1793 125.388 32.8891V6.00024H128.509V32.8525C128.492 34.7801 128.795 36.6971 129.407 38.5236C129.965 40.2027 130.846 41.754 132.001 43.0886C133.144 44.3982 134.557 45.4409 136.141 46.1441C137.904 46.9031 139.808 47.274 141.724 47.2319V47.2319Z" fill="white"/>
<path d="M188.073 11.7136C188.007 11.868 187.898 11.9996 187.759 12.0919C187.62 12.1843 187.457 12.2334 187.291 12.2331C186.899 12.1674 186.542 11.9691 186.278 11.6709C185.752 11.2214 185.193 10.8129 184.605 10.4486C183.775 9.92775 182.888 9.50532 181.962 9.18974C179.357 8.37936 176.566 8.4007 173.973 9.25085C172.873 9.65163 171.866 10.2756 171.015 11.0842C170.228 11.8371 169.608 12.7493 169.196 13.7609C168.789 14.7738 168.583 15.8577 168.59 16.9509C168.538 18.221 168.857 19.4786 169.505 20.5686C170.137 21.5442 170.962 22.3766 171.93 23.0131C173.001 23.7115 174.15 24.2778 175.355 24.6997C176.628 25.152 177.943 25.6042 179.289 26.0503C180.635 26.4964 181.95 26.9914 183.223 27.5231C184.452 28.034 185.605 28.7148 186.648 29.5459C187.654 30.3631 188.48 31.383 189.073 32.5403C189.725 33.9198 190.039 35.4373 189.988 36.9647C190.004 38.7035 189.698 40.4299 189.085 42.0553C188.492 43.6118 187.581 45.0255 186.412 46.2047C185.188 47.4166 183.732 48.3629 182.132 48.9853C180.282 49.6916 178.315 50.0359 176.337 49.9997C173.83 50.0671 171.341 49.5527 169.063 48.4964C167.032 47.4901 165.219 46.0881 163.728 44.3714L164.571 43.0392C164.666 42.9016 164.792 42.7884 164.938 42.7087C165.085 42.6291 165.247 42.5853 165.414 42.5809C165.68 42.6216 165.925 42.7506 166.111 42.9475L167.135 43.8397C167.535 44.2003 168.02 44.5853 168.584 45.0009C169.198 45.4491 169.854 45.8359 170.542 46.1559C172.377 47.0095 174.377 47.4396 176.398 47.4147C177.942 47.4415 179.477 47.1783 180.926 46.6386C182.175 46.1622 183.316 45.4345 184.278 44.4997C185.193 43.6041 185.906 42.5203 186.369 41.322C186.86 40.0693 187.107 38.7331 187.097 37.3864C187.148 36.071 186.829 34.7678 186.175 33.6281C185.552 32.6458 184.725 31.8118 183.75 31.1836C182.681 30.4954 181.533 29.9393 180.332 29.5275C179.053 29.0814 177.743 28.6475 176.391 28.2197C175.04 27.792 173.736 27.3214 172.457 26.7897C171.224 26.2905 170.07 25.611 169.033 24.7731C168.017 23.9405 167.191 22.8987 166.608 21.7175C165.946 20.2757 165.631 18.6973 165.686 17.1097C165.686 15.6805 165.962 14.2648 166.499 12.942C167.042 11.6096 167.853 10.4049 168.881 9.40363C170.002 8.33886 171.32 7.5081 172.76 6.95919C174.44 6.30364 176.228 5.97797 178.028 5.99974C180.064 5.96787 182.086 6.3288 183.987 7.06308C185.794 7.80473 187.43 8.91348 188.794 10.3203L188.073 11.7136Z" fill="white"/>
<path d="M24.241 6H0V19.2672H24.241V6Z" fill="white"/>
<path d="M24.2406 6.01758H11.0805V49.9992H24.2406V6.01758Z" fill="white"/>
<path d="M34.0792 19.2614C37.7116 19.2614 40.6562 16.2928 40.6562 12.6308C40.6562 8.96885 37.7116 6.00024 34.0792 6.00024C30.4468 6.00024 27.5022 8.96885 27.5022 12.6308C27.5022 16.2928 30.4468 19.2614 34.0792 19.2614Z" fill="white"/>
</g>
<path d="M224.141 23.4688L228.922 15.25H233.484L226.609 26.5312L233.641 38H229.031L224.141 29.6562L219.234 38H214.641L221.688 26.5312L214.797 15.25H219.359L224.141 23.4688Z" fill="white"/>
<path d="M311 0L286 5.03L261 0L266.03 25L261 50L286 44.97L311 50L305.97 25L311 0ZM305.12 20.775L302.82 9.3575L308.57 3.6075L305.12 20.775ZM290.225 5.88L307.395 2.425L301.645 8.175L290.225 5.88ZM266.88 29.225L269.18 40.6425L263.43 46.3925L266.88 29.225ZM264.605 47.575L270.355 41.825L281.773 44.125L264.605 47.575ZM270.793 40.2075L263.425 3.605L277.898 18.0775L280.398 30.475L292.798 32.975L307.4 47.58L270.793 40.2075ZM279.73 18.73L290.06 20.8075L292.14 31.14L281.808 29.06L279.73 18.73ZM293.98 31.7925L291.48 19.3925L279.083 16.8925L264.605 2.425L301.208 9.7925L308.575 46.395L293.98 31.7925Z" fill="white"/>
<path d="M327.25 15.9849C327.25 10.7624 331.2 6.98486 336.102 6.98486C341.005 6.98486 345.38 9.98486 344.71 16.7899H329C329.357 20.8874 332.5 23.2499 336.095 23.2499C338.387 23.2499 341.067 22.3324 342.375 20.6049L343.607 21.6049C341.915 23.8274 338.882 24.9574 336.095 24.9574C331.192 24.9449 327.25 21.5224 327.25 15.9849ZM343.157 15.2774C343.122 10.9749 340.3 8.57736 336.102 8.57736C332.5 8.57736 329.392 10.9999 329 15.2774H343.157Z" fill="white"/>
<path d="M352.428 2.00024V6.97525H358.353V8.42025H352.428V19.3203C352.428 21.6853 352.928 23.3428 355.638 23.3428C356.571 23.3038 357.486 23.0633 358.318 22.6378L358.918 24.0478C357.825 24.5778 356.73 24.9303 355.638 24.9303C351.933 24.9303 350.735 22.7428 350.735 19.3203V8.43025H347.03V6.98525H350.735V2.18774L352.428 2.00024Z" fill="white"/>
<path d="M363.999 0V10.5125C365.409 8.0125 367.844 7.055 370.277 7.0125C375.144 7.0125 377.579 10.1525 377.579 14.7025V24.94H375.887V14.71C375.887 11.1125 374.192 8.6775 370.277 8.6775C366.609 8.6775 364.069 11.5 364.069 15.1325V24.94H362.342V0H363.999Z" fill="white"/>
<path d="M381.105 15.9849C381.105 10.7624 385.055 6.98486 389.958 6.98486C394.86 6.98486 399.235 9.98486 398.565 16.7899H382.868C383.223 20.8824 386.368 23.2449 389.958 23.2449C392.253 23.2449 394.933 22.3274 396.238 20.5999L397.473 21.5999C395.78 23.8224 392.745 24.9524 389.958 24.9524C385.055 24.9449 381.105 21.5224 381.105 15.9849ZM397.013 15.2774C396.978 10.9749 394.155 8.57736 389.958 8.57736C386.36 8.57736 383.258 11.0099 382.868 15.2774H397.013Z" fill="white"/>
<path d="M404.668 6.98486L404.75 10.3699C405.845 8.00736 408.313 7.08986 410.535 7.08986C411.858 7.05945 413.161 7.41473 414.285 8.11236L413.5 9.52486C412.607 8.9831 411.58 8.70169 410.535 8.71236C409.001 8.72228 407.534 9.34087 406.456 10.4322C405.378 11.5235 404.777 12.9983 404.785 14.5324V24.9449H403.058V6.98486H404.668Z" fill="white"/>
<path d="M415.885 15.9849C415.885 10.7624 419.835 6.98486 424.737 6.98486C429.64 6.98486 434.015 9.98486 433.345 16.7899H417.647C418 20.8874 421.14 23.2499 424.75 23.2499C427.045 23.2499 429.725 22.3324 431.03 20.6049L432.265 21.6049C430.56 23.8149 427.525 24.9449 424.75 24.9449C419.835 24.9449 415.885 21.5224 415.885 15.9849ZM431.792 15.2774C431.75 10.9749 428.935 8.57736 424.75 8.57736C421.152 8.57736 418.05 11.0099 417.66 15.2774H431.792Z" fill="white"/>
<path d="M454.58 6.98486V24.9449H452.852V20.9449C452.12 22.1774 451.076 23.1951 449.825 23.8952C448.574 24.5953 447.161 24.9531 445.727 24.9324C440.86 24.9324 436.872 21.2624 436.872 15.9324C436.872 10.6024 440.86 6.99986 445.727 6.99986C448.547 6.99986 451.405 8.30486 452.852 11.0199V6.98486H454.58ZM438.602 15.9299C438.602 20.3049 441.775 23.2324 445.727 23.2324C455.427 23.2324 455.427 8.66486 445.727 8.66486C441.775 8.66486 438.602 11.5574 438.602 15.9299Z" fill="white"/>
<path d="M461 0V24.945H459.273V0H461Z" fill="white"/>
<path d="M333.17 49.9998C330.653 49.9998 328.84 49.4123 327.243 47.7873L328.935 46.1173C330.16 47.3423 331.5 47.7173 333.218 47.7173C335.405 47.7173 336.678 46.7773 336.678 45.1523C336.678 44.4223 336.465 43.8123 336.018 43.4023C335.57 42.9923 335.17 42.8373 334.183 42.6948L332.205 42.4123C330.843 42.2248 329.76 41.7548 329.03 41.0723C328.205 40.2948 327.805 39.2373 327.805 37.8723C327.805 34.9548 329.923 32.9548 333.405 32.9548C335.618 32.9548 337.17 33.5198 338.605 34.8598L336.983 36.4598C335.948 35.4723 334.748 35.1673 333.335 35.1673C331.36 35.1673 330.278 36.2948 330.278 37.7773C330.265 38.0671 330.315 38.3562 330.424 38.6247C330.534 38.8932 330.701 39.1347 330.913 39.3323C331.457 39.7593 332.108 40.0275 332.795 40.1073L334.7 40.3898C336.253 40.6248 337.123 41.0023 337.83 41.6398C338.748 42.4398 339.195 43.6398 339.195 45.0748C339.195 48.1648 336.678 49.9998 333.17 49.9998Z" fill="white"/>
<path d="M357.75 49.9999C354.337 49.9999 351.75 47.6699 351.75 44.2124V32.9624H354.3V44.0924C354.3 46.3274 355.665 47.7149 357.757 47.7149C359.85 47.7149 361.25 46.3299 361.25 44.0949V32.9649H363.79V44.2149C363.78 47.6699 361.17 49.9999 357.75 49.9999Z" fill="white"/>
<path d="M389.545 49.9998V38.5173L385.685 46.6823H383.803L379.85 38.5173V49.9998H377.31V32.9648H379.85L384.75 43.3873L389.55 32.9648H392.09V49.9998H389.545Z" fill="white"/>
<path d="M418.085 49.9998V38.5173L414.225 46.6823H412.342L408.39 38.5173V49.9998H405.85V32.9648H408.39L413.285 43.3873L418.085 32.9648H420.625V49.9998H418.085Z" fill="white"/>
<path d="M434.39 49.9998V32.9648H436.93V49.9998H434.39Z" fill="white"/>
<path d="M456.387 35.25V50H453.847V35.25H449.234V32.9675H460.999V35.25H456.387Z" fill="white"/>
<defs>
<clipPath id="clip0">
<rect y="6" width="190" height="44" fill="white"/>
</clipPath>
</defs>
</svg>
