<svg xmlns="http://www.w3.org/2000/svg" viewBox="0 0 313.44 72"><defs><style>.a{fill:#0364FF;}</style></defs><title>_torus-logo-blue</title><path class="a" d="M139.31,36a42.64,42.64,0,0,1-2.44,14.81A33,33,0,0,1,130,62.17a30.51,30.51,0,0,1-10.63,7.27,37.7,37.7,0,0,1-27.31,0,30.52,30.52,0,0,1-10.61-7.27,33,33,0,0,1-6.87-11.36A42.64,42.64,0,0,1,72.14,36a42.48,42.48,0,0,1,2.44-14.76A33,33,0,0,1,81.45,9.88,30.84,30.84,0,0,1,92.06,2.59,34.83,34.83,0,0,1,105.7,0a35.41,35.41,0,0,1,13.67,2.56A30.32,30.32,0,0,1,130,9.86a33.19,33.19,0,0,1,6.87,11.38A42.48,42.48,0,0,1,139.31,36ZM134,36a40.28,40.28,0,0,0-2-13.25,28.3,28.3,0,0,0-5.78-9.95,24.83,24.83,0,0,0-9-6.25,31.69,31.69,0,0,0-23,0,25.12,25.12,0,0,0-9,6.25,28.39,28.39,0,0,0-5.83,10A40,40,0,0,0,77.32,36a39.88,39.88,0,0,0,2.06,13.27,28.39,28.39,0,0,0,5.83,9.93,24.82,24.82,0,0,0,9,6.23,32.1,32.1,0,0,0,23,0,24.54,24.54,0,0,0,9-6.23A28.3,28.3,0,0,0,132,49.27,40.15,40.15,0,0,0,134,36Z"/><path class="a" d="M198.43,72H194a3.32,3.32,0,0,1-1.45-.28,2.87,2.87,0,0,1-1.09-1l-23.1-29.21a7.42,7.42,0,0,0-.84-1,3.24,3.24,0,0,0-1-.63,4.36,4.36,0,0,0-1.27-.33,13,13,0,0,0-1.81-.11H154V72h-5.24V0h18.42q12.41,0,18.6,4.81T192,18.93a19.32,19.32,0,0,1-1.43,7.53,17.66,17.66,0,0,1-4.09,6,21.6,21.6,0,0,1-6.46,4.2,30.73,30.73,0,0,1-8.53,2.18,8.1,8.1,0,0,1,2.19,2Zm-32-36.43a29.38,29.38,0,0,0,8.57-1.15,18.31,18.31,0,0,0,6.41-3.28,14.17,14.17,0,0,0,4-5.14,16.18,16.18,0,0,0,1.37-6.77q0-7.68-5-11.39T167.19,4.12H154V35.57Z"/><path class="a" d="M233.8,67.47A22.54,22.54,0,0,0,243,65.69a19.78,19.78,0,0,0,6.86-4.95,21.73,21.73,0,0,0,4.3-7.47A28.21,28.21,0,0,0,255.62,44V0h5.13V44a31.82,31.82,0,0,1-1.86,11,26.28,26.28,0,0,1-5.36,8.9,24.73,24.73,0,0,1-8.49,6,30.32,30.32,0,0,1-22.48,0,24.63,24.63,0,0,1-8.49-6,26.12,26.12,0,0,1-5.36-8.9,31.82,31.82,0,0,1-1.86-11V0H212V43.94a28.21,28.21,0,0,0,1.48,9.28,22,22,0,0,0,4.28,7.47,19.65,19.65,0,0,0,6.83,5A22.22,22.22,0,0,0,233.8,67.47Z"/><path class="a" d="M310.26,9.35a1.4,1.4,0,0,1-1.29.85,2.87,2.87,0,0,1-1.67-.92,22.53,22.53,0,0,0-2.76-2,20.93,20.93,0,0,0-4.36-2.06A21.82,21.82,0,0,0,287,5.32a14.11,14.11,0,0,0-4.88,3,12.68,12.68,0,0,0-3,4.38,13.64,13.64,0,0,0-1,5.22,10.66,10.66,0,0,0,1.51,5.92,13.74,13.74,0,0,0,4,4,26.27,26.27,0,0,0,5.65,2.76c2.1.74,4.27,1.48,6.49,2.21s4.39,1.54,6.49,2.41a23.65,23.65,0,0,1,5.65,3.31,15.32,15.32,0,0,1,4,4.9,15.59,15.59,0,0,1,1.51,7.24A22.86,22.86,0,0,1,311.93,59a19.49,19.49,0,0,1-4.41,6.79,20.71,20.71,0,0,1-7.06,4.55A25.68,25.68,0,0,1,290.9,72a27,27,0,0,1-12-2.46,28.26,28.26,0,0,1-8.8-6.75l1.39-2.18a1.75,1.75,0,0,1,1.39-.75,2,2,0,0,1,1.15.6l1.69,1.46c.66.59,1.46,1.22,2.39,1.9a19.23,19.23,0,0,0,3.23,1.89A22.4,22.4,0,0,0,291,67.77a20.53,20.53,0,0,0,7.47-1.27A16.25,16.25,0,0,0,304,63a14.66,14.66,0,0,0,3.45-5.2,17.19,17.19,0,0,0,1.2-6.44,11.39,11.39,0,0,0-1.52-6.15,13.17,13.17,0,0,0-4-4,26.1,26.1,0,0,0-5.64-2.71c-2.11-.73-4.27-1.44-6.5-2.14s-4.38-1.47-6.49-2.34a22.36,22.36,0,0,1-5.65-3.3,15.14,15.14,0,0,1-4-5,16.57,16.57,0,0,1-1.52-7.54,18,18,0,0,1,1.34-6.82,17.1,17.1,0,0,1,3.93-5.79,19.26,19.26,0,0,1,6.4-4A23.29,23.29,0,0,1,293.69,0a26.33,26.33,0,0,1,9.83,1.74,23.45,23.45,0,0,1,7.93,5.33Z"/><rect class="a" width="39.99" height="21.71"/><rect class="a" x="18.28" y="0.03" width="21.71" height="71.97"/><circle class="a" cx="56.22" cy="10.85" r="10.85"/></svg>