<?xml version="1.0" encoding="UTF-8"?>
<svg width="180px" height="37px" viewBox="0 0 180 37" version="1.1" xmlns="http://www.w3.org/2000/svg" xmlns:xlink="http://www.w3.org/1999/xlink">
    <!-- Generator: Sketch 55.2 (78181) - https://sketchapp.com -->
    <title>Logo Horizontal Light</title>
    <desc>Created with Sketch.</desc>
    <defs>
        <radialGradient cx="49.8022328%" cy="50.3841815%" fx="49.8022328%" fy="50.3841815%" r="53.2004092%" gradientTransform="translate(0.498022,0.503842),scale(1.000000,0.945946),rotate(115.963759),scale(1.000000,0.529344),translate(-0.498022,-0.503842)" id="radialGradient-1">
            <stop stop-color="#969696" offset="0%"></stop>
            <stop stop-color="#FFFFFF" offset="100%"></stop>
        </radialGradient>
    </defs>
    <g id="Logo-Horizontal-Light" stroke="none" stroke-width="1" fill="none" fill-rule="evenodd">
        <g id="Logo/Light/Horizontal">
            <path d="M57.65375,28 L55.94275,23.302 L47.59075,23.302 L45.87975,28 L41.64575,28 L49.53375,7.439 L54.17375,7.439 L62.00375,28 L57.65375,28 Z M51.76675,11.876 L48.92475,19.648 L54.60875,19.648 L51.76675,11.876 Z M85.269,28 L81.064,28 L71.726,13.413 L71.726,28 L67.724,28 L67.724,7.439 L72.712,7.439 L81.267,21.04 L81.267,7.439 L85.269,7.439 L85.269,28 Z M97.07925,16.806 L100.24025,16.806 C102.24125,16.806 103.45925,15.646 103.45925,13.877 C103.45925,12.05 102.24125,10.919 100.24025,10.919 L97.07925,10.919 L97.07925,16.806 Z M100.73325,20.257 L97.05025,20.257 L97.05025,28 L93.04825,28 L93.04825,7.439 L100.73325,7.439 C104.79325,7.439 107.49025,10.136 107.49025,13.848 C107.49025,17.589 104.79325,20.257 100.73325,20.257 Z M116.6325,17.705 C116.6325,22.345 119.8805,24.549 123.0415,24.549 C126.2315,24.549 129.4795,22.345 129.4795,17.705 C129.4795,13.065 126.2315,10.861 123.0415,10.861 C119.8805,10.861 116.6325,13.065 116.6325,17.705 Z M112.4855,17.734 C112.4855,11.093 117.4735,7.004 123.0415,7.004 C128.6385,7.004 133.6265,11.093 133.6265,17.734 C133.6265,24.346 128.6385,28.435 123.0415,28.435 C117.4735,28.435 112.4855,24.346 112.4855,17.734 Z M143.11675,17.705 C143.11675,22.345 146.36475,24.549 149.52575,24.549 C152.71575,24.549 155.96375,22.345 155.96375,17.705 C155.96375,13.065 152.71575,10.861 149.52575,10.861 C146.36475,10.861 143.11675,13.065 143.11675,17.705 Z M138.96975,17.734 C138.96975,11.093 143.95775,7.004 149.52575,7.004 C155.12275,7.004 160.11075,11.093 160.11075,17.734 C160.11075,24.346 155.12275,28.435 149.52575,28.435 C143.95775,28.435 138.96975,24.346 138.96975,17.734 Z M179.838,28 L166.672,28 L166.672,7.439 L170.674,7.439 L170.674,24.172 L179.838,24.172 L179.838,28 Z" id="ANPOOL" fill="#FFFFFF" fill-rule="nonzero"></path>
            <g id="Logo/Light/Symbol" fill-rule="evenodd">
                <path d="M11.6153104,0 C12.2282273,0 12.7989258,0.309672342 13.1294661,0.821610989 L34.7161268,34.2548905 C34.9014857,34.5419731 35,34.8757351 35,35.2166398 C35,36.2015624 34.194995,37 33.2019711,37 L22.7095063,37 C22.0874284,37 21.5095448,36.6810703 21.1816074,36.1567639 L0.270129953,2.72348436 C0.09355859,2.44118199 0,2.1155732 0,1.78336024 C0,0.798437576 0.805004955,0 1.79802889,0 L11.6153104,0 Z" id="Rectangle-Copy-28" fill="url(#radialGradient-1)"></path>
                <path d="M23.3846896,0 L33.2019711,0 C34.194995,0 35,0.798437576 35,1.78336024 C35,2.1155732 34.9064414,2.44118199 34.72987,2.72348436 L13.8183926,36.1567639 C13.4904552,36.6810703 12.9125716,37 12.2904937,37 L1.79802889,37 C0.805004955,37 0,36.2015624 0,35.2166398 C0,34.8757351 0.0985143343,34.5419731 0.283873172,34.2548905 L21.8705339,0.821610989 C22.2010742,0.309672342 22.7717727,0 23.3846896,0 Z" id="Rectangle-Copy-29" fill="#FFFFFF"></path>
            </g>
        </g>
    </g>
</svg>