<?xml version="1.0" encoding="UTF-8"?>
<svg width="179px" height="37px" viewBox="0 0 179 37" version="1.1" xmlns="http://www.w3.org/2000/svg" xmlns:xlink="http://www.w3.org/1999/xlink">
    <!-- Generator: Sketch 55.2 (78181) - https://sketchapp.com -->
    <title>Logo Horizontal</title>
    <desc>Created with Sketch.</desc>
    <defs>
        <radialGradient cx="50%" cy="46.315893%" fx="50%" fy="46.315893%" r="26.6709787%" gradientTransform="translate(0.500000,0.463159),scale(1.000000,0.945946),rotate(150.468714),scale(1.000000,1.564189),translate(-0.500000,-0.463159)" id="radialGradient-1">
            <stop stop-color="#2A39C6" offset="0%"></stop>
            <stop stop-color="#6674FC" offset="100%"></stop>
        </radialGradient>
        <linearGradient x1="74.7055003%" y1="0%" x2="23.949579%" y2="100%" id="linearGradient-2">
            <stop stop-color="#347FE0" offset="0%"></stop>
            <stop stop-color="#A64CF2" offset="100%"></stop>
        </linearGradient>
    </defs>
    <g id="Logo-Horizontal" stroke="none" stroke-width="1" fill="none" fill-rule="evenodd">
        <g id="Logo/Dark/Horizontal">
            <g id="Logo/Dark/Symbol" fill-rule="evenodd">
                <path d="M11.6153104,0 C12.2282273,0 12.7989258,0.309672342 13.1294661,0.821610989 L34.7161268,34.2548905 C34.9014857,34.5419731 35,34.8757351 35,35.2166398 C35,36.2015624 34.194995,37 33.2019711,37 L22.7095063,37 C22.0874284,37 21.5095448,36.6810703 21.1816074,36.1567639 L0.270129953,2.72348436 C0.09355859,2.44118199 0,2.1155732 0,1.78336024 C0,0.798437576 0.805004955,0 1.79802889,0 L11.6153104,0 Z" id="Rectangle-Copy-22" fill="url(#radialGradient-1)"></path>
                <path d="M23.3846896,0 L33.2019711,0 C34.194995,0 35,0.798437576 35,1.78336024 C35,2.1155732 34.9064414,2.44118199 34.72987,2.72348436 L13.8183926,36.1567639 C13.4904552,36.6810703 12.9125716,37 12.2904937,37 L1.79802889,37 C0.805004955,37 0,36.2015624 0,35.2166398 C0,34.8757351 0.0985143343,34.5419731 0.283873172,34.2548905 L21.8705339,0.821610989 C22.2010742,0.309672342 22.7717727,0 23.3846896,0 Z" id="Rectangle-Copy-23" fill="url(#linearGradient-2)"></path>
            </g>
            <path d="M56.65375,28 L54.94275,23.302 L46.59075,23.302 L44.87975,28 L40.64575,28 L48.53375,7.439 L53.17375,7.439 L61.00375,28 L56.65375,28 Z M50.76675,11.876 L47.92475,19.648 L53.60875,19.648 L50.76675,11.876 Z M84.269,28 L80.064,28 L70.726,13.413 L70.726,28 L66.724,28 L66.724,7.439 L71.712,7.439 L80.267,21.04 L80.267,7.439 L84.269,7.439 L84.269,28 Z M96.07925,16.806 L99.24025,16.806 C101.24125,16.806 102.45925,15.646 102.45925,13.877 C102.45925,12.05 101.24125,10.919 99.24025,10.919 L96.07925,10.919 L96.07925,16.806 Z M99.73325,20.257 L96.05025,20.257 L96.05025,28 L92.04825,28 L92.04825,7.439 L99.73325,7.439 C103.79325,7.439 106.49025,10.136 106.49025,13.848 C106.49025,17.589 103.79325,20.257 99.73325,20.257 Z M115.6325,17.705 C115.6325,22.345 118.8805,24.549 122.0415,24.549 C125.2315,24.549 128.4795,22.345 128.4795,17.705 C128.4795,13.065 125.2315,10.861 122.0415,10.861 C118.8805,10.861 115.6325,13.065 115.6325,17.705 Z M111.4855,17.734 C111.4855,11.093 116.4735,7.004 122.0415,7.004 C127.6385,7.004 132.6265,11.093 132.6265,17.734 C132.6265,24.346 127.6385,28.435 122.0415,28.435 C116.4735,28.435 111.4855,24.346 111.4855,17.734 Z M142.11675,17.705 C142.11675,22.345 145.36475,24.549 148.52575,24.549 C151.71575,24.549 154.96375,22.345 154.96375,17.705 C154.96375,13.065 151.71575,10.861 148.52575,10.861 C145.36475,10.861 142.11675,13.065 142.11675,17.705 Z M137.96975,17.734 C137.96975,11.093 142.95775,7.004 148.52575,7.004 C154.12275,7.004 159.11075,11.093 159.11075,17.734 C159.11075,24.346 154.12275,28.435 148.52575,28.435 C142.95775,28.435 137.96975,24.346 137.96975,17.734 Z M178.838,28 L165.672,28 L165.672,7.439 L169.674,7.439 L169.674,24.172 L178.838,24.172 L178.838,28 Z" id="ANPOOL" fill="#5B69F2" fill-rule="nonzero"></path>
        </g>
    </g>
</svg>