<?xml version="1.0" encoding="UTF-8"?>
<svg width="18px" height="18px" viewBox="0 0 18 18" version="1.1" xmlns="http://www.w3.org/2000/svg" xmlns:xlink="http://www.w3.org/1999/xlink">
    <!-- Generator: Sketch 56.3 (81716) - https://sketch.com -->
    <title>Group 21</title>
    <desc>Created with Sketch.</desc>
    <g id="Invision-4" stroke="none" stroke-width="1" fill="none" fill-rule="evenodd">
        <g id="Upload" transform="translate(-161.000000, -409.000000)">
            <g id="Group-21" transform="translate(161.000000, 409.000000)">
                <path d="M17.3192727,9.03719008 C17.3192727,8.41061157 17.2630413,7.80813223 17.1586116,7.22975207 L8.83636364,7.22975207 L8.83636364,10.6478182 L13.5919339,10.6478182 C13.3870909,11.7523636 12.7645289,12.6882149 11.8286777,13.3147934 L11.8286777,15.5319174 L14.6844298,15.5319174 C16.3553058,13.9935868 17.3192727,11.7282645 17.3192727,9.03719008 L17.3192727,9.03719008 Z" id="Shape" fill="#4285F4"></path>
                <path d="M8.83636364,17.6727273 C11.2221818,17.6727273 13.2224132,16.8814711 14.6844298,15.5319174 L11.8286777,13.3147934 C11.0374215,13.8449752 10.0252562,14.1582645 8.83636364,14.1582645 C6.53489256,14.1582645 4.58687603,12.6038678 3.89201653,10.5152727 L0.939867769,10.5152727 L0.939867769,12.8046942 C2.39385124,15.6925785 5.38214876,17.6727273 8.83636364,17.6727273 L8.83636364,17.6727273 Z" id="Shape" fill="#34A853"></path>
                <path d="M3.89201653,10.5152727 C3.71528926,9.98509091 3.61487603,9.41876033 3.61487603,8.83636364 C3.61487603,8.25396694 3.71528926,7.68763636 3.89201653,7.15745455 L3.89201653,4.86803306 L0.939867769,4.86803306 C0.341404959,6.06094215 2.13162821e-14,7.41049587 2.13162821e-14,8.83636364 C2.13162821e-14,10.2622314 0.341404959,11.6117851 0.939867769,12.8046942 L3.89201653,10.5152727 L3.89201653,10.5152727 Z" id="Shape" fill="#FBBC05"></path>
                <path d="M8.83636364,3.51446281 C10.1337025,3.51446281 11.2984959,3.96029752 12.2142645,4.83590083 L14.7486942,2.30147107 C13.2183967,0.875603306 11.2181653,-1.02584607e-13 8.83636364,-1.02584607e-13 C5.38214876,-1.02584607e-13 2.39385124,1.98014876 0.939867769,4.86803306 L3.89201653,7.15745455 C4.58687603,5.0688595 6.53489256,3.51446281 8.83636364,3.51446281 L8.83636364,3.51446281 Z" id="Shape" fill="#EA4335"></path>
            </g>
        </g>
    </g>
</svg>