<svg width="203" height="219" viewBox="0 0 203 219" fill="none" xmlns="http://www.w3.org/2000/svg">
<path fill-rule="evenodd" clip-rule="evenodd" d="M20.4865 0C9.1721 0 0 9.17208 0 20.4864V44.3516C0 55.6659 9.17209 64.838 20.4864 64.838H56.7325V198.342C56.7325 209.656 65.9046 218.828 77.219 218.828H101.084C112.398 218.828 121.571 209.656 121.571 198.342V44.525C121.571 44.4673 121.571 44.4095 121.571 44.3516V20.4865C121.571 9.1721 112.399 0 101.085 0H77.219H20.4865Z" fill="white"/>
<path d="M170.209 64.838C188.114 64.838 202.628 50.3235 202.628 32.419C202.628 14.5145 188.114 0 170.209 0C152.305 0 137.79 14.5145 137.79 32.419C137.79 50.3235 152.305 64.838 170.209 64.838Z" fill="white"/>
</svg>
