<svg width="203" height="220" viewBox="0 0 203 220" fill="none" xmlns="http://www.w3.org/2000/svg">
<path fill-rule="evenodd" clip-rule="evenodd" d="M20.6075 0.490234C9.29319 0.490234 0.121094 9.66231 0.121094 20.9767V44.8418C0.121094 56.1561 9.29318 65.3282 20.6075 65.3282H56.8536V198.832C56.8536 210.146 66.0257 219.319 77.3401 219.319H101.205C112.52 219.319 121.692 210.146 121.692 198.832V45.0153C121.692 44.9575 121.692 44.8997 121.692 44.8418V20.9767C121.692 9.66233 112.52 0.490234 101.206 0.490234H77.3401H20.6075Z" fill="#B3C0CE"/>
<path d="M170.33 65.3283C188.235 65.3283 202.749 50.8138 202.749 32.9092C202.749 15.0047 188.235 0.490234 170.33 0.490234C152.426 0.490234 137.911 15.0047 137.911 32.9092C137.911 50.8138 152.426 65.3283 170.33 65.3283Z" fill="#B3C0CE"/>
</svg>
