<?xml version="1.0" encoding="UTF-8"?>
<svg width="21px" height="14px" viewBox="0 0 21 14" version="1.1" xmlns="http://www.w3.org/2000/svg" xmlns:xlink="http://www.w3.org/1999/xlink">
    <!-- Generator: sketchtool 56 (101010) - https://sketch.com -->
    <title>5E6B343A-EB14-450B-AD62-CD3F610F2447</title>
    <desc>Created with sketchtool.</desc>
    <g id="Invision-2" stroke="none" stroke-width="1" fill="none" fill-rule="evenodd">
        <g id="Desktop-Account-2" transform="translate(-26.000000, -139.000000)">
            <g id="Plus-circle-Copy-2" transform="translate(24.000000, 134.000000)">
                <rect id="Rectangle" fill="#000000" opacity="0" x="0" y="0" width="25" height="24"></rect>
                <path d="M9.375,18 C5.76354167,18 5.20833333,17.5 5.20833333,16 C5.20833333,14.5 5.76354167,14 9.375,14 C12.9864583,14 13.5416667,14.5 13.5416667,16 C13.5416667,17.5 12.9864583,18 9.375,18 Z" id="Stroke-1" stroke="#A2A5B5" stroke-width="2" stroke-linecap="round" stroke-linejoin="round"></path>
                <path d="M7.29166667,14 C3.68020833,14 3.125,13.5 3.125,12 C3.125,10.5 3.68020833,10 7.29166667,10 C10.903125,10 11.4583333,10.5 11.4583333,12 C11.4583333,13.5 10.903125,14 7.29166667,14 Z" id="Stroke-3" stroke="#A2A5B5" stroke-width="2" stroke-linecap="round" stroke-linejoin="round"></path>
                <path d="M9.375,10 C5.76354167,10 5.20833333,9.5 5.20833333,8 C5.20833333,6.5 5.76354167,6 9.375,6 C12.9864583,6 13.5416667,6.5 13.5416667,8 C13.5416667,9.5 12.9864583,10 9.375,10 Z" id="Stroke-5" stroke="#A2A5B5" stroke-width="2" stroke-linecap="round" stroke-linejoin="round"></path>
                <path d="M19.7916667,18 C18.75,18 14.5833333,14 14.5833333,13 C14.5833333,12 15.625,11 16.6666667,11 C17.7083333,11 21.875,15 21.875,16 C21.875,17 20.8333333,18 19.7916667,18 Z" id="Stroke-7" stroke="#A2A5B5" stroke-width="2" stroke-linecap="round" stroke-linejoin="round"></path>
            </g>
        </g>
    </g>
</svg>