<svg width="12" height="9" viewBox="0 0 12 9" fill="none" xmlns="http://www.w3.org/2000/svg">
<path fill-rule="evenodd" clip-rule="evenodd" d="M1.5 0H10.5C11.3284 0 12 0.671573 12 1.5V7C12 7.82843 11.3284 8.5 10.5 8.5H1.5C0.671573 8.5 0 7.82843 0 7V1.5C0 0.671573 0.671573 0 1.5 0ZM1.49961 1.00005C1.22347 1.00005 0.999609 1.22391 0.999609 1.50005V7.00005C0.999609 7.27619 1.22347 7.50005 1.49961 7.50005H10.4996C10.7758 7.50005 10.9996 7.27619 10.9996 7.00005V1.50005C10.9996 1.22391 10.7758 1.00005 10.4996 1.00005H1.49961ZM9.50039 4.24995C9.50039 4.66416 9.1646 4.99995 8.75039 4.99995C8.33618 4.99995 8.00039 4.66416 8.00039 4.24995C8.00039 3.83574 8.33618 3.49995 8.75039 3.49995C9.1646 3.49995 9.50039 3.83574 9.50039 4.24995Z" fill="#D3D5E2"/>
</svg>
