<svg width="27" height="31" viewBox="0 0 27 31" fill="none" xmlns="http://www.w3.org/2000/svg">
<path d="M16.3839 13.0354C15.5095 13.0354 14.8192 13.7949 14.8192 14.7404C14.8192 15.6859 15.5248 16.4454 16.3839 16.4454C17.2584 16.4454 17.9487 15.6859 17.9487 14.7404C17.9487 13.7949 17.243 13.0354 16.3839 13.0354ZM10.7845 13.0354C9.91007 13.0354 9.21973 13.7949 9.21973 14.7404C9.21973 15.6859 9.92541 16.4454 10.7845 16.4454C11.6589 16.4454 12.3493 15.6859 12.3493 14.7404C12.3646 13.7949 11.6589 13.0354 10.7845 13.0354Z" fill="#7289DA"/>
<path d="M23.8394 0.139526H3.28258C1.54906 0.139526 0.137695 1.56553 0.137695 3.31703V24.087C0.137695 25.8385 1.54906 27.2645 3.28258 27.2645H20.6792L19.8661 24.428L21.8297 26.257L23.686 27.9775L26.9996 30.876V3.31703C26.9843 1.56553 25.5729 0.139526 23.8394 0.139526ZM17.9178 20.212C17.9178 20.212 17.3655 19.5455 16.9053 18.972C18.915 18.3985 19.682 17.143 19.682 17.143C19.053 17.5615 18.4547 17.856 17.9178 18.0575C17.1508 18.383 16.4144 18.5845 15.6934 18.724C14.2207 19.003 12.8707 18.9255 11.7201 18.7085C10.8456 18.538 10.0939 18.3055 9.46497 18.042C9.11213 17.9025 8.7286 17.732 8.34508 17.515C8.29906 17.484 8.25304 17.4685 8.20701 17.4375C8.17633 17.422 8.16099 17.4065 8.14565 17.4065C7.86951 17.2515 7.7161 17.143 7.7161 17.143C7.7161 17.143 8.45247 18.3675 10.4008 18.9565C9.94054 19.5455 9.37292 20.2275 9.37292 20.2275C5.98258 20.119 4.69395 17.887 4.69395 17.887C4.69395 12.9425 6.90304 8.92803 6.90304 8.92803C9.11213 7.26953 11.1985 7.31603 11.1985 7.31603L11.3519 7.50203C8.59054 8.29253 7.33258 9.51703 7.33258 9.51703C7.33258 9.51703 7.67008 9.33103 8.2377 9.08303C9.87917 8.35453 11.1832 8.16853 11.7201 8.10653C11.8121 8.09103 11.8888 8.07553 11.9809 8.07553C12.9167 7.95153 13.9752 7.92053 15.0797 8.04453C16.5371 8.21503 18.1019 8.64903 19.6974 9.51703C19.6974 9.51703 18.4854 8.35453 15.8775 7.56403L16.0922 7.31603C16.0922 7.31603 18.1939 7.26953 20.3877 8.92803C20.3877 8.92803 22.5968 12.9425 22.5968 17.887C22.5968 17.8715 21.3082 20.1035 17.9178 20.212Z" fill="#7289DA"/>
</svg>
