<?xml version="1.0" encoding="UTF-8"?>
<svg width="29px" height="24px" viewBox="0 0 29 24" version="1.1" xmlns="http://www.w3.org/2000/svg" xmlns:xlink="http://www.w3.org/1999/xlink">
    <!-- Generator: sketchtool 55.2 (78181) - https://sketchapp.com -->
    <title>1B92CCE2-9B93-4F86-A062-7A2E91688D40</title>
    <desc>Created with sketchtool.</desc>
    <g id="Invision-2" stroke="none" stroke-width="1" fill="none" fill-rule="evenodd" stroke-linecap="round" stroke-linejoin="round">
        <g id="Settings-&gt;-Privacy-and-Security-&gt;-Private-Key-Expanded" transform="translate(-763.000000, -351.000000)" stroke="#5495F7" stroke-width="2.8">
            <g id="Group-2" transform="translate(150.000000, 261.000000)">
                <g id="Eye-off" transform="translate(615.000000, 92.000000)">
                    <path d="M18.0555556,5.71428571 L23.6111111,0" id="Stroke-1"></path>
                    <path d="M18.0555556,0 L23.6111111,5.71428571" id="Stroke-3"></path>
                    <path d="M25,11.4285714 C25,11.4285714 23.3333333,20 12.5,20 C1.66666667,20 0,11.4285714 0,11.4285714 C0,11.4285714 1.66666667,2.85714286 12.5,2.85714286" id="Stroke-5"></path>
                    <path d="M15.2777778,11.4285714 C15.2777778,13.0057143 14.0333333,14.2857143 12.5,14.2857143 C10.9666667,14.2857143 9.72222222,13.0057143 9.72222222,11.4285714 C9.72222222,9.85142857 10.9666667,8.57142857 12.5,8.57142857 C14.0333333,8.57142857 15.2777778,9.85142857 15.2777778,11.4285714 Z" id="Stroke-7"></path>
                </g>
            </g>
        </g>
    </g>
</svg>