<?xml version="1.0" encoding="UTF-8"?>
<svg width="18px" height="18px" viewBox="0 0 18 18" version="1.1" xmlns="http://www.w3.org/2000/svg" xmlns:xlink="http://www.w3.org/1999/xlink">
    <!-- Generator: Sketch 61.2 (89653) - https://sketch.com -->
    <title>globe-americas-solid</title>
    <desc>Created with Sketch.</desc>
    <g id="Invision-7" stroke="none" stroke-width="1" fill="none" fill-rule="evenodd">
        <g id="-New---Home-2" transform="translate(-1168.000000, -19.000000)" fill="#A2A5B5" fill-rule="nonzero">
            <g id="globe-americas-solid" transform="translate(1168.000000, 19.000000)">
                <path d="M8.928,0 C3.99708,0 0,3.99708 0,8.928 C0,13.85892 3.99708,17.856 8.928,17.856 C13.85892,17.856 17.856,13.85892 17.856,8.928 C17.856,3.99708 13.85892,0 8.928,0 Z M11.89044,12.8736 C11.75004,13.01328 11.6028,13.1598 11.48328,13.27968 C11.37564,13.38768 11.29968,13.52088 11.26116,13.66524 C11.2068,13.869 11.16288,14.07492 11.08944,14.27256 L10.4634,15.95916 C9.96804,16.06716 9.4554,16.128 8.928,16.128 L8.928,15.14232 C8.98884,14.688 8.65296,13.83696 8.11332,13.29732 C7.89732,13.08132 7.776,12.78828 7.776,12.48264 L7.776,11.33028 C7.776,10.91124 7.55028,10.52604 7.18344,10.32336 C6.66612,10.03716 5.93028,9.6372 5.42628,9.3834 C5.013,9.17532 4.63068,8.91036 4.28688,8.6004 L4.25808,8.57448 C4.01222281,8.35255322 3.79393672,8.10187473 3.60792,7.82784 C3.27024,7.33212 2.72016,6.51672 2.36268,5.9868 C3.0996,4.3488 4.42764,3.03336 6.07788,2.31876 L6.94224,2.75112 C7.32528,2.94264 7.776,2.66436 7.776,2.23596 L7.776,1.82916 C8.06364,1.78272 8.35632,1.7532 8.65404,1.74204 L9.67284,2.76084 C9.89784,2.98584 9.89784,3.35052 9.67284,3.57552 L9.504,3.744 L9.13176,4.11624 C9.01944,4.22856 9.01944,4.41108 9.13176,4.5234 L9.3006,4.69224 C9.41292,4.80456 9.41292,4.98708 9.3006,5.0994 L9.0126,5.3874 C8.95852534,5.44136989 8.88523906,5.47166845 8.80884,5.47164 L8.4852,5.47164 C8.41032,5.47164 8.33832,5.5008 8.28432,5.55336 L7.9272,5.90076 C7.83737877,5.98822667 7.8143847,6.12371699 7.87032,6.23592 L8.43156,7.35876 C8.52732,7.55028 8.388,7.77564 8.17416,7.77564 L7.97112,7.77564 C7.90164,7.77564 7.83468,7.75044 7.78248,7.70508 L7.4484,7.41492 C7.2945934,7.2814886 7.08181577,7.23906991 6.8886,7.30332 L5.76648,7.67736 C5.59078588,7.73594326 5.4723043,7.90039628 5.47236,8.0856 C5.47236,8.24868 5.56452,8.39736 5.71032,8.47044 L6.1092,8.66988 C6.44796,8.83944 6.82164,8.92764 7.20036,8.92764 C7.57908,8.92764 8.0136,9.91008 8.35236,10.07964 L10.75536,10.07964 C11.061,10.07964 11.35368,10.20096 11.57004,10.41696 L12.06288,10.9098 C12.2687707,11.1157694 12.38436,11.395091 12.38436,11.68632 C12.3842106,12.1320259 12.2064606,12.5592996 11.89044,12.8736 Z M15.012,9.585 C14.80356,9.5328 14.62176,9.405 14.5026,9.22608 L13.85532,8.25516 C13.6616407,7.96507737 13.6616407,7.58692263 13.85532,7.29684 L14.56056,6.23916 C14.64408,6.11424 14.75856,6.01272 14.8932,5.94576 L15.36048,5.71212 C15.8472,6.68124 16.128,7.77132 16.128,8.928 C16.128,9.24012 16.10136,9.54576 16.06248,9.84744 L15.012,9.585 Z" id="Shape"></path>
            </g>
        </g>
    </g>
</svg>