<?xml version="1.0" encoding="UTF-8"?>
<svg width="25px" height="47px" viewBox="0 0 25 47" version="1.1" xmlns="http://www.w3.org/2000/svg" xmlns:xlink="http://www.w3.org/1999/xlink">
    <!-- Generator: Sketch 55.2 (78181) - https://sketchapp.com -->
    <title>Key</title>
    <desc>Created with Sketch.</desc>
    <g id="Icons" stroke="none" stroke-width="1" fill="none" fill-rule="evenodd">
        <g id="More-Icons" transform="translate(-113.000000, -35.000000)" fill="#5495F7" fill-rule="nonzero">
            <g id="Key" transform="translate(98.000000, 33.000000)">
                <g id="Group" transform="translate(27.500000, 27.136039) rotate(-315.000000) translate(-27.500000, -27.136039) translate(8.500000, 8.136039)">
                    <path d="M34.3583333,16.7041667 C31.9833333,14.3291667 28.8958333,13.0625 25.5708333,13.0625 C23.9875,13.0625 22.4833333,13.3791667 21.0583333,13.9333333 L17.9708333,10.8458333 C17.8125,10.6875 17.6541667,10.6083333 17.4958333,10.6083333 L15.1208333,10.2916667 L14.8041667,8.62916667 C14.725,8.3125 14.4875,8.075 14.1708333,7.99583333 L12.4291667,7.67916667 L12.1125,5.9375 C12.0333333,5.62083333 11.7958333,5.38333333 11.4791667,5.30416667 L9.81666667,4.9875 L9.5,2.6125 C9.5,2.45416667 9.42083333,2.29583333 9.2625,2.1375 L7.44166667,0.316666667 C7.20416667,0.0791666667 6.8875,5.55111512e-17 6.65,0.158333333 L0.554166667,2.21666667 C0.2375,2.29583333 0,2.6125 0,2.92916667 L0.158333333,6.80833333 C0.158333333,6.96666667 0.2375,7.20416667 0.395833333,7.3625 L14.0125,20.9791667 C12.1916667,25.5708333 13.3,30.7166667 16.7833333,34.2791667 C19.1583333,36.6541667 22.2458333,37.9208333 25.5708333,37.9208333 C28.8958333,37.9208333 31.9833333,36.6541667 34.3583333,34.2791667 C36.7333333,31.9041667 38,28.8166667 38,25.4916667 C38,22.1666667 36.7333333,19.0791667 34.3583333,16.7041667 Z M33.25,33.1708333 C29.2125,37.05 22.4041667,37.525 17.8916667,33.1708333 C14.725,30.0041667 13.8541667,25.2541667 15.675,21.1375 C15.8333333,20.8208333 15.7541667,20.5041667 15.5166667,20.2666667 L1.74166667,6.49166667 L1.6625,4.90833333 L10.925,14.1708333 C11.3208333,14.4875 11.7166667,14.4875 12.0333333,14.1708333 C12.35,13.8541667 12.35,13.3791667 12.0333333,13.0625 L2.21666667,3.24583333 L6.65,1.74166667 L7.99583333,3.0875 L8.3125,5.77916667 C8.39166667,6.09583333 8.62916667,6.4125 8.94583333,6.4125 L10.6875,6.72916667 L11.0041667,8.47083333 C11.0833333,8.7875 11.3208333,9.025 11.6375,9.10416667 L13.3791667,9.42083333 L13.6958333,11.1625 C13.775,11.4791667 14.0125,11.7958333 14.3291667,11.7958333 L17.0208333,12.1125 L20.3458333,15.4375 C20.5833333,15.675 20.9,15.7541667 21.2166667,15.5958333 C22.6416667,14.9625 24.0666667,14.6458333 25.65,14.6458333 C28.5791667,14.6458333 31.2708333,15.7541667 33.3291667,17.8125 C35.3875,19.8708333 36.4958333,22.5625 36.4958333,25.4916667 C36.4166667,28.4208333 35.3083333,31.1125 33.25,33.1708333 Z" id="Shape"></path>
                    <path d="M13.775,14.8041667 C13.4583333,14.4875 12.9833333,14.4875 12.6666667,14.8041667 C12.35,15.1208333 12.35,15.5958333 12.6666667,15.9125 L14.0916667,17.3375 C14.4083333,17.6541667 14.8041667,17.6541667 15.2,17.3375 C15.5166667,17.0208333 15.5166667,16.5458333 15.2,16.2291667 L13.775,14.8041667 Z" id="Path"></path>
                    <path d="M28.5791667,24.5416667 C26.4416667,24.5416667 24.7,26.2833333 24.7,28.4208333 C24.7,30.5583333 26.4416667,32.3 28.5791667,32.3 C30.7166667,32.3 32.4583333,30.5583333 32.4583333,28.4208333 C32.4583333,26.2833333 30.7166667,24.5416667 28.5791667,24.5416667 Z M28.5791667,30.7958333 C27.3125,30.7958333 26.2041667,29.7666667 26.2041667,28.4208333 C26.2041667,27.1541667 27.2333333,26.0458333 28.5791667,26.0458333 C29.8458333,26.0458333 30.9541667,27.075 30.9541667,28.4208333 C30.875,29.7666667 29.8458333,30.7958333 28.5791667,30.7958333 Z" id="Shape"></path>
                </g>
            </g>
        </g>
    </g>
</svg>