<svg width="27" height="27" viewBox="0 0 27 27" fill="none" xmlns="http://www.w3.org/2000/svg">
<path fill-rule="evenodd" clip-rule="evenodd" d="M25.8472 13.4874C25.8472 12.5523 25.7633 11.6532 25.6074 10.79H13.1875V15.8911H20.2846C19.9789 17.5395 19.0498 18.9361 17.6532 19.8712V23.18H21.915C24.4086 20.8842 25.8472 17.5035 25.8472 13.4874Z" fill="#9B9B9B"/>
<path fill-rule="evenodd" clip-rule="evenodd" d="M13.1879 26.374C16.7484 26.374 19.7335 25.1931 21.9154 23.1791L17.6535 19.8703C16.4727 20.6615 14.9621 21.1291 13.1879 21.1291C9.75319 21.1291 6.84602 18.8093 5.80903 15.6924H1.40332V19.1091C3.57321 23.4189 8.03287 26.374 13.1879 26.374Z" fill="#9B9B9B"/>
<path fill-rule="evenodd" clip-rule="evenodd" d="M5.80835 15.6924C5.5446 14.9012 5.39475 14.056 5.39475 13.1869C5.39475 12.3177 5.5446 11.4726 5.80835 10.6813V7.26465H1.40263C0.509504 9.04492 0 11.059 0 13.1869C0 15.3148 0.509504 17.3289 1.40263 19.1091L5.80835 15.6924Z" fill="#9B9B9B"/>
<path fill-rule="evenodd" clip-rule="evenodd" d="M13.1879 5.2449C15.124 5.2449 16.8623 5.91025 18.2289 7.21698L22.0113 3.43466C19.7275 1.30673 16.7424 0 13.1879 0C8.03287 0 3.57321 2.95512 1.40332 7.26493L5.80903 10.6816C6.84602 7.56464 9.75319 5.2449 13.1879 5.2449Z" fill="#9B9B9B"/>
</svg>
