<svg width="22" height="22" viewBox="0 0 22 22" fill="none" xmlns="http://www.w3.org/2000/svg">
<path d="M15.63 7.80823L19.5676 3.87063L18.1294 2.4324L14.1918 6.37L15.63 7.80823ZM21.6373 3.87063C21.6373 4.11246 21.5567 4.31416 21.3957 4.47571L4.11296 21.7584C3.9519 21.9194 3.7502 22 3.50787 22C3.26553 22 3.06383 21.9194 2.90278 21.7584L0.241585 19.0972C0.0805281 18.9362 0 18.7345 0 18.4921C0 18.2498 0.0805281 18.0481 0.241585 17.8871L17.5242 0.604337C17.6854 0.443281 17.8871 0.362752 18.1294 0.362752C18.3717 0.362752 18.5734 0.443281 18.7345 0.604337L21.3957 3.26553C21.5567 3.42658 21.6373 3.62828 21.6373 3.87063ZM3.48077 1.31705L4.79783 1.72044L3.48077 2.12384L3.07739 3.44088L2.67399 2.12384L1.35694 1.72044L2.67399 1.31705L3.07739 0L3.48077 1.31705ZM8.18452 3.49432L10.8186 4.30035L8.18452 5.10639L7.37848 7.74049L6.57246 5.10639L3.93836 4.30035L6.57246 3.49432L7.37848 0.860222L8.18452 3.49432ZM20.6829 9.91851L22 10.3219L20.6829 10.7253L20.2796 12.0423L19.8762 10.7253L18.5591 10.3219L19.8762 9.91851L20.2796 8.60146L20.6829 9.91851ZM12.0822 1.31705L13.3993 1.72044L12.0822 2.12384L11.6788 3.44088L11.2755 2.12384L9.9584 1.72044L11.2755 1.31705L11.6788 0L12.0822 1.31705Z" fill="white"/>
</svg>
