<svg width="24" height="24" viewBox="0 0 24 24" fill="none" xmlns="http://www.w3.org/2000/svg">
<g clip-path="url(#clip0)">
<path d="M12.011 0C5.36914 0 0 5.36914 0 12.011C0 17.3204 3.44023 21.8146 8.2128 23.4055C8.80937 23.5248 9.02812 23.147 9.02812 22.8288C9.02812 22.5504 9.00823 21.5959 9.00823 20.6016C5.66743 21.3175 4.97143 19.1698 4.97143 19.1698C4.43451 17.7778 3.63909 17.4199 3.63909 17.4199C2.54537 16.6841 3.71863 16.6841 3.71863 16.6841C4.93166 16.7637 5.568 17.917 5.568 17.917C6.64183 19.7465 8.37189 19.2295 9.06789 18.9113C9.16731 18.1358 9.48549 17.5989 9.82354 17.3006C7.15886 17.0222 4.35497 15.9881 4.35497 11.3746C4.35497 10.0622 4.83223 8.98834 5.58789 8.15314C5.46857 7.85485 5.05097 6.62194 5.7072 4.97143C5.7072 4.97143 6.72137 4.65326 9.00823 6.20434C9.96274 5.94583 10.9968 5.80663 12.011 5.80663C13.0251 5.80663 14.0592 5.94583 15.0137 6.20434C17.3006 4.65326 18.3147 4.97143 18.3147 4.97143C18.971 6.62194 18.5534 7.85485 18.4341 8.15314C19.2096 8.98834 19.667 10.0622 19.667 11.3746C19.667 15.9881 16.8631 17.0023 14.1785 17.3006C14.616 17.6784 14.9938 18.3943 14.9938 19.5278C14.9938 21.1385 14.9739 22.4311 14.9739 22.8288C14.9739 23.147 15.1927 23.5248 15.7893 23.4055C20.5618 21.8146 24.0021 17.3204 24.0021 12.011C24.0219 5.36914 18.6329 0 12.011 0Z" fill="white"/>
<path d="M4.55313 17.2408C4.53325 17.3005 4.43382 17.3204 4.35428 17.2806C4.27473 17.2408 4.21508 17.1613 4.25485 17.1016C4.27473 17.042 4.37416 17.0221 4.4537 17.0619C4.53325 17.1016 4.57302 17.1812 4.55313 17.2408ZM5.03039 17.7777C4.97073 17.8374 4.85142 17.7976 4.79176 17.7181C4.71222 17.6385 4.69233 17.5192 4.75199 17.4596C4.81165 17.3999 4.91108 17.4397 4.99062 17.5192C5.07016 17.6187 5.09005 17.738 5.03039 17.7777ZM5.50765 18.4737C5.4281 18.5334 5.30879 18.4737 5.24913 18.3743C5.16959 18.2749 5.16959 18.1357 5.24913 18.0959C5.32867 18.0363 5.44799 18.0959 5.50765 18.1953C5.58719 18.2948 5.58719 18.4141 5.50765 18.4737ZM6.16387 19.1499C6.10422 19.2294 5.96502 19.2095 5.8457 19.1101C5.74627 19.0107 5.7065 18.8715 5.78605 18.8118C5.8457 18.7323 5.9849 18.7521 6.10422 18.8516C6.20365 18.9311 6.22353 19.0703 6.16387 19.1499ZM7.05873 19.5277C7.03885 19.6271 6.89965 19.6669 6.76045 19.6271C6.62125 19.5873 6.5417 19.468 6.56159 19.3885C6.58147 19.2891 6.72067 19.2493 6.85987 19.2891C6.99907 19.3288 7.07862 19.4283 7.05873 19.5277ZM8.03313 19.6072C8.03313 19.7067 7.91382 19.7862 7.77462 19.7862C7.63542 19.7862 7.5161 19.7067 7.5161 19.6072C7.5161 19.5078 7.63542 19.4283 7.77462 19.4283C7.91382 19.4283 8.03313 19.5078 8.03313 19.6072ZM8.94787 19.4481C8.96776 19.5476 8.86833 19.647 8.72913 19.6669C8.58993 19.6868 8.47062 19.6271 8.45073 19.5277C8.43084 19.4283 8.53027 19.3288 8.66947 19.3089C8.80867 19.2891 8.92799 19.3487 8.94787 19.4481Z" fill="white"/>
</g>
<defs>
<clipPath id="clip0">
<rect width="24" height="23.428" fill="white"/>
</clipPath>
</defs>
</svg>
