<svg width="30" height="30" viewBox="0 0 30 30" fill="none" xmlns="http://www.w3.org/2000/svg">
<path d="M30 25.5C30 27.99 27.99 30 25.5 30H4.5C2.01 30 0 27.99 0 25.5V4.5C0 2.01 2.01 0 4.5 0H25.5C27.99 0 30 2.01 30 4.5V25.5Z" fill="#2DC100"/>
<path d="M20.0812 11.19C17.6612 11.32 15.5512 12.05 13.8412 13.71C12.1112 15.39 11.3212 17.44 11.5412 19.98C10.5912 19.86 9.73118 19.73 8.86118 19.66C8.56118 19.63 8.21118 19.67 7.95118 19.81C7.11118 20.29 6.30118 20.82 5.34118 21.42C5.52118 20.63 5.63118 19.93 5.83118 19.26C5.98118 18.77 5.91118 18.5 5.46118 18.18C2.57118 16.13 1.34118 13.06 2.26118 9.89996C3.11118 6.97996 5.19118 5.19996 8.02118 4.27996C11.8812 3.01996 16.2312 4.30996 18.5712 7.36996C19.4212 8.46996 19.9412 9.71996 20.0812 11.19ZM8.94118 10.2C8.96118 9.61996 8.46118 9.09996 7.87118 9.07996C7.26118 9.05996 6.76118 9.52996 6.74118 10.13C6.72118 10.74 7.19118 11.23 7.80118 11.24C8.40118 11.26 8.91118 10.8 8.94118 10.2ZM14.7512 9.08996C14.1512 9.09996 13.6512 9.60996 13.6612 10.19C13.6712 10.79 14.1712 11.26 14.7812 11.26C15.4012 11.25 15.8612 10.78 15.8612 10.16C15.8512 9.54996 15.3612 9.06996 14.7512 9.08996Z" fill="white"/>
<path d="M25.5224 26.28C24.7524 25.94 24.0524 25.43 23.3024 25.35C22.5524 25.27 21.7724 25.7 20.9924 25.78C18.6124 26.02 16.4824 25.36 14.7324 23.74C11.3924 20.65 11.8724 15.91 15.7324 13.38C19.1624 11.13 24.2024 11.88 26.6224 15C28.7324 17.72 28.4824 21.34 25.9124 23.63C25.1624 24.29 24.8924 24.84 25.3724 25.71C25.4624 25.88 25.4724 26.08 25.5224 26.28ZM16.7924 17.83C17.2824 17.83 17.6824 17.45 17.7024 16.97C17.7224 16.46 17.3124 16.03 16.8024 16.03C16.2924 16.03 15.8724 16.46 15.8924 16.96C15.9024 17.44 16.3124 17.83 16.7924 17.83ZM22.4224 16.03C21.9524 16.03 21.5424 16.41 21.5224 16.89C21.5024 17.4 21.9024 17.82 22.4024 17.82C22.8924 17.82 23.2824 17.45 23.2924 16.96C23.3224 16.46 22.9224 16.03 22.4224 16.03Z" fill="white"/>
</svg>
