<svg width="30" height="30" viewBox="0 0 30 30" fill="none" xmlns="http://www.w3.org/2000/svg">
<path d="M30 25.5C30 27.99 27.99 30 25.5 30H4.5C2.01 30 0 27.99 0 25.5V4.5C0 2.01 2.01 0 4.5 0H25.5C27.99 0 30 2.01 30 4.5V25.5Z" fill="#2DC100"/>
<path d="M19.2446 11.6363C17.2201 11.745 15.455 12.3557 14.0245 13.7444C12.5772 15.1498 11.9163 16.8648 12.1004 18.9896C11.3056 18.8892 10.5862 18.7805 9.85839 18.7219C9.60742 18.6968 9.31463 18.7303 9.09712 18.8474C8.39441 19.249 7.7168 19.6923 6.91371 20.1943C7.06429 19.5334 7.15631 18.9478 7.32362 18.3873C7.4491 17.9774 7.39054 17.7515 7.01409 17.4838C4.59644 15.7689 3.56747 13.2006 4.33711 10.5571C5.04818 8.11437 6.78822 6.62529 9.15568 5.85566C12.3848 4.80159 16.0238 5.88075 17.9814 8.44062C18.6925 9.36084 19.1275 10.4065 19.2446 11.6363ZM9.92532 10.8081C9.94205 10.3229 9.52377 9.88787 9.0302 9.87114C8.5199 9.85441 8.10162 10.2476 8.08489 10.7495C8.06816 11.2598 8.46134 11.6697 8.97164 11.6781C9.47358 11.6948 9.90022 11.31 9.92532 10.8081ZM14.7857 9.8795C14.2838 9.88787 13.8655 10.3145 13.8739 10.7997C13.8822 11.3017 14.3005 11.6948 14.8108 11.6948C15.3295 11.6865 15.7143 11.2933 15.7143 10.7746C15.7059 10.2643 15.296 9.86277 14.7857 9.8795Z" fill="white"/>
<path d="M23.797 24.2598C23.1528 23.9754 22.5672 23.5488 21.9398 23.4818C21.3124 23.4149 20.6599 23.7746 20.0073 23.8415C18.0163 24.0423 16.2345 23.4902 14.7705 22.135C11.9764 19.55 12.3779 15.5847 15.607 13.4682C18.4764 11.586 22.6927 12.2134 24.7172 14.8235C26.4823 17.0989 26.2732 20.1272 24.1232 22.043C23.4958 22.5951 23.2699 23.0552 23.6715 23.783C23.7468 23.9252 23.7551 24.0925 23.797 24.2598ZM16.4938 17.1909C16.9037 17.1909 17.2383 16.873 17.2551 16.4715C17.2718 16.0448 16.9288 15.6851 16.5022 15.6851C16.0755 15.6851 15.7242 16.0448 15.7409 16.4631C15.7493 16.8647 16.0923 17.1909 16.4938 17.1909ZM21.2036 15.6851C20.8104 15.6851 20.4675 16.003 20.4507 16.4045C20.434 16.8312 20.7686 17.1825 21.1869 17.1825C21.5968 17.1825 21.9231 16.873 21.9314 16.4631C21.9565 16.0448 21.6219 15.6851 21.2036 15.6851Z" fill="white"/>
</svg>
