<svg width="19" height="24" viewBox="0 0 19 24" fill="none" xmlns="http://www.w3.org/2000/svg">
<path d="M9.75493 5.53846C10.8059 5.53846 12.1234 4.8061 12.9079 3.82962C13.6184 2.94469 14.1365 1.70884 14.1365 0.472982C14.1365 0.30515 14.1217 0.137317 14.0921 0C12.9227 0.0457724 11.5164 0.808646 10.6727 1.8309C10.0066 2.60903 9.39967 3.82962 9.39967 5.08074C9.39967 5.26383 9.42928 5.44692 9.44408 5.50795C9.51809 5.5232 9.63651 5.53846 9.75493 5.53846ZM6.05428 24C7.49013 24 8.12665 23.0083 9.91776 23.0083C11.7385 23.0083 12.1382 23.9695 13.7368 23.9695C15.3059 23.9695 16.3569 22.4743 17.3487 21.0095C18.4589 19.3312 18.9178 17.6834 18.9474 17.6071C18.8438 17.5766 15.8388 16.3102 15.8388 12.7552C15.8388 9.67324 18.2072 8.28481 18.3405 8.178C16.7714 5.85887 14.3882 5.79784 13.7368 5.79784C11.9753 5.79784 10.5395 6.89638 9.63651 6.89638C8.65954 6.89638 7.37171 5.85887 5.84704 5.85887C2.94572 5.85887 0 8.33058 0 12.9994C0 15.8983 1.09539 18.965 2.44243 20.9485C3.59704 22.6268 4.60362 24 6.05428 24Z" fill="white"/>
</svg>
