<svg width="32" height="32" viewBox="0 0 32 32" fill="none" xmlns="http://www.w3.org/2000/svg">
<path d="M16 32C24.8366 32 32 24.8366 32 16C32 7.16344 24.8366 0 16 0C7.16344 0 0 7.16344 0 16C0 24.8366 7.16344 32 16 32Z" fill="white"/>
<path d="M26.667 16.0004C26.667 14.7092 25.619 13.6612 24.3278 13.6612C23.6916 13.6612 23.1302 13.9045 22.7185 14.3162C21.1278 13.1747 18.9196 12.4261 16.4869 12.3326L17.5535 7.33609L21.0155 8.06591C21.053 8.94544 21.7828 9.65656 22.681 9.65656C23.598 9.65656 24.3465 8.90802 24.3465 7.99106C24.3465 7.0741 23.598 6.32556 22.681 6.32556C22.0261 6.32556 21.4647 6.69983 21.2027 7.26123L17.329 6.43784C17.2167 6.41913 17.1044 6.43784 17.0109 6.49398C16.9173 6.55012 16.8612 6.64369 16.8237 6.75597L15.6448 12.3326C13.1559 12.4074 10.929 13.1373 9.31963 14.3162C8.90794 13.9232 8.32782 13.6612 7.71027 13.6612C6.41905 13.6612 5.37109 14.7092 5.37109 16.0004C5.37109 16.9548 5.9325 17.7595 6.75589 18.1337C6.71846 18.3583 6.69975 18.6016 6.69975 18.8449C6.69975 22.4378 10.8728 25.3384 16.0378 25.3384C21.2027 25.3384 25.3758 22.4378 25.3758 18.8449C25.3758 18.6016 25.3571 18.377 25.3196 18.1525C26.0869 17.7782 26.667 16.9548 26.667 16.0004ZM10.667 17.6659C10.667 16.749 11.4155 16.0004 12.3325 16.0004C13.2495 16.0004 13.998 16.749 13.998 17.6659C13.998 18.5829 13.2495 19.3314 12.3325 19.3314C11.4155 19.3314 10.667 18.5829 10.667 17.6659ZM19.9676 22.0636C18.8261 23.2051 16.6553 23.2799 16.019 23.2799C15.3828 23.2799 13.1933 23.1864 12.0705 22.0636C11.9021 21.8952 11.9021 21.6144 12.0705 21.446C12.2389 21.2776 12.5196 21.2776 12.6881 21.446C13.3992 22.1571 14.9337 22.4191 16.0378 22.4191C17.1419 22.4191 18.6576 22.1571 19.3875 21.446C19.5559 21.2776 19.8366 21.2776 20.005 21.446C20.136 21.6332 20.136 21.8952 19.9676 22.0636ZM19.6682 19.3314C18.7512 19.3314 18.0027 18.5829 18.0027 17.6659C18.0027 16.749 18.7512 16.0004 19.6682 16.0004C20.5851 16.0004 21.3337 16.749 21.3337 17.6659C21.3337 18.5829 20.5851 19.3314 19.6682 19.3314Z" fill="#2F3136"/>
</svg>
