<?xml version="1.0" encoding="UTF-8"?>
<svg width="18px" height="18px" viewBox="0 0 18 18" version="1.1" xmlns="http://www.w3.org/2000/svg" xmlns:xlink="http://www.w3.org/1999/xlink">
    <!-- Generator: sketchtool 56 (101010) - https://sketch.com -->
    <title>1470DFD4-7FA4-4A8B-8FA9-1107F109D660</title>
    <desc>Created with sketchtool.</desc>
    <g id="Invision-2" stroke="none" stroke-width="1" fill="none" fill-rule="evenodd">
        <g id="Account-2-account" transform="translate(-27.000000, -628.000000)">
            <g id="Account-Menu" transform="translate(24.000000, 357.000000)">
                <g id="Group">
                    <g id="Group-2" transform="translate(0.000000, 124.000000)">
                        <g id="Info-circle-Copy-2" transform="translate(0.000000, 144.000000)">
                            <rect id="Rectangle" fill="#000000" opacity="0" x="0" y="0" width="24" height="24"></rect>
                            <path d="M10.2314,6.0352 C10.2314,4.0002 10.3734,4.0002 12.0004,4.0002 C13.6274,4.0002 13.7684,4.0002 13.7684,6.0352" id="Stroke-1" stroke="#A2A5B5" stroke-width="2" stroke-linecap="round" stroke-linejoin="round"></path>
                            <path d="M10.2314,17.9648 C10.2314,19.9998 10.3734,19.9998 12.0004,19.9998 C13.6274,19.9998 13.7684,19.9998 13.7684,17.9648" id="Stroke-3" stroke="#A2A5B5" stroke-width="2" stroke-linecap="round" stroke-linejoin="round"></path>
                            <path d="M17.9648,10.2314 C19.9998,10.2314 19.9998,10.3734 19.9998,12.0004 C19.9998,13.6274 19.9998,13.7684 17.9648,13.7684" id="Stroke-5" stroke="#A2A5B5" stroke-width="2" stroke-linecap="round" stroke-linejoin="round"></path>
                            <path d="M6.0352,13.7686 C4.0002,13.7686 4.0002,13.6266 4.0002,11.9996 C4.0002,10.3726 4.0002,10.2316 6.0352,10.2316" id="Stroke-7" stroke="#A2A5B5" stroke-width="2" stroke-linecap="round" stroke-linejoin="round"></path>
                            <path d="M14.9687,6.5244 C16.4087,5.0934 16.5067,5.1914 17.6537,6.3464 C18.8087,7.4934 18.9067,7.5904 17.4757,9.0314" id="Stroke-9" stroke="#A2A5B5" stroke-width="2" stroke-linecap="round" stroke-linejoin="round"></path>
                            <path d="M6.5244,14.9688 C5.0934,16.4088 5.1914,16.5068 6.3464,17.6538 C7.4934,18.8088 7.5904,18.9068 9.0314,17.4758" id="Stroke-11" stroke="#A2A5B5" stroke-width="2" stroke-linecap="round" stroke-linejoin="round"></path>
                            <path d="M17.4756,14.9688 C18.9066,16.4088 18.8086,16.5068 17.6536,17.6538 C16.5066,18.8088 16.4096,18.9068 14.9686,17.4758" id="Stroke-13" stroke="#A2A5B5" stroke-width="2" stroke-linecap="round" stroke-linejoin="round"></path>
                            <path d="M6.5244,9.0313 C5.0934,7.5913 5.1914,7.4933 6.3464,6.3463 C7.4934,5.1913 7.5904,5.0933 9.0314,6.5243" id="Stroke-15" stroke="#A2A5B5" stroke-width="2" stroke-linecap="round" stroke-linejoin="round"></path>
                            <path d="M6.5244,9.0313 C6.3204,9.4133 6.1514,9.8133 6.0354,10.2313" id="Stroke-17" stroke="#A2A5B5" stroke-width="2" stroke-linecap="round" stroke-linejoin="round"></path>
                            <path d="M6.5244,14.9688 C6.3204,14.5868 6.1514,14.1868 6.0354,13.7688" id="Stroke-19" stroke="#A2A5B5" stroke-width="2" stroke-linecap="round" stroke-linejoin="round"></path>
                            <path d="M14.9687,17.4756 C14.5867,17.6796 14.1867,17.8486 13.7687,17.9646" id="Stroke-21" stroke="#A2A5B5" stroke-width="2" stroke-linecap="round" stroke-linejoin="round"></path>
                            <path d="M17.9648,10.2314 C17.8488,9.8134 17.6798,9.4134 17.4758,9.0314" id="Stroke-23" stroke="#A2A5B5" stroke-width="2" stroke-linecap="round" stroke-linejoin="round"></path>
                            <path d="M14.9687,6.5244 C14.5867,6.3204 14.1867,6.1514 13.7687,6.0354" id="Stroke-25" stroke="#A2A5B5" stroke-width="2" stroke-linecap="round" stroke-linejoin="round"></path>
                            <path d="M17.9648,13.7686 C17.8488,14.1866 17.6798,14.5866 17.4758,14.9686" id="Stroke-27" stroke="#A2A5B5" stroke-width="2" stroke-linecap="round" stroke-linejoin="round"></path>
                            <path d="M10.2314,17.9648 C9.8134,17.8488 9.4134,17.6798 9.0314,17.4758" id="Stroke-29" stroke="#A2A5B5" stroke-width="2" stroke-linecap="round" stroke-linejoin="round"></path>
                            <path d="M10.2314,6.0352 C9.8134,6.1512 9.4134,6.3202 9.0314,6.5242" id="Stroke-31" stroke="#A2A5B5" stroke-width="2" stroke-linecap="round" stroke-linejoin="round"></path>
                            <path d="M15,12 C15,13.657 13.657,15 12,15 C10.343,15 9,13.657 9,12 C9,10.343 10.343,9 12,9 C13.657,9 15,10.343 15,12 Z" id="Stroke-33" stroke="#A2A5B5" stroke-width="2" stroke-linecap="round" stroke-linejoin="round"></path>
                        </g>
                    </g>
                </g>
            </g>
        </g>
    </g>
</svg>