<svg width="24" height="17" viewBox="0 0 24 17" fill="none" xmlns="http://www.w3.org/2000/svg">
<path d="M4.96398 16.3523C2.77487 16.3523 1.00024 14.5777 1.00024 12.3886C1.00024 10.1994 2.77487 8.4248 4.96398 8.4248C7.1531 8.4248 8.92773 10.1994 8.92773 12.3886C8.92773 14.5777 7.1531 16.3523 4.96398 16.3523Z" fill="#DCE0DF"/>
<path d="M19.2882 16.1091C17.0991 16.1091 15.3245 14.3345 15.3245 12.1454C15.3245 9.95627 17.0991 8.18164 19.2882 8.18164C21.4773 8.18164 23.252 9.95627 23.252 12.1454C23.252 14.3345 21.4773 16.1091 19.2882 16.1091Z" fill="#DCE0DF"/>
<path d="M4.96344 14.3241C3.89477 14.3241 3.02844 13.4578 3.02844 12.3891C3.02844 11.3204 3.89477 10.4541 4.96344 10.4541C6.03211 10.4541 6.89844 11.3204 6.89844 12.3891C6.89844 13.4578 6.03211 14.3241 4.96344 14.3241Z" stroke="#0364FF" stroke-width="0.75" stroke-miterlimit="10"/>
<path d="M19.2868 14.1998C18.1519 14.1998 17.2318 13.2798 17.2318 12.1448C17.2318 11.0099 18.1519 10.0898 19.2868 10.0898C20.4217 10.0898 21.3418 11.0099 21.3418 12.1448C21.3418 13.2798 20.4217 14.1998 19.2868 14.1998Z" stroke="#0364FF" stroke-width="0.75" stroke-miterlimit="10"/>
<path d="M17.2324 4.75391L9.09492 6.54266L4.96242 12.3889H11.4312L17.2324 4.75391Z" stroke="black" stroke-width="0.75" stroke-linecap="round" stroke-linejoin="round"/>
<path d="M13.3621 1H16.1896L19.2871 12.145" stroke="black" stroke-width="0.75" stroke-linecap="round" stroke-linejoin="round"/>
<path d="M11.4316 12.3884L7.70414 2.9834" stroke="black" stroke-width="0.75" stroke-linecap="round" stroke-linejoin="round"/>
<path d="M6.22664 2.9834H9.18164" stroke="black" stroke-width="0.75" stroke-linecap="round" stroke-linejoin="round"/>
<path d="M4.96398 16.3523C2.77487 16.3523 1.00024 14.5777 1.00024 12.3886C1.00024 10.1994 2.77487 8.4248 4.96398 8.4248C7.1531 8.4248 8.92773 10.1994 8.92773 12.3886C8.92773 14.5777 7.1531 16.3523 4.96398 16.3523Z" stroke="black" stroke-width="0.75" stroke-linecap="round" stroke-linejoin="round"/>
<path d="M19.2882 16.1091C17.0991 16.1091 15.3245 14.3345 15.3245 12.1454C15.3245 9.95627 17.0991 8.18164 19.2882 8.18164C21.4773 8.18164 23.252 9.95627 23.252 12.1454C23.252 14.3345 21.4773 16.1091 19.2882 16.1091Z" stroke="black" stroke-width="0.75" stroke-linecap="round" stroke-linejoin="round"/>
</svg>
