<svg width="32" height="16" viewBox="0 0 32 16" fill="none" xmlns="http://www.w3.org/2000/svg">
<path d="M6.58398 5.50657L9.24976 1.00517H18.1804C18.4662 1.00533 18.7482 1.07093 19.0047 1.19696C19.2612 1.32298 19.4854 1.50608 19.6602 1.7322L23.084 6.17173H6.87274C6.797 6.16885 6.72363 6.14462 6.66106 6.10185C6.5985 6.05908 6.54929 5.99951 6.51911 5.92999C6.48894 5.86047 6.47901 5.78384 6.49049 5.70893C6.50197 5.63401 6.53438 5.56387 6.58398 5.50657V5.50657Z" fill="#7EDEE8"/>
<path d="M16.1331 1.00517L19.0412 6.17173H20.1292L17.2262 1.00517H16.1331Z" fill="#D3D5E2"/>
<path d="M11.5238 1.00001L14.4268 6.18719H14.9579L12.0549 1.00001H11.5238Z" fill="#D3D5E2"/>
<path d="M9.15707 1.00001L12.06 6.18719H13.1532L10.2502 1.00001H9.15707Z" fill="#D3D5E2"/>
<path d="M1.02141 6.87813V11.56C1.04274 11.943 1.21458 12.3021 1.49949 12.559C1.7844 12.8159 2.1593 12.9498 2.5425 12.9316H5.49703C5.52379 12.391 5.75738 11.8813 6.14946 11.5082C6.54154 11.135 7.06209 10.9269 7.60336 10.9269C8.14463 10.9269 8.66518 11.135 9.05726 11.5082C9.44934 11.8813 9.68293 12.391 9.70969 12.9316H23.085C23.1052 12.3909 23.337 11.8797 23.7306 11.5084C24.1241 11.137 24.6478 10.9352 25.1888 10.9464C25.7315 10.9296 26.259 11.1276 26.6567 11.4973C27.0544 11.867 27.2903 12.3787 27.3131 12.9213H29.422C30.3553 12.9213 31.1133 12.3077 31.1133 11.5497V7.94032C31.1133 7.47625 30.9293 7.03112 30.6016 6.70249C30.274 6.37386 29.8294 6.18856 29.3653 6.18719H6.87375C6.79504 6.18691 6.71814 6.16353 6.65259 6.11996C6.58704 6.07639 6.53571 6.01454 6.50497 5.94208C6.47423 5.86962 6.46543 5.78973 6.47965 5.71232C6.49388 5.6349 6.53051 5.56336 6.585 5.50657L9.25078 1.00516H7.05937C6.83852 1.00581 6.62016 1.05192 6.4179 1.14063C6.21565 1.22934 6.03382 1.35875 5.88375 1.52079L1.52156 5.64579C1.20448 5.9782 1.02568 6.41876 1.02141 6.87813V6.87813Z" fill="#DCE0DF"/>
<path d="M1.02055 8.22908H31.1124V10.9413H1.02055V8.22908Z" fill="#0364FF"/>
<path d="M1.02067 5.66125H6.87302V6.68734H1.02067V5.66125Z" fill="#0364FF"/>
<path d="M31.1124 8.69829H28.7406" stroke="#D3D5E2" stroke-width="1.03125" stroke-linecap="round" stroke-linejoin="round"/>
<path d="M5.49578 12.9213C5.47104 13.3423 5.57312 13.7611 5.78884 14.1236C6.00456 14.486 6.324 14.7754 6.7059 14.9545C7.0878 15.1335 7.5146 15.1939 7.93118 15.1279C8.34777 15.0619 8.73498 14.8724 9.0428 14.5841C9.35062 14.2957 9.56491 13.9217 9.65798 13.5103C9.75105 13.0989 9.71862 12.6691 9.5649 12.2763C9.41117 11.8836 9.1432 11.5459 8.79561 11.307C8.44801 11.0681 8.03677 10.9389 7.615 10.9361C7.07139 10.9208 6.54373 11.1208 6.14684 11.4926C5.74995 11.8643 5.51596 12.3778 5.49578 12.9213Z" stroke="#D3D5E2" stroke-width="1.03125" stroke-linecap="round" stroke-linejoin="round"/>
<path d="M23.0845 12.9213C23.1047 13.462 23.3366 13.9731 23.7301 14.3444C24.1236 14.7158 24.6473 14.9176 25.1883 14.9064C25.461 14.9261 25.7349 14.8894 25.9928 14.7985C26.2507 14.7076 26.4871 14.5646 26.6873 14.3784C26.8874 14.1921 27.0471 13.9666 27.1563 13.7159C27.2654 13.4652 27.3218 13.1947 27.3218 12.9213C27.3218 12.6478 27.2654 12.3773 27.1563 12.1266C27.0471 11.8759 26.8874 11.6504 26.6873 11.4642C26.4871 11.2779 26.2507 11.1349 25.9928 11.044C25.7349 10.9532 25.461 10.9164 25.1883 10.9361C24.6473 10.9249 24.1236 11.1267 23.7301 11.4981C23.3366 11.8694 23.1047 12.3806 23.0845 12.9213Z" stroke="#D3D5E2" stroke-width="1.03125" stroke-linecap="round" stroke-linejoin="round"/>
<path d="M9.24563 1.00516L6.585 5.50657C6.53191 5.56389 6.49667 5.63544 6.48358 5.71247C6.47049 5.7895 6.48011 5.86867 6.51129 5.94032C6.54246 6.01196 6.59383 6.07297 6.65911 6.1159C6.7244 6.15883 6.80077 6.18181 6.87891 6.18204H29.3653C29.8294 6.1834 30.274 6.36871 30.6016 6.69733C30.9293 7.02596 31.1133 7.47109 31.1133 7.93516V11.5445C31.1133 12.3025 30.3553 12.9161 29.422 12.9161H27.3131" stroke="#D3D5E2" stroke-width="1.03125" stroke-linecap="round" stroke-linejoin="round"/>
<path d="M23.084 6.17173L19.6499 1.7322C19.4751 1.50608 19.2509 1.32298 18.9944 1.19696C18.7379 1.07093 18.4559 1.00533 18.1701 1.00517H7.0532C6.83235 1.00581 6.61399 1.05193 6.41173 1.14064C6.20947 1.22935 6.02765 1.35875 5.87758 1.52079L1.51539 5.64579C1.189 5.97965 1.00425 6.42673 0.999765 6.89361V11.56C1.0211 11.9431 1.19294 12.3021 1.47785 12.559C1.76277 12.816 2.13766 12.9499 2.52086 12.9316H5.49602" stroke="#D3D5E2" stroke-width="1.03125" stroke-linecap="round" stroke-linejoin="round"/>
<path d="M9.70932 12.9213H23.1001" stroke="#D3D5E2" stroke-width="1.03125" stroke-linecap="round" stroke-linejoin="round"/>
<path d="M15.551 1.00517V6.17689" stroke="#D3D5E2" stroke-width="1.03125" stroke-linecap="round" stroke-linejoin="round"/>
</svg>
