<?xml version="1.0" encoding="UTF-8"?>
<svg width="40px" height="35px" viewBox="0 0 40 35" version="1.1" xmlns="http://www.w3.org/2000/svg" xmlns:xlink="http://www.w3.org/1999/xlink">
    <!-- Generator: Sketch 55.2 (78181) - https://sketchapp.com -->
    <title>Wallet1</title>
    <desc>Created with Sketch.</desc>
    <g id="Icons" stroke="none" stroke-width="1" fill="none" fill-rule="evenodd">
        <g id="More-Icons" transform="translate(-29.000000, -43.000000)" fill="#5495F7" fill-rule="nonzero">
            <g id="Wallet1" transform="translate(29.000000, 43.000000)">
                <g id="Group">
                    <path d="M3.90243902,0.17365274 C1.75736585,0.17365274 0,1.90092671 0,4.00926918 L0,31.3380411 C0,33.1807671 1.53980488,34.6942055 3.41463415,34.6942055 L36.5853659,34.6942055 C38.4601951,34.6942055 40,33.1807671 40,31.3380411 L40,9.28324178 C40,7.44051575 38.4601951,5.9270774 36.5853659,5.9270774 L34.1463415,5.9270774 L34.1463415,1.13255685 C34.1462927,0.630474658 33.681561,0.17365274 33.1707317,0.17365274 L3.90243902,0.17365274 Z M3.90243902,2.09146096 L32.195122,2.09146096 L32.195122,5.9270774 L3.90243902,5.9270774 C2.80458537,5.9270774 1.95121951,5.08832397 1.95121951,4.00926918 C1.95121951,2.93021438 2.80458537,2.09146096 3.90243902,2.09146096 Z M1.95121951,7.32046096 C2.52629268,7.64965274 3.19297561,7.84488562 3.90243902,7.84488562 C14.8898049,7.83529658 27.1417561,7.84488562 36.5853659,7.84488562 C37.4129756,7.84488562 38.0487805,8.46980342 38.0487805,9.28324178 L38.0487805,15.0366664 L23.902439,15.0366664 C22.5680976,15.0366664 21.4634146,16.1224336 21.4634146,17.4339315 L21.4634146,23.1873562 C21.4634146,24.4988493 22.5680976,25.5846164 23.902439,25.5846164 L38.0487805,25.5846164 L38.0487805,31.3380411 C38.0487805,32.1514795 37.4129756,32.7763973 36.5853659,32.7763973 L3.41463415,32.7763973 C2.58702439,32.7763973 1.95121951,32.1514795 1.95121951,31.3380411 L1.95121951,7.32046096 Z M23.902439,16.9544782 L38.0487805,16.9544782 L38.0487805,23.6668082 L23.902439,23.6668082 C23.6153171,23.6668082 23.4146341,23.4695616 23.4146341,23.1873562 L23.4146341,17.4339315 C23.4146341,17.151726 23.6153171,16.9539041 23.902439,16.9544782 Z M28.7804878,18.3928356 C27.702878,18.3928356 26.8292683,19.2514863 26.8292683,20.3106438 C26.8292683,21.3698493 27.702878,22.2284521 28.7804878,22.2284521 C29.8580976,22.2284521 30.7317073,21.3698493 30.7317073,20.3106438 C30.7317073,19.2514863 29.8580976,18.3928356 28.7804878,18.3928356 Z" id="Shape"></path>
                </g>
            </g>
        </g>
    </g>
</svg>