<svg xmlns="http://www.w3.org/2000/svg" xmlns:xlink="http://www.w3.org/1999/xlink" width="500" height="144.91" viewBox="0 0 500 144.91">
  <defs>
    <clipPath id="clip-custom_1">
      <rect width="500" height="144.91"/>
    </clipPath>
  </defs>
  <g id="custom_1" data-name="custom – 1" clip-path="url(#clip-custom_1)">
    <g id="Group_61" data-name="Group 61" transform="translate(-74.589 -61.276)">
      <ellipse id="Ellipse_1" data-name="Ellipse 1" cx="63.982" cy="63.981" rx="63.982" ry="63.981" transform="translate(202.551 78.225) rotate(90)"/>
      <ellipse id="Ellipse_155" data-name="Ellipse 155" cx="17.371" cy="17.371" rx="17.371" ry="17.371" transform="translate(227.976 61.276) rotate(90)"/>
      <g id="Group_2" data-name="Group 2" transform="translate(232.135 115.897)">
        <path id="Path_32" data-name="Path 32" d="M.08,61.75H10.532l6.3-32.714c.878-4.628,1.835-11.969,1.835-11.969h.16s.08,6.782.4,11.011L21.942,61.75H32.793L48.512,28c2.234-4.787,4.708-10.931,4.708-10.931h.16s-1.835,7.022-2.793,11.969l-6.3,32.714H54.9L65.906,4.7H49.469L35.746,34.3c-3.271,7.1-5.825,14.761-5.825,14.761h-.08s-.08-8.218-.718-16.2L26.969,4.7H11.091Zm81.784,1.2c13.963,0,22.74-11.49,22.74-24.575,0-12.128-8.458-18.671-18.91-18.671-13.963,0-23.059,11.25-23.059,24.176C62.635,56.4,71.172,62.947,81.864,62.947ZM73.326,44.515c0-7.9,3.59-16.756,11.809-16.756,6.3,0,8.777,4.947,8.777,10.293,0,7.819-3.511,16.836-11.809,16.836C75.8,54.888,73.326,50.1,73.326,44.515Zm50.905,18.432c13.963,0,22.74-11.49,22.74-24.575,0-12.128-8.458-18.671-18.91-18.671C114.1,19.7,105,30.951,105,43.877,105,56.4,113.54,62.947,124.232,62.947Zm-8.537-18.432c0-7.9,3.59-16.756,11.809-16.756,6.3,0,8.777,4.947,8.777,10.293,0,7.819-3.511,16.836-11.809,16.836C118.168,54.888,115.694,50.1,115.694,44.515Zm48.113-23.7H153.355l-7.9,40.932h10.692l4.309-22.341c1.117-5.984,4.708-10.612,9.734-10.612,4.548,0,6.623,2.952,5.585,8.378L170.988,61.75H181.68L186.627,35.9c1.835-9.575-2.872-16.2-11.011-16.2-5.825,0-9.256,2.553-12.766,7.58h-.239Zm22.9,40.932h11.809L202.5,41.084h13.883c12.766,0,21.463-7.341,21.463-19.549,0-10.692-7.261-16.836-18.192-16.836H197.717Zm20.9-47.076h10.532c5.186,0,7.9,2.793,7.9,7.42,0,6.782-4.867,9.655-10.213,9.655H204.34ZM258.357,61.75H268.49v-.4c-.638-.957-.878-2.872-.319-5.665L272,36.058c2.234-11.889-5.426-16.277-15.559-16.277-10.532,0-17,5.107-18.351,13.485h9.575c.957-4.069,3.91-5.825,8.378-5.825,4.069,0,6.383,1.6,6.383,4.548,0,4.069-2.952,4.388-10.612,5.027-9.974.8-18.591,2.793-18.591,13.644,0,8.458,6.7,12.048,13.006,12.048,5.9,0,8.936-2.793,11.41-5.426h.16A9.96,9.96,0,0,0,258.357,61.75ZM243.516,49.7c0-5.585,5.665-5.346,9.575-6.064a31.891,31.891,0,0,0,7.819-2.075l-1.277,6.463c-.8,3.75-4.388,7.261-9.974,7.261C246.07,55.287,243.516,53.372,243.516,49.7ZM268.57,75.155h6.7c7.9,0,11.41-3.192,15.479-11.41L311.9,20.818H301.044l-8.458,18.591c-1.755,3.83-3.75,9.256-3.75,9.256h-.16s-.638-5.506-1.2-9.256l-2.793-18.591h-11.17l5.9,29.123a50.221,50.221,0,0,1,1.356,9.176c0,5.107-2.553,7.58-7.1,7.58h-3.431Z" transform="translate(-0.08 -3.603)"/>
        <path id="Path_33" data-name="Path 33" d="M.4,3.839H4.509L2.215,15.687H5.068L7.362,3.839h4.129l.459-2.414H.859ZM9.955,15.687h2.613l1.576-8.178c.219-1.157.459-2.992.459-2.992h.04s.02,1.7.1,2.753l.678,8.418h2.713l3.93-8.438c.559-1.2,1.177-2.733,1.177-2.733h.04s-.459,1.755-.7,2.992l-1.576,8.178h2.653L26.411,1.425H22.3l-3.431,7.4c-.818,1.775-1.456,3.69-1.456,3.69H17.4s-.02-2.055-.18-4.049l-.539-7.041h-3.97Z" transform="translate(316.043 -1.425)"/>
      </g>
    </g>
  </g>
</svg>
